<svg width="520" height="463" viewBox="0 0 520 463" fill="none" xmlns="http://www.w3.org/2000/svg">
<g clip-path="url(#clip0_233_1968)">
<rect x="108" y="75.999" width="300" height="300" rx="30" fill="#00CF9D"/>
<path d="M180.402 257.089C180.402 257.089 211.773 295.357 272.398 285.433L269.755 269.288C269.755 269.288 227.252 268.061 199.939 213.263" fill="#FFDD4D"/>
<path fill-rule="evenodd" clip-rule="evenodd" d="M198.677 210.731C200.075 210.034 201.773 210.603 202.47 212.001C215.848 238.841 232.856 252.414 246.374 259.305C253.151 262.759 259.085 264.551 263.295 265.478C265.4 265.941 267.072 266.188 268.2 266.319C268.764 266.384 269.192 266.42 269.469 266.44C269.608 266.449 269.709 266.455 269.771 266.458L269.834 266.461L269.837 266.461C269.838 266.461 269.839 266.461 269.84 266.461C269.84 266.461 269.84 266.461 269.84 266.461C269.841 266.461 269.841 266.461 269.842 266.461C269.842 266.461 269.842 266.461 269.842 266.461C271.194 266.503 272.328 267.496 272.546 268.831L275.189 284.976C275.441 286.517 274.396 287.971 272.855 288.224C241.839 293.301 218.211 286.051 202.322 277.471C194.391 273.189 188.4 268.584 184.379 265.034C182.368 263.258 180.846 261.744 179.818 260.663C179.304 260.122 178.913 259.689 178.646 259.385C178.512 259.233 178.409 259.114 178.338 259.029C178.302 258.987 178.273 258.953 178.253 258.928L178.228 258.898L178.22 258.889L178.217 258.885C178.216 258.884 178.215 258.882 180.301 257.172L178.215 258.882C177.224 257.674 177.401 255.892 178.609 254.902C179.816 253.912 181.596 254.088 182.587 255.293C182.587 255.294 182.588 255.294 182.588 255.294L182.589 255.296L182.597 255.305L182.65 255.368C182.701 255.428 182.781 255.522 182.892 255.648C183.114 255.9 183.456 256.279 183.918 256.765C184.843 257.738 186.246 259.136 188.123 260.793C191.878 264.108 197.519 268.449 205.009 272.494C219.487 280.311 240.919 287.048 269.145 283.067L267.318 271.91C266.03 271.754 264.252 271.481 262.079 271.002C257.466 269.987 251.067 268.047 243.805 264.344C229.242 256.921 211.343 242.482 197.407 214.524C196.711 213.126 197.279 211.428 198.677 210.731Z" fill="#0B454F"/>
<path d="M193.896 193.296C193.896 193.296 193.889 193.252 193.885 193.229C175.197 172.489 178.145 143.438 163.676 145.807C151.149 147.857 144.201 177.127 159.124 191.537L158.968 191.562C139.34 194.775 136.565 211.577 139.778 231.205C142.991 250.833 150.979 265.873 170.606 262.66C190.234 259.447 216.322 252.975 210.853 219.57C208.47 205.011 202.035 197.214 193.9 193.319L193.896 193.296Z" fill="#FFDD4D"/>
<path fill-rule="evenodd" clip-rule="evenodd" d="M153.23 150.218C155.662 146.584 159.039 143.7 163.219 143.015C165.5 142.642 167.613 142.868 169.53 143.738C171.419 144.595 172.91 145.982 174.129 147.596C176.487 150.718 178.188 155.206 179.863 159.902C180.111 160.599 180.361 161.307 180.615 162.025C183.859 171.211 187.658 181.971 195.759 191.082C204.564 195.546 211.2 204.18 213.645 219.113C215.072 227.831 214.475 235.013 212.284 240.926C210.087 246.859 206.355 251.325 201.834 254.703C192.927 261.358 180.851 263.849 171.063 265.451C160.327 267.209 152.4 263.94 146.865 257.31C141.522 250.909 138.619 241.631 136.987 231.662C135.355 221.693 135.148 211.973 138.172 204.202C140.829 197.375 145.889 192.291 153.917 189.833C148.315 182.097 147.005 172.125 148.31 163.608C149.079 158.593 150.779 153.882 153.23 150.218ZM153.902 164.466C152.555 173.249 154.488 183.128 161.089 189.502C161.859 190.245 162.143 191.359 161.824 192.38C161.505 193.401 160.637 194.155 159.581 194.328L159.425 194.353C150.533 195.809 145.803 200.191 143.443 206.254C140.976 212.594 140.988 221.089 142.569 230.748C144.15 240.407 146.848 248.463 151.208 253.685C155.377 258.68 161.258 261.324 170.15 259.869C179.99 258.258 190.772 255.907 198.448 250.171C202.218 247.354 205.211 243.737 206.98 238.961C208.756 234.166 209.369 228.012 208.062 220.027C205.799 206.2 199.827 199.293 192.678 195.869C192.174 195.628 191.76 195.247 191.479 194.781C182.642 184.813 178.511 173.085 175.315 164.009C175.049 163.254 174.789 162.518 174.534 161.802C172.801 156.939 171.358 153.313 169.615 151.005C168.784 149.905 167.986 149.249 167.193 148.889C166.429 148.543 165.468 148.379 164.133 148.598C162.048 148.939 159.86 150.482 157.932 153.364C156.024 156.215 154.57 160.106 153.902 164.466Z" fill="#0B454F"/>
<path d="M158.467 220.854C174.018 218.308 185.582 209.876 184.296 202.021C183.01 194.165 169.361 189.86 153.81 192.406C138.259 194.952 126.694 203.384 127.98 211.239C129.266 219.095 142.916 223.4 158.467 220.854Z" fill="#FFDD4D"/>
<path fill-rule="evenodd" clip-rule="evenodd" d="M136.248 202.117C131.855 205.32 130.392 208.467 130.772 210.783C131.151 213.099 133.54 215.615 138.725 217.25C143.737 218.831 150.577 219.28 158.01 218.063C165.442 216.846 171.782 214.24 176.029 211.143C180.421 207.941 181.884 204.794 181.505 202.478C181.126 200.162 178.736 197.645 173.552 196.01C168.539 194.43 161.699 193.981 154.267 195.197C146.834 196.414 140.494 199.021 136.248 202.117ZM132.915 197.546C138.017 193.826 145.234 190.944 153.353 189.615C161.472 188.286 169.231 188.717 175.253 190.616C181.103 192.46 186.18 196.024 187.087 201.564C187.994 207.104 184.318 212.101 179.362 215.714C174.26 219.434 167.042 222.316 158.923 223.645C150.805 224.975 143.045 224.544 137.023 222.645C131.174 220.8 126.096 217.236 125.189 211.697C124.282 206.157 127.959 201.16 132.915 197.546Z" fill="#0B454F"/>
<path d="M165.529 263.995C181.08 261.45 192.644 253.018 191.358 245.162C190.072 237.306 176.423 233.001 160.872 235.547C145.321 238.093 133.756 246.525 135.042 254.381C136.328 262.236 149.978 266.541 165.529 263.995Z" fill="#FFDD4D"/>
<path fill-rule="evenodd" clip-rule="evenodd" d="M143.31 245.258C138.917 248.461 137.455 251.608 137.834 253.924C138.213 256.24 140.603 258.756 145.787 260.391C150.799 261.972 157.64 262.421 165.072 261.204C172.504 259.988 178.844 257.381 183.091 254.285C187.483 251.082 188.946 247.935 188.567 245.619C188.188 243.303 185.798 240.787 180.614 239.152C175.601 237.571 168.761 237.122 161.329 238.339C153.897 239.555 147.556 242.162 143.31 245.258ZM139.977 240.687C145.079 236.967 152.296 234.085 160.415 232.756C168.534 231.427 176.293 231.858 182.315 233.757C188.165 235.602 193.242 239.165 194.149 244.705C195.056 250.245 191.38 255.242 186.424 258.855C181.322 262.575 174.105 265.458 165.986 266.787C157.867 268.116 150.107 267.685 144.085 265.786C138.236 263.941 133.158 260.377 132.251 254.838C131.344 249.298 135.021 244.301 139.977 240.687Z" fill="#0B454F"/>
<path d="M157.057 244.037C172.608 241.491 184.172 233.059 182.886 225.203C181.6 217.347 167.951 213.043 152.4 215.589C136.849 218.134 125.285 226.566 126.571 234.422C127.857 242.278 141.506 246.582 157.057 244.037Z" fill="#FFDD4D"/>
<path fill-rule="evenodd" clip-rule="evenodd" d="M134.838 225.299C130.445 228.502 128.983 231.649 129.362 233.965C129.741 236.281 132.131 238.797 137.315 240.432C142.327 242.013 149.168 242.462 156.6 241.245C164.032 240.029 170.372 237.422 174.619 234.326C179.011 231.123 180.474 227.976 180.095 225.66C179.716 223.344 177.326 220.828 172.142 219.193C167.129 217.612 160.289 217.163 152.857 218.38C145.425 219.596 139.084 222.203 134.838 225.299ZM131.505 220.728C136.607 217.008 143.824 214.126 151.943 212.797C160.062 211.468 167.821 211.899 173.843 213.798C179.693 215.643 184.77 219.206 185.677 224.746C186.584 230.286 182.908 235.283 177.952 238.896C172.85 242.616 165.632 245.499 157.514 246.828C149.395 248.157 141.635 247.726 135.613 245.827C129.764 243.982 124.686 240.418 123.779 234.879C122.872 229.339 126.549 224.342 131.505 220.728Z" fill="#0B454F"/>
<path fill-rule="evenodd" clip-rule="evenodd" d="M155.358 103.398C156.899 103.146 158.354 104.191 158.606 105.732L161.958 126.209C162.21 127.75 161.165 129.204 159.624 129.457C158.082 129.709 156.628 128.664 156.375 127.122L153.023 106.646C152.771 105.104 153.816 103.65 155.358 103.398Z" fill="#0B454F"/>
<path fill-rule="evenodd" clip-rule="evenodd" d="M130.669 114.217C131.996 113.391 133.74 113.798 134.565 115.124L145.517 132.728C146.343 134.055 145.936 135.799 144.61 136.624C143.284 137.449 141.54 137.043 140.714 135.717L129.762 118.112C128.937 116.786 129.343 115.042 130.669 114.217Z" fill="#0B454F"/>
<path fill-rule="evenodd" clip-rule="evenodd" d="M182.207 105.78C183.727 106.139 184.669 107.663 184.309 109.183L179.542 129.361C179.183 130.881 177.659 131.822 176.139 131.463C174.619 131.104 173.677 129.58 174.037 128.06L178.804 107.882C179.163 106.362 180.687 105.421 182.207 105.78Z" fill="#0B454F"/>
<path d="M367.542 388.052C388.618 384.602 402.906 364.72 399.456 343.644C396.006 322.568 376.124 308.279 355.048 311.729C333.972 315.179 319.683 335.062 323.133 356.138C326.583 377.214 346.466 391.502 367.542 388.052Z" fill="#FFDD4D"/>
<path fill-rule="evenodd" clip-rule="evenodd" d="M355.505 314.521C335.97 317.718 322.727 336.146 325.924 355.681C329.122 375.215 347.55 388.459 367.085 385.261C386.619 382.063 399.863 363.635 396.665 344.101C393.467 324.566 375.039 311.323 355.505 314.521ZM320.342 356.595C316.639 333.977 331.973 312.641 354.591 308.938C377.208 305.236 398.545 320.57 402.247 343.187C405.95 365.805 390.616 387.141 367.998 390.844C345.381 394.546 324.044 379.212 320.342 356.595Z" fill="#0B454F"/>
<path d="M322.649 98.9636L317.937 99.7349C312.326 100.653 308.522 105.947 309.44 111.558L314.404 141.882C315.323 147.493 320.616 151.297 326.227 150.379L330.939 149.607C336.55 148.689 340.354 143.395 339.436 137.784L334.472 107.46C333.553 101.849 328.26 98.0451 322.649 98.9636Z" fill="#FFDD4D"/>
<path fill-rule="evenodd" clip-rule="evenodd" d="M318.394 102.526C314.324 103.192 311.565 107.031 312.232 111.101L317.195 141.425C317.862 145.494 321.701 148.253 325.771 147.587L330.482 146.816C334.552 146.15 337.311 142.311 336.645 138.241L331.681 107.917C331.015 103.847 327.175 101.088 323.106 101.755L318.394 102.526ZM306.649 112.015C305.478 104.862 310.328 98.1143 317.48 96.9434L322.192 96.1722C329.345 95.0013 336.092 99.8506 337.263 107.003L342.227 137.327C343.398 144.48 338.549 151.228 331.396 152.398L326.684 153.17C319.532 154.341 312.784 149.491 311.613 142.339L306.649 112.015Z" fill="#0B454F"/>
<path d="M431.768 234.994L426.684 203.934C418.927 156.55 375.217 122.595 327.643 129.053C278.276 135.759 244.493 181.78 252.484 230.592L257.865 263.462C262.127 289.498 259.888 316.163 251.342 341.132L241.63 369.479L480.96 330.301L462.715 306.531C446.658 285.612 436.031 261.031 431.768 234.994Z" fill="#FFDD4D"/>
<path fill-rule="evenodd" clip-rule="evenodd" d="M249.693 231.05C241.446 180.67 276.313 133.171 327.263 126.251L327.263 126.25C376.43 119.576 421.483 154.658 429.475 203.477L434.56 234.537C438.746 260.114 449.186 284.261 464.959 304.809L464.959 304.809L483.203 328.58C483.809 329.369 483.955 330.418 483.589 331.343C483.223 332.268 482.398 332.932 481.416 333.093L242.087 372.271C241.105 372.431 240.111 372.065 239.469 371.305C238.827 370.545 238.632 369.504 238.954 368.563L248.666 340.217C248.666 340.216 248.667 340.216 248.667 340.216C257.061 315.688 259.26 289.495 255.073 263.919L249.693 231.05ZM328.024 131.856C280.239 138.347 247.541 182.89 255.275 230.136L260.656 263.005C264.993 289.502 262.715 316.638 254.018 342.048L254.018 342.049L245.837 365.925L475.838 328.274L460.472 308.253C444.129 286.964 433.314 261.947 428.977 235.451L423.893 204.391C416.371 158.443 374.004 125.614 328.024 131.856" fill="#0B454F"/>
<path fill-rule="evenodd" clip-rule="evenodd" d="M314.968 250.485C316.258 249.605 318.018 249.938 318.898 251.229C324.972 260.134 335.821 265.215 347.13 263.363C358.439 261.512 367.103 253.237 370.02 242.86C370.443 241.356 372.004 240.48 373.508 240.903C375.012 241.325 375.888 242.887 375.466 244.391C371.978 256.797 361.611 266.725 348.044 268.946C334.478 271.167 321.486 265.063 314.225 254.416C313.344 253.125 313.677 251.366 314.968 250.485Z" fill="#0B454F"/>
<path fill-rule="evenodd" clip-rule="evenodd" d="M317.135 244.36C318.563 243.727 320.234 244.371 320.867 245.799C322.15 248.69 320.877 252.153 318.84 254.445C317.748 255.673 316.425 256.616 315.033 257.174C313.673 257.719 312.041 257.971 310.471 257.483C308.979 257.019 308.146 255.434 308.61 253.942C309.073 252.451 310.659 251.617 312.15 252.081C312.148 252.08 312.148 252.08 312.152 252.081C312.184 252.085 312.438 252.119 312.928 251.923C313.446 251.715 314.058 251.31 314.612 250.686C315.165 250.064 315.492 249.415 315.634 248.882C315.772 248.37 315.704 248.122 315.697 248.094C315.696 248.091 315.696 248.091 315.696 248.092C315.063 246.664 315.707 244.993 317.135 244.36Z" fill="#0B454F"/>
<path fill-rule="evenodd" clip-rule="evenodd" d="M369.501 235.788C371.056 235.933 372.2 237.311 372.055 238.867C372.055 238.865 372.055 238.865 372.055 238.868C372.057 238.897 372.072 239.154 372.365 239.596C372.67 240.055 373.187 240.566 373.91 240.98C374.634 241.394 375.343 241.583 375.9 241.615C376.427 241.645 376.657 241.531 376.686 241.517C376.689 241.515 376.69 241.515 376.688 241.516C377.954 240.601 379.722 240.886 380.637 242.152C381.552 243.418 381.267 245.186 380.001 246.101C378.669 247.064 377.042 247.345 375.579 247.262C374.082 247.177 372.527 246.706 371.101 245.89C368.44 244.367 366.129 241.491 366.422 238.342C366.567 236.786 367.946 235.643 369.501 235.788Z" fill="#0B454F"/>
<path d="M344.327 246.236C351.726 245.025 356.927 239.174 355.944 233.169C354.961 227.163 348.166 223.276 340.766 224.487C333.367 225.698 328.166 231.549 329.149 237.555C330.132 243.561 336.927 247.448 344.327 246.236Z" fill="#FF6A87"/>
<path fill-rule="evenodd" clip-rule="evenodd" d="M341.223 227.278C334.793 228.331 331.294 233.15 331.94 237.098C332.586 241.046 337.44 244.498 343.87 243.445C350.3 242.392 353.8 237.574 353.153 233.625C352.507 229.677 347.654 226.226 341.223 227.278ZM326.358 238.012C325.038 229.948 331.941 223.066 340.31 221.696C348.678 220.326 357.416 224.648 358.736 232.712C360.056 240.775 353.152 247.657 344.784 249.027C336.415 250.397 327.677 246.075 326.358 238.012Z" fill="#0B454F"/>
<path d="M319.826 226.402C321.305 226.16 321.785 221.565 320.897 216.138C320.009 210.712 318.089 206.51 316.609 206.752C315.129 206.994 314.649 211.59 315.538 217.016C316.426 222.442 318.346 226.644 319.826 226.402Z" fill="#0B454F"/>
<path fill-rule="evenodd" clip-rule="evenodd" d="M318.319 208.755C318.32 208.756 318.313 208.772 318.297 208.798C318.311 208.767 318.319 208.754 318.319 208.755ZM315.661 209.229C315.638 209.21 315.626 209.197 315.626 209.196C315.626 209.195 315.638 209.205 315.661 209.229ZM318.115 224.398C318.115 224.397 318.122 224.382 318.137 224.356C318.123 224.387 318.115 224.4 318.115 224.398ZM320.773 223.924C320.796 223.944 320.808 223.956 320.808 223.958C320.808 223.959 320.797 223.949 320.773 223.924ZM313.099 206.566C313.442 205.778 314.304 204.263 316.152 203.961C318 203.658 319.3 204.819 319.876 205.457C320.554 206.206 321.102 207.17 321.547 208.144C322.455 210.13 323.215 212.793 323.688 215.681C324.161 218.569 324.289 221.336 324.062 223.508C323.951 224.573 323.738 225.662 323.336 226.588C322.993 227.375 322.131 228.891 320.282 229.193C318.434 229.496 317.134 228.334 316.558 227.697C315.881 226.948 315.332 225.984 314.887 225.01C313.98 223.023 313.219 220.36 312.746 217.472C312.274 214.584 312.145 211.818 312.372 209.646C312.483 208.581 312.696 207.492 313.099 206.566Z" fill="#0B454F"/>
<path d="M361.247 219.621C362.727 219.379 363.207 214.784 362.318 209.358C361.43 203.931 359.51 199.729 358.031 199.971C356.551 200.214 356.071 204.809 356.959 210.235C357.848 215.661 359.767 219.864 361.247 219.621Z" fill="#0B454F"/>
<path fill-rule="evenodd" clip-rule="evenodd" d="M359.741 201.975C359.741 201.976 359.734 201.991 359.719 202.017C359.733 201.986 359.741 201.973 359.741 201.975ZM357.083 202.449C357.06 202.429 357.048 202.417 357.048 202.415C357.048 202.414 357.059 202.424 357.083 202.449ZM359.537 217.618C359.536 217.616 359.543 217.601 359.559 217.575C359.545 217.606 359.537 217.619 359.537 217.618ZM362.195 217.144C362.218 217.163 362.229 217.176 362.229 217.177C362.23 217.178 362.218 217.168 362.195 217.144ZM354.52 199.785C354.863 198.998 355.725 197.482 357.573 197.18C359.422 196.877 360.722 198.039 361.298 198.676C361.975 199.425 362.524 200.389 362.969 201.363C363.876 203.35 364.637 206.013 365.109 208.901C365.582 211.789 365.71 214.555 365.484 216.727C365.373 217.792 365.16 218.881 364.757 219.807C364.414 220.595 363.552 222.11 361.704 222.412C359.856 222.715 358.555 221.554 357.979 220.916C357.302 220.167 356.754 219.203 356.309 218.229C355.401 216.243 354.641 213.58 354.168 210.692C353.695 207.804 353.567 205.037 353.794 202.865C353.905 201.8 354.117 200.711 354.52 199.785Z" fill="#0B454F"/>
<path opacity="0.9" fill-rule="evenodd" clip-rule="evenodd" d="M388.318 172.62C389.533 171.639 391.314 171.829 392.295 173.045C394.536 175.822 396.684 178.883 398.651 182.288C399.433 183.641 398.97 185.371 397.617 186.152C396.264 186.933 394.534 186.47 393.753 185.118C391.945 181.988 389.966 179.167 387.893 176.597C386.912 175.381 387.102 173.601 388.318 172.62Z" fill="white"/>
<path opacity="0.9" fill-rule="evenodd" clip-rule="evenodd" d="M344.308 149.862C344.465 148.308 345.851 147.174 347.405 147.331L347.123 150.145C347.405 147.331 347.406 147.331 347.407 147.331L347.416 147.332L347.432 147.333L347.483 147.339C347.524 147.344 347.582 147.35 347.655 147.359C347.8 147.377 348.007 147.404 348.271 147.442C348.798 147.518 349.553 147.64 350.502 147.825C352.399 148.196 355.077 148.824 358.259 149.856C364.615 151.917 373.034 155.609 381.266 162.14C382.489 163.111 382.694 164.89 381.723 166.113C380.752 167.337 378.973 167.542 377.75 166.571C370.17 160.557 362.397 157.144 356.514 155.236C353.576 154.284 351.121 153.71 349.417 153.377C348.565 153.21 347.902 153.104 347.461 153.04C347.24 153.008 347.075 152.987 346.97 152.974C346.918 152.968 346.881 152.964 346.859 152.961L346.838 152.959C345.285 152.802 344.152 151.416 344.308 149.862Z" fill="white"/>
</g>
<rect x="240" y="-0.000976562" width="280" height="94" rx="47" fill="white"/>
<path d="M303.033 29.2471V65.6826H298.148V47.3047H294.865V64.001H290.02V29.7676H294.865V43.1406H298.148V29.2471H303.033ZM286.977 33.0107V56.5137H272.483V33.0107H286.977ZM277.248 37.0547V52.5098H282.213V37.0547H277.248ZM337.979 44.7822V48.5059H323.965V50.7881H334.015V59.6768H313.715V61.6787H334.976V65.4424H308.71V56.2334H328.97V54.4316H308.67V50.7881H318.88V48.5059H304.907V44.7822H337.979ZM323.925 29.207V32.0898H334.856V35.8535H324.566C325.567 37.9756 329.291 39.7173 336.658 40.0176L335.176 43.7812C328.41 43.4609 323.725 41.7393 321.403 38.9766C319.101 41.7393 314.396 43.4609 307.589 43.7812L306.188 40.0176C313.495 39.7173 317.199 37.9756 318.24 35.8535H308.03V32.0898H318.88V29.207H323.925ZM342.936 52.6699C341.054 52.6699 339.533 51.1484 339.573 49.3066C339.533 47.4648 341.054 45.9834 342.936 45.9834C344.698 45.9834 346.259 47.4648 346.259 49.3066C346.259 51.1484 344.698 52.6699 342.936 52.6699ZM379.524 29.2471V65.6826H374.639V47.4248H371.556V64.001H366.711V53.5508L363.828 57.3945C360.445 55.6128 358.263 52.5898 356.982 48.8262C355.76 53.1504 353.598 56.6538 350.135 58.7158L346.972 54.792C352.497 51.6689 354.379 45.2227 354.379 38.2559V37.0947H348.213V33.0107H364.909V37.0947H359.344V38.2559C359.344 44.6021 361.226 50.6479 366.711 53.4707V29.7676H371.556V43.2607H374.639V29.2471H379.524ZM411.146 32.4102V35.8535C411.146 40.418 411.146 45.543 409.665 53.2705L404.54 52.75C405.921 45.8633 405.981 40.7383 406.021 36.4541H384.56V32.4102H411.146ZM414.35 57.0742V61.2383H381.117V57.0742H393.009V44.542H398.094V57.0742H414.35ZM451.93 32.4102V35.8535C451.93 40.418 451.93 45.543 450.449 53.2705L445.324 52.75C446.705 45.8633 446.765 40.7383 446.805 36.4541H425.344V32.4102H451.93ZM455.133 57.0742V61.2383H421.901V57.0742H433.792V44.542H438.877V57.0742H455.133ZM474.945 32.1699V49.7471H457.127V32.1699H474.945ZM462.172 36.2139V45.7031H469.86V36.2139H462.172ZM485.795 29.2871V55.1924H480.67V29.2871H485.795ZM486.756 60.7578V64.8818H461.371V52.79H466.536V60.7578H486.756Z" fill="black"/>
<rect x="8.25452" y="339.124" width="341" height="97" rx="48.5" transform="rotate(4.5171 8.25452 339.124)" fill="#FFFA92"/>
<path d="M38.4147 375.209L46.201 375.824L52.9914 397.043L53.3262 397.069L63.3643 377.18L71.1506 377.795L68.7562 408.103L62.6444 407.62L64.212 387.777L63.9608 387.758L54.4912 406.849L50.3051 406.519L43.9575 386.093L43.7063 386.073L42.1321 405.999L36.0203 405.517L38.4147 375.209ZM76.7853 408.737L70.0037 408.201L82.9053 378.723L90.9847 379.362L99.0557 410.496L92.316 409.964L90.6077 402.795L79.64 401.928L76.7853 408.737ZM81.6176 397.156L89.4039 397.771L86.5106 385.874L86.3013 385.858L81.6176 397.156ZM100.345 410.598L102.739 380.29L114.628 381.23C121.535 381.775 125.163 385.979 124.69 391.966C124.362 396.11 122.22 398.973 118.65 400.166L124.164 412.48L117.215 411.931L112.288 400.716L107.474 400.336L106.624 411.094L100.345 410.598ZM107.878 395.229L112.315 395.579C116.041 395.874 117.963 394.467 118.201 391.453C118.443 388.397 116.775 386.58 113.049 386.286L108.612 385.935L107.878 395.229ZM126.098 387.359L126.509 382.168L151.333 384.129L150.922 389.32L141.629 388.586L139.645 413.703L133.407 413.21L135.392 388.093L126.098 387.359ZM150.688 414.576L153.082 384.268L159.362 384.764L157.377 409.881L170.438 410.913L170.028 416.103L150.688 414.576ZM199.683 403.198C198.902 413.077 192.299 418.284 184.303 417.652C176.224 417.014 170.565 410.796 171.343 400.959C172.123 391.079 178.685 385.869 186.764 386.507C194.76 387.139 200.463 393.318 199.683 403.198ZM193.278 402.692C193.791 396.203 191.013 392.445 186.324 392.075C181.636 391.704 178.26 394.976 177.747 401.465C177.235 407.953 180.055 411.714 184.743 412.085C189.432 412.455 192.765 409.18 193.278 402.692ZM234.688 416.41L234.341 420.805L199.47 418.05L199.817 413.655L214.511 414.816L214.964 409.081L204.289 408.237L205.301 395.428L226.86 397.131L227.191 392.945L205.59 391.238L205.927 386.968L232.802 389.091L231.804 401.734L210.329 400.037L209.991 404.307L232.345 406.073L232.002 410.427L220.28 409.501L219.827 415.236L234.688 416.41ZM262.703 394.823L262.369 399.051L243.95 397.596L244.284 393.368L250.898 393.891L251.275 389.119L256.55 389.535L256.173 394.308L262.703 394.823ZM253.108 400.047C257.964 400.43 261.141 404.473 260.766 409.75C260.304 415.064 256.532 418.557 251.676 418.173C246.82 417.789 243.559 413.741 243.979 408.424C244.396 403.15 248.252 399.663 253.108 400.047ZM252.757 404.484C250.539 404.309 248.896 405.906 248.668 408.795C248.44 411.683 249.814 413.477 252.033 413.652C254.168 413.821 255.807 412.265 256.077 409.38C256.264 406.488 254.892 404.653 252.757 404.484ZM277.731 390.156L274.722 428.25L269.656 427.85L271.105 409.514L268.007 409.269L266.687 425.972L261.706 425.579L264.527 389.871L269.508 390.264L268.344 404.999L271.442 405.244L272.666 389.755L277.731 390.156ZM311.798 392.847L310.283 412.02L304.967 411.6L305.199 408.669L296.491 407.981L296.812 403.921L305.519 404.609L305.784 401.26L297.495 400.605C294.677 406.153 288.946 409.386 280.367 410.541L278.91 406.045C287.776 404.997 292.1 401.716 293.174 397.189L281.829 396.292L282.17 391.981L299.417 393.343C299.326 394.494 299.155 395.597 298.904 396.63L306.105 397.199L306.482 392.427L311.798 392.847ZM310.174 413.401L309.351 423.825L289.425 422.25L289.226 424.762L309.99 426.402L309.656 430.63L283.534 428.567L284.377 417.892L304.303 419.466L304.485 417.164L284.517 415.586L284.848 411.4L310.174 413.401Z" fill="black"/>
<defs>
<clipPath id="clip0_233_1968">
<rect x="108" y="75.999" width="300" height="300" rx="30" fill="white"/>
</clipPath>
</defs>
</svg>
