<svg width="243" height="80" viewBox="0 0 243 80" fill="none" xmlns="http://www.w3.org/2000/svg">
<rect width="242.637" height="80" rx="10" fill="white"/>
<path d="M84.6887 50.1248C80.0256 50.1248 76.4528 47.016 76.4528 41.2857C76.4528 35.6249 80.1184 32.3073 84.6887 32.3073C87.1711 32.3073 88.8879 33.3745 90.0015 34.5113L88.1919 36.6921C87.3335 35.8801 86.3591 35.2537 84.8047 35.2537C81.9511 35.2537 79.956 37.4809 79.956 41.1697C79.956 44.9048 81.6728 47.1552 85.0599 47.1552C85.8719 47.1552 86.7071 46.9232 87.1943 46.5056V43.1184H84.1551V40.3113H90.2567V48.06C89.0967 49.1968 87.0783 50.1248 84.6887 50.1248ZM99.5552 50.1248C96.3072 50.1248 93.3144 47.6192 93.3144 43.3041C93.3144 38.9889 96.3072 36.4833 99.5552 36.4833C102.803 36.4833 105.796 38.9889 105.796 43.3041C105.796 47.6192 102.803 50.1248 99.5552 50.1248ZM99.5552 47.3408C101.318 47.3408 102.316 45.7632 102.316 43.3041C102.316 40.8681 101.318 39.2673 99.5552 39.2673C97.792 39.2673 96.7944 40.8681 96.7944 43.3041C96.7944 45.7632 97.792 47.3408 99.5552 47.3408ZM114.542 50.1248C111.294 50.1248 108.301 47.6192 108.301 43.3041C108.301 38.9889 111.294 36.4833 114.542 36.4833C117.79 36.4833 120.783 38.9889 120.783 43.3041C120.783 47.6192 117.79 50.1248 114.542 50.1248ZM114.542 47.3408C116.305 47.3408 117.303 45.7632 117.303 43.3041C117.303 40.8681 116.305 39.2673 114.542 39.2673C112.779 39.2673 111.781 40.8681 111.781 43.3041C111.781 45.7632 112.779 47.3408 114.542 47.3408ZM128.67 55.4376C125.608 55.4376 123.241 54.3936 123.241 52.0968C123.241 51.0064 123.914 50.0784 125.097 49.4056V49.2896C124.425 48.8488 123.914 48.176 123.914 47.1088C123.914 46.1344 124.587 45.2296 125.376 44.6728V44.58C124.471 43.9304 123.636 42.7008 123.636 41.1697C123.636 38.1305 126.118 36.4833 128.879 36.4833C129.598 36.4833 130.294 36.6225 130.828 36.8081H135.514V39.3137H133.31C133.635 39.7545 133.89 40.4737 133.89 41.2857C133.89 44.2088 131.663 45.6936 128.879 45.6936C128.369 45.6936 127.765 45.5776 127.209 45.392C126.861 45.6936 126.652 45.972 126.652 46.5056C126.652 47.2016 127.162 47.5728 128.693 47.5728H130.897C134.029 47.5728 135.746 48.5472 135.746 50.8208C135.746 53.4424 133.009 55.4376 128.67 55.4376ZM128.879 43.5825C130.016 43.5825 130.921 42.7241 130.921 41.1697C130.921 39.6617 130.039 38.8033 128.879 38.8033C127.719 38.8033 126.837 39.6617 126.837 41.1697C126.837 42.7241 127.742 43.5825 128.879 43.5825ZM129.181 53.28C131.129 53.28 132.475 52.4216 132.475 51.4008C132.475 50.4728 131.709 50.2408 130.317 50.2408H128.74C127.951 50.2408 127.394 50.1712 126.93 50.0552C126.35 50.5192 126.095 51.0296 126.095 51.5632C126.095 52.6536 127.301 53.28 129.181 53.28ZM141.608 50.1248C139.242 50.1248 138.407 48.5704 138.407 46.1576V31.2865H141.817V46.2968C141.817 47.0856 142.165 47.3408 142.49 47.3408C142.629 47.3408 142.722 47.3408 142.954 47.2944L143.372 49.8232C142.977 49.9856 142.42 50.1248 141.608 50.1248ZM151.849 50.1248C148.207 50.1248 145.377 47.596 145.377 43.3041C145.377 39.1049 148.346 36.4833 151.432 36.4833C155.005 36.4833 156.861 39.1049 156.861 42.6777C156.861 43.3272 156.791 43.9536 156.698 44.2552H148.694C148.973 46.3896 150.365 47.5032 152.29 47.5032C153.357 47.5032 154.285 47.1784 155.213 46.5984L156.373 48.6864C155.097 49.568 153.45 50.1248 151.849 50.1248ZM148.648 41.9817H153.937C153.937 40.2417 153.149 39.1281 151.478 39.1281C150.109 39.1281 148.903 40.1025 148.648 41.9817ZM166.132 49.8V32.6089H171.769C175.574 32.6089 178.497 33.9545 178.497 38.0145C178.497 41.9353 175.551 43.6984 171.862 43.6984H169.565V49.8H166.132ZM169.565 40.9841H171.63C173.997 40.9841 175.133 39.9865 175.133 38.0145C175.133 36.0193 173.881 35.3465 171.514 35.3465H169.565V40.9841ZM184.993 50.1248C182.627 50.1248 181.792 48.5704 181.792 46.1576V31.2865H185.202V46.2968C185.202 47.0856 185.55 47.3408 185.875 47.3408C186.014 47.3408 186.107 47.3408 186.339 47.2944L186.756 49.8232C186.362 49.9856 185.805 50.1248 184.993 50.1248ZM192.775 50.1248C190.455 50.1248 188.924 48.4776 188.924 46.2736C188.924 43.4896 191.174 42.0281 196.418 41.4712C196.348 40.1953 195.791 39.2209 194.19 39.2209C192.984 39.2209 191.824 39.7545 190.618 40.4505L189.388 38.2001C190.919 37.2489 192.775 36.4833 194.817 36.4833C198.111 36.4833 199.805 38.4553 199.805 42.2136V49.8H197.021L196.789 48.408H196.696C195.559 49.3824 194.26 50.1248 192.775 50.1248ZM193.889 47.4568C194.863 47.4568 195.582 46.9928 196.418 46.1808V43.5592C193.239 43.9536 192.172 44.8352 192.172 45.9952C192.172 47.016 192.891 47.4568 193.889 47.4568ZM204.881 55.02C204.116 55.02 203.605 54.9272 203.095 54.7648L203.721 52.1432C203.953 52.2128 204.325 52.3056 204.626 52.3056C205.949 52.3056 206.691 51.4704 207.062 50.3336L207.294 49.568L202.237 36.8081H205.67L207.735 42.8401C208.129 44.0001 208.454 45.2528 208.825 46.5056H208.941C209.243 45.2992 209.568 44.0464 209.869 42.8401L211.656 36.8081H214.927L210.31 50.1944C209.173 53.2568 207.781 55.02 204.881 55.02Z" fill="black"/>
<path d="M48.4505 44.849C52.1733 42.7851 55.0165 41.2086 55.2751 41.0651C56.0466 40.6374 56.8549 39.5459 55.2751 38.6734C54.7674 38.3925 52.0007 36.8644 48.4462 34.9001L43.5574 39.89L48.4505 44.849Z" fill="#FFE300"/>
<path d="M43.5572 39.8892L27.9209 55.848C28.274 55.8934 28.6987 55.7987 29.1872 55.5278C30.1986 54.9671 41.0599 48.9453 48.4506 44.8477L43.5572 39.8892Z" fill="#FF4E54"/>
<path d="M43.5572 39.8899L48.446 34.9C48.446 34.9 30.275 24.8585 29.1872 24.2574C28.7691 24.0262 28.3132 23.9456 27.9097 24.0366L43.5572 39.8899Z" fill="#00F085"/>
<path d="M43.5572 39.8901L27.9094 24.0371C27.2631 24.1831 26.7334 24.7497 26.7334 25.8886V53.9469C26.7334 55.0194 27.1501 55.7737 27.9206 55.849L43.5572 39.8901Z" fill="#00E0FF"/>
</svg>
