<svg width="80" height="80" viewBox="0 0 80 80" fill="none" xmlns="http://www.w3.org/2000/svg">
<g clip-path="url(#clip0_123_2386)">
<path d="M67.4438 20.2035H11.661V54.4851H67.4438V20.2035Z" fill="black"/>
<path d="M67.4439 56.5735H11.6611C10.5083 56.5735 9.57275 55.6379 9.57275 54.4852V20.2035C9.57275 19.0508 10.5083 18.1152 11.6611 18.1152H67.4439C68.5966 18.1152 69.5322 19.0508 69.5322 20.2035V54.4852C69.5322 55.6379 68.5966 56.5735 67.4439 56.5735ZM13.7494 52.3969H65.3556V22.2918H13.7494V52.3969Z" fill="white"/>
<path d="M70.0167 12.2012H9.08826V20.2036H70.0167V12.2012Z" fill="#C7DA01"/>
<path d="M70 22.2919H9.08831C7.93556 22.2919 7 21.3564 7 20.2036V12.2012C7 11.0485 7.93556 10.1129 9.08831 10.1129H70C71.1527 10.1129 72.0883 11.0485 72.0883 12.2012V20.2036C72.0883 21.3564 71.1527 22.2919 70 22.2919ZM11.1766 18.1153H67.9117V14.2895H11.1766V18.1153Z" fill="white"/>
<path d="M39.5441 14.2895C38.3914 14.2895 37.4558 13.354 37.4558 12.2012V7.08904C37.4558 5.93629 38.3914 5.00073 39.5441 5.00073C40.6969 5.00073 41.6324 5.93629 41.6324 7.08904V12.2012C41.6324 13.354 40.6969 14.2895 39.5441 14.2895Z" fill="white"/>
<path d="M39.5441 75.0008C38.3914 75.0008 37.4558 74.0652 37.4558 72.9125V54.4853C37.4558 53.3325 38.3914 52.397 39.5441 52.397C40.6969 52.397 41.6324 53.3325 41.6324 54.4853V72.9125C41.6324 74.0652 40.6969 75.0008 39.5441 75.0008Z" fill="white"/>
<path d="M47.5465 75.0007C47.0119 75.0007 46.4773 74.8002 46.0764 74.3826L39.5441 67.8503L33.0119 74.3826C32.1933 75.2012 30.8735 75.2012 30.0549 74.3826C29.2363 73.5639 29.2363 72.2441 30.0549 71.4255L38.0573 63.4231C38.8425 62.6379 40.2291 62.6379 41.0143 63.4231L49.0167 71.4255C49.8353 72.2441 49.8353 73.5639 49.0167 74.3826C48.6157 74.7835 48.0811 75.0007 47.5465 75.0007Z" fill="white"/>
<path d="M56.0669 31.3802H23.0215C21.8688 31.3802 20.9332 30.4447 20.9332 29.2919C20.9332 28.1392 21.8688 27.2036 23.0215 27.2036H56.0669C57.2196 27.2036 58.1552 28.1392 58.1552 29.2919C58.1552 30.4447 57.2196 31.3802 56.0669 31.3802Z" fill="white"/>
<path d="M56.0669 47.4685H23.0215C21.8688 47.4685 20.9332 46.5329 20.9332 45.3802C20.9332 44.2274 21.8688 43.2919 23.0215 43.2919H56.0669C57.2196 43.2919 58.1552 44.2274 58.1552 45.3802C58.1552 46.5329 57.2196 47.4685 56.0669 47.4685Z" fill="white"/>
<path d="M56.0669 39.4327H23.0215C21.8688 39.4327 20.9332 38.4972 20.9332 37.3444C20.9332 36.1917 21.8688 35.2561 23.0215 35.2561H56.0669C57.2196 35.2561 58.1552 36.1917 58.1552 37.3444C58.1552 38.4972 57.2196 39.4327 56.0669 39.4327Z" fill="white"/>
</g>
<defs>
<clipPath id="clip0_123_2386">
<rect width="65.0883" height="70" fill="white" transform="translate(7 5.00073)"/>
</clipPath>
</defs>
</svg>
