<svg width="80" height="80" viewBox="0 0 80 80" fill="none" xmlns="http://www.w3.org/2000/svg">
<g clip-path="url(#clip0_123_2357)">
<path d="M68.4984 28.6807H11.5017V63.3011H68.4984V28.6807Z" fill="black"/>
<path d="M68.4984 65.3638H11.5017C10.3631 65.3638 9.43896 64.4397 9.43896 63.3011V28.6806C9.43896 27.542 10.3631 26.6179 11.5017 26.6179H68.4984C69.637 26.6179 70.5611 27.542 70.5611 28.6806V63.3011C70.5611 64.4397 69.637 65.3638 68.4984 65.3638ZM13.5644 61.2384H66.4357V30.7433H13.5644V61.2384Z" fill="white"/>
<path d="M7.06274 17.0635H20.2311V27.8886C20.2311 31.5189 17.2773 34.4727 13.6469 34.4727C10.0165 34.4727 7.06274 31.5189 7.06274 27.8886V17.0635Z" fill="#C7DA01"/>
<path d="M13.6469 36.5354C8.87789 36.5354 5 32.6575 5 27.8885V17.0634C5 15.9248 5.92409 15.0007 7.06271 15.0007H20.231C21.3696 15.0007 22.2937 15.9248 22.2937 17.0634V27.8885C22.2937 32.6575 18.4158 36.5354 13.6469 36.5354ZM9.12541 19.1261V27.8885C9.12541 30.3803 11.1551 32.41 13.6469 32.41C16.1386 32.41 18.1683 30.3803 18.1683 27.8885V19.1261H9.12541Z" fill="white"/>
<path d="M20.231 17.0635H33.3993V27.8886C33.3993 31.5189 30.4455 34.4727 26.8151 34.4727C23.1848 34.4727 20.231 31.5189 20.231 27.8886V17.0635Z" fill="black"/>
<path d="M26.8151 36.5354C22.0461 36.5354 18.1682 32.6575 18.1682 27.8885V17.0634C18.1682 15.9248 19.0923 15.0007 20.2309 15.0007H33.3992C34.5378 15.0007 35.4619 15.9248 35.4619 17.0634V27.8885C35.4619 32.6575 31.5841 36.5354 26.8151 36.5354ZM22.2936 19.1261V27.8885C22.2936 30.3803 24.3233 32.41 26.8151 32.41C29.3068 32.41 31.3365 30.3803 31.3365 27.8885V19.1261H22.2936Z" fill="white"/>
<path d="M33.4158 17.0635H46.5841V27.8886C46.5841 31.5189 43.6303 34.4727 39.9999 34.4727C36.3696 34.4727 33.4158 31.5189 33.4158 27.8886V17.0635Z" fill="#C7DA01"/>
<path d="M39.9999 36.5354C35.2309 36.5354 31.353 32.6575 31.353 27.8885V17.0634C31.353 15.9248 32.2771 15.0007 33.4157 15.0007H46.5841C47.7227 15.0007 48.6468 15.9248 48.6468 17.0634V27.8885C48.6468 32.6575 44.7689 36.5354 39.9999 36.5354ZM35.4784 19.1261V27.8885C35.4784 30.3803 37.5081 32.41 39.9999 32.41C42.4916 32.41 44.5213 30.3803 44.5213 27.8885V19.1261H35.4784Z" fill="white"/>
<path d="M46.5842 17.0635H59.7525V27.8886C59.7525 31.5189 56.7987 34.4727 53.1684 34.4727C49.538 34.4727 46.5842 31.5189 46.5842 27.8886V17.0635Z" fill="black"/>
<path d="M53.1683 36.5354C48.3994 36.5354 44.5215 32.6575 44.5215 27.8885V17.0634C44.5215 15.9248 45.4456 15.0007 46.5842 15.0007H59.7525C60.8911 15.0007 61.8152 15.9248 61.8152 17.0634V27.8885C61.8152 32.6575 57.9373 36.5354 53.1683 36.5354ZM48.6469 19.1261V27.8885C48.6469 30.3803 50.6766 32.41 53.1683 32.41C55.6601 32.41 57.6898 30.3803 57.6898 27.8885V19.1261H48.6469Z" fill="white"/>
<path d="M59.7524 17.0635H72.9208V27.8886C72.9208 31.5189 69.967 34.4727 66.3366 34.4727C62.7062 34.4727 59.7524 31.5189 59.7524 27.8886V17.0635Z" fill="#C7DA01"/>
<path d="M66.3366 36.5354C61.5676 36.5354 57.6897 32.6575 57.6897 27.8885V17.0634C57.6897 15.9248 58.6138 15.0007 59.7524 15.0007H72.9207C74.0593 15.0007 74.9834 15.9248 74.9834 17.0634V27.8885C74.9834 32.6575 71.1055 36.5354 66.3366 36.5354ZM61.8151 19.1261V27.8885C61.8151 30.3803 63.8448 32.41 66.3366 32.41C68.8283 32.41 70.858 30.3803 70.858 27.8885V19.1261H61.8151Z" fill="white"/>
<path d="M57.9538 43.8787H44.5544V62.9546H57.9538V43.8787Z" fill="black"/>
<path d="M57.9537 65.0337H44.5544C43.4158 65.0337 42.4917 64.1096 42.4917 62.971V43.8951C42.4917 42.7565 43.4158 41.8324 44.5544 41.8324H57.9537C59.0924 41.8324 60.0165 42.7565 60.0165 43.8951V62.971C60.0165 64.1096 59.0924 65.0337 57.9537 65.0337ZM46.6171 60.9083H55.891V45.9578H46.6171V60.9083Z" fill="white"/>
</g>
<defs>
<clipPath id="clip0_123_2357">
<rect width="70" height="50.363" fill="white" transform="translate(5 15.0007)"/>
</clipPath>
</defs>
</svg>
