<svg width="583" height="438" viewBox="0 0 583 438" fill="none" xmlns="http://www.w3.org/2000/svg">
<path d="M387.192 357.066V369.936H377.954V357.066H387.192ZM380.317 358.936V368.023H384.872V358.936H380.317ZM393.079 355.24V374.684H390.673V355.24H393.079ZM411.036 355.24V374.662H408.672V355.24H411.036ZM398.317 357.131V367.744C401.045 367.701 403.946 367.454 406.932 366.863L407.233 368.861C403.817 369.57 400.637 369.785 397.629 369.785H395.954V357.131H398.317ZM423.277 357.152C423.256 363.018 421.494 368.131 414.275 371.654L413.008 369.807C416.349 368.174 418.433 366.229 419.625 363.898L413.437 364.457L413.137 362.416L420.377 361.965C420.646 361.062 420.807 360.096 420.893 359.086H414.125V357.152H423.277ZM428.971 355.24V374.662H426.564V355.24H428.971ZM439.494 356.336C443.662 356.336 446.734 358.42 446.734 361.578C446.734 364.489 444.231 366.434 440.675 366.777V370.344H448.41V372.299H430.664V370.344H438.312V366.777C434.778 366.434 432.275 364.489 432.296 361.578C432.275 358.42 435.347 356.336 439.494 356.336ZM439.494 358.27C436.658 358.248 434.617 359.537 434.638 361.578C434.617 363.684 436.658 364.93 439.494 364.93C442.373 364.93 444.392 363.684 444.392 361.578C444.392 359.537 442.373 358.248 439.494 358.27ZM458.611 357.904C458.611 360.912 461.554 363.92 465.614 364.629L464.54 366.627C461.285 365.939 458.621 363.974 457.364 361.363C456.075 363.952 453.411 365.929 450.167 366.627L449.114 364.629C453.132 363.898 456.054 360.891 456.075 357.904V356.465H458.611V357.904ZM466.323 370.215V372.191H448.577V370.215H466.323ZM482.239 357.045V359.365C482.239 362.18 482.239 364.865 481.38 368.969L478.995 368.754C479.392 367.057 479.618 365.563 479.747 364.178L468.296 364.779L467.973 362.846L479.854 362.395C479.897 361.353 479.897 360.354 479.897 359.365V358.979H468.554V357.045H482.239ZM484.194 370.236V372.191H466.491V370.236H484.194ZM499.418 357.174V359.064H488.568V357.174H492.908V355.068H495.293V357.174H499.418ZM494.068 359.838C496.711 359.838 498.602 361.299 498.623 363.469C498.602 365.617 496.711 367.057 494.068 367.057C491.426 367.057 489.557 365.617 489.578 363.469C489.557 361.299 491.426 359.838 494.068 359.838ZM494.068 361.621C492.693 361.621 491.791 362.309 491.812 363.469C491.791 364.607 492.693 365.273 494.068 365.273C495.443 365.273 496.389 364.607 496.389 363.469C496.389 362.309 495.443 361.621 494.068 361.621ZM504.789 355.24V367.68H502.404V365.402H499.525V363.49H502.404V361.578H499.547V359.645H502.404V355.24H504.789ZM498.258 367.895C502.361 367.895 504.896 369.141 504.896 371.268C504.896 373.373 502.361 374.641 498.258 374.641C494.154 374.641 491.619 373.373 491.619 371.268C491.619 369.141 494.154 367.895 498.258 367.895ZM498.258 369.721C495.637 369.721 494.133 370.236 494.133 371.268C494.133 372.277 495.637 372.814 498.258 372.814C500.857 372.814 502.34 372.277 502.34 371.268C502.34 370.236 500.857 369.721 498.258 369.721ZM513.679 358.012C513.679 360.568 515.269 362.975 518.363 363.941L517.181 365.832C514.936 365.08 513.336 363.608 512.476 361.707C511.585 363.748 509.962 365.37 507.664 366.154L506.461 364.285C509.597 363.211 511.209 360.654 511.209 358.012V356.164H513.679V358.012ZM522.617 367.744V374.662H520.211V369.656H509.361V367.744H522.617ZM522.617 355.24V366.863H520.211V355.24H522.617ZM530.648 356.594C533.72 356.572 535.976 358.527 535.997 361.277C535.976 364.049 533.72 365.982 530.648 365.982C527.597 365.982 525.32 364.049 525.32 361.277C525.32 358.527 527.597 356.572 530.648 356.594ZM530.648 358.656C528.95 358.656 527.683 359.666 527.683 361.277C527.683 362.91 528.95 363.898 530.648 363.898C532.366 363.898 533.655 362.91 533.655 361.277C533.655 359.666 532.366 358.656 530.648 358.656ZM540.53 355.24V374.684H538.146V355.24H540.53ZM524.439 368.668C527.941 368.668 532.796 368.625 536.986 368.023L537.179 369.764C532.818 370.602 528.155 370.623 524.739 370.623L524.439 368.668ZM420.057 384.24V394.08H417.672V392.383H412.988V390.557H417.672V388.645H413.246C412.022 391.609 409.186 393.543 404.889 394.51L404.051 392.555C408.616 391.609 410.894 389.601 411.227 387.012H405.125V385.078H413.891C413.891 385.69 413.837 386.271 413.762 386.818H417.672V384.24H420.057ZM420.057 394.832V399.945H409.68V401.557H420.572V403.469H407.295V398.162H417.672V396.723H407.274V394.832H420.057ZM438.422 384.24V403.662H436.144V384.24H438.422ZM434.469 384.605V402.717H432.213V392.941H429.42V391.008H432.213V384.605H434.469ZM427.701 389.547C427.701 392.834 428.883 396.121 431.654 397.711L430.236 399.473C428.442 398.398 427.25 396.551 426.584 394.338C425.896 396.733 424.661 398.774 422.824 399.924L421.363 398.141C424.178 396.443 425.402 392.92 425.402 389.547V388.258H422.029V386.324H430.838V388.258H427.701V389.547ZM459.06 384.24V389.697H461.788V391.674H459.06V398.291H456.675V384.24H459.06ZM453.259 385.852V387.764H446.921V393.049C450.573 393.06 452.604 392.931 454.913 392.447L455.171 394.381C452.636 394.875 450.358 395.004 446.126 395.004H444.558V385.852H453.259ZM459.833 401.342V403.275H446.62V396.809H449.005V401.342H459.833ZM476.973 384.24V388.15H479.68V390.127H476.973V393.994H474.588V384.24H476.973ZM471.516 385.229V393.178H462.321V385.229H471.516ZM464.663 387.119V391.287H469.174V387.119H464.663ZM476.973 394.832V399.924H466.661V401.535H477.575V403.426H464.297V398.184H474.588V396.68H464.276V394.832H476.973ZM495.789 384.24V403.662H493.383V384.24H495.789ZM489.988 386.303C489.988 392.082 487.754 397.002 480.944 400.225L479.697 398.312C484.779 395.896 487.142 392.608 487.561 388.193H480.686V386.303H489.988ZM515.228 399.43V401.406H497.482V399.43H505.131V396.271H499.588V389.912H510.76V387.506H499.545V385.572H513.123V391.803H501.972V394.316H513.574V396.271H507.494V399.43H515.228ZM411.594 413.24V432.662H409.274V422.758H407.19V431.76H404.977V413.691H407.19V420.824H409.274V413.24H411.594ZM403.516 415.539C403.495 420.889 402.077 425.508 396.233 428.816L394.836 427.119C397.533 425.604 399.187 423.832 400.143 421.791L395.245 422.328L394.944 420.287L400.787 419.943C400.992 419.159 401.121 418.332 401.196 417.473H395.954V415.539H403.516ZM429.035 413.24V432.684H426.629V423.982H422.805V421.984H426.629V419.213H422.805V417.258H426.629V413.24H429.035ZM419.926 417.902C419.926 421.533 421.645 425.121 424.738 426.518L423.299 428.43C421.097 427.345 419.539 425.239 418.723 422.65C417.863 425.325 416.273 427.527 414.061 428.645L412.557 426.754C415.715 425.271 417.477 421.533 417.498 417.902V414.809H419.926V417.902ZM446.841 413.262V427.291H444.435V413.262H446.841ZM447.379 430.342V432.275H433.994V425.873H436.4V430.342H447.379ZM436.25 414.529C439.193 414.529 441.47 416.57 441.47 419.385C441.47 422.264 439.193 424.262 436.25 424.262C433.285 424.262 431.007 422.264 431.007 419.385C431.007 416.57 433.285 414.529 436.25 414.529ZM436.25 416.613C434.595 416.613 433.328 417.709 433.349 419.385C433.328 421.104 434.595 422.178 436.25 422.178C437.861 422.178 439.129 421.104 439.129 419.385C439.129 417.709 437.861 416.613 436.25 416.613ZM464.841 413.262V427.506H462.456V420.975H458.718V418.998H462.456V413.262H464.841ZM458.847 414.723C458.847 419.836 455.452 423.682 449.845 425.465L448.835 423.553C453.025 422.221 455.785 419.75 456.247 416.678H449.845V414.723H458.847ZM465.335 430.342V432.275H452.187V426.066H454.614V430.342H465.335ZM482.647 413.24V432.684H480.241V413.24H482.647ZM469.907 414.83V419.686H474.612V414.83H476.975V428.107H467.522V414.83H469.907ZM469.907 426.152H474.612V421.555H469.907V426.152ZM495.594 416.098C495.572 418.182 497.162 420.352 500.127 421.211L499.01 423.102C496.808 422.457 495.25 421.093 494.391 419.385C493.51 421.275 491.877 422.822 489.621 423.531L488.439 421.662C491.469 420.674 493.188 418.311 493.188 416.076V416.012H489.105V414.078H499.611V416.012H495.594V416.098ZM504.789 413.24V423.188H502.404V419.256H499.074V417.344H502.404V413.24H504.789ZM504.789 424.004V429.053H494.391V430.578H505.412V432.447H492.006V427.27H502.404V425.895H491.984V424.004H504.789ZM521.757 413.24V417.666H524.464V419.621H521.757V424.154H519.373V413.24H521.757ZM516.365 414.422C516.343 419.471 513.035 422.973 507.234 424.52L506.289 422.607C510.79 421.447 513.346 419.159 513.765 416.355H507.212V414.422H516.365ZM521.757 424.928V432.404H509.189V424.928H521.757ZM511.574 426.883V430.514H519.394V426.883H511.574Z" fill="#F8F9FA"/>
<path d="M227.823 357.131V369.85H218.627V357.131H227.823ZM220.969 359V367.938H225.438V359H220.969ZM233.151 355.24V362.695H236.137V364.715H233.151V374.662H230.766V355.24H233.151ZM251.645 365.424V367.314H238.023V356.766H251.473V358.699H240.451V361.041H251.021V362.91H240.451V365.424H251.645ZM253.6 370.344V372.299H235.854V370.344H253.6ZM271.513 370.43V372.406H253.767V370.43H261.416V367.271H255.873V360.912H267.045V358.506H255.83V356.572H269.408V362.803H258.257V365.316H269.859V367.271H263.779V370.43H271.513ZM286.892 355.24V362.824H289.771V364.822H286.892V374.619H284.507V355.24H286.892ZM281.757 357.26C281.757 362.975 279.394 367.98 272.927 371.16L271.573 369.312C276.3 366.96 278.857 363.651 279.351 359.236H272.626V357.26H281.757ZM306.202 355.262V366.971H303.925V362.051H301.991V366.348H299.757V355.627H301.991V360.074H303.925V355.262H306.202ZM297.995 356.938V365.445H290.346V356.938H297.995ZM292.602 358.764V363.641H295.782V358.764H292.602ZM299.649 367.357C303.71 367.336 306.288 368.711 306.309 370.967C306.288 373.266 303.71 374.641 299.649 374.641C295.546 374.641 292.989 373.266 292.989 370.967C292.989 368.711 295.546 367.336 299.649 367.357ZM299.649 369.184C296.964 369.205 295.374 369.828 295.374 370.967C295.374 372.17 296.964 372.793 299.649 372.793C302.313 372.793 303.903 372.17 303.903 370.967C303.903 369.828 302.313 369.205 299.649 369.184ZM323.772 355.24V366.52H321.387V361.814H318.036V359.859H321.387V355.24H323.772ZM323.772 367.357V374.426H310.86V367.357H323.772ZM313.245 369.248V372.492H321.43V369.248H313.245ZM314.641 358.441C314.641 360.783 316.209 363.168 319.217 364.199L318.014 366.09C315.844 365.349 314.308 363.877 313.459 362.051C312.6 364.07 310.978 365.692 308.69 366.455L307.465 364.586C310.559 363.555 312.213 360.998 312.213 358.42V358.27H308.174V356.336H318.659V358.27H314.641V358.441ZM342.18 355.24V374.662H339.881V355.24H342.18ZM338.184 355.584V373.717H335.906V364.479H334.059C333.833 368.26 332.211 370.602 329.805 370.58C327.27 370.602 325.615 367.916 325.615 363.641C325.615 359.365 327.27 356.723 329.805 356.723C332.157 356.723 333.758 358.914 334.037 362.545H335.906V355.584H338.184ZM329.805 358.979C328.58 358.957 327.807 360.611 327.828 363.641C327.807 366.67 328.58 368.324 329.805 368.303C331.094 368.324 331.867 366.67 331.867 363.641C331.867 360.611 331.094 358.957 329.805 358.979ZM360.093 355.24V374.662H357.816V355.24H360.093ZM355.968 355.713V373.738H353.713V364.801H350.254C349.115 367.035 347.289 368.969 344.539 370.559L343.185 368.861C347.213 366.487 349.05 363.447 349.416 359.537H344.173V357.604H351.779C351.779 359.483 351.553 361.245 351.027 362.889H353.713V355.713H355.968ZM270.482 384.24V403.662H268.205V384.24H270.482ZM266.529 384.605V402.717H264.273V392.941H261.48V391.008H264.273V384.605H266.529ZM259.761 389.547C259.761 392.834 260.943 396.121 263.714 397.711L262.296 399.473C260.503 398.398 259.31 396.551 258.644 394.338C257.957 396.733 256.721 398.774 254.884 399.924L253.423 398.141C256.238 396.443 257.463 392.92 257.463 389.547V388.258H254.089V386.324H262.898V388.258H259.761V389.547ZM280.425 396.379C284.636 396.4 287.3 397.732 287.321 400.031C287.3 402.287 284.636 403.641 280.425 403.641C276.236 403.641 273.55 402.287 273.55 400.031C273.55 397.732 276.236 396.4 280.425 396.379ZM280.425 398.184C277.632 398.184 275.935 398.85 275.956 400.031C275.935 401.17 277.632 401.793 280.425 401.793C283.239 401.793 284.937 401.17 284.958 400.031C284.937 398.85 283.239 398.184 280.425 398.184ZM287.193 385.164V386.775C287.193 388.301 287.193 389.934 286.655 391.932L284.292 391.717C284.776 389.826 284.808 388.462 284.808 387.055H273.743V385.164H287.193ZM289.341 393.049V394.982H271.724V393.049H278.556V389.525H280.919V393.049H289.341ZM304.805 384.24V391.975H307.792V393.951H304.805V403.662H302.442V384.24H304.805ZM300.938 387.227V389.139H289.487V387.227H294.085V384.52H296.47V387.227H300.938ZM295.288 390.406C298.081 390.406 300.165 392.297 300.165 394.982C300.165 397.668 298.081 399.537 295.288 399.537C292.452 399.537 290.368 397.668 290.389 394.982C290.368 392.297 292.452 390.406 295.288 390.406ZM295.288 392.361C293.762 392.361 292.667 393.393 292.667 394.982C292.667 396.572 293.762 397.582 295.288 397.561C296.77 397.582 297.866 396.572 297.887 394.982C297.866 393.393 296.77 392.361 295.288 392.361ZM323.235 389.74V391.631H309.786V384.949H312.149V389.74H323.235ZM325.233 393.887V395.777H307.487V393.887H325.233ZM323.364 401.277V403.211H309.614V397.496H311.998V401.277H323.364ZM262.535 424.24V426.174H254.801V432.641H252.437V426.174H244.789V424.24H262.535ZM260.365 414.229V421.963H246.959V414.229H260.365ZM249.301 416.141V420.094H257.98V416.141H249.301ZM280.47 428.43V430.406H262.724V428.43H267.429V425.229H264.829V418.891H276.001V416.506H264.787V414.572H278.365V420.803H267.214V423.295H278.816V425.229H275.98V428.43H280.47ZM269.749 428.43H273.638V425.229H269.749V428.43ZM287.556 424.283V428.365H291.423V424.283H293.808V428.365H298.384V430.299H280.638V428.365H285.192V424.283H287.556ZM290.671 415.84C290.671 418.654 293.614 421.426 297.696 422.049L296.729 424.025C293.389 423.435 290.692 421.619 289.403 419.148C288.104 421.598 285.396 423.445 282.099 424.025L281.132 422.049C285.192 421.404 288.114 418.611 288.136 415.84V414.4H290.671V415.84ZM309.938 414.787V416.721H308.198V421.727C309.068 421.662 309.927 421.576 310.754 421.469L310.905 423.252C306.952 423.918 302.397 424.004 299.131 424.004L298.874 422.049C299.561 422.049 300.302 422.049 301.087 422.027V416.721H299.389V414.787H309.938ZM314.729 413.262V425.035H312.323V413.262H314.729ZM308.198 425.422C312.323 425.422 314.837 426.711 314.837 429.01C314.837 431.309 312.323 432.641 308.198 432.641C304.051 432.641 301.559 431.309 301.559 429.01C301.559 426.711 304.051 425.422 308.198 425.422ZM308.198 427.248C305.448 427.248 303.922 427.871 303.922 429.01C303.922 430.17 305.448 430.793 308.198 430.793C310.926 430.793 312.452 430.17 312.452 429.01C312.452 427.871 310.926 427.248 308.198 427.248ZM303.385 421.984C304.213 421.974 305.061 421.941 305.921 421.877V416.721H303.385V421.984ZM334.168 421.361V423.295H316.465V421.361H324.092V419.9H318.699V413.842H331.891V419.9H326.455V421.361H334.168ZM321.041 415.711V418.031H329.506V415.711H321.041ZM331.955 424.477V429.246H320.912V430.664H332.492V432.49H318.571V427.527H329.613V426.281H318.549V424.477H331.955Z" fill="#F8F9FA"/>
<path d="M70.5414 360.289V362.223H64.8695V364.35H72.5609V366.305H54.8363V364.35H62.5062V362.223H57.1352V355.584H59.5199V360.289H70.5414ZM63.6664 367.465C67.8559 367.486 70.3695 368.775 70.391 371.053C70.3695 373.33 67.8559 374.641 63.6664 374.641C59.434 374.641 56.8988 373.33 56.8988 371.053C56.8988 368.775 59.434 367.486 63.6664 367.465ZM63.6664 369.312C60.8305 369.312 59.3051 369.914 59.3266 371.053C59.3051 372.17 60.8305 372.793 63.6664 372.793C66.4379 372.793 67.9848 372.17 68.0062 371.053C67.9848 369.914 66.4379 369.312 63.6664 369.312ZM90.4531 364.865V366.777H82.7617V368.625H88.2832V374.619H85.8984V370.537H74.7051V368.625H80.3984V366.777H72.75V364.865H90.4531ZM82.7617 355.219V357.066H88.7129V358.936H82.9336C83.1914 360.59 85.4687 361.943 89.5723 362.244L88.8203 364.049C85.3613 363.759 82.7939 362.685 81.5801 360.998C80.3662 362.685 77.7881 363.759 74.3398 364.049L73.5879 362.244C77.6484 361.943 79.9473 360.59 80.2266 358.936H74.4902V357.066H80.3984V355.219H82.7617ZM97.6246 358.678C97.6031 361.234 99.2145 363.662 102.265 364.65L101.019 366.541C98.86 365.811 97.3346 364.35 96.4859 362.48C95.6158 364.543 94.0152 366.154 91.7594 366.949L90.4273 365.059C93.6285 364.027 95.2184 361.406 95.2184 358.656V356.443H97.6246V358.678ZM105.982 355.24V360.977H108.689V362.996H105.982V369.506H103.597V355.24H105.982ZM106.755 372.342V374.275H93.5426V368.109H95.9918V372.342H106.755ZM126.28 363.125V365.016H118.589V366.477H124.068V371.246H113.025V372.664H124.605V374.49H110.683V369.527H121.726V368.281H110.661V366.477H116.204V365.016H108.577V363.125H126.28ZM124.003 355.842V361.9H110.812V355.842H124.003ZM113.154 357.711V360.031H121.618V357.711H113.154ZM148.315 364.156V366.09H140.623V367.701C144.104 367.938 146.145 369.141 146.166 371.16C146.145 373.395 143.631 374.641 139.442 374.641C135.209 374.641 132.674 373.395 132.674 371.16C132.674 369.141 134.737 367.927 138.26 367.701V366.09H130.612V364.156H148.315ZM139.442 369.506C136.606 369.527 135.08 370.086 135.102 371.16C135.08 372.234 136.606 372.814 139.442 372.814C142.213 372.814 143.76 372.234 143.782 371.16C143.76 370.086 142.213 369.527 139.442 369.506ZM146.725 356.1V358.012H141.139C141.515 359.612 143.835 361.052 147.477 361.385L146.639 363.275C143.116 362.921 140.495 361.514 139.442 359.537C138.389 361.503 135.811 362.921 132.287 363.275L131.471 361.385C135.037 361.052 137.358 359.591 137.766 358.012H132.223V356.1H146.725ZM164.703 355.262V366.24H162.297V355.262H164.703ZM164.703 367.207V374.426H151.812V367.207H164.703ZM154.176 369.098V372.492H162.361V369.098H154.176ZM155.766 357.883C155.766 360.354 157.42 362.674 160.449 363.641L159.289 365.467C157.044 364.769 155.433 363.34 154.562 361.471C153.671 363.479 152.038 365.08 149.707 365.854L148.525 363.963C151.684 362.953 153.295 360.439 153.295 357.883V355.992H155.766V357.883ZM172.734 356.594C175.806 356.572 178.062 358.527 178.084 361.277C178.062 364.049 175.806 365.982 172.734 365.982C169.683 365.982 167.406 364.049 167.406 361.277C167.406 358.527 169.683 356.572 172.734 356.594ZM172.734 358.656C171.037 358.656 169.769 359.666 169.769 361.277C169.769 362.91 171.037 363.898 172.734 363.898C174.453 363.898 175.742 362.91 175.742 361.277C175.742 359.666 174.453 358.656 172.734 358.656ZM182.617 355.24V374.684H180.232V355.24H182.617ZM166.525 368.668C170.027 368.668 174.882 368.625 179.072 368.023L179.265 369.764C174.904 370.602 170.242 370.623 166.826 370.623L166.525 368.668ZM71.6156 386.131V398.85H62.4203V386.131H71.6156ZM64.7621 388V396.938H69.2309V388H64.7621ZM76.9437 384.24V391.695H79.9301V393.715H76.9437V403.662H74.559V384.24H76.9437ZM95.4375 394.424V396.314H81.8164V385.766H95.2656V387.699H84.2441V390.041H94.8145V391.91H84.2441V394.424H95.4375ZM97.3926 399.344V401.299H79.6465V399.344H97.3926ZM116.999 384.197V388.58H119.728V390.514H116.999V394.789H114.614V384.197H116.999ZM116.999 395.648V400.332H106.687V401.707H117.601V403.49H104.323V398.678H114.614V397.389H104.302V395.648H116.999ZM113.218 385.809V387.635H101.702V385.809H106.279V384.09H108.663V385.809H113.218ZM107.46 388.236C110.339 388.258 112.187 389.482 112.208 391.416C112.187 393.414 110.339 394.596 107.46 394.596C104.581 394.596 102.691 393.414 102.691 391.416C102.691 389.482 104.581 388.258 107.46 388.236ZM107.46 389.955C105.956 389.955 105.011 390.492 105.011 391.416C105.011 392.361 105.956 392.877 107.46 392.877C108.964 392.877 109.931 392.361 109.931 391.416C109.931 390.492 108.964 389.955 107.46 389.955ZM135.772 384.262V398.291H133.366V384.262H135.772ZM136.309 401.342V403.275H122.925V396.873H125.331V401.342H136.309ZM125.18 385.529C128.124 385.529 130.401 387.57 130.401 390.385C130.401 393.264 128.124 395.262 125.18 395.262C122.216 395.262 119.938 393.264 119.938 390.385C119.938 387.57 122.216 385.529 125.18 385.529ZM125.18 387.613C123.526 387.613 122.259 388.709 122.28 390.385C122.259 392.104 123.526 393.178 125.18 393.178C126.792 393.178 128.059 392.104 128.059 390.385C128.059 388.709 126.792 387.613 125.18 387.613ZM157.893 384.24V395.777H155.508V391.029H152.199V389.074H155.508V384.24H157.893ZM151.318 396.271C155.443 396.271 157.957 397.625 157.957 399.967C157.957 402.309 155.443 403.662 151.318 403.662C147.215 403.662 144.701 402.309 144.723 399.967C144.701 397.625 147.215 396.271 151.318 396.271ZM151.318 398.098C148.611 398.098 147.086 398.742 147.086 399.967C147.086 401.17 148.611 401.814 151.318 401.814C154.025 401.814 155.572 401.17 155.572 399.967C155.572 398.742 154.025 398.098 151.318 398.098ZM148.762 387.57C148.762 389.934 150.33 392.318 153.338 393.328L152.135 395.219C149.976 394.488 148.439 393.006 147.602 391.18C146.742 393.253 145.12 394.907 142.811 395.734L141.564 393.844C144.68 392.77 146.334 390.148 146.334 387.592V387.441H142.295V385.508H152.779V387.441H148.762V387.57ZM177.289 399.365V401.32H159.543V399.365H167.191V395.584H161.498V385.529H163.882V388.709H172.884V385.529H175.269V395.584H169.554V399.365H177.289ZM163.882 393.65H172.884V390.621H163.882V393.65ZM96.7803 413.24V432.662H94.5029V413.24H96.7803ZM92.8271 413.605V431.717H90.5713V421.941H87.7783V420.008H90.5713V413.605H92.8271ZM86.0596 418.547C86.0596 421.834 87.2412 425.121 90.0127 426.711L88.5947 428.473C86.8008 427.398 85.6084 425.551 84.9424 423.338C84.2549 425.733 83.0195 427.774 81.1826 428.924L79.7217 427.141C82.5361 425.443 83.7607 421.92 83.7607 418.547V417.258H80.3877V415.324H89.1963V417.258H86.0596V418.547ZM106.723 425.379C110.934 425.4 113.598 426.732 113.62 429.031C113.598 431.287 110.934 432.641 106.723 432.641C102.534 432.641 99.8482 431.287 99.8482 429.031C99.8482 426.732 102.534 425.4 106.723 425.379ZM106.723 427.184C103.93 427.184 102.233 427.85 102.254 429.031C102.233 430.17 103.93 430.793 106.723 430.793C109.538 430.793 111.235 430.17 111.256 429.031C111.235 427.85 109.538 427.184 106.723 427.184ZM113.491 414.164V415.775C113.491 417.301 113.491 418.934 112.954 420.932L110.59 420.717C111.074 418.826 111.106 417.462 111.106 416.055H100.042V414.164H113.491ZM115.639 422.049V423.982H98.0221V422.049H104.854V418.525H107.217V422.049H115.639ZM122.785 430.75H119.799L125.277 415.195H128.715L134.215 430.75H131.228L129.939 426.904H124.074L122.785 430.75ZM124.826 424.648H129.187L127.06 418.375H126.931L124.826 424.648ZM134.962 430.75V415.195H140.806C144.372 415.195 146.285 417.365 146.285 420.352C146.285 423.338 144.351 425.486 140.763 425.486H137.755V430.75H134.962ZM137.755 423.188H140.376C142.482 423.188 143.427 422.006 143.427 420.352C143.427 418.676 142.482 417.537 140.376 417.537H137.755V423.188ZM147.44 430.75V415.195H153.284C156.851 415.195 158.763 417.365 158.763 420.352C158.763 423.338 156.829 425.486 153.241 425.486H150.233V430.75H147.44ZM150.233 423.188H152.854C154.96 423.188 155.905 422.006 155.905 420.352C155.905 418.676 154.96 417.537 152.854 417.537H150.233V423.188Z" fill="#F8F9FA"/>
<rect x="20" y="20.3125" width="200" height="210" rx="100" fill="#C7DA01" fill-opacity="0.9"/>
<path d="M95.8656 136.312H90.8031L98.6469 113.688H104.678L112.491 136.312H107.459L105.772 131.094H97.5844L95.8656 136.312ZM98.7719 127.438H104.584L101.741 118.781H101.584L98.7719 127.438ZM113.453 136.312V113.688H122.328C127.484 113.688 130.422 116.844 130.422 121.312C130.422 125.844 127.422 128.938 122.203 128.938H118.141V136.312H113.453ZM118.141 125.156H121.453C124.234 125.156 125.578 123.594 125.578 121.312C125.578 119.062 124.234 117.531 121.453 117.531H118.141V125.156ZM131.791 136.312V113.688H140.666C145.822 113.688 148.759 116.844 148.759 121.312C148.759 125.844 145.759 128.938 140.541 128.938H136.478V136.312H131.791ZM136.478 125.156H139.791C142.572 125.156 143.916 123.594 143.916 121.312C143.916 119.062 142.572 117.531 139.791 117.531H136.478V125.156Z" fill="black"/>
<rect x="1" y="1.25" width="581" height="248" rx="124" stroke="#C7DA01" stroke-width="2"/>
<rect x="190" y="20.3125" width="200" height="210" rx="100" fill="#C7DA01" fill-opacity="0.9"/>
<path d="M261.366 126.875V132.656H266.522V126.875H270.491V132.656H276.991V135.875H250.959V132.656H257.428V126.875H261.366ZM265.928 114.375C265.928 118.25 269.584 122.375 276.053 123.312L274.459 126.625C269.412 125.75 265.662 123.188 263.803 119.719C261.912 123.172 258.178 125.781 253.178 126.625L251.584 123.312C257.991 122.312 261.647 118.188 261.678 114.375V112.312H265.928V114.375ZM293.703 112.906V116.094H291.359V122.969C292.531 122.891 293.687 122.766 294.797 122.625L295.078 125.562C289.297 126.562 282.641 126.688 277.922 126.688L277.484 123.469C278.437 123.469 279.469 123.469 280.547 123.438V116.094H278.234V112.906H293.703ZM300.828 110.781V127.938H296.828V110.781H300.828ZM291.172 128.469C297.266 128.469 300.984 130.375 301.016 133.781C300.984 137.219 297.266 139.188 291.172 139.188C285.109 139.188 281.391 137.219 281.391 133.781C281.391 130.375 285.109 128.469 291.172 128.469ZM291.172 131.5C287.359 131.5 285.359 132.25 285.359 133.781C285.359 135.344 287.359 136.156 291.172 136.156C294.984 136.156 296.984 135.344 297.016 133.781C296.984 132.25 294.984 131.5 291.172 131.5ZM284.359 123.375C285.391 123.328 286.453 123.297 287.516 123.219V116.094H284.359V123.375ZM329.009 122.375V125.594H303.072V122.375H314.009V120.531H306.291V111.562H325.728V120.531H317.947V122.375H329.009ZM310.197 114.656V117.469H321.759V114.656H310.197ZM325.853 127V134.281H310.009V136H326.603V139H306.103V131.469H321.916V130H306.072V127H325.853Z" fill="black"/>
<rect x="360" y="20.3125" width="200" height="210" rx="100" fill="#C7DA01" fill-opacity="0.9"/>
<path d="M423.463 113.469C423.431 122.219 421.025 129.656 410.275 134.938L408.181 131.875C412.884 129.562 415.822 126.906 417.525 123.688L408.9 124.469L408.4 121.094L418.806 120.469C419.15 119.281 419.369 118 419.494 116.656H409.869V113.469H423.463ZM431.838 110.75V139.188H427.806V110.75H431.838ZM446.956 112.219C453.081 112.219 457.644 115.312 457.675 120C457.644 124.281 454.034 127.172 448.925 127.75V132.594H460.019V135.875H433.988V132.594H444.956V127.719C439.863 127.172 436.269 124.266 436.269 120C436.269 115.312 440.831 112.219 446.956 112.219ZM446.956 115.406C442.988 115.406 440.206 117.156 440.206 120C440.206 123 442.988 124.688 446.956 124.688C450.956 124.688 453.706 123 453.738 120C453.706 117.156 450.956 115.406 446.956 115.406ZM475.013 114.5C475.013 118.656 478.7 123.125 485.138 124.219L483.388 127.531C478.434 126.547 474.747 123.766 472.919 120.094C471.028 123.734 467.341 126.531 462.419 127.531L460.7 124.219C467.013 123.094 470.731 118.625 470.763 114.5V112.438H475.013V114.5ZM486.075 132.406V135.688H460.044V132.406H486.075ZM509.381 113.25V116.562C509.381 120.688 509.381 124.656 508.069 130.812L504.1 130.438C504.662 128.062 504.975 125.984 505.194 124.062L488.694 124.875L488.194 121.688L505.381 121.062C505.459 119.516 505.459 118.031 505.475 116.562V116.438H489.069V113.25H509.381ZM512.037 132.531V135.781H486.1V132.531H512.037Z" fill="black"/>
<path d="M120 325.417C117.054 325.417 114.667 327.804 114.667 330.75C114.667 333.696 117.054 336.083 120 336.083C122.946 336.083 125.333 333.696 125.333 330.75C125.333 327.804 122.946 325.417 120 325.417ZM119 230.75L119 232.221L121 232.221L121 230.75L119 230.75ZM119 235.162L119 238.103L121 238.103L121 235.162L119 235.162ZM119 241.044L119 243.985L121 243.985L121 241.044L119 241.044ZM119 246.926L119 249.868L121 249.868L121 246.926L119 246.926ZM119 252.809L119 255.75L121 255.75L121 252.809L119 252.809ZM119 258.691L119 261.632L121 261.632L121 258.691L119 258.691ZM119 264.574L119 267.515L121 267.515L121 264.574L119 264.574ZM119 270.456L119 273.397L121 273.397L121 270.456L119 270.456ZM119 276.338L119 279.279L121 279.279L121 276.338L119 276.338ZM119 282.221L119 285.162L121 285.162L121 282.221L119 282.221ZM119 288.103L119 291.044L121 291.044L121 288.103L119 288.103ZM119 293.985L119 296.926L121 296.926L121 293.985L119 293.985ZM119 299.868L119 302.809L121 302.809L121 299.868L119 299.868ZM119 305.75L119 308.691L121 308.691L121 305.75L119 305.75ZM119 311.632L119 314.574L121 314.574L121 311.632L119 311.632ZM119 317.515L119 320.456L121 320.456L121 317.515L119 317.515ZM119 323.397L119 326.338L121 326.338L121 323.397L119 323.397ZM119 329.279L119 330.75L121 330.75L121 329.279L119 329.279Z" fill="white"/>
<path d="M290 325.417C287.054 325.417 284.667 327.804 284.667 330.75C284.667 333.696 287.054 336.083 290 336.083C292.946 336.083 295.333 333.696 295.333 330.75C295.333 327.804 292.946 325.417 290 325.417ZM289 230.75L289 232.221L291 232.221L291 230.75L289 230.75ZM289 235.162L289 238.103L291 238.103L291 235.162L289 235.162ZM289 241.044L289 243.985L291 243.985L291 241.044L289 241.044ZM289 246.926L289 249.868L291 249.868L291 246.926L289 246.926ZM289 252.809L289 255.75L291 255.75L291 252.809L289 252.809ZM289 258.691L289 261.632L291 261.632L291 258.691L289 258.691ZM289 264.574L289 267.515L291 267.515L291 264.574L289 264.574ZM289 270.456L289 273.397L291 273.397L291 270.456L289 270.456ZM289 276.338L289 279.279L291 279.279L291 276.338L289 276.338ZM289 282.221L289 285.162L291 285.162L291 282.221L289 282.221ZM289 288.103L289 291.044L291 291.044L291 288.103L289 288.103ZM289 293.985L289 296.926L291 296.926L291 293.985L289 293.985ZM289 299.868L289 302.809L291 302.809L291 299.868L289 299.868ZM289 305.75L289 308.691L291 308.691L291 305.75L289 305.75ZM289 311.632L289 314.574L291 314.574L291 311.632L289 311.632ZM289 317.515L289 320.456L291 320.456L291 317.515L289 317.515ZM289 323.397L289 326.338L291 326.338L291 323.397L289 323.397ZM289 329.279L289 330.75L291 330.75L291 329.279L289 329.279Z" fill="white"/>
<path d="M460 325.417C457.054 325.417 454.667 327.804 454.667 330.75C454.667 333.696 457.054 336.083 460 336.083C462.946 336.083 465.333 333.696 465.333 330.75C465.333 327.804 462.946 325.417 460 325.417ZM459 230.75L459 232.221L461 232.221L461 230.75L459 230.75ZM459 235.162L459 238.103L461 238.103L461 235.162L459 235.162ZM459 241.044L459 243.985L461 243.985L461 241.044L459 241.044ZM459 246.926L459 249.868L461 249.868L461 246.926L459 246.926ZM459 252.809L459 255.75L461 255.75L461 252.809L459 252.809ZM459 258.691L459 261.632L461 261.632L461 258.691L459 258.691ZM459 264.574L459 267.515L461 267.515L461 264.574L459 264.574ZM459 270.456L459 273.397L461 273.397L461 270.456L459 270.456ZM459 276.338L459 279.279L461 279.279L461 276.338L459 276.338ZM459 282.221L459 285.162L461 285.162L461 282.221L459 282.221ZM459 288.103L459 291.044L461 291.044L461 288.103L459 288.103ZM459 293.985L459 296.926L461 296.926L461 293.985L459 293.985ZM459 299.868L459 302.809L461 302.809L461 299.868L459 299.868ZM459 305.75L459 308.691L461 308.691L461 305.75L459 305.75ZM459 311.632L459 314.574L461 314.574L461 311.632L459 311.632ZM459 317.515L459 320.456L461 320.456L461 317.515L459 317.515ZM459 323.397L459 326.338L461 326.338L461 323.397L459 323.397ZM459 329.279L459 330.75L461 330.75L461 329.279L459 329.279Z" fill="white"/>
</svg>
