<svg width="650" height="590" viewBox="0 0 650 590" fill="none" xmlns="http://www.w3.org/2000/svg">
<circle cx="325" cy="295.001" r="268" stroke="#C7DA01" stroke-width="2"/>
<rect x="106" y="1.00073" width="228" height="228" rx="114" fill="black" fill-opacity="0.9"/>
<rect x="106" y="1.00073" width="228" height="228" rx="114" stroke="#C7DA01" stroke-width="2"/>
<path d="M179.087 94.2546C179.087 98.0056 180.794 101.779 184.253 103.239L182.569 105.53C180.233 104.474 178.616 102.442 177.695 99.9148C176.763 102.666 175.089 104.89 172.596 106.024L170.867 103.643C174.438 102.138 176.167 98.2302 176.19 94.2546V91.2H179.087V94.2546ZM188.251 89.6277V110.112H185.354V89.6277H188.251ZM200.623 92.323C200.623 95.3103 203.273 98.5222 207.9 99.3083L206.642 101.689C203.082 100.982 200.432 98.9827 199.118 96.3435C197.759 98.9602 195.109 100.97 191.571 101.689L190.336 99.3083C194.873 98.4998 197.546 95.2878 197.568 92.323V90.8406H200.623V92.323ZM208.574 105.193V107.552H189.864V105.193H208.574ZM217.195 90.8406V93.1541H212.141V94.7712H216.431V96.9724H212.141V98.7468C214.376 98.7131 216.004 98.6233 217.891 98.3201L218.183 100.544C215.825 100.948 213.87 101.015 210.793 101.015H209.401V90.8406H217.195ZM226.157 89.6277V101.824H223.439V89.6277H226.157ZM222.091 89.9421V101.689H219.373V96.8376H217.307V94.5466H219.373V89.9421H222.091ZM226.157 102.633V109.843H212.208V102.633H226.157ZM215.061 104.879V107.552H223.326V104.879H215.061ZM248.137 98.7693V101.038H242.207V105.395H250.181V107.731H231.471V105.395H239.355V101.038H233.672V91.0652H247.98V93.3562H236.547V98.7693H248.137ZM267.314 89.6277V100.611H264.439V89.6277H267.314ZM256.465 101.51V103.419H264.461V101.51H267.314V109.843H253.635V101.51H256.465ZM256.465 107.529H264.461V105.642H256.465V107.529ZM256.106 90.4812C259.295 90.4587 261.699 92.4578 261.699 95.3328C261.699 98.1179 259.295 100.117 256.106 100.117C252.917 100.117 250.513 98.1179 250.513 95.3328C250.513 92.4578 252.917 90.4587 256.106 90.4812ZM256.106 92.8621C254.466 92.8621 253.298 93.783 253.321 95.3328C253.298 96.8601 254.466 97.7585 256.106 97.7585C257.701 97.7585 258.869 96.8601 258.869 95.3328C258.869 93.783 257.701 92.8621 256.106 92.8621ZM197.615 119.628V140.112H194.718V119.628H197.615ZM184.386 121.245V126.231H188.788V121.245H191.618V135.328H181.511V121.245H184.386ZM184.386 133.014H188.788V128.455H184.386V133.014ZM217.871 129.308V131.599H199.228V129.308H203.428V126.86C201.935 126.198 201.092 125.187 201.092 123.873C201.092 121.402 203.99 119.92 208.549 119.92C213.064 119.92 215.962 121.402 215.984 123.873C215.973 125.198 215.097 126.231 213.581 126.883V129.308H217.871ZM208.527 132.677C212.952 132.677 215.625 133.98 215.647 136.339C215.625 138.742 212.952 140.045 208.527 140.045C204.035 140.045 201.362 138.742 201.362 136.339C201.362 133.98 204.035 132.677 208.527 132.677ZM208.527 134.834C205.697 134.834 204.259 135.328 204.282 136.339C204.259 137.394 205.697 137.911 208.527 137.911C211.29 137.911 212.75 137.394 212.772 136.339C212.75 135.328 211.29 134.834 208.527 134.834ZM208.549 122.121C205.652 122.121 204.057 122.727 204.08 123.873C204.057 124.996 205.652 125.557 208.549 125.557C211.402 125.557 213.019 124.996 213.019 123.873C213.019 122.727 211.402 122.121 208.549 122.121ZM206.326 129.308H210.728V127.601C210.054 127.68 209.324 127.714 208.549 127.714C207.752 127.714 207.011 127.68 206.326 127.579V129.308ZM240.794 131.06V133.351H232.798V140.045H229.968V133.351H222.084V131.06H240.794ZM238.548 120.616V128.859H224.286V120.616H238.548ZM227.116 122.885V126.613H235.696V122.885H227.116ZM259.545 135.44V137.799H240.835V135.44H245.619V132.318H242.991V125.445H254.558V123.244H242.969V120.953H257.388V127.736H245.866V130.005H257.86V132.318H254.963V135.44H259.545ZM248.404 135.44H252.155V132.318H248.404V135.44Z" fill="white"/>
<rect x="316" y="1.00073" width="228" height="228" rx="114" fill="black" fill-opacity="0.9"/>
<rect x="316" y="1.00073" width="228" height="228" rx="114" stroke="#C7DA01" stroke-width="2"/>
<path d="M407.615 74.6501V89.3396H404.74V74.6501H407.615ZM408.154 92.4167V94.7078H393.914V87.8572H396.812V92.4167H408.154ZM396.407 75.9529C399.552 75.9529 402 78.1091 402 81.0964C402 84.1511 399.552 86.2849 396.407 86.2849C393.263 86.2849 390.815 84.1511 390.815 81.0964C390.815 78.1091 393.263 75.9529 396.407 75.9529ZM396.407 78.446C394.813 78.4236 393.6 79.4343 393.622 81.0964C393.6 82.8035 394.813 83.7917 396.407 83.7917C397.957 83.7917 399.17 82.8035 399.17 81.0964C399.17 79.4343 397.957 78.4236 396.407 78.446ZM425.714 75.7732V77.5027C425.714 79.2322 425.714 81.175 425.265 83.6794H427.938V85.9705H409.228V83.6794H422.345C422.806 81.3884 422.862 79.6814 422.862 78.0642H411.519V75.7732H425.714ZM426.298 92.3943V94.6853H411.609V87.7673H414.439V92.3943H426.298ZM440.036 80.198C440.036 83.4998 441.72 87.0261 445.157 88.4636L443.607 90.7097C441.192 89.6877 439.53 87.655 438.621 85.1619C437.688 87.8684 435.993 90.1145 433.589 91.2263L431.95 88.9578C435.341 87.4529 437.093 83.657 437.093 80.198V78.9402H432.758V76.6042H444.303V78.9402H440.036V80.198ZM449.222 74.6277V95.0671H446.325V74.6277H449.222ZM468.062 87.6326V95.0671H465.21V89.8787H454.024V87.6326H468.062ZM468.062 74.6277V86.7117H465.21V84.1287H460.628C459.651 85.1843 458.202 85.8132 456.54 85.8132C453.44 85.8132 451.082 83.6794 451.104 80.7146C451.082 77.8171 453.44 75.7058 456.54 75.7283C458.202 75.717 459.651 76.3347 460.628 77.3679H465.21V74.6277H468.062ZM456.54 78.1316C454.945 78.1316 453.8 79.1199 453.822 80.7146C453.8 82.3992 454.945 83.365 456.54 83.365C458.045 83.365 459.213 82.3992 459.213 80.7146C459.213 79.1199 458.045 78.1316 456.54 78.1316ZM461.818 81.8376H465.21V79.6814H461.841C461.897 80.0071 461.93 80.3552 461.93 80.7146C461.93 81.1077 461.886 81.4783 461.818 81.8376ZM392.49 115.903V118.194H384.539V125.067H381.709V118.194H373.848V115.903H392.49ZM390.828 105.706V107.952H384.876C385.157 109.951 387.414 111.961 391.614 112.467L390.581 114.713C386.987 114.23 384.416 112.691 383.191 110.58C381.934 112.691 379.384 114.23 375.824 114.713L374.769 112.467C378.901 111.961 381.181 109.951 381.507 107.952H375.532V105.706H390.828ZM411.263 116.42V118.666H403.267V125.067H400.437V118.666H392.553V116.42H411.263ZM397.584 105.414V107.772H406.164V105.414H409.039V114.443H394.754V105.414H397.584ZM397.584 112.152H406.164V110.018H397.584V112.152ZM428.486 104.628V125.067H425.634V104.628H428.486ZM411.393 119.295C412.954 119.283 414.74 119.283 416.604 119.227V117.498C414.358 117.105 412.898 115.712 412.921 113.792C412.898 111.501 414.987 109.951 417.997 109.951C421.029 109.951 423.14 111.501 423.14 113.792C423.14 115.701 421.68 117.094 419.434 117.498V119.137C421.141 119.059 422.871 118.924 424.511 118.711L424.713 120.822C420.243 121.586 415.414 121.631 411.775 121.631L411.393 119.295ZM424.219 106.896V109.142H411.798V106.896H416.604V104.718H419.457V106.896H424.219ZM417.997 112.13C416.604 112.13 415.616 112.736 415.638 113.792C415.616 114.87 416.604 115.454 417.997 115.454C419.434 115.454 420.4 114.87 420.4 113.792C420.4 112.736 419.434 112.13 417.997 112.13ZM447.349 104.65V120.081H444.474V118.464H440.566V116.51H444.474V104.65H447.349ZM447.798 122.417V124.708H432.57V118.598H435.422V115.881C433.592 115.959 431.851 115.97 430.301 115.97L429.964 113.702C433.715 113.679 438.769 113.635 443.081 113.095L443.238 115.139C441.621 115.409 439.948 115.6 438.297 115.723V119.609H435.422V122.417H447.798ZM436.612 105.346C439.577 105.324 441.711 106.829 441.711 109.008C441.711 111.186 439.577 112.601 436.612 112.601C433.58 112.601 431.469 111.186 431.469 109.008C431.469 106.829 433.558 105.324 436.612 105.346ZM436.612 107.435C435.153 107.435 434.164 107.997 434.187 109.008C434.164 109.996 435.153 110.535 436.612 110.535C437.983 110.535 438.971 109.996 438.993 109.008C438.971 107.997 437.983 107.435 436.612 107.435ZM466.481 104.628V125.067H463.741V104.628H466.481ZM462.213 104.92V124.124H459.518V114.466H457.879C457.609 118.486 455.902 120.912 453.386 120.912C450.691 120.912 448.939 118.082 448.939 113.477C448.939 108.895 450.691 106.088 453.386 106.088C455.846 106.088 457.53 108.379 457.856 112.197H459.518V104.92H462.213ZM453.386 108.783C452.241 108.783 451.567 110.355 451.589 113.477C451.567 116.622 452.241 118.172 453.386 118.149C454.554 118.172 455.251 116.622 455.251 113.477C455.251 110.355 454.554 108.783 453.386 108.783ZM485.209 104.628V125.067H482.514V104.628H485.209ZM480.852 105.077V124.169H478.179V114.78H474.832C473.664 117.116 471.766 119.137 468.857 120.822L467.24 118.801C471.362 116.352 473.181 113.376 473.574 109.367H468.363V107.053H476.427C476.416 108.996 476.213 110.827 475.73 112.511H478.179V105.077H480.852ZM402.584 135.751V138.042H398.496C398.631 140.198 400.17 142.354 403.37 143.23L401.933 145.454C399.597 144.791 397.957 143.387 397.036 141.591C396.104 143.533 394.431 145.072 392.005 145.813L390.568 143.567C393.824 142.624 395.408 140.355 395.554 138.042H391.354V135.751H402.584ZM407.615 134.628V145.723H404.74V134.628H407.615ZM396.767 146.577V148.486H404.763V146.577H407.615V154.843H393.937V146.577H396.767ZM396.767 152.552H404.763V150.71H396.767V152.552ZM427.871 143.904V146.218H419.964V147.722C423.525 147.992 425.625 149.272 425.647 151.384C425.625 153.742 422.952 155.067 418.527 155.067C414.035 155.067 411.362 153.742 411.362 151.384C411.362 149.261 413.484 147.981 417.112 147.722V146.218H409.228V143.904H427.871ZM418.527 149.834C415.697 149.856 414.259 150.35 414.282 151.384C414.259 152.372 415.697 152.911 418.527 152.911C421.29 152.911 422.75 152.372 422.772 151.384C422.75 150.35 421.29 149.856 418.527 149.834ZM426.186 135.504V137.75H420.638C421.121 139.187 423.199 140.569 427.085 140.894L426.074 143.14C422.222 142.77 419.616 141.31 418.527 139.322C417.449 141.31 414.888 142.77 411.003 143.14L410.059 140.894C413.844 140.569 415.933 139.176 416.461 137.75H410.935V135.504H426.186ZM441.406 148.688C445.943 148.711 448.503 149.834 448.526 151.9C448.503 153.989 445.943 155.067 441.406 155.067C436.824 155.067 434.241 153.989 434.241 151.9C434.241 149.834 436.824 148.711 441.406 148.688ZM441.406 150.777C438.508 150.777 437.183 151.136 437.183 151.9C437.183 152.686 438.508 153.001 441.406 152.978C444.281 153.001 445.606 152.686 445.628 151.9C445.606 151.136 444.281 150.777 441.406 150.777ZM449.784 136.088V138.244H433.005V136.088H439.991V134.47H442.866V136.088H449.784ZM441.428 138.805C445.853 138.805 448.301 139.794 448.301 141.748C448.301 143.444 446.381 144.421 442.866 144.623V145.678H450.749V147.902H432.107V145.678H439.991V144.623C436.487 144.421 434.533 143.444 434.555 141.748C434.533 139.794 437.026 138.805 441.428 138.805ZM441.428 140.737C438.845 140.737 437.61 141.029 437.61 141.748C437.61 142.399 438.845 142.714 441.428 142.714C444.034 142.714 445.224 142.399 445.224 141.748C445.224 141.029 444.034 140.737 441.428 140.737ZM469.545 150.35V152.686H450.835V150.35H458.719V146.577H452.811V135.93H455.686V139.097H464.603V135.93H467.456V146.577H461.571V150.35H469.545ZM455.686 144.286H464.603V141.388H455.686V144.286Z" fill="white"/>
<rect x="1" y="181.001" width="228" height="228" rx="114" fill="black" fill-opacity="0.9"/>
<rect x="1" y="181.001" width="228" height="228" rx="114" stroke="#C7DA01" stroke-width="2"/>
<path d="M59.1239 270.01V274.502H60.5614V269.628H63.2792V281.959H60.5614V276.793H59.1239V281.397H56.496V270.01H59.1239ZM50.1171 271.245V273.536H48.3427V278.298C48.9042 278.264 49.4994 278.174 50.162 278.028L50.3866 280.297C48.8593 280.611 47.7138 280.656 46.6356 280.656H45.7147V271.245H50.1171ZM55.4179 271.245V273.536H53.5087V278.253C54.1376 278.219 54.8114 278.129 55.5751 277.983L55.8222 280.274C54.2499 280.611 53.0595 280.611 51.869 280.611H50.9257V271.245H55.4179ZM56.0468 282.138C60.494 282.116 63.3241 283.621 63.3241 286.114C63.3241 288.63 60.494 290.067 56.0468 290.067C51.5321 290.067 48.747 288.63 48.747 286.114C48.747 283.621 51.5321 282.116 56.0468 282.138ZM56.0468 284.362C53.1942 284.362 51.6444 284.946 51.6669 286.114C51.6444 287.282 53.1942 287.888 56.0468 287.888C58.8769 287.888 60.4042 287.282 60.4042 286.114C60.4042 284.946 58.8769 284.362 56.0468 284.362ZM81.3333 269.628V290.112H78.4583V279.78H74.7747V277.489H78.4583V269.628H81.3333ZM71.72 276.029C71.72 278.994 73.3372 282.296 76.6839 283.733L75.1565 285.934C72.8318 284.969 71.2146 283.014 70.3274 280.678C69.429 283.16 67.823 285.249 65.4759 286.249L63.971 284.048C67.2503 282.588 68.845 279.106 68.8675 276.029V275.243H64.6224V272.952H68.8675V270.077H71.7425V272.952H75.8753V275.243H71.72V276.029ZM99.9265 269.628V290.112H97.0739V269.628H99.9265ZM93.5925 271.335V279.219H86.8542V282.969C89.965 282.958 92.6154 282.779 95.614 282.296L95.861 284.609C92.4919 285.193 89.4597 285.328 85.7312 285.328H83.8894V276.95H90.6726V273.648H83.8669V271.335H93.5925ZM123.501 269.628V290.067H120.761V279.825H119.032V289.124H116.314V283.261L114.697 285.418C112.799 284.418 111.575 282.722 110.856 280.611C110.171 283.037 108.958 285.002 107.015 286.159L105.241 283.958C108.34 282.206 109.396 278.59 109.396 274.681V274.03H105.937V271.739H115.303V274.03H112.181V274.681C112.181 278.241 113.237 281.633 116.314 283.217V269.92H119.032V277.489H120.761V269.628H123.501ZM141.241 271.402V273.334C141.241 275.894 141.241 278.769 140.41 283.104L137.535 282.812C138.31 278.949 138.344 276.074 138.366 273.671H126.327V271.402H141.241ZM143.038 285.238V287.574H124.395V285.238H131.066V278.208H133.919V285.238H143.038ZM164.547 269.628V290.112H161.672V279.78H157.988V277.489H161.672V269.628H164.547ZM154.933 276.029C154.933 278.994 156.55 282.296 159.897 283.733L158.37 285.934C156.045 284.969 154.428 283.014 153.541 280.678C152.642 283.16 151.036 285.249 148.689 286.249L147.184 284.048C150.464 282.588 152.058 279.106 152.081 276.029V275.243H147.836V272.952H152.081V270.077H154.956V272.952H159.089V275.243H154.933V276.029ZM183.14 269.628V290.112H180.287V269.628H183.14ZM176.806 271.335V279.219H170.067V282.969C173.178 282.958 175.829 282.779 178.827 282.296L179.074 284.609C175.705 285.193 172.673 285.328 168.944 285.328H167.103V276.95H173.886V273.648H167.08V271.335H176.806ZM53.0617 299.628V309.982H50.2092V299.628H53.0617ZM53.0842 310.858V316.406H42.2131V317.664H53.6457V319.932H39.4055V314.272H50.2316V313.082H39.3605V310.858H53.0842ZM43.8078 301.649C43.7854 304.12 45.2678 306.501 48.6145 307.467L47.2219 309.668C44.8747 308.983 43.2575 307.568 42.3479 305.76C41.4045 307.736 39.7312 309.308 37.2941 310.027L35.8791 307.781C39.2932 306.77 40.8205 304.187 40.8205 301.649V300.077H43.8078V301.649ZM62.6481 304.255C62.6481 308.006 64.3551 311.779 67.8141 313.239L66.1295 315.53C63.7936 314.474 62.1764 312.442 61.2555 309.915C60.3233 312.666 58.65 314.89 56.1568 316.024L54.4273 313.643C57.9986 312.138 59.7281 308.23 59.7506 304.255V301.2H62.6481V304.255ZM71.8121 299.628V320.112H68.9147V299.628H71.8121ZM89.6416 299.628V305.355H92.4043V307.714H89.6416V314.272H86.7441V299.628H89.6416ZM84.0713 301.155C84.0713 306.68 80.6123 310.544 74.4805 312.273L73.29 310.005C77.8608 308.724 80.4551 306.355 80.9268 303.491H74.1885V301.155H84.0713ZM90.3379 317.417V319.708H76.3447V312.767H79.2422V317.417H90.3379ZM112.52 299.628V303.581H115.283V305.939H112.52V309.847H109.645V299.628H112.52ZM112.52 310.656V316.226H101.806V317.596H113.104V319.843H98.9988V314.16H109.668V312.857H98.9539V310.656H112.52ZM101.941 300.234C105.086 300.257 107.422 302.143 107.422 304.861C107.422 307.556 105.086 309.488 101.941 309.488C98.7967 309.488 96.4383 307.556 96.4383 304.861C96.4383 302.143 98.7967 300.257 101.941 300.234ZM101.941 302.57C100.369 302.57 99.2234 303.424 99.2459 304.861C99.2234 306.321 100.369 307.219 101.941 307.219C103.513 307.219 104.637 306.321 104.637 304.861C104.637 303.424 103.513 302.57 101.941 302.57ZM132.147 299.65V311.757H129.272V299.65H132.147ZM125.566 300.818V306.95H118.917V308.724C122.331 308.713 124.735 308.612 127.497 308.163L127.857 310.454C124.712 310.948 121.972 311.06 117.906 311.06H116.11V304.771H122.713V303.064H116.087V300.818H125.566ZM132.147 312.655V319.843H118.446V312.655H132.147ZM121.276 314.924V317.552H129.339V314.924H121.276ZM145.637 304.255C145.637 308.095 147.187 311.824 150.601 313.306L148.849 315.597C146.58 314.486 145.064 312.453 144.222 309.937C143.323 312.61 141.751 314.8 139.415 315.957L137.618 313.621C141.122 312.049 142.717 308.095 142.739 304.255V301.2H145.637V304.255ZM155.16 299.628V320.112H152.33V308.365H148.31V306.052H152.33V299.628H155.16ZM173.753 299.628V320.112H170.856V299.628H173.753ZM160.524 301.245V306.231H164.926V301.245H167.756V315.328H157.649V301.245H160.524ZM160.524 313.014H164.926V308.455H160.524V313.014ZM186.125 302.323C186.125 305.31 188.775 308.522 193.402 309.308L192.144 311.689C188.584 310.982 185.934 308.983 184.62 306.344C183.261 308.96 180.611 310.97 177.073 311.689L175.838 309.308C180.375 308.5 183.048 305.288 183.07 302.323V300.841H186.125V302.323ZM194.076 315.193V317.552H175.366V315.193H194.076Z" fill="white"/>
<rect x="421" y="181.001" width="228" height="228" rx="114" fill="black" fill-opacity="0.9"/>
<rect x="421" y="181.001" width="228" height="228" rx="114" stroke="#C7DA01" stroke-width="2"/>
<path d="M496.603 271.559V285.081H486.788V271.559H496.603ZM489.618 273.805V282.812H493.75V273.805H489.618ZM502.263 269.628V277.332H505.273V279.713H502.263V290.067H499.388V269.628H502.263ZM521.53 280.184V282.453H507.065V271.133H521.373V273.446H509.985V275.602H520.901V277.848H509.985V280.184H521.53ZM523.574 285.35V287.686H504.864V285.35H523.574ZM535.222 281.218V285.373H538.928V281.218H541.781V285.373H546.453V287.686H527.743V285.373H532.392V281.218H535.222ZM538.502 272.233C538.502 275.018 541.13 277.983 545.779 278.657L544.633 281.038C541.006 280.409 538.311 278.567 536.974 276.074C535.615 278.556 532.931 280.431 529.338 281.038L528.192 278.657C532.797 277.938 535.425 274.973 535.447 272.233V270.751H538.502V272.233ZM558.465 271.177V273.469H556.78V278.41C557.623 278.354 558.454 278.264 559.251 278.163L559.453 280.274C555.298 280.993 550.514 281.083 547.122 281.083L546.808 278.769C547.493 278.769 548.234 278.769 549.009 278.747V273.469H547.347V271.177H558.465ZM563.586 269.65V281.981H560.711V269.65H563.586ZM556.646 282.363C561.025 282.363 563.698 283.733 563.721 286.181C563.698 288.652 561.025 290.067 556.646 290.067C552.288 290.067 549.615 288.652 549.615 286.181C549.615 283.733 552.288 282.363 556.646 282.363ZM556.646 284.542C553.905 284.542 552.468 285.081 552.468 286.181C552.468 287.304 553.905 287.888 556.646 287.888C559.386 287.888 560.823 287.304 560.846 286.181C560.823 285.081 559.386 284.542 556.646 284.542ZM551.749 278.702C552.49 278.668 553.254 278.646 554.018 278.59V273.469H551.749V278.702ZM583.841 277.983V280.297H565.199V277.983H573.06V276.658H567.512V270.212H581.483V276.658H575.89V277.983H583.841ZM570.32 272.435V274.457H578.63V272.435H570.32ZM581.573 281.307V286.541H570.185V287.776H582.112V289.932H567.377V284.519H578.743V283.464H567.355V281.307H581.573ZM514.188 311.06V313.351H506.192V320.045H503.362V313.351H495.478V311.06H514.188ZM511.942 300.616V308.859H497.679V300.616H511.942ZM500.509 302.885V306.613H509.089V302.885H500.509ZM532.938 315.44V317.799H514.228V315.44H519.012V312.318H516.384V305.445H527.952V303.244H516.362V300.953H530.782V307.736H519.259V310.005H531.254V312.318H528.356V315.44H532.938ZM521.797 315.44H525.548V312.318H521.797V315.44ZM555.794 310.117V312.363H548.09V315.665H545.26V312.363H537.084V310.117H555.794ZM553.728 317.417V319.708H539.286V314.048H542.116V317.417H553.728ZM542.318 300.279V302.413H550.516V300.279H553.369V308.679H539.488V300.279H542.318ZM542.318 306.411H550.516V304.547H542.318V306.411ZM574.702 302.166V304.502H572.052V306.613H574.702V308.971H572.052V311.577H569.177V299.628H572.052V302.166H574.702ZM561.585 300.751C564.752 300.728 567.155 302.795 567.155 305.692C567.155 308.59 564.752 310.634 561.585 310.634C558.395 310.634 555.97 308.59 555.97 305.692C555.97 302.795 558.395 300.728 561.585 300.751ZM561.585 303.154C559.968 303.132 558.777 304.12 558.8 305.692C558.777 307.287 559.968 308.23 561.585 308.23C563.157 308.23 564.347 307.287 564.37 305.692C564.347 304.12 563.157 303.132 561.585 303.154ZM565.358 311.981C569.558 311.981 572.254 313.509 572.254 316.047C572.254 318.562 569.558 320.067 565.358 320.067C561.068 320.067 558.35 318.562 558.35 316.047C558.35 313.509 561.068 311.981 565.358 311.981ZM565.358 314.25C562.663 314.25 561.203 314.856 561.225 316.047C561.203 317.237 562.663 317.799 565.358 317.799C568.009 317.799 569.424 317.237 569.424 316.047C569.424 314.856 568.009 314.25 565.358 314.25Z" fill="white"/>
<rect x="106" y="361.001" width="228" height="228" rx="114" fill="black" fill-opacity="0.9"/>
<rect x="106" y="361.001" width="228" height="228" rx="114" stroke="#C7DA01" stroke-width="2"/>
<path d="M167.448 434.65V449.34H164.573V434.65H167.448ZM167.987 452.417V454.708H153.747V447.857H156.644V452.417H167.987ZM156.24 435.953C159.385 435.953 161.833 438.109 161.833 441.096C161.833 444.151 159.385 446.285 156.24 446.285C153.096 446.285 150.647 444.151 150.647 441.096C150.647 438.109 153.096 435.953 156.24 435.953ZM156.24 438.446C154.645 438.424 153.433 439.434 153.455 441.096C153.433 442.803 154.645 443.792 156.24 443.792C157.79 443.792 159.003 442.803 159.003 441.096C159.003 439.434 157.79 438.424 156.24 438.446ZM185.547 435.773V437.503C185.547 439.232 185.547 441.175 185.098 443.679H187.771V445.97H169.061V443.679H182.178C182.638 441.388 182.695 439.681 182.695 438.064H171.352V435.773H185.547ZM186.131 452.394V454.685H171.442V447.767H174.272V452.394H186.131ZM199.868 440.198C199.868 443.5 201.553 447.026 204.989 448.464L203.44 450.71C201.025 449.688 199.363 447.655 198.453 445.162C197.521 447.868 195.825 450.115 193.422 451.226L191.782 448.958C195.174 447.453 196.926 443.657 196.926 440.198V438.94H192.591V436.604H204.136V438.94H199.868V440.198ZM209.055 434.628V455.067H206.157V434.628H209.055ZM227.895 447.633V455.067H225.042V449.879H213.857V447.633H227.895ZM227.895 434.628V446.712H225.042V444.129H220.46C219.483 445.184 218.035 445.813 216.373 445.813C213.273 445.813 210.915 443.679 210.937 440.715C210.915 437.817 213.273 435.706 216.373 435.728C218.035 435.717 219.483 436.335 220.46 437.368H225.042V434.628H227.895ZM216.373 438.132C214.778 438.132 213.632 439.12 213.655 440.715C213.632 442.399 214.778 443.365 216.373 443.365C217.877 443.365 219.045 442.399 219.045 440.715C219.045 439.12 217.877 438.132 216.373 438.132ZM221.651 441.838H225.042V439.681H221.673C221.729 440.007 221.763 440.355 221.763 440.715C221.763 441.108 221.718 441.478 221.651 441.838ZM241.003 437.84C241.003 440.31 242.441 442.691 245.675 443.702L244.148 445.926C241.98 445.207 240.464 443.814 239.588 442.017C238.701 444.084 237.117 445.701 234.782 446.487L233.232 444.241C236.646 443.095 238.106 440.378 238.128 437.57V435.706H241.003V437.84ZM249.763 434.628V439.412H252.526V441.793H249.763V446.757H246.888V434.628H249.763ZM243.07 447.161C247.292 447.161 249.965 448.621 249.965 451.114C249.965 453.63 247.292 455.067 243.07 455.067C238.757 455.067 236.062 453.63 236.062 451.114C236.062 448.621 238.757 447.161 243.07 447.161ZM243.07 449.407C240.374 449.407 238.914 449.991 238.937 451.114C238.914 452.282 240.374 452.821 243.07 452.821C245.72 452.821 247.135 452.282 247.135 451.114C247.135 449.991 245.72 449.407 243.07 449.407ZM269.502 434.628V446.442H266.649V441.68H263.415V439.344H266.649V434.628H269.502ZM269.502 447.296V454.843H255.756V447.296H269.502ZM258.631 449.542V452.552H266.694V449.542H258.631ZM264.066 435.661V437.974H260.001C260.046 440.299 261.494 442.781 264.695 443.837L263.28 446.105C261.011 445.353 259.45 443.87 258.563 442.017C257.654 444.061 256.025 445.69 253.622 446.465L252.162 444.219C255.464 443.163 257.002 440.557 257.081 437.974H252.97V435.661H264.066ZM288.724 434.628V455.067H285.983V434.628H288.724ZM284.456 434.92V454.124H281.761V444.466H280.121C279.852 448.486 278.145 450.912 275.629 450.912C272.934 450.912 271.182 448.082 271.182 443.477C271.182 438.895 272.934 436.088 275.629 436.088C278.088 436.088 279.773 438.379 280.099 442.197H281.761V434.92H284.456ZM275.629 438.783C274.483 438.783 273.81 440.355 273.832 443.477C273.81 446.622 274.483 448.172 275.629 448.149C276.797 448.172 277.493 446.622 277.493 443.477C277.493 440.355 276.797 438.783 275.629 438.783ZM172.239 466.559V480.081H162.424V466.559H172.239ZM165.254 468.805V477.812H169.387V468.805H165.254ZM177.899 464.628V472.332H180.909V474.713H177.899V485.067H175.024V464.628H177.899ZM197.166 475.184V477.453H182.701V466.133H197.009V468.446H185.621V470.602H196.537V472.848H185.621V475.184H197.166ZM199.21 480.35V482.686H180.5V480.35H199.21ZM212.678 478.688C217.215 478.711 219.775 479.834 219.798 481.9C219.775 483.989 217.215 485.067 212.678 485.067C208.096 485.067 205.513 483.989 205.513 481.9C205.513 479.834 208.096 478.711 212.678 478.688ZM212.678 480.777C209.78 480.777 208.455 481.136 208.455 481.9C208.455 482.686 209.78 483.001 212.678 482.978C215.553 483.001 216.878 482.686 216.9 481.9C216.878 481.136 215.553 480.777 212.678 480.777ZM221.056 466.088V468.244H204.277V466.088H211.263V464.47H214.138V466.088H221.056ZM212.7 468.805C217.125 468.805 219.573 469.794 219.573 471.748C219.573 473.444 217.653 474.421 214.138 474.623V475.678H222.021V477.902H203.379V475.678H211.263V474.623C207.759 474.421 205.805 473.444 205.827 471.748C205.805 469.794 208.298 468.805 212.7 468.805ZM212.7 470.737C210.117 470.737 208.882 471.029 208.882 471.748C208.882 472.399 210.117 472.714 212.7 472.714C215.306 472.714 216.496 472.399 216.496 471.748C216.496 471.029 215.306 470.737 212.7 470.737ZM240.817 480.35V482.686H222.107V480.35H229.991V476.577H224.083V465.93H226.958V469.097H235.875V465.93H238.728V476.577H232.843V480.35H240.817ZM226.958 474.286H235.875V471.388H226.958V474.286ZM258.017 464.628V485.067H255.12V464.628H258.017ZM251.886 466.761C251.886 472.961 249.707 478.104 242.407 481.563L240.902 479.272C246.18 476.779 248.505 473.545 248.966 469.008H242.003V466.761H251.886ZM276.745 464.628V485.067H273.848V464.628H276.745ZM270.613 466.761C270.613 472.961 268.435 478.104 261.135 481.563L259.63 479.272C264.908 476.779 267.233 473.545 267.694 469.008H260.731V466.761H270.613ZM199.188 506.06V508.351H191.192V515.045H188.362V508.351H180.478V506.06H199.188ZM196.942 495.616V503.859H182.679V495.616H196.942ZM185.509 497.885V501.613H194.089V497.885H185.509ZM206.685 497.84C206.685 500.31 208.123 502.691 211.357 503.702L209.83 505.926C207.662 505.207 206.146 503.814 205.27 502.017C204.383 504.084 202.799 505.701 200.463 506.487L198.914 504.241C202.328 503.095 203.788 500.378 203.81 497.57V495.706H206.685V497.84ZM215.445 494.628V499.412H218.208V501.793H215.445V506.757H212.57V494.628H215.445ZM208.752 507.161C212.974 507.161 215.647 508.621 215.647 511.114C215.647 513.63 212.974 515.067 208.752 515.067C204.439 515.067 201.744 513.63 201.744 511.114C201.744 508.621 204.439 507.161 208.752 507.161ZM208.752 509.407C206.056 509.407 204.596 509.991 204.619 511.114C204.596 512.282 206.056 512.821 208.752 512.821C211.402 512.821 212.817 512.282 212.817 511.114C212.817 509.991 211.402 509.407 208.752 509.407ZM225.386 496.447V501.052H228.171V496.447H230.822V510.216H222.691V496.447H225.386ZM225.386 507.925H228.171V503.298H225.386V507.925ZM239.829 494.628V515.067H237.088V504.758H235.246V514.124H232.529V494.92H235.246V502.422H237.088V494.628H239.829ZM259.545 510.395V512.799H240.835V510.395H248.696V506.712H242.385V504.466H245.125V498.626H242.295V496.335H257.972V498.626H255.097V504.466H257.883V506.712H251.549V510.395H259.545ZM248 504.466H252.267V498.626H248V504.466Z" fill="white"/>
<rect x="316" y="361.001" width="228" height="228" rx="114" fill="black" fill-opacity="0.9"/>
<rect x="316" y="361.001" width="228" height="228" rx="114" stroke="#C7DA01" stroke-width="2"/>
<path d="M380.164 436.559V450.081H370.348V436.559H380.164ZM373.178 438.805V447.812H377.311V438.805H373.178ZM385.824 434.628V442.332H388.834V444.713H385.824V455.067H382.949V434.628H385.824ZM405.091 445.184V447.453H390.626V436.133H404.934V438.446H393.546V440.602H404.462V442.848H393.546V445.184H405.091ZM407.135 450.35V452.686H388.425V450.35H407.135ZM428.935 434.628V455.067H426.173V444.847H424.263V454.079H421.568V434.965H424.263V442.534H426.173V434.628H428.935ZM415.01 436.896V447.565C416.649 447.531 418.446 447.385 420.423 447.004L420.715 449.474C417.974 449.946 415.638 450.081 413.527 450.081H412.135V436.896H415.01ZM451.297 434.65V449.34H448.422V434.65H451.297ZM451.837 452.417V454.708H437.596V447.857H440.494V452.417H451.837ZM440.089 435.953C443.234 435.953 445.682 438.109 445.682 441.096C445.682 444.151 443.234 446.285 440.089 446.285C436.945 446.285 434.497 444.151 434.497 441.096C434.497 438.109 436.945 435.953 440.089 435.953ZM440.089 438.446C438.495 438.424 437.282 439.434 437.304 441.096C437.282 442.803 438.495 443.792 440.089 443.792C441.639 443.792 442.852 442.803 442.852 441.096C442.852 439.434 441.639 438.424 440.089 438.446ZM470.138 434.65V449.587H467.285V442.916H463.624V440.557H467.285V434.65H470.138ZM463.804 436.155C463.804 441.635 460.322 445.678 454.348 447.543L453.18 445.274C457.414 443.949 460.143 441.512 460.682 438.491H454.235V436.155H463.804ZM470.654 452.417V454.708H456.661V448.082H459.581V452.417H470.654ZM488.753 434.628V455.112H485.856V434.628H488.753ZM475.524 436.245V441.231H479.926V436.245H482.756V450.328H472.649V436.245H475.524ZM475.524 448.014H479.926V443.455H475.524V448.014ZM392.816 465.414V467.705H388.75C388.829 469.749 390.312 471.883 393.422 472.781L392.097 475.05C389.795 474.387 388.211 473.028 387.313 471.321C386.381 473.208 384.719 474.758 382.349 475.476L380.957 473.253C384.157 472.231 385.752 469.872 385.875 467.705H381.743V465.414H392.816ZM398.364 464.628V475.027H395.511V471.096H392.299V468.828H395.511V464.628H398.364ZM398.364 475.813V481.339H387.65V482.641H398.97V484.865H384.775V479.25H395.511V478.082H384.752V475.813H398.364ZM416.081 464.628V469.097H418.844V471.456H416.081V476.06H413.206V464.628H416.081ZM410.353 465.818C410.331 471.231 406.917 474.892 400.785 476.51L399.64 474.241C404.222 473.107 406.748 470.838 407.231 468.109H400.65V465.818H410.353ZM416.081 476.824V484.82H402.717V476.824H416.081ZM405.569 479.137V482.574H413.251V479.137H405.569ZM427.913 464.92C432.608 464.92 435.325 466.155 435.348 468.401C435.325 470.67 432.608 471.905 427.913 471.905C423.197 471.905 420.456 470.67 420.456 468.401C420.456 466.155 423.197 464.92 427.913 464.92ZM427.913 467.009C424.904 467.009 423.444 467.503 423.466 468.401C423.444 469.412 424.904 469.794 427.913 469.794C430.946 469.794 432.383 469.412 432.383 468.401C432.383 467.503 430.946 467.009 427.913 467.009ZM437.235 472.871V475.139H418.592V472.871H437.235ZM434.966 476.33V481.541H423.578V482.776H435.505V484.932H420.771V479.542H432.136V478.419H420.748V476.33H434.966ZM448.142 465.481C451.264 465.459 453.532 467.233 453.532 469.816C453.532 472.377 451.264 474.174 448.142 474.151C445.02 474.174 442.751 472.377 442.774 469.816C442.751 467.233 445.02 465.459 448.142 465.481ZM448.142 467.772C446.614 467.772 445.536 468.513 445.536 469.816C445.536 471.096 446.614 471.838 448.142 471.815C449.714 471.838 450.815 471.096 450.815 469.816C450.815 468.513 449.714 467.772 448.142 467.772ZM458.698 464.65V485.067H455.868V464.65H458.698ZM441.516 475.409C445.132 475.409 450.275 475.319 454.633 474.668L454.813 476.779C453.128 477.116 451.399 477.329 449.692 477.453V484.461H446.839V477.633C445.042 477.711 443.346 477.722 441.875 477.745L441.516 475.409ZM476.416 464.65V470.917H479.178V473.253H476.416V479.901H473.541V464.65H476.416ZM472.328 466.784V469.052H460.199V466.784H464.848V464.605H467.701V466.784H472.328ZM466.263 469.771C469.228 469.771 471.294 471.366 471.294 473.724C471.294 476.083 469.228 477.633 466.263 477.633C463.276 477.633 461.187 476.083 461.187 473.724C461.187 471.366 463.276 469.771 466.263 469.771ZM466.263 471.95C464.893 471.972 463.972 472.601 463.995 473.724C463.972 474.847 464.893 475.454 466.263 475.454C467.633 475.454 468.577 474.847 468.577 473.724C468.577 472.601 467.633 471.972 466.263 471.95ZM477.157 482.417V484.708H463.164V478.733H466.016V482.417H477.157ZM362.132 496.582C362.11 502.871 360.38 508.217 352.654 512.012L351.149 509.811C354.529 508.149 356.64 506.24 357.864 503.927L351.665 504.488L351.306 502.062L358.785 501.613C359.032 500.76 359.19 499.839 359.279 498.873H352.362V496.582H362.132ZM368.152 494.628V515.067H365.254V494.628H368.152ZM379.018 495.683C383.421 495.683 386.7 497.907 386.722 501.276C386.7 504.353 384.106 506.431 380.433 506.846V510.328H388.407V512.686H369.697V510.328H377.581V506.824C373.92 506.431 371.337 504.342 371.337 501.276C371.337 497.907 374.616 495.683 379.018 495.683ZM379.018 497.974C376.166 497.974 374.167 499.232 374.167 501.276C374.167 503.432 376.166 504.645 379.018 504.645C381.893 504.645 383.87 503.432 383.892 501.276C383.87 499.232 381.893 497.974 379.018 497.974ZM399.184 497.323C399.184 500.31 401.834 503.522 406.461 504.308L405.203 506.689C401.643 505.982 398.993 503.983 397.679 501.344C396.32 503.96 393.669 505.97 390.132 506.689L388.896 504.308C393.434 503.5 396.106 500.288 396.129 497.323V495.841H399.184V497.323ZM407.135 510.193V512.552H388.425V510.193H407.135ZM423.886 496.425V498.805C423.886 501.77 423.886 504.623 422.943 509.048L420.09 508.778C420.495 507.071 420.719 505.577 420.876 504.196L409.017 504.78L408.658 502.489L421.011 502.04C421.067 500.928 421.067 499.861 421.079 498.805V498.716H409.287V496.425H423.886ZM425.795 510.283V512.619H407.153V510.283H425.795ZM446.248 494.583V499.03H449.011V501.321H446.248V505.656H443.373V494.583H446.248ZM446.248 506.487V511.653H435.534V512.821H446.832V514.932H432.727V509.699H443.396V508.553H432.682V506.487H446.248ZM442.16 496.155V498.334H430.031V496.155H434.681V494.493H437.533V496.155H442.16ZM436.096 498.828C439.151 498.828 441.127 500.131 441.127 502.175C441.127 504.263 439.151 505.521 436.096 505.521C433.041 505.521 431.02 504.263 431.02 502.175C431.02 500.131 433.041 498.828 436.096 498.828ZM436.096 500.849C434.681 500.849 433.805 501.321 433.827 502.175C433.805 503.051 434.681 503.477 436.096 503.477C437.511 503.477 438.409 503.051 438.409 502.175C438.409 501.321 437.511 500.849 436.096 500.849ZM465.875 494.65V509.34H463V494.65H465.875ZM466.414 512.417V514.708H452.173V507.857H455.071V512.417H466.414ZM454.667 495.953C457.811 495.953 460.259 498.109 460.259 501.096C460.259 504.151 457.811 506.285 454.667 506.285C451.522 506.285 449.074 504.151 449.074 501.096C449.074 498.109 451.522 495.953 454.667 495.953ZM454.667 498.446C453.072 498.424 451.859 499.434 451.881 501.096C451.859 502.803 453.072 503.792 454.667 503.792C456.216 503.792 457.429 502.803 457.429 501.096C457.429 499.434 456.216 498.424 454.667 498.446ZM489.315 494.628V515.067H486.597V494.628H489.315ZM485.137 494.965V514.124H482.442V503.949H479.746V501.635H482.442V494.965H485.137ZM478.107 500.108C478.107 503.5 479.163 506.936 482.15 508.643L480.465 510.755C478.646 509.677 477.444 507.846 476.759 505.656C476.052 508.037 474.816 510.058 472.941 511.204L471.211 509.093C474.221 507.251 475.344 503.567 475.344 500.108V499.008H471.997V496.717H481.206V499.008H478.107V500.108ZM499.575 507.363C504.045 507.363 506.852 508.778 506.875 511.226C506.852 513.63 504.045 515.067 499.575 515.067C495.15 515.067 492.298 513.63 492.298 511.226C492.298 508.778 495.15 507.363 499.575 507.363ZM499.575 509.497C496.767 509.497 495.15 510.081 495.15 511.226C495.15 512.327 496.767 512.888 499.575 512.888C502.383 512.888 504.022 512.327 504.022 511.226C504.022 510.081 502.383 509.497 499.575 509.497ZM506.762 495.549V497.211C506.762 498.828 506.762 500.58 506.179 502.691L503.371 502.422C503.82 500.569 503.876 499.187 503.91 497.795H492.5V495.549H506.762ZM508.964 503.747V506.06H490.411V503.747H497.374V500.176H500.204V503.747H508.964Z" fill="white"/>
<rect x="200" y="170.001" width="250" height="250" rx="125" fill="#C7DA01"/>
<path d="M306.218 280.903V283.194H298.267V290.067H295.437V283.194H287.576V280.903H306.218ZM304.556 270.706V272.952H298.604C298.885 274.951 301.142 276.961 305.342 277.467L304.309 279.713C300.715 279.23 298.143 277.691 296.919 275.58C295.662 277.691 293.112 279.23 289.552 279.713L288.496 277.467C292.629 276.961 294.909 274.951 295.235 272.952H289.26V270.706H304.556ZM324.991 279.735V282.004H317.287V285.53H314.457V282.004H306.281V279.735H324.991ZM322.588 270.526V278.051H308.617V270.526H322.588ZM311.425 272.75V275.827H319.78V272.75H311.425ZM322.925 287.417V289.708H308.482V283.756H311.335V287.417H322.925ZM336.487 271.11V272.39C336.487 273.805 336.487 275.849 336.015 278.387L333.207 278.118C333.567 276.153 333.656 274.67 333.679 273.446H325.975V271.11H336.487ZM331.41 275.827V279.735C333.443 279.656 335.532 279.499 337.452 279.219L337.61 281.285C333.364 282.071 328.558 282.138 325.009 282.161L324.762 279.87C325.907 279.87 327.199 279.87 328.558 279.825V275.827H331.41ZM341.495 269.628V275.849H343.966V278.253H341.495V284.924H338.553V269.628H341.495ZM342.124 287.417V289.708H327.772V283.553H330.647V287.417H342.124ZM360.897 269.628V290.112H358.045V269.628H360.897ZM354.563 271.335V279.219H347.825V282.969C350.936 282.958 353.586 282.779 356.585 282.296L356.832 284.609C353.462 285.193 350.43 285.328 346.702 285.328H344.86V276.95H351.643V273.648H344.837V271.335H354.563ZM284.087 304.255C284.087 308.006 285.794 311.779 289.253 313.239L287.569 315.53C285.233 314.474 283.616 312.442 282.695 309.915C281.763 312.666 280.089 314.89 277.596 316.024L275.867 313.643C279.438 312.138 281.167 308.23 281.19 304.255V301.2H284.087V304.255ZM293.251 299.628V320.112H290.354V299.628H293.251ZM305.623 302.323C305.623 305.31 308.273 308.522 312.9 309.308L311.642 311.689C308.082 310.982 305.432 308.983 304.118 306.344C302.759 308.96 300.109 310.97 296.571 311.689L295.336 309.308C299.873 308.5 302.546 305.288 302.568 302.323V300.841H305.623V302.323ZM313.574 315.193V317.552H294.864V315.193H313.574ZM322.195 300.841V303.154H317.141V304.771H321.431V306.972H317.141V308.747C319.376 308.713 321.004 308.623 322.891 308.32L323.183 310.544C320.825 310.948 318.87 311.015 315.793 311.015H314.401V300.841H322.195ZM331.157 299.628V311.824H328.439V299.628H331.157ZM327.091 299.942V311.689H324.373V306.838H322.307V304.547H324.373V299.942H327.091ZM331.157 312.633V319.843H317.208V312.633H331.157ZM320.061 314.879V317.552H328.326V314.879H320.061ZM354.148 299.628V320.067H351.43V299.628H354.148ZM349.97 299.965V319.124H347.275V308.949H344.579V306.635H347.275V299.965H349.97ZM342.94 305.108C342.94 308.5 343.995 311.936 346.983 313.643L345.298 315.755C343.479 314.677 342.277 312.846 341.592 310.656C340.884 313.037 339.649 315.058 337.774 316.204L336.044 314.093C339.054 312.251 340.177 308.567 340.177 305.108V304.008H336.83V301.717H346.039V304.008H342.94V305.108ZM364.408 312.363C368.877 312.363 371.685 313.778 371.708 316.226C371.685 318.63 368.877 320.067 364.408 320.067C359.983 320.067 357.13 318.63 357.13 316.226C357.13 313.778 359.983 312.363 364.408 312.363ZM364.408 314.497C361.6 314.497 359.983 315.081 359.983 316.226C359.983 317.327 361.6 317.888 364.408 317.888C367.215 317.888 368.855 317.327 368.855 316.226C368.855 315.081 367.215 314.497 364.408 314.497ZM371.595 300.549V302.211C371.595 303.828 371.595 305.58 371.011 307.691L368.204 307.422C368.653 305.569 368.709 304.187 368.743 302.795H357.333V300.549H371.595ZM373.796 308.747V311.06H355.244V308.747H362.207V305.176H365.037V308.747H373.796Z" fill="black"/>
</svg>
