<svg width="417" height="430" viewBox="0 0 417 430" fill="none" xmlns="http://www.w3.org/2000/svg">
<path d="M320.924 0H97.0427C62.2962 0 31.7986 19.1592 14.9314 47.7972C11.4686 53.6703 12.604 61.2692 17.5568 65.8573C20.2336 68.3371 23.5576 69.5319 26.8458 69.5319C31.4492 69.5319 35.9807 67.1954 38.5907 62.7508C50.5822 42.3383 72.2942 28.6751 97.0427 28.6751H320.924C358.661 28.6751 389.256 60.2975 389.256 99.301V330.699C389.256 369.702 358.661 401.325 320.924 401.325H97.0427C59.306 401.325 28.7108 369.702 28.7108 330.699V224.574C28.7108 213.168 16.4522 206.328 7.22997 212.584C5.27249 213.906 3.71058 215.701 2.63166 217.761C1.55274 219.822 0.967041 222.158 0.967041 224.574V330.699C0.967041 385.543 43.9802 430 97.0427 430H320.924C373.9 430 417 385.458 417 330.699V99.301C417 44.4571 373.987 0 320.924 0Z" fill="#2DAF37"/>
<g clip-path="url(#clip0_2002_1986)">
<path d="M201.508 230.969C235.176 230.969 262.468 203.676 262.468 170.008C262.468 136.341 235.176 109.048 201.508 109.048C167.841 109.048 140.548 136.341 140.548 170.008C140.548 203.676 167.841 230.969 201.508 230.969Z" fill="black"/>
<path d="M201.508 235C184.862 235 168.199 228.66 155.52 215.98C130.16 190.637 130.16 149.379 155.52 124.02C180.879 98.6601 222.137 98.6601 247.48 124.02C272.824 149.379 272.84 190.637 247.48 215.98C234.801 228.66 218.154 235 201.492 235H201.508ZM201.508 113.128C186.943 113.128 172.361 118.671 161.274 129.774C139.085 151.964 139.085 188.069 161.274 210.242C183.464 232.432 219.569 232.432 241.742 210.242C263.932 188.052 263.932 151.948 241.742 129.774C230.655 118.688 216.074 113.128 201.508 113.128Z" fill="white"/>
<path d="M190.21 186.037H204.776C209.197 186.037 212.79 182.444 212.79 178.022C212.79 173.601 209.197 170.008 204.776 170.008H198.224C193.803 170.008 190.21 166.415 190.21 161.994C190.21 157.572 193.803 153.979 198.224 153.979H212.79" fill="black"/>
<path d="M204.776 190.101H186.146V181.973H204.776C206.954 181.973 208.726 180.201 208.726 178.022C208.726 175.844 206.954 174.072 204.776 174.072H198.224C191.559 174.072 186.146 168.659 186.146 161.994C186.146 155.329 191.559 149.916 198.224 149.916H216.854V158.044H198.224C196.046 158.044 194.274 159.815 194.274 161.994C194.274 164.172 196.046 165.944 198.224 165.944H204.776C211.441 165.944 216.854 171.357 216.854 178.022C216.854 184.687 211.441 190.101 204.776 190.101Z" fill="white"/>
<path d="M205.572 181.973H197.444V197.676H205.572V181.973Z" fill="white"/>
<path d="M205.572 142.324H197.444V158.027H205.572V142.324Z" fill="white"/>
<path d="M253.284 224.661C251.431 224.661 249.675 223.93 248.342 222.613L235.126 209.38C233.224 207.479 232.574 204.715 233.451 202.163C234.329 199.611 236.524 197.822 239.206 197.481L254.341 195.579C254.633 195.547 254.926 195.53 255.218 195.53C257.218 195.53 259.136 196.392 260.469 197.904C261.802 199.415 262.42 201.415 262.16 203.414L260.258 218.549C259.819 222.044 256.828 224.677 253.284 224.677V224.661Z" fill="#2DAF37"/>
<path d="M255.218 199.578C256.958 199.578 258.356 201.106 258.128 202.878L256.226 218.012C256.031 219.606 254.682 220.581 253.3 220.581C252.569 220.581 251.837 220.305 251.236 219.719L238.003 206.487C236.28 204.764 237.288 201.805 239.71 201.496L254.844 199.594C254.974 199.594 255.088 199.578 255.218 199.578ZM255.218 191.45C254.763 191.45 254.292 191.482 253.837 191.531L238.702 193.433C234.476 193.97 230.997 196.798 229.615 200.83C228.233 204.861 229.241 209.234 232.265 212.241L245.497 225.474C247.594 227.571 250.358 228.725 253.3 228.725C258.876 228.725 263.606 224.564 264.289 219.037L266.191 203.902C266.581 200.748 265.606 197.579 263.509 195.205C261.412 192.815 258.388 191.45 255.218 191.45Z" fill="black"/>
<path d="M147.782 144.486C145.782 144.486 143.864 143.624 142.531 142.113C141.198 140.601 140.58 138.601 140.84 136.602L142.742 121.467C143.181 117.972 146.172 115.339 149.7 115.339C151.553 115.339 153.309 116.07 154.642 117.387L167.874 130.62C169.776 132.522 170.426 135.285 169.549 137.837C168.671 140.39 166.476 142.178 163.794 142.519L148.66 144.421C148.367 144.454 148.074 144.47 147.782 144.47V144.486Z" fill="#2DAF37"/>
<path d="M149.716 119.419C150.448 119.419 151.179 119.696 151.781 120.281L165.013 133.513C166.736 135.236 165.728 138.195 163.306 138.504L148.172 140.406C148.042 140.406 147.928 140.422 147.798 140.422C146.059 140.422 144.661 138.894 144.888 137.122L146.79 121.988C146.985 120.395 148.334 119.419 149.716 119.419ZM149.716 111.291C144.14 111.291 139.41 115.453 138.727 120.98L136.809 136.098C136.419 139.252 137.394 142.422 139.491 144.795C141.588 147.185 144.612 148.55 147.782 148.55C148.237 148.55 148.708 148.518 149.18 148.469L164.314 146.567C168.541 146.03 172.02 143.202 173.401 139.17C174.783 135.139 173.775 130.766 170.752 127.759L157.519 114.526C155.422 112.429 152.659 111.275 149.716 111.275V111.291Z" fill="black"/>
</g>
<path d="M108.72 350.2C94.96 350.2 86.64 343.56 83.36 334.28L95.44 328.44C98.24 335 102.64 337.96 108.72 337.96C114.72 337.96 118.4 334.76 118.4 329.16C118.4 323.72 116.16 319.4 105.84 319.4H96.16V307.88H106.16C115.2 307.56 116.4 303.64 116.4 299.16C116.4 294.84 113.12 292.12 108.72 292.12C104 292.12 100.96 294.76 99.44 299.56L86.88 294.6C89.92 286.12 97.44 280.04 109.04 280.04C121.44 280.04 130.4 287.32 130.4 298.6C130.4 306.04 126.8 311.24 120.16 313V313.4C127.84 315.08 132.56 321.88 132.56 329.48V331.24C132.56 343.16 122.72 350.2 108.72 350.2Z" fill="#2DAF37"/>
<path d="M186.279 298.682V322.951H181.529V298.682H186.279ZM187.17 328.035V331.82H163.643V320.502H168.43V328.035H187.17ZM167.762 300.834C172.957 300.834 177.002 304.396 177.002 309.332C177.002 314.379 172.957 317.904 167.762 317.904C162.566 317.904 158.521 314.379 158.521 309.332C158.521 304.396 162.566 300.834 167.762 300.834ZM167.762 304.953C165.127 304.916 163.123 306.586 163.16 309.332C163.123 312.152 165.127 313.785 167.762 313.785C170.322 313.785 172.326 312.152 172.326 309.332C172.326 306.586 170.322 304.916 167.762 304.953ZM217.407 298.682V323.359H212.694V312.338H206.645V308.441H212.694V298.682H217.407ZM206.942 301.168C206.942 310.223 201.19 316.902 191.319 319.982L189.389 316.234C196.384 314.045 200.893 310.019 201.784 305.027H191.133V301.168H206.942ZM218.26 328.035V331.82H195.141V320.873H199.965V328.035H218.26ZM248.163 298.645V332.488H243.376V298.645H248.163ZM226.305 301.316V309.555H233.579V301.316H238.255V324.584H221.555V301.316H226.305ZM226.305 320.762H233.579V313.229H226.305V320.762ZM276.982 299.943V303.729H270.265C270.395 307.105 272.844 310.631 277.984 312.115L275.795 315.863C271.991 314.769 269.375 312.523 267.89 309.703C266.35 312.82 263.604 315.381 259.689 316.568L257.388 312.895C262.676 311.206 265.311 307.31 265.515 303.729H258.687V299.943H276.982ZM286.148 298.645V315.826H281.435V309.332H276.129V305.584H281.435V298.645H286.148ZM286.148 317.125V326.254H268.447V328.406H287.15V332.08H263.697V322.803H281.435V320.873H263.66V317.125H286.148ZM315.42 298.645V306.029H319.984V309.926H315.42V317.533H310.67V298.645H315.42ZM305.957 300.611C305.92 309.555 300.279 315.604 290.148 318.275L288.256 314.527C295.826 312.653 300.001 308.905 300.799 304.396H289.926V300.611H305.957ZM315.42 318.795V332.006H293.34V318.795H315.42ZM298.053 322.617V328.295H310.744V322.617H298.053Z" fill="#2DAF37"/>
<defs>
<clipPath id="clip0_2002_1986">
<rect width="130" height="130" fill="white" transform="translate(136.5 105)"/>
</clipPath>
</defs>
</svg>
