<svg width="240" height="420" viewBox="0 0 240 420" fill="none" xmlns="http://www.w3.org/2000/svg">
<rect x="1" y="1" width="238" height="418" fill="black"/>
<rect x="1" y="1" width="238" height="418" stroke="#C7DA01" stroke-width="2"/>
<g clip-path="url(#clip0_123_2255)">
<path d="M153.075 89.925H111.241V119.916H130.561V132.005L143.735 119.916H153.075V89.925Z" fill="black"/>
<path d="M131.862 133.422L128.636 132.005V121.841H111.241L109.316 119.916V89.925L111.241 88H153.075L155 89.925V119.916L153.075 121.841H144.482L131.862 133.422ZM113.166 117.991H130.56L132.485 119.916V127.624L142.434 118.499L143.735 117.991H151.15V91.85H113.166V117.991Z" fill="#E2E2E2"/>
<path d="M107.645 127.878C103.826 127.878 100.238 126.392 97.5431 123.689C91.9684 118.114 91.9684 109.052 97.5431 103.477C100.246 100.774 103.834 99.2881 107.653 99.2881C111.472 99.2881 115.06 100.774 117.755 103.477C123.33 109.052 123.33 118.114 117.755 123.689C115.053 126.384 111.465 127.878 107.653 127.878H107.645Z" fill="black"/>
<path d="M107.646 122.103C112.349 122.103 116.162 118.29 116.162 113.587C116.162 108.884 112.349 105.071 107.646 105.071C102.942 105.071 99.1294 108.884 99.1294 113.587C99.1294 118.29 102.942 122.103 107.646 122.103Z" fill="black"/>
<path d="M107.645 124.028C104.974 124.028 102.294 123.012 100.261 120.971C96.188 116.898 96.188 110.276 100.261 106.203C104.335 102.129 110.956 102.129 115.03 106.203C119.103 110.276 119.103 116.898 115.03 120.971C112.997 123.004 110.317 124.028 107.645 124.028ZM107.645 106.996C105.959 106.996 104.273 107.635 102.987 108.921C100.415 111.492 100.415 115.674 102.987 118.245C105.559 120.817 109.74 120.817 112.312 118.245C114.883 115.674 114.883 111.492 112.312 108.921C111.026 107.635 109.339 106.996 107.653 106.996H107.645Z" fill="white"/>
<path d="M86.8789 152.294L90.1129 137.834C91.1062 133.383 95.0639 130.219 99.6223 130.219H115.661C120.22 130.219 124.177 133.383 125.171 137.834L128.405 152.294" fill="black"/>
<path d="M126.533 152.71L123.3 138.25C122.491 134.654 119.357 132.136 115.669 132.136H99.63C95.9417 132.136 92.8001 134.646 91.9993 138.25L88.7654 152.71L85.0078 151.871L88.2418 137.41C89.443 132.044 94.1245 128.286 99.63 128.286H115.669C121.174 128.286 125.856 132.036 127.057 137.41L130.291 151.871L126.533 152.71Z" fill="white"/>
<path d="M133.317 112.647H126.256V108.798H133.317C133.817 108.798 134.218 108.389 134.218 107.897C134.218 107.404 133.81 106.996 133.317 106.996H131.007C128.389 106.996 126.256 104.863 126.256 102.245C126.256 99.6269 128.389 97.494 131.007 97.494H138.068V101.344H131.007C130.506 101.344 130.106 101.752 130.106 102.245C130.106 102.738 130.514 103.146 131.007 103.146H133.317C135.935 103.146 138.068 105.279 138.068 107.897C138.068 110.515 135.935 112.647 133.317 112.647Z" fill="#C7DA01"/>
<path d="M134.087 108.798H130.237V115.319H134.087V108.798Z" fill="#C7DA01"/>
<path d="M134.087 94.8144H130.237V101.336H134.087V94.8144Z" fill="#C7DA01"/>
</g>
<path d="M55.8018 183.961H61.9775L68.6514 200.264H68.917L75.5908 183.961H81.7666V208H76.9189V192.262H76.7197L70.4443 207.9H67.124L60.8486 192.195H60.6494V208H55.8018V183.961ZM88.135 208H82.7561L91.09 183.961H97.4982L105.799 208H100.453L98.6604 202.455H89.9611L88.135 208ZM91.2229 198.57H97.3986L94.3771 189.373H94.2111L91.2229 198.57ZM106.822 208V183.961H116.251C121.73 183.961 124.851 187.049 124.851 191.797C124.851 195.084 123.34 197.475 120.601 198.637L125.714 208H120.203L115.621 199.467H111.802V208H106.822ZM111.802 195.416H115.322C118.277 195.416 119.704 194.188 119.704 191.797C119.704 189.373 118.277 188.045 115.322 188.045H111.802V195.416ZM125.674 188.078V183.961H145.364V188.078H137.993V208H133.046V188.078H125.674ZM146.752 208V183.961H151.732V203.883H162.092V208H146.752ZM184.663 195.98C184.663 203.816 179.782 208.332 173.44 208.332C167.032 208.332 162.185 203.783 162.185 195.98C162.185 188.145 167.032 183.629 173.44 183.629C179.782 183.629 184.663 188.145 184.663 195.98ZM179.583 195.98C179.583 190.834 177.159 188.045 173.44 188.045C169.722 188.045 167.265 190.834 167.265 195.98C167.265 201.127 169.722 203.916 173.44 203.916C177.159 203.916 179.583 201.127 179.583 195.98ZM117.762 231.84V262.055H113.545V231.84H117.762ZM92.4945 253.521C94.8021 253.505 97.4418 253.505 100.198 253.422V250.865C96.8773 250.284 94.7191 248.226 94.7523 245.387C94.7191 242 97.807 239.709 102.256 239.709C106.739 239.709 109.86 242 109.86 245.387C109.86 248.209 107.702 250.268 104.381 250.865V253.289C106.905 253.173 109.461 252.974 111.885 252.658L112.184 255.779C105.577 256.908 98.4379 256.975 93.059 256.975L92.4945 253.521ZM111.454 235.193V238.514H93.0922V235.193H100.198V231.973H104.414V235.193H111.454ZM102.256 242.93C100.198 242.93 98.7367 243.826 98.7699 245.387C98.7367 246.98 100.198 247.844 102.256 247.844C104.381 247.844 105.809 246.98 105.809 245.387C105.809 243.826 104.381 242.93 102.256 242.93ZM145.646 231.873V254.684H141.396V252.293H135.619V249.404H141.396V231.873H145.646ZM146.31 258.137V261.523H123.798V252.492H128.015V248.475C125.309 248.591 122.736 248.607 120.445 248.607L119.947 245.254C125.492 245.221 132.962 245.154 139.337 244.357L139.57 247.379C137.179 247.777 134.706 248.06 132.265 248.242V253.986H128.015V258.137H146.31ZM129.775 232.902C134.158 232.869 137.312 235.094 137.312 238.314C137.312 241.535 134.158 243.627 129.775 243.627C125.293 243.627 122.171 241.535 122.171 238.314C122.171 235.094 125.259 232.869 129.775 232.902ZM129.775 235.99C127.617 235.99 126.156 236.82 126.189 238.314C126.156 239.775 127.617 240.572 129.775 240.572C131.8 240.572 133.261 239.775 133.295 238.314C133.261 236.82 131.8 235.99 129.775 235.99Z" fill="white"/>
<path d="M71.2025 291.324V293.516H65.6381V295.471H73.2221V297.662H55.3471V295.471H62.9096V293.516H57.6029V286.727H60.3314V291.324H71.2025ZM64.2416 298.715C68.474 298.715 71.0307 300.047 71.0521 302.346C71.0307 304.645 68.474 305.977 64.2416 305.977C59.9662 305.977 57.3881 304.645 57.3881 302.346C57.3881 300.047 59.9662 298.715 64.2416 298.715ZM64.2416 300.82C61.5346 300.799 60.1596 301.293 60.1811 302.346C60.1596 303.355 61.5346 303.893 64.2416 303.893C66.8842 303.893 68.2807 303.355 68.3021 302.346C68.2807 301.293 66.8842 300.799 64.2416 300.82ZM91.0928 296.051V298.221H83.5088V299.918H88.9229V305.955H86.1943V302.088H75.2373V299.918H80.8018V298.221H73.2607V296.051H91.0928ZM83.5088 286.447V288.209H89.374V290.336H83.7236C84.0352 291.743 86.0225 293.011 90.2979 293.301L89.46 295.342C85.8721 295.095 83.3799 294.063 82.1553 292.484C80.9199 294.063 78.4277 295.095 74.8506 295.342L74.0127 293.301C78.2666 293.011 80.2539 291.743 80.5869 290.336H74.9795V288.209H80.8018V286.447H83.5088ZM98.3932 289.777C98.3717 292.27 99.7896 294.697 102.969 295.729L101.53 297.877C99.3922 297.157 97.9205 295.75 97.0826 293.967C96.2018 295.933 94.6441 297.469 92.3775 298.242L90.8521 296.072C94.1822 295.041 95.6217 292.42 95.6432 289.756V287.629H98.3932V289.777ZM106.686 286.426V292.076H109.329V294.396H106.686V300.756H103.936V286.426H106.686ZM107.417 303.441V305.633H93.9889V299.338H96.7818V303.441H107.417ZM126.92 294.182V296.352H119.358V297.598H124.75V302.604H113.858V303.785H125.266V305.848H111.172V300.67H122.043V299.66H111.151V297.598H116.608V296.352H109.088V294.182H126.92ZM124.664 286.984V293.15H111.301V286.984H124.664ZM113.987 289.111V291.045H121.936V289.111H113.987ZM148.804 295.299V297.512H141.242V298.951C144.647 299.209 146.656 300.434 146.677 302.453C146.656 304.709 144.099 305.977 139.867 305.977C135.57 305.977 133.013 304.709 133.013 302.453C133.013 300.423 135.043 299.198 138.513 298.951V297.512H130.972V295.299H148.804ZM139.867 300.971C137.16 300.992 135.785 301.465 135.806 302.453C135.785 303.398 137.16 303.914 139.867 303.914C142.509 303.914 143.906 303.398 143.927 302.453C143.906 301.465 142.509 300.992 139.867 300.971ZM147.193 287.264V289.412H141.886C142.348 290.787 144.335 292.108 148.052 292.42L147.085 294.568C143.401 294.214 140.909 292.817 139.867 290.916C138.835 292.817 136.386 294.214 132.669 294.568L131.767 292.42C135.387 292.108 137.385 290.776 137.89 289.412H132.605V287.264H147.193ZM165.257 286.447V297.469H162.507V286.447H165.257ZM165.257 298.371V305.762H152.151V298.371H165.257ZM154.858 300.541V303.57H162.571V300.541H154.858ZM156.384 289.047C156.362 291.432 157.802 293.688 160.96 294.676L159.628 296.76C157.394 296.104 155.847 294.751 154.966 293C154.074 294.901 152.484 296.405 150.153 297.125L148.821 294.977C152.087 293.988 153.526 291.496 153.526 289.047V287.156H156.384V289.047ZM183.751 286.426V305.977H181.129V286.426H183.751ZM179.669 286.705V305.074H177.09V295.836H175.522C175.264 299.682 173.631 302.002 171.225 302.002C168.647 302.002 166.971 299.295 166.971 294.891C166.971 290.508 168.647 287.822 171.225 287.822C173.578 287.822 175.189 290.014 175.501 293.666H177.09V286.705H179.669ZM171.225 290.4C170.129 290.4 169.485 291.904 169.506 294.891C169.485 297.898 170.129 299.381 171.225 299.359C172.342 299.381 173.008 297.898 173.008 294.891C173.008 291.904 172.342 290.4 171.225 290.4ZM30.4939 317.273V330.207H21.1053V317.273H30.4939ZM23.8123 319.422V328.037H27.7654V319.422H23.8123ZM35.908 315.426V322.795H38.7869V325.072H35.908V334.977H33.158V315.426H35.908ZM54.3373 325.523V327.693H40.5014V316.865H54.1869V319.078H43.2943V321.141H53.7357V323.289H43.2943V325.523H54.3373ZM56.2924 330.465V332.699H38.3959V330.465H56.2924ZM75.7916 315.383V319.637H78.4342V321.828H75.7916V325.975H73.0416V315.383H75.7916ZM75.7916 326.77V331.711H65.5436V332.828H76.3502V334.848H62.858V329.842H73.0631V328.746H62.815V326.77H75.7916ZM71.8814 316.887V318.971H60.2799V316.887H64.7271V315.297H67.4557V316.887H71.8814ZM66.0807 319.443C69.0025 319.443 70.8932 320.689 70.8932 322.645C70.8932 324.643 69.0025 325.846 66.0807 325.846C63.1588 325.846 61.2252 324.643 61.2252 322.645C61.2252 320.689 63.1588 319.443 66.0807 319.443ZM66.0807 321.377C64.7271 321.377 63.8893 321.828 63.9107 322.645C63.8893 323.482 64.7271 323.891 66.0807 323.891C67.4342 323.891 68.2936 323.482 68.2936 322.645C68.2936 321.828 67.4342 321.377 66.0807 321.377ZM94.5646 315.447V329.498H91.8146V315.447H94.5646ZM95.0803 332.441V334.633H81.4592V328.08H84.2307V332.441H95.0803ZM83.8439 316.693C86.8518 316.693 89.1936 318.756 89.1936 321.613C89.1936 324.535 86.8518 326.576 83.8439 326.576C80.8361 326.576 78.4943 324.535 78.4943 321.613C78.4943 318.756 80.8361 316.693 83.8439 316.693ZM83.8439 319.078C82.3186 319.057 81.1584 320.023 81.1799 321.613C81.1584 323.246 82.3186 324.191 83.8439 324.191C85.3264 324.191 86.4865 323.246 86.4865 321.613C86.4865 320.023 85.3264 319.057 83.8439 319.078ZM116.556 315.426V327.027H113.828V322.408H110.777V320.195H113.828V315.426H116.556ZM109.874 327.457C114.042 327.479 116.599 328.854 116.621 331.238C116.599 333.602 114.042 334.998 109.874 334.998C105.706 334.998 103.15 333.602 103.15 331.238C103.15 328.854 105.706 327.479 109.874 327.457ZM109.874 329.562C107.275 329.562 105.878 330.1 105.878 331.238C105.878 332.355 107.275 332.914 109.874 332.914C112.474 332.914 113.892 332.355 113.892 331.238C113.892 330.1 112.474 329.562 109.874 329.562ZM111.357 316.607V318.799H107.468C107.533 321.076 108.908 323.375 111.958 324.385L110.605 326.533C108.446 325.835 106.963 324.417 106.115 322.645C105.245 324.643 103.687 326.254 101.367 327.049L99.9486 324.879C103.161 323.805 104.6 321.248 104.675 318.799H100.744V316.607H111.357ZM135.888 330.465V332.699H117.991V330.465H125.532V326.855H119.882V316.672H122.632V319.701H131.161V316.672H133.89V326.855H128.261V330.465H135.888ZM122.632 324.664H131.161V321.893H122.632V324.664ZM156.783 315.426V334.977H154.184V315.426H156.783ZM152.787 315.748V334.074H150.209V324.342H147.631V322.129H150.209V315.748H152.787ZM146.063 320.668C146.063 323.912 147.072 327.199 149.93 328.832L148.319 330.852C146.578 329.82 145.429 328.069 144.774 325.975C144.097 328.252 142.915 330.186 141.121 331.281L139.467 329.262C142.346 327.5 143.42 323.977 143.42 320.668V319.615H140.219V317.424H149.028V319.615H146.063V320.668ZM166.597 327.607C170.873 327.607 173.558 328.961 173.58 331.303C173.558 333.602 170.873 334.977 166.597 334.977C162.365 334.977 159.637 333.602 159.637 331.303C159.637 328.961 162.365 327.607 166.597 327.607ZM166.597 329.648C163.912 329.648 162.365 330.207 162.365 331.303C162.365 332.355 163.912 332.893 166.597 332.893C169.283 332.893 170.851 332.355 170.851 331.303C170.851 330.207 169.283 329.648 166.597 329.648ZM173.472 316.307V317.896C173.472 319.443 173.472 321.119 172.914 323.139L170.228 322.881C170.658 321.108 170.712 319.787 170.744 318.455H159.83V316.307H173.472ZM175.578 324.148V326.361H157.832V324.148H164.492V320.732H167.199V324.148H175.578ZM183.003 333H179.522L184.915 317.445H189.062L194.433 333H190.974L189.813 329.412H184.185L183.003 333ZM185.001 326.898H188.997L187.042 320.947H186.935L185.001 326.898ZM195.094 333V317.445H201.196C204.741 317.445 206.76 319.615 206.76 322.688C206.76 325.803 204.698 327.93 201.11 327.93H198.317V333H195.094ZM198.317 325.33H200.594C202.506 325.33 203.43 324.256 203.43 322.688C203.43 321.141 202.506 320.088 200.594 320.088H198.317V325.33ZM207.701 333V317.445H213.803C217.348 317.445 219.367 319.615 219.367 322.688C219.367 325.803 217.305 327.93 213.717 327.93H210.924V333H207.701ZM210.924 325.33H213.201C215.113 325.33 216.037 324.256 216.037 322.688C216.037 321.141 215.113 320.088 213.201 320.088H210.924V325.33Z" fill="#CED4DA"/>
<defs>
<clipPath id="clip0_123_2255">
<rect width="70" height="64.7102" fill="white" transform="translate(85 88)"/>
</clipPath>
</defs>
</svg>
