<svg width="546" height="430" viewBox="0 0 546 430" fill="none" xmlns="http://www.w3.org/2000/svg">
<path d="M6.69075 137.386C15.913 143.721 28.2435 136.887 28.2435 125.448V99.301C28.2435 97.9257 28.2795 96.5609 28.3566 95.2068C30.4168 58.1575 60.2311 28.6752 96.5754 28.6752H320.462C353.051 28.6752 380.389 52.3799 387.176 83.9916C388.584 90.5444 394.22 95.2068 400.714 95.2068C408.508 95.2068 414.616 88.6328 414.616 80.9595C414.616 79.9559 414.514 78.931 414.293 77.9008C404.798 33.3959 366.332 0 320.462 0H96.5754C44.9258 0 2.66276 42.3436 0.581977 95.2068C0.525462 96.5662 0.499756 97.931 0.499756 99.301V125.448C0.499756 130.249 2.82204 134.731 6.69075 137.386Z" fill="#C7DA01"/>
<path d="M539.91 123.198L489.53 79.8025C483.642 74.7312 474.897 75.5543 469.991 81.6398C465.084 87.72 465.881 96.7633 471.769 101.835L494.904 121.758H388.794V330.699C388.794 369.645 358.137 401.325 320.462 401.325H96.5754C58.8387 401.325 28.2435 369.703 28.2435 330.699V306.219C28.2435 294.186 14.7724 287.506 5.69403 295.031C4.05509 296.395 2.75524 298.105 1.86641 300.017C0.977583 301.929 0.499756 304.042 0.499756 306.219V330.699C0.499756 385.543 43.5129 430 96.5754 430H320.462C373.438 430 416.538 385.458 416.538 330.699V150.434H494.904L471.769 170.363C465.881 175.429 465.084 184.472 469.991 190.558C472.734 193.956 476.68 195.714 480.657 195.714C483.786 195.714 486.935 194.625 489.53 192.39L539.915 148.995C543.625 145.792 545.757 141.093 545.757 136.096C545.757 131.099 543.625 126.4 539.91 123.198Z" fill="#C7DA01"/>
</svg>
