<svg width="321" height="500" viewBox="0 0 321 500" fill="none" xmlns="http://www.w3.org/2000/svg">
<g opacity="0.3">
<rect x="1.66675" y="1" width="318" height="498" fill="#C7DA01"/>
<rect x="1.66675" y="1" width="318" height="498" stroke="#C7DA01" stroke-width="2"/>
<path d="M85.1394 205.719H92.405L100.257 224.898H100.569L108.421 205.719H115.686V234H109.983V215.484H109.749L102.366 233.883H98.4597L91.0769 215.406H90.8425V234H85.1394V205.719ZM123.178 234H116.85L126.655 205.719H134.194L143.96 234H137.671L135.561 227.477H125.327L123.178 234ZM126.811 222.906H134.077L130.522 212.086H130.327L126.811 222.906ZM145.163 234V205.719H156.257C162.702 205.719 166.374 209.352 166.374 214.938C166.374 218.805 164.596 221.617 161.374 222.984L167.389 234H160.905L155.514 223.961H151.022V234H145.163ZM151.022 219.195H155.163C158.639 219.195 160.319 217.75 160.319 214.938C160.319 212.086 158.639 210.523 155.163 210.523H151.022V219.195ZM167.343 210.562V205.719H190.507V210.562H181.835V234H176.014V210.562H167.343ZM192.139 234V205.719H197.999V229.156H210.186V234H192.139ZM236.741 219.859C236.741 229.078 230.999 234.391 223.538 234.391C215.999 234.391 210.296 229.039 210.296 219.859C210.296 210.641 215.999 205.328 223.538 205.328C230.999 205.328 236.741 210.641 236.741 219.859ZM230.764 219.859C230.764 213.805 227.913 210.523 223.538 210.523C219.163 210.523 216.272 213.805 216.272 219.859C216.272 225.914 219.163 229.195 223.538 229.195C227.913 229.195 230.764 225.914 230.764 219.859ZM93.8894 265.406V288.922H76.8191V265.406H93.8894ZM81.741 269.312V284.977H88.9285V269.312H81.741ZM103.733 262.047V275.445H108.968V279.586H103.733V297.594H98.7332V262.047H103.733ZM137.241 280.406V284.352H112.085V264.664H136.968V268.688H117.163V272.438H136.147V276.344H117.163V280.406H137.241ZM140.796 289.391V293.453H108.257V289.391H140.796ZM176.093 262.047V275.68H181.132V279.781H176.093V297.516H171.093V262.047H176.093ZM166.6 265.68C166.561 276.305 162.421 285.523 150.468 291.383L147.655 287.555C156.073 283.336 160.585 277.672 161.522 269.742H149.686V265.68H166.6ZM211.163 262.086V283.414H206.436V274.664H203.468V282.32H198.819V262.711H203.468V270.602H206.436V262.086H211.163ZM196.007 265.094V280.836H181.866V265.094H196.007ZM186.553 268.922V277.125H191.358V268.922H186.553ZM199.014 284.039C206.514 284.039 211.319 286.578 211.358 290.758C211.319 295.016 206.514 297.594 199.014 297.594C191.475 297.594 186.71 295.016 186.71 290.758C186.71 286.578 191.475 284.039 199.014 284.039ZM199.014 287.828C194.366 287.867 191.671 288.844 191.71 290.758C191.671 292.789 194.366 293.805 199.014 293.805C203.624 293.805 206.319 292.789 206.319 290.758C206.319 288.844 203.624 287.867 199.014 287.828ZM243.147 262.047V282.594H238.186V274.312H232.561V270.25H238.186V262.047H243.147ZM243.147 284.078V297.203H219.241V284.078H243.147ZM224.241 287.984V293.219H238.264V287.984H224.241ZM233.694 263.844V267.867H226.624C226.702 271.91 229.221 276.227 234.788 278.062L232.327 282.008C228.382 280.699 225.667 278.121 224.124 274.898C222.542 278.453 219.71 281.285 215.53 282.633L212.991 278.727C218.733 276.891 221.409 272.359 221.546 267.867H214.397V263.844H233.694Z" fill="black"/>
</g>
<g opacity="0.5">
<rect x="21.6667" y="21" width="278" height="458" fill="#C7DA01"/>
<rect x="21.6667" y="21" width="278" height="458" stroke="#C7DA01" stroke-width="2"/>
<path d="M85.1394 205.719H92.405L100.257 224.898H100.569L108.421 205.719H115.686V234H109.983V215.484H109.749L102.366 233.883H98.4597L91.0769 215.406H90.8425V234H85.1394V205.719ZM123.178 234H116.85L126.655 205.719H134.194L143.96 234H137.671L135.561 227.477H125.327L123.178 234ZM126.811 222.906H134.077L130.522 212.086H130.327L126.811 222.906ZM145.163 234V205.719H156.257C162.702 205.719 166.374 209.352 166.374 214.938C166.374 218.805 164.596 221.617 161.374 222.984L167.389 234H160.905L155.514 223.961H151.022V234H145.163ZM151.022 219.195H155.163C158.639 219.195 160.319 217.75 160.319 214.938C160.319 212.086 158.639 210.523 155.163 210.523H151.022V219.195ZM167.343 210.562V205.719H190.507V210.562H181.835V234H176.014V210.562H167.343ZM192.139 234V205.719H197.999V229.156H210.186V234H192.139ZM236.741 219.859C236.741 229.078 230.999 234.391 223.538 234.391C215.999 234.391 210.296 229.039 210.296 219.859C210.296 210.641 215.999 205.328 223.538 205.328C230.999 205.328 236.741 210.641 236.741 219.859ZM230.764 219.859C230.764 213.805 227.913 210.523 223.538 210.523C219.163 210.523 216.272 213.805 216.272 219.859C216.272 225.914 219.163 229.195 223.538 229.195C227.913 229.195 230.764 225.914 230.764 219.859ZM93.8894 265.406V288.922H76.8191V265.406H93.8894ZM81.741 269.312V284.977H88.9285V269.312H81.741ZM103.733 262.047V275.445H108.968V279.586H103.733V297.594H98.7332V262.047H103.733ZM137.241 280.406V284.352H112.085V264.664H136.968V268.688H117.163V272.438H136.147V276.344H117.163V280.406H137.241ZM140.796 289.391V293.453H108.257V289.391H140.796ZM176.093 262.047V275.68H181.132V279.781H176.093V297.516H171.093V262.047H176.093ZM166.6 265.68C166.561 276.305 162.421 285.523 150.468 291.383L147.655 287.555C156.073 283.336 160.585 277.672 161.522 269.742H149.686V265.68H166.6ZM211.163 262.086V283.414H206.436V274.664H203.468V282.32H198.819V262.711H203.468V270.602H206.436V262.086H211.163ZM196.007 265.094V280.836H181.866V265.094H196.007ZM186.553 268.922V277.125H191.358V268.922H186.553ZM199.014 284.039C206.514 284.039 211.319 286.578 211.358 290.758C211.319 295.016 206.514 297.594 199.014 297.594C191.475 297.594 186.71 295.016 186.71 290.758C186.71 286.578 191.475 284.039 199.014 284.039ZM199.014 287.828C194.366 287.867 191.671 288.844 191.71 290.758C191.671 292.789 194.366 293.805 199.014 293.805C203.624 293.805 206.319 292.789 206.319 290.758C206.319 288.844 203.624 287.867 199.014 287.828ZM243.147 262.047V282.594H238.186V274.312H232.561V270.25H238.186V262.047H243.147ZM243.147 284.078V297.203H219.241V284.078H243.147ZM224.241 287.984V293.219H238.264V287.984H224.241ZM233.694 263.844V267.867H226.624C226.702 271.91 229.221 276.227 234.788 278.062L232.327 282.008C228.382 280.699 225.667 278.121 224.124 274.898C222.542 278.453 219.71 281.285 215.53 282.633L212.991 278.727C218.733 276.891 221.409 272.359 221.546 267.867H214.397V263.844H233.694Z" fill="black"/>
</g>
<rect x="41.6667" y="41" width="238" height="418" fill="#C7DA01"/>
<rect x="41.6667" y="41" width="238" height="418" stroke="#C7DA01" stroke-width="2"/>
<g clip-path="url(#clip0_123_2287)">
<path d="M188.832 225.597H131.835C130.697 225.597 129.772 224.673 129.772 223.535V188.914C129.772 187.776 130.697 186.851 131.835 186.851H188.832C189.97 186.851 190.895 187.776 190.895 188.914V223.535C190.895 224.673 189.97 225.597 188.832 225.597ZM133.898 221.472H186.769V190.977H133.898V221.472Z" fill="black"/>
<path d="M127.396 182.149H140.565V188.122C140.565 191.752 137.611 194.706 133.98 194.706C130.35 194.706 127.396 191.752 127.396 188.122V182.149Z" fill="white"/>
<path d="M133.98 196.769C129.211 196.769 125.333 192.875 125.333 188.106V182.132C125.333 181.01 126.258 180.086 127.396 180.086H140.565C141.703 180.086 142.627 181.01 142.627 182.149V188.122C142.627 192.891 138.749 196.769 133.98 196.769ZM129.459 184.211V188.122C129.459 190.614 131.489 192.644 133.98 192.644C136.472 192.644 138.502 190.614 138.502 188.122V184.211H129.459Z" fill="black"/>
<path d="M140.564 182.149H153.733V188.122C153.733 191.752 150.779 194.706 147.149 194.706C143.518 194.706 140.564 191.752 140.564 188.122V182.149Z" fill="white"/>
<path d="M147.149 196.769C142.38 196.769 138.502 192.891 138.502 188.122V182.149C138.502 181.01 139.426 180.086 140.564 180.086H153.733C154.871 180.086 155.795 181.01 155.795 182.149V188.122C155.795 192.891 151.918 196.769 147.149 196.769ZM142.627 184.211V188.122C142.627 190.614 144.657 192.644 147.149 192.644C149.64 192.644 151.67 190.614 151.67 188.122V184.211H142.627Z" fill="black"/>
<path d="M153.749 182.149H166.918V188.122C166.918 191.752 163.964 194.706 160.334 194.706C156.703 194.706 153.749 191.752 153.749 188.122V182.149Z" fill="white"/>
<path d="M160.334 196.769C155.565 196.769 151.687 192.891 151.687 188.122V182.149C151.687 181.01 152.611 180.086 153.749 180.086H166.918C168.056 180.086 168.98 181.01 168.98 182.149V188.122C168.98 192.891 165.102 196.769 160.334 196.769ZM155.812 184.211V188.122C155.812 190.614 157.842 192.644 160.334 192.644C162.825 192.644 164.855 190.614 164.855 188.122V184.211H155.812Z" fill="black"/>
<path d="M166.918 182.149H180.086V188.122C180.086 191.752 177.132 194.706 173.502 194.706C169.872 194.706 166.918 191.752 166.918 188.122V182.149Z" fill="white"/>
<path d="M173.502 196.769C168.733 196.769 164.855 192.891 164.855 188.122V182.149C164.855 181.01 165.779 180.086 166.918 180.086H180.086C181.225 180.086 182.149 181.01 182.149 182.149V188.122C182.149 192.891 178.271 196.769 173.502 196.769ZM168.98 184.211V188.122C168.98 190.614 171.01 192.644 173.502 192.644C175.994 192.644 178.023 190.614 178.023 188.122V184.211H168.98Z" fill="black"/>
<path d="M180.086 182.149H193.254V188.122C193.254 191.752 190.301 194.706 186.67 194.706C183.04 194.706 180.086 191.752 180.086 188.122V182.149Z" fill="white"/>
<path d="M186.67 196.769C181.901 196.769 178.023 192.891 178.023 188.122V182.149C178.023 181.01 178.947 180.086 180.086 180.086H193.254C194.393 180.086 195.317 181.01 195.317 182.149V188.122C195.317 192.891 191.439 196.769 186.67 196.769ZM182.149 184.211V188.122C182.149 190.614 184.178 192.644 186.67 192.644C189.162 192.644 191.192 190.614 191.192 188.122V184.211H182.149Z" fill="black"/>
<path d="M174.162 204.112H146.505V223.535H174.162V204.112Z" fill="white"/>
<path d="M174.162 225.597H146.505C145.366 225.597 144.442 224.673 144.442 223.535V204.112C144.442 202.974 145.366 202.05 146.505 202.05H174.162C175.3 202.05 176.225 202.974 176.225 204.112V223.535C176.225 224.673 175.3 225.597 174.162 225.597ZM148.568 221.472H172.099V206.175H148.568V221.472Z" fill="black"/>
<path d="M146.505 173.287H137.281L127.396 182.149H140.565L146.505 173.287Z" fill="white"/>
<path d="M140.565 184.211H127.396C126.538 184.211 125.779 183.683 125.466 182.891C125.152 182.099 125.383 181.191 126.01 180.614L135.895 171.752C136.274 171.406 136.769 171.224 137.264 171.224H146.489C147.248 171.224 147.957 171.637 148.304 172.314C148.65 172.99 148.617 173.799 148.205 174.426L142.281 183.287C141.901 183.865 141.258 184.195 140.565 184.195V184.211ZM132.792 180.086H139.475L142.644 175.35H138.073L132.792 180.086Z" fill="black"/>
<path d="M153.749 184.211H140.581C139.822 184.211 139.112 183.799 138.766 183.122C138.419 182.446 138.452 181.637 138.865 181.01L144.789 172.149C145.169 171.571 145.812 171.241 146.505 171.241H155.73C156.357 171.241 156.951 171.521 157.347 172.016C157.743 172.512 157.891 173.139 157.743 173.749L155.763 182.611C155.548 183.551 154.723 184.228 153.749 184.228V184.211ZM144.426 180.086H152.083L153.139 175.35H147.594L144.426 180.086Z" fill="black"/>
<path d="M164.938 173.287H155.713L153.749 182.149H166.918L164.938 173.287Z" fill="white"/>
<path d="M166.918 184.211H153.749C153.122 184.211 152.528 183.931 152.132 183.436C151.736 182.941 151.588 182.314 151.736 181.703L153.716 172.842C153.931 171.901 154.756 171.224 155.73 171.224H164.954C165.928 171.224 166.753 171.901 166.967 172.842L168.947 181.703C169.079 182.314 168.947 182.957 168.551 183.436C168.155 183.931 167.561 184.211 166.934 184.211H166.918ZM156.324 180.086H164.343L163.287 175.35H157.38L156.324 180.086Z" fill="black"/>
<path d="M180.086 184.211H166.918C165.944 184.211 165.119 183.535 164.904 182.594L162.924 173.733C162.792 173.122 162.924 172.479 163.32 172C163.716 171.505 164.31 171.224 164.937 171.224H174.162C174.855 171.224 175.499 171.571 175.878 172.132L181.802 180.993C182.231 181.62 182.264 182.446 181.901 183.106C181.538 183.766 180.845 184.195 180.086 184.195V184.211ZM168.568 180.086H176.225L173.056 175.35H167.512L168.568 180.086Z" fill="black"/>
<path d="M183.386 173.287H174.162L180.086 182.149H193.271L183.386 173.287Z" fill="white"/>
<path d="M193.271 184.211H180.103C179.409 184.211 178.766 183.865 178.386 183.304L172.462 174.442C172.033 173.815 172 172.99 172.363 172.33C172.726 171.67 173.419 171.241 174.178 171.241H183.403C183.914 171.241 184.393 171.422 184.772 171.769L194.657 180.63C195.301 181.208 195.515 182.099 195.202 182.908C194.888 183.7 194.129 184.228 193.271 184.228V184.211ZM181.192 180.086H187.875L182.594 175.35H178.023L181.192 180.086Z" fill="black"/>
<path d="M183.386 175.35H137.281C136.142 175.35 135.218 174.426 135.218 173.287V164.063C135.218 162.924 136.142 162 137.281 162H183.386C184.525 162 185.449 162.924 185.449 164.063V173.287C185.449 174.426 184.525 175.35 183.386 175.35ZM139.343 171.224H181.324V166.125H139.343V171.224Z" fill="black"/>
</g>
<path d="M96.4685 257.961H102.644L109.318 274.264H109.584L116.258 257.961H122.433V282H117.586V266.262H117.386L111.111 281.9H107.791L101.515 266.195H101.316V282H96.4685V257.961ZM128.802 282H123.423L131.757 257.961H138.165L146.466 282H141.12L139.327 276.455H130.628L128.802 282ZM131.89 272.57H138.065L135.044 263.373H134.878L131.89 272.57ZM147.488 282V257.961H156.918C162.397 257.961 165.518 261.049 165.518 265.797C165.518 269.084 164.007 271.475 161.268 272.637L166.381 282H160.869L156.287 273.467H152.469V282H147.488ZM152.469 269.416H155.988C158.944 269.416 160.371 268.188 160.371 265.797C160.371 263.373 158.944 262.045 155.988 262.045H152.469V269.416ZM166.341 262.078V257.961H186.031V262.078H178.66V282H173.712V262.078H166.341ZM187.419 282V257.961H192.399V277.883H202.758V282H187.419ZM225.33 269.98C225.33 277.816 220.449 282.332 214.107 282.332C207.699 282.332 202.851 277.783 202.851 269.98C202.851 262.145 207.699 257.629 214.107 257.629C220.449 257.629 225.33 262.145 225.33 269.98ZM220.25 269.98C220.25 264.834 217.826 262.045 214.107 262.045C210.388 262.045 207.931 264.834 207.931 269.98C207.931 275.127 210.388 277.916 214.107 277.916C217.826 277.916 220.25 275.127 220.25 269.98ZM103.906 308.695V328.684H89.3962V308.695H103.906ZM93.5798 312.016V325.33H99.6892V312.016H93.5798ZM112.273 305.84V317.229H116.722V320.748H112.273V336.055H108.023V305.84H112.273ZM140.755 321.445V324.799H119.372V308.064H140.522V311.484H123.688V314.672H139.825V317.992H123.688V321.445H140.755ZM143.776 329.082V332.535H116.118V329.082H143.776ZM173.779 305.84V317.428H178.062V320.914H173.779V335.988H169.529V305.84H173.779ZM165.71 308.928C165.677 317.959 162.158 325.795 151.997 330.775L149.607 327.521C156.762 323.936 160.597 319.121 161.394 312.381H151.333V308.928H165.71ZM203.588 305.873V324.002H199.571V316.564H197.047V323.072H193.096V306.404H197.047V313.111H199.571V305.873H203.588ZM190.706 308.43V321.811H178.686V308.43H190.706ZM182.67 311.684V318.656H186.754V311.684H182.67ZM193.262 324.533C199.637 324.533 203.721 326.691 203.754 330.244C203.721 333.863 199.637 336.055 193.262 336.055C186.854 336.055 182.803 333.863 182.803 330.244C182.803 326.691 186.854 324.533 193.262 324.533ZM193.262 327.754C189.311 327.787 187.02 328.617 187.053 330.244C187.02 331.971 189.311 332.834 193.262 332.834C197.18 332.834 199.471 331.971 199.471 330.244C199.471 328.617 197.18 327.787 193.262 327.754ZM230.775 305.84V323.305H226.558V316.266H221.777V312.812H226.558V305.84H230.775ZM230.775 324.566V335.723H210.455V324.566H230.775ZM214.705 327.887V332.336H226.625V327.887H214.705ZM222.74 307.367V310.787H216.73C216.797 314.224 218.938 317.893 223.67 319.453L221.578 322.807C218.224 321.694 215.917 319.503 214.605 316.764C213.26 319.785 210.853 322.192 207.301 323.338L205.142 320.018C210.023 318.457 212.298 314.605 212.414 310.787H206.338V307.367H222.74Z" fill="black"/>
<defs>
<clipPath id="clip0_123_2287">
<rect width="70" height="63.5974" fill="white" transform="translate(125.333 162)"/>
</clipPath>
</defs>
</svg>
