<svg width="417" height="430" viewBox="0 0 417 430" fill="none" xmlns="http://www.w3.org/2000/svg">
<path d="M320.924 0H97.0427C62.2962 0 31.7986 19.1592 14.9314 47.7972C11.4686 53.6703 12.604 61.2692 17.5568 65.8573C20.2336 68.3371 23.5576 69.5319 26.8458 69.5319C31.4492 69.5319 35.9807 67.1954 38.5907 62.7508C50.5822 42.3383 72.2942 28.6751 97.0427 28.6751H320.924C358.661 28.6751 389.256 60.2975 389.256 99.301V330.699C389.256 369.702 358.661 401.325 320.924 401.325H97.0427C59.306 401.325 28.7108 369.702 28.7108 330.699V224.574C28.7108 213.168 16.4522 206.328 7.22997 212.584C5.27249 213.906 3.71058 215.701 2.63166 217.761C1.55274 219.822 0.967041 222.158 0.967041 224.574V330.699C0.967041 385.543 43.9802 430 97.0427 430H320.924C373.9 430 417 385.458 417 330.699V99.301C417 44.4571 373.987 0 320.924 0Z" fill="#2DAF37"/>
</svg>
