<svg width="546" height="430" viewBox="0 0 546 430" fill="none" xmlns="http://www.w3.org/2000/svg">
<path d="M6.69075 137.386C15.913 143.721 28.2435 136.887 28.2435 125.448V99.301C28.2435 97.9257 28.2795 96.5609 28.3566 95.2068C30.4168 58.1575 60.2311 28.6752 96.5754 28.6752H320.462C353.051 28.6752 380.389 52.3799 387.176 83.9916C388.584 90.5444 394.22 95.2068 400.714 95.2068C408.508 95.2068 414.616 88.6328 414.616 80.9595C414.616 79.9559 414.514 78.931 414.293 77.9008C404.798 33.3959 366.332 0 320.462 0H96.5754C44.9258 0 2.66276 42.3436 0.581977 95.2068C0.525462 96.5662 0.499756 97.931 0.499756 99.301V125.448C0.499756 130.249 2.82204 134.731 6.69075 137.386Z" fill="#C7DA01"/>
<path d="M539.91 123.198L489.53 79.8025C483.642 74.7312 474.897 75.5543 469.991 81.6398C465.084 87.72 465.881 96.7633 471.769 101.835L494.904 121.758H388.794V330.699C388.794 369.645 358.137 401.325 320.462 401.325H96.5754C58.8387 401.325 28.2435 369.703 28.2435 330.699V306.219C28.2435 294.186 14.7724 287.506 5.69403 295.031C4.05509 296.395 2.75524 298.105 1.86641 300.017C0.977583 301.929 0.499756 304.042 0.499756 306.219V330.699C0.499756 385.543 43.5129 430 96.5754 430H320.462C373.438 430 416.538 385.458 416.538 330.699V150.434H494.904L471.769 170.363C465.881 175.429 465.084 184.472 469.991 190.558C472.734 193.956 476.68 195.714 480.657 195.714C483.786 195.714 486.935 194.625 489.53 192.39L539.915 148.995C543.625 145.792 545.757 141.093 545.757 136.096C545.757 131.099 543.625 126.4 539.91 123.198Z" fill="#C7DA01"/>
<g clip-path="url(#clip0_2002_1985)">
<path d="M245.255 108.324H171.824V212.168H245.255V108.324Z" fill="black"/>
<path d="M248.58 215.492H168.5V105H248.58V215.492ZM175.149 208.843H241.931V111.649H175.149V208.843Z" fill="white"/>
<path d="M222.41 150.399H210.215V143.75H222.41C223.274 143.75 223.965 143.045 223.965 142.194C223.965 141.343 223.261 140.638 222.41 140.638H218.42C213.899 140.638 210.215 136.955 210.215 132.434C210.215 127.912 213.899 124.229 218.42 124.229H230.614V130.878H218.42C217.556 130.878 216.864 131.582 216.864 132.434C216.864 133.285 217.569 133.989 218.42 133.989H222.41C226.931 133.989 230.614 137.673 230.614 142.194C230.614 146.715 226.931 150.399 222.41 150.399Z" fill="white"/>
<path d="M223.739 143.75H217.09V155.013H223.739V143.75Z" fill="white"/>
<path d="M223.739 119.601H217.09V130.864H223.739V119.601Z" fill="white"/>
<path d="M195.934 165.386H189.949V171.37H195.934V165.386Z" fill="#E2E2E2"/>
<path d="M227.144 165.386H202.09V171.37H227.144V165.386Z" fill="#E2E2E2"/>
<path d="M195.934 178.298H189.949V184.282H195.934V178.298Z" fill="#E2E2E2"/>
<path d="M227.144 178.298H202.09V184.282H227.144V178.298Z" fill="#E2E2E2"/>
<path d="M220.721 220.904L244.537 197.088H241.612V183.79H267.25V209.415H253.952V206.489L230.122 230.306L220.721 220.904Z" fill="#C7DA01"/>
<path d="M263.926 187.114V206.09H257.277V198.457L230.136 225.598L225.428 220.891L252.569 193.75H244.936V187.101H263.912M270.574 180.465H238.301V198.644L220.734 216.21L216.027 220.917L220.734 225.625L225.442 230.332L230.149 235.04L234.856 230.332L252.423 212.766H270.601V180.492L270.574 180.465Z" fill="black"/>
</g>
<path d="M114.36 339.16C120.92 331.64 128.28 323 134.12 315.8C140.44 307.88 143.08 303.56 143.08 298.76C143.08 294.92 140.36 292.12 135.96 292.12C130.92 292.12 127.64 295.96 126.28 301.56L113.24 297.88C116.12 287.4 123.56 280.04 135.96 280.04C148.52 280.04 157 287.64 157 297.56V299.32C157 306.76 153.72 312.76 145.4 322.84C141.24 327.88 136.04 333.96 133 337.56C135.56 337.32 140.52 336.76 142.44 336.6H159.56V348.92H114.36V339.16Z" fill="#C7DA01"/>
<path d="M214.281 298.645V332.414H209.754V315.381H206.711V330.855H202.221V299.127H206.711V311.521H209.754V298.645H214.281ZM199.4 302.133V323.916H185.967V302.133H199.4ZM190.383 305.881V320.205H194.984V305.881H190.383ZM246.67 313.043V316.494H233.682V318.609H242.996V326.848H224.182V328.703H243.887V332.191H219.543V323.656H238.321V321.986H219.506V318.609H228.969V316.494H216.018V313.043H246.67ZM233.645 298.607V301.279H243.776V304.768H234.239C235.166 306.734 238.618 308.349 245.446 308.627L244.073 312.115C237.801 311.818 233.459 310.223 231.307 307.662C229.173 310.223 224.813 311.818 218.504 312.115L217.205 308.627C223.978 308.349 227.411 306.734 228.375 304.768H218.913V301.279H228.969V298.607H233.645ZM259.206 303.951C259.206 308.033 261.581 311.967 266.925 313.637L264.401 317.311C260.82 316.123 258.315 313.822 256.868 310.854C255.402 314.268 252.786 316.939 248.927 318.238L246.366 314.527C252.007 312.635 254.419 308.145 254.456 303.506V300.426H259.206V303.951ZM273.679 298.645V306.549H278.243V310.482H273.679V318.684H268.929V298.645H273.679ZM262.62 319.352C269.596 319.352 274.013 321.764 274.013 325.883C274.013 330.039 269.596 332.414 262.62 332.414C255.495 332.414 251.042 330.039 251.042 325.883C251.042 321.764 255.495 319.352 262.62 319.352ZM262.62 323.062C258.167 323.062 255.755 324.027 255.792 325.883C255.755 327.812 258.167 328.703 262.62 328.703C266.999 328.703 269.337 327.812 269.337 325.883C269.337 324.027 266.999 323.062 262.62 323.062ZM295.677 300.277C295.677 303.84 299.611 307.773 307.07 308.627L305.363 312.338C299.611 311.577 295.417 309.109 293.265 305.77C291.075 309.109 286.863 311.559 281.13 312.338L279.349 308.627C286.845 307.773 290.779 303.84 290.816 300.277V299.164H295.677V300.277ZM308.628 314.193V317.904H277.827V314.193H308.628ZM293.191 320.205C300.501 320.205 304.917 322.357 304.954 326.328C304.917 330.225 300.501 332.451 293.191 332.451C285.769 332.451 281.353 330.225 281.353 326.328C281.353 322.357 285.769 320.205 293.191 320.205ZM293.191 323.768C288.515 323.768 286.14 324.584 286.177 326.328C286.14 328.072 288.515 328.852 293.191 328.852C297.755 328.852 300.167 328.072 300.204 326.328C300.167 324.584 297.755 323.768 293.191 323.768Z" fill="#C7DA01"/>
<defs>
<clipPath id="clip0_2002_1985">
<rect width="102.074" height="130" fill="white" transform="translate(168.5 105)"/>
</clipPath>
</defs>
</svg>
