<svg width="546" height="430" viewBox="0 0 546 430" fill="none" xmlns="http://www.w3.org/2000/svg">
<path d="M539.599 202.104L489.201 158.708C483.311 153.637 474.558 154.46 469.655 160.546C464.747 166.626 465.544 175.669 471.428 180.735L494.577 200.665H388.43V238.904C388.43 238.973 388.425 239.042 388.425 239.117V330.703C388.425 334.346 388.158 337.93 387.644 341.424C387.644 341.44 387.644 341.451 387.639 341.467C387.562 341.971 387.479 342.476 387.397 342.975C387.382 343.06 387.371 343.15 387.356 343.235C387.294 343.602 387.222 343.968 387.15 344.334C387.109 344.552 387.068 344.775 387.027 344.993C387.017 345.046 387.007 345.094 386.996 345.147C381.312 373.307 359.346 395.361 331.777 400.294C331.726 400.305 331.68 400.31 331.628 400.321C331.145 400.406 330.657 400.485 330.168 400.56C330.066 400.576 329.963 400.586 329.86 400.602C329.418 400.666 328.981 400.729 328.534 400.788C328.375 400.809 328.215 400.825 328.061 400.846C327.671 400.894 327.28 400.942 326.884 400.979C326.668 401 326.453 401.016 326.232 401.038C325.892 401.069 325.548 401.101 325.209 401.128C324.926 401.149 324.638 401.165 324.356 401.186C324.078 401.202 323.795 401.223 323.518 401.239C323.143 401.261 322.768 401.271 322.387 401.282C322.192 401.287 321.997 401.298 321.801 401.303C321.226 401.319 320.645 401.324 320.064 401.324H96.1092C95.4256 401.324 94.7472 401.308 94.0688 401.292C93.8684 401.287 93.6731 401.276 93.4726 401.271C92.9741 401.25 92.4755 401.229 91.9822 401.197C91.7817 401.186 91.5813 401.17 91.3808 401.16C90.8206 401.122 90.2655 401.075 89.7105 401.022C89.6026 401.011 89.4895 401 89.3816 400.99C87.9682 400.846 86.5702 400.66 85.1826 400.427C85.1363 400.422 85.0952 400.411 85.0489 400.406C65.7757 397.15 49.1802 385.542 38.8857 369.298C38.7469 369.08 38.603 368.868 38.4591 368.661C31.6852 357.695 27.7535 344.674 27.7535 330.703V99.3022C27.7535 60.3566 58.421 28.6755 96.1092 28.6755H320.074C357.824 28.6755 388.43 60.2982 388.43 99.3022V159.489C388.43 167.348 394.438 173.965 402.04 174.113C405.982 174.188 409.549 172.568 412.118 169.913C414.632 167.316 416.184 163.737 416.184 159.776V99.3022C416.184 44.4576 373.156 0 320.074 0H96.1092C43.0281 0 0 44.4576 0 99.3022V330.703C0 379.032 33.4121 419.289 77.6737 428.173C77.6788 428.173 77.6891 428.173 77.6943 428.173C78.6399 428.364 79.5959 428.539 80.5518 428.699C80.6238 428.709 80.6906 428.725 80.7626 428.736C82.7053 429.06 84.6686 429.32 86.6473 429.522C86.8118 429.538 86.9711 429.548 87.1356 429.564C87.9065 429.639 88.6826 429.702 89.4638 429.761C89.7465 429.782 90.0291 429.798 90.3118 429.814C91.0056 429.856 91.7046 429.894 92.4036 429.92C92.6811 429.931 92.9587 429.947 93.2413 429.952C94.1973 429.979 95.1532 430 96.1092 430H320.074C320.892 430 321.709 429.989 322.526 429.968C322.726 429.968 322.922 429.952 323.122 429.947C323.734 429.925 324.351 429.904 324.962 429.872C325.219 429.862 325.471 429.84 325.723 429.824C326.278 429.793 326.833 429.761 327.383 429.713C327.655 429.692 327.928 429.665 328.2 429.639C328.729 429.591 329.259 429.548 329.788 429.49C330.071 429.458 330.348 429.426 330.626 429.394C331.145 429.336 331.664 429.278 332.178 429.209C332.461 429.171 332.738 429.129 333.021 429.092C333.53 429.023 334.039 428.948 334.547 428.869C334.83 428.826 335.113 428.773 335.395 428.725C335.899 428.64 336.403 428.561 336.901 428.465C337.184 428.412 337.461 428.359 337.739 428.3C338.238 428.205 338.736 428.109 339.235 428.003C339.512 427.945 339.79 427.881 340.062 427.823C340.561 427.711 341.054 427.605 341.553 427.488C341.825 427.424 342.092 427.355 342.365 427.286C342.858 427.164 343.357 427.042 343.845 426.909C344.112 426.84 344.379 426.766 344.647 426.691C345.14 426.559 345.633 426.421 346.122 426.277C346.384 426.203 346.641 426.123 346.903 426.044C347.396 425.895 347.884 425.746 348.373 425.592C348.63 425.513 348.882 425.428 349.138 425.343C349.627 425.183 350.115 425.019 350.603 424.849C350.855 424.764 351.102 424.674 351.354 424.583C351.842 424.408 352.33 424.233 352.813 424.052C353.055 423.962 353.296 423.866 353.538 423.776C354.026 423.59 354.514 423.399 354.998 423.203C355.234 423.107 355.465 423.011 355.697 422.916C356.185 422.714 356.673 422.507 357.156 422.3C357.382 422.204 357.608 422.103 357.835 422.002C358.323 421.785 358.811 421.567 359.294 421.344C359.51 421.243 359.726 421.142 359.947 421.036C360.435 420.802 360.923 420.569 361.407 420.33C361.612 420.229 361.823 420.123 362.028 420.016C362.517 419.772 363.005 419.517 363.493 419.262C363.689 419.156 363.889 419.055 364.084 418.949C364.578 418.689 365.066 418.418 365.549 418.147C365.739 418.041 365.924 417.935 366.109 417.829C366.603 417.552 367.091 417.266 367.579 416.979C367.754 416.873 367.934 416.772 368.108 416.666C368.602 416.368 369.095 416.071 369.584 415.763C369.748 415.662 369.912 415.556 370.077 415.455C370.575 415.142 371.069 414.823 371.562 414.499C371.716 414.398 371.866 414.297 372.015 414.196C372.518 413.862 373.012 413.522 373.51 413.177C373.649 413.081 373.783 412.986 373.921 412.89C374.43 412.534 374.929 412.173 375.432 411.807C375.556 411.716 375.679 411.632 375.797 411.541C376.311 411.164 376.815 410.782 377.324 410.394C377.432 410.315 377.534 410.23 377.642 410.15C378.161 409.746 378.675 409.337 379.184 408.929C379.272 408.86 379.359 408.785 379.451 408.716C379.981 408.286 380.5 407.851 381.019 407.41C381.086 407.351 381.158 407.293 381.225 407.235C381.764 406.773 382.299 406.305 382.828 405.833C382.874 405.79 382.921 405.753 382.967 405.711C383.522 405.217 384.067 404.712 384.612 404.202C384.632 404.181 384.653 404.165 384.673 404.144C395.482 393.991 404.044 381.331 409.502 367.062C409.502 367.062 409.502 367.057 409.502 367.052C409.785 366.314 410.057 365.57 410.325 364.821C410.335 364.79 410.345 364.763 410.355 364.731C410.612 364.009 410.859 363.281 411.101 362.554C411.116 362.501 411.137 362.448 411.152 362.395C411.383 361.688 411.609 360.977 411.825 360.26C411.846 360.186 411.866 360.117 411.892 360.042C412.103 359.347 412.303 358.646 412.499 357.945C412.524 357.854 412.55 357.764 412.571 357.668C412.761 356.983 412.941 356.293 413.115 355.603C413.141 355.497 413.167 355.39 413.192 355.284C413.362 354.604 413.521 353.925 413.676 353.245C413.701 353.123 413.732 353.001 413.758 352.879C413.907 352.21 414.051 351.535 414.184 350.861C414.21 350.728 414.236 350.59 414.267 350.457C414.395 349.793 414.524 349.124 414.637 348.455C414.662 348.306 414.688 348.163 414.714 348.014C414.827 347.356 414.935 346.692 415.032 346.028C415.058 345.869 415.079 345.71 415.104 345.55C415.202 344.897 415.289 344.239 415.372 343.58C415.392 343.41 415.413 343.24 415.433 343.076C415.51 342.428 415.582 341.775 415.649 341.122C415.67 340.941 415.685 340.761 415.701 340.585C415.762 339.937 415.819 339.29 415.87 338.642C415.886 338.456 415.901 338.265 415.911 338.079C415.958 337.436 415.999 336.788 416.029 336.141C416.04 335.944 416.05 335.748 416.06 335.556C416.071 335.302 416.091 335.047 416.101 334.792C416.158 333.432 416.184 332.068 416.184 330.698V229.335H494.577L471.428 249.264C465.544 254.33 464.747 263.374 469.655 269.454C472.4 272.858 476.347 274.616 480.32 274.616C483.455 274.616 486.605 273.527 489.201 271.291L517.458 246.96L539.599 227.896C543.315 224.699 545.448 219.994 545.448 214.997C545.448 210 543.315 205.295 539.599 202.099V202.104Z" fill="#D0D6D6"/>
</svg>
