<svg width="97" height="20" viewBox="0 0 97 20" fill="none" xmlns="http://www.w3.org/2000/svg">
<g opacity="0.8">
<path d="M20.9834 20.0001L23.3334 17.6501L15.7001 10.0001L23.3334 2.35009L20.9834 9.15527e-05L10.9834 10.0001L20.9834 20.0001Z" fill="#C7DA01"/>
<path d="M10 20L12.35 17.65L4.71667 10L12.35 2.35L10 0L0 10L10 20Z" fill="#C7DA01"/>
<circle cx="33.3333" cy="10" r="5" fill="#C7DA01"/>
<circle cx="48.3333" cy="10" r="5" fill="#C7DA01"/>
<circle cx="63.3333" cy="10" r="5" fill="#C7DA01"/>
<path d="M75.6834 20.0001L73.3334 17.6501L80.9667 10.0001L73.3334 2.35009L75.6834 9.15527e-05L85.6833 10.0001L75.6834 20.0001Z" fill="#C7DA01"/>
<path d="M86.6667 20L84.3167 17.65L91.9501 10L84.3167 2.35L86.6667 0L96.6667 10L86.6667 20Z" fill="#C7DA01"/>
</g>
</svg>
