<svg width="561" height="968" viewBox="0 0 561 968" fill="none" xmlns="http://www.w3.org/2000/svg">
<g filter="url(#filter0_diii_123_2739)">
<rect x="2.50781" y="33.999" width="391.244" height="800" rx="50.1567" fill="url(#paint0_linear_123_2739)"/>
</g>
<g filter="url(#filter1_bi_123_2739)">
<rect x="1.67188" y="33.999" width="392.059" height="800" rx="50.1567" fill="#1A1A1A"/>
</g>
<rect x="383.699" y="756.256" width="2.50784" height="10.0313" transform="rotate(-90 383.699 756.256)" fill="#232323"/>
<rect x="383.699" y="118.43" width="2.50784" height="10.0313" transform="rotate(-90 383.699 118.43)" fill="#1D1D1D"/>
<rect x="11.7034" y="47.3738" width="371.996" height="774.086" rx="41.7973" fill="black"/>
<mask id="mask0_123_2739" style="mask-type:alpha" maskUnits="userSpaceOnUse" x="15" y="48" width="367" height="772">
<rect x="15.0471" y="48.9133" width="366.144" height="771.007" rx="38.7187" fill="white"/>
</mask>
<g mask="url(#mask0_123_2739)">
<g clip-path="url(#clip0_123_2739)">
<rect width="366.144" height="813.654" transform="translate(15.0471 49.0465)" fill="#F2F2F2"/>
<rect x="15.0471" y="49.0465" width="366.144" height="813.654" fill="white"/>
<path d="M110.37 796.586H109.115V782.426H110.37V796.586ZM102.853 783.523C103.553 783.523 104.175 783.724 104.721 784.127C105.266 784.529 105.693 785.104 106 785.851C106.307 786.598 106.461 787.464 106.461 788.449C106.461 789.434 106.307 790.298 106 791.039C105.693 791.781 105.266 792.353 104.721 792.756C104.175 793.158 103.553 793.36 102.853 793.36C102.154 793.36 101.532 793.158 100.986 792.756C100.441 792.353 100.014 791.781 99.7069 791.039C99.3997 790.298 99.246 789.434 99.246 788.449C99.246 787.464 99.3997 786.598 99.7069 785.851C100.014 785.104 100.441 784.529 100.986 784.127C101.532 783.724 102.154 783.523 102.853 783.523ZM102.853 784.635C102.387 784.635 101.971 784.794 101.606 785.112C101.24 785.43 100.957 785.877 100.756 786.455C100.554 787.032 100.454 787.697 100.454 788.449C100.454 789.207 100.554 789.874 100.756 790.451C100.957 791.024 101.24 791.466 101.606 791.778C101.971 792.091 102.387 792.247 102.853 792.247C103.325 792.247 103.741 792.091 104.101 791.778C104.466 791.466 104.75 791.024 104.951 790.451C105.152 789.874 105.253 789.207 105.253 788.449C105.253 787.692 105.152 787.027 104.951 786.455C104.75 785.877 104.466 785.43 104.101 785.112C103.741 784.794 103.325 784.635 102.853 784.635ZM119.94 793.01H113.409V783.825H119.94V793.01ZM114.632 791.993H118.717V784.826H114.632V791.993ZM124.231 796.586H122.975V782.426H124.231V796.586ZM139.032 787.4H135.854V786.367H139.032V787.4ZM139.017 790.944H135.743V789.911H139.017V790.944ZM142.417 796.554H141.225V782.426H142.417V796.554ZM139.557 795.839H138.365V782.808H139.557V795.839ZM136.41 784.238C136.405 785.499 136.217 786.69 135.846 787.813C135.481 788.936 134.901 789.983 134.106 790.952C133.317 791.916 132.305 792.766 131.071 793.503L130.308 792.597C131.41 791.945 132.324 791.198 133.049 790.356C133.775 789.509 134.313 788.592 134.662 787.607C135.017 786.622 135.197 785.573 135.203 784.46V784.238H136.41ZM135.695 785.271H130.944V784.238H135.695V785.271ZM155.023 787.146H151.797V786.113H155.023V787.146ZM155.897 790.849H154.641V782.426H155.897V790.849ZM151.209 791.294C152.183 791.294 153.026 791.397 153.735 791.604C154.445 791.81 154.991 792.109 155.372 792.501C155.754 792.893 155.944 793.365 155.944 793.916C155.944 794.467 155.754 794.938 155.372 795.33C154.991 795.722 154.445 796.021 153.735 796.228C153.026 796.44 152.183 796.549 151.209 796.554C150.229 796.549 149.384 796.44 148.674 796.228C147.969 796.021 147.426 795.722 147.045 795.33C146.664 794.938 146.473 794.467 146.473 793.916C146.473 793.365 146.664 792.893 147.045 792.501C147.426 792.109 147.972 791.81 148.682 791.604C149.392 791.397 150.234 791.294 151.209 791.294ZM151.209 792.263C150.488 792.263 149.866 792.329 149.341 792.462C148.817 792.594 148.414 792.785 148.134 793.034C147.853 793.283 147.712 793.577 147.712 793.916C147.712 794.255 147.853 794.546 148.134 794.79C148.414 795.034 148.817 795.222 149.341 795.354C149.866 795.486 150.488 795.553 151.209 795.553C151.924 795.553 152.544 795.486 153.068 795.354C153.598 795.222 154.003 795.034 154.284 794.79C154.564 794.546 154.705 794.255 154.705 793.916C154.705 793.577 154.564 793.283 154.284 793.034C154.003 792.785 153.598 792.594 153.068 792.462C152.544 792.329 151.924 792.263 151.209 792.263ZM148.873 785.032C148.873 785.88 148.706 786.682 148.372 787.44C148.038 788.197 147.569 788.86 146.966 789.426C146.367 789.993 145.678 790.425 144.9 790.722L144.248 789.72C144.942 789.471 145.559 789.106 146.099 788.624C146.645 788.137 147.072 787.583 147.379 786.963C147.686 786.338 147.84 785.695 147.84 785.032V783.856H148.873V785.032ZM149.095 785.016C149.095 785.626 149.241 786.216 149.532 786.788C149.823 787.355 150.234 787.861 150.764 788.306C151.293 788.751 151.897 789.09 152.575 789.323L151.924 790.324C151.166 790.049 150.496 789.644 149.913 789.109C149.336 788.574 148.886 787.954 148.563 787.249C148.24 786.539 148.078 785.795 148.078 785.016V783.856H149.095V785.016ZM152.257 784.508H144.645V783.459H152.257V784.508ZM169.694 796.586H168.438V782.426H169.694V796.586ZM162.177 783.523C162.876 783.523 163.499 783.724 164.044 784.127C164.59 784.529 165.016 785.104 165.324 785.851C165.631 786.598 165.784 787.464 165.784 788.449C165.784 789.434 165.631 790.298 165.324 791.039C165.016 791.781 164.59 792.353 164.044 792.756C163.499 793.158 162.876 793.36 162.177 793.36C161.478 793.36 160.855 793.158 160.31 792.756C159.764 792.353 159.338 791.781 159.031 791.039C158.723 790.298 158.57 789.434 158.57 788.449C158.57 787.464 158.723 786.598 159.031 785.851C159.338 785.104 159.764 784.529 160.31 784.127C160.855 783.724 161.478 783.523 162.177 783.523ZM162.177 784.635C161.711 784.635 161.295 784.794 160.93 785.112C160.564 785.43 160.281 785.877 160.079 786.455C159.878 787.032 159.777 787.697 159.777 788.449C159.777 789.207 159.878 789.874 160.079 790.451C160.281 791.024 160.564 791.466 160.93 791.778C161.295 792.091 161.711 792.247 162.177 792.247C162.649 792.247 163.064 792.091 163.425 791.778C163.79 791.466 164.073 791.024 164.275 790.451C164.476 789.874 164.577 789.207 164.577 788.449C164.577 787.692 164.476 787.027 164.275 786.455C164.073 785.877 163.79 785.43 163.425 785.112C163.064 784.794 162.649 784.635 162.177 784.635ZM180.348 791.913C180.342 792.528 180.21 793.129 179.95 793.717C179.696 794.305 179.325 794.83 178.838 795.29C178.356 795.757 177.784 796.114 177.122 796.363L176.486 795.441C177.063 795.224 177.569 794.928 178.004 794.551C178.443 794.17 178.777 793.749 179.005 793.288C179.238 792.827 179.357 792.369 179.362 791.913V791.135H180.348V791.913ZM180.57 791.913C180.565 792.396 180.66 792.87 180.856 793.336C181.057 793.797 181.351 794.22 181.738 794.607C182.125 794.994 182.594 795.298 183.145 795.521L182.62 796.474C181.958 796.225 181.402 795.86 180.952 795.378C180.507 794.901 180.175 794.363 179.958 793.765C179.746 793.166 179.643 792.549 179.648 791.913V791.135H180.57V791.913ZM185.576 791.913C185.571 792.486 185.457 793.071 185.234 793.669C185.017 794.268 184.683 794.819 184.233 795.322C183.788 795.825 183.25 796.21 182.62 796.474L182.08 795.521C182.615 795.277 183.076 794.951 183.462 794.544C183.854 794.136 184.148 793.701 184.344 793.24C184.546 792.774 184.644 792.332 184.638 791.913V791.135H185.576V791.913ZM185.862 791.913C185.857 792.401 185.968 792.875 186.196 793.336C186.429 793.797 186.763 794.212 187.197 794.583C187.631 794.949 188.145 795.235 188.738 795.441L188.119 796.363C187.441 796.125 186.858 795.778 186.371 795.322C185.883 794.872 185.512 794.353 185.258 793.765C185.004 793.177 184.877 792.56 184.877 791.913V791.135H185.862V791.913ZM187.451 790.515H186.212V782.442H187.451V790.515ZM179.823 783.268C180.533 783.268 181.169 783.406 181.73 783.682C182.292 783.957 182.731 784.346 183.049 784.85C183.367 785.353 183.526 785.928 183.526 786.574C183.526 787.21 183.367 787.776 183.049 788.274C182.731 788.772 182.292 789.159 181.73 789.434C181.169 789.71 180.533 789.848 179.823 789.848C179.113 789.848 178.478 789.71 177.916 789.434C177.355 789.159 176.915 788.772 176.597 788.274C176.279 787.776 176.12 787.21 176.12 786.574C176.12 785.928 176.279 785.353 176.597 784.85C176.915 784.346 177.355 783.957 177.916 783.682C178.478 783.406 179.113 783.268 179.823 783.268ZM179.823 784.333C179.346 784.328 178.92 784.421 178.544 784.611C178.168 784.797 177.871 785.061 177.654 785.406C177.442 785.75 177.339 786.139 177.344 786.574C177.339 787.003 177.442 787.387 177.654 787.726C177.871 788.06 178.165 788.325 178.536 788.521C178.912 788.717 179.341 788.815 179.823 788.815C180.3 788.815 180.726 788.717 181.102 788.521C181.479 788.325 181.773 788.06 181.984 787.726C182.196 787.387 182.302 787.003 182.302 786.574C182.302 786.139 182.196 785.75 181.984 785.406C181.773 785.061 181.476 784.797 181.095 784.611C180.718 784.421 180.295 784.328 179.823 784.333ZM196.084 783.348C197.064 783.348 197.946 783.509 198.73 783.833C199.519 784.156 200.136 784.611 200.581 785.199C201.026 785.787 201.248 786.463 201.248 787.225C201.248 787.994 201.026 788.674 200.581 789.267C200.136 789.855 199.519 790.311 198.73 790.634C197.946 790.952 197.064 791.108 196.084 791.103C195.104 791.108 194.222 790.952 193.438 790.634C192.659 790.311 192.044 789.855 191.594 789.267C191.144 788.674 190.919 787.994 190.919 787.225C190.919 786.463 191.144 785.787 191.594 785.199C192.044 784.611 192.659 784.156 193.438 783.833C194.222 783.509 195.104 783.348 196.084 783.348ZM196.084 784.365C195.331 784.365 194.653 784.484 194.049 784.722C193.446 784.961 192.969 785.3 192.619 785.74C192.275 786.174 192.105 786.669 192.111 787.225C192.105 787.787 192.275 788.285 192.619 788.719C192.969 789.154 193.443 789.49 194.041 789.728C194.645 789.967 195.326 790.086 196.084 790.086C196.836 790.086 197.514 789.967 198.118 789.728C198.722 789.49 199.193 789.154 199.532 788.719C199.871 788.285 200.041 787.787 200.041 787.225C200.041 786.669 199.868 786.174 199.524 785.74C199.18 785.3 198.706 784.961 198.102 784.722C197.503 784.484 196.83 784.365 196.084 784.365ZM202.583 794.679H189.647V793.63H202.583V794.679ZM215.173 792.803H213.933V782.442H215.173V792.803ZM215.618 796.252H206.051V795.203H215.618V796.252ZM207.29 795.712H206.051V791.85H207.29V795.712ZM208.292 784.651C208.286 785.562 208.117 786.426 207.783 787.241C207.455 788.057 206.991 788.77 206.392 789.379C205.799 789.983 205.113 790.441 204.335 790.753L203.651 789.784C204.356 789.509 204.978 789.109 205.518 788.584C206.064 788.06 206.488 787.458 206.79 786.78C207.092 786.097 207.243 785.387 207.243 784.651V783.237H208.292V784.651ZM208.514 784.651C208.509 785.355 208.654 786.034 208.951 786.685C209.253 787.331 209.674 787.898 210.214 788.386C210.755 788.873 211.375 789.244 212.074 789.498L211.422 790.499C210.638 790.197 209.95 789.76 209.356 789.188C208.763 788.611 208.299 787.933 207.966 787.154C207.632 786.375 207.465 785.541 207.465 784.651V783.237H208.514V784.651ZM228.302 796.554H227.063V782.426H228.302V796.554ZM230.591 789.228H227.985V788.179H230.591V789.228ZM224.647 783.952C224.642 785.324 224.414 786.622 223.964 787.845C223.519 789.064 222.814 790.189 221.85 791.222C220.886 792.25 219.657 793.132 218.163 793.868L217.464 792.883C218.773 792.231 219.869 791.466 220.754 790.587C221.644 789.702 222.309 788.722 222.748 787.647C223.193 786.571 223.418 785.408 223.424 784.158V783.952H224.647ZM224.059 785.001H218.116V783.952H224.059V785.001ZM235.663 793.948H234.44V789.72H235.663V793.948ZM240.955 793.948H239.7V789.72H240.955V793.948ZM244.165 794.742H231.23V793.693H244.165V794.742ZM237.666 783.316C238.667 783.321 239.557 783.475 240.336 783.777C241.12 784.074 241.731 784.5 242.171 785.056C242.611 785.607 242.831 786.24 242.831 786.955C242.831 787.676 242.611 788.309 242.171 788.854C241.731 789.4 241.12 789.824 240.336 790.126C239.557 790.428 238.667 790.579 237.666 790.579C236.665 790.579 235.772 790.428 234.988 790.126C234.209 789.824 233.6 789.4 233.16 788.854C232.721 788.309 232.501 787.676 232.501 786.955C232.501 786.24 232.721 785.607 233.16 785.056C233.6 784.5 234.209 784.074 234.988 783.777C235.772 783.475 236.665 783.321 237.666 783.316ZM237.666 784.349C236.898 784.344 236.212 784.45 235.608 784.667C235.009 784.879 234.543 785.183 234.209 785.581C233.876 785.978 233.709 786.436 233.709 786.955C233.709 787.474 233.876 787.933 234.209 788.33C234.543 788.727 235.009 789.037 235.608 789.26C236.212 789.482 236.898 789.593 237.666 789.593C238.429 789.593 239.109 789.482 239.708 789.26C240.306 789.037 240.775 788.727 241.114 788.33C241.453 787.933 241.623 787.474 241.623 786.955C241.623 786.436 241.453 785.978 241.114 785.581C240.775 785.183 240.306 784.879 239.708 784.667C239.109 784.45 238.429 784.344 237.666 784.349ZM247.347 791.945C247.352 791.262 247.421 790.708 247.554 790.285C247.691 789.855 247.882 789.514 248.126 789.26C248.369 789 248.698 788.746 249.111 788.497C249.339 788.359 249.54 788.195 249.715 788.004C249.895 787.813 250.033 787.599 250.128 787.36C250.223 787.122 250.271 786.86 250.271 786.574C250.271 786.224 250.189 785.914 250.025 785.644C249.86 785.374 249.633 785.167 249.341 785.024C249.05 784.876 248.73 784.805 248.38 784.81C248.062 784.805 247.765 784.868 247.49 785.001C247.215 785.128 246.981 785.332 246.791 785.612C246.605 785.888 246.499 786.235 246.473 786.653H245.027C245.053 786.028 245.215 785.485 245.511 785.024C245.813 784.564 246.213 784.211 246.711 783.968C247.215 783.724 247.771 783.602 248.38 783.602C249.031 783.602 249.606 783.732 250.104 783.991C250.607 784.251 250.994 784.611 251.264 785.072C251.534 785.533 251.669 786.055 251.669 786.637C251.669 787.241 251.534 787.768 251.264 788.219C250.994 788.664 250.605 789.042 250.096 789.355C249.757 789.561 249.492 789.776 249.302 789.999C249.111 790.216 248.968 790.481 248.873 790.793C248.777 791.1 248.724 791.484 248.714 791.945V792.025H247.347V791.945ZM248.078 795.362C247.893 795.362 247.72 795.314 247.561 795.219C247.408 795.124 247.283 794.999 247.188 794.845C247.098 794.687 247.056 794.514 247.061 794.329C247.056 794.149 247.098 793.979 247.188 793.82C247.283 793.662 247.408 793.537 247.561 793.447C247.72 793.357 247.893 793.312 248.078 793.312C248.263 793.312 248.433 793.357 248.586 793.447C248.745 793.537 248.87 793.662 248.96 793.82C249.05 793.979 249.095 794.149 249.095 794.329C249.095 794.514 249.05 794.687 248.96 794.845C248.87 794.999 248.745 795.124 248.586 795.219C248.433 795.314 248.263 795.362 248.078 795.362Z" fill="#4F4F4F"/>
<path d="M274.134 794.806H261.198V793.757H274.134V794.806ZM268.238 794.218H267.014V790.722H268.238V794.218ZM272.497 787.75H264.059V790.61H262.819V786.733H271.273V784.508H262.787V783.475H272.497V787.75ZM272.831 791.087H262.819V790.054H272.831V791.087ZM285.643 784.969H276.457V783.936H285.643V784.969ZM287.931 794.472H275.059V793.439H287.931V794.472ZM286.199 785.446C286.199 786.219 286.191 786.908 286.175 787.511C286.159 788.115 286.112 788.817 286.032 789.617C285.953 790.412 285.833 791.278 285.674 792.215L284.403 792.088C284.578 791.209 284.705 790.377 284.785 789.593C284.869 788.809 284.922 788.11 284.943 787.496C284.965 786.876 284.975 786.187 284.975 785.43V785.35V783.936H286.199V785.35V785.446ZM300.584 792.772H299.345V782.442H300.584V792.772ZM301.029 796.252H291.462V795.203H301.029V796.252ZM292.702 795.553H291.462V791.723H292.702V795.553ZM292.956 783.427C293.655 783.427 294.286 783.576 294.847 783.872C295.409 784.169 295.851 784.579 296.174 785.104C296.497 785.628 296.659 786.224 296.659 786.892C296.659 787.564 296.497 788.166 296.174 788.695C295.851 789.22 295.409 789.63 294.847 789.927C294.286 790.224 293.655 790.372 292.956 790.372C292.257 790.372 291.626 790.224 291.065 789.927C290.503 789.63 290.061 789.22 289.738 788.695C289.415 788.166 289.253 787.564 289.253 786.892C289.253 786.224 289.415 785.628 289.738 785.104C290.061 784.579 290.503 784.169 291.065 783.872C291.626 783.576 292.257 783.427 292.956 783.427ZM292.956 784.524C292.485 784.524 292.058 784.624 291.677 784.826C291.301 785.027 291.004 785.308 290.787 785.668C290.575 786.028 290.472 786.436 290.477 786.892C290.472 787.353 290.575 787.766 290.787 788.131C291.004 788.491 291.301 788.772 291.677 788.973C292.058 789.175 292.485 789.275 292.956 789.275C293.422 789.275 293.843 789.175 294.219 788.973C294.596 788.772 294.892 788.491 295.109 788.131C295.327 787.766 295.435 787.353 295.435 786.892C295.435 786.436 295.327 786.028 295.109 785.668C294.892 785.308 294.596 785.027 294.219 784.826C293.843 784.624 293.422 784.524 292.956 784.524Z" fill="#4F4F4F"/>
<path d="M260.626 797.865H302.412V798.969H260.626V797.865Z" fill="#4F4F4F"/>
<mask id="mask1_123_2739" style="mask-type:alpha" maskUnits="userSpaceOnUse" x="37" y="0" width="321" height="79">
<path fill-rule="evenodd" clip-rule="evenodd" d="M355.699 2.32774V0.97168H351.631V2.32774H350.953L350.949 2.32775H350.614C350.052 2.32775 349.597 2.78311 349.597 3.34481V13.5154C349.597 14.0771 350.052 14.5324 350.614 14.5324H356.716C357.278 14.5324 357.734 14.0771 357.734 13.5154V3.34481C357.734 2.78311 357.278 2.32775 356.716 2.32775H356.382L356.377 2.32774H355.699ZM324.362 4.84804C324.597 4.55527 324.548 4.12091 324.24 3.90804C323.145 3.1531 320.555 1.64972 317.051 1.64972C313.543 1.64972 310.957 3.15265 309.863 3.9077C309.554 4.12075 309.506 4.55527 309.741 4.84804L316.014 12.6769C316.546 13.3428 317.557 13.3428 318.089 12.6769L324.362 4.84804ZM340.106 2.60862C340.106 2.00456 339.376 1.70204 338.948 2.12918L327.703 13.375C327.275 13.8021 327.578 14.5325 328.182 14.5325H338.75C339.499 14.5325 340.106 13.9253 340.106 13.1764V2.60862ZM41.204 77.908V67.7504H41.0024L37.0464 69.1965V70.58L39.5284 69.7388V77.908H41.204ZM51.5076 77.908V76.5731H46.8355L49.0256 74.1606C49.3315 73.8454 49.6119 73.5349 49.8668 73.229C50.1218 72.9184 50.3419 72.6102 50.5273 72.3043C50.7174 71.9937 50.8634 71.6832 50.9653 71.3726C51.0673 71.0621 51.1183 70.7492 51.1183 70.434C51.1183 69.8639 50.9932 69.3703 50.7429 68.9531C50.4972 68.536 50.138 68.2139 49.6652 67.9867C49.1925 67.7596 48.6177 67.6461 47.941 67.6461C47.2226 67.6461 46.6084 67.7921 46.0986 68.0841C45.5887 68.3715 45.1994 68.7608 44.9306 69.2521C44.6617 69.7388 44.5273 70.2764 44.5273 70.8651H46.2029C46.2029 70.4989 46.2678 70.1745 46.3975 69.8917C46.5273 69.6044 46.7197 69.3796 46.9746 69.2173C47.2295 69.0551 47.5447 68.974 47.9201 68.974C48.2446 68.974 48.5204 69.0459 48.7475 69.1895C48.9746 69.3286 49.1461 69.5209 49.262 69.7666C49.3825 70.0076 49.4427 70.288 49.4427 70.6078C49.4427 70.835 49.3987 71.069 49.3106 71.3101C49.2272 71.5464 49.0812 71.813 48.8726 72.1096C48.6641 72.4062 48.379 72.7585 48.0175 73.1664L44.722 76.7608V77.908H51.5076ZM53.1971 76.4202C53.021 76.5963 52.9329 76.8141 52.9329 77.0737C52.9329 77.3333 53.021 77.5511 53.1971 77.7272C53.3732 77.9034 53.6119 77.9914 53.9132 77.9914C54.2191 77.9914 54.4578 77.9034 54.6293 77.7272C54.8055 77.5511 54.8935 77.3333 54.8935 77.0737C54.8935 76.8141 54.8055 76.5963 54.6293 76.4202C54.4578 76.2394 54.2191 76.149 53.9132 76.149C53.6119 76.149 53.3732 76.2394 53.1971 76.4202ZM53.2041 70.4966C53.0279 70.6727 52.9399 70.8906 52.9399 71.1501C52.9399 71.4097 53.0279 71.6276 53.2041 71.8037C53.3802 71.9798 53.6189 72.0679 53.9202 72.0679C54.2261 72.0679 54.4648 71.9798 54.6363 71.8037C54.8124 71.6276 54.9005 71.4097 54.9005 71.1501C54.9005 70.8906 54.8124 70.6727 54.6363 70.4966C54.4648 70.3158 54.2261 70.2255 53.9202 70.2255C53.6189 70.2255 53.3802 70.3158 53.2041 70.4966ZM59.5378 72.0887H58.5366V72.4781V73.0204V73.3958H59.5378C59.9225 73.3958 60.2562 73.4561 60.539 73.5766C60.8217 73.6925 61.0396 73.8732 61.1925 74.1189C61.3455 74.3645 61.4219 74.6843 61.4219 75.0783C61.4219 75.4259 61.3524 75.7226 61.2134 75.9682C61.079 76.2139 60.8843 76.3993 60.6294 76.5245C60.3744 76.6496 60.0708 76.7122 59.7186 76.7122C59.3849 76.7122 59.0882 76.6473 58.8287 76.5175C58.5737 76.3877 58.3744 76.2093 58.2307 75.9822C58.0917 75.7504 58.0222 75.4839 58.0222 75.1826H56.3466C56.3466 75.6554 56.437 76.0725 56.6178 76.4341C56.8032 76.791 57.0534 77.0899 57.3686 77.3309C57.6838 77.5673 58.0407 77.7458 58.4393 77.8663C58.8379 77.9868 59.2551 78.0471 59.6908 78.0471C60.1774 78.0471 60.627 77.9822 61.0396 77.8524C61.4567 77.7226 61.8206 77.5303 62.1311 77.2753C62.4417 77.0204 62.6804 76.7099 62.8472 76.3437C63.0187 75.9729 63.1045 75.5511 63.1045 75.0783C63.1045 74.7307 63.0419 74.4016 62.9167 74.0911C62.7962 73.7805 62.6039 73.5047 62.3397 73.2637C62.0892 73.0309 61.768 72.8459 61.376 72.7088C61.6778 72.5708 61.9365 72.4035 62.152 72.2069C62.4162 71.9613 62.6155 71.6901 62.7499 71.3935C62.8843 71.0968 62.9515 70.8048 62.9515 70.5175C62.9515 69.8871 62.8148 69.3587 62.5413 68.9323C62.2678 68.5059 61.8855 68.1861 61.3941 67.9728C60.9075 67.755 60.3374 67.6461 59.6838 67.6461C59.072 67.6461 58.5204 67.7666 58.0291 68.0076C57.5424 68.244 57.1577 68.5708 56.875 68.9879C56.5923 69.4051 56.4509 69.8825 56.4509 70.4201H58.1334C58.1334 70.1235 58.2029 69.8686 58.342 69.6554C58.481 69.4375 58.6687 69.2706 58.9051 69.1548C59.1462 69.0343 59.415 68.974 59.7116 68.974C60.0639 68.974 60.3536 69.0366 60.5807 69.1617C60.8124 69.2869 60.9839 69.4653 61.0952 69.6971C61.2111 69.9242 61.269 70.1977 61.269 70.5175C61.269 70.8234 61.2064 71.0945 61.0813 71.3309C60.9561 71.5673 60.7638 71.7527 60.5042 71.8871C60.2493 72.0215 59.9272 72.0887 59.5378 72.0887ZM71.2598 73.6531V71.9984C71.2598 71.3634 71.2088 70.8072 71.1068 70.3298C71.0049 69.8477 70.8565 69.4375 70.6619 69.0992C70.4718 68.7562 70.2401 68.4781 69.9666 68.2648C69.6978 68.0516 69.3919 67.8964 69.0489 67.799C68.7105 67.6971 68.3397 67.6461 67.9365 67.6461C67.4359 67.6461 66.9817 67.7249 66.5738 67.8825C66.1705 68.04 65.8229 68.2927 65.5309 68.6403C65.2389 68.9833 65.0141 69.4306 64.8565 69.9821C64.6989 70.5291 64.6201 71.2011 64.6201 71.9984V73.6531C64.6201 74.2881 64.6711 74.8466 64.7731 75.3286C64.8797 75.8107 65.028 76.2255 65.218 76.5731C65.4127 76.9161 65.6468 77.1965 65.9202 77.4144C66.1937 77.6322 66.4996 77.7921 66.838 77.8941C67.181 77.9961 67.5518 78.0471 67.9504 78.0471C68.451 78.0471 68.9029 77.9659 69.3061 77.8037C69.714 77.6415 70.0639 77.3866 70.3559 77.0389C70.648 76.6913 70.8704 76.2394 71.0234 75.6832C71.181 75.1224 71.2598 74.4456 71.2598 73.6531ZM69.5842 71.7481V73.8894C69.5842 74.3947 69.5495 74.828 69.4799 75.1896C69.4104 75.5511 69.3061 75.8454 69.1671 76.0725C69.028 76.295 68.8565 76.4572 68.6526 76.5592C68.4486 76.6612 68.2146 76.7122 67.9504 76.7122C67.7418 76.7122 67.5494 76.6797 67.3733 76.6148C67.2018 76.5499 67.0489 76.448 66.9144 76.3089C66.7847 76.1652 66.6734 75.9845 66.5807 75.7666C66.488 75.5441 66.4185 75.2776 66.3722 74.9671C66.3258 74.6565 66.3026 74.2973 66.3026 73.8894V71.7481C66.3026 71.2429 66.3374 70.8141 66.4069 70.4618C66.4811 70.1049 66.5877 69.8176 66.7267 69.5997C66.8658 69.3819 67.0373 69.2243 67.2412 69.127C67.4452 69.025 67.6769 68.974 67.9365 68.974C68.1497 68.974 68.342 69.0065 68.5135 69.0713C68.685 69.1316 68.838 69.2312 68.9724 69.3703C69.1068 69.5047 69.2181 69.6808 69.3061 69.8987C69.3988 70.1119 69.4683 70.3738 69.5147 70.6843C69.561 70.9902 69.5842 71.3448 69.5842 71.7481Z" fill="white"/>
</mask>
<g mask="url(#mask1_123_2739)">
<g filter="url(#filter2_b_123_2739)">
<rect x="35.8645" y="61.2034" width="325.458" height="24.4093" fill="white" style="mix-blend-mode:multiply"/>
</g>
<rect x="35.8645" y="61.2034" width="325.458" height="24.4093" fill="white" style="mix-blend-mode:saturation"/>
<rect x="35.8645" y="61.2034" width="325.458" height="24.4093" fill="white" style="mix-blend-mode:difference"/>
<rect x="35.8645" y="61.2034" width="325.458" height="24.4093" fill="white" style="mix-blend-mode:saturation"/>
<rect x="35.8645" y="61.2034" width="325.458" height="24.4093" fill="white" style="mix-blend-mode:overlay"/>
<rect x="35.8645" y="61.2034" width="325.458" height="24.4093" fill="black" style="mix-blend-mode:overlay"/>
<rect x="35.8645" y="61.2034" width="325.458" height="24.4093" fill="white" style="mix-blend-mode:overlay"/>
<rect x="35.8645" y="61.2034" width="325.458" height="24.4093" fill="black" style="mix-blend-mode:overlay"/>
</g>
<g clip-path="url(#clip1_123_2739)">
<path d="M204.009 281.656H207.943V257.529L206.932 254.946C206.932 254.946 206.586 257.063 206.586 257.135C206.586 257.179 206.674 257.37 206.755 257.529H200.055V263.002H199.04V257.923H198.795L199 257.565L198.034 255.336C198.034 255.336 197.836 256.9 197.7 257.923H191.463V274.309L190.617 270.567L190.412 270.627C189.921 270.77 189.522 270.87 189.232 270.93C189.027 270.969 188.825 270.997 188.632 271.009V268.705L189.425 268.78L190.227 270.472L190.44 267.165H190.891V258.492H190.351L190.456 257.684L189.884 255.917C189.884 255.917 189.687 257.469 189.55 258.492H180.253V277.274L179.859 277.306V271.057H178.441V269.561C178.586 269.859 178.755 270.09 178.848 269.831C179.037 269.306 179.246 268.402 179.246 268.156C179.246 268.032 179.194 267.579 179.142 267.161H179.859V258.488H169.668V277.445H169.088C169.04 277.445 168.254 277.528 168.254 277.528L169.664 279.725H179.854V278.726C179.975 278.718 180.108 278.707 180.249 278.699V279.729H185.81C187.227 279.729 188.411 279.686 189.329 279.598C190.134 279.522 190.851 279.399 191.455 279.228V280.342H199.032V274.038H200.047V280.951H178.546C177.068 280.951 175.715 281.313 174.524 282.03C173.336 282.742 172.373 283.678 171.665 284.808C170.956 285.942 170.566 287.18 170.505 288.501C170.505 289.934 170.864 291.244 171.576 292.39C172.285 293.536 173.255 294.459 174.463 295.132C175.667 295.805 177.044 296.143 178.55 296.143H200.341C201.875 296.143 203.256 295.809 204.448 295.156C205.64 294.499 206.598 293.584 207.29 292.438C207.987 291.287 208.337 289.966 208.337 288.505C208.337 286.925 207.854 285.429 206.908 284.06C206.167 282.993 205.197 282.189 204.005 281.656H204.009ZM197.212 287.928C197.148 287.948 197.088 287.956 197.023 287.956H181.876C181.791 287.956 181.735 287.948 181.695 287.936C181.687 287.912 181.678 287.861 181.678 287.761C181.678 287.662 181.687 287.61 181.695 287.586C181.735 287.574 181.791 287.566 181.876 287.566H197.023C197.088 287.566 197.156 287.578 197.196 287.578C197.196 287.578 197.22 287.618 197.22 287.761C197.22 287.872 197.204 287.92 197.212 287.928Z" fill="#0B454F"/>
<path d="M246.242 284.995L246.125 285.035C246.053 285.059 245.888 285.134 245.244 285.512C244.789 285.779 243.999 286.089 242.896 286.436C241.789 286.782 240.235 287.108 238.274 287.415C236.353 287.713 233.885 287.936 230.934 288.079V287.689C234.59 287.51 237.569 287.184 239.788 286.71C242.051 286.229 243.714 285.735 244.728 285.25C246.222 284.533 246.347 284.283 246.347 284.087V279.423H230.97L231.735 277.178C232.343 277.123 233.261 277.027 233.986 276.955V278.814H246.347V257.529L245.336 254.946L245.062 257.529H233.986V261.382H231.195V269.795C230.35 269.517 229.456 269.302 228.526 269.155C227.596 269.007 226.617 268.916 225.603 268.876C225.703 268.673 225.804 268.466 225.909 268.251C226.042 267.977 226.162 267.686 226.271 267.38H230.801V259.101H227.39V258.337C227.39 258.019 227.374 257.676 227.346 257.314L227.33 257.131H214.969L214.985 257.346C215.037 257.987 215.041 258.576 215.001 259.101H209.449V267.38H213.064C212.662 267.738 212.167 268.04 211.587 268.291C210.814 268.621 209.827 268.995 208.656 269.401L208.482 269.461L210.918 278.917L211.1 278.89C213.161 278.587 215.066 278.046 216.781 277.286C217.546 277.222 220.034 277.123 221.653 277.063L221.536 277.513L221.77 277.532C222.7 277.62 223.678 277.795 224.685 278.054C225.691 278.313 226.646 278.607 227.523 278.925C227.994 279.097 228.421 279.26 228.792 279.415H211.269V285.329H226.638V285.719H211.269V293.361C211.269 293.974 211.804 294.491 212.859 294.905C213.842 295.287 215.19 295.602 216.869 295.836C218.532 296.067 220.437 296.238 222.535 296.342C224.628 296.445 226.815 296.497 229.033 296.497C231.252 296.497 233.45 296.437 235.576 296.322C237.698 296.207 239.651 296.051 241.39 295.86C243.138 295.669 244.567 295.438 245.646 295.176C246.814 294.893 247.442 294.579 247.619 294.189L247.643 294.137L246.476 285.214L246.25 284.991L246.242 284.995ZM233.088 273.206H233.982V276.251C233.672 276.104 233.317 275.936 233.257 275.921C233.144 275.889 232.762 276.191 232.951 275.511C233.14 274.834 232.975 274.269 232.975 274.269L232.705 274.321L233.088 273.206ZM222.043 275.507L220.699 274.949C221.391 274.412 222.039 273.835 222.631 273.214L222.047 275.507H222.043Z" fill="#0B454F"/>
<path d="M272.341 266.564C272.221 264.092 271.129 262.019 269.1 260.399C267.079 258.787 264.107 257.967 260.27 257.967C257.713 257.967 255.511 258.357 253.723 259.121C251.923 259.894 250.538 260.952 249.608 262.278C248.674 263.603 248.199 265.095 248.199 266.703V285.095C248.227 286.735 248.726 288.235 249.677 289.564C250.623 290.886 252.008 291.948 253.792 292.717C255.563 293.485 257.746 293.871 260.274 293.871C264.2 293.871 267.224 293.055 269.257 291.443C271.307 289.819 272.345 287.654 272.345 285.003V266.564H272.341ZM260.733 281.194C260.733 281.194 260.729 281.262 260.657 281.481C260.62 281.592 260.399 281.608 260.27 281.608C260.073 281.608 259.956 281.565 259.928 281.481C259.851 281.262 259.851 281.198 259.851 281.194V270.644C259.851 270.608 259.863 270.512 259.928 270.313C259.956 270.23 260.069 270.186 260.27 270.186C260.399 270.186 260.616 270.202 260.657 270.313C260.725 270.516 260.733 270.608 260.733 270.644V281.194Z" fill="#0B454F"/>
<path d="M229.794 256.522L229.698 258.934L232.605 258.819L229.794 256.522Z" fill="#0B454F"/>
<path d="M226.287 254.576L226.17 256.661H228.981L226.287 254.576Z" fill="#0B454F"/>
<path d="M288.185 276.673H285.93L290.762 257.569L289.812 254.982C289.812 254.982 289.011 257.055 288.962 257.179C288.934 257.254 288.942 257.433 288.954 257.569H278.212L273.908 274.583C273.215 274.675 272.341 274.794 272.341 274.794L273.275 277.071H277.306L273.449 293.719C272.776 293.803 271.415 293.99 271.415 293.99L272.881 296.175H285.431L289.953 276.669L288.991 274.09C288.991 274.09 288.379 275.988 288.185 276.669V276.673Z" fill="#0B454F"/>
<path d="M178.453 277.142H168.665V256.303H178.453V264.577H177.036V268.868H178.453V277.142ZM206.534 279.069H201.662C203.317 279.534 204.605 280.442 205.535 281.783C206.465 283.124 206.928 284.569 206.928 286.117C206.928 287.546 206.59 288.823 205.91 289.946C205.229 291.068 204.307 291.952 203.139 292.593C201.972 293.233 200.639 293.556 199.129 293.556H177.338C175.86 293.556 174.532 293.229 173.352 292.569C172.172 291.912 171.234 291.02 170.542 289.898C169.849 288.776 169.503 287.514 169.503 286.113C169.563 284.828 169.938 283.634 170.63 282.523C171.323 281.413 172.253 280.509 173.42 279.809C174.588 279.108 175.893 278.758 177.338 278.758H199.041V271.447H197.623V277.751H190.448V276.569C189.8 276.772 189.015 276.919 188.101 277.007C187.187 277.094 186.019 277.138 184.602 277.138H179.243V256.303H189.474V264.577H187.215V268.824C187.481 268.824 187.763 268.796 188.056 268.736C188.35 268.677 188.749 268.577 189.252 268.43L190.448 273.727V255.734H197.623V260.812H199.041V255.34H206.526V279.069H206.534ZM180.668 285.767H195.815C195.904 285.767 195.993 285.751 196.081 285.723C196.17 285.695 196.214 285.576 196.214 285.373C196.214 285.17 196.17 285.05 196.081 285.023C195.993 284.995 195.904 284.979 195.815 284.979H180.668C180.551 284.979 180.455 284.995 180.382 285.023C180.31 285.05 180.273 285.17 180.273 285.373C180.273 285.576 180.31 285.695 180.382 285.723C180.455 285.751 180.551 285.767 180.668 285.767Z" fill="#FFFA92" stroke="#0B454F" stroke-width="0.805282" stroke-miterlimit="10"/>
<path d="M207.508 267.205C208.688 266.795 209.67 266.424 210.451 266.086C211.232 265.752 211.861 265.322 212.336 264.793H208.438V256.916H213.974C214.035 256.331 214.035 255.675 213.974 254.946H225.933C225.961 255.296 225.977 255.631 225.977 255.953V256.916H229.388V264.797H224.914C224.797 265.147 224.665 265.477 224.516 265.784C224.367 266.09 224.222 266.389 224.073 266.679C225.196 266.707 226.263 266.803 227.286 266.966C228.304 267.125 229.271 267.368 230.185 267.686V259.193H232.975V255.34H244.934V276.223H232.975V270.619H231.735L229.476 277.23H244.934V281.696C244.934 281.871 244.43 282.201 243.428 282.683C242.425 283.164 240.794 283.646 238.536 284.127C236.277 284.609 233.273 284.939 229.52 285.114V285.902C232.593 285.755 235.117 285.528 237.094 285.222C239.071 284.915 240.621 284.589 241.745 284.239C242.868 283.889 243.665 283.574 244.136 283.296C244.607 283.017 244.889 282.866 244.978 282.838L245.066 282.925L246.218 291.725C246.069 292.048 245.457 292.338 244.382 292.601C243.303 292.863 241.894 293.09 240.15 293.281C238.407 293.472 236.474 293.624 234.348 293.739C232.222 293.855 230.044 293.914 227.813 293.914C225.583 293.914 223.42 293.862 221.323 293.759C219.225 293.656 217.345 293.488 215.678 293.254C214.011 293.019 212.69 292.712 211.716 292.334C210.741 291.956 210.254 291.502 210.254 290.977V283.534H225.623V282.746H210.254V277.23H228.502C227.97 276.967 227.262 276.677 226.376 276.355C225.49 276.032 224.54 275.742 223.521 275.479C222.502 275.216 221.52 275.041 220.578 274.954L221.818 270.094C220.429 271.698 218.734 273.043 216.725 274.122C214.715 275.2 212.428 275.933 209.859 276.311L207.512 267.205H207.508Z" fill="#FFFA92" stroke="#0B454F" stroke-width="0.805282" stroke-miterlimit="10"/>
<path d="M270.932 264.183V282.615C270.932 285.214 269.929 287.307 267.92 288.899C265.911 290.491 262.96 291.287 259.062 291.287C256.554 291.287 254.42 290.909 252.66 290.149C250.905 289.389 249.56 288.362 248.63 287.064C247.7 285.767 247.22 284.314 247.188 282.71V264.315C247.188 262.739 247.647 261.302 248.561 260.004C249.475 258.707 250.82 257.676 252.592 256.92C254.363 256.16 256.517 255.782 259.058 255.782C262.867 255.782 265.77 256.578 267.763 258.166C269.756 259.758 270.811 261.764 270.928 264.183H270.932ZM259.726 278.806V268.255C259.726 268.167 259.698 268.036 259.638 267.861C259.578 267.686 259.388 267.598 259.062 267.598C258.768 267.598 258.591 267.686 258.531 267.861C258.47 268.036 258.442 268.167 258.442 268.255V278.806C258.442 278.866 258.47 278.981 258.531 279.156C258.591 279.331 258.768 279.419 259.062 279.419C259.388 279.419 259.578 279.331 259.638 279.156C259.698 278.981 259.726 278.866 259.726 278.806Z" fill="#FFFA92" stroke="#0B454F" stroke-width="0.805282" stroke-miterlimit="10"/>
<path d="M289.296 255.38H277.161L272.329 274.488H276.352L271.927 293.591H284.062L288.491 274.484H284.465L289.296 255.38Z" fill="#FFFA92" stroke="#0B454F" stroke-width="0.805282" stroke-miterlimit="10"/>
<path d="M115.799 271.713C115.799 271.713 120.208 279.248 131.139 279.248V276.37C131.139 276.37 123.71 274.949 120.489 264.661" fill="#FFDD4D"/>
<path d="M115.799 271.713C115.799 271.713 120.208 279.248 131.139 279.248V276.37C131.139 276.37 123.71 274.949 120.489 264.661" stroke="#0B454F" stroke-width="1.0066" stroke-linecap="round" stroke-linejoin="round"/>
<path d="M120.002 261.023C120.002 261.023 120.002 261.015 120.002 261.011C117.317 256.88 118.669 251.921 116.06 251.921C113.802 251.921 111.74 256.804 113.946 259.73H113.918C110.379 259.73 109.409 262.567 109.409 266.066C109.409 269.564 110.379 272.402 113.918 272.402C117.457 272.402 122.225 272.02 122.225 266.066C122.225 263.471 121.319 261.935 120.002 261.027V261.023Z" fill="#FFDD4D" stroke="#0B454F" stroke-width="1.0066" stroke-linecap="round" stroke-linejoin="round"/>
<path d="M112.988 264.8C115.792 264.8 118.065 263.665 118.065 262.265C118.065 260.865 115.792 259.73 112.988 259.73C110.184 259.73 107.911 260.865 107.911 262.265C107.911 263.665 110.184 264.8 112.988 264.8Z" fill="#FFDD4D" stroke="#0B454F" stroke-width="1.0066" stroke-linecap="round" stroke-linejoin="round"/>
<path d="M112.988 272.49C115.792 272.49 118.065 271.355 118.065 269.955C118.065 268.554 115.792 267.419 112.988 267.419C110.184 267.419 107.911 268.554 107.911 269.955C107.911 271.355 110.184 272.49 112.988 272.49Z" fill="#FFDD4D" stroke="#0B454F" stroke-width="1.0066" stroke-linecap="round" stroke-linejoin="round"/>
<path d="M112.074 268.784C114.878 268.784 117.151 267.649 117.151 266.249C117.151 264.849 114.878 263.714 112.074 263.714C109.27 263.714 106.997 264.849 106.997 266.249C106.997 267.649 109.27 268.784 112.074 268.784Z" fill="#FFDD4D" stroke="#0B454F" stroke-width="1.0066" stroke-linecap="round" stroke-linejoin="round"/>
<path d="M115.818 248.47V244.821" stroke="#0B454F" stroke-width="1.0066" stroke-linecap="round" stroke-linejoin="round"/>
<path d="M112.783 249.326L111.365 245.959" stroke="#0B454F" stroke-width="1.0066" stroke-linecap="round" stroke-linejoin="round"/>
<path d="M118.854 249.326L120.272 245.959" stroke="#0B454F" stroke-width="1.0066" stroke-linecap="round" stroke-linejoin="round"/>
<path d="M144.897 299.764C148.698 299.764 151.778 296.719 151.778 292.963C151.778 289.206 148.698 286.161 144.897 286.161C141.097 286.161 138.016 289.206 138.016 292.963C138.016 296.719 141.097 299.764 144.897 299.764Z" fill="#FFDD4D" stroke="#0B454F" stroke-width="1.0066" stroke-linecap="round" stroke-linejoin="round"/>
<path d="M145.324 248.307H144.475C143.463 248.307 142.643 249.118 142.643 250.118V255.523C142.643 256.523 143.463 257.334 144.475 257.334H145.324C146.336 257.334 147.156 256.523 147.156 255.523V250.118C147.156 249.118 146.336 248.307 145.324 248.307Z" fill="#FFDD4D" stroke="#0B454F" stroke-width="1.0066" stroke-linecap="round" stroke-linejoin="round"/>
<path d="M160.576 275.021V269.485C160.576 261.039 153.876 253.903 145.336 253.672C136.474 253.433 129.219 260.462 129.219 269.162V275.021C129.219 279.661 128.059 284.226 125.84 288.318L123.32 292.962H166.475L163.954 288.318C161.736 284.23 160.576 279.661 160.576 275.021Z" fill="#FFDD4D" stroke="#0B454F" stroke-width="1.0066" stroke-linecap="round" stroke-linejoin="round"/>
<path d="M139.832 274.841C140.722 276.728 142.655 278.037 144.897 278.037C147.14 278.037 149.073 276.728 149.962 274.841" stroke="#0B454F" stroke-width="1.0066" stroke-linecap="round" stroke-linejoin="round"/>
<path d="M140.303 273.87C140.375 274.145 140.21 274.527 139.868 274.802C139.526 275.076 139.111 275.16 138.854 275.033" stroke="#0B454F" stroke-width="1.0066" stroke-linecap="round" stroke-linejoin="round"/>
<path d="M149.491 273.87C149.419 274.145 149.584 274.527 149.926 274.802C150.269 275.076 150.683 275.16 150.941 275.033" stroke="#0B454F" stroke-width="1.0066" stroke-linecap="round" stroke-linejoin="round"/>
<path d="M144.897 274.487C146.231 274.487 147.313 273.62 147.313 272.549C147.313 271.479 146.231 270.611 144.897 270.611C143.563 270.611 142.481 271.479 142.481 272.549C142.481 273.62 143.563 274.487 144.897 274.487Z" fill="#FF6A87" stroke="#0B454F" stroke-width="1.0066" stroke-linecap="round" stroke-linejoin="round"/>
<path d="M141.165 270.348C141.432 270.348 141.648 269.564 141.648 268.597C141.648 267.63 141.432 266.846 141.165 266.846C140.898 266.846 140.682 267.63 140.682 268.597C140.682 269.564 140.898 270.348 141.165 270.348Z" fill="#0B454F" stroke="#0B454F" stroke-width="1.0066" stroke-linecap="round" stroke-linejoin="round"/>
<path d="M148.634 270.348C148.901 270.348 149.117 269.564 149.117 268.597C149.117 267.63 148.901 266.846 148.634 266.846C148.367 266.846 148.151 267.63 148.151 268.597C148.151 269.564 148.367 270.348 148.634 270.348Z" fill="#0B454F" stroke="#0B454F" stroke-width="1.0066" stroke-linecap="round" stroke-linejoin="round"/>
<path opacity="0.9" d="M154.988 263.391C155.29 263.917 155.567 264.486 155.805 265.107" stroke="white" stroke-width="1.0066" stroke-miterlimit="10" stroke-linecap="round"/>
<path opacity="0.9" d="M148.151 257.887C148.151 257.887 151.013 258.647 153.429 261.274" stroke="white" stroke-width="1.0066" stroke-miterlimit="10" stroke-linecap="round"/>
</g>
<path d="M91.4067 333.899H78.4709V332.85H91.4067V333.899ZM85.5109 338.873H84.2872V333.47H85.5109V338.873ZM84.907 325.318C85.8923 325.318 86.761 325.445 87.5133 325.699C88.2655 325.953 88.8482 326.316 89.2613 326.788C89.6745 327.254 89.8811 327.802 89.8811 328.433C89.8811 329.052 89.6745 329.595 89.2613 330.061C88.8482 330.522 88.2628 330.877 87.5053 331.126C86.7531 331.375 85.887 331.5 84.907 331.5C83.9217 331.5 83.0556 331.375 82.3087 331.126C81.5618 330.877 80.9791 330.522 80.5606 330.061C80.1422 329.595 79.9329 329.052 79.9329 328.433C79.9329 327.802 80.1422 327.254 80.5606 326.788C80.9791 326.316 81.5618 325.953 82.3087 325.699C83.0556 325.445 83.9217 325.318 84.907 325.318ZM84.907 326.335C84.176 326.335 83.5324 326.42 82.9762 326.589C82.42 326.759 81.9856 327.005 81.6731 327.328C81.3658 327.646 81.2149 328.014 81.2201 328.433C81.2149 328.846 81.3658 329.209 81.6731 329.521C81.9856 329.834 82.42 330.075 82.9762 330.244C83.5324 330.414 84.176 330.498 84.907 330.498C85.638 330.498 86.2816 330.414 86.8379 330.244C87.3941 330.075 87.8284 329.834 88.141 329.521C88.4535 329.209 88.6098 328.846 88.6098 328.433C88.6098 328.014 88.4562 327.646 88.1489 327.328C87.8417 327.005 87.4073 326.759 86.8458 326.589C86.2843 326.42 85.638 326.335 84.907 326.335ZM104.012 338.905H102.772V324.746H104.012V338.905ZM94.3499 334.424C95.6318 334.429 96.8237 334.395 97.9255 334.32C99.0326 334.246 100.193 334.111 101.406 333.915L101.533 334.964C100.304 335.155 99.128 335.287 98.0049 335.361C96.8819 335.436 95.6636 335.473 94.3499 335.473H93.1739V334.424H94.3499ZM99.7212 331.086H94.4452V334.821H93.1739V330.069H98.4658V327.098H93.1421V326.065H99.7212V331.086ZM119.096 332.739H106.208V331.738H119.096V332.739ZM113.248 332.167H112.04V329.466H113.248V332.167ZM117.587 330.085H107.845V329.068H117.587V330.085ZM117.491 326.414H109.069V329.688H107.845V325.413H117.491V326.414ZM112.644 333.772C113.651 333.772 114.517 333.873 115.243 334.074C115.968 334.275 116.525 334.567 116.911 334.948C117.303 335.324 117.502 335.78 117.507 336.315C117.502 336.855 117.306 337.313 116.919 337.689C116.538 338.066 115.982 338.354 115.251 338.556C114.52 338.762 113.651 338.868 112.644 338.873C111.627 338.868 110.753 338.762 110.022 338.556C109.291 338.354 108.732 338.063 108.346 337.682C107.959 337.305 107.766 336.85 107.766 336.315C107.766 335.78 107.959 335.324 108.346 334.948C108.732 334.567 109.291 334.275 110.022 334.074C110.753 333.873 111.627 333.772 112.644 333.772ZM112.644 334.757C111.892 334.757 111.246 334.818 110.706 334.94C110.165 335.062 109.749 335.242 109.458 335.481C109.172 335.714 109.032 335.992 109.037 336.315C109.032 336.643 109.172 336.924 109.458 337.157C109.749 337.39 110.165 337.568 110.706 337.689C111.246 337.811 111.892 337.872 112.644 337.872C113.386 337.872 114.027 337.811 114.567 337.689C115.108 337.568 115.523 337.39 115.815 337.157C116.106 336.924 116.252 336.643 116.252 336.315C116.252 335.992 116.106 335.714 115.815 335.481C115.523 335.242 115.108 335.062 114.567 334.94C114.027 334.818 113.386 334.757 112.644 334.757ZM122.008 334.567H120.768V326.287H122.008V334.567ZM121.658 334.201C122.585 334.201 123.441 334.169 124.225 334.106C125.014 334.042 125.832 333.921 126.68 333.74L126.855 334.821C125.986 335.006 125.149 335.131 124.344 335.194C123.539 335.258 122.643 335.292 121.658 335.298H120.768V334.201H121.658ZM132.163 338.873H130.971V324.746H132.163V338.873ZM128.301 330.546H124.725V329.513H128.301V330.546ZM129.143 338.158H127.951V325.095H129.143V338.158ZM148.855 331.945H147.616V324.746H148.855V331.945ZM150.985 328.862H148.299V327.813H150.985V328.862ZM148.855 336.061H141.1V338.222H139.876V335.107H147.616V333.613H139.845V332.612H148.855V336.061ZM149.38 338.683H139.876V337.682H149.38V338.683ZM141.752 325.27C142.456 325.27 143.086 325.403 143.643 325.667C144.204 325.932 144.641 326.303 144.954 326.78C145.266 327.251 145.423 327.792 145.423 328.401C145.423 329.01 145.266 329.553 144.954 330.03C144.641 330.501 144.204 330.872 143.643 331.142C143.086 331.412 142.456 331.547 141.752 331.547C141.052 331.547 140.425 331.412 139.868 331.142C139.312 330.872 138.875 330.501 138.557 330.03C138.239 329.553 138.081 329.01 138.081 328.401C138.081 327.792 138.239 327.251 138.557 326.78C138.875 326.303 139.312 325.932 139.868 325.667C140.425 325.403 141.052 325.27 141.752 325.27ZM141.752 326.319C141.285 326.314 140.867 326.401 140.496 326.581C140.125 326.756 139.834 327.002 139.622 327.32C139.41 327.638 139.304 327.998 139.304 328.401C139.304 328.809 139.41 329.174 139.622 329.497C139.834 329.815 140.125 330.067 140.496 330.252C140.867 330.438 141.285 330.53 141.752 330.53C142.218 330.53 142.639 330.438 143.015 330.252C143.391 330.067 143.682 329.815 143.889 329.497C144.096 329.174 144.199 328.809 144.199 328.401C144.199 327.998 144.096 327.638 143.889 327.32C143.682 327.002 143.388 326.756 143.007 326.581C142.631 326.401 142.212 326.314 141.752 326.319ZM163.431 329.609H158.52V328.607H163.431V329.609ZM163.304 326.319H159.776V328.925H158.52V325.302H163.304V326.319ZM157.678 326.319H154.15V328.925H152.879V325.302H157.678V326.319ZM153.689 328.607C154.468 328.607 155.191 328.578 155.859 328.52C156.531 328.456 157.217 328.343 157.917 328.178L158.075 329.179C157.329 329.344 156.608 329.458 155.914 329.521C155.22 329.579 154.479 329.609 153.689 329.609H152.879V328.607H153.689ZM164.543 331.818H151.671V330.8H164.543V331.818ZM162.891 336.283H154.5V338.031H153.26V335.361H161.667V334.09H153.229V333.137H162.891V336.283ZM163.32 338.714H153.26V337.713H163.32V338.714ZM173.974 327.431C173.974 328.284 173.809 329.084 173.481 329.831C173.152 330.573 172.686 331.219 172.082 331.77C171.484 332.315 170.79 332.729 170.001 333.009L169.365 332.008C170.064 331.77 170.687 331.42 171.232 330.959C171.778 330.493 172.202 329.958 172.504 329.354C172.811 328.745 172.967 328.104 172.972 327.431V326.271H173.974V327.431ZM174.196 327.431C174.196 328.041 174.342 328.623 174.633 329.179C174.924 329.73 175.33 330.218 175.849 330.642C176.373 331.065 176.977 331.388 177.66 331.611L177.072 332.596C176.288 332.337 175.605 331.953 175.022 331.444C174.44 330.93 173.987 330.329 173.664 329.64C173.34 328.952 173.179 328.215 173.179 327.431V326.271H174.196V327.431ZM177.374 326.828H169.746V325.795H177.374V326.828ZM180.457 333.28H179.218V324.746H180.457V333.28ZM182.587 329.402H180.108V328.353H182.587V329.402ZM175.928 333.661C176.892 333.661 177.724 333.762 178.423 333.963C179.122 334.164 179.657 334.458 180.028 334.845C180.399 335.232 180.584 335.695 180.584 336.235C180.584 336.781 180.399 337.247 180.028 337.634C179.657 338.026 179.122 338.325 178.423 338.532C177.724 338.738 176.892 338.842 175.928 338.842C174.964 338.842 174.13 338.738 173.425 338.532C172.721 338.325 172.18 338.026 171.804 337.634C171.428 337.247 171.24 336.781 171.24 336.235C171.24 335.695 171.428 335.232 171.804 334.845C172.18 334.458 172.721 334.164 173.425 333.963C174.13 333.762 174.964 333.661 175.928 333.661ZM175.928 334.662C175.224 334.662 174.612 334.723 174.093 334.845C173.579 334.967 173.182 335.149 172.901 335.393C172.625 335.632 172.49 335.912 172.496 336.235C172.49 336.569 172.625 336.858 172.901 337.101C173.182 337.34 173.579 337.523 174.093 337.65C174.612 337.777 175.224 337.84 175.928 337.84C176.638 337.84 177.252 337.777 177.772 337.65C178.291 337.523 178.688 337.34 178.963 337.101C179.239 336.858 179.377 336.569 179.377 336.235C179.377 335.907 179.239 335.624 178.963 335.385C178.688 335.147 178.291 334.967 177.772 334.845C177.252 334.723 176.638 334.662 175.928 334.662ZM196.209 337.062H183.273V336.029H196.209V337.062ZM190.313 336.347H189.09V332.612H190.313V336.347ZM186.054 328.305H193.396V325.747H194.62V332.978H184.799V325.747H186.054V328.305ZM193.396 331.961V329.323H186.054V331.961H193.396ZM208.814 338.873H207.559V324.746H208.814V338.873ZM204.635 326.287C204.63 327.686 204.397 328.994 203.936 330.212C203.48 331.431 202.76 332.554 201.774 333.581C200.789 334.604 199.528 335.483 197.992 336.219L197.309 335.202C198.67 334.556 199.801 333.793 200.702 332.914C201.608 332.035 202.28 331.06 202.72 329.99C203.165 328.915 203.39 327.744 203.395 326.478V326.287H204.635ZM203.904 327.304H197.96V326.287H203.904V327.304ZM219.707 329.084C219.707 330.059 219.521 331.02 219.15 331.968C218.78 332.917 218.282 333.759 217.657 334.495C217.037 335.232 216.359 335.785 215.622 336.156L214.876 335.171C215.548 334.848 216.173 334.36 216.751 333.709C217.333 333.052 217.8 332.315 218.149 331.5C218.499 330.684 218.674 329.879 218.674 329.084V326.748H219.707V329.084ZM219.929 329.084C219.929 329.863 220.104 330.639 220.453 331.412C220.803 332.18 221.269 332.866 221.852 333.47C222.435 334.074 223.07 334.524 223.759 334.821L223.06 335.806C222.292 335.457 221.592 334.938 220.962 334.249C220.337 333.56 219.839 332.768 219.468 331.873C219.103 330.973 218.923 330.043 218.928 329.084V326.748H219.929V329.084ZM223.298 327.241H215.336V326.208H223.298V327.241ZM226.524 338.873H225.269V324.746H226.524V338.873ZM239.558 326.541H230.373V325.509H239.558V326.541ZM241.672 331.738H228.736V330.705H241.672V331.738ZM239.972 326.557C239.972 327.378 239.945 328.125 239.892 328.798C239.839 329.466 239.712 330.234 239.511 331.102L238.271 331.023C238.414 330.44 238.518 329.892 238.581 329.378C238.65 328.864 238.692 328.414 238.708 328.027C238.724 327.635 238.732 327.177 238.732 326.653V326.557V325.509H239.972V326.557ZM240.035 338.683H230.325V333.693H240.035V338.683ZM231.565 337.666H238.796V334.678H231.565V337.666ZM251.293 328.544C251.293 329.593 251.113 330.61 250.753 331.595C250.392 332.58 249.9 333.454 249.275 334.217C248.65 334.975 247.956 335.547 247.193 335.933L246.398 334.885C247.097 334.567 247.741 334.077 248.329 333.415C248.917 332.752 249.383 331.995 249.728 331.142C250.077 330.284 250.255 329.418 250.26 328.544V325.969H251.293V328.544ZM251.499 328.544C251.499 329.381 251.672 330.21 252.016 331.031C252.36 331.852 252.824 332.586 253.406 333.232C253.994 333.873 254.635 334.35 255.329 334.662L254.567 335.647C253.804 335.277 253.11 334.728 252.485 334.003C251.86 333.277 251.364 332.44 250.999 331.492C250.633 330.544 250.451 329.561 250.451 328.544V325.969H251.499V328.544ZM258.126 338.905H256.871V324.746H258.126V338.905ZM264.899 327.368C264.899 328.215 264.735 329.01 264.407 329.752C264.078 330.493 263.615 331.137 263.016 331.682C262.423 332.228 261.737 332.644 260.958 332.93L260.291 331.961C260.99 331.712 261.612 331.357 262.158 330.896C262.704 330.43 263.127 329.892 263.429 329.283C263.737 328.674 263.893 328.035 263.898 327.368V326.208H264.899V327.368ZM265.122 327.368C265.122 327.988 265.267 328.584 265.559 329.156C265.85 329.722 266.258 330.228 266.783 330.673C267.307 331.113 267.913 331.452 268.602 331.69L267.966 332.66C267.193 332.384 266.515 331.984 265.932 331.46C265.35 330.936 264.899 330.321 264.582 329.617C264.264 328.912 264.105 328.162 264.105 327.368V326.208H265.122V327.368ZM268.3 326.764H260.672V325.747H268.3V326.764ZM271.383 333.264H270.144V324.746H271.383V333.264ZM273.513 329.545H271.034V328.48H273.513V329.545ZM271.383 338.873H270.144V335.028H262.134V334.011H271.383V338.873ZM285.133 338.873H283.893V324.746H285.133V338.873ZM287.5 331.611H284.847V330.578H287.5V331.611ZM282.526 328.051H274.12V327.018H282.526V328.051ZM278.395 329.227C279.051 329.227 279.642 329.365 280.166 329.64C280.691 329.916 281.101 330.3 281.398 330.792C281.7 331.285 281.854 331.844 281.859 332.469C281.854 333.099 281.7 333.661 281.398 334.154C281.101 334.641 280.691 335.022 280.166 335.298C279.642 335.573 279.051 335.711 278.395 335.711C277.732 335.711 277.136 335.573 276.607 335.298C276.082 335.022 275.672 334.641 275.375 334.154C275.078 333.661 274.93 333.099 274.93 332.469C274.93 331.844 275.078 331.285 275.375 330.792C275.672 330.3 276.082 329.916 276.607 329.64C277.136 329.365 277.732 329.227 278.395 329.227ZM278.395 330.276C277.96 330.276 277.571 330.369 277.227 330.554C276.882 330.74 276.612 331.002 276.416 331.341C276.22 331.674 276.122 332.051 276.122 332.469C276.122 332.893 276.22 333.269 276.416 333.597C276.612 333.926 276.882 334.185 277.227 334.376C277.571 334.561 277.96 334.652 278.395 334.646C278.824 334.652 279.21 334.561 279.555 334.376C279.904 334.185 280.174 333.926 280.365 333.597C280.561 333.269 280.662 332.893 280.667 332.469C280.662 332.051 280.561 331.674 280.365 331.341C280.174 331.002 279.904 330.74 279.555 330.554C279.21 330.369 278.824 330.276 278.395 330.276ZM278.998 327.495H277.759V324.921H278.998V327.495ZM296.451 330.88H293.67V329.815H296.451V330.88ZM292.033 328.814C292.033 329.783 291.898 330.729 291.628 331.651C291.357 332.567 290.968 333.391 290.46 334.122C289.956 334.848 289.368 335.414 288.696 335.822L287.901 334.885C288.537 334.514 289.093 334.005 289.57 333.359C290.046 332.713 290.412 331.998 290.666 331.214C290.92 330.424 291.047 329.624 291.047 328.814V326.081H292.033V328.814ZM292.255 328.766C292.255 329.524 292.374 330.279 292.613 331.031C292.851 331.778 293.193 332.461 293.638 333.081C294.088 333.701 294.618 334.191 295.227 334.551L294.512 335.52C293.844 335.118 293.267 334.559 292.78 333.844C292.292 333.129 291.922 332.331 291.667 331.452C291.418 330.573 291.296 329.677 291.302 328.766V326.081H292.255V328.766ZM300.169 338.873H298.962V324.746H300.169V338.873ZM297.245 338.158H296.069V325.048H297.245V338.158ZM306.354 336.267H305.131V332.04H306.354V336.267ZM311.646 336.267H310.391V332.04H311.646V336.267ZM314.856 337.062H301.921V336.013H314.856V337.062ZM308.357 325.636C309.358 325.641 310.248 325.795 311.027 326.096C311.811 326.393 312.422 326.82 312.862 327.376C313.302 327.927 313.522 328.56 313.522 329.275C313.522 329.995 313.302 330.628 312.862 331.174C312.422 331.72 311.811 332.143 311.027 332.445C310.248 332.747 309.358 332.898 308.357 332.898C307.356 332.898 306.463 332.747 305.679 332.445C304.9 332.143 304.291 331.72 303.851 331.174C303.412 330.628 303.192 329.995 303.192 329.275C303.192 328.56 303.412 327.927 303.851 327.376C304.291 326.82 304.9 326.393 305.679 326.096C306.463 325.795 307.356 325.641 308.357 325.636ZM308.357 326.669C307.589 326.663 306.903 326.769 306.299 326.986C305.7 327.198 305.234 327.503 304.9 327.9C304.567 328.297 304.4 328.756 304.4 329.275C304.4 329.794 304.567 330.252 304.9 330.649C305.234 331.047 305.7 331.357 306.299 331.579C306.903 331.802 307.589 331.913 308.357 331.913C309.12 331.913 309.8 331.802 310.399 331.579C310.997 331.357 311.466 331.047 311.805 330.649C312.144 330.252 312.314 329.794 312.314 329.275C312.314 328.756 312.144 328.297 311.805 327.9C311.466 327.503 310.997 327.198 310.399 326.986C309.8 326.769 309.12 326.663 308.357 326.669ZM317.275 337.682C317.09 337.682 316.918 337.634 316.759 337.539C316.605 337.443 316.481 337.319 316.385 337.165C316.295 337.006 316.253 336.834 316.258 336.649C316.253 336.468 316.295 336.299 316.385 336.14C316.481 335.981 316.605 335.857 316.759 335.767C316.918 335.677 317.09 335.632 317.275 335.632C317.461 335.632 317.63 335.677 317.784 335.767C317.943 335.857 318.067 335.981 318.157 336.14C318.247 336.299 318.292 336.468 318.292 336.649C318.292 336.834 318.247 337.006 318.157 337.165C318.067 337.319 317.943 337.443 317.784 337.539C317.63 337.634 317.461 337.682 317.275 337.682Z" fill="#4F4F4F"/>
<path d="M177.984 494.335H175.973V482.678H177.984V494.335ZM180.246 488.98H177.394V487.336H180.246V488.98ZM173.595 483.903C173.595 485.321 173.297 486.606 172.701 487.756C172.105 488.9 171.238 489.889 170.1 490.724C168.967 491.552 167.603 492.201 166.006 492.672L165.165 491.09C166.506 490.703 167.644 490.199 168.58 489.579C169.522 488.954 170.237 488.241 170.725 487.443C171.214 486.644 171.458 485.786 171.458 484.868V483.903H173.595ZM172.549 485.539H165.863V483.903H172.549V485.539ZM178.601 498.536H167.606V496.909H178.601V498.536ZM169.608 497.616H167.606V493.146H169.608V497.616ZM194.389 494.621H192.405V482.678H194.389V494.621ZM189.884 485.485H181.294V483.894H189.884V485.485ZM180.954 490.858C182.777 490.852 184.446 490.825 185.96 490.777C187.479 490.729 188.901 490.631 190.224 490.482L190.304 491.948C188.939 492.163 187.482 492.309 185.933 492.386C184.384 492.458 182.769 492.496 181.088 492.502L180.864 490.858H180.954ZM184.628 491.108H182.706V485.289H184.628V491.108ZM188.445 491.108H186.541V485.289H188.445V491.108ZM193.46 487.21H190.125V485.61H193.46V487.21ZM193.46 490.402H190.125V488.766H193.46V490.402ZM194.792 498.536H183.761V496.909H194.792V498.536ZM185.763 498.08H183.761V493.691H185.763V498.08ZM213.291 498.813H211.306V482.678H213.291V498.813ZM215.687 490.643H212.781V488.998H215.687V490.643ZM209.027 484.368C209.021 486.013 208.774 487.544 208.285 488.963C207.796 490.375 207.007 491.674 205.916 492.86C204.826 494.046 203.413 495.068 201.679 495.926L200.562 494.389C202.016 493.656 203.225 492.815 204.191 491.868C205.156 490.914 205.877 489.847 206.354 488.668C206.831 487.482 207.069 486.165 207.069 484.716V484.368H209.027ZM208.079 486.004H201.402V484.368H208.079V486.004ZM229.705 491.358H227.712V482.678H229.705V491.358ZM220.981 493.754H227.721V492.1H229.705V498.635H219.023V492.1H220.981V493.754ZM227.721 497.026V495.309H220.981V497.026H227.721ZM220.9 483.393C221.723 483.388 222.465 483.545 223.126 483.867C223.788 484.189 224.306 484.639 224.681 485.217C225.063 485.795 225.254 486.451 225.254 487.184C225.254 487.905 225.063 488.551 224.681 489.123C224.306 489.69 223.788 490.137 223.126 490.464C222.465 490.786 221.723 490.947 220.9 490.947C220.072 490.947 219.327 490.786 218.665 490.464C218.01 490.137 217.491 489.69 217.11 489.123C216.735 488.551 216.547 487.905 216.547 487.184C216.547 486.445 216.735 485.789 217.11 485.217C217.491 484.639 218.01 484.189 218.665 483.867C219.327 483.545 220.072 483.388 220.9 483.393ZM220.9 485.056C220.429 485.056 220.012 485.143 219.649 485.315C219.285 485.488 218.999 485.738 218.791 486.066C218.588 486.388 218.487 486.761 218.487 487.184C218.487 487.607 218.588 487.979 218.791 488.301C218.999 488.617 219.285 488.864 219.649 489.043C220.012 489.222 220.429 489.311 220.9 489.311C221.365 489.311 221.779 489.222 222.143 489.043C222.506 488.864 222.786 488.617 222.983 488.301C223.186 487.979 223.287 487.607 223.287 487.184C223.287 486.761 223.186 486.388 222.983 486.066C222.786 485.738 222.506 485.488 222.143 485.315C221.779 485.143 221.365 485.056 220.9 485.056Z" fill="#212121"/>
<path d="M35.3884 490.454H155.402" stroke="#E0E0E0" stroke-width="1.01707"/>
<path d="M239.819 490.454H359.833" stroke="#E0E0E0" stroke-width="1.01707"/>
<circle cx="112.686" cy="568.768" r="30.512" fill="#FCE100"/>
<path d="M113.053 553.512C103.56 553.512 95.9041 559.636 95.9041 567.071C95.9041 571.898 99.0888 576.123 103.866 578.536L102.249 584.575C102.219 584.666 102.214 584.763 102.235 584.856C102.257 584.949 102.304 585.034 102.371 585.102C102.47 585.188 102.596 585.236 102.727 585.237C102.835 585.228 102.938 585.185 103.021 585.114L109.978 580.423C111.005 580.565 112.04 580.638 113.077 580.643C122.558 580.643 130.226 574.519 130.226 567.071C130.226 559.624 122.533 553.512 113.053 553.512Z" fill="#392020"/>
<path d="M101.905 564.928H100.031C99.7991 564.935 99.5696 564.875 99.3699 564.756C99.2812 564.701 99.205 564.627 99.1459 564.541C99.0869 564.455 99.0464 564.357 99.0269 564.254C99.021 564.189 99.021 564.123 99.0269 564.058C99.0211 563.936 99.0448 563.815 99.096 563.704C99.1471 563.593 99.2243 563.496 99.3209 563.421C99.5344 563.267 99.7922 563.185 100.056 563.188H105.703C105.937 563.18 106.168 563.244 106.364 563.372C106.455 563.425 106.533 563.498 106.592 563.585C106.651 563.672 106.691 563.771 106.707 563.874C106.713 563.936 106.713 563.997 106.707 564.058C106.713 564.182 106.689 564.305 106.638 564.418C106.587 564.531 106.51 564.63 106.413 564.707C106.205 564.862 105.949 564.94 105.69 564.928H103.878V571.371C103.885 571.508 103.864 571.645 103.815 571.774C103.767 571.903 103.692 572.02 103.596 572.118C103.504 572.212 103.393 572.286 103.27 572.334C103.148 572.383 103.017 572.405 102.885 572.4C102.655 572.406 102.43 572.333 102.248 572.192C102.075 572.054 101.958 571.858 101.918 571.64C101.906 571.551 101.906 571.46 101.918 571.371L101.905 564.928Z" fill="#FEE500"/>
<path d="M107.248 563.666C107.302 563.465 107.428 563.29 107.603 563.176C107.789 563.071 108.002 563.02 108.215 563.029H108.681C108.908 563.021 109.133 563.076 109.33 563.188C109.539 563.329 109.688 563.543 109.747 563.789L112.196 570.709C112.26 570.89 112.313 571.074 112.356 571.261C112.36 571.338 112.36 571.416 112.356 571.493C112.36 571.613 112.338 571.731 112.291 571.842C112.245 571.952 112.175 572.05 112.086 572.13C112 572.218 111.897 572.288 111.783 572.334C111.67 572.38 111.548 572.403 111.425 572.4C111.236 572.418 111.046 572.373 110.886 572.271C110.726 572.169 110.605 572.016 110.543 571.836L110.028 570.33H106.807L106.292 571.836C106.232 572.019 106.109 572.175 105.946 572.278C105.783 572.381 105.589 572.424 105.398 572.4C105.191 572.405 104.988 572.34 104.822 572.216C104.661 572.088 104.552 571.905 104.516 571.702C104.51 571.632 104.51 571.563 104.516 571.493C104.495 571.372 104.495 571.247 104.516 571.126C104.516 570.991 104.602 570.844 104.651 570.709L107.248 563.666ZM108.473 565.271L107.309 568.946H109.624L108.473 565.271Z" fill="#FEE500"/>
<path d="M112.636 564.058C112.624 563.783 112.721 563.515 112.906 563.311C113 563.216 113.113 563.142 113.237 563.093C113.362 563.045 113.495 563.023 113.628 563.029C113.858 563.026 114.082 563.1 114.265 563.237C114.435 563.381 114.548 563.581 114.584 563.801C114.596 563.886 114.596 563.973 114.584 564.058V570.501H117.952C118.186 570.498 118.415 570.562 118.614 570.685C118.703 570.74 118.779 570.813 118.838 570.899C118.898 570.986 118.938 571.084 118.957 571.187C118.957 571.187 118.957 571.309 118.957 571.371C118.962 571.493 118.939 571.614 118.887 571.725C118.836 571.836 118.759 571.933 118.663 572.008C118.449 572.162 118.191 572.244 117.928 572.24H113.787C113.524 572.257 113.262 572.189 113.04 572.044C112.842 571.896 112.71 571.676 112.673 571.432C112.664 571.297 112.664 571.162 112.673 571.028L112.636 564.058Z" fill="#FEE500"/>
<path d="M119.177 564.058C119.17 563.784 119.266 563.518 119.447 563.311C119.63 563.144 119.866 563.046 120.114 563.033C120.361 563.019 120.606 563.092 120.806 563.238C120.98 563.38 121.098 563.58 121.137 563.801C121.143 563.887 121.143 563.973 121.137 564.058V567.059L124.236 563.483C124.356 563.361 124.482 563.246 124.616 563.14C124.742 563.065 124.886 563.027 125.032 563.029C125.246 563.028 125.456 563.092 125.632 563.213C125.716 563.269 125.787 563.342 125.842 563.426C125.896 563.51 125.934 563.604 125.951 563.703C125.956 563.727 125.956 563.753 125.951 563.777C125.945 563.805 125.945 563.834 125.951 563.862C125.951 563.991 125.917 564.118 125.853 564.23C125.788 564.349 125.71 564.459 125.62 564.561L123.587 566.79L126.037 570.587V570.71C126.164 570.885 126.263 571.079 126.331 571.285V571.347C126.345 571.488 126.324 571.632 126.271 571.764C126.218 571.896 126.133 572.014 126.024 572.106C125.82 572.26 125.57 572.342 125.314 572.339C125.144 572.346 124.975 572.308 124.824 572.228C124.661 572.119 124.526 571.972 124.432 571.8L122.154 568.125L121.064 569.264V571.31C121.071 571.584 120.975 571.851 120.794 572.057C120.697 572.152 120.582 572.225 120.456 572.274C120.329 572.322 120.194 572.344 120.059 572.339C119.833 572.343 119.613 572.27 119.435 572.13C119.262 571.993 119.144 571.797 119.104 571.579C119.092 571.49 119.092 571.399 119.104 571.31L119.177 564.058Z" fill="#FEE500"/>
<circle cx="198.119" cy="568.768" r="30.512" fill="#5AC746"/>
<g clip-path="url(#clip2_123_2739)">
<path d="M202.466 569.626L193.416 556.563H185.915V580.973H193.773V567.907L202.823 580.973H210.324V556.563H202.466V569.626Z" fill="white"/>
</g>
<circle cx="283.553" cy="568.768" r="29.7492" fill="white" stroke="#E0E0E0" stroke-width="1.5256"/>
<path fill-rule="evenodd" clip-rule="evenodd" d="M297.283 569.08C297.283 568.107 297.194 567.17 297.028 566.272H283.833V571.583H291.373C291.048 573.299 290.061 574.753 288.577 575.727V579.172H293.105C295.754 576.782 297.283 573.262 297.283 569.08Z" fill="#4285F4"/>
<path fill-rule="evenodd" clip-rule="evenodd" d="M283.833 582.498C287.616 582.498 290.787 581.269 293.105 579.172L288.577 575.727C287.323 576.551 285.718 577.037 283.833 577.037C280.184 577.037 277.095 574.622 275.993 571.377H271.312V574.934C273.618 579.422 278.356 582.498 283.833 582.498Z" fill="#34A853"/>
<path fill-rule="evenodd" clip-rule="evenodd" d="M275.993 571.377C275.713 570.553 275.554 569.673 275.554 568.768C275.554 567.863 275.713 566.983 275.993 566.159V562.602H271.312C270.363 564.455 269.822 566.552 269.822 568.768C269.822 570.984 270.363 573.081 271.312 574.934L275.993 571.377Z" fill="#FBBC05"/>
<path fill-rule="evenodd" clip-rule="evenodd" d="M283.833 560.499C285.89 560.499 287.737 561.191 289.189 562.552L293.207 558.614C290.781 556.398 287.609 555.038 283.833 555.038C278.356 555.038 273.618 558.115 271.312 562.602L275.993 566.159C277.095 562.914 280.184 560.499 283.833 560.499Z" fill="#EA4335"/>
<path d="M92.2828 612.02C92.2775 613.482 92.0788 614.83 91.6868 616.064C91.3001 617.298 90.6274 618.453 89.6686 619.528C88.7151 620.598 87.4252 621.533 85.799 622.333L85.0997 621.38C86.5618 620.67 87.7325 619.846 88.6118 618.909C89.4911 617.971 90.1189 616.949 90.495 615.841C90.8764 614.729 91.0697 613.503 91.075 612.163V612.02H92.2828ZM91.806 613.052H85.8784V612.02H91.806V613.052ZM85.3699 617.01L85.1633 615.913L90.8525 615.532V616.485L85.3699 617.01ZM95.8902 624.669H94.6506V610.542H95.8902V624.669ZM98.1786 617.343H95.5724V616.294H98.1786V617.343ZM106.144 612.02C106.138 613.482 105.94 614.83 105.548 616.064C105.161 617.298 104.488 618.453 103.529 619.528C102.576 620.598 101.286 621.533 99.6597 622.333L98.9605 621.38C100.422 620.67 101.593 619.846 102.473 618.909C103.352 617.971 103.98 616.949 104.356 615.841C104.737 614.729 104.93 613.503 104.936 612.163V612.02H106.144ZM105.667 613.052H99.7392V612.02H105.667V613.052ZM99.2306 617.01L99.024 615.913L104.713 615.532V616.485L99.2306 617.01ZM109.751 624.669H108.511V610.542H109.751V624.669ZM112.039 617.343H109.433V616.294H112.039V617.343ZM119.718 622.063H118.495V618.519H119.718V622.063ZM119.114 611.463C120.11 611.469 121 611.625 121.784 611.932C122.568 612.234 123.18 612.666 123.62 613.227C124.059 613.789 124.279 614.435 124.279 615.166C124.279 615.908 124.059 616.557 123.62 617.113C123.18 617.669 122.568 618.101 121.784 618.408C121 618.715 120.11 618.869 119.114 618.869C118.118 618.869 117.231 618.715 116.452 618.408C115.674 618.101 115.062 617.669 114.617 617.113C114.172 616.551 113.949 615.902 113.949 615.166C113.949 614.435 114.172 613.789 114.617 613.227C115.062 612.666 115.674 612.234 116.452 611.932C117.231 611.625 118.118 611.469 119.114 611.463ZM119.114 612.496C118.357 612.496 117.676 612.608 117.072 612.83C116.474 613.052 116.005 613.368 115.666 613.776C115.327 614.178 115.157 614.642 115.157 615.166C115.157 615.701 115.327 616.173 115.666 616.58C116.005 616.983 116.474 617.298 117.072 617.526C117.671 617.748 118.351 617.862 119.114 617.868C119.877 617.862 120.558 617.748 121.156 617.526C121.755 617.298 122.224 616.983 122.563 616.58C122.902 616.173 123.071 615.701 123.071 615.166C123.071 614.642 122.902 614.178 122.563 613.776C122.224 613.368 121.752 613.052 121.148 612.83C120.55 612.608 119.872 612.496 119.114 612.496ZM125.614 622.858H112.678V621.809H125.614V622.858ZM139.411 619.187H126.523V618.17H139.411V619.187ZM133.579 618.519H132.339V616.231H133.579V618.519ZM137.743 624.669H136.471V621.459H127.969V620.442H137.743V624.669ZM137.886 616.66H128.239V615.691H137.886V616.66ZM137.806 611.924H129.495V616.151H128.239V610.923H137.806V611.924ZM137.425 614.244H129.113V613.275H137.425V614.244Z" fill="#4F4F4F"/>
<path d="M179.379 620.363H178.139V612.083H179.379V620.363ZM179.029 619.997C179.956 619.997 180.812 619.965 181.596 619.902C182.385 619.838 183.203 619.716 184.051 619.536L184.226 620.617C183.357 620.802 182.52 620.927 181.715 620.99C180.91 621.054 180.015 621.088 179.029 621.094H178.139V619.997H179.029ZM189.534 624.669H188.342V610.542H189.534V624.669ZM185.672 616.342H182.096V615.309H185.672V616.342ZM186.514 623.954H185.322V610.891H186.514V623.954ZM202.949 624.701H201.694V610.542H202.949V624.701ZM195.433 611.638C196.132 611.638 196.754 611.839 197.3 612.242C197.845 612.645 198.272 613.219 198.579 613.966C198.886 614.713 199.04 615.579 199.04 616.565C199.04 617.55 198.886 618.413 198.579 619.155C198.272 619.897 197.845 620.469 197.3 620.871C196.754 621.274 196.132 621.475 195.433 621.475C194.733 621.475 194.111 621.274 193.565 620.871C193.02 620.469 192.593 619.897 192.286 619.155C191.979 618.413 191.825 617.55 191.825 616.565C191.825 615.579 191.979 614.713 192.286 613.966C192.593 613.219 193.02 612.645 193.565 612.242C194.111 611.839 194.733 611.638 195.433 611.638ZM195.433 612.751C194.966 612.751 194.551 612.909 194.185 613.227C193.82 613.545 193.536 613.993 193.335 614.57C193.134 615.148 193.033 615.812 193.033 616.565C193.033 617.322 193.134 617.99 193.335 618.567C193.536 619.139 193.82 619.581 194.185 619.894C194.551 620.206 194.966 620.363 195.433 620.363C195.904 620.363 196.32 620.206 196.68 619.894C197.046 619.581 197.329 619.139 197.53 618.567C197.732 617.99 197.832 617.322 197.832 616.565C197.832 615.807 197.732 615.142 197.53 614.57C197.329 613.993 197.046 613.545 196.68 613.227C196.32 612.909 195.904 612.751 195.433 612.751ZM216.874 624.701H215.634V610.542H216.874V624.701ZM216 616.835H211.852V615.802H216V616.835ZM206.989 615.341H211.026V611.654H212.249V621.125H205.734V611.654H206.989V615.341ZM211.026 620.093V616.342H206.989V620.093H211.026Z" fill="#4F4F4F"/>
<path d="M280.46 612.496H271.545V611.463H280.46V612.496ZM282.796 618.567H269.924V617.534H282.796V618.567ZM276.964 624.701H275.708V618.217H276.964V624.701ZM281.095 612.782C281.095 613.423 281.088 613.99 281.072 614.483C281.056 614.97 281.005 615.529 280.921 616.159C280.841 616.784 280.719 617.46 280.555 618.186L279.316 618.027C279.48 617.327 279.599 616.67 279.673 616.056C279.753 615.442 279.803 614.893 279.824 614.411C279.845 613.929 279.856 613.381 279.856 612.766V612.703V611.463H281.095V612.703V612.782ZM294.607 612.178H285.421V611.161H294.607V612.178ZM296.72 616.835H283.784V615.834H296.72V616.835ZM295.02 612.067C295.02 612.793 294.999 613.463 294.956 614.078C294.914 614.687 294.808 615.373 294.638 616.135L293.415 615.992C293.574 615.261 293.674 614.615 293.717 614.054C293.759 613.487 293.78 612.862 293.78 612.178V612.067V611.161H295.02V612.067ZM295.067 621.825H286.597V623.827H285.342V620.839H293.828V619.266H285.326V618.265H295.067V621.825ZM295.433 624.51H285.342V623.493H295.433V624.51Z" fill="#4F4F4F"/>
<rect x="35.897" y="375.017" width="324.444" height="60.5974" rx="3.55974" fill="white"/>
<rect x="35.897" y="375.017" width="324.444" height="60.5974" rx="3.55974" stroke="#E0E0E0" stroke-width="1.01707"/>
<path d="M121.87 413.424H119.868V408.722H121.87V413.424ZM127.493 413.424H125.491V408.722H127.493V413.424ZM130.228 400.507H117.025V398.934H130.228V400.507ZM131.078 409.178H116.31V407.569H131.078V409.178ZM123.658 401.24C124.802 401.24 125.783 401.345 126.599 401.553C127.415 401.762 128.041 402.072 128.476 402.483C128.911 402.888 129.129 403.383 129.129 403.967C129.129 404.539 128.911 405.031 128.476 405.442C128.041 405.853 127.415 406.166 126.599 406.38C125.783 406.595 124.805 406.702 123.667 406.702C122.523 406.702 121.54 406.595 120.717 406.38C119.901 406.166 119.275 405.853 118.84 405.442C118.405 405.031 118.187 404.539 118.187 403.967C118.187 403.383 118.405 402.888 118.84 402.483C119.275 402.072 119.901 401.762 120.717 401.553C121.54 401.345 122.52 401.24 123.658 401.24ZM123.667 402.724C122.91 402.724 122.279 402.772 121.772 402.867C121.271 402.963 120.893 403.1 120.637 403.278C120.38 403.457 120.252 403.687 120.252 403.967C120.252 404.235 120.38 404.461 120.637 404.646C120.893 404.825 121.274 404.959 121.781 405.048C122.287 405.138 122.916 405.183 123.667 405.183C124.412 405.183 125.035 405.138 125.535 405.048C126.036 404.959 126.417 404.825 126.68 404.646C126.942 404.461 127.073 404.235 127.073 403.967C127.073 403.687 126.942 403.457 126.68 403.278C126.417 403.1 126.036 402.963 125.535 402.867C125.035 402.772 124.412 402.724 123.667 402.724ZM124.632 400.051H122.675V397.2H124.632V400.051ZM145.82 413.389H143.943V397.245H145.82V413.389ZM144.408 405.174H141.538V403.573H144.408V405.174ZM142.111 412.593H140.296V397.549H142.111V412.593ZM133.52 407.954C134.742 407.954 135.782 407.927 136.64 407.873C137.498 407.82 138.374 407.709 139.268 407.542L139.42 409.169C138.508 409.342 137.611 409.461 136.729 409.527C135.853 409.587 134.783 409.619 133.52 409.625H132.421V407.954H133.52ZM138.454 400.767H134.414V408.758H132.421V399.158H138.454V400.767ZM160.912 399.497H148.862V397.897H160.912V399.497ZM160.822 404.146H148.96V402.59H160.822V404.146ZM153.072 403.368H151.079V398.559H153.072V403.368ZM158.686 403.368H156.701V398.559H158.686V403.368ZM162.261 407.382H147.548V405.808H162.261V407.382ZM155.879 406.756H153.885V403.618H155.879V406.756ZM160.599 413.103H149.362V411.476H160.599V413.103ZM151.356 412.057H149.362V408.553H151.356V412.057ZM179.384 403.243H175.022V401.625H179.384V403.243ZM180.85 409.187H178.866V397.263H180.85V409.187ZM181.199 413.103H170.195V411.476H181.199V413.103ZM172.215 412.361H170.195V408.007H172.215V412.361ZM170.043 400.928H173.654V398.326H175.612V406.568H168.049V398.326H170.043V400.928ZM173.654 404.986V402.456H170.043V404.986H173.654ZM196.96 401.017H183.597V399.408H196.96V401.017ZM197.711 411.672H182.944V410.063H197.711V411.672ZM191.257 410.68H189.3V407.739H191.257V410.68ZM190.283 401.848C191.385 401.842 192.345 401.964 193.161 402.215C193.984 402.459 194.615 402.814 195.056 403.278C195.497 403.743 195.718 404.301 195.718 404.95C195.718 405.606 195.497 406.169 195.056 406.64C194.615 407.11 193.987 407.474 193.17 407.73C192.36 407.98 191.397 408.109 190.283 408.115C189.163 408.109 188.191 407.98 187.369 407.73C186.552 407.48 185.924 407.119 185.483 406.649C185.048 406.172 184.83 405.606 184.83 404.95C184.83 404.301 185.048 403.743 185.483 403.278C185.924 402.814 186.552 402.459 187.369 402.215C188.191 401.964 189.163 401.842 190.283 401.848ZM190.283 403.404C189.544 403.404 188.921 403.46 188.415 403.573C187.908 403.687 187.524 403.86 187.262 404.092C186.999 404.324 186.868 404.61 186.868 404.95C186.868 405.29 186.999 405.576 187.262 405.808C187.524 406.041 187.908 406.216 188.415 406.336C188.921 406.449 189.544 406.508 190.283 406.514C191.016 406.508 191.633 406.449 192.133 406.336C192.634 406.216 193.015 406.041 193.278 405.808C193.546 405.576 193.68 405.29 193.68 404.95C193.68 404.61 193.546 404.324 193.278 404.092C193.015 403.86 192.631 403.687 192.124 403.573C191.618 403.46 191.004 403.404 190.283 403.404ZM191.257 400.4H189.3V397.45H191.257V400.4ZM213.33 411.529H198.563V409.893H213.33V411.529ZM206.885 410.591H204.927V406.702H206.885V410.591ZM211.569 403.538H202.29V406.47H200.306V401.973H209.611V399.953H200.279V398.344H211.569V403.538ZM211.953 407.247H200.306V405.629H211.953V407.247ZM224.07 401.124C224.07 402.471 223.886 403.743 223.516 404.941C223.153 406.133 222.619 407.182 221.916 408.088C221.213 408.994 220.366 409.682 219.377 410.153L218.162 408.49C219.038 408.103 219.797 407.533 220.441 406.783C221.085 406.026 221.576 405.159 221.916 404.181C222.262 403.198 222.434 402.179 222.434 401.124V398.541H224.07V401.124ZM224.437 401.124C224.437 402.125 224.604 403.094 224.937 404.029C225.271 404.965 225.754 405.799 226.385 406.532C227.023 407.265 227.768 407.817 228.62 408.186L227.44 409.777C226.487 409.33 225.658 408.672 224.955 407.802C224.252 406.926 223.716 405.916 223.346 404.771C222.977 403.627 222.792 402.411 222.792 401.124V398.541H224.437V401.124ZM231.776 413.433H229.764V397.245H231.776V413.433ZM239.367 400.043C239.367 401.056 239.191 402.003 238.84 402.885C238.488 403.767 237.973 404.536 237.293 405.191C236.614 405.841 235.792 406.333 234.826 406.666L233.771 405.129C234.612 404.843 235.33 404.438 235.926 403.913C236.528 403.383 236.98 402.784 237.284 402.116C237.594 401.449 237.749 400.758 237.749 400.043V398.907H239.367V400.043ZM239.752 400.06C239.752 400.734 239.895 401.383 240.181 402.009C240.473 402.635 240.905 403.195 241.477 403.69C242.055 404.184 242.755 404.569 243.577 404.843L242.567 406.38C241.626 406.065 240.821 405.591 240.154 404.959C239.486 404.327 238.98 403.591 238.634 402.751C238.294 401.911 238.125 401.014 238.125 400.06V398.907H239.752V400.06ZM243.104 399.855H234.334V398.264H243.104V399.855ZM246.697 406.988H244.713V397.245H246.697V406.988ZM248.959 402.948H246.134V401.285H248.959V402.948ZM246.697 413.389H244.713V409.321H235.926V407.73H246.697V413.389ZM262.227 413.389H260.26V397.245H262.227V413.389ZM264.721 405.326H261.78V403.69H264.721V405.326ZM259.009 401.321H249.488V399.721H259.009V401.321ZM254.298 402.367C255.078 402.367 255.776 402.531 256.389 402.858C257.009 403.18 257.495 403.63 257.846 404.208C258.198 404.786 258.374 405.442 258.374 406.175C258.374 406.902 258.198 407.557 257.846 408.141C257.495 408.719 257.009 409.169 256.389 409.491C255.776 409.813 255.078 409.974 254.298 409.974C253.523 409.974 252.826 409.813 252.206 409.491C251.586 409.169 251.1 408.719 250.749 408.141C250.403 407.557 250.23 406.902 250.23 406.175C250.23 405.442 250.403 404.786 250.749 404.208C251.1 403.63 251.586 403.18 252.206 402.858C252.826 402.531 253.523 402.367 254.298 402.367ZM254.298 404.003C253.886 404.003 253.514 404.092 253.18 404.271C252.852 404.45 252.593 404.703 252.403 405.031C252.218 405.358 252.125 405.74 252.125 406.175C252.125 406.604 252.218 406.982 252.403 407.31C252.593 407.638 252.852 407.891 253.18 408.07C253.514 408.243 253.886 408.329 254.298 408.329C254.721 408.329 255.096 408.243 255.424 408.07C255.752 407.891 256.008 407.638 256.193 407.31C256.377 406.982 256.47 406.604 256.47 406.175C256.47 405.74 256.377 405.358 256.193 405.031C256.008 404.703 255.752 404.45 255.424 404.271C255.096 404.092 254.721 404.003 254.298 404.003ZM255.281 400.364H253.305V397.477H255.281V400.364ZM278.686 413.389H276.674V397.245H278.686V413.389ZM273.867 398.961C273.867 400.647 273.623 402.194 273.134 403.6C272.652 405.001 271.856 406.291 270.748 407.471C269.639 408.645 268.17 409.667 266.341 410.537L265.286 408.946C266.841 408.207 268.105 407.367 269.076 406.425C270.047 405.483 270.76 404.426 271.213 403.252C271.665 402.078 271.892 400.761 271.892 399.301V398.961H273.867ZM272.786 400.534H266.108V398.961H272.786V400.534Z" fill="#212121"/>
</g>
</g>
<path d="M101.557 47.3738H293.849V54.8973C293.849 68.7477 282.621 79.9757 268.771 79.9757H126.635C112.785 79.9757 101.557 68.7477 101.557 54.8973V47.3738Z" fill="black"/>
<rect x="1.67188" y="756.256" width="2.50784" height="10.0313" transform="rotate(-90 1.67188 756.256)" fill="#3D3D3D"/>
<rect x="1.67188" y="118.43" width="2.50784" height="10.0313" transform="rotate(-90 1.67188 118.43)" fill="#3D3D3D"/>
<ellipse cx="229.335" cy="63.6748" rx="3.74595" ry="3.76176" fill="#2F2F2F"/>
<ellipse cx="162.741" cy="63.6749" rx="6.24325" ry="6.26959" fill="#171717"/>
<ellipse cx="260.135" cy="63.6749" rx="6.24325" ry="6.26959" fill="#171717"/>
<ellipse cx="135.27" cy="63.6749" rx="6.24325" ry="6.26959" fill="#171717"/>
<rect x="180.638" y="61.5852" width="34.9622" height="4.17973" rx="2.08986" fill="#2F2F2F"/>
<ellipse cx="229.335" cy="63.6751" rx="2.08108" ry="2.08986" fill="url(#paint1_radial_123_2739)"/>
<path d="M393.741 240.477H394.566C395.49 240.477 396.238 241.226 396.238 242.149V295.65C396.238 296.573 395.49 297.322 394.566 297.322H393.741V240.477Z" fill="black"/>
<path d="M2.49731 219.579H1.67191C0.748546 219.579 1.43051e-05 220.328 1.43051e-05 221.251V256.361C1.43051e-05 257.284 0.748546 258.032 1.67191 258.032H2.49731V219.579Z" fill="black"/>
<path d="M2.49731 181.961H1.67191C0.748546 181.961 1.43051e-05 182.71 1.43051e-05 183.633V197.008C1.43051e-05 197.932 0.748546 198.68 1.67191 198.68H2.49731V181.961Z" fill="black"/>
<path d="M2.49731 278.931H1.67191C0.748546 278.931 1.43051e-05 279.68 1.43051e-05 280.603V315.713C1.43051e-05 316.636 0.748546 317.385 1.67191 317.385H2.49731V278.931Z" fill="black"/>
<defs>
<filter id="filter0_diii_123_2739" x="-5.85164" y="0.561192" width="566.792" height="967.189" filterUnits="userSpaceOnUse" color-interpolation-filters="sRGB">
<feFlood flood-opacity="0" result="BackgroundImageFix"/>
<feColorMatrix in="SourceAlpha" type="matrix" values="0 0 0 0 0 0 0 0 0 0 0 0 0 0 0 0 0 0 127 0" result="hardAlpha"/>
<feOffset dx="83.5946" dy="50.1567"/>
<feGaussianBlur stdDeviation="41.7973"/>
<feColorMatrix type="matrix" values="0 0 0 0 0 0 0 0 0 0 0 0 0 0 0 0 0 0 0.34 0"/>
<feBlend mode="normal" in2="BackgroundImageFix" result="effect1_dropShadow_123_2739"/>
<feBlend mode="normal" in="SourceGraphic" in2="effect1_dropShadow_123_2739" result="shape"/>
<feColorMatrix in="SourceAlpha" type="matrix" values="0 0 0 0 0 0 0 0 0 0 0 0 0 0 0 0 0 0 127 0" result="hardAlpha"/>
<feMorphology radius="2.50784" operator="erode" in="SourceAlpha" result="effect2_innerShadow_123_2739"/>
<feOffset dx="4.17973" dy="1.67189"/>
<feGaussianBlur stdDeviation="12.5392"/>
<feComposite in2="hardAlpha" operator="arithmetic" k2="-1" k3="1"/>
<feColorMatrix type="matrix" values="0 0 0 0 1 0 0 0 0 1 0 0 0 0 1 0 0 0 1 0"/>
<feBlend mode="normal" in2="shape" result="effect2_innerShadow_123_2739"/>
<feColorMatrix in="SourceAlpha" type="matrix" values="0 0 0 0 0 0 0 0 0 0 0 0 0 0 0 0 0 0 127 0" result="hardAlpha"/>
<feOffset dx="-25.0784"/>
<feGaussianBlur stdDeviation="0.835946"/>
<feComposite in2="hardAlpha" operator="arithmetic" k2="-1" k3="1"/>
<feColorMatrix type="matrix" values="0 0 0 0 0.333958 0 0 0 0 0.348067 0 0 0 0 0.35 0 0 0 0.6 0"/>
<feBlend mode="normal" in2="effect2_innerShadow_123_2739" result="effect3_innerShadow_123_2739"/>
<feColorMatrix in="SourceAlpha" type="matrix" values="0 0 0 0 0 0 0 0 0 0 0 0 0 0 0 0 0 0 127 0" result="hardAlpha"/>
<feMorphology radius="4.17973" operator="erode" in="SourceAlpha" result="effect4_innerShadow_123_2739"/>
<feOffset dx="-8.35946"/>
<feGaussianBlur stdDeviation="8.35946"/>
<feComposite in2="hardAlpha" operator="arithmetic" k2="-1" k3="1"/>
<feColorMatrix type="matrix" values="0 0 0 0 1 0 0 0 0 1 0 0 0 0 1 0 0 0 0.1 0"/>
<feBlend mode="normal" in2="effect3_innerShadow_123_2739" result="effect4_innerShadow_123_2739"/>
</filter>
<filter id="filter1_bi_123_2739" x="-1.67191" y="32.3271" width="397.074" height="805.016" filterUnits="userSpaceOnUse" color-interpolation-filters="sRGB">
<feFlood flood-opacity="0" result="BackgroundImageFix"/>
<feGaussianBlur in="BackgroundImageFix" stdDeviation="0.835946"/>
<feComposite in2="SourceAlpha" operator="in" result="effect1_backgroundBlur_123_2739"/>
<feBlend mode="normal" in="SourceGraphic" in2="effect1_backgroundBlur_123_2739" result="shape"/>
<feColorMatrix in="SourceAlpha" type="matrix" values="0 0 0 0 0 0 0 0 0 0 0 0 0 0 0 0 0 0 127 0" result="hardAlpha"/>
<feOffset dx="-3.34378" dy="3.34378"/>
<feGaussianBlur stdDeviation="1.67189"/>
<feComposite in2="hardAlpha" operator="arithmetic" k2="-1" k3="1"/>
<feColorMatrix type="matrix" values="0 0 0 0 1 0 0 0 0 1 0 0 0 0 1 0 0 0 0.39 0"/>
<feBlend mode="normal" in2="shape" result="effect2_innerShadow_123_2739"/>
</filter>
<filter id="filter2_b_123_2739" x="-116.694" y="-91.3549" width="630.574" height="329.526" filterUnits="userSpaceOnUse" color-interpolation-filters="sRGB">
<feFlood flood-opacity="0" result="BackgroundImageFix"/>
<feGaussianBlur in="BackgroundImageFix" stdDeviation="76.2792"/>
<feComposite in2="SourceAlpha" operator="in" result="effect1_backgroundBlur_123_2739"/>
<feBlend mode="normal" in="SourceGraphic" in2="effect1_backgroundBlur_123_2739" result="shape"/>
</filter>
<linearGradient id="paint0_linear_123_2739" x1="408.777" y1="330.76" x2="278.37" y2="364.198" gradientUnits="userSpaceOnUse">
<stop offset="0.00797098" stop-color="#555555"/>
<stop offset="1" stop-color="#111111"/>
</linearGradient>
<radialGradient id="paint1_radial_123_2739" cx="0" cy="0" r="1" gradientUnits="userSpaceOnUse" gradientTransform="translate(229.335 63.6751) rotate(90) scale(2.08986 2.08108)">
<stop/>
<stop offset="0.775455" stop-color="#5E5E5E"/>
<stop offset="1" stop-color="#0D0D0D"/>
</radialGradient>
<clipPath id="clip0_123_2739">
<rect width="366.144" height="813.654" fill="white" transform="translate(15.0471 49.0465)"/>
</clipPath>
<clipPath id="clip1_123_2739">
<rect width="184.269" height="55.9387" fill="white" transform="translate(106.493 244.323)"/>
</clipPath>
<clipPath id="clip2_123_2739">
<rect width="24.4096" height="24.4096" fill="white" transform="translate(185.915 556.563)"/>
</clipPath>
</defs>
</svg>
