<svg width="800" height="151" viewBox="0 0 800 151" fill="none" xmlns="http://www.w3.org/2000/svg">
<path fill-rule="evenodd" clip-rule="evenodd" d="M0.0252642 57.0413C0.513228 25.4667 30.5567 0 67.5747 0C104.584 0 134.628 25.4667 135.107 57.0413H135.132V141.047H103.667V57.8153C103.667 45.6078 95.3465 35.0325 83.2988 30.0182V141.047H51.8334V30.0182C39.7858 35.0325 31.4653 45.6078 31.4653 57.8153V141.047H0V57.0413H0.0252642ZM725.064 71.9832C725.064 88.4815 719.469 103.667 710.097 115.749H710.089C699.152 129.841 683.15 140.147 664.691 142.427H664.683C661.267 142.847 657.767 142.847 654.208 142.847C652.327 142.847 650.744 142.756 649.016 142.656C647.475 142.566 645.82 142.47 643.734 142.427H565.365C533.042 142.41 506.835 116.077 506.801 83.5766V3.64303C506.801 2.22962 507.945 1.08543 509.359 1.08543H530.795C532.209 1.08543 533.353 2.22962 533.353 3.64303V83.5177C533.353 101.286 547.74 115.74 565.407 115.74H659.525C659.652 115.74 659.778 115.732 659.896 115.715C681.416 112.896 698.1 94.3623 698.1 71.9664C698.1 48.0898 679.145 28.6049 655.588 27.873V27.8982C631.392 27.8982 611.705 47.9973 611.705 72.3282C611.705 83.9299 616.366 96.9872 625.318 105.771C626.95 107.377 625.747 110.154 623.458 110.12L596.713 109.716C595.779 109.708 594.929 109.186 594.492 108.37C587.668 95.498 584.741 84.3169 584.741 72.3366C584.741 33.4593 615.726 1.46402 654.208 0.723659V0.740485C693.338 0.740485 725.064 32.6348 725.064 71.9832ZM754.645 105.467C752.945 104.634 750.968 105.871 750.968 107.764V111.87C750.968 113.283 749.824 114.427 748.411 114.427H720.454C719.587 114.427 718.779 114.865 718.308 115.597C716.121 118.996 709.045 129.066 697.645 136.041C695.466 137.37 696.434 140.744 698.992 140.761L748.419 141.038C749.824 141.038 750.96 142.191 750.96 143.596V147.676C750.96 149.569 752.945 150.806 754.645 149.965L799.992 127.644H800L754.645 105.476V105.467ZM441.599 4.9133L444.855 2.23791C445.755 1.48914 446.891 1.0853 448.06 1.0853H496.949V27.1914H449.995V140.037H423.898V27.183H398.145C386.434 27.183 376.944 17.6929 376.944 5.98177V1.0853H425.833C427.002 1.0853 428.138 1.49755 429.038 2.23791L432.294 4.9133L436.946 8.74129L441.599 4.9133ZM201.832 0.715589C170.442 0.715589 144.934 25.8121 144.235 57.0334H144.202V141.039H170.299V106.57C179.36 112.51 190.188 115.968 201.832 115.968C213.476 115.968 224.303 112.501 233.364 106.57V141.039H259.462V57.0334H259.428C258.73 25.8121 233.221 0.715589 201.832 0.715589ZM201.832 89.0623C184.896 89.0623 171.124 75.29 171.124 58.3542C171.124 41.4185 184.896 27.6462 201.832 27.6462C218.768 27.6462 232.54 41.4185 232.54 58.3542C232.54 75.29 218.768 89.0623 201.832 89.0623ZM325.514 0.715589C357.341 0.715589 383.144 26.5188 383.144 58.3458L383.153 58.3374C383.153 76.9726 374.302 93.5381 360.572 104.071L383.153 141.031H349.803L334.104 115.328C331.302 115.749 328.433 115.968 325.514 115.968C313.87 115.968 303.042 112.51 293.981 106.57V141.039H267.884V57.0334H267.917C268.616 25.8121 293.687 0.715589 325.514 0.715589ZM325.506 27.6377C308.57 27.6377 294.797 41.4101 294.797 58.3458C294.797 75.2815 308.57 89.0539 325.506 89.0539C342.441 89.0539 356.214 75.2815 356.214 58.3458C356.214 41.4101 342.441 27.6377 325.506 27.6377Z" fill="url(#paint0_linear_123_3538)"/>
<defs>
<linearGradient id="paint0_linear_123_3538" x1="0" y1="75.1211" x2="800" y2="75.1211" gradientUnits="userSpaceOnUse">
<stop stop-color="#BFD11D"/>
<stop offset="1" stop-color="#22AC38"/>
</linearGradient>
</defs>
</svg>
