<svg width="800" height="151" viewBox="0 0 800 151" fill="none" xmlns="http://www.w3.org/2000/svg">
<path d="M67.5747 0C30.5567 0 0.513228 25.4667 0.0252642 57.0413H0V141.047H31.4653V57.8153C31.4653 45.6078 39.7858 35.0325 51.8334 30.0182V141.047H83.2988V30.0182C95.3465 35.0325 103.667 45.6078 103.667 57.8153V141.047H135.132V57.0413H135.107C134.628 25.4667 104.584 0 67.5747 0Z" fill="white"/>
<path d="M710.097 115.748C719.469 103.667 725.064 88.4809 725.064 71.9827C725.064 32.6343 693.338 0.739971 654.208 0.739971V0.723145C615.726 1.4635 584.741 33.4588 584.741 72.3361C584.741 84.3164 587.668 95.4975 594.492 108.37C594.929 109.186 595.779 109.707 596.713 109.716L623.458 110.12C625.747 110.153 626.95 107.377 625.317 105.77C616.366 96.9867 611.705 83.9294 611.705 72.3277C611.705 47.9968 631.392 27.8977 655.588 27.8977V27.8725C679.145 28.6044 698.1 48.0893 698.1 71.9659C698.1 94.3618 681.416 112.896 659.896 115.714C659.778 115.731 659.652 115.74 659.525 115.74H565.407C547.74 115.74 533.353 101.286 533.353 83.5172V3.64252C533.353 2.2291 532.209 1.08491 530.795 1.08491H509.359C507.945 1.08491 506.801 2.2291 506.801 3.64252V83.5761C506.835 116.076 533.042 142.409 565.365 142.426H643.734C648.159 142.519 650.649 142.847 654.208 142.847C657.767 142.847 661.267 142.847 664.683 142.426H664.691C683.15 140.146 699.152 129.84 710.089 115.748H710.097Z" fill="white"/>
<path d="M754.645 105.467C752.945 104.635 750.968 105.871 750.968 107.764V111.87C750.968 113.283 749.824 114.427 748.41 114.427H720.454C719.587 114.427 718.779 114.865 718.308 115.597C716.121 118.996 709.045 129.066 697.645 136.041C695.466 137.37 696.434 140.744 698.992 140.761L748.419 141.038C749.824 141.038 750.959 142.191 750.959 143.596V147.676C750.959 149.569 752.945 150.806 754.645 149.965L799.991 127.645H800L754.645 105.476V105.467Z" fill="white"/>
<path d="M444.855 2.23805L441.599 4.91344L436.946 8.74144L432.294 4.91344L429.038 2.23805C428.138 1.49769 427.002 1.08545 425.833 1.08545H376.944V5.98192C376.944 17.6931 386.434 27.1831 398.145 27.1831H423.898V140.037H449.995V27.1915H496.949V1.08545H448.06C446.891 1.08545 445.755 1.48928 444.855 2.23805Z" fill="white"/>
<path d="M201.832 0.715332C170.442 0.715332 144.934 25.8118 144.235 57.0331H144.202V141.039H170.299V106.57C179.36 112.51 190.188 115.967 201.832 115.967C213.476 115.967 224.303 112.501 233.364 106.57V141.039H259.462V57.0331H259.428C258.73 25.8118 233.221 0.715332 201.832 0.715332ZM201.832 89.0621C184.896 89.0621 171.124 75.2897 171.124 58.354C171.124 41.4183 184.896 27.6459 201.832 27.6459C218.768 27.6459 232.54 41.4183 232.54 58.354C232.54 75.2897 218.768 89.0621 201.832 89.0621Z" fill="white"/>
<path d="M383.144 58.3456C383.144 26.5185 357.341 0.715332 325.514 0.715332C293.687 0.715332 268.616 25.8118 267.917 57.0331H267.884V141.039H293.981V106.57C303.042 112.51 313.87 115.967 325.514 115.967C328.433 115.967 331.302 115.749 334.104 115.328L349.803 141.03H383.153L360.572 104.071C374.302 93.5379 383.153 76.9723 383.153 58.3372L383.144 58.3456ZM294.798 58.3456C294.798 41.4099 308.57 27.6375 325.506 27.6375C342.441 27.6375 356.214 41.4099 356.214 58.3456C356.214 75.2813 342.441 89.0536 325.506 89.0536C308.57 89.0536 294.798 75.2813 294.798 58.3456Z" fill="white"/>
</svg>
