<svg width="301" height="164" viewBox="0 0 301 164" fill="none" xmlns="http://www.w3.org/2000/svg">
<g clip-path="url(#clip0_123_4402)">
<path d="M10.9477 97.365C9.21522 91.5943 8.2937 85.4683 8.2937 79.1341C8.2937 44.0322 36.8363 15.5709 72.0385 15.5709C107.241 15.5709 135.783 44.0322 135.783 79.1341C135.783 90.0996 132.994 100.428 128.092 109.433" fill="black"/>
<path d="M10.9477 97.365C9.21522 91.5943 8.2937 85.4683 8.2937 79.1341C8.2937 44.0322 36.8363 15.5709 72.0385 15.5709C107.241 15.5709 135.783 44.0322 135.783 79.1341C135.783 90.0996 132.994 100.428 128.092 109.433" stroke="#C7DA01" stroke-width="0.82" stroke-linecap="round" stroke-linejoin="round"/>
<path d="M152.948 118.696C149.778 117.556 130.782 121.661 130.782 121.661L129.074 127.603L128.03 134.121C128.03 134.121 128.583 134.011 129.517 133.827L128.988 137.159C128.571 137.257 128.337 137.319 128.337 137.319L127.293 143.837C127.293 143.837 143.266 140.676 146.313 139.512C149.262 138.385 149.348 136.044 146.473 134.856C147.001 134.709 147.431 134.574 147.738 134.452C150.786 133.288 150.786 130.813 147.615 129.673C147.554 129.649 147.493 129.637 147.431 129.624C150.085 128.399 149.95 126.108 146.927 125.018C146.891 125.005 146.841 124.993 146.805 124.981C148.66 124.54 150.171 124.136 150.921 123.842C153.968 122.678 156.118 119.823 152.948 118.683V118.696Z" fill="black" stroke="#C7DA01" stroke-width="0.82" stroke-linecap="round" stroke-linejoin="round"/>
<path d="M62.0615 46.9115C62.0615 46.9115 70.9204 39.0702 78.2065 47.9774L61.7052 64.7871L61.9263 73.4859L56.9501 69.1733C56.9501 69.1733 47.096 59.8618 62.0738 46.9115H62.0615Z" fill="black" stroke="#C7DA01" stroke-width="0.82" stroke-linecap="round" stroke-linejoin="round"/>
<path d="M74.9873 92.5868C69.6179 92.6358 65.2314 88.3353 65.1823 82.9935L65.0471 69.0385L84.4728 68.8547L84.608 82.8097C84.6571 88.1638 80.3444 92.5378 74.9873 92.5868Z" fill="black" stroke="#C7DA01" stroke-width="0.82" stroke-linecap="round" stroke-linejoin="round"/>
<path d="M77.1253 77.4434C80.283 77.0881 83.3425 75.7526 85.849 73.437C90.3215 69.2958 90.9358 63.8927 88.7979 58.8694C88.417 57.975 87.9378 57.0929 87.3849 56.223C87.0531 55.6961 86.6845 55.1816 86.2914 54.6792C85.9105 54.1892 85.4927 53.7113 85.0627 53.2335C84.9275 53.0865 84.7801 52.9395 84.6449 52.7924C84.2394 52.3759 83.8217 51.9838 83.3916 51.6285C83.2196 51.4692 83.0353 51.3222 82.851 51.1629C77.371 46.5194 71.1047 42.9909 63.7816 49.7784C55.7337 57.2276 58.3385 66.4656 64.1134 72.6528" fill="black"/>
<path d="M77.1253 77.4434C80.283 77.0881 83.3425 75.7526 85.849 73.437C90.3215 69.2958 90.9358 63.8927 88.7979 58.8694C88.417 57.975 87.9378 57.0929 87.3849 56.223C87.0531 55.6961 86.6845 55.1816 86.2914 54.6792C85.9105 54.1892 85.4927 53.7113 85.0627 53.2335C84.9275 53.0865 84.7801 52.9395 84.6449 52.7924C84.2394 52.3759 83.8217 51.9838 83.3916 51.6285C83.2196 51.4692 83.0353 51.3222 82.851 51.1629C77.371 46.5194 71.1047 42.9909 63.7816 49.7784C55.7337 57.2276 58.3385 66.4656 64.1134 72.6528" stroke="#C7DA01" stroke-width="0.82" stroke-linecap="round" stroke-linejoin="round"/>
<path d="M65.2929 65.7305C65.2929 65.7305 71.805 57.2154 68.7087 50.8199C68.7087 50.8199 72.5422 52.4984 79.9758 48.6635C79.9758 48.6635 71.8542 38.3351 60.9925 48.2837C60.9925 48.2837 39.392 57.3747 65.7721 77.9947L65.3052 65.7305H65.2929Z" fill="black" stroke="#C7DA01" stroke-width="0.82" stroke-linecap="round" stroke-linejoin="round"/>
<path d="M75.6877 65.2036C75.7 66.7351 75.0979 68.2544 73.8938 69.3815C71.6207 71.4889 68.0575 71.3664 65.9318 69.0875C63.8185 66.8209 63.9413 63.2678 66.2267 61.1482C68.0452 59.4575 70.6869 59.2002 72.7634 60.3273" fill="black"/>
<path d="M75.6877 65.2036C75.7 66.7351 75.0979 68.2544 73.8938 69.3815C71.6207 71.4889 68.0575 71.3664 65.9318 69.0875C63.8185 66.8209 63.9413 63.2678 66.2267 61.1482C68.0452 59.4575 70.6869 59.2002 72.7634 60.3273" stroke="#C7DA01" stroke-width="0.82" stroke-linecap="round" stroke-linejoin="round"/>
<path d="M82.1997 51.7387C82.1997 51.7387 83.1089 53.0006 84.2516 52.388C85.3943 51.7754 85.9472 51.3099 86.6722 52.192C87.3971 53.0742 86.3404 54.7282 86.3404 54.7282L85.9472 55.3775" fill="black"/>
<path d="M82.1997 51.7387C82.1997 51.7387 83.1089 53.0006 84.2516 52.388C85.3943 51.7754 85.9472 51.3099 86.6722 52.192C87.3971 53.0742 86.3404 54.7282 86.3404 54.7282L85.9472 55.3775" stroke="#C7DA01" stroke-width="0.82" stroke-linecap="round" stroke-linejoin="round"/>
<path d="M68.0944 64.542C68.0944 64.542 69.8883 62.7533 72.0385 64.8728L68.0944 64.542Z" fill="black"/>
<path d="M68.0944 64.542C68.0944 64.542 69.8883 62.7533 72.0385 64.8728" stroke="#C7DA01" stroke-width="0.82" stroke-linecap="round" stroke-linejoin="round"/>
<path d="M56.9377 87.0979C56.9377 87.0979 62.2089 80.3348 66.2267 80.3348C70.2445 80.3348 83.7479 81.4865 86.0701 84.721C88.3924 87.9556 88.5767 92.354 88.5767 92.354L56.9377 87.0979Z" fill="black" stroke="#C7DA01" stroke-width="0.82" stroke-linecap="round" stroke-linejoin="round"/>
<path d="M91.0955 88.6049C91.0955 88.6049 60.4519 80.5921 44.1348 87.6002C27.8054 94.6083 16.2557 132.932 23.5418 139.696L29.8205 144.707L28.3092 162.986H99.3769V152.964L135.292 142.697C135.292 142.697 134.284 128.926 130.77 121.661L106.663 123.854C106.663 123.854 110.251 91.9251 91.0955 88.6049Z" fill="black" stroke="#C7DA01" stroke-width="0.82" stroke-linecap="round" stroke-linejoin="round"/>
<path d="M99.3892 152.964L97.8533 153.234C87.9132 155.01 78.9437 147.01 79.5826 136.963L81.057 114.138" fill="black"/>
<path d="M99.3892 152.964L97.8533 153.234C87.9132 155.01 78.9437 147.01 79.5826 136.963L81.057 114.138" stroke="#C7DA01" stroke-width="0.82" stroke-linecap="round" stroke-linejoin="round"/>
<path d="M29.8204 144.694L35.5953 110.634" stroke="#C7DA01" stroke-width="0.82" stroke-linecap="round" stroke-linejoin="round"/>
<path d="M146.915 125.018L143.561 125.52" stroke="#C7DA01" stroke-width="0.82" stroke-linecap="round" stroke-linejoin="round"/>
<path d="M147.431 129.624L144.802 129.955" stroke="#C7DA01" stroke-width="0.82" stroke-linecap="round" stroke-linejoin="round"/>
<path d="M146.473 134.856L145.355 135.04" stroke="#C7DA01" stroke-width="0.82" stroke-linecap="round" stroke-linejoin="round"/>
<path d="M139.125 31.9763H111.553V68.6709H139.125V31.9763Z" fill="black" stroke="#C7DA01" stroke-width="0.82" stroke-linecap="round" stroke-linejoin="round"/>
<path d="M141.841 34.733H114.281V71.4276H134.837L141.841 64.4318V34.733Z" fill="black" stroke="#C7DA01" stroke-width="0.82" stroke-linecap="round" stroke-linejoin="round"/>
<path d="M141.841 64.4318L134.837 71.4276H141.841V64.4318Z" fill="black" stroke="#C7DA01" stroke-width="0.82" stroke-linecap="round" stroke-linejoin="round"/>
<path d="M121.555 43.7382H132.994" stroke="#C7DA01" stroke-width="0.82" stroke-linecap="round" stroke-linejoin="round"/>
<path d="M121.555 48.4062H136.25" stroke="#C7DA01" stroke-width="0.82" stroke-linecap="round" stroke-linejoin="round"/>
<path d="M121.555 53.0742H136.25" stroke="#C7DA01" stroke-width="0.82" stroke-linecap="round" stroke-linejoin="round"/>
<path d="M121.555 57.7422H136.25" stroke="#C7DA01" stroke-width="0.82" stroke-linecap="round" stroke-linejoin="round"/>
<path d="M121.555 62.4102H136.25" stroke="#C7DA01" stroke-width="0.82" stroke-linecap="round" stroke-linejoin="round"/>
<path d="M75.6017 11.5033C74.2624 6.84757 69.9742 3.45378 64.8752 3.45378C63.9536 3.45378 63.0567 3.5763 62.2089 3.78458C60.243 2.0448 57.6504 0.978882 54.8121 0.978882C48.6441 0.978882 43.6556 5.95318 43.6433 12.1037C39.306 13.6351 36.1974 17.7518 36.1974 22.5913C36.1974 28.7418 41.1982 33.7284 47.3662 33.7284H74.5327C80.7008 33.7284 85.7015 28.7418 85.7015 22.5913C85.7015 16.7962 81.266 12.0424 75.6017 11.5033Z" fill="black" stroke="#C7DA01" stroke-width="0.82" stroke-linecap="round" stroke-linejoin="round"/>
<path d="M104.181 26.2792L102.891 23.5348L105.643 22.2361" fill="black"/>
<path d="M104.181 26.2792L102.891 23.5348L105.643 22.2361" stroke="#C7DA01" stroke-width="0.82" stroke-linecap="round" stroke-linejoin="round"/>
<path d="M27.5228 36.7546H24.4879V33.7161" fill="black"/>
<path d="M27.5228 36.7546H24.4879V33.7161" stroke="#C7DA01" stroke-width="0.82" stroke-linecap="round" stroke-linejoin="round"/>
<path d="M12.8399 95.3925L11.3286 98.0266L8.68689 96.5196" fill="black"/>
<path d="M12.8399 95.3925L11.3286 98.0266L8.68689 96.5196" stroke="#C7DA01" stroke-width="0.82" stroke-linecap="round" stroke-linejoin="round"/>
<path d="M133.633 79.2076L135.636 76.9287L137.921 78.938" fill="black"/>
<path d="M133.633 79.2076L135.636 76.9287L137.921 78.938" stroke="#C7DA01" stroke-width="0.82" stroke-linecap="round" stroke-linejoin="round"/>
<path d="M27.7609 70.9049C33.9988 64.6848 33.9988 54.6001 27.7609 48.38C21.523 42.1599 11.4095 42.1599 5.1716 48.38C-1.06626 54.6001 -1.06626 64.6848 5.1716 70.9049C11.4095 77.125 21.523 77.125 27.7609 70.9049Z" fill="black" stroke="#C7DA01" stroke-width="0.82" stroke-linecap="round" stroke-linejoin="round"/>
<path d="M12.1395 65.2894V54.0054L23.8859 59.2125L12.1395 65.2894Z" fill="black" stroke="#C7DA01" stroke-width="0.82" stroke-linecap="round" stroke-linejoin="round"/>
<path d="M59.0634 19.0995C58.5351 18.5727 57.675 18.5727 57.159 19.0995L56.5938 19.6631V16.3428C56.5938 15.5955 55.9917 14.9951 55.2422 14.9951C54.4927 14.9951 53.8906 15.5955 53.8906 16.3428V19.6631L53.3254 19.0995C52.7971 18.5727 51.937 18.5727 51.421 19.0995C50.9049 19.6264 50.8926 20.484 51.421 20.9986L54.2838 23.8533C54.3453 23.9145 54.419 23.9758 54.4927 24.0248C54.5296 24.0493 54.5541 24.0616 54.591 24.0738C54.6401 24.0983 54.677 24.1228 54.7262 24.1473C54.7753 24.1596 54.8122 24.1718 54.8613 24.1841C54.8982 24.1841 54.935 24.2086 54.9842 24.2208C55.0702 24.2331 55.1562 24.2453 55.2545 24.2453C55.3528 24.2453 55.4265 24.2453 55.5248 24.2208C55.5617 24.2208 55.5985 24.1963 55.6477 24.1841C55.6968 24.1718 55.7337 24.1596 55.7828 24.1473C55.832 24.1228 55.8688 24.0983 55.918 24.0738C55.9548 24.0616 55.9917 24.0371 56.0163 24.0248C56.09 23.9758 56.1637 23.9145 56.2252 23.8533L59.088 20.9986C59.6164 20.4717 59.6164 19.6141 59.088 19.0995H59.0634Z" fill="black" stroke="#C7DA01" stroke-width="0.82" stroke-linecap="round" stroke-linejoin="round"/>
<path d="M62.8232 20.1531C63.3515 20.68 64.2116 20.68 64.7277 20.1531L65.2928 19.5896V22.9098C65.2928 23.6572 65.8949 24.2576 66.6444 24.2576C67.3939 24.2576 67.996 23.6572 67.996 22.9098V19.5896L68.5612 20.1531C69.0895 20.68 69.9496 20.68 70.4657 20.1531C70.994 19.6263 70.994 18.7687 70.4657 18.2541L67.6028 15.3994C67.5414 15.3381 67.4676 15.2769 67.3939 15.2279C67.3571 15.2034 67.3325 15.1911 67.2956 15.1789C67.2465 15.1543 67.2096 15.1298 67.1605 15.1053C67.1113 15.0931 67.0745 15.0808 67.0253 15.0686C66.9885 15.0686 66.9516 15.0441 66.9024 15.0318C66.8164 15.0196 66.7304 15.0073 66.6321 15.0073C66.5338 15.0073 66.4601 15.0073 66.3618 15.0318C66.325 15.0318 66.2881 15.0563 66.2389 15.0686C66.1898 15.0808 66.1529 15.0931 66.1038 15.1053C66.0546 15.1298 66.0178 15.1543 65.9686 15.1789C65.9318 15.2034 65.8949 15.2156 65.8703 15.2279C65.7966 15.2769 65.7229 15.3381 65.6615 15.3994L62.7986 18.2541C62.2703 18.7809 62.2703 19.6386 62.7986 20.1531H62.8232Z" fill="black" stroke="#C7DA01" stroke-width="0.82" stroke-linecap="round" stroke-linejoin="round"/>
<path d="M142.295 94.5471H130.352V93.8855C130.352 92.501 129.234 91.3861 127.846 91.3861H123.73C122.341 91.3861 121.223 92.501 121.223 93.8855V109.409C121.223 110.793 122.341 111.908 123.73 111.908H142.295C143.684 111.908 144.802 110.793 144.802 109.409V97.0465C144.802 95.662 143.684 94.5471 142.295 94.5471Z" fill="black" stroke="#C7DA01" stroke-width="0.82" stroke-linecap="round" stroke-linejoin="round"/>
<path d="M137.208 103.503C137.208 105.819 135.329 107.693 133.006 107.693C130.684 107.693 128.804 105.819 128.804 103.503C128.804 101.188 130.684 99.3131 133.006 99.3131C135.329 99.3131 137.208 101.188 137.208 103.503Z" fill="black" stroke="#C7DA01" stroke-width="0.82" stroke-linecap="round" stroke-linejoin="round"/>
<path d="M133.535 100.367L132.478 99.3131L133.535 98.2717" fill="black"/>
<path d="M133.535 100.367L132.478 99.3131L133.535 98.2717" stroke="#C7DA01" stroke-width="0.82" stroke-linecap="round" stroke-linejoin="round"/>
<path d="M132.478 106.652L133.535 107.693L132.478 108.747" fill="black"/>
<path d="M132.478 106.652L133.535 107.693L132.478 108.747" stroke="#C7DA01" stroke-width="0.82" stroke-linecap="round" stroke-linejoin="round"/>
</g>
<g clip-path="url(#clip1_123_4402)">
<path d="M227.292 63.9331H187.461C184.832 63.9331 182.7 66.0816 182.7 68.732V150.536C182.7 153.186 184.832 155.335 187.461 155.335H227.292C229.921 155.335 232.053 153.186 232.053 150.536V68.732C232.053 66.0816 229.921 63.9331 227.292 63.9331Z" fill="black" stroke="#C7DA01" stroke-width="0.82" stroke-miterlimit="10"/>
<path d="M226.552 72.8406H187.925V127.298H226.552V72.8406Z" fill="black" stroke="#C7DA01" stroke-width="0.82" stroke-miterlimit="10"/>
<path d="M234.936 155.101H179.453V159.02H234.936V155.101Z" fill="black" stroke="#C7DA01" stroke-width="0.82" stroke-miterlimit="10"/>
<path d="M225.812 132.019H213.407V136.028H225.812V132.019Z" fill="black" stroke="#C7DA01" stroke-width="0.82" stroke-miterlimit="10"/>
<path d="M298.239 124.47H254.674C253.399 124.47 252.366 125.512 252.366 126.797V155.468C252.366 156.753 253.399 157.795 254.674 157.795H298.239C299.514 157.795 300.547 156.753 300.547 155.468V126.797C300.547 125.512 299.514 124.47 298.239 124.47Z" fill="black" stroke="#C7DA01" stroke-width="0.82" stroke-miterlimit="10"/>
<path d="M295.068 127.733H257.281V154.622H295.068V127.733Z" fill="black" stroke="#C7DA01" stroke-width="0.76" stroke-miterlimit="10"/>
<path d="M271.519 146.728V136.473L282.079 141.205L271.519 146.728Z" fill="black" stroke="#C7DA01" stroke-width="0.82" stroke-linecap="round" stroke-linejoin="round"/>
</g>
<defs>
<clipPath id="clip0_123_4402">
<rect width="155" height="163" fill="white" transform="translate(0 0.476562)"/>
</clipPath>
<clipPath id="clip1_123_4402">
<rect width="122" height="96" fill="white" transform="translate(179 63.4766)"/>
</clipPath>
</defs>
</svg>
