<svg width="171" height="139" viewBox="0 0 171 139" fill="none" xmlns="http://www.w3.org/2000/svg">
<g clip-path="url(#clip0_1412_2126)">
<path d="M134.328 42.5762C134.444 44.8304 136.68 46.4142 138.857 47.0384C141.035 47.6627 143.386 47.7089 145.436 48.68C148.517 50.1597 150.255 53.4081 151.83 56.4484C153.394 59.4772 155.224 62.7141 158.375 64.055C159.707 64.6215 161.154 64.7949 162.533 65.2342C167.328 66.7486 170.78 71.7195 170.525 76.725C170.525 76.725 170.004 85.2565 157.726 81.7769C145.448 78.2972 143.143 74.806 137.363 62.5985C131.583 50.3909 131.34 46.7147 131.34 46.7147L134.328 42.5762Z" fill="black" stroke="#CAD833" stroke-width="0.82" stroke-linecap="round" stroke-linejoin="round"/>
<path d="M71.5367 134.873H33.2896L39.9151 84.9678H64.9228L71.5367 134.873Z" fill="black" stroke="#CAD833" stroke-width="0.82" stroke-linecap="round" stroke-linejoin="round"/>
<path d="M71.9305 91.3142L60.9961 88.8981C57.8108 88.193 54.4517 88.4588 51.4981 89.8576C51.3011 89.9501 51.0927 90.0542 50.8957 90.1582C47.7336 91.8691 47.0733 94.528 47.0733 94.528C47.0733 94.528 46.3089 97.0134 48.3243 96.7244L47.2703 99.4064C47.027 100.042 46.9807 100.747 47.2123 101.383C47.4324 102.007 47.861 102.655 48.6718 102.782C48.6718 102.782 48.1274 105.348 50.6177 105.915C50.6177 105.915 50.8378 107.221 52.2278 107.29C52.9228 107.325 53.583 106.967 54.0347 106.435L57.2085 102.597C57.2085 102.597 62.1428 106.909 67.5753 104.331L77.7104 106.874L77.3166 92.5512L71.9305 91.3027V91.3142Z" fill="black" stroke="#CAD833" stroke-width="0.82" stroke-linecap="round" stroke-linejoin="round"/>
<path d="M50.6178 105.927C50.6178 105.927 52.7722 101.973 54.3707 100.436L50.6178 105.927Z" fill="black"/>
<path d="M50.6178 105.927C50.6178 105.927 52.7722 101.973 54.3707 100.436" stroke="#CAD833" stroke-width="0.82" stroke-linecap="round" stroke-linejoin="round"/>
<path d="M48.6718 102.793C48.6718 102.793 50.9073 98.4004 52.0309 97.5449L48.6718 102.793Z" fill="black"/>
<path d="M48.6718 102.793C48.6718 102.793 50.9073 98.4004 52.0309 97.5449" stroke="#CAD833" stroke-width="0.82" stroke-linecap="round" stroke-linejoin="round"/>
<path d="M48.3243 96.7242C48.3243 96.7242 50.1545 92.7475 53.444 91.9961L48.3243 96.7242Z" fill="black"/>
<path d="M48.3243 96.7242C48.3243 96.7242 50.1545 92.7475 53.444 91.9961" stroke="#CAD833" stroke-width="0.82" stroke-linecap="round" stroke-linejoin="round"/>
<path d="M71.5251 106.62L59.444 100.204C59.0154 99.9843 58.5637 99.8341 58.0888 99.7531C56.8147 99.5682 54.1158 99.3023 51.5676 99.8803C48.0579 100.69 46.7143 103.059 46.7143 103.059C46.7143 103.059 45.3127 105.244 47.3282 105.51L45.5907 107.811C45.1853 108.354 44.9537 109.024 45 109.706C45.0463 110.365 45.2896 111.105 46.0309 111.441C46.0309 111.441 44.8147 113.776 47.0618 114.99C47.0618 114.99 46.9228 116.307 48.2432 116.747C48.9035 116.966 49.6448 116.804 50.2123 116.4L54.3012 113.556C54.3012 113.556 57.8919 119.024 63.834 117.995L72.9151 123.151L76.3784 109.244L71.5251 106.597V106.62Z" fill="black" stroke="#CAD833" stroke-width="0.82" stroke-linecap="round" stroke-linejoin="round"/>
<path d="M47.0734 115.012C47.0734 115.012 50.2124 111.776 52.1583 110.724L47.0734 115.012Z" fill="black"/>
<path d="M47.0734 115.012C47.0734 115.012 50.2124 111.776 52.1583 110.724" stroke="#CAD833" stroke-width="0.82" stroke-linecap="round" stroke-linejoin="round"/>
<path d="M46.0425 111.464C46.0425 111.464 49.3784 107.834 50.6873 107.313L46.0425 111.464Z" fill="black"/>
<path d="M46.0425 111.464C46.0425 111.464 49.3784 107.834 50.6873 107.313" stroke="#CAD833" stroke-width="0.82" stroke-linecap="round" stroke-linejoin="round"/>
<path d="M47.3282 105.533C47.3282 105.533 50.1544 102.193 53.5251 102.343L47.3282 105.533Z" fill="black"/>
<path d="M47.3282 105.533C47.3282 105.533 50.1544 102.193 53.5251 102.343" stroke="#CAD833" stroke-width="0.82" stroke-linecap="round" stroke-linejoin="round"/>
<path d="M104.78 131.475L108.429 111.464H75.8456V92.355C82.8996 92.5168 89.9189 91.1296 96.8687 87.7772C96.8687 87.7772 104.687 80.7832 108.741 71.3617C112.784 61.9401 117.637 60.865 117.637 60.865L134.988 56.6455C134.988 56.6455 135.324 56.7958 135.903 57.1079C138.336 58.4258 145.054 62.599 148.83 70.2866C153.498 79.7891 164.108 131.475 164.108 131.475H104.78Z" fill="black" stroke="#CAD833" stroke-width="0.82" stroke-linecap="round" stroke-linejoin="round"/>
<path d="M136.124 59.003C136.054 66.9333 125.653 71.384 125.653 71.384L123.498 65.0143L117.429 67.4766C117.429 67.4766 116.224 64.5172 117.637 60.8757L134.988 56.6562C134.988 56.6562 135.324 56.8065 135.903 57.1187L136.135 59.003H136.124Z" fill="black" stroke="#CAD833" stroke-width="0.82" stroke-linecap="round" stroke-linejoin="round"/>
<path d="M141.903 98.6781C141.903 98.6781 140.687 103.788 135.301 115.36C129.903 126.931 117.51 135.544 103.216 135.139C88.9228 134.734 70.4479 125.313 70.4479 125.313L75.8456 107.302C75.8456 107.302 99.6718 113.683 108.707 109.915C117.741 106.146 121.819 84.6787 121.819 84.6787" fill="black"/>
<path d="M141.903 98.6781C141.903 98.6781 140.687 103.788 135.301 115.36C129.903 126.931 117.51 135.544 103.216 135.139C88.9228 134.734 70.4479 125.313 70.4479 125.313L75.8456 107.302C75.8456 107.302 99.6718 113.683 108.707 109.915C117.741 106.146 121.819 84.6787 121.819 84.6787" stroke="#CAD833" stroke-width="0.82" stroke-linecap="round" stroke-linejoin="round"/>
<path d="M115.842 102.227L114.869 88.7363" stroke="#CAD833" stroke-width="0.82" stroke-linecap="round" stroke-linejoin="round"/>
<path d="M71.5367 134.873H33.2896V138.515H71.5367V134.873Z" fill="black" stroke="#CAD833" stroke-width="0.82" stroke-linecap="round" stroke-linejoin="round"/>
<path d="M109.297 46.6336C112.189 46.6336 114.533 43.9526 114.533 40.6454C114.533 37.3382 112.189 34.6572 109.297 34.6572C106.406 34.6572 104.062 37.3382 104.062 40.6454C104.062 43.9526 106.406 46.6336 109.297 46.6336Z" fill="black" stroke="#CAD833" stroke-width="0.82" stroke-linecap="round" stroke-linejoin="round"/>
<path d="M118.17 52.8074L120.058 62.4255C120.058 62.4255 130.772 64.0324 135.046 57.3621L132.66 44.5303L118.17 52.8074Z" fill="black" stroke="#CAD833" stroke-width="0.82" stroke-linecap="round" stroke-linejoin="round"/>
<path d="M133.737 33.4672L133.633 39.1548L128.166 33.9758L107.768 34.7851C106.645 27.4559 112.008 24.9589 114.811 24.1728C115.772 23.8953 116.444 23.826 116.444 23.826C117.788 23.6641 119.027 23.5832 120.162 23.5716C133.506 23.5023 133.737 33.4556 133.737 33.4556V33.4672Z" fill="black" stroke="#CAD833" stroke-width="0.82" stroke-linecap="round" stroke-linejoin="round"/>
<path d="M135.046 57.3621L131.826 40.0796C131.189 32.7736 126.753 25.7565 117.29 26.5889C108.394 27.3634 107.236 33.814 107.108 40.2299C107.097 40.8888 107.108 41.5593 107.178 42.2298C107.224 42.7847 107.293 43.328 107.398 43.8598C108.533 50.3451 112.969 55.0501 119.734 54.4605C122.676 54.2062 125.317 53.0039 127.367 51.2005" fill="black"/>
<path d="M135.046 57.3621L131.826 40.0796C131.189 32.7736 126.753 25.7565 117.29 26.5889C108.394 27.3634 107.236 33.814 107.108 40.2299C107.097 40.8888 107.108 41.5593 107.178 42.2298C107.224 42.7847 107.293 43.328 107.398 43.8598C108.533 50.3451 112.969 55.0501 119.734 54.4605C122.676 54.2062 125.317 53.0039 127.367 51.2005" stroke="#CAD833" stroke-width="0.82" stroke-linecap="round" stroke-linejoin="round"/>
<path d="M112.795 29.5244C112.795 29.5244 112.042 33.0272 115.239 34.8884L112.795 29.5244Z" fill="black"/>
<path d="M112.795 29.5244C112.795 29.5244 112.042 33.0272 115.239 34.8884" stroke="#CAD833" stroke-width="0.82" stroke-linecap="round" stroke-linejoin="round"/>
<path d="M126.683 36.8193C126.683 36.8193 115.112 35.224 112.795 29.5248C112.795 29.5248 108.22 29.0971 107.189 36.3222C107.189 36.3222 105.243 25.1204 117.95 23.9412C117.95 23.9412 125.757 23.4788 131.34 34.5651L126.683 36.8193Z" fill="black" stroke="#CAD833" stroke-width="0.82" stroke-linecap="round" stroke-linejoin="round"/>
<path d="M128.467 42.3799C128.467 42.3799 125.954 49.7553 118.541 49.7091L128.467 42.3799Z" fill="black"/>
<path d="M128.467 42.3799C128.467 42.3799 125.954 49.7553 118.541 49.7091" stroke="#CAD833" stroke-width="0.82" stroke-linecap="round" stroke-linejoin="round"/>
<path d="M118.934 49.4316C118.934 50.1368 118.263 50.7148 117.44 50.7148C116.618 50.7148 115.946 50.1368 115.946 49.4316C115.946 48.7264 116.618 48.1484 117.44 48.1484C118.263 48.1484 118.934 48.7264 118.934 49.4316Z" fill="black" stroke="#CAD833" stroke-width="0.82" stroke-linecap="round" stroke-linejoin="round"/>
<path d="M130.888 45.1424C133.78 45.1424 136.124 42.4614 136.124 39.1542C136.124 35.847 133.78 33.166 130.888 33.166C127.997 33.166 125.653 35.847 125.653 39.1542C125.653 42.4614 127.997 45.1424 130.888 45.1424Z" fill="black" stroke="#CAD833" stroke-width="0.82" stroke-linecap="round" stroke-linejoin="round"/>
<path d="M132.579 34.461L129.846 35.4783C127.842 26.7157 118.784 24.6579 114.811 24.1724C115.772 23.895 116.444 23.8256 116.444 23.8256C117.788 23.6638 119.027 23.5828 120.162 23.5713C129.602 25.6984 132.579 34.4494 132.579 34.4494V34.461Z" fill="black" stroke="#CAD833" stroke-width="0.82" stroke-linecap="round" stroke-linejoin="round"/>
<path d="M132.753 45.1424C135.644 45.1424 137.988 42.4614 137.988 39.1542C137.988 35.847 135.644 33.166 132.753 33.166C129.861 33.166 127.517 35.847 127.517 39.1542C127.517 42.4614 129.861 45.1424 132.753 45.1424Z" fill="black" stroke="#CAD833" stroke-width="0.82" stroke-linecap="round" stroke-linejoin="round"/>
<path d="M11.2355 13.8838H21.3475L28.0888 100.84H17.9768L11.2355 13.8838Z" fill="black" stroke="#CAD833" stroke-width="0.82" stroke-linecap="round" stroke-linejoin="round"/>
<path d="M14.2124 52.3564L0.474915 127.822V131.475H28.0888V127.822H4.56372L15.3591 67.061L14.2124 52.3564Z" fill="black" stroke="#CAD833" stroke-width="0.82" stroke-linecap="round" stroke-linejoin="round"/>
<path d="M69.8803 36.8189C83.0776 36.8189 93.7761 28.6828 93.7761 18.6463C93.7761 8.60981 83.0776 0.473633 69.8803 0.473633C56.6831 0.473633 45.9846 8.60981 45.9846 18.6463C45.9846 28.6828 56.6831 36.8189 69.8803 36.8189Z" fill="black" stroke="#CAD833" stroke-width="0.82" stroke-linecap="round" stroke-linejoin="round"/>
<path d="M76.0193 34.1493C76.0193 34.1493 78.695 40.1259 88.4826 40.1375C88.4826 40.1375 83.6062 36.311 84.3243 30.5078" fill="black"/>
<path d="M76.0193 34.1493C76.0193 34.1493 78.695 40.1259 88.4826 40.1375C88.4826 40.1375 83.6062 36.311 84.3243 30.5078" stroke="#CAD833" stroke-width="0.82" stroke-linecap="round" stroke-linejoin="round"/>
<path d="M57.9614 11.1904H68.8031" stroke="#CAD833" stroke-width="0.82" stroke-linecap="round" stroke-linejoin="round"/>
<path d="M57.9614 15.8721H83.0734" stroke="#CAD833" stroke-width="0.82" stroke-linecap="round" stroke-linejoin="round"/>
<path d="M57.9614 20.7393H83.0734" stroke="#CAD833" stroke-width="0.82" stroke-linecap="round" stroke-linejoin="round"/>
<path d="M57.9614 25.6055H80.0502" stroke="#CAD833" stroke-width="0.82" stroke-linecap="round" stroke-linejoin="round"/>
</g>
<defs>
<clipPath id="clip0_1412_2126">
<rect width="171" height="139" fill="white"/>
</clipPath>
</defs>
</svg>
