<svg width="290" height="189" viewBox="0 0 290 189" fill="none" xmlns="http://www.w3.org/2000/svg">
<g clip-path="url(#clip0_123_4449)">
<path d="M8.43971 174.117H0.487183L10.4979 103.154H18.4504L8.43971 174.117Z" fill="black" stroke="#C7DA01" stroke-width="0.8" stroke-linecap="round" stroke-linejoin="round"/>
<path d="M178.548 174.117H186.513L176.502 103.154H168.55L178.548 174.117Z" fill="black" stroke="#C7DA01" stroke-width="0.8" stroke-linecap="round" stroke-linejoin="round"/>
<path d="M184.966 101.448H2.02161V110.561H184.966V101.448Z" fill="black" stroke="#C7DA01" stroke-width="0.8" stroke-linecap="round" stroke-linejoin="round"/>
<path d="M115.123 85.3797L113.808 79.7514C113.808 79.7514 114.258 74.7444 114.112 72.7952C113.929 70.5415 113.101 67.971 110.349 67.3862C110.349 67.3862 107.511 66.8502 107.743 67.7639C107.743 67.7639 105.904 67.7151 106.269 68.7872C106.269 68.7872 105.258 69.908 105.77 70.5902L106.744 71.6744C106.744 71.6744 104.929 71.0897 105.1 71.8328C105.1 71.8328 105.051 72.7343 105.977 73.5262C105.977 73.5262 107.085 74.5251 107.207 74.9272C107.207 74.9272 105.38 79.2154 108.132 81.7494L108.412 88.4254" fill="black"/>
<path d="M115.123 85.3797L113.808 79.7514C113.808 79.7514 114.258 74.7444 114.112 72.7952C113.929 70.5415 113.101 67.971 110.349 67.3862C110.349 67.3862 107.511 66.8502 107.743 67.7639C107.743 67.7639 105.904 67.7151 106.269 68.7872C106.269 68.7872 105.258 69.908 105.77 70.5902L106.744 71.6744C106.744 71.6744 104.929 71.0897 105.1 71.8328C105.1 71.8328 105.051 72.7343 105.977 73.5262C105.977 73.5262 107.085 74.5251 107.207 74.9272C107.207 74.9272 105.38 79.2154 108.132 81.7494L108.412 88.4254" stroke="#C7DA01" stroke-width="0.8" stroke-linecap="round" stroke-linejoin="round"/>
<path d="M107.743 67.7639C107.743 67.7639 111.311 68.4583 111.725 71.3577L107.743 67.7639Z" fill="black"/>
<path d="M107.743 67.7639C107.743 67.7639 111.311 68.4583 111.725 71.3577" stroke="#C7DA01" stroke-width="0.8" stroke-linecap="round" stroke-linejoin="round"/>
<path d="M106.269 68.7872C106.269 68.7872 109.923 70.7852 110.239 72.8075L106.269 68.7872Z" fill="black"/>
<path d="M106.269 68.7872C106.269 68.7872 109.923 70.7852 110.239 72.8075" stroke="#C7DA01" stroke-width="0.8" stroke-linecap="round" stroke-linejoin="round"/>
<path d="M106.744 71.6744C106.744 71.6744 107.986 72.5881 108.023 73.3069L106.744 71.6744Z" fill="black"/>
<path d="M106.744 71.6744C106.744 71.6744 107.986 72.5881 108.023 73.3069" stroke="#C7DA01" stroke-width="0.8" stroke-linecap="round" stroke-linejoin="round"/>
<path d="M128.604 161.009C128.994 160.119 129.165 159.51 129.165 159.51C129.165 158.06 131.819 158.402 131.819 158.402C133.33 158.438 133.013 159.681 132.794 160.205C130.748 161.301 129.433 161.301 128.604 161.009Z" fill="black" stroke="#C7DA01" stroke-width="0.8" stroke-linecap="round" stroke-linejoin="round"/>
<path d="M131.795 162.738L139.455 161.216L136.143 145.61L128.483 147.12L131.795 162.738Z" fill="black" stroke="#C7DA01" stroke-width="0.8" stroke-linecap="round" stroke-linejoin="round"/>
<path d="M136.289 165.333C137.957 163.482 140.856 161.813 142.208 161.094C142.902 163.226 143.304 165.248 143.304 165.248L131.198 171.01C122.856 174.75 122.381 172.679 122.381 172.679C121.858 171.888 121.419 170.779 121.322 170.182C123.355 169.39 125.572 169.926 125.572 169.926C129.981 171.132 136.289 165.333 136.289 165.333Z" fill="black" stroke="#C7DA01" stroke-width="0.8" stroke-linecap="round" stroke-linejoin="round"/>
<path d="M125.231 165.821C126.717 164.298 128.385 162.154 128.86 160.875C128.811 161.021 131.32 160.302 131.357 160.265C132.27 159.315 132.197 158.743 133.573 157.987C135.327 157.013 137.141 156.367 138.81 156.477L140.357 157.951C139.553 158.828 138.652 160.436 139.127 162.97C138.104 163.677 137.056 164.493 136.289 165.346C136.289 165.346 131.759 169.561 127.581 170.048C126.364 167.794 126.047 166.381 125.231 165.833V165.821Z" fill="black" stroke="#C7DA01" stroke-width="0.8" stroke-linecap="round" stroke-linejoin="round"/>
<path d="M121.322 170.182C120.956 167.66 124.5 166.503 124.5 166.503C124.756 166.284 124.999 166.052 125.231 165.821C126.047 166.369 127.569 168.196 127.581 170.036C125.584 170.267 123.38 170.767 121.322 170.182Z" fill="black" stroke="#C7DA01" stroke-width="0.8" stroke-linecap="round" stroke-linejoin="round"/>
<path d="M128.19 161.191C128.19 161.191 125.864 158.718 124.634 160.667C124.634 160.667 124.573 162.872 128.604 161.009" fill="black"/>
<path d="M128.19 161.191C128.19 161.191 125.864 158.718 124.634 160.667C124.634 160.667 124.573 162.872 128.604 161.009" stroke="#C7DA01" stroke-width="0.8" stroke-linecap="round" stroke-linejoin="round"/>
<path d="M124.5 163.372L128.154 161.605" stroke="#C7DA01" stroke-width="0.8" stroke-linecap="round" stroke-linejoin="round"/>
<path d="M140.357 157.939L140.71 158.377C141.465 159.291 141.928 160.229 142.208 161.094C141.489 161.484 138.542 163.506 137.361 164.31C136.873 161.776 137.214 158.682 140.357 157.926V157.939Z" fill="black" stroke="#C7DA01" stroke-width="0.8" stroke-linecap="round" stroke-linejoin="round"/>
<path d="M105.234 162.312C105.94 161.618 106.33 161.118 106.33 161.118C106.89 159.778 109.216 161.033 109.216 161.033C110.605 161.618 109.837 162.641 109.435 163.067C107.122 163.36 105.892 162.885 105.234 162.312Z" fill="black" stroke="#C7DA01" stroke-width="0.8" stroke-linecap="round" stroke-linejoin="round"/>
<path d="M108.656 164.493L116.414 165.431L115.659 149.764L107.901 148.826L108.656 164.493Z" fill="black" stroke="#C7DA01" stroke-width="0.8" stroke-linecap="round" stroke-linejoin="round"/>
<path d="M110.714 169.086C112.979 167.965 116.292 167.453 117.839 167.27C117.656 169.5 117.266 171.522 117.266 171.522L103.809 172.545C94.6265 173.033 94.9796 170.937 94.9796 170.937C94.797 170.011 94.8091 168.818 94.9553 168.233C97.1474 168.233 98.9985 169.512 98.9985 169.512C102.628 172.216 110.714 169.086 110.714 169.086Z" fill="black" stroke="#C7DA01" stroke-width="0.8" stroke-linecap="round" stroke-linejoin="round"/>
<path d="M100.253 165.577C102.226 164.688 104.588 163.299 105.514 162.276C105.404 162.397 108.023 162.617 108.071 162.604C109.277 162.044 109.435 161.496 111.006 161.277C113.004 160.996 114.94 161.033 116.45 161.74L117.327 163.664C116.243 164.2 114.794 165.37 114.27 167.879C113.052 168.172 111.774 168.55 110.714 169.073C110.714 169.073 104.893 171.364 100.825 170.328C100.557 167.806 100.801 166.369 100.265 165.565L100.253 165.577Z" fill="black" stroke="#C7DA01" stroke-width="0.8" stroke-linecap="round" stroke-linejoin="round"/>
<path d="M94.9553 168.233C95.5764 165.76 99.3152 165.955 99.3152 165.955C99.644 165.845 99.9606 165.723 100.253 165.589C100.801 166.393 101.507 168.635 100.813 170.352C98.8646 169.853 96.6359 169.536 94.9431 168.245L94.9553 168.233Z" fill="black" stroke="#C7DA01" stroke-width="0.8" stroke-linecap="round" stroke-linejoin="round"/>
<path d="M104.771 162.336C104.771 162.336 103.553 159.193 101.666 160.57C101.666 160.57 100.764 162.58 105.222 162.3" fill="black"/>
<path d="M104.771 162.336C104.771 162.336 103.553 159.193 101.666 160.57C101.666 160.57 100.764 162.58 105.222 162.3" stroke="#C7DA01" stroke-width="0.8" stroke-linecap="round" stroke-linejoin="round"/>
<path d="M100.509 163.043L104.576 162.714" stroke="#C7DA01" stroke-width="0.8" stroke-linecap="round" stroke-linejoin="round"/>
<path d="M117.315 163.677L117.473 164.213C117.826 165.333 117.899 166.369 117.826 167.27C116.998 167.368 113.503 168.196 112.09 168.525C112.614 166.003 114.1 163.25 117.315 163.677Z" fill="black" stroke="#C7DA01" stroke-width="0.8" stroke-linecap="round" stroke-linejoin="round"/>
<path d="M134.377 129.419C137.3 142.26 139.407 154.284 139.407 154.284L128.166 156.233L121.249 125.752" fill="black"/>
<path d="M134.377 129.419C137.3 142.26 139.407 154.284 139.407 154.284L128.166 156.233L121.249 125.752" stroke="#C7DA01" stroke-width="0.8" stroke-linecap="round" stroke-linejoin="round"/>
<path d="M128.641 152.749L138.469 150.812" stroke="#C7DA01" stroke-width="0.8" stroke-linecap="round" stroke-linejoin="round"/>
<path d="M151.451 176.383C151.451 176.383 151.524 176.383 151.561 176.383C152.413 176.322 153.059 175.579 152.998 174.726L151.098 147.985C150.733 135.498 146.007 133.245 145.471 133.025C144.68 132.709 143.766 133.098 143.45 133.89C143.133 134.67 143.499 135.547 144.266 135.888C144.424 135.974 147.7 137.947 148.005 148.144L149.904 174.945C149.965 175.761 150.647 176.395 151.451 176.395V176.383Z" fill="black" stroke="#C7DA01" stroke-width="0.8" stroke-linecap="round" stroke-linejoin="round"/>
<path d="M138.067 178.758C138.067 178.758 137.994 178.758 137.957 178.758C137.105 178.697 136.459 177.954 136.52 177.102L138.42 150.361C138.786 137.874 143.511 135.62 144.047 135.401C144.838 135.084 145.739 135.474 146.068 136.266C146.385 137.046 146.02 137.923 145.264 138.264C145.106 138.361 141.83 140.323 141.526 150.519L139.626 177.321C139.565 178.137 138.883 178.758 138.079 178.758H138.067Z" fill="black" stroke="#C7DA01" stroke-width="0.8" stroke-linecap="round" stroke-linejoin="round"/>
<path d="M119.385 175.457C119.324 175.457 119.263 175.457 119.203 175.457C118.35 175.347 117.741 174.58 117.851 173.727L121.468 144.063C122.722 131.478 127.216 130.102 128.093 129.955L128.604 133.013C128.604 133.013 128.641 133.013 128.714 132.989C128.677 132.989 125.584 134.122 124.549 144.404L120.932 174.105C120.834 174.897 120.165 175.469 119.385 175.469V175.457Z" fill="black" stroke="#C7DA01" stroke-width="0.8" stroke-linecap="round" stroke-linejoin="round"/>
<path d="M171.399 176.383C171.46 176.383 171.521 176.383 171.594 176.371C172.447 176.273 173.056 175.494 172.946 174.641L169.329 144.976C168.075 132.392 163.581 131.015 162.704 130.869L162.192 133.927C162.192 133.927 162.156 133.927 162.083 133.903C162.119 133.903 165.213 135.036 166.248 145.318L169.877 175.018C169.975 175.81 170.644 176.383 171.412 176.383H171.399Z" fill="black" stroke="#C7DA01" stroke-width="0.8" stroke-linecap="round" stroke-linejoin="round"/>
<path d="M170.316 132.501C170.316 136.912 159.818 140.481 146.86 140.481C133.902 140.481 123.404 136.912 123.404 132.501C123.404 128.091 133.902 124.522 146.86 124.522C159.818 124.522 170.316 128.091 170.316 132.501Z" fill="black" stroke="#C7DA01" stroke-width="0.8" stroke-linecap="round" stroke-linejoin="round"/>
<path d="M144.327 138.045C144.327 138.045 152.084 138.398 155.665 137.24L144.327 138.045Z" fill="black"/>
<path d="M144.327 138.045C144.327 138.045 152.084 138.398 155.665 137.24" stroke="#C7DA01" stroke-width="0.8" stroke-linecap="round" stroke-linejoin="round"/>
<path d="M156.493 127.799C156.42 128.067 156.347 128.323 156.262 128.554C155.129 132.087 152.876 134.731 149.174 135.62C147.152 136.108 145.143 135.949 143.097 135.84C137.507 135.535 122.198 134.292 116.596 134.085C115.172 134.037 113.734 133.976 112.31 133.915C108.595 133.769 105.648 130.808 105.77 126.094C105.892 121.379 108.997 117.675 112.724 117.834L138.505 117.761C138.505 117.761 143.62 118.492 144.716 118.455C147.335 118.37 152.632 113.071 154.617 115.446C156.554 117.749 157.272 124.985 156.493 127.811V127.799Z" fill="black" stroke="#C7DA01" stroke-width="0.8" stroke-linecap="round" stroke-linejoin="round"/>
<path d="M117.741 132.185C118.241 145.342 117.924 159.035 117.924 159.035L106.842 158.755L105.892 125.716" fill="black"/>
<path d="M117.741 132.185C118.241 145.342 117.924 159.035 117.924 159.035L106.842 158.755L105.892 125.716" stroke="#C7DA01" stroke-width="0.8" stroke-linecap="round" stroke-linejoin="round"/>
<path d="M107.523 155.782L117.12 155.941" stroke="#C7DA01" stroke-width="0.8" stroke-linecap="round" stroke-linejoin="round"/>
<path d="M153.534 75.0246C152.011 74.9028 149.259 71.4429 148.845 70.9922C148.638 70.7729 146.884 60.9173 146.787 60.3325C146.787 60.3325 140.819 62.0381 140.807 62.0259C137.47 60.4178 139.309 70.7729 139.358 71.2602C139.748 74.9149 138.152 74.3667 136.886 75.2682C136.886 78.3991 138.067 79.7148 140.99 79.6905C143.608 79.6661 145.825 77.8387 147.237 76.9372C149.405 75.5363 153.521 75.0124 153.521 75.0124L153.534 75.0246Z" fill="black" stroke="#C7DA01" stroke-width="0.8" stroke-linecap="round" stroke-linejoin="round"/>
<path d="M131.32 55.6301C129.761 61.6482 132.916 67.6663 138.359 69.0795C143.815 70.4927 149.49 66.7648 151.049 60.7467C152.608 54.7286 149.454 48.7104 144.01 47.2972C138.554 45.8841 132.879 49.6119 131.32 55.6301Z" fill="black" stroke="#C7DA01" stroke-width="0.8" stroke-linecap="round" stroke-linejoin="round"/>
<path d="M133.658 52.6942C131.99 51.3176 132.392 49.4049 134.523 47.3948C138.725 43.4599 148.358 44.5685 152.036 51.2567C153.29 53.5348 153.046 55.7033 153.034 60.0037C153.022 63.6462 149.783 67.6299 147.591 68.1172C144.741 68.7629 139.09 65.9609 138.883 61.6483C138.786 59.76 138.907 57.689 138.006 55.9591C137.081 54.1926 135.083 53.8759 133.646 52.682L133.658 52.6942Z" fill="black" stroke="#C7DA01" stroke-width="0.8" stroke-linecap="round" stroke-linejoin="round"/>
<path d="M136.971 63.1467C138.286 63.4878 139.638 62.6959 139.991 61.3681C140.332 60.0523 139.541 58.7001 138.213 58.359L137.689 58.225" fill="black"/>
<path d="M136.971 63.1467C138.286 63.4878 139.638 62.6959 139.991 61.3681C140.332 60.0523 139.541 58.7001 138.213 58.359L137.689 58.225" stroke="#C7DA01" stroke-width="0.8" stroke-linecap="round" stroke-linejoin="round"/>
<path d="M138.347 60.9538L137.373 60.698" stroke="#C7DA01" stroke-width="0.8" stroke-linecap="round" stroke-linejoin="round"/>
<path d="M126.364 91.9339C126.4 89.8264 127.131 85.7087 127.691 82.3098L133.841 75.9992C137.848 74.1353 141.599 72.5029 145.971 72.5516C149.868 72.6003 152.888 72.7709 155.775 76.3404C158.624 79.8733 159.184 84.1615 159.416 88.669C159.745 94.7359 156.846 117.87 156.846 117.87C152.681 119.832 142.829 122.719 131.077 118.065C131.077 118.065 130.918 104.531 129.749 102.533C127.922 99.4261 126.29 95.5765 126.351 91.9217L126.364 91.9339Z" fill="black" stroke="#C7DA01" stroke-width="0.8" stroke-linecap="round" stroke-linejoin="round"/>
<path d="M123.1 104.933C119.738 108.953 116.036 108.977 113.978 108.271C111.774 107.515 110.337 105.115 109.655 103.057C109.655 103.057 106.988 88.8762 106.988 88.864C106.902 88.4132 106.586 87.9259 106.513 87.4264C106.257 85.7087 108.254 84.9169 109.606 84.2468C111.457 83.3088 113.722 82.59 115.805 83.0408C116.134 83.1139 116.56 84.0154 116.633 84.2956C116.73 84.6732 116.706 85.1118 116.73 85.5016L121.48 95.5765L123.246 103.057" fill="black"/>
<path d="M123.1 104.933C119.738 108.953 116.036 108.977 113.978 108.271C111.774 107.515 110.337 105.115 109.655 103.057C109.655 103.057 106.988 88.8762 106.988 88.864C106.902 88.4132 106.586 87.9259 106.513 87.4264C106.257 85.7087 108.254 84.9169 109.606 84.2468C111.457 83.3088 113.722 82.59 115.805 83.0408C116.134 83.1139 116.56 84.0154 116.633 84.2956C116.73 84.6732 116.706 85.1118 116.73 85.5016L121.48 95.5765L123.246 103.057" stroke="#C7DA01" stroke-width="0.8" stroke-linecap="round" stroke-linejoin="round"/>
<path d="M139.48 74.3912C135.412 73.4531 132.404 73.5871 129.359 75.2805C124.598 77.9363 116.669 96.6851 116.669 96.6851L122.82 105.286C122.82 105.286 131.661 94.0415 135.047 88.6812" fill="black"/>
<path d="M122.369 105.737C130.041 96.3683 131.259 94.5653 135.4 88.8639L122.369 105.737Z" fill="black"/>
<path d="M122.369 105.737C130.041 96.3683 131.259 94.5653 135.4 88.8639" stroke="#C7DA01" stroke-width="0.8" stroke-linecap="round" stroke-linejoin="round"/>
<path d="M139.48 74.3912C135.412 73.4531 132.404 73.5871 129.359 75.2805C124.598 77.9363 116.669 96.6851 116.669 96.6851" fill="black"/>
<path d="M139.48 74.3912C135.412 73.4531 132.404 73.5871 129.359 75.2805C124.598 77.9363 116.669 96.6851 116.669 96.6851" stroke="#C7DA01" stroke-width="0.8" stroke-linecap="round" stroke-linejoin="round"/>
<path d="M148.394 51.4637C148.553 48.7958 150.562 47.1268 152.486 47.3461C155.36 47.675 157.272 49.3805 158.137 52.219C158.904 54.7165 158.953 57.421 159.063 60.0158C159.063 60.028 159.635 74.0013 164.092 75.4632C164.092 75.4632 152.693 77.8632 152.462 63.1955C152.535 61.3437 152.486 59.492 152.364 57.6524C152.267 56.1296 152.559 54.1926 151.731 52.8282C150.428 50.6962 148.394 51.5368 148.394 51.4881V51.4637Z" fill="black" stroke="#C7DA01" stroke-width="0.8" stroke-linecap="round" stroke-linejoin="round"/>
<path d="M135.619 73.6358C135.619 73.6358 137.763 72.6247 140.198 72.1739C143.438 71.577 146.823 71.2846 150.111 71.5404C153.57 71.8084 157.297 72.0643 159.44 75.0002C162.132 78.7037 160.134 84.0031 156.103 85.8548C150.428 88.4619 144.095 84.6488 141.221 78.8255C141.221 78.8255 138.822 74.7079 135.619 73.6358Z" fill="black" stroke="#C7DA01" stroke-width="0.8" stroke-linecap="round" stroke-linejoin="round"/>
<path d="M139.638 72.6003C139.638 72.6003 147.834 77.12 153.217 75.6093C154.033 75.3779 155.628 74.7931 155.738 73.9038C156.103 70.578 145.593 71.3576 143.864 71.5404C143.048 71.6257 142.244 71.7475 141.453 71.9668C141.221 72.0277 139.796 72.6855 139.65 72.6003H139.638Z" fill="black" stroke="#C7DA01" stroke-width="0.8" stroke-linecap="round" stroke-linejoin="round"/>
<path d="M142.354 75.7677C142.354 75.7677 146.628 79.4103 151.536 79.2519L142.354 75.7677Z" fill="black"/>
<path d="M142.354 75.7677C142.354 75.7677 146.628 79.4103 151.536 79.2519" stroke="#C7DA01" stroke-width="0.8" stroke-linecap="round" stroke-linejoin="round"/>
<path d="M165.03 135.974C164.933 135.974 164.847 135.974 164.762 135.949C163.922 135.791 163.349 134.938 163.496 134.037L166.808 105.785C166.954 104.884 167.77 104.287 168.611 104.445C169.451 104.604 170.023 105.457 169.865 106.358L166.552 134.609C166.418 135.413 165.761 135.974 165.03 135.974Z" fill="black" stroke="#C7DA01" stroke-width="0.8" stroke-linecap="round" stroke-linejoin="round"/>
<path d="M139.687 137.679C139.601 137.679 139.504 137.679 139.419 137.655C138.578 137.484 138.006 136.558 138.164 135.596L141.721 105.798C141.867 104.823 142.683 104.177 143.523 104.348C144.363 104.518 144.936 105.444 144.777 106.407L141.221 136.205C141.087 137.07 140.43 137.679 139.699 137.679H139.687Z" fill="black" stroke="#C7DA01" stroke-width="0.8" stroke-linecap="round" stroke-linejoin="round"/>
<path d="M165.091 85.9767H145.435C140.579 85.9767 136.642 89.9147 136.642 94.7724V101.57C136.642 106.428 140.579 110.366 145.435 110.366H165.091C169.947 110.366 173.884 106.428 173.884 101.57V94.7724C173.884 89.9147 169.947 85.9767 165.091 85.9767Z" fill="black" stroke="#C7DA01" stroke-width="0.8" stroke-linecap="round" stroke-linejoin="round"/>
<path d="M167.795 89.8385C167.795 89.8385 170.474 91.4466 170.644 94.9308L167.795 89.8385Z" fill="black"/>
<path d="M167.795 89.8385C167.795 89.8385 170.474 91.4466 170.644 94.9308" stroke="#C7DA01" stroke-width="0.8" stroke-linecap="round" stroke-linejoin="round"/>
<path d="M61.489 161.813C61.489 161.813 60.7461 158.779 63.401 159.413C64.5336 159.681 66.0193 160.058 66.6039 160.412C67.3833 160.887 67.1519 161.618 67.0667 162.288C67.0423 162.483 66.9205 163.701 66.9327 163.871" fill="black"/>
<path d="M61.489 161.813C61.489 161.813 60.7461 158.779 63.401 159.413C64.5336 159.681 66.0193 160.058 66.6039 160.412C67.3833 160.887 67.1519 161.618 67.0667 162.288C67.0423 162.483 66.9205 163.701 66.9327 163.871" stroke="#C7DA01" stroke-width="0.8" stroke-linecap="round" stroke-linejoin="round"/>
<path d="M65.0451 151.799L56.5202 151.043L56.3862 160.594L60.7948 165.163L66.8597 163.628L64.1439 160.948L65.0451 151.799Z" fill="black" stroke="#C7DA01" stroke-width="0.8" stroke-linecap="round" stroke-linejoin="round"/>
<path d="M55.1683 168.208C55.1683 168.208 54.4863 169.414 55.2048 170.279C56.6297 170.413 59.0045 170.681 60.405 170.974C65.8123 172.095 71.0733 175.737 76.3953 172.509C76.3953 172.509 77.467 170.84 76.237 169.146L66.1898 166.807L60.5146 164.273L55.1805 168.208H55.1683Z" fill="black" stroke="#C7DA01" stroke-width="0.8" stroke-linecap="round" stroke-linejoin="round"/>
<path d="M73.095 163.896C71.256 162.726 69.1979 163.372 67.1762 162.909C66.543 162.775 65.52 162.105 65.52 162.105L64.0586 162.994C62.6459 162.349 61.3062 161.545 59.8448 161.045C58.5052 160.582 57.1777 160.57 55.765 160.533C54.9247 164.334 55.4606 168.099 55.4606 168.099C55.5945 168.221 57.0925 168.184 57.7014 168.257C60.9896 168.684 62.9625 169.682 65.7148 170.365C68.5037 171.059 70.5253 171.912 73.3873 171.303C73.8866 171.193 76.0909 170.474 76.0787 169.743C76.0422 167.295 75.214 165.224 73.1071 163.896H73.095Z" fill="black" stroke="#C7DA01" stroke-width="0.8" stroke-linecap="round" stroke-linejoin="round"/>
<path d="M81.6321 164.773C81.6321 164.773 80.6822 161.8 83.3858 162.263C84.5306 162.458 86.0285 162.738 86.6496 163.055C87.4656 163.482 87.2829 164.225 87.222 164.895C87.2099 165.09 87.1733 166.32 87.1977 166.491" fill="black"/>
<path d="M81.6321 164.773C81.6321 164.773 80.6822 161.8 83.3858 162.263C84.5306 162.458 86.0285 162.738 86.6496 163.055C87.4656 163.482 87.2829 164.225 87.222 164.895C87.2099 165.09 87.1733 166.32 87.1977 166.491" stroke="#C7DA01" stroke-width="0.8" stroke-linecap="round" stroke-linejoin="round"/>
<path d="M84.5306 154.552L75.9691 154.357L76.4684 163.896L81.1571 168.16L87.1002 166.247L84.2261 163.737L84.5306 154.552Z" fill="black" stroke="#C7DA01" stroke-width="0.8" stroke-linecap="round" stroke-linejoin="round"/>
<path d="M75.7377 171.571C75.7377 171.571 75.1288 172.813 75.9083 173.63C77.3331 173.666 79.7201 173.788 81.1328 173.995C86.6009 174.763 92.0812 178.064 97.184 174.482C97.184 174.482 98.1461 172.752 96.8065 171.132L86.6253 169.451L80.804 167.295L75.7377 171.559V171.571Z" fill="black" stroke="#C7DA01" stroke-width="0.8" stroke-linecap="round" stroke-linejoin="round"/>
<path d="M93.3477 166.101C91.4357 165.053 89.4263 165.821 87.3803 165.504C86.747 165.406 85.6753 164.81 85.6753 164.81L84.2748 165.796C82.8255 165.248 81.4372 164.529 79.9393 164.115C78.5631 163.737 77.2356 163.823 75.8351 163.871C75.2506 167.721 76.0178 171.437 76.0178 171.437C76.1639 171.559 77.6497 171.412 78.2586 171.449C81.559 171.656 83.605 172.533 86.3938 173.033C89.2192 173.544 91.3017 174.275 94.1028 173.471C94.6021 173.325 96.7455 172.472 96.6968 171.741C96.5019 169.305 95.5398 167.295 93.3599 166.101H93.3477Z" fill="black" stroke="#C7DA01" stroke-width="0.8" stroke-linecap="round" stroke-linejoin="round"/>
<path d="M97.1109 63.5975C97.8538 63.6097 98.8159 65.5954 98.4384 66.57L91.1557 85.5747C90.8999 86.2204 90.1083 86.7442 89.3654 86.732L59.577 86.2204C58.8341 86.2082 57.6406 84.5514 57.8841 83.8935L65.9706 66.0096C66.2142 65.364 67.018 64.8401 67.7609 64.8523L97.1231 63.5853L97.1109 63.5975Z" fill="black" stroke="#C7DA01" stroke-width="0.8" stroke-linecap="round" stroke-linejoin="round"/>
<path d="M96.7334 63.5365C97.4763 63.5365 97.8782 64.0847 97.6224 64.7304L90.3397 83.7351C90.0962 84.3929 89.2924 84.9046 88.5495 84.8924L58.7488 84.3807C58.006 84.3685 57.6041 83.8325 57.8598 83.1747L65.1425 64.17C65.3983 63.5243 66.1899 63.0005 66.9328 63.0127L96.7334 63.5243V63.5365Z" fill="black" stroke="#C7DA01" stroke-width="0.8" stroke-linecap="round" stroke-linejoin="round"/>
<path d="M93.0676 65.5223C93.6644 65.5223 93.981 65.9608 93.7861 66.4847L87.9283 81.7615C87.7213 82.2854 87.0758 82.6996 86.4791 82.6874L62.5241 82.2854C61.9273 82.2732 61.6107 81.8468 61.8056 81.3229L67.6634 66.0461C67.8582 65.5223 68.5037 65.1081 69.1004 65.1203L93.0554 65.5223H93.0676Z" fill="black" stroke="#C7DA01" stroke-width="0.8" stroke-linecap="round" stroke-linejoin="round"/>
<path d="M58.7854 77.8266C58.7854 77.8266 60.6609 74.2937 62.0736 72.5516C63.2914 71.0531 65.6175 69.6643 68.1872 68.6166C69.2467 68.1903 70.5254 67.6542 71.4266 67.5324C72.5105 67.374 72.9855 67.6664 73.022 68.3974C73.0585 68.9943 71.8285 69.9323 69.9774 70.7608C69.1371 71.1384 68.2237 71.3821 67.493 72.0156C67.493 72.0156 70.0505 73.7333 68.3211 74.8906C68.3211 74.8906 69.3076 74.6592 69.4903 75.1708C69.8678 76.2794 69.4537 75.7434 69.4537 75.7434C72.2669 75.8652 70.8299 79.6418 67.8462 79.325L69.064 77.522C69.064 77.522 66.9693 82.3219 62.8895 83.6985" fill="black"/>
<path d="M58.7854 77.8266C58.7854 77.8266 60.6609 74.2937 62.0736 72.5516C63.2914 71.0531 65.6175 69.6643 68.1872 68.6166C69.2467 68.1903 70.5254 67.6542 71.4266 67.5324C72.5105 67.374 72.9855 67.6664 73.022 68.3974C73.0585 68.9943 71.8285 69.9323 69.9774 70.7608C69.1371 71.1384 68.2237 71.3821 67.493 72.0156C67.493 72.0156 70.0505 73.7333 68.3211 74.8906C68.3211 74.8906 69.3076 74.6592 69.4903 75.1708C69.8678 76.2794 69.4537 75.7434 69.4537 75.7434C72.2669 75.8652 70.8299 79.6418 67.8462 79.325L69.064 77.522C69.064 77.522 66.9693 82.3219 62.8895 83.6985" stroke="#C7DA01" stroke-width="0.8" stroke-linecap="round" stroke-linejoin="round"/>
<path d="M70.0261 79.2154C69.064 79.7514 68.0288 79.7392 67.7365 79.2032C67.4321 78.655 67.9679 77.7779 68.9422 77.254C69.9043 76.718 70.9395 76.7302 71.2318 77.2784C71.5362 77.8144 71.0004 78.6916 70.0261 79.2276V79.2154Z" fill="black" stroke="#C7DA01" stroke-width="0.8" stroke-linecap="round" stroke-linejoin="round"/>
<path d="M69.137 77.7169C67.9678 78.3504 66.7135 78.326 66.3359 77.6804C65.9584 77.0347 66.616 75.987 67.7852 75.3657C68.9665 74.7322 70.2209 74.7444 70.5862 75.4022C70.9637 76.0479 70.3183 77.0834 69.137 77.7169Z" fill="black" stroke="#C7DA01" stroke-width="0.8" stroke-linecap="round" stroke-linejoin="round"/>
<path d="M68.2724 75.6337C67.1032 76.2672 65.8488 76.255 65.4713 75.5972C65.0938 74.9515 65.7514 73.9038 66.9205 73.2825C68.0897 72.649 69.3562 72.6734 69.7216 73.319C70.0991 73.9647 69.4537 75.0124 68.2724 75.6337Z" fill="black" stroke="#C7DA01" stroke-width="0.8" stroke-linecap="round" stroke-linejoin="round"/>
<path d="M62.8164 73.6236C63.3766 73.1363 63.9125 72.7464 64.6797 72.2713C65.3982 71.8328 66.5552 71.6866 67.3224 72.0886C69.4658 73.2094 69.0761 74.2327 67.9435 74.4154L66.0437 74.1353C66.1168 73.9647 66.2751 75.8652 64.0343 77.0469" fill="black"/>
<path d="M62.8164 73.6236C63.3766 73.1363 63.9125 72.7464 64.6797 72.2713C65.3982 71.8328 66.5552 71.6866 67.3224 72.0886C69.4658 73.2094 69.0761 74.2327 67.9435 74.4154L66.0437 74.1353C66.1168 73.9647 66.2751 75.8652 64.0343 77.0469" stroke="#C7DA01" stroke-width="0.8" stroke-linecap="round" stroke-linejoin="round"/>
<path d="M36.0604 98.9632C38.4596 101.948 41.2119 102.947 43.4893 102.849C45.9371 102.752 48.9574 101.12 50.9547 98.5246L63.9125 83.93C63.9125 83.93 61.5621 77.7901 57.0195 77.4368L41.0901 89.6314L39.0198 95.479" fill="black"/>
<path d="M36.0604 98.9632C38.4596 101.948 41.2119 102.947 43.4893 102.849C45.9371 102.752 48.9574 101.12 50.9547 98.5246L63.9125 83.93C63.9125 83.93 61.5621 77.7901 57.0195 77.4368L41.0901 89.6314L39.0198 95.479" stroke="#C7DA01" stroke-width="0.8" stroke-linecap="round" stroke-linejoin="round"/>
<path d="M55.1805 133.05C54.6446 146.597 54.9126 159.169 54.9126 159.169L68.8691 158.913L70.0991 126.751" fill="black"/>
<path d="M55.1805 133.05C54.6446 146.597 54.9126 159.169 54.9126 159.169L68.8691 158.913L70.0991 126.751" stroke="#C7DA01" stroke-width="0.8" stroke-linecap="round" stroke-linejoin="round"/>
<path d="M37.7532 178.137C37.7532 178.137 37.6801 178.137 37.6435 178.137C36.7911 178.076 36.1456 177.333 36.2065 176.48L38.1063 149.74C38.4717 137.253 43.1969 134.999 43.7328 134.78C44.5244 134.463 45.4378 134.853 45.7544 135.645C46.071 136.424 45.7057 137.301 44.9384 137.643C44.7801 137.728 41.5041 139.701 41.1997 149.898L39.2998 176.7C39.2389 177.516 38.5569 178.149 37.7532 178.149V178.137Z" fill="black" stroke="#C7DA01" stroke-width="0.8" stroke-linecap="round" stroke-linejoin="round"/>
<path d="M51.1373 180.513C51.1373 180.513 51.2103 180.513 51.2469 180.513C52.0994 180.452 52.7448 179.709 52.6839 178.856L50.7841 152.115C50.4187 139.628 45.6935 137.375 45.1576 137.155C44.366 136.838 43.4648 137.228 43.136 138.02C42.8194 138.8 43.1847 139.677 43.952 140.018C44.1103 140.116 47.3985 142.077 47.6908 152.274L49.5906 179.075C49.6515 179.891 50.3335 180.513 51.1373 180.513Z" fill="black" stroke="#C7DA01" stroke-width="0.8" stroke-linecap="round" stroke-linejoin="round"/>
<path d="M69.819 177.211C69.8799 177.211 69.9408 177.211 70.0017 177.211C70.8542 177.102 71.4631 176.334 71.3535 175.481L67.7365 145.817C66.4822 133.233 61.9883 131.856 61.1115 131.71L60.6 134.768C60.6 134.768 60.5634 134.768 60.4904 134.743C60.5269 134.743 63.6202 135.876 64.6554 146.158L68.2846 175.859C68.382 176.651 69.0518 177.223 69.8312 177.223L69.819 177.211Z" fill="black" stroke="#C7DA01" stroke-width="0.8" stroke-linecap="round" stroke-linejoin="round"/>
<path d="M17.7927 178.137C17.7318 178.137 17.6709 178.137 17.61 178.125C16.7576 178.028 16.1486 177.248 16.2582 176.395L19.8752 146.731C21.1296 134.146 25.6235 132.77 26.5003 132.623L27.0118 135.681C27.0118 135.681 27.0483 135.681 27.1214 135.657C27.0849 135.657 23.9916 136.79 22.9564 147.072L19.3272 176.773C19.2298 177.565 18.56 178.137 17.7927 178.137Z" fill="black" stroke="#C7DA01" stroke-width="0.8" stroke-linecap="round" stroke-linejoin="round"/>
<path d="M18.8888 134.256C18.8888 138.666 29.3866 142.235 42.3445 142.235C55.3023 142.235 65.8002 138.666 65.8002 134.256C65.8002 129.846 55.3023 126.276 42.3445 126.276C29.3866 126.276 18.8888 129.846 18.8888 134.256Z" fill="black" stroke="#C7DA01" stroke-width="0.8" stroke-linecap="round" stroke-linejoin="round"/>
<path d="M56.849 130.54C56.849 130.54 61.1358 131.966 62.2075 133.403L56.849 130.54Z" fill="black"/>
<path d="M56.849 130.54C56.849 130.54 61.1358 131.966 62.2075 133.403" stroke="#C7DA01" stroke-width="0.8" stroke-linecap="round" stroke-linejoin="round"/>
<path d="M26.9022 128.774C29.2039 137.07 36.3648 137.155 43.1482 136.851C49.9925 136.546 68.7351 135.304 75.5916 135.096C77.3453 135.048 79.0868 134.987 80.8405 134.926C85.3953 134.78 88.9879 131.819 88.8418 127.105C88.6956 122.39 84.8838 118.687 80.329 118.845L48.7747 118.772C48.7747 118.772 42.5028 119.503 41.1631 119.466C35.5002 119.308 26.3542 117.2 27.1823 120.319C27.1945 120.356 26.89 128.737 26.89 128.774H26.9022Z" fill="black" stroke="#C7DA01" stroke-width="0.8" stroke-linecap="round" stroke-linejoin="round"/>
<path d="M74.1911 133.196C73.57 146.353 73.9597 161.057 73.9597 161.057L87.5386 160.777L88.6956 126.727" fill="black"/>
<path d="M74.1911 133.196C73.57 146.353 73.9597 161.057 73.9597 161.057L87.5386 160.777L88.6956 126.727" stroke="#C7DA01" stroke-width="0.8" stroke-linecap="round" stroke-linejoin="round"/>
<path d="M31.4204 72.2348C32.9427 71.9424 35.354 68.1537 35.7316 67.6542C35.9143 67.4105 36.6328 57.2382 36.6693 56.6412C36.6693 56.6412 42.8925 57.7255 42.9047 57.7133C46.0954 55.7275 45.3647 66.4116 45.3647 66.9111C45.3647 70.6511 46.9114 69.9201 48.2997 70.6998C48.6285 73.8673 47.5812 75.3292 44.6218 75.6215C41.9669 75.8774 39.5313 74.2693 37.9968 73.5018C35.6463 72.3201 31.4204 72.2348 31.4204 72.2348Z" fill="black" stroke="#C7DA01" stroke-width="0.8" stroke-linecap="round" stroke-linejoin="round"/>
<path d="M58.7366 80.7382C59.2481 84.3198 59.2359 88.6568 59.2237 90.8618C59.1263 105.103 60.6364 122.451 53.0371 121.964C51.7096 121.878 48.2753 119.88 43.4039 117.895C42.5393 117.541 40.1888 125.643 35.0373 121.33C33.442 119.99 31.8222 120.538 30.0685 119.929C26.2689 118.601 26.5003 112.668 26.1714 109.026C25.6965 103.763 25.4286 98.4515 25.2581 93.1643C25.1606 90.4232 25.1241 87.6822 25.1606 84.9289C25.2215 80.726 26.0497 76.3768 28.6315 73.2703C31.7004 69.5912 35.9629 70.0785 40.0061 70.115C44.5365 70.1516 48.3971 71.9546 52.5134 74.0012" fill="black"/>
<path d="M58.7366 80.7382C59.2481 84.3198 59.2359 88.6568 59.2237 90.8618C59.1263 105.103 60.6364 122.451 53.0371 121.964C51.7096 121.878 48.2753 119.88 43.4039 117.895C42.5393 117.541 40.1888 125.643 35.0373 121.33C33.442 119.99 31.8222 120.538 30.0685 119.929C26.2689 118.601 26.5003 112.668 26.1714 109.026C25.6965 103.763 25.4286 98.4515 25.2581 93.1643C25.1606 90.4232 25.1241 87.6822 25.1606 84.9289C25.2215 80.726 26.0497 76.3768 28.6315 73.2703C31.7004 69.5912 35.9629 70.0785 40.0061 70.115C44.5365 70.1516 48.3971 71.9546 52.5134 74.0012" stroke="#C7DA01" stroke-width="0.8" stroke-linecap="round" stroke-linejoin="round"/>
<path d="M32.7356 70.8217L35.6097 66.7771C35.6097 66.7771 46.0588 66.7771 48.4823 71.1384C50.9058 75.4998 47.983 71.175 47.983 71.175L38.4838 72.7587L32.7356 70.8217Z" fill="black" stroke="#C7DA01" stroke-width="0.8" stroke-linecap="round" stroke-linejoin="round"/>
<path d="M52.2455 76.9495C53.1467 79.2154 53.4756 81.6641 53.6948 84.1981C53.9627 87.3655 52.2455 101.522 52.0263 113.399C51.8558 122.792 52.1725 130.76 52.1725 130.76C46.4973 131.43 35.013 131.283 23.5653 129.748L25.7696 110.963C25.7696 110.963 24.43 91.3857 24.4909 87.0975C24.5396 83.1748 25.5991 77.9607 27.8643 74.4765C30.5436 70.3466 34.8182 69.4086 39.0928 69.372C42.0035 69.3476 45.6083 69.4816 47.8978 70.6633" fill="black"/>
<path d="M52.2455 76.9495C53.1467 79.2154 53.4756 81.6641 53.6948 84.1981C53.9627 87.3655 52.2455 101.522 52.0263 113.399C51.8558 122.792 52.1725 130.76 52.1725 130.76C46.4973 131.43 35.013 131.283 23.5653 129.748L25.7696 110.963C25.7696 110.963 24.43 91.3857 24.4909 87.0975C24.5396 83.1748 25.5991 77.9607 27.8643 74.4765C30.5436 70.3466 34.8182 69.4086 39.0928 69.372C42.0035 69.3476 45.6083 69.4816 47.8978 70.6633" stroke="#C7DA01" stroke-width="0.8" stroke-linecap="round" stroke-linejoin="round"/>
<path d="M43.0995 82.4438C43.7571 84.198 46.8626 93.0425 49.0182 98.2444C51.4174 103.995 52.8422 106.053 52.8422 106.053L64.7406 102.764C64.2413 99.7063 63.6567 96.6485 62.9869 93.6151C62.244 90.1675 61.428 86.7442 60.4781 83.3575C59.7352 80.7382 58.968 78.0459 57.5188 75.7434C55.3145 72.2349 51.6609 70.3953 47.6786 70.773" fill="black"/>
<path d="M43.0995 82.4438C43.7571 84.198 46.8626 93.0425 49.0182 98.2444C51.4174 103.995 52.8422 106.053 52.8422 106.053L64.7406 102.764C64.2413 99.7063 63.6567 96.6485 62.9869 93.6151C62.244 90.1675 61.428 86.7442 60.4781 83.3575C59.7352 80.7382 58.968 78.0459 57.5188 75.7434C55.3145 72.2349 51.6609 70.3953 47.6786 70.773" stroke="#C7DA01" stroke-width="0.8" stroke-linecap="round" stroke-linejoin="round"/>
<path d="M86.3695 79.4347L89.1827 78.8256C89.1827 78.8256 90.9851 77.8145 91.3261 77.6195C91.3261 77.6195 94.6996 74.0866 96.502 75.5363C96.502 75.5363 96.709 76.2673 95.3207 77.3515C95.3207 77.3515 97.1109 77.3272 96.0636 79.6053C96.0636 79.6053 96.9282 80.5433 95.7591 82.054C95.7591 82.054 96.4167 83.3453 95.5399 84.7828L94.115 86.0742C94.115 86.0742 89.5481 89.9482 85.8824 90.0091L79.8784 94.7846L75.141 88.9492L77.3575 88.0112L82.0949 84.3808C82.0949 84.3808 82.4481 81.993 83.1422 79.7758" fill="black"/>
<path d="M86.3695 79.4347L89.1827 78.8256C89.1827 78.8256 90.9851 77.8145 91.3261 77.6195C91.3261 77.6195 94.6996 74.0866 96.502 75.5363C96.502 75.5363 96.709 76.2673 95.3207 77.3515C95.3207 77.3515 97.1109 77.3272 96.0636 79.6053C96.0636 79.6053 96.9282 80.5433 95.7591 82.054C95.7591 82.054 96.4167 83.3453 95.5399 84.7828L94.115 86.0742C94.115 86.0742 89.5481 89.9482 85.8824 90.0091L79.8784 94.7846L75.141 88.9492L77.3575 88.0112L82.0949 84.3808C82.0949 84.3808 82.4481 81.993 83.1422 79.7758" stroke="#C7DA01" stroke-width="0.8" stroke-linecap="round" stroke-linejoin="round"/>
<path d="M95.3207 77.3514L93.1773 79.2519L90.3397 81.1524" fill="black"/>
<path d="M95.3207 77.3514L93.1773 79.2519L90.3397 81.1524" stroke="#C7DA01" stroke-width="0.8" stroke-linecap="round" stroke-linejoin="round"/>
<path d="M96.0636 79.6052L93.9202 81.5057L91.5941 83.1503" fill="black"/>
<path d="M96.0636 79.6052L93.9202 81.5057L91.5941 83.1503" stroke="#C7DA01" stroke-width="0.8" stroke-linecap="round" stroke-linejoin="round"/>
<path d="M95.5887 82.5046L93.4209 84.3076L91.8621 85.1482" fill="black"/>
<path d="M95.5887 82.5046L93.4209 84.3076L91.8621 85.1482" stroke="#C7DA01" stroke-width="0.8" stroke-linecap="round" stroke-linejoin="round"/>
<path d="M83.1544 79.8002C83.6781 78.119 84.4088 76.5353 85.3465 76.182C85.9798 75.9383 90.7416 72.4907 89.8404 75.7434C89.5116 76.9251 88.3181 77.3637 87.2951 77.7901L86.3695 79.4347" fill="black"/>
<path d="M83.1544 79.8002C83.6781 78.119 84.4088 76.5353 85.3465 76.182C85.9798 75.9383 90.7416 72.4907 89.8404 75.7434C89.5116 76.9251 88.3181 77.3637 87.2951 77.7901L86.3695 79.4347" stroke="#C7DA01" stroke-width="0.8" stroke-linecap="round" stroke-linejoin="round"/>
<path d="M49.9438 102.983C53.3295 113.046 64.2779 108.076 66.2386 106.906L83.4224 95.1988C83.4224 95.1988 84.2627 87.5604 78.4536 85.3431L57.6284 96.5754L55.3389 101.521" fill="black"/>
<path d="M49.9438 102.983C53.3295 113.046 64.2779 108.076 66.2386 106.906L83.4224 95.1988C83.4224 95.1988 84.2627 87.5604 78.4536 85.3431L57.6284 96.5754L55.3389 101.521" stroke="#C7DA01" stroke-width="0.8" stroke-linecap="round" stroke-linejoin="round"/>
<path d="M53.0249 51.6587C54.2793 57.8596 50.7476 63.8046 45.1333 64.9498C39.519 66.0827 33.9413 61.9894 32.6869 55.7886C31.1768 48.2963 35.2322 43.5817 40.5907 42.4975C46.205 41.3645 51.7827 45.4578 53.0371 51.6587H53.0249Z" fill="black" stroke="#C7DA01" stroke-width="0.8" stroke-linecap="round" stroke-linejoin="round"/>
<path d="M54.1332 43.8862H53.0859C53.5121 43.5573 53.78 43.0334 53.78 42.4487C53.78 41.4375 52.9762 40.6091 51.9776 40.6091H46.8992C42.6002 40.2315 38.2647 40.5482 35.0618 42.9603C33.9535 43.7887 32.9671 44.8121 32.1998 46.0669C30.7993 48.3084 30.0564 51.0739 30.7019 55.4108C30.7019 55.4108 31.7492 59.9062 35.1592 62.4157C35.1592 62.4157 40.7126 59.5529 40.5177 54.3875C40.5177 53.8027 42.4297 46.9196 51.3931 47.5531H54.1332C55.1318 47.5531 55.9356 46.7369 55.9356 45.7136C55.9356 44.6902 55.1197 43.874 54.1332 43.874V43.8862Z" fill="black" stroke="#C7DA01" stroke-width="0.8" stroke-linecap="round" stroke-linejoin="round"/>
<path d="M41.5163 58.8219C40.1523 59.1021 38.8249 58.2249 38.5448 56.8605C38.2647 55.4961 39.1537 54.1682 40.5055 53.9002L41.0414 53.7905" fill="black"/>
<path d="M41.5163 58.8219C40.1523 59.1021 38.8249 58.2249 38.5448 56.8605C38.2647 55.4961 39.1537 54.1682 40.5055 53.9002L41.0414 53.7905" stroke="#C7DA01" stroke-width="0.8" stroke-linecap="round" stroke-linejoin="round"/>
<path d="M40.2253 56.5195L41.2483 56.3124" stroke="#C7DA01" stroke-width="0.8" stroke-linecap="round" stroke-linejoin="round"/>
<path d="M24.1742 137.728C24.2594 137.728 24.3568 137.728 24.4421 137.703C25.2824 137.545 25.8548 136.692 25.6965 135.791L22.3839 107.54C22.2378 106.638 21.4218 106.041 20.5815 106.2C19.7412 106.358 19.1688 107.211 19.3271 108.112L22.6397 136.363C22.7736 137.167 23.4313 137.728 24.162 137.728H24.1742Z" fill="black" stroke="#C7DA01" stroke-width="0.8" stroke-linecap="round" stroke-linejoin="round"/>
<path d="M49.5176 139.433C49.6028 139.433 49.7003 139.433 49.7855 139.409C50.6258 139.238 51.1982 138.313 51.0399 137.35L47.4838 107.552C47.3376 106.577 46.5217 105.932 45.6814 106.102C44.841 106.273 44.2687 107.199 44.427 108.161L47.9831 137.959C48.1171 138.824 48.7747 139.433 49.5054 139.433H49.5176Z" fill="black" stroke="#C7DA01" stroke-width="0.8" stroke-linecap="round" stroke-linejoin="round"/>
<path d="M24.1133 87.731H43.7571C48.6163 87.731 52.5499 91.6781 52.5499 96.5267V103.312C52.5499 108.173 48.6041 112.108 43.7571 112.108H24.1133C19.2541 112.108 15.3204 108.161 15.3204 103.312V96.5267C15.3204 91.6659 19.2662 87.731 24.1133 87.731Z" fill="black" stroke="#C7DA01" stroke-width="0.8" stroke-linecap="round" stroke-linejoin="round"/>
<path d="M22.9808 90.6791C22.9808 90.6791 18.7061 91.5806 18.3773 96.8678V99.1215" fill="black"/>
<path d="M22.9808 90.6791C22.9808 90.6791 18.7061 91.5806 18.3773 96.8678V99.1215" stroke="#C7DA01" stroke-width="0.8" stroke-linecap="round" stroke-linejoin="round"/>
</g>
<g clip-path="url(#clip1_123_4449)">
<path d="M256.82 171.58C268.562 171.58 278.08 166.839 278.08 160.99C278.08 155.141 268.562 150.4 256.82 150.4C245.078 150.4 235.56 155.141 235.56 160.99C235.56 166.839 245.078 171.58 256.82 171.58Z" fill="black" stroke="#C7DA01" stroke-width="0.8" stroke-linecap="round" stroke-linejoin="round"/>
<path d="M286.73 188.4H228.01C226.92 188.4 226.15 187.21 226.5 186.06L231.4 161.58C231.62 160.86 232.23 160.37 232.91 160.37H280.9C281.57 160.37 282.16 160.83 282.4 161.52L288.23 185.99C288.62 187.15 287.85 188.39 286.73 188.39V188.4Z" fill="black" stroke="#C7DA01" stroke-width="0.82" stroke-linecap="round" stroke-linejoin="round"/>
<path d="M251.85 178.06H262.64C264.31 179.89 266.06 181.42 268.23 181.42C270.28 181.42 271.93 179.93 271.93 177.79C271.93 175.65 270.8 174.9 269.67 174.45L269.56 174.41C270.76 173.96 271.93 173.21 271.93 171.05C271.93 169.07 270.62 167.35 267.89 167.35C266.17 167.35 264.55 168.87 262.88 170.71H252.09C250.42 168.88 248.67 167.35 246.5 167.35C244.45 167.35 242.8 168.84 242.8 170.98C242.8 173.12 243.93 173.87 245.06 174.32L245.17 174.36C243.97 174.81 242.8 175.56 242.8 177.72C242.8 179.7 244.11 181.42 246.84 181.42C248.56 181.42 250.18 179.9 251.85 178.06Z" fill="black" stroke="#C7DA01" stroke-width="0.82" stroke-linecap="round" stroke-linejoin="round"/>
</g>
<g clip-path="url(#clip2_123_4449)">
<path d="M262.35 82.92V77.56C262.35 76.56 261.54 75.75 260.54 75.75H248.05C247.05 75.75 246.24 76.56 246.24 77.56V82.92H242.89V77.56C242.89 74.71 245.2 72.41 248.05 72.4H260.54C263.39 72.4 265.7 74.71 265.7 77.56V82.92H262.35Z" fill="black" stroke="#C7DA01" stroke-width="0.82" stroke-linecap="round" stroke-linejoin="round"/>
<path d="M254.29 114.83C252.67 114.83 251.36 113.51 251.36 111.9V109.22H248.68C247.06 109.22 245.74 107.9 245.74 106.29C245.74 104.68 247.06 103.35 248.68 103.35H251.36V100.67C251.36 99.05 252.68 97.73 254.29 97.73C255.9 97.73 257.23 99.05 257.23 100.67V103.35H259.91C261.53 103.35 262.85 104.67 262.85 106.29C262.85 107.91 261.53 109.22 259.91 109.22H257.23V111.9C257.23 113.52 255.91 114.83 254.29 114.83Z" fill="black" stroke="#C7DA01" stroke-width="0.82" stroke-linecap="round" stroke-linejoin="round"/>
<path d="M273.98 126.06H234.61C230.09 126.06 226.41 122.34 226.41 117.76V89.17C226.41 84.59 230.09 80.87 234.61 80.87H273.99C278.51 80.87 282.19 84.59 282.19 89.17V117.76C282.19 122.33 278.51 126.06 273.99 126.06H273.98Z" fill="black"/>
<mask id="mask0_123_4449" style="mask-type:luminance" maskUnits="userSpaceOnUse" x="226" y="80" width="57" height="47">
<path d="M273.98 126.06H234.61C230.09 126.06 226.41 122.34 226.41 117.76V89.17C226.41 84.59 230.09 80.87 234.61 80.87H273.99C278.51 80.87 282.19 84.59 282.19 89.17V117.76C282.19 122.33 278.51 126.06 273.99 126.06H273.98Z" fill="white"/>
</mask>
<g mask="url(#mask0_123_4449)">
<g style="mix-blend-mode:multiply" opacity="0.5">
<path d="M281.96 105.08C278.98 102.06 274.15 102.06 271.16 105.08L258.08 118.31C255.1 121.33 255.1 126.22 258.08 129.23C261.06 132.25 265.9 132.25 268.88 129.23L275.42 122.61L281.96 115.99C284.94 112.97 284.94 108.08 281.96 105.06V105.08Z" fill="black"/>
<path d="M281.96 105.08C278.98 102.06 274.15 102.06 271.16 105.08L258.08 118.31C255.1 121.33 255.1 126.22 258.08 129.23C261.06 132.25 265.9 132.25 268.88 129.23L275.42 122.61L281.96 115.99C284.94 112.97 284.94 108.08 281.96 105.06V105.08Z" stroke="#C7DA01" stroke-width="0.82" stroke-linecap="round" stroke-linejoin="round"/>
</g>
</g>
<path d="M273.98 126.06H234.61C230.09 126.06 226.41 122.34 226.41 117.76V89.17C226.41 84.59 230.09 80.87 234.61 80.87H273.99C278.51 80.87 282.19 84.59 282.19 89.17V117.76C282.19 122.33 278.51 126.06 273.99 126.06H273.98Z" stroke="#C7DA01" stroke-width="0.82" stroke-linecap="round" stroke-linejoin="round"/>
<path d="M286.87 110.23C283.89 107.25 279.06 107.25 276.07 110.23L262.99 123.31C260.01 126.29 260.01 131.12 262.99 134.11C265.97 137.09 270.81 137.09 273.79 134.11L286.87 121.03C289.85 118.05 289.85 113.21 286.87 110.23Z" fill="black" stroke="#C7DA01" stroke-width="0.82" stroke-linecap="round" stroke-linejoin="round"/>
<path d="M254.29 112.6C252.67 112.6 251.36 111.28 251.36 109.67V106.99H248.68C247.06 106.99 245.74 105.67 245.74 104.06C245.74 102.45 247.06 101.12 248.68 101.12H251.36V98.44C251.36 96.82 252.68 95.5 254.29 95.5C255.9 95.5 257.23 96.82 257.23 98.44V101.12H259.91C261.53 101.12 262.85 102.44 262.85 104.06C262.85 105.68 261.53 106.99 259.91 106.99H257.23V109.67C257.23 111.29 255.91 112.6 254.29 112.6Z" fill="black" stroke="#C7DA01" stroke-width="0.82" stroke-linecap="round" stroke-linejoin="round"/>
<path d="M268.57 117.67C268.57 117.67 273.4 115.77 277.33 119.57C279.81 122.11 280.38 124.65 280 127.76" fill="black"/>
<path d="M268.57 117.67C268.57 117.67 273.4 115.77 277.33 119.57C279.81 122.11 280.38 124.65 280 127.76" stroke="#C7DA01" stroke-width="0.82" stroke-linecap="round" stroke-linejoin="round"/>
</g>
<g clip-path="url(#clip3_123_4449)">
<path d="M269.23 54.52H237.35L235.14 8.73999H271.28L269.23 54.52Z" fill="black" stroke="#C7DA01" stroke-width="0.82" stroke-linecap="round" stroke-linejoin="round"/>
<path d="M273.82 3.52003H272.12V0.410034H234.17V3.52003H232.46V10.24H273.82V3.52003Z" fill="black" stroke="#C7DA01" stroke-width="0.82" stroke-linecap="round" stroke-linejoin="round"/>
<path d="M274.65 10.36H231.41V12.5H274.65V10.36Z" fill="black" stroke="#C7DA01" stroke-width="0.82" stroke-linecap="round" stroke-linejoin="round"/>
<path d="M271.66 47.27H234.86L233.93 24.16L272.44 24.29L271.66 47.27Z" fill="black" stroke="#C7DA01" stroke-width="0.82" stroke-linecap="round" stroke-linejoin="round"/>
<path d="M259.38 41.51C262.931 41.51 265.81 38.6312 265.81 35.08C265.81 31.5288 262.931 28.65 259.38 28.65C255.829 28.65 252.95 31.5288 252.95 35.08C252.95 38.6312 255.829 41.51 259.38 41.51Z" fill="black" stroke="#C7DA01" stroke-width="0.82" stroke-linecap="round" stroke-linejoin="round"/>
</g>
<defs>
<clipPath id="clip0_123_4449">
<rect width="187" height="141" fill="white" transform="translate(0 40)"/>
</clipPath>
<clipPath id="clip1_123_4449">
<rect width="62.74" height="38.81" fill="white" transform="translate(226 150)"/>
</clipPath>
<clipPath id="clip2_123_4449">
<rect width="63.51" height="64.75" fill="white" transform="translate(226 72)"/>
</clipPath>
<clipPath id="clip3_123_4449">
<rect width="44.05" height="54.93" fill="white" transform="translate(231)"/>
</clipPath>
</defs>
</svg>
