<svg width="297" height="184" viewBox="0 0 297 184" fill="none" xmlns="http://www.w3.org/2000/svg">
<g clip-path="url(#clip0_3213_8)">
<mask id="mask0_3213_8" style="mask-type:luminance" maskUnits="userSpaceOnUse" x="137" y="0" width="160" height="184">
<path d="M296.868 0.120117H137.12V183.867H296.868V0.120117Z" fill="white"/>
</mask>
<g mask="url(#mask0_3213_8)">
<path d="M287.54 60.5459H146.46C141.508 60.5459 137.493 64.559 137.493 69.5121V152.763C137.493 157.716 141.508 161.729 146.46 161.729H287.54C292.492 161.729 296.507 157.716 296.507 152.763V69.5121C296.507 64.559 292.492 60.5459 287.54 60.5459Z" fill="black" stroke="#CAD833" stroke-width="0.82" stroke-linecap="round" stroke-linejoin="round"/>
<path d="M291.964 68.8368V153.425C291.964 155.498 290.281 157.173 288.213 157.173H145.787C143.719 157.173 142.036 155.498 142.036 153.425V68.8368C142.036 66.764 143.719 65.0889 145.787 65.0889H288.213C290.281 65.0889 291.964 66.764 291.964 68.8368Z" fill="black" stroke="#CAD833" stroke-width="0.82" stroke-linecap="round" stroke-linejoin="round"/>
<path d="M230.276 174.708C225.156 172.31 226.754 161.729 226.754 161.729H207.258C207.258 161.729 208.844 172.31 203.736 174.708C198.615 177.106 177.352 177.926 177.352 177.926V183.505H256.66V177.926C256.66 177.926 235.385 177.106 230.276 174.708Z" fill="black" stroke="#CAD833" stroke-width="0.82" stroke-linecap="round" stroke-linejoin="round"/>
<path d="M155.679 85.4795V143.097H233.257" fill="black"/>
<path d="M155.679 85.4795V143.097H233.257" stroke="#CAD833" stroke-width="0.82" stroke-linecap="round" stroke-linejoin="round"/>
<path d="M162.879 124.479H159.562V143.098H162.879V124.479Z" fill="black" stroke="#CAD833" stroke-width="0.82" stroke-linecap="round" stroke-linejoin="round"/>
<path d="M169.935 116.524H166.618V143.098H169.935V116.524Z" fill="black" stroke="#CAD833" stroke-width="0.82" stroke-linecap="round" stroke-linejoin="round"/>
<path d="M176.979 111.137H173.661V143.097H176.979V111.137Z" fill="black" stroke="#CAD833" stroke-width="0.82" stroke-linecap="round" stroke-linejoin="round"/>
<path d="M184.047 120.959H180.729V143.085H184.047V120.959Z" fill="black" stroke="#CAD833" stroke-width="0.82" stroke-linecap="round" stroke-linejoin="round"/>
<path d="M191.103 101.857H187.785V143.097H191.103V101.857Z" fill="black" stroke="#CAD833" stroke-width="0.82" stroke-linecap="round" stroke-linejoin="round"/>
<path d="M198.146 105.702H194.829V143.097H198.146V105.702Z" fill="black" stroke="#CAD833" stroke-width="0.82" stroke-linecap="round" stroke-linejoin="round"/>
<path d="M205.214 111.137H201.897V143.097H205.214V111.137Z" fill="black" stroke="#CAD833" stroke-width="0.82" stroke-linecap="round" stroke-linejoin="round"/>
<path d="M212.27 106.533H208.953V143.097H212.27V106.533Z" fill="black" stroke="#CAD833" stroke-width="0.82" stroke-linecap="round" stroke-linejoin="round"/>
<path d="M219.314 104.039H215.996V143.097H219.314V104.039Z" fill="black" stroke="#CAD833" stroke-width="0.82" stroke-linecap="round" stroke-linejoin="round"/>
<path d="M226.382 94.085H223.064V143.11H226.382V94.085Z" fill="black" stroke="#CAD833" stroke-width="0.82" stroke-linecap="round" stroke-linejoin="round"/>
<path d="M181.787 58.5448L180.405 50.0124L188.891 47.1081L182.436 26.6328C182.436 26.6328 176.258 29.1274 168.925 35.0688C161.593 41.0221 166.714 59.2799 166.714 59.2799L166.858 60.0271C167.038 60.943 167.735 61.6902 168.649 61.9071L172.195 62.7507C172.195 62.7507 170.729 65.872 171.618 66.9084C172.135 67.511 173.397 67.4266 174.443 66.33C174.443 66.7156 174.527 67.0651 174.719 67.2941C175.32 68.0051 176.931 67.7761 178.037 66.113C178.013 66.5951 178.073 67.0169 178.313 67.2941C178.914 68.0051 180.573 67.7761 181.679 66.0287C181.715 66.2336 181.787 66.4143 181.895 66.5469C182.701 67.511 185.549 66.6312 185.946 62.3289C186.343 58.0266 181.787 58.5448 181.787 58.5448Z" fill="black" stroke="#CAD833" stroke-width="0.82" stroke-linecap="round" stroke-linejoin="round"/>
<path d="M258.956 45.8187L240.517 55.966L211.02 58.545L200.322 43.2398L188.891 47.1203L182.436 26.6451C182.436 26.6451 194.877 20.7278 209.974 19.836C213.532 19.6312 217.246 19.6914 220.973 20.1855C222.066 20.3301 223.124 20.4868 224.17 20.6676C237.873 22.9332 248.342 28.1756 258.956 45.8308V45.8187Z" fill="black" stroke="#CAD833" stroke-width="0.82" stroke-linecap="round" stroke-linejoin="round"/>
<path d="M258.956 45.8314L240.517 55.9786C240.517 55.9786 230.324 56.3281 220.059 57.3886V57.3645C220.059 57.3645 212.414 55.7376 205.647 60.052C200.334 63.4384 200.394 69.9823 200.671 72.6456C200.767 73.5133 201.536 74.14 202.39 74.0436C202.486 74.0436 202.594 74.0195 202.69 73.9954C202.546 75.4898 202.606 76.8275 202.69 77.7072C202.774 78.5749 203.555 79.2016 204.409 79.1052C204.709 79.0811 205.01 78.9967 205.334 78.828C205.202 80.2621 205.262 81.5395 205.359 82.4072C205.443 83.2749 206.224 83.9016 207.077 83.8052C208.027 83.6967 209.205 83.0942 210.022 81.0213C211.585 77.0444 211.994 76.0441 211.994 76.0441L216.273 74.6462C217.583 74.2123 218.725 73.3928 219.542 72.2841C219.542 72.2841 252.802 72.4649 258.956 69.2351C264.726 66.2102 270.436 62.9202 258.956 45.8193V45.8314Z" fill="black" stroke="#CAD833" stroke-width="0.82" stroke-linecap="round" stroke-linejoin="round"/>
<path d="M224.17 20.6557C223.124 20.4749 222.067 20.3183 220.973 20.1737C220.889 20.1616 220.792 20.1496 220.696 20.1496L219.061 15.4736L207.101 17.438L208.892 23.0298C208.027 27.5852 209.914 31.8996 213.52 33.0807C217.511 34.3822 222.091 31.3212 223.737 26.2596C224.362 24.3434 224.471 22.4032 224.17 20.6798V20.6557Z" fill="black" stroke="#CAD833" stroke-width="0.82" stroke-linecap="round" stroke-linejoin="round"/>
<path d="M219.422 6.94121L219.626 10.87L216.706 8.45968L215.612 7.55583L206.645 9.08635L201.248 10.0023C200.911 8.55609 201.007 7.31481 201.344 6.26634C202.077 3.96453 204.024 2.56657 205.455 1.81939C206.38 1.33734 207.089 1.13246 207.089 1.13246C219.122 -1.95268 219.434 6.92916 219.434 6.92916L219.422 6.94121Z" fill="black" stroke="#CAD833" stroke-width="0.82" stroke-linecap="round" stroke-linejoin="round"/>
<path d="M222.054 24.0422L218.424 11.5811C217.631 6.57977 214.241 1.96411 207.787 2.98847C201.716 3.95258 201.224 8.44773 201.452 12.8706C201.476 13.3165 201.524 13.7865 201.596 14.2444C201.656 14.6301 201.728 14.9916 201.825 15.3532C202.918 19.764 206.2 22.7888 210.804 22.0537C212.811 21.7404 213.941 20.7522 215.263 19.4024" fill="black"/>
<path d="M222.054 24.0422L218.424 11.5811C217.631 6.57977 214.241 1.96411 207.787 2.98847C201.716 3.95258 201.224 8.44773 201.452 12.8706C201.476 13.3165 201.524 13.7865 201.596 14.2444C201.656 14.6301 201.728 14.9916 201.825 15.3532C202.918 19.764 206.2 22.7888 210.804 22.0537C212.811 21.7404 213.941 20.7522 215.263 19.4024" stroke="#CAD833" stroke-width="0.82" stroke-linecap="round" stroke-linejoin="round"/>
<path d="M217.823 7.80914L216.706 8.45992L214.734 9.59274C214.734 9.59274 211.934 9.90608 208.46 8.15863C207.51 7.67658 206.164 6.70042 205.503 5.67606C205.503 5.67606 204.325 4.43477 202.979 4.62759C203.712 2.32578 204.036 2.57886 205.455 1.83168C206.248 1.54244 207.125 1.31347 208.123 1.14475C208.123 1.14475 213.472 0.44577 217.835 7.80914H217.823Z" fill="black" stroke="#CAD833" stroke-width="0.82" stroke-linecap="round" stroke-linejoin="round"/>
<path d="M214.434 13.7985C215.143 14.365 216.08 14.6421 217.054 14.4855C218.881 14.1962 220.131 12.4729 219.843 10.6411C219.554 8.80928 217.835 7.55594 216.008 7.85722C214.542 8.0862 213.448 9.23108 213.22 10.617" fill="black"/>
<path d="M214.434 13.7985C215.143 14.365 216.08 14.6421 217.054 14.4855C218.881 14.1962 220.131 12.4729 219.843 10.6411C219.554 8.80928 217.835 7.55594 216.008 7.85722C214.542 8.0862 213.448 9.23108 213.22 10.617" stroke="#CAD833" stroke-width="0.82" stroke-linecap="round" stroke-linejoin="round"/>
<path d="M180.405 50.0246L179.467 42.9746" stroke="#CAD833" stroke-width="0.82" stroke-linecap="round" stroke-linejoin="round"/>
<path d="M240.517 55.9657C240.517 55.9657 248.114 55.0498 253.968 55.9657H240.517Z" fill="black"/>
<path d="M240.517 55.9657C240.517 55.9657 248.114 55.0498 253.968 55.9657" stroke="#CAD833" stroke-width="0.82" stroke-linecap="round" stroke-linejoin="round"/>
<path d="M233.45 44.083C233.45 44.083 240.037 54.8449 240.505 55.9536L233.45 44.083Z" fill="black"/>
<path d="M233.45 44.083C233.45 44.083 240.037 54.8449 240.505 55.9536" stroke="#CAD833" stroke-width="0.82" stroke-linecap="round" stroke-linejoin="round"/>
<path d="M182.556 60.9678C182.701 61.4498 182.761 62.0283 182.689 62.7273C182.256 67.3911 179.191 68.3311 178.301 67.3068" fill="black"/>
<path d="M182.556 60.9678C182.701 61.4498 182.761 62.0283 182.689 62.7273C182.256 67.3911 179.191 68.3311 178.301 67.3068" stroke="#CAD833" stroke-width="0.82" stroke-linecap="round" stroke-linejoin="round"/>
<path d="M178.926 60.8467C179.095 61.3528 179.167 61.9675 179.095 62.7267C178.662 67.3906 175.597 68.3306 174.707 67.3062" fill="black"/>
<path d="M178.926 60.8467C179.095 61.3528 179.167 61.9675 179.095 62.7267C178.662 67.3906 175.597 68.3306 174.707 67.3062" stroke="#CAD833" stroke-width="0.82" stroke-linecap="round" stroke-linejoin="round"/>
<path d="M175.921 60.8232C176.017 61.245 176.041 61.7512 175.993 62.3297C175.561 66.9935 172.495 67.9335 171.606 66.9092" fill="black"/>
<path d="M175.921 60.8232C176.017 61.245 176.041 61.7512 175.993 62.3297C175.561 66.9935 172.495 67.9335 171.606 66.9092" stroke="#CAD833" stroke-width="0.82" stroke-linecap="round" stroke-linejoin="round"/>
<path d="M202.69 73.9831C202.69 73.9831 204.277 68.09 205.274 66.668L202.69 73.9831Z" fill="black"/>
<path d="M202.69 73.9831C202.69 73.9831 204.277 68.09 205.274 66.668" stroke="#CAD833" stroke-width="0.82" stroke-linecap="round" stroke-linejoin="round"/>
<path d="M205.346 78.84C205.346 78.84 206.452 73.2361 207.438 71.4404L205.346 78.84Z" fill="black"/>
<path d="M205.346 78.84C205.346 78.84 206.452 73.2361 207.438 71.4404" stroke="#CAD833" stroke-width="0.82" stroke-linecap="round" stroke-linejoin="round"/>
<path d="M277.239 94.542C277.239 100.977 272.022 106.184 265.591 106.184C259.161 106.184 253.944 100.977 253.944 94.542C253.944 88.1066 259.161 82.9004 265.591 82.9004C269.149 82.9004 272.323 84.4912 274.462 87.0099C275.664 88.4079 276.53 90.095 276.95 91.963C277.143 92.7945 277.251 93.6622 277.251 94.554L277.239 94.542Z" fill="black" stroke="#CAD833" stroke-width="0.82" stroke-linecap="round" stroke-linejoin="round"/>
<path d="M277.239 129.816C277.239 130.286 277.215 130.744 277.155 131.202C276.47 136.987 271.553 141.47 265.591 141.47C259.161 141.47 253.944 136.252 253.944 129.816C253.944 123.381 259.161 118.175 265.591 118.175C272.022 118.175 277.239 123.393 277.239 129.816Z" fill="black" stroke="#CAD833" stroke-width="0.82" stroke-linecap="round" stroke-linejoin="round"/>
<path d="M277.239 129.816C277.239 130.286 277.215 130.744 277.155 131.202L265.591 129.816V118.175C272.022 118.175 277.239 123.393 277.239 129.816Z" fill="black" stroke="#CAD833" stroke-width="0.82" stroke-linecap="round" stroke-linejoin="round"/>
<path d="M276.95 91.9638L265.603 94.5549L274.474 87.0107C275.676 88.4087 276.542 90.0959 276.962 91.9638H276.95Z" fill="black" stroke="#CAD833" stroke-width="0.82" stroke-linecap="round" stroke-linejoin="round"/>
</g>
</g>
<g clip-path="url(#clip1_3213_8)">
<path d="M34.1963 59.4209C34.1963 59.4209 31.7091 53.2706 23.4184 58.1116C14.8272 63.1207 10.5136 101.44 10.5136 101.44H30.2192L34.1963 59.4329V59.4209Z" fill="black" stroke="#CAD833" stroke-width="0.82" stroke-linecap="round" stroke-linejoin="round"/>
<path d="M18.2997 146.486C18.2997 146.486 9.45627 164.024 9.05975 183.52H70.3513L59.2368 140.06H22.7816L18.2997 146.486Z" fill="black" stroke="#CAD833" stroke-width="0.82" stroke-linecap="round" stroke-linejoin="round"/>
<path d="M44.8302 163.399L41.7061 170.703L40.1321 183.508" fill="black"/>
<path d="M44.8302 163.399L41.7061 170.703L40.1321 183.508" stroke="#CAD833" stroke-width="0.82" stroke-linecap="round" stroke-linejoin="round"/>
<path d="M27.9603 87.2649C27.9603 87.2649 25.5211 87.0967 22.325 87.349C22.325 87.349 32.7425 121.224 35.6022 145.608C39.0627 145.596 42.6673 145.548 46.0557 145.476C44.722 139.518 42.0906 123.902 39.9879 87.2649H27.9603Z" fill="black" stroke="#CAD833" stroke-width="0.82" stroke-linecap="round" stroke-linejoin="round"/>
<path d="M37.3565 157.368L35.6022 145.596C35.434 144.143 35.2297 142.653 35.0134 141.14C31.5289 117.283 22.325 87.3369 22.325 87.3369C17.9633 87.6733 9.73262 91.289 6.86089 94.7004C-0.769009 103.746 -0.27637 128.034 1.85039 137.608C3.20815 143.723 7.62989 144.191 12.9288 144.515L10.2493 157.368H37.3565Z" fill="black" stroke="#CAD833" stroke-width="0.82" stroke-linecap="round" stroke-linejoin="round"/>
<path d="M69.4501 122.365L59.345 98.9656C59.345 98.9656 55.9806 88.8633 41.0813 87.2656H39.9879C42.0906 123.903 44.71 139.519 46.0557 145.477L48.9395 157.381H66.0376L59.5132 129.813L69.4381 122.365H69.4501Z" fill="black" stroke="#CAD833" stroke-width="0.82" stroke-linecap="round" stroke-linejoin="round"/>
<path d="M19.9459 88.7188L17.5788 95.2534L21.6761 96.839L18.6001 99.2775L29.2459 122.197" fill="black"/>
<path d="M19.9459 88.7188L17.5788 95.2534L21.6761 96.839L18.6001 99.2775L29.2459 122.197" stroke="#CAD833" stroke-width="0.82" stroke-linecap="round" stroke-linejoin="round"/>
<path d="M42.9557 88.25L46.5845 93.4513L44.2895 95.7336L46.5845 97.1511L44.7701 114.617" fill="black"/>
<path d="M42.9557 88.25L46.5845 93.4513L44.2895 95.7336L46.5845 97.1511L44.7701 114.617" stroke="#CAD833" stroke-width="0.82" stroke-linecap="round" stroke-linejoin="round"/>
<path d="M56.5093 115.385C54.9353 114.064 51.8833 112.166 47.1131 111.806C39.6514 111.253 36.0107 115.962 36.0107 115.962L31.6971 119.121C31.6971 119.121 23.4184 121.524 12.0637 124.491C0.624817 127.482 -3.66475 140.047 7.40161 143.782C19.5133 147.867 35.1336 133.007 35.1336 133.007C35.1336 133.007 38.3778 133.368 40.0359 132.022C41.6941 130.677 45.3348 129.368 45.3348 129.368C45.4189 130.797 48.1224 131.218 50.2852 129.019C52.4601 126.821 50.4895 125.2 50.4895 125.2C52.9046 122.821 50.6938 121.187 50.6938 121.187C52.9767 119.53 50.4054 117.343 50.4054 117.343C51.6911 117.728 53.181 118.377 54.2864 118.893C55.2477 119.35 56.4012 119.013 56.9659 118.1C57.5186 117.211 57.3384 116.058 56.5333 115.385H56.5093Z" fill="black" stroke="#CAD833" stroke-width="0.82" stroke-linecap="round" stroke-linejoin="round"/>
<path d="M45.3348 129.368C45.3348 129.368 47.4015 128.672 48.531 127.482L45.3348 129.368Z" fill="black"/>
<path d="M45.3348 129.368C45.3348 129.368 47.4015 128.672 48.531 127.482" stroke="#CAD833" stroke-width="0.82" stroke-linecap="round" stroke-linejoin="round"/>
<path d="M50.3934 117.344C50.3934 117.344 48.8674 117.008 47.9182 117.092L50.3934 117.344Z" fill="black"/>
<path d="M50.3934 117.344C50.3934 117.344 48.8674 117.008 47.9182 117.092" stroke="#CAD833" stroke-width="0.82" stroke-linecap="round" stroke-linejoin="round"/>
<path d="M50.6817 121.176C50.6817 121.176 50.153 120.719 49.2999 120.839L50.6817 121.176Z" fill="black"/>
<path d="M50.6817 121.176C50.6817 121.176 50.153 120.719 49.2999 120.839" stroke="#CAD833" stroke-width="0.82" stroke-linecap="round" stroke-linejoin="round"/>
<path d="M50.4775 125.2C50.4775 125.2 50.081 124.612 48.8434 124.684L50.4775 125.2Z" fill="black"/>
<path d="M50.4775 125.2C50.4775 125.2 50.081 124.612 48.8434 124.684" stroke="#CAD833" stroke-width="0.82" stroke-linecap="round" stroke-linejoin="round"/>
<path d="M81.6579 130.533C81.6579 130.533 69.0175 144.251 62.3969 142.509C55.7764 140.779 54.5147 133.92 56.4132 129.584C58.2996 125.248 70.6757 123.986 70.6757 123.986L81.6579 130.521V130.533Z" fill="black" stroke="#CAD833" stroke-width="0.82" stroke-linecap="round" stroke-linejoin="round"/>
<path d="M75.3498 129.909H50.5496C49.324 129.909 48.6872 128.912 49.1317 127.687L62.2888 104.203C62.7334 102.977 64.0911 101.98 65.3288 101.98H90.1289C91.3545 101.98 91.9913 102.977 91.5468 104.203L78.3897 127.687C77.9451 128.912 76.5874 129.909 75.3498 129.909Z" fill="black" stroke="#CAD833" stroke-width="0.82" stroke-linecap="round" stroke-linejoin="round"/>
<path d="M71.2284 130.917C73.8478 126.665 72.1656 124.515 72.1656 124.515C71.2284 123.326 70.7958 122.353 70.171 121.14C69.7865 120.419 70.0389 119.518 70.7478 119.097C70.8559 119.037 70.9641 118.989 71.0722 118.953C70.7237 118.389 70.4234 117.86 70.1951 117.404C69.7625 116.587 70.0509 115.59 70.8439 115.109C71.1683 114.917 71.5408 114.833 71.9013 114.869C71.697 114.521 71.5168 114.184 71.3606 113.896C70.928 113.079 71.2164 112.082 72.0094 111.602C72.5261 111.289 73.1389 111.277 73.6555 111.518C73.2951 110.725 73.5835 109.764 74.3404 109.307C75.1455 108.827 76.1908 109.067 76.6835 109.86C78.2575 112.359 81.3095 114.953 81.3095 114.953C82.8955 116.431 84.6138 115.169 84.6138 115.169L86.4041 113.392C89.5642 121.452 81.6699 130.521 81.6699 130.521L80.5405 131.698" fill="black"/>
<path d="M71.2284 130.917C73.8478 126.665 72.1656 124.515 72.1656 124.515C71.2284 123.326 70.7958 122.353 70.171 121.14C69.7865 120.419 70.0389 119.518 70.7478 119.097C70.8559 119.037 70.9641 118.989 71.0722 118.953C70.7237 118.389 70.4234 117.86 70.1951 117.404C69.7625 116.587 70.0509 115.59 70.8439 115.109C71.1683 114.917 71.5408 114.833 71.9013 114.869C71.697 114.521 71.5168 114.184 71.3606 113.896C70.928 113.079 71.2164 112.082 72.0094 111.602C72.5261 111.289 73.1389 111.277 73.6555 111.518C73.2951 110.725 73.5835 109.764 74.3404 109.307C75.1455 108.827 76.1908 109.067 76.6835 109.86C78.2575 112.359 81.3095 114.953 81.3095 114.953C82.8955 116.431 84.6138 115.169 84.6138 115.169L86.4041 113.392C89.5642 121.452 81.6699 130.521 81.6699 130.521L80.5405 131.698" stroke="#CAD833" stroke-width="0.82" stroke-linecap="round" stroke-linejoin="round"/>
<path d="M73.6315 111.518C73.6315 111.518 75.3377 114.617 77.9692 116.707L73.6315 111.518Z" fill="black"/>
<path d="M73.6315 111.518C73.6315 111.518 75.3377 114.617 77.9692 116.707" stroke="#CAD833" stroke-width="0.82" stroke-linecap="round" stroke-linejoin="round"/>
<path d="M71.8893 114.869C71.8893 114.869 74.1482 117.932 75.8064 119.314L71.8893 114.869Z" fill="black"/>
<path d="M71.8893 114.869C71.8893 114.869 74.1482 117.932 75.8064 119.314" stroke="#CAD833" stroke-width="0.82" stroke-linecap="round" stroke-linejoin="round"/>
<path d="M71.0722 118.941C71.0722 118.941 73.1509 121.896 73.8478 122.569L71.0722 118.941Z" fill="black"/>
<path d="M71.0722 118.941C71.0722 118.941 73.1509 121.896 73.8478 122.569" stroke="#CAD833" stroke-width="0.82" stroke-linecap="round" stroke-linejoin="round"/>
<path d="M15.7885 123.506L15.2958 111.518" stroke="#CAD833" stroke-width="0.82" stroke-linecap="round" stroke-linejoin="round"/>
<path d="M42.0306 59.3486C42.0306 59.3486 50.6337 60.4657 49.1918 68.7902L31.9375 67.7692L27.2153 72.0816V67.2527C27.2153 67.2527 27.6479 57.3185 42.0185 59.3606L42.0306 59.3486Z" fill="black" stroke="#CAD833" stroke-width="0.82" stroke-linecap="round" stroke-linejoin="round"/>
<path d="M39.6514 87.2414L41.8863 79.073L28.1525 75.3252L24.9323 87.1092C23.935 87.1573 23.0459 87.2294 22.325 87.3375L23.1781 90.1003L34.1964 96.8392L40.1441 89.812L39.9999 87.2654C39.9999 87.2654 39.8797 87.2654 39.6634 87.2534L39.6514 87.2414Z" fill="black" stroke="#CAD833" stroke-width="0.82" stroke-linecap="round" stroke-linejoin="round"/>
<path d="M26.3021 82.1003L28.7413 72.8869C29.4021 66.7006 33.2712 60.8266 41.2735 61.6795C48.7953 62.4843 49.6724 67.9739 49.6604 73.4155C49.6604 73.968 49.6244 74.5446 49.5643 75.1092C49.5162 75.5777 49.4442 76.0462 49.36 76.4906C48.2907 81.9682 44.4577 85.8842 38.7383 85.2716C36.251 85.0073 34.0402 83.9502 32.334 82.3766" fill="black"/>
<path d="M26.3021 82.1003L28.7413 72.8869C29.4021 66.7006 33.2712 60.8266 41.2735 61.6795C48.7953 62.4843 49.6724 67.9739 49.6604 73.4155C49.6604 73.968 49.6244 74.5446 49.5643 75.1092C49.5162 75.5777 49.4441 76.0462 49.36 76.4906C48.2907 81.9682 44.4577 85.8842 38.7383 85.2716C36.251 85.0073 34.0402 83.9502 32.3339 82.3766" stroke="#CAD833" stroke-width="0.82" stroke-linecap="round" stroke-linejoin="round"/>
<path d="M33.151 70.2075C33.151 70.2075 44.0011 69.703 46.0677 64.9101C46.0677 64.9101 47.5336 67.2645 49.6724 70.0994C49.6724 70.0994 51.4988 60.6338 40.7689 59.4205C40.7689 59.4205 34.1603 58.892 29.2579 68.2135L33.163 70.2075H33.151Z" fill="black" stroke="#CAD833" stroke-width="0.82" stroke-linecap="round" stroke-linejoin="round"/>
<path d="M32.6223 75.8171C31.7812 76.5619 30.6518 76.9583 29.4382 76.8382C27.1673 76.5979 25.5331 74.5678 25.7734 72.2975C26.0138 70.0272 28.0444 68.3935 30.3153 68.6338C32.1297 68.826 33.5355 70.1714 33.908 71.8531" fill="black"/>
<path d="M32.6223 75.8171C31.7812 76.5619 30.6518 76.9583 29.4382 76.8382C27.1673 76.5979 25.5331 74.5678 25.7734 72.2975C26.0138 70.0272 28.0444 68.3935 30.3153 68.6338C32.1297 68.826 33.5355 70.1714 33.908 71.8531" stroke="#CAD833" stroke-width="0.82" stroke-linecap="round" stroke-linejoin="round"/>
<path d="M29.3541 71.3486C29.3541 71.3486 31.2045 71.4808 31.0723 73.691L29.3541 71.3486Z" fill="black"/>
<path d="M29.3541 71.3486C29.3541 71.3486 31.2045 71.4808 31.0723 73.691" stroke="#CAD833" stroke-width="0.82" stroke-linecap="round" stroke-linejoin="round"/>
<path d="M59.0686 61.5589C59.0686 71.5411 67.1551 79.6254 77.1401 79.6254C81.2013 79.6254 84.9382 78.292 87.9541 76.0337L77.1401 61.5589L73.0788 43.9609C65.0524 45.7988 59.0686 52.9822 59.0686 61.5589Z" fill="black" stroke="#CAD833" stroke-width="0.82" stroke-linecap="round" stroke-linejoin="round"/>
<path d="M77.1401 43.4922C75.7463 43.4922 74.3885 43.6604 73.0788 43.9607L77.1401 61.5586H95.2115C95.2115 51.5764 87.125 43.4922 77.1401 43.4922Z" fill="black" stroke="#CAD833" stroke-width="0.82" stroke-linecap="round" stroke-linejoin="round"/>
<path d="M95.2115 61.5586H77.1401L87.9541 76.0334C92.3518 72.742 95.2115 67.4806 95.2115 61.5586Z" fill="black" stroke="#CAD833" stroke-width="0.82" stroke-linecap="round" stroke-linejoin="round"/>
<path d="M89.7805 71.0127L93.9379 75.1689H102.409" fill="black"/>
<path d="M89.7805 71.0127L93.9379 75.1689H102.409" stroke="#CAD833" stroke-width="0.82" stroke-linecap="round" stroke-linejoin="round"/>
<path d="M110.495 72.7188H102.409V75.1693H110.495V72.7188Z" fill="black" stroke="#CAD833" stroke-width="0.82" stroke-linecap="round" stroke-linejoin="round"/>
<path d="M89.7805 52.0937L93.9379 47.9375H102.409" fill="black"/>
<path d="M89.7805 52.0937L93.9379 47.9375H102.409" stroke="#CAD833" stroke-width="0.82" stroke-linecap="round" stroke-linejoin="round"/>
<path d="M110.495 47.9375H102.409V50.388H110.495V47.9375Z" fill="black" stroke="#CAD833" stroke-width="0.82" stroke-linecap="round" stroke-linejoin="round"/>
<path d="M80.3242 77.5352L84.4936 81.7034H92.9646" fill="black"/>
<path d="M80.3242 77.5352L84.4936 81.7034H92.9646" stroke="#CAD833" stroke-width="0.82" stroke-linecap="round" stroke-linejoin="round"/>
<path d="M101.051 79.2529H92.9646V81.7034H101.051V79.2529Z" fill="black" stroke="#CAD833" stroke-width="0.82" stroke-linecap="round" stroke-linejoin="round"/>
</g>
<defs>
<clipPath id="clip0_3213_8">
<rect width="160" height="184" fill="white" transform="translate(137)"/>
</clipPath>
<clipPath id="clip1_3213_8">
<rect width="111" height="141" fill="white" transform="translate(0 43)"/>
</clipPath>
</defs>
</svg>
