<svg width="299" height="249" viewBox="0 0 299 249" fill="none" xmlns="http://www.w3.org/2000/svg">
<path d="M195.773 201.734V209.338H190.314V201.734H195.773ZM191.71 202.838V208.208H194.402V202.838H191.71ZM199.251 200.654V212.144H197.829V200.654H199.251ZM209.862 200.654V212.131H208.465V200.654H209.862ZM202.346 201.772V208.043C203.959 208.018 205.672 207.872 207.437 207.523L207.615 208.703C205.596 209.122 203.717 209.249 201.94 209.249H200.95V201.772H202.346ZM217.096 201.784C217.083 205.25 216.042 208.272 211.776 210.354L211.027 209.262C213.001 208.297 214.233 207.148 214.938 205.771L211.281 206.101L211.104 204.895L215.382 204.628C215.541 204.095 215.636 203.524 215.687 202.927H211.688V201.784H217.096ZM220.46 200.654V212.131H219.038V200.654H220.46ZM226.678 201.302C229.141 201.302 230.956 202.533 230.956 204.4C230.956 206.12 229.477 207.269 227.376 207.472V209.579H231.947V210.734H221.46V209.579H225.98V207.472C223.892 207.269 222.412 206.12 222.425 204.4C222.412 202.533 224.228 201.302 226.678 201.302ZM226.678 202.444C225.002 202.432 223.796 203.193 223.809 204.4C223.796 205.644 225.002 206.38 226.678 206.38C228.379 206.38 229.573 205.644 229.573 204.4C229.573 203.193 228.379 202.432 226.678 202.444ZM237.974 202.229C237.974 204.006 239.714 205.783 242.113 206.202L241.478 207.383C239.555 206.977 237.981 205.815 237.238 204.273C236.476 205.802 234.902 206.97 232.985 207.383L232.363 206.202C234.737 205.771 236.464 203.993 236.476 202.229V201.378H237.974V202.229ZM242.532 209.503V210.671H232.046V209.503H242.532ZM251.937 201.721V203.092C251.937 204.755 251.937 206.342 251.429 208.767L250.02 208.64C250.255 207.637 250.388 206.755 250.464 205.936L243.697 206.291L243.507 205.149L250.528 204.882C250.553 204.266 250.553 203.676 250.553 203.092V202.863H243.85V201.721H251.937ZM253.092 209.516V210.671H242.631V209.516H253.092ZM262.088 201.797V202.914H255.677V201.797H258.241V200.553H259.65V201.797H262.088ZM258.927 203.371C260.488 203.371 261.605 204.234 261.618 205.517C261.605 206.786 260.488 207.637 258.927 207.637C257.365 207.637 256.261 206.786 256.273 205.517C256.261 204.234 257.365 203.371 258.927 203.371ZM258.927 204.425C258.114 204.425 257.581 204.831 257.594 205.517C257.581 206.19 258.114 206.583 258.927 206.583C259.739 206.583 260.298 206.19 260.298 205.517C260.298 204.831 259.739 204.425 258.927 204.425ZM265.262 200.654V208.005H263.853V206.659H262.151V205.529H263.853V204.4H262.164V203.257H263.853V200.654H265.262ZM261.402 208.132C263.827 208.132 265.325 208.868 265.325 210.125C265.325 211.369 263.827 212.118 261.402 212.118C258.978 212.118 257.479 211.369 257.479 210.125C257.479 208.868 258.978 208.132 261.402 208.132ZM261.402 209.211C259.854 209.211 258.965 209.516 258.965 210.125C258.965 210.722 259.854 211.039 261.402 211.039C262.938 211.039 263.814 210.722 263.814 210.125C263.814 209.516 262.938 209.211 261.402 209.211ZM270.515 202.292C270.515 203.803 271.454 205.225 273.283 205.796L272.584 206.913C271.258 206.469 270.312 205.599 269.804 204.476C269.277 205.682 268.319 206.64 266.96 207.104L266.249 205.999C268.103 205.364 269.055 203.854 269.055 202.292V201.2H270.515V202.292ZM275.796 208.043V212.131H274.374V209.173H267.963V208.043H275.796ZM275.796 200.654V207.523H274.374V200.654H275.796ZM280.542 201.454C282.357 201.442 283.69 202.597 283.703 204.222C283.69 205.859 282.357 207.002 280.542 207.002C278.739 207.002 277.393 205.859 277.393 204.222C277.393 202.597 278.739 201.442 280.542 201.454ZM280.542 202.673C279.539 202.673 278.79 203.27 278.79 204.222C278.79 205.187 279.539 205.771 280.542 205.771C281.557 205.771 282.319 205.187 282.319 204.222C282.319 203.27 281.557 202.673 280.542 202.673ZM286.382 200.654V212.144H284.972V200.654H286.382ZM276.873 208.589C278.942 208.589 281.811 208.564 284.287 208.208L284.401 209.236C281.824 209.732 279.069 209.744 277.051 209.744L276.873 208.589ZM215.193 217.654V223.469H213.783V222.466H211.016V221.387H213.783V220.257H211.168C210.445 222.009 208.769 223.151 206.23 223.723L205.735 222.568C208.432 222.009 209.778 220.822 209.975 219.292H206.369V218.15H211.549C211.549 218.511 211.517 218.854 211.473 219.178H213.783V217.654H215.193ZM215.193 223.913V226.935H209.061V227.887H215.497V229.017H207.652V225.881H213.783V225.03H207.639V223.913H215.193ZM226.045 217.654V229.131H224.699V217.654H226.045ZM223.709 217.87V228.572H222.376V222.796H220.725V221.653H222.376V217.87H223.709ZM219.71 220.79C219.71 222.733 220.408 224.675 222.046 225.614L221.208 226.655C220.148 226.021 219.443 224.929 219.05 223.621C218.643 225.037 217.913 226.243 216.828 226.922L215.965 225.868C217.628 224.865 218.351 222.783 218.351 220.79V220.028H216.358V218.886H221.563V220.028H219.71V220.79ZM238.24 217.654V220.879H239.852V222.047H238.24V225.957H236.831V217.654H238.24ZM234.812 218.607V219.736H231.067V222.859C233.225 222.866 234.425 222.79 235.79 222.504L235.942 223.647C234.444 223.939 233.098 224.015 230.597 224.015H229.67V218.607H234.812ZM238.697 227.76V228.902H230.889V225.081H232.298V227.76H238.697ZM248.825 217.654V219.965H250.425V221.133H248.825V223.418H247.416V217.654H248.825ZM245.6 218.238V222.936H240.167V218.238H245.6ZM241.551 219.356V221.818H244.217V219.356H241.551ZM248.825 223.913V226.922H242.731V227.874H249.181V228.991H241.335V225.894H247.416V225.005H241.322V223.913H248.825ZM259.944 217.654V229.131H258.522V217.654H259.944ZM256.516 218.873C256.516 222.288 255.196 225.195 251.171 227.1L250.435 225.97C253.437 224.542 254.834 222.599 255.081 219.99H251.019V218.873H256.516ZM271.43 226.63V227.798H260.944V226.63H265.464V224.764H262.188V221.006H268.79V219.584H262.163V218.442H270.186V222.123H263.597V223.609H270.453V224.764H266.86V226.63H271.43ZM210.192 234.654V246.131H208.821V240.278H207.589V245.598H206.282V234.921H207.589V239.136H208.821V234.654H210.192ZM205.419 236.013C205.406 239.174 204.568 241.903 201.115 243.859L200.29 242.856C201.883 241.961 202.86 240.913 203.425 239.707L200.531 240.025L200.353 238.818L203.806 238.615C203.927 238.152 204.003 237.663 204.047 237.155H200.95V236.013H205.419ZM220.498 234.654V246.144H219.076V241.002H216.816V239.821H219.076V238.184H216.816V237.028H219.076V234.654H220.498ZM215.115 237.409C215.115 239.555 216.131 241.675 217.959 242.5L217.108 243.63C215.807 242.989 214.887 241.745 214.404 240.215C213.896 241.796 212.957 243.097 211.649 243.757L210.761 242.64C212.627 241.764 213.668 239.555 213.681 237.409V235.581H215.115V237.409ZM231.02 234.667V242.957H229.598V234.667H231.02ZM231.337 244.76V245.902H223.428V242.119H224.85V244.76H231.337ZM224.761 235.416C226.5 235.416 227.846 236.622 227.846 238.285C227.846 239.986 226.5 241.167 224.761 241.167C223.009 241.167 221.663 239.986 221.663 238.285C221.663 236.622 223.009 235.416 224.761 235.416ZM224.761 236.648C223.784 236.648 223.035 237.295 223.047 238.285C223.035 239.301 223.784 239.936 224.761 239.936C225.713 239.936 226.462 239.301 226.462 238.285C226.462 237.295 225.713 236.648 224.761 236.648ZM241.656 234.667V243.084H240.247V239.225H238.038V238.057H240.247V234.667H241.656ZM238.114 235.53C238.114 238.552 236.108 240.824 232.795 241.878L232.198 240.748C234.674 239.961 236.305 238.501 236.578 236.686H232.795V235.53H238.114ZM241.948 244.76V245.902H234.179V242.234H235.613V244.76H241.948ZM252.178 234.654V246.144H250.756V234.654H252.178ZM244.65 235.594V238.463H247.43V235.594H248.826V243.44H243.24V235.594H244.65ZM244.65 242.284H247.43V239.568H244.65V242.284ZM259.828 236.343C259.815 237.574 260.755 238.857 262.507 239.364L261.847 240.482C260.545 240.101 259.625 239.295 259.117 238.285C258.597 239.402 257.632 240.317 256.299 240.735L255.601 239.631C257.391 239.047 258.406 237.651 258.406 236.33V236.292H255.994V235.15H262.202V236.292H259.828V236.343ZM265.262 234.654V240.532H263.853V238.209H261.885V237.079H263.853V234.654H265.262ZM265.262 241.015V243.998H259.117V244.9H265.63V246.004H257.708V242.944H263.853V242.132H257.695V241.015H265.262ZM275.288 234.654V237.27H276.888V238.425H275.288V241.104H273.879V234.654H275.288ZM272.102 235.353C272.089 238.336 270.134 240.405 266.706 241.319L266.148 240.19C268.808 239.504 270.318 238.152 270.566 236.495H266.694V235.353H272.102ZM275.288 241.561V245.979H267.862V241.561H275.288ZM269.271 242.716V244.861H273.892V242.716H269.271Z" fill="#DEE2E6"/>
<path d="M112.554 181.725V189.241H107.121V181.725H112.554ZM108.504 182.83V188.111H111.145V182.83H108.504ZM115.703 180.608V185.013H117.467V186.207H115.703V192.085H114.294V180.608H115.703ZM126.631 186.626V187.743H118.582V181.509H126.529V182.652H120.017V184.036H126.263V185.14H120.017V186.626H126.631ZM127.786 189.533V190.688H117.3V189.533H127.786ZM138.371 189.584V190.752H127.885V189.584H132.405V187.717H129.129V183.96H135.731V182.538H129.104V181.395H137.127V185.077H130.538V186.562H137.394V187.717H133.801V189.584H138.371ZM147.459 180.608V185.089H149.16V186.27H147.459V192.059H146.05V180.608H147.459ZM144.425 181.801C144.425 185.178 143.028 188.136 139.207 190.015L138.407 188.923C141.2 187.533 142.711 185.578 143.003 182.969H139.029V181.801H144.425ZM158.869 180.621V187.54H157.524V184.632H156.381V187.172H155.061V180.837H156.381V183.464H157.524V180.621H158.869ZM154.02 181.611V186.638H149.5V181.611H154.02ZM150.833 182.69V185.572H152.712V182.69H150.833ZM154.997 187.768C157.397 187.755 158.92 188.568 158.933 189.901C158.92 191.259 157.397 192.072 154.997 192.072C152.572 192.072 151.062 191.259 151.062 189.901C151.062 188.568 152.572 187.755 154.997 187.768ZM154.997 188.847C153.41 188.86 152.471 189.228 152.471 189.901C152.471 190.612 153.41 190.98 154.997 190.98C156.571 190.98 157.511 190.612 157.511 189.901C157.511 189.228 156.571 188.86 154.997 188.847ZM169.252 180.608V187.273H167.842V184.493H165.862V183.338H167.842V180.608H169.252ZM169.252 187.768V191.945H161.622V187.768H169.252ZM163.031 188.885V190.802H167.868V188.885H163.031ZM163.856 182.5C163.856 183.883 164.783 185.293 166.56 185.902L165.849 187.019C164.567 186.581 163.659 185.712 163.158 184.632C162.65 185.826 161.692 186.784 160.339 187.235L159.616 186.13C161.444 185.521 162.421 184.01 162.421 182.487V182.398H160.035V181.255H166.23V182.398H163.856V182.5ZM180.129 180.608V192.085H178.771V180.608H180.129ZM177.768 180.811V191.526H176.422V186.067H175.33C175.197 188.301 174.238 189.685 172.816 189.672C171.318 189.685 170.341 188.098 170.341 185.572C170.341 183.046 171.318 181.484 172.816 181.484C174.207 181.484 175.152 182.779 175.317 184.924H176.422V180.811H177.768ZM172.816 182.817C172.093 182.804 171.636 183.782 171.648 185.572C171.636 187.362 172.093 188.339 172.816 188.327C173.578 188.339 174.035 187.362 174.035 185.572C174.035 183.782 173.578 182.804 172.816 182.817ZM190.714 180.608V192.085H189.369V180.608H190.714ZM188.277 180.887V191.539H186.944V186.257H184.9C184.227 187.578 183.148 188.72 181.523 189.66L180.723 188.657C183.103 187.254 184.189 185.458 184.405 183.147H181.307V182.005H185.801C185.801 183.115 185.668 184.156 185.357 185.128H186.944V180.887H188.277ZM137.762 197.608V209.085H136.416V197.608H137.762ZM135.426 197.824V208.526H134.093V202.75H132.443V201.607H134.093V197.824H135.426ZM131.427 200.744C131.427 202.686 132.125 204.629 133.763 205.568L132.925 206.609C131.865 205.974 131.161 204.882 130.767 203.575C130.361 204.99 129.631 206.196 128.545 206.876L127.682 205.822C129.345 204.819 130.069 202.737 130.069 200.744V199.982H128.076V198.839H133.281V199.982H131.427V200.744ZM143.638 204.781C146.126 204.794 147.7 205.581 147.713 206.939C147.7 208.272 146.126 209.072 143.638 209.072C141.162 209.072 139.575 208.272 139.575 206.939C139.575 205.581 141.162 204.794 143.638 204.781ZM143.638 205.847C141.987 205.847 140.984 206.241 140.997 206.939C140.984 207.612 141.987 207.98 143.638 207.98C145.301 207.98 146.304 207.612 146.316 206.939C146.304 206.241 145.301 205.847 143.638 205.847ZM147.637 198.154V199.106C147.637 200.007 147.637 200.972 147.319 202.153L145.923 202.026C146.208 200.909 146.227 200.103 146.227 199.271H139.689V198.154H147.637ZM148.906 202.813V203.956H138.496V202.813H142.533V200.731H143.929V202.813H148.906ZM158.044 197.608V202.178H159.809V203.346H158.044V209.085H156.648V197.608H158.044ZM155.759 199.373V200.503H148.992V199.373H151.709V197.773H153.118V199.373H155.759ZM152.42 201.252C154.071 201.252 155.302 202.369 155.302 203.956C155.302 205.543 154.071 206.647 152.42 206.647C150.744 206.647 149.513 205.543 149.526 203.956C149.513 202.369 150.744 201.252 152.42 201.252ZM152.42 202.407C151.519 202.407 150.871 203.016 150.871 203.956C150.871 204.895 151.519 205.492 152.42 205.479C153.296 205.492 153.944 204.895 153.956 203.956C153.944 203.016 153.296 202.407 152.42 202.407ZM168.934 200.858V201.975H160.987V198.027H162.383V200.858H168.934ZM170.115 203.308V204.425H159.629V203.308H170.115ZM169.01 207.675V208.818H160.885V205.441H162.295V207.675H169.01ZM133.066 221.108V222.251H128.496V226.072H127.099V222.251H122.58V221.108H133.066ZM131.784 215.192V219.762H123.862V215.192H131.784ZM125.246 216.322V218.658H130.375V216.322H125.246ZM143.664 223.584V224.752H133.178V223.584H135.958V221.692H134.422V217.947H141.024V216.538H134.397V215.395H142.42V219.077H135.831V220.549H142.687V221.692H141.011V223.584H143.664ZM137.329 223.584H139.627V221.692H137.329V223.584ZM147.851 221.133V223.546H150.136V221.133H151.545V223.546H154.25V224.688H143.763V223.546H146.455V221.133H147.851ZM149.692 216.144C149.692 217.807 151.431 219.445 153.843 219.813L153.272 220.981C151.298 220.632 149.705 219.559 148.943 218.099C148.175 219.547 146.575 220.638 144.626 220.981L144.055 219.813C146.455 219.432 148.181 217.782 148.194 216.144V215.294H149.692V216.144ZM161.077 215.522V216.665H160.049V219.623C160.563 219.585 161.071 219.534 161.559 219.47L161.648 220.524C159.312 220.918 156.621 220.968 154.691 220.968L154.539 219.813C154.945 219.813 155.383 219.813 155.847 219.8V216.665H154.844V215.522H161.077ZM163.908 214.621V221.578H162.486V214.621H163.908ZM160.049 221.806C162.486 221.806 163.972 222.568 163.972 223.926C163.972 225.285 162.486 226.072 160.049 226.072C157.599 226.072 156.126 225.285 156.126 223.926C156.126 222.568 157.599 221.806 160.049 221.806ZM160.049 222.885C158.424 222.885 157.522 223.254 157.522 223.926C157.522 224.612 158.424 224.98 160.049 224.98C161.661 224.98 162.562 224.612 162.562 223.926C162.562 223.254 161.661 222.885 160.049 222.885ZM157.205 219.775C157.694 219.769 158.195 219.75 158.703 219.712V216.665H157.205V219.775ZM175.395 219.407V220.549H164.934V219.407H169.441V218.544H166.254V214.964H174.049V218.544H170.837V219.407H175.395ZM167.638 216.068V217.439H172.64V216.068H167.638ZM174.087 221.248V224.066H167.562V224.904H174.405V225.983H166.178V223.05H172.703V222.314H166.165V221.248H174.087Z" fill="#DEE2E6"/>
<path d="M34.0699 203.638V204.78H30.7184V206.037H35.2633V207.193H24.7896V206.037H29.3219V204.78H26.148V200.858H27.5572V203.638H34.0699ZM30.0074 207.878C32.483 207.891 33.9684 208.652 33.9811 209.998C33.9684 211.344 32.483 212.118 30.0074 212.118C27.5064 212.118 26.0084 211.344 26.0084 209.998C26.0084 208.652 27.5064 207.891 30.0074 207.878ZM30.0074 208.97C28.3316 208.97 27.4303 209.325 27.443 209.998C27.4303 210.658 28.3316 211.026 30.0074 211.026C31.6451 211.026 32.5592 210.658 32.5719 209.998C32.5592 209.325 31.6451 208.97 30.0074 208.97ZM45.8359 206.342V207.472H41.291V208.564H44.5537V212.106H43.1445V209.693H36.5303V208.564H39.8945V207.472H35.375V206.342H45.8359ZM41.291 200.642V201.734H44.8076V202.838H41.3926C41.5449 203.816 42.8906 204.615 45.3154 204.793L44.8711 205.859C42.8272 205.688 41.3101 205.053 40.5928 204.057C39.8755 205.053 38.3521 205.688 36.3145 205.859L35.8701 204.793C38.2695 204.615 39.6279 203.816 39.793 202.838H36.4033V201.734H39.8945V200.642H41.291ZM50.0736 202.686C50.0609 204.196 51.0131 205.631 52.8158 206.215L52.0795 207.332C50.8036 206.901 49.9022 206.037 49.4008 204.933C48.8866 206.151 47.9408 207.104 46.6078 207.573L45.8207 206.456C47.7123 205.847 48.6518 204.298 48.6518 202.673V201.365H50.0736V202.686ZM55.0121 200.654V204.044H56.6117V205.237H55.0121V209.084H53.6029V200.654H55.0121ZM55.4691 210.76V211.902H47.6615V208.259H49.1088V210.76H55.4691ZM67.0066 205.314V206.431H62.4617V207.294H65.699V210.112H59.1736V210.95H66.0164V212.029H57.7898V209.097H64.3152V208.36H57.7771V207.294H61.0525V206.431H56.5457V205.314H67.0066ZM65.6609 201.01V204.59H57.866V201.01H65.6609ZM59.2498 202.114V203.485H64.2518V202.114H59.2498ZM80.027 205.923V207.066H75.482V208.018C77.5387 208.157 78.7447 208.868 78.7574 210.062C78.7447 211.382 77.2594 212.118 74.7838 212.118C72.2828 212.118 70.7848 211.382 70.7848 210.062C70.7848 208.868 72.0035 208.151 74.0855 208.018V207.066H69.566V205.923H80.027ZM74.7838 209.084C73.108 209.097 72.2066 209.427 72.2193 210.062C72.2066 210.696 73.108 211.039 74.7838 211.039C76.4215 211.039 77.3355 210.696 77.3482 210.062C77.3355 209.427 76.4215 209.097 74.7838 209.084ZM79.0875 201.162V202.292H75.7867C76.0089 203.238 77.38 204.089 79.5318 204.285L79.0367 205.402C76.9547 205.193 75.4059 204.361 74.7838 203.193C74.1617 204.355 72.6383 205.193 70.5563 205.402L70.0738 204.285C72.1813 204.089 73.5523 203.225 73.7936 202.292H70.5182V201.162H79.0875ZM89.7109 200.667V207.154H88.2891V200.667H89.7109ZM89.7109 207.726V211.991H82.0938V207.726H89.7109ZM83.4902 208.843V210.849H88.3271V208.843H83.4902ZM84.4297 202.216C84.4297 203.676 85.4072 205.047 87.1973 205.618L86.5117 206.697C85.1851 206.285 84.2329 205.441 83.7188 204.336C83.1919 205.523 82.2271 206.469 80.8496 206.926L80.1514 205.809C82.0176 205.212 82.9697 203.727 82.9697 202.216V201.099H84.4297V202.216ZM94.4564 201.454C96.2719 201.442 97.6049 202.597 97.6176 204.222C97.6049 205.859 96.2719 207.002 94.4564 207.002C92.6537 207.002 91.308 205.859 91.308 204.222C91.308 202.597 92.6537 201.442 94.4564 201.454ZM94.4564 202.673C93.4535 202.673 92.7045 203.27 92.7045 204.222C92.7045 205.187 93.4535 205.771 94.4564 205.771C95.4721 205.771 96.2338 205.187 96.2338 204.222C96.2338 203.27 95.4721 202.673 94.4564 202.673ZM100.296 200.654V212.144H98.8871V200.654H100.296ZM90.7875 208.589C92.8568 208.589 95.726 208.564 98.2016 208.208L98.3158 209.236C95.7387 209.732 92.9838 209.744 90.9652 209.744L90.7875 208.589ZM34.7047 218.772V226.287H29.2711V218.772H34.7047ZM30.6549 219.876V225.157H33.2955V219.876H30.6549ZM37.8531 217.654V222.06H39.6178V223.253H37.8531V229.131H36.4439V217.654H37.8531ZM48.7813 223.672V224.789H40.7324V218.556H48.6797V219.698H42.167V221.082H48.4131V222.187H42.167V223.672H48.7813ZM49.9365 226.579V227.734H39.4502V226.579H49.9365ZM61.5223 217.629V220.219H63.1346V221.361H61.5223V223.888H60.1131V217.629H61.5223ZM61.5223 224.396V227.163H55.4285V227.976H61.8777V229.029H54.032V226.186H60.1131V225.424H54.0193V224.396H61.5223ZM59.2879 218.581V219.66H52.4832V218.581H55.1873V217.566H56.5965V218.581H59.2879ZM55.8855 220.016C57.5867 220.028 58.6785 220.752 58.6912 221.895C58.6785 223.075 57.5867 223.774 55.8855 223.774C54.1844 223.774 53.0672 223.075 53.0672 221.895C53.0672 220.752 54.1844 220.028 55.8855 220.016ZM55.8855 221.031C54.9969 221.031 54.4383 221.349 54.4383 221.895C54.4383 222.453 54.9969 222.758 55.8855 222.758C56.7742 222.758 57.3455 222.453 57.3455 221.895C57.3455 221.349 56.7742 221.031 55.8855 221.031ZM72.6154 217.667V225.957H71.1936V217.667H72.6154ZM72.9328 227.76V228.902H65.0236V225.119H66.4455V227.76H72.9328ZM66.3566 218.416C68.0959 218.416 69.4416 219.622 69.4416 221.285C69.4416 222.986 68.0959 224.167 66.3566 224.167C64.6047 224.167 63.259 222.986 63.259 221.285C63.259 219.622 64.6047 218.416 66.3566 218.416ZM66.3566 219.648C65.3791 219.648 64.6301 220.295 64.6428 221.285C64.6301 222.301 65.3791 222.936 66.3566 222.936C67.3088 222.936 68.0578 222.301 68.0578 221.285C68.0578 220.295 67.3088 219.648 66.3566 219.648ZM85.6865 217.654V224.472H84.2773V221.666H82.3223V220.511H84.2773V217.654H85.6865ZM81.8018 224.764C84.2393 224.764 85.7246 225.564 85.7246 226.947C85.7246 228.331 84.2393 229.131 81.8018 229.131C79.377 229.131 77.8916 228.331 77.9043 226.947C77.8916 225.564 79.377 224.764 81.8018 224.764ZM81.8018 225.843C80.2021 225.843 79.3008 226.224 79.3008 226.947C79.3008 227.658 80.2021 228.039 81.8018 228.039C83.4014 228.039 84.3154 227.658 84.3154 226.947C84.3154 226.224 83.4014 225.843 81.8018 225.843ZM80.291 219.622C80.291 221.019 81.2178 222.428 82.9951 223.025L82.2842 224.142C81.0083 223.71 80.1006 222.834 79.6055 221.755C79.0977 222.98 78.1392 223.958 76.7744 224.446L76.0381 223.329C77.8789 222.694 78.8564 221.146 78.8564 219.635V219.546H76.4697V218.403H82.665V219.546H80.291V219.622ZM97.1479 226.592V227.747H86.6615V226.592H91.1811V224.358H87.8168V218.416H89.226V220.295H94.5453V218.416H95.9545V224.358H92.5775V226.592H97.1479ZM89.226 223.215H94.5453V221.425H89.226V223.215ZM49.5747 234.654V246.131H48.229V234.654H49.5747ZM47.2388 234.87V245.572H45.9058V239.796H44.2554V238.653H45.9058V234.87H47.2388ZM43.2397 237.79C43.2397 239.733 43.938 241.675 45.5757 242.614L44.7378 243.655C43.6777 243.021 42.9731 241.929 42.5796 240.621C42.1733 242.037 41.4434 243.243 40.3579 243.922L39.4946 242.868C41.1577 241.865 41.8813 239.783 41.8813 237.79V237.028H39.8882V235.886H45.0933V237.028H43.2397V237.79ZM55.4501 241.827C57.9384 241.84 59.5126 242.627 59.5253 243.985C59.5126 245.318 57.9384 246.118 55.4501 246.118C52.9745 246.118 51.3876 245.318 51.3876 243.985C51.3876 242.627 52.9745 241.84 55.4501 241.827ZM55.4501 242.894C53.7997 242.894 52.7968 243.287 52.8095 243.985C52.7968 244.658 53.7997 245.026 55.4501 245.026C57.1132 245.026 58.1161 244.658 58.1288 243.985C58.1161 243.287 57.1132 242.894 55.4501 242.894ZM59.4491 235.2V236.152C59.4491 237.054 59.4491 238.019 59.1317 239.199L57.7353 239.072C58.0209 237.955 58.0399 237.149 58.0399 236.318H51.5019V235.2H59.4491ZM60.7187 239.859V241.002H50.3085V239.859H54.3456V237.777H55.7421V239.859H60.7187ZM64.9411 245.001H63.1765L66.4138 235.81H68.445L71.695 245.001H69.9304L69.1687 242.729H65.7028L64.9411 245.001ZM66.1472 241.396H68.7243L67.4675 237.689H67.3913L66.1472 241.396ZM72.1368 245.001V235.81H75.5899C77.6974 235.81 78.8272 237.092 78.8272 238.857C78.8272 240.621 77.6847 241.891 75.5646 241.891H73.7872V245.001H72.1368ZM73.7872 240.532H75.336C76.5802 240.532 77.1388 239.834 77.1388 238.857C77.1388 237.866 76.5802 237.193 75.336 237.193H73.7872V240.532ZM79.5103 245.001V235.81H82.9634C85.0708 235.81 86.2007 237.092 86.2007 238.857C86.2007 240.621 85.0581 241.891 82.938 241.891H81.1606V245.001H79.5103ZM81.1606 240.532H82.7095C83.9536 240.532 84.5122 239.834 84.5122 238.857C84.5122 237.866 83.9536 237.193 82.7095 237.193H81.1606V240.532Z" fill="#DEE2E6"/>
<rect x="0.574614" y="1.07522" width="297.851" height="118.851" rx="59.4254" stroke="#C7DA01" stroke-width="1.14923"/>
<rect x="11" y="10.5006" width="100" height="100" rx="50" fill="#C7DA01" fill-opacity="0.8"/>
<path d="M47.4244 67.0006H44.5768L48.9889 54.274H52.3814L56.776 67.0006H53.9459L52.9967 64.0651H48.3912L47.4244 67.0006ZM49.0592 62.0084H52.3287L50.7291 57.1393H50.6412L49.0592 62.0084ZM57.3174 67.0006V54.274H62.3096C65.21 54.274 66.8623 56.0494 66.8623 58.5631C66.8623 61.1119 65.1748 62.8522 62.2393 62.8522H59.9541V67.0006H57.3174ZM59.9541 60.7252H61.8174C63.3818 60.7252 64.1377 59.8463 64.1377 58.5631C64.1377 57.2975 63.3818 56.4362 61.8174 56.4362H59.9541V60.7252ZM67.6322 67.0006V54.274H72.6244C75.5248 54.274 77.1771 56.0494 77.1771 58.5631C77.1771 61.1119 75.4896 62.8522 72.5541 62.8522H70.2689V67.0006H67.6322ZM70.2689 60.7252H72.1322C73.6967 60.7252 74.4525 59.8463 74.4525 58.5631C74.4525 57.2975 73.6967 56.4362 72.1322 56.4362H70.2689V60.7252Z" fill="black"/>
<rect x="99.3335" y="10.5006" width="100" height="100" rx="50" fill="#C7DA01" fill-opacity="0.8"/>
<path d="M133.227 61.692V64.944H136.127V61.692H138.359V64.944H142.016V66.7545H127.373V64.944H131.012V61.692H133.227ZM135.793 54.6608C135.793 56.8405 137.85 59.1608 141.488 59.6881L140.592 61.5514C137.753 61.0592 135.644 59.6178 134.598 57.6666C133.534 59.609 131.434 61.0768 128.621 61.5514L127.725 59.6881C131.328 59.1256 133.385 56.8053 133.402 54.6608V53.5006H135.793V54.6608ZM151.417 53.8346V55.6276H150.098V59.4948C150.757 59.4508 151.408 59.3805 152.032 59.3014L152.19 60.9537C148.938 61.5162 145.194 61.5865 142.54 61.5865L142.293 59.776C142.83 59.776 143.41 59.776 144.016 59.7584V55.6276H142.715V53.8346H151.417ZM155.424 52.6393V62.2897H153.174V52.6393H155.424ZM149.993 62.5885C153.42 62.5885 155.512 63.6608 155.53 65.5768C155.512 67.5104 153.42 68.6178 149.993 68.6178C146.583 68.6178 144.491 67.5104 144.491 65.5768C144.491 63.6608 146.583 62.5885 149.993 62.5885ZM149.993 64.2936C147.848 64.2936 146.723 64.7155 146.723 65.5768C146.723 66.4557 147.848 66.9127 149.993 66.9127C152.137 66.9127 153.262 66.4557 153.28 65.5768C153.262 64.7155 152.137 64.2936 149.993 64.2936ZM146.161 59.7233C146.741 59.6969 147.338 59.6793 147.936 59.6354V55.6276H146.161V59.7233ZM171.276 59.1608V60.9713H156.686V59.1608H162.839V58.1237H158.497V53.0787H169.431V58.1237H165.054V59.1608H171.276ZM160.694 54.819V56.401H167.198V54.819H160.694ZM169.501 61.7623V65.858H160.589V66.8248H169.923V68.5123H158.392V64.276H167.286V63.4498H158.374V61.7623H169.501Z" fill="black"/>
<rect x="187.333" y="10.5006" width="100" height="100" rx="50" fill="#C7DA01" fill-opacity="0.8"/>
<path d="M216.781 54.151C216.764 59.0729 215.41 63.2565 209.363 66.2272L208.185 64.5045C210.831 63.2037 212.483 61.7096 213.441 59.899L208.59 60.3385L208.308 58.4401L214.162 58.0885C214.355 57.4205 214.478 56.6998 214.549 55.944H209.135V54.151H216.781ZM221.492 52.6217V68.6178H219.225V52.6217H221.492ZM229.996 53.4479C233.442 53.4479 236.008 55.1881 236.026 57.8248C236.008 60.233 233.978 61.859 231.104 62.1842V64.9088H237.344V66.7545H222.701V64.9088H228.871V62.1666C226.006 61.859 223.985 60.2242 223.985 57.8248C223.985 55.1881 226.551 53.4479 229.996 53.4479ZM229.996 55.2408C227.764 55.2408 226.2 56.2252 226.2 57.8248C226.2 59.5123 227.764 60.4615 229.996 60.4615C232.246 60.4615 233.793 59.5123 233.811 57.8248C233.793 56.2252 232.246 55.2408 229.996 55.2408ZM245.778 54.7311C245.778 57.069 247.852 59.5826 251.473 60.1979L250.489 62.0612C247.703 61.5074 245.629 59.943 244.6 57.8776C243.537 59.9254 241.463 61.4987 238.694 62.0612L237.727 60.1979C241.278 59.5651 243.37 57.0514 243.387 54.7311V53.5709H245.778V54.7311ZM252.001 64.8033V66.649H237.358V64.8033H252.001ZM265.11 54.028V55.8912C265.11 58.2115 265.11 60.444 264.372 63.9069L262.14 63.6959C262.456 62.36 262.632 61.191 262.755 60.11L253.474 60.567L253.192 58.774L262.86 58.4225C262.904 57.5524 262.904 56.7174 262.913 55.8912V55.8209H253.685V54.028H265.11ZM266.605 64.8737V66.7018H252.015V64.8737H266.605Z" fill="black"/>
<path d="M63 184.936C61.3075 184.936 59.9354 186.309 59.9354 188.001C59.9354 189.694 61.3075 191.066 63 191.066C64.6925 191.066 66.0646 189.694 66.0646 188.001C66.0646 186.309 64.6925 184.936 63 184.936ZM62.4254 110.001L62.4254 110.849L63.5746 110.849L63.5746 110.001L62.4254 110.001ZM62.4254 112.545L62.4254 114.24L63.5746 114.24L63.5746 112.545L62.4254 112.545ZM62.4254 115.936L62.4254 117.632L63.5746 117.632L63.5746 115.936L62.4254 115.936ZM62.4254 119.327L62.4254 121.023L63.5746 121.023L63.5746 119.327L62.4254 119.327ZM62.4254 122.718L62.4254 124.414L63.5746 124.414L63.5746 122.718L62.4254 122.718ZM62.4254 126.11L62.4254 127.805L63.5746 127.805L63.5746 126.11L62.4254 126.11ZM62.4254 129.501L62.4254 131.197L63.5746 131.197L63.5746 129.501L62.4254 129.501ZM62.4254 132.892L62.4254 134.588L63.5746 134.588L63.5746 132.892L62.4254 132.892ZM62.4254 136.284L62.4254 137.979L63.5746 137.979L63.5746 136.284L62.4254 136.284ZM62.4254 139.675L62.4254 141.371L63.5746 141.371L63.5746 139.675L62.4254 139.675ZM62.4254 143.066L62.4254 144.762L63.5746 144.762L63.5746 143.066L62.4254 143.066ZM62.4254 146.458L62.4254 148.153L63.5746 148.153L63.5746 146.458L62.4254 146.458ZM62.4254 149.849L62.4254 151.545L63.5746 151.545L63.5746 149.849L62.4254 149.849ZM62.4254 153.24L62.4254 154.936L63.5746 154.936L63.5746 153.24L62.4254 153.24ZM62.4254 156.632L62.4254 158.327L63.5746 158.327L63.5746 156.632L62.4254 156.632ZM62.4254 160.023L62.4254 161.718L63.5746 161.718L63.5746 160.023L62.4254 160.023ZM62.4254 163.414L62.4254 165.11L63.5746 165.11L63.5746 163.414L62.4254 163.414ZM62.4254 166.805L62.4254 168.501L63.5746 168.501L63.5746 166.805L62.4254 166.805ZM62.4254 170.197L62.4254 171.892L63.5746 171.892L63.5746 170.197L62.4254 170.197ZM62.4254 173.588L62.4254 175.284L63.5746 175.284L63.5746 173.588L62.4254 173.588ZM62.4254 176.979L62.4254 178.675L63.5746 178.675L63.5746 176.979L62.4254 176.979ZM62.4254 180.371L62.4254 182.066L63.5746 182.066L63.5746 180.371L62.4254 180.371ZM62.4254 183.762L62.4254 185.458L63.5746 185.458L63.5746 183.762L62.4254 183.762ZM62.4254 187.153L62.4254 188.001L63.5746 188.001L63.5746 187.153L62.4254 187.153Z" fill="#DEE2E6"/>
<path d="M149 164.398C147.307 164.398 145.935 165.77 145.935 167.463C145.935 169.155 147.307 170.527 149 170.527C150.693 170.527 152.065 169.155 152.065 167.463C152.065 165.77 150.693 164.398 149 164.398ZM148.425 110.001L148.425 110.846L149.575 110.846L149.575 110.001L148.425 110.001ZM148.425 112.536L148.425 114.226L149.575 114.226L149.575 112.536L148.425 112.536ZM148.425 115.916L148.425 117.606L149.575 117.606L149.575 115.916L148.425 115.916ZM148.425 119.296L148.425 120.986L149.575 120.986L149.575 119.296L148.425 119.296ZM148.425 122.676L148.425 124.366L149.575 124.366L149.575 122.676L148.425 122.676ZM148.425 126.056L148.425 127.747L149.575 127.747L149.575 126.056L148.425 126.056ZM148.425 129.437L148.425 131.127L149.575 131.127L149.575 129.437L148.425 129.437ZM148.425 132.817L148.425 134.507L149.575 134.507L149.575 132.817L148.425 132.817ZM148.425 136.197L148.425 137.887L149.575 137.887L149.575 136.197L148.425 136.197ZM148.425 139.577L148.425 141.267L149.575 141.267L149.575 139.577L148.425 139.577ZM148.425 142.957L148.425 144.647L149.575 144.647L149.575 142.957L148.425 142.957ZM148.425 146.337L148.425 148.027L149.575 148.027L149.575 146.337L148.425 146.337ZM148.425 149.717L148.425 151.407L149.575 151.407L149.575 149.717L148.425 149.717ZM148.425 153.097L148.425 154.787L149.575 154.787L149.575 153.097L148.425 153.097ZM148.425 156.477L148.425 158.167L149.575 158.167L149.575 156.477L148.425 156.477ZM148.425 159.857L148.425 161.547L149.575 161.547L149.575 159.857L148.425 159.857ZM148.425 163.237L148.425 164.927L149.575 164.927L149.575 163.237L148.425 163.237ZM148.425 166.617L148.425 167.463L149.575 167.463L149.575 166.617L148.425 166.617Z" fill="#DEE2E6"/>
<path d="M238 184.936C236.307 184.936 234.935 186.309 234.935 188.001C234.935 189.694 236.307 191.066 238 191.066C239.693 191.066 241.065 189.694 241.065 188.001C241.065 186.309 239.693 184.936 238 184.936ZM237.425 110.001L237.425 110.849L238.575 110.849L238.575 110.001L237.425 110.001ZM237.425 112.545L237.425 114.24L238.575 114.24L238.575 112.545L237.425 112.545ZM237.425 115.936L237.425 117.632L238.575 117.632L238.575 115.936L237.425 115.936ZM237.425 119.327L237.425 121.023L238.575 121.023L238.575 119.327L237.425 119.327ZM237.425 122.718L237.425 124.414L238.575 124.414L238.575 122.718L237.425 122.718ZM237.425 126.11L237.425 127.805L238.575 127.805L238.575 126.11L237.425 126.11ZM237.425 129.501L237.425 131.197L238.575 131.197L238.575 129.501L237.425 129.501ZM237.425 132.892L237.425 134.588L238.575 134.588L238.575 132.892L237.425 132.892ZM237.425 136.284L237.425 137.979L238.575 137.979L238.575 136.284L237.425 136.284ZM237.425 139.675L237.425 141.371L238.575 141.371L238.575 139.675L237.425 139.675ZM237.425 143.066L237.425 144.762L238.575 144.762L238.575 143.066L237.425 143.066ZM237.425 146.458L237.425 148.153L238.575 148.153L238.575 146.458L237.425 146.458ZM237.425 149.849L237.425 151.545L238.575 151.545L238.575 149.849L237.425 149.849ZM237.425 153.24L237.425 154.936L238.575 154.936L238.575 153.24L237.425 153.24ZM237.425 156.632L237.425 158.327L238.575 158.327L238.575 156.632L237.425 156.632ZM237.425 160.023L237.425 161.718L238.575 161.718L238.575 160.023L237.425 160.023ZM237.425 163.414L237.425 165.11L238.575 165.11L238.575 163.414L237.425 163.414ZM237.425 166.805L237.425 168.501L238.575 168.501L238.575 166.805L237.425 166.805ZM237.425 170.197L237.425 171.892L238.575 171.892L238.575 170.197L237.425 170.197ZM237.425 173.588L237.425 175.284L238.575 175.284L238.575 173.588L237.425 173.588ZM237.425 176.979L237.425 178.675L238.575 178.675L238.575 176.979L237.425 176.979ZM237.425 180.371L237.425 182.066L238.575 182.066L238.575 180.371L237.425 180.371ZM237.425 183.762L237.425 185.458L238.575 185.458L238.575 183.762L237.425 183.762ZM237.425 187.153L237.425 188.001L238.575 188.001L238.575 187.153L237.425 187.153Z" fill="#DEE2E6"/>
</svg>
