<svg width="170" height="214" viewBox="0 0 170 214" fill="none" xmlns="http://www.w3.org/2000/svg">
<path d="M75 2.35016L77.35 0.000171451L84.9999 7.63346L92.6499 0.000171633L94.9999 2.35016L84.9999 12.3501L75 2.35016Z" fill="#C7DA01"/>
<path d="M75.0001 13.3326L77.3501 10.9826L85.0001 18.6159L92.65 10.9826L95 13.3326L85.0001 23.3325L75.0001 13.3326Z" fill="#C7DA01"/>
<rect x="2" y="45.3325" width="166" height="166" rx="18" stroke="#C7DA01" stroke-width="4"/>
<g clip-path="url(#clip0_2003_1990)">
<path d="M101.686 82.0508H67.4181V130.511H101.686V82.0508Z" fill="black"/>
<path d="M103.237 132.062H65.8666V80.4988H103.237V132.062ZM68.9694 128.959H100.134V83.6016H68.9694V128.959Z" fill="white"/>
<path d="M91.0243 101.685H85.3337V98.5821H91.0243C91.4277 98.5821 91.7504 98.2532 91.7504 97.856C91.7504 97.4589 91.4215 97.13 91.0243 97.13H89.1626C87.0527 97.13 85.3337 95.411 85.3337 93.3011C85.3337 91.1911 87.0527 89.4722 89.1626 89.4722H94.8532V92.575H89.1626C88.7593 92.575 88.4366 92.9039 88.4366 93.3011C88.4366 93.6982 88.7655 94.0271 89.1626 94.0271H91.0243C93.1343 94.0271 94.8532 95.7461 94.8532 97.856C94.8532 99.966 93.1343 101.685 91.0243 101.685Z" fill="white"/>
<path d="M91.6448 98.5823H88.542V103.838H91.6448V98.5823Z" fill="white"/>
<path d="M91.6448 87.313H88.542V92.5692H91.6448V87.313Z" fill="white"/>
<path d="M78.669 108.679H75.8765V111.472H78.669V108.679Z" fill="#E2E2E2"/>
<path d="M93.234 108.679H81.5425V111.472H93.234V108.679Z" fill="#E2E2E2"/>
<path d="M78.669 114.705H75.8765V117.497H78.669V114.705Z" fill="#E2E2E2"/>
<path d="M93.234 114.705H81.5425V117.497H93.234V114.705Z" fill="#E2E2E2"/>
<path d="M90.2361 134.588L101.35 123.473H99.9852V117.268H111.95V129.226H105.744V127.861L94.6235 138.975L90.2361 134.588Z" fill="#C7DA01"/>
<path d="M110.398 118.819V127.675H107.296V124.113L94.6298 136.778L92.4329 134.582L105.099 121.916H101.537V118.813H110.392M113.501 115.716H98.44V124.199L90.2423 132.397L88.0455 134.594L90.2423 136.791L92.4391 138.988L94.636 141.184L96.8328 138.988L105.03 130.79H113.514V115.729L113.501 115.716Z" fill="black"/>
</g>
<path d="M40.345 173.778C43.215 170.488 46.435 166.708 48.99 163.558C51.755 160.093 52.91 158.203 52.91 156.103C52.91 154.423 51.72 153.198 49.795 153.198C47.59 153.198 46.155 154.878 45.56 157.328L39.855 155.718C41.115 151.133 44.37 147.913 49.795 147.913C55.29 147.913 59 151.238 59 155.578V156.348C59 159.603 57.565 162.228 53.925 166.638C52.105 168.843 49.83 171.503 48.5 173.078C49.62 172.973 51.79 172.728 52.63 172.658H60.12V178.048H40.345V173.778Z" fill="#C7DA01"/>
<path d="M86.3438 155.454V171.45H84.1992V163.381H82.7578V170.711H80.6309V155.682H82.7578V161.553H84.1992V155.454H86.3438ZM79.2949 157.106V167.424H72.9316V157.106H79.2949ZM75.0234 158.881V165.667H77.2031V158.881H75.0234ZM101.686 162.274V163.909H95.5336V164.911H99.9457V168.813H91.0336V169.692H100.368V171.344H88.8363V167.301H97.7309V166.51H88.8188V164.911H93.3012V163.909H87.1664V162.274H101.686ZM95.516 155.436V156.702H100.315V158.354H95.7973C96.2367 159.286 97.8715 160.05 101.106 160.182L100.455 161.834C97.4848 161.694 95.4281 160.938 94.4086 159.725C93.3979 160.938 91.3324 161.694 88.3441 161.834L87.7289 160.182C90.9369 160.05 92.5629 159.286 93.0199 158.354H88.5375V156.702H93.3012V155.436H95.516ZM107.624 157.967C107.624 159.901 108.749 161.764 111.28 162.555L110.085 164.295C108.388 163.733 107.202 162.643 106.516 161.237C105.822 162.854 104.583 164.12 102.755 164.735L101.542 162.977C104.214 162.081 105.356 159.954 105.374 157.756V156.297H107.624V157.967ZM114.479 155.454V159.198H116.641V161.061H114.479V164.946H112.229V155.454H114.479ZM109.241 165.262C112.546 165.262 114.638 166.405 114.638 168.356C114.638 170.325 112.546 171.45 109.241 171.45C105.866 171.45 103.757 170.325 103.757 168.356C103.757 166.405 105.866 165.262 109.241 165.262ZM109.241 167.02C107.132 167.02 105.989 167.477 106.007 168.356C105.989 169.27 107.132 169.692 109.241 169.692C111.315 169.692 112.423 169.27 112.423 168.356C112.423 167.477 111.315 167.02 109.241 167.02ZM124.9 156.227C124.9 157.915 126.763 159.778 130.296 160.182L129.487 161.94C126.763 161.58 124.777 160.411 123.757 158.829C122.72 160.411 120.725 161.571 118.009 161.94L117.165 160.182C120.716 159.778 122.579 157.915 122.597 156.227V155.7H124.9V156.227ZM131.034 162.819V164.577H116.445V162.819H131.034ZM123.722 165.667C127.185 165.667 129.277 166.686 129.294 168.567C129.277 170.413 127.185 171.467 123.722 171.467C120.206 171.467 118.114 170.413 118.114 168.567C118.114 166.686 120.206 165.667 123.722 165.667ZM123.722 167.354C121.507 167.354 120.382 167.741 120.4 168.567C120.382 169.393 121.507 169.762 123.722 169.762C125.884 169.762 127.027 169.393 127.044 168.567C127.027 167.741 125.884 167.354 123.722 167.354Z" fill="#C7DA01"/>
<defs>
<clipPath id="clip0_2003_1990">
<rect width="47.6348" height="60.6667" fill="white" transform="translate(65.8666 80.4988)"/>
</clipPath>
</defs>
</svg>
