<svg width="170" height="214" viewBox="0 0 170 214" fill="none" xmlns="http://www.w3.org/2000/svg">
<path d="M75 2.68268L77.35 0.332691L84.9999 7.96598L92.6499 0.332691L94.9999 2.68268L84.9999 12.6826L75 2.68268Z" fill="#2DAF37"/>
<path d="M75.0001 13.6651L77.3501 11.3151L85.0001 18.9484L92.65 11.3151L95 13.6651L85.0001 23.665L75.0001 13.6651Z" fill="#2DAF37"/>
<rect x="2" y="45.665" width="166" height="166" rx="18" stroke="#2DAF37" stroke-width="4"/>
<g clip-path="url(#clip0_2003_1991)">
<path d="M85.0038 130.317C100.715 130.317 113.452 117.581 113.452 101.869C113.452 86.1578 100.715 73.4211 85.0038 73.4211C69.2923 73.4211 56.5557 86.1578 56.5557 101.869C56.5557 117.581 69.2923 130.317 85.0038 130.317Z" fill="black"/>
<path d="M85.0038 132.199C77.2355 132.199 69.4597 129.24 63.5425 123.323C51.708 111.496 51.708 92.2423 63.5425 80.4078C75.3769 68.5734 94.6306 68.5734 106.457 80.4078C118.284 92.2423 118.292 111.496 106.457 123.323C100.54 129.24 92.772 132.199 84.9962 132.199H85.0038ZM85.0038 75.3251C78.2065 75.3251 71.4017 77.912 66.228 83.0933C55.8728 93.4485 55.8728 110.297 66.228 120.645C76.5831 131 93.432 131 103.78 120.645C114.135 110.29 114.135 93.4409 103.78 83.0933C98.6058 77.9195 91.801 75.3251 85.0038 75.3251Z" fill="white"/>
<path d="M79.7316 109.348H86.5288C88.5922 109.348 90.2688 107.672 90.2688 105.608C90.2688 103.545 88.5922 101.868 86.5288 101.868H83.4716C81.4081 101.868 79.7316 100.192 79.7316 98.1284C79.7316 96.065 81.4081 94.3884 83.4716 94.3884H90.2688" fill="black"/>
<path d="M86.5287 111.245H77.835V107.452H86.5287C87.5453 107.452 88.3722 106.625 88.3722 105.609C88.3722 104.592 87.5453 103.765 86.5287 103.765H83.4715C80.3612 103.765 77.835 101.239 77.835 98.1287C77.835 95.0184 80.3612 92.4922 83.4715 92.4922H92.1653V96.2853H83.4715C82.4549 96.2853 81.6281 97.1122 81.6281 98.1287C81.6281 99.1453 82.4549 99.9722 83.4715 99.9722H86.5287C89.6391 99.9722 92.1653 102.498 92.1653 105.609C92.1653 108.719 89.6391 111.245 86.5287 111.245Z" fill="white"/>
<path d="M86.9004 107.452H83.1073V114.78H86.9004V107.452Z" fill="white"/>
<path d="M86.9004 88.9495H83.1073V96.2777H86.9004V88.9495Z" fill="white"/>
<path d="M109.166 127.373C108.301 127.373 107.482 127.032 106.86 126.418L100.692 120.242C99.8046 119.355 99.5011 118.065 99.9108 116.874C100.32 115.683 101.345 114.849 102.596 114.689L109.659 113.802C109.796 113.787 109.932 113.779 110.069 113.779C111.002 113.779 111.897 114.181 112.519 114.887C113.141 115.592 113.429 116.525 113.308 117.458L112.42 124.521C112.216 126.152 110.82 127.381 109.166 127.381V127.373Z" fill="#2DAF37"/>
<path d="M110.069 115.668C110.88 115.668 111.533 116.381 111.426 117.208L110.539 124.271C110.448 125.014 109.818 125.469 109.173 125.469C108.832 125.469 108.491 125.34 108.21 125.067L102.035 118.892C101.231 118.088 101.701 116.707 102.831 116.563L109.894 115.676C109.955 115.676 110.008 115.668 110.069 115.668ZM110.069 111.875C109.856 111.875 109.636 111.89 109.424 111.913L102.361 112.801C100.389 113.051 98.7651 114.371 98.1203 116.252C97.4755 118.134 97.9458 120.174 99.3569 121.578L105.532 127.753C106.511 128.731 107.8 129.27 109.173 129.27C111.775 129.27 113.983 127.328 114.302 124.749L115.189 117.686C115.371 116.214 114.916 114.735 113.937 113.627C112.959 112.512 111.548 111.875 110.069 111.875Z" fill="black"/>
<path d="M59.9317 89.9587C58.9986 89.9587 58.1034 89.5566 57.4813 88.8511C56.8593 88.1456 56.571 87.2125 56.6924 86.2794L57.58 79.2167C57.7848 77.5857 59.1807 76.3567 60.8269 76.3567C61.6917 76.3567 62.511 76.6981 63.1331 77.3125L69.3082 83.4877C70.1958 84.3753 70.4992 85.6649 70.0896 86.856C69.6799 88.047 68.6558 88.8815 67.4041 89.0408L60.3413 89.9284C60.2048 89.9435 60.0682 89.9511 59.9317 89.9511V89.9587Z" fill="#2DAF37"/>
<path d="M60.8343 78.2604C61.1756 78.2604 61.517 78.3894 61.7977 78.6625L67.9729 84.8376C68.777 85.6417 68.3066 87.0224 67.1763 87.1666L60.1136 88.0541C60.0529 88.0541 59.9998 88.0617 59.9391 88.0617C59.1274 88.0617 58.475 87.3486 58.5812 86.5217L59.4688 79.459C59.5598 78.7156 60.1894 78.2604 60.8343 78.2604ZM60.8343 74.4673C58.2322 74.4673 56.0246 76.4094 55.706 78.9887L54.8108 86.0438C54.6288 87.5155 55.0839 88.9948 56.0626 90.1024C57.0412 91.2176 58.4522 91.8548 59.9315 91.8548C60.1439 91.8548 60.3639 91.8396 60.5839 91.8169L67.6467 90.9293C69.6191 90.679 71.2425 89.359 71.8873 87.4776C72.5322 85.5962 72.0618 83.5555 70.6508 82.1521L64.4756 75.977C63.497 74.9983 62.2074 74.4597 60.8343 74.4597V74.4673Z" fill="black"/>
</g>
<path d="M40.69 178.94C34.67 178.94 31.03 176.035 29.595 171.975L34.88 169.42C36.105 172.29 38.03 173.585 40.69 173.585C43.315 173.585 44.925 172.185 44.925 169.735C44.925 167.355 43.945 165.465 39.43 165.465H35.195V160.425H39.57C43.525 160.285 44.05 158.57 44.05 156.61C44.05 154.72 42.615 153.53 40.69 153.53C38.625 153.53 37.295 154.685 36.63 156.785L31.135 154.615C32.465 150.905 35.755 148.245 40.83 148.245C46.255 148.245 50.175 151.43 50.175 156.365C50.175 159.62 48.6 161.895 45.695 162.665V162.84C49.055 163.575 51.12 166.55 51.12 169.875V170.645C51.12 175.86 46.815 178.94 40.69 178.94Z" fill="#2DAF37"/>
<path d="M76.8691 155.804V167.3H74.6191V155.804H76.8691ZM77.291 169.708V171.501H66.1465V166.14H68.4141V169.708H77.291ZM68.0977 156.823C70.5586 156.823 72.4746 158.511 72.4746 160.849C72.4746 163.239 70.5586 164.909 68.0977 164.909C65.6367 164.909 63.7207 163.239 63.7207 160.849C63.7207 158.511 65.6367 156.823 68.0977 156.823ZM68.0977 158.774C66.8496 158.757 65.9004 159.548 65.918 160.849C65.9004 162.185 66.8496 162.958 68.0977 162.958C69.3105 162.958 70.2598 162.185 70.2598 160.849C70.2598 159.548 69.3105 158.757 68.0977 158.774ZM91.6137 155.804V167.493H89.3813V162.272H86.516V160.427H89.3813V155.804H91.6137ZM86.6566 156.981C86.6566 161.271 83.932 164.435 79.2563 165.894L78.3422 164.118C81.6557 163.081 83.7914 161.174 84.2133 158.81H79.1684V156.981H86.6566ZM92.018 169.708V171.501H81.0668V166.315H83.352V169.708H92.018ZM106.182 155.786V171.817H103.915V155.786H106.182ZM95.8289 157.052V160.954H99.2742V157.052H101.489V168.073H93.5789V157.052H95.8289ZM95.8289 166.263H99.2742V162.694H95.8289V166.263ZM119.834 156.401V158.194H116.652C116.713 159.794 117.874 161.464 120.308 162.167L119.271 163.942C117.469 163.424 116.23 162.36 115.527 161.024C114.797 162.501 113.497 163.714 111.642 164.276L110.552 162.536C113.057 161.736 114.305 159.891 114.402 158.194H111.168V156.401H119.834ZM124.175 155.786V163.925H121.943V160.849H119.429V159.073H121.943V155.786H124.175ZM124.175 164.54V168.864H115.791V169.884H124.65V171.624H113.541V167.229H121.943V166.315H113.523V164.54H124.175ZM138.041 155.786V159.284H140.203V161.13H138.041V164.733H135.791V155.786H138.041ZM133.559 156.718C133.541 160.954 130.869 163.819 126.07 165.085L125.174 163.31C128.76 162.422 130.737 160.646 131.115 158.511H125.965V156.718H133.559ZM138.041 165.331V171.589H127.582V165.331H138.041ZM129.814 167.142V169.831H135.826V167.142H129.814Z" fill="#2DAF37"/>
<defs>
<clipPath id="clip0_2003_1991">
<rect width="60.6667" height="60.6667" fill="white" transform="translate(54.6666 71.532)"/>
</clipPath>
</defs>
</svg>
