<svg width="241" height="240" viewBox="0 0 241 240" fill="none" xmlns="http://www.w3.org/2000/svg">
<g opacity="0.3">
<rect width="240" height="240" transform="translate(0.5 0.000488281)" fill="#C7DA01"/>
<path d="M63.8545 79.7896H69.3037L75.1924 94.1743H75.4268L81.3154 79.7896H86.7646V101H82.4873V87.1138H82.3115L76.7744 100.913H73.8447L68.3076 87.0552H68.1318V101H63.8545V79.7896ZM92.3838 101H87.6377L94.9912 79.7896H100.646L107.97 101H103.253L101.671 96.1079H93.9951L92.3838 101ZM95.1084 92.6802H100.558L97.8916 84.5649H97.7451L95.1084 92.6802ZM108.872 101V79.7896H117.192C122.026 79.7896 124.78 82.5142 124.78 86.7036C124.78 89.604 123.447 91.7134 121.03 92.7388L125.542 101H120.679L116.636 93.4712H113.267V101H108.872ZM113.267 89.897H116.372C118.979 89.897 120.239 88.813 120.239 86.7036C120.239 84.5649 118.979 83.3931 116.372 83.3931H113.267V89.897ZM125.507 83.4224V79.7896H142.88V83.4224H136.376V101H132.011V83.4224H125.507ZM144.104 101V79.7896H148.499V97.3677H157.64V101H144.104ZM177.556 90.395C177.556 97.3091 173.249 101.293 167.653 101.293C161.999 101.293 157.722 97.2798 157.722 90.395C157.722 83.481 161.999 79.4966 167.653 79.4966C173.249 79.4966 177.556 83.481 177.556 90.395ZM173.073 90.395C173.073 85.854 170.935 83.3931 167.653 83.3931C164.372 83.3931 162.204 85.854 162.204 90.395C162.204 94.936 164.372 97.397 167.653 97.397C170.935 97.397 173.073 94.936 173.073 90.395ZM70.417 139.555V157.192H57.6143V139.555H70.417ZM61.3057 142.485V154.233H66.6963V142.485H61.3057ZM77.7998 137.036V147.084H81.7256V150.19H77.7998V163.696H74.0498V137.036H77.7998ZM102.931 150.805V153.764H84.0635V138.999H102.726V142.016H87.8721V144.829H102.11V147.758H87.8721V150.805H102.931ZM105.597 157.543V160.59H81.1924V157.543H105.597ZM132.069 137.036V147.26H135.849V150.336H132.069V163.637H128.319V137.036H132.069ZM124.95 139.76C124.921 147.729 121.815 154.643 112.851 159.038L110.741 156.167C117.055 153.002 120.438 148.754 121.142 142.807H112.265V139.76H124.95ZM158.372 137.065V153.061H154.827V146.499H152.601V152.241H149.114V137.534H152.601V143.452H154.827V137.065H158.372ZM147.005 139.321V151.127H136.399V139.321H147.005ZM139.915 142.192V148.344H143.519V142.192H139.915ZM149.261 153.53C154.886 153.53 158.489 155.434 158.519 158.569C158.489 161.762 154.886 163.696 149.261 163.696C143.606 163.696 140.032 161.762 140.032 158.569C140.032 155.434 143.606 153.53 149.261 153.53ZM149.261 156.372C145.774 156.401 143.753 157.133 143.782 158.569C143.753 160.092 145.774 160.854 149.261 160.854C152.718 160.854 154.739 160.092 154.739 158.569C154.739 157.133 152.718 156.401 149.261 156.372ZM182.36 137.036V152.446H178.64V146.235H174.421V143.188H178.64V137.036H182.36ZM182.36 153.559V163.403H164.431V153.559H182.36ZM168.181 156.489V160.415H178.698V156.489H168.181ZM175.271 138.383V141.401H169.968C170.026 144.433 171.916 147.67 176.091 149.047L174.245 152.006C171.286 151.025 169.25 149.091 168.093 146.674C166.906 149.34 164.782 151.464 161.647 152.475L159.743 149.545C164.05 148.168 166.057 144.77 166.159 141.401H160.798V138.383H175.271Z" fill="black"/>
</g>
<g opacity="0.5">
<rect width="210" height="210" transform="translate(15.5 15.0005)" fill="#C7DA01"/>
<path d="M63.8545 79.7896H69.3037L75.1924 94.1743H75.4268L81.3154 79.7896H86.7646V101H82.4873V87.1138H82.3115L76.7744 100.913H73.8447L68.3076 87.0552H68.1318V101H63.8545V79.7896ZM92.3838 101H87.6377L94.9912 79.7896H100.646L107.97 101H103.253L101.671 96.1079H93.9951L92.3838 101ZM95.1084 92.6802H100.558L97.8916 84.5649H97.7451L95.1084 92.6802ZM108.872 101V79.7896H117.192C122.026 79.7896 124.78 82.5142 124.78 86.7036C124.78 89.604 123.447 91.7134 121.03 92.7388L125.542 101H120.679L116.636 93.4712H113.267V101H108.872ZM113.267 89.897H116.372C118.979 89.897 120.239 88.813 120.239 86.7036C120.239 84.5649 118.979 83.3931 116.372 83.3931H113.267V89.897ZM125.507 83.4224V79.7896H142.88V83.4224H136.376V101H132.011V83.4224H125.507ZM144.104 101V79.7896H148.499V97.3677H157.64V101H144.104ZM177.556 90.395C177.556 97.3091 173.249 101.293 167.653 101.293C161.999 101.293 157.722 97.2798 157.722 90.395C157.722 83.481 161.999 79.4966 167.653 79.4966C173.249 79.4966 177.556 83.481 177.556 90.395ZM173.073 90.395C173.073 85.854 170.935 83.3931 167.653 83.3931C164.372 83.3931 162.204 85.854 162.204 90.395C162.204 94.936 164.372 97.397 167.653 97.397C170.935 97.397 173.073 94.936 173.073 90.395ZM70.417 139.555V157.192H57.6143V139.555H70.417ZM61.3057 142.485V154.233H66.6963V142.485H61.3057ZM77.7998 137.036V147.084H81.7256V150.19H77.7998V163.696H74.0498V137.036H77.7998ZM102.931 150.805V153.764H84.0635V138.999H102.726V142.016H87.8721V144.829H102.11V147.758H87.8721V150.805H102.931ZM105.597 157.543V160.59H81.1924V157.543H105.597ZM132.069 137.036V147.26H135.849V150.336H132.069V163.637H128.319V137.036H132.069ZM124.95 139.76C124.921 147.729 121.815 154.643 112.851 159.038L110.741 156.167C117.055 153.002 120.438 148.754 121.142 142.807H112.265V139.76H124.95ZM158.372 137.065V153.061H154.827V146.499H152.601V152.241H149.114V137.534H152.601V143.452H154.827V137.065H158.372ZM147.005 139.321V151.127H136.399V139.321H147.005ZM139.915 142.192V148.344H143.519V142.192H139.915ZM149.261 153.53C154.886 153.53 158.489 155.434 158.519 158.569C158.489 161.762 154.886 163.696 149.261 163.696C143.606 163.696 140.032 161.762 140.032 158.569C140.032 155.434 143.606 153.53 149.261 153.53ZM149.261 156.372C145.774 156.401 143.753 157.133 143.782 158.569C143.753 160.092 145.774 160.854 149.261 160.854C152.718 160.854 154.739 160.092 154.739 158.569C154.739 157.133 152.718 156.401 149.261 156.372ZM182.36 137.036V152.446H178.64V146.235H174.421V143.188H178.64V137.036H182.36ZM182.36 153.559V163.403H164.431V153.559H182.36ZM168.181 156.489V160.415H178.698V156.489H168.181ZM175.271 138.383V141.401H169.968C170.026 144.433 171.916 147.67 176.091 149.047L174.245 152.006C171.286 151.025 169.25 149.091 168.093 146.674C166.906 149.34 164.782 151.464 161.647 152.475L159.743 149.545C164.05 148.168 166.057 144.77 166.159 141.401H160.798V138.383H175.271Z" fill="black"/>
</g>
<rect width="180" height="180" transform="translate(30.5 30.0005)" fill="#C7DA01"/>
<g clip-path="url(#clip0_123_4172)">
<path d="M138.103 107.749H102.48C101.768 107.749 101.191 107.171 101.191 106.46V84.8219C101.191 84.1103 101.768 83.5327 102.48 83.5327H138.103C138.815 83.5327 139.392 84.1103 139.392 84.8219V106.46C139.392 107.171 138.815 107.749 138.103 107.749ZM103.769 105.171H136.814V86.1111H103.769V105.171Z" fill="black"/>
<path d="M99.7053 80.5935H107.936V84.327C107.936 86.596 106.089 88.4421 103.82 88.4421C101.551 88.4421 99.7053 86.596 99.7053 84.327V80.5935Z" fill="white"/>
<path d="M103.821 89.7312C100.84 89.7312 98.4163 87.2972 98.4163 84.3166V80.5831C98.4163 79.8818 98.9938 79.3042 99.7055 79.3042H107.936C108.647 79.3042 109.225 79.8818 109.225 80.5934V84.3269C109.225 87.3075 106.801 89.7312 103.821 89.7312ZM100.995 81.8826V84.3269C100.995 85.8842 102.263 87.1528 103.821 87.1528C105.378 87.1528 106.646 85.8842 106.646 84.3269V81.8826H100.995Z" fill="black"/>
<path d="M107.936 80.5935H116.166V84.327C116.166 86.596 114.32 88.4421 112.051 88.4421C109.782 88.4421 107.936 86.596 107.936 84.327V80.5935Z" fill="white"/>
<path d="M112.051 89.7312C109.07 89.7312 106.647 87.3075 106.647 84.3269V80.5934C106.647 79.8818 107.224 79.3042 107.936 79.3042H116.166C116.878 79.3042 117.455 79.8818 117.455 80.5934V84.3269C117.455 87.3075 115.032 89.7312 112.051 89.7312ZM109.225 81.8826V84.3269C109.225 85.8842 110.494 87.1528 112.051 87.1528C113.608 87.1528 114.877 85.8842 114.877 84.3269V81.8826H109.225Z" fill="black"/>
<path d="M116.176 80.5935H124.406V84.327C124.406 86.596 122.56 88.4421 120.291 88.4421C118.022 88.4421 116.176 86.596 116.176 84.327V80.5935Z" fill="white"/>
<path d="M120.291 89.7312C117.311 89.7312 114.887 87.3075 114.887 84.3269V80.5934C114.887 79.8818 115.465 79.3042 116.176 79.3042H124.406C125.118 79.3042 125.696 79.8818 125.696 80.5934V84.3269C125.696 87.3075 123.272 89.7312 120.291 89.7312ZM117.465 81.8826V84.3269C117.465 85.8842 118.734 87.1528 120.291 87.1528C121.849 87.1528 123.117 85.8842 123.117 84.3269V81.8826H117.465Z" fill="black"/>
<path d="M124.406 80.5935H132.636V84.327C132.636 86.596 130.79 88.4421 128.521 88.4421C126.252 88.4421 124.406 86.596 124.406 84.327V80.5935Z" fill="white"/>
<path d="M128.522 89.7312C125.541 89.7312 123.117 87.3075 123.117 84.3269V80.5934C123.117 79.8818 123.695 79.3042 124.407 79.3042H132.637C133.348 79.3042 133.926 79.8818 133.926 80.5934V84.3269C133.926 87.3075 131.502 89.7312 128.522 89.7312ZM125.696 81.8826V84.3269C125.696 85.8842 126.964 87.1528 128.522 87.1528C130.079 87.1528 131.348 85.8842 131.348 84.3269V81.8826H125.696Z" fill="black"/>
<path d="M132.637 80.5935H140.867V84.327C140.867 86.596 139.021 88.4421 136.752 88.4421C134.483 88.4421 132.637 86.596 132.637 84.327V80.5935Z" fill="white"/>
<path d="M136.752 89.7312C133.771 89.7312 131.348 87.3075 131.348 84.3269V80.5934C131.348 79.8818 131.925 79.3042 132.637 79.3042H140.867C141.579 79.3042 142.156 79.8818 142.156 80.5934V84.3269C142.156 87.3075 139.733 89.7312 136.752 89.7312ZM133.926 81.8826V84.3269C133.926 85.8842 135.195 87.1528 136.752 87.1528C138.309 87.1528 139.578 85.8842 139.578 84.3269V81.8826H133.926Z" fill="black"/>
<path d="M128.934 94.3208H111.649V106.46H128.934V94.3208Z" fill="white"/>
<path d="M128.934 107.749H111.649C110.937 107.749 110.359 107.171 110.359 106.46V94.3208C110.359 93.6092 110.937 93.0316 111.649 93.0316H128.934C129.646 93.0316 130.223 93.6092 130.223 94.3208V106.46C130.223 107.171 129.646 107.749 128.934 107.749ZM112.938 105.171H127.645V95.61H112.938V105.171Z" fill="black"/>
<path d="M111.648 75.0551H105.883L99.7053 80.5934H107.936L111.648 75.0551Z" fill="white"/>
<path d="M107.936 81.8825H99.7054C99.1691 81.8825 98.6947 81.5525 98.4987 81.0574C98.3028 80.5624 98.4471 79.9951 98.8391 79.6341L105.017 74.0958C105.254 73.8792 105.563 73.7657 105.873 73.7657H111.638C112.113 73.7657 112.556 74.0236 112.773 74.4464C112.989 74.8693 112.969 75.3747 112.711 75.7666L109.008 81.3049C108.771 81.6659 108.369 81.8722 107.936 81.8722V81.8825ZM103.078 79.3041H107.255L109.235 76.3441H106.378L103.078 79.3041Z" fill="black"/>
<path d="M116.176 81.8827H107.946C107.471 81.8827 107.028 81.6248 106.811 81.202C106.595 80.7791 106.615 80.2738 106.873 79.8819L110.576 74.3435C110.813 73.9825 111.215 73.7762 111.648 73.7762H117.414C117.806 73.7762 118.177 73.9516 118.424 74.261C118.672 74.5704 118.765 74.9623 118.672 75.3439L117.434 80.8823C117.3 81.4701 116.785 81.893 116.176 81.893V81.8827ZM110.349 79.3043H115.134L115.794 76.3443H112.329L110.349 79.3043Z" fill="black"/>
<path d="M123.169 75.0551H117.404L116.177 80.5934H124.407L123.169 75.0551Z" fill="white"/>
<path d="M124.407 81.8825H116.176C115.785 81.8825 115.413 81.7072 115.166 81.3978C114.918 81.0884 114.825 80.6964 114.918 80.3148L116.156 74.7765C116.29 74.1886 116.806 73.7657 117.414 73.7657H123.179C123.788 73.7657 124.304 74.1886 124.438 74.7765L125.675 80.3148C125.758 80.6964 125.675 81.0987 125.428 81.3978C125.18 81.7072 124.809 81.8825 124.417 81.8825H124.407ZM117.785 79.3041H122.798L122.138 76.3441H118.445L117.785 79.3041Z" fill="black"/>
<path d="M132.637 81.8825H124.406C123.798 81.8825 123.282 81.4596 123.148 80.8718L121.911 75.3334C121.828 74.9518 121.911 74.5496 122.158 74.2505C122.406 73.9411 122.777 73.7657 123.169 73.7657H128.934C129.367 73.7657 129.769 73.9823 130.007 74.333L133.709 79.8714C133.977 80.2633 133.998 80.7789 133.771 81.1915C133.544 81.604 133.111 81.8722 132.637 81.8722V81.8825ZM125.438 79.3041H130.223L128.243 76.3441H124.778L125.438 79.3041Z" fill="black"/>
<path d="M134.7 75.0549H128.934L132.637 80.5933H140.878L134.7 75.0549Z" fill="white"/>
<path d="M140.878 81.8826H132.647C132.214 81.8826 131.812 81.666 131.575 81.3153L127.872 75.7769C127.604 75.385 127.583 74.8694 127.81 74.4568C128.037 74.0443 128.47 73.7761 128.945 73.7761H134.71C135.03 73.7761 135.329 73.8896 135.566 74.1062L141.744 79.6445C142.146 80.0055 142.28 80.5624 142.084 81.0678C141.888 81.5628 141.414 81.8929 140.878 81.8929V81.8826ZM133.328 79.3042H137.505L134.205 76.3442H131.348L133.328 79.3042Z" fill="black"/>
<path d="M134.699 76.3441H105.883C105.172 76.3441 104.594 75.7666 104.594 75.0549V69.2897C104.594 68.578 105.172 68.0005 105.883 68.0005H134.699C135.411 68.0005 135.989 68.578 135.989 69.2897V75.0549C135.989 75.7666 135.411 76.3441 134.699 76.3441ZM107.172 73.7658H133.41V70.5789H107.172V73.7658Z" fill="black"/>
</g>
<path d="M86.5127 130.274H89.7822L93.3154 138.905H93.4561L96.9893 130.274H100.259V143H97.6924V134.668H97.5869L94.2646 142.948H92.5068L89.1846 134.633H89.0791V143H86.5127V130.274ZM103.63 143H100.783L105.195 130.274H108.587L112.982 143H110.152L109.203 140.065H104.597L103.63 143ZM105.265 138.008H108.535L106.935 133.139H106.847L105.265 138.008ZM113.523 143V130.274H118.515C121.416 130.274 123.068 131.909 123.068 134.422C123.068 136.163 122.268 137.428 120.818 138.043L123.525 143H120.607L118.181 138.483H116.16V143H113.523ZM116.16 136.338H118.023C119.588 136.338 120.344 135.688 120.344 134.422C120.344 133.139 119.588 132.436 118.023 132.436H116.16V136.338ZM123.504 132.454V130.274H133.928V132.454H130.026V143H127.406V132.454H123.504ZM134.663 143V130.274H137.299V140.821H142.784V143H134.663ZM154.733 136.637C154.733 140.786 152.149 143.176 148.792 143.176C145.399 143.176 142.833 140.768 142.833 136.637C142.833 132.489 145.399 130.098 148.792 130.098C152.149 130.098 154.733 132.489 154.733 136.637ZM152.044 136.637C152.044 133.913 150.761 132.436 148.792 132.436C146.823 132.436 145.522 133.913 145.522 136.637C145.522 139.362 146.823 140.838 148.792 140.838C150.761 140.838 152.044 139.362 152.044 136.637ZM90.4502 157.133V167.715H82.7686V157.133H90.4502ZM84.9834 158.891V165.94H88.2178V158.891H84.9834ZM94.8799 155.622V161.651H97.2354V163.514H94.8799V171.618H92.6299V155.622H94.8799ZM109.958 163.883V165.659H98.6381V156.799H109.835V158.61H100.923V160.297H109.466V162.055H100.923V163.883H109.958ZM111.558 167.926V169.754H96.9154V167.926H111.558ZM127.442 155.622V161.756H129.709V163.602H127.442V171.583H125.192V155.622H127.442ZM123.17 157.256C123.153 162.038 121.289 166.186 115.91 168.823L114.645 167.1C118.433 165.202 120.463 162.653 120.885 159.084H115.559V157.256H123.17ZM143.223 155.639V165.237H141.096V161.299H139.76V164.745H137.669V155.92H139.76V159.471H141.096V155.639H143.223ZM136.403 156.993V164.077H130.04V156.993H136.403ZM132.149 158.715V162.407H134.311V158.715H132.149ZM137.756 165.518C141.131 165.518 143.294 166.661 143.311 168.542C143.294 170.458 141.131 171.618 137.756 171.618C134.364 171.618 132.219 170.458 132.219 168.542C132.219 166.661 134.364 165.518 137.756 165.518ZM137.756 167.223C135.665 167.241 134.452 167.68 134.469 168.542C134.452 169.456 135.665 169.913 137.756 169.913C139.831 169.913 141.044 169.456 141.044 168.542C141.044 167.68 139.831 167.241 137.756 167.223ZM157.616 155.622V164.868H155.384V161.141H152.853V159.313H155.384V155.622H157.616ZM157.616 165.536V171.442H146.858V165.536H157.616ZM149.108 167.293V169.649H155.419V167.293H149.108ZM153.362 156.43V158.241H150.181C150.216 160.06 151.35 162.002 153.854 162.829L152.747 164.604C150.972 164.015 149.75 162.855 149.056 161.405C148.344 163.004 147.069 164.279 145.188 164.885L144.046 163.127C146.63 162.301 147.834 160.262 147.896 158.241H144.679V156.43H153.362Z" fill="black"/>
<defs>
<clipPath id="clip0_123_4172">
<rect width="43.75" height="39.7484" fill="white" transform="translate(98.4163 68.0005)"/>
</clipPath>
</defs>
</svg>
