<svg width="170" height="170" viewBox="0 0 170 170" fill="none" xmlns="http://www.w3.org/2000/svg">
<rect x="2" y="2" width="166" height="166" rx="18" stroke="#D0D6D6" stroke-width="4"/>
<g clip-path="url(#clip0_123_3976)">
<path d="M85.3839 76.5895H74.5525V65.8833C74.5525 62.8921 76.977 60.4675 79.9682 60.4675C82.9594 60.4675 85.3839 62.8921 85.3839 65.8833V76.5895Z" fill="#E2E2E2"/>
<path d="M102.791 78.237H57.1392V48.0354L79.9616 27.7627L102.784 48.0354V78.237H102.791ZM60.4334 74.9428H99.4965V49.5178L79.9616 32.1704L60.4334 49.5112V74.9362V74.9428Z" fill="white"/>
<path d="M89.2183 49.6494H85.9241V52.9437H89.2183V49.6494Z" fill="white"/>
<path d="M81.6088 49.6494H78.3146V52.9437H81.6088V49.6494Z" fill="white"/>
<path d="M74.0057 49.6494H70.7114V52.9437H74.0057V49.6494Z" fill="white"/>
<path d="M88.0653 68.3934L99.8653 80.1934H98.4092V86.7818H111.112V74.0858H104.523V75.5353L92.7234 63.7354L88.0653 68.3934Z" fill="#C7DA01"/>
<path d="M109.465 85.1348H100.063V81.8405H103.845L90.3978 68.3934L92.7301 66.0611L106.177 79.5082V75.7264H109.471V85.1282M112.759 88.429V72.4388H103.753L95.0492 63.7354L92.7169 61.4031L90.3846 63.7354L88.0523 66.0677L85.72 68.4L88.0523 70.7324L96.7557 79.4357V88.4422H112.746L112.759 88.429Z" fill="black"/>
</g>
<path d="M39.925 134.715V129.395H47.975V111.23H41.71V107.1C44.895 106.785 46.96 106.155 48.675 105.14H54.485V129.395H59.98V134.715H39.925Z" fill="#D0D6D6"/>
<path d="M86.4316 112.121V128.117H84.2871V120.102H82.9336V127.379H80.8066V122.791L79.541 124.479C78.0557 123.696 77.0977 122.369 76.5352 120.717C75.999 122.615 75.0498 124.153 73.5293 125.059L72.1406 123.336C74.5664 121.965 75.3926 119.135 75.3926 116.076V115.566H72.6855V113.773H80.0156V115.566H77.5723V116.076C77.5723 118.862 78.3984 121.517 80.8066 122.756V112.35H82.9336V118.273H84.2871V112.121H86.4316ZM100.315 113.51V115.021C100.315 117.025 100.315 119.275 99.6645 122.668L97.4145 122.439C98.0209 119.416 98.0473 117.166 98.0648 115.285H88.643V113.51H100.315ZM101.721 124.338V126.166H87.1313V124.338H92.352V118.836H94.5844V124.338H101.721ZM109.505 114.564V116.34H101.77V114.564H104.548V112.561H106.763V114.564H109.505ZM105.673 117.061C107.712 117.061 109.171 118.643 109.188 120.857C109.171 123.09 107.712 124.672 105.673 124.672C103.634 124.672 102.139 123.09 102.139 120.857C102.139 118.643 103.634 117.061 105.673 117.061ZM105.673 118.924C104.741 118.924 104.108 119.645 104.108 120.857C104.108 122.07 104.741 122.773 105.673 122.773C106.569 122.773 107.202 122.07 107.22 120.857C107.202 119.645 106.569 118.924 105.673 118.924ZM115.622 112.121V128.117H113.495V120.418H112.194V127.432H110.102V112.438H112.194V118.625H113.495V112.121H115.622ZM129.927 112.121V120.172H127.695V118.941H124.038V117.236H127.695V115.83H124.214C123.221 118.238 120.936 119.776 117.394 120.541L116.638 118.713C120.303 117.983 121.999 116.472 122.298 114.547H117.534V112.736H124.777C124.777 113.22 124.741 113.686 124.671 114.125H127.695V112.121H129.927ZM129.927 120.752V125.129H121.56V126.184H130.279V127.959H119.31V123.477H127.677V122.51H119.292V120.752H129.927Z" fill="#D0D6D6"/>
<defs>
<clipPath id="clip0_123_3976">
<rect width="55.6199" height="60.6667" fill="white" transform="translate(57.1392 27.7627)"/>
</clipPath>
</defs>
</svg>
