<svg width="15" height="79" viewBox="0 0 15 79" fill="none" xmlns="http://www.w3.org/2000/svg">
<g opacity="0.8">
<path d="M-4.22895e-05 15.7379L1.76245 17.5004L7.49992 11.7754L13.2374 17.5004L14.9999 15.7379L7.49992 8.23791L-4.22895e-05 15.7379Z" fill="#C7DA01"/>
<path d="M7.97808e-05 7.49996L1.76257 9.26245L7.50004 3.53748L13.2375 9.26245L15 7.49996L7.50004 -3.27834e-07L7.97808e-05 7.49996Z" fill="#C7DA01"/>
<circle cx="7.5" cy="26.5002" r="4" fill="#C7DA01"/>
<circle cx="7.5" cy="39.5002" r="4" fill="#C7DA01"/>
<circle cx="7.5" cy="52.5002" r="4" fill="#C7DA01"/>
<path d="M-4.18722e-05 63.2626L1.76245 61.5001L7.49992 67.2251L13.2374 61.5001L14.9999 63.2626L7.49992 70.7626L-4.18722e-05 63.2626Z" fill="#C7DA01"/>
<path d="M8.01981e-05 71.5005L1.76257 69.738L7.50004 75.463L13.2375 69.738L15 71.5005L7.50004 79.0005L8.01981e-05 71.5005Z" fill="#C7DA01"/>
</g>
</svg>
