<svg width="201" height="200" viewBox="0 0 201 200" fill="none" xmlns="http://www.w3.org/2000/svg">
<rect x="2.5" y="2" width="196" height="196" stroke="#C7DA01" stroke-width="4"/>
<g clip-path="url(#clip0_123_4141)">
<path d="M107.913 61.8887L105.897 61.0032V54.6507H95.0256L93.8225 53.4476V34.7031L95.0256 33.5H121.172L122.375 34.7031V53.4476L121.172 54.6507H115.801L107.913 61.8887ZM96.2287 52.2445H107.1L108.303 53.4476V58.2649L114.521 52.5621L115.334 52.2445H119.969V35.9062H96.2287V52.2445Z" fill="#E2E2E2"/>
<path d="M92.7782 58.4237C90.3912 58.4237 88.1486 57.4949 86.4642 55.8057C82.98 52.3215 82.98 46.6572 86.4642 43.173C88.1534 41.4839 90.396 40.5551 92.783 40.5551C95.17 40.5551 97.4126 41.4839 99.0969 43.173C102.581 46.6572 102.581 52.3215 99.0969 55.8057C97.4078 57.4901 95.1651 58.4237 92.783 58.4237H92.7782Z" fill="white"/>
<path d="M92.7781 54.8146C95.7177 54.8146 98.1007 52.4316 98.1007 49.492C98.1007 46.5524 95.7177 44.1694 92.7781 44.1694C89.8386 44.1694 87.4556 46.5524 87.4556 49.492C87.4556 52.4316 89.8386 54.8146 92.7781 54.8146Z" fill="white"/>
<path d="M92.7783 56.0176C91.1083 56.0176 89.4336 55.3823 88.1631 54.107C85.6173 51.5612 85.6173 47.4225 88.1631 44.8767C90.7089 42.331 94.8476 42.331 97.3934 44.8767C99.9392 47.4225 99.9392 51.5612 97.3934 54.107C96.1229 55.3775 94.4482 56.0176 92.7783 56.0176ZM92.7783 45.3724C91.7243 45.3724 90.6704 45.7719 89.8667 46.5755C88.2594 48.1829 88.2594 50.7961 89.8667 52.4034C91.4741 54.0108 94.0873 54.0108 95.6946 52.4034C97.302 50.7961 97.302 48.1829 95.6946 46.5755C94.8909 45.7719 93.837 45.3724 92.7831 45.3724H92.7783Z" fill="white"/>
<path d="M79.799 73.6839L81.8202 64.6461C82.441 61.8645 84.9146 59.8866 87.7636 59.8866H97.7879C100.637 59.8866 103.11 61.8645 103.731 64.6461L105.752 73.6839" fill="white"/>
<path d="M104.583 73.9439L102.562 64.9061C102.057 62.6587 100.098 61.0851 97.7928 61.0851H87.7685C85.4633 61.0851 83.4998 62.6539 82.9993 64.9061L80.9781 73.9439L78.6296 73.4194L80.6509 64.3816C81.4016 61.0273 84.3276 58.6788 87.7685 58.6788H97.7928C101.234 58.6788 104.16 61.0225 104.91 64.3816L106.932 73.4194L104.583 73.9439Z" fill="white"/>
<path d="M108.823 48.9047H104.41V46.4985H108.823C109.136 46.4985 109.386 46.2435 109.386 45.9355C109.386 45.6275 109.131 45.3724 108.823 45.3724H107.379C105.743 45.3724 104.41 44.0394 104.41 42.4031C104.41 40.7669 105.743 39.4338 107.379 39.4338H111.792V41.8401H107.379C107.066 41.8401 106.816 42.0951 106.816 42.4031C106.816 42.7111 107.071 42.9662 107.379 42.9662H108.823C110.459 42.9662 111.792 44.2992 111.792 45.9355C111.792 47.5717 110.459 48.9047 108.823 48.9047Z" fill="#C7DA01"/>
<path d="M109.304 46.4987H106.898V50.5748H109.304V46.4987Z" fill="#C7DA01"/>
<path d="M109.304 37.759H106.898V41.8352H109.304V37.759Z" fill="#C7DA01"/>
</g>
<path d="M50.2318 95.7734H53.5014L57.0346 104.404H57.1752L60.7084 95.7734H63.9779V108.5H61.4115V100.168H61.3061L57.9838 108.447H56.226L52.9037 100.133H52.7982V108.5H50.2318V95.7734ZM67.3494 108.5H64.5018L68.9139 95.7734H72.3064L76.701 108.5H73.8709L72.9217 105.564H68.3162L67.3494 108.5ZM68.9842 103.508H72.2537L70.6541 98.6387H70.5662L68.9842 103.508ZM77.2424 108.5V95.7734H82.2346C85.135 95.7734 86.7873 97.4082 86.7873 99.9219C86.7873 101.662 85.9875 102.928 84.5373 103.543L87.2443 108.5H84.3264L81.9006 103.982H79.8791V108.5H77.2424ZM79.8791 101.838H81.7424C83.3068 101.838 84.0627 101.188 84.0627 99.9219C84.0627 98.6387 83.3068 97.9355 81.7424 97.9355H79.8791V101.838ZM87.2232 97.9531V95.7734H97.6471V97.9531H93.7447V108.5H91.1256V97.9531H87.2232ZM98.3818 108.5V95.7734H101.019V106.32H106.503V108.5H98.3818ZM118.453 102.137C118.453 106.285 115.869 108.676 112.511 108.676C109.119 108.676 106.552 106.268 106.552 102.137C106.552 97.9883 109.119 95.5977 112.511 95.5977C115.869 95.5977 118.453 97.9883 118.453 102.137ZM115.763 102.137C115.763 99.4121 114.48 97.9355 112.511 97.9355C110.542 97.9355 109.242 99.4121 109.242 102.137C109.242 104.861 110.542 106.338 112.511 106.338C114.48 106.338 115.763 104.861 115.763 102.137ZM135.549 94.1211V110.117H133.317V94.1211H135.549ZM122.172 105.6C123.394 105.591 124.791 105.591 126.25 105.547V104.193C124.492 103.886 123.35 102.796 123.367 101.293C123.35 99.5 124.985 98.2871 127.34 98.2871C129.713 98.2871 131.365 99.5 131.365 101.293C131.365 102.787 130.223 103.877 128.465 104.193V105.477C129.801 105.415 131.154 105.31 132.438 105.143L132.596 106.795C129.098 107.393 125.319 107.428 122.471 107.428L122.172 105.6ZM132.209 95.8965V97.6543H122.488V95.8965H126.25V94.1914H128.483V95.8965H132.209ZM127.34 99.9922C126.25 99.9922 125.477 100.467 125.494 101.293C125.477 102.137 126.25 102.594 127.34 102.594C128.465 102.594 129.221 102.137 129.221 101.293C129.221 100.467 128.465 99.9922 127.34 99.9922ZM150.311 94.1387V106.215H148.061V104.949H145.003V103.42H148.061V94.1387H150.311ZM150.663 108.043V109.836H138.745V105.055H140.977V102.928C139.545 102.989 138.182 102.998 136.969 102.998L136.706 101.223C139.641 101.205 143.596 101.17 146.971 100.748L147.094 102.348C145.829 102.559 144.519 102.708 143.227 102.805V105.846H140.977V108.043H150.663ZM141.909 94.6836C144.229 94.666 145.899 95.8438 145.899 97.5488C145.899 99.2539 144.229 100.361 141.909 100.361C139.536 100.361 137.883 99.2539 137.883 97.5488C137.883 95.8438 139.518 94.666 141.909 94.6836ZM141.909 96.3184C140.766 96.3184 139.993 96.7578 140.01 97.5488C139.993 98.3223 140.766 98.7441 141.909 98.7441C142.981 98.7441 143.754 98.3223 143.772 97.5488C143.754 96.7578 142.981 96.3184 141.909 96.3184Z" fill="white"/>
<path d="M67.1191 134.004V135.322H63.252V136.772H68.4961V138.105H56.4111V136.772H61.6406V135.322H57.9785V130.796H59.6045V134.004H67.1191ZM62.4316 138.896C65.2881 138.911 67.002 139.79 67.0166 141.343C67.002 142.896 65.2881 143.789 62.4316 143.789C59.5459 143.789 57.8174 142.896 57.8174 141.343C57.8174 139.79 59.5459 138.911 62.4316 138.896ZM62.4316 140.156C60.498 140.156 59.458 140.566 59.4727 141.343C59.458 142.104 60.498 142.529 62.4316 142.529C64.3213 142.529 65.376 142.104 65.3906 141.343C65.376 140.566 64.3213 140.156 62.4316 140.156ZM80.6953 137.124V138.428H75.4512V139.688H79.2158V143.774H77.5898V140.991H69.958V139.688H73.8398V138.428H68.625V137.124H80.6953ZM75.4512 130.547V131.807H79.5088V133.081H75.5684C75.7441 134.209 77.2969 135.132 80.0947 135.337L79.582 136.567C77.2236 136.37 75.4731 135.637 74.6455 134.487C73.8179 135.637 72.0601 136.37 69.709 136.567L69.1963 135.337C71.9648 135.132 73.5322 134.209 73.7227 133.081H69.8115V131.807H73.8398V130.547H75.4512ZM85.585 132.905C85.5703 134.648 86.6689 136.304 88.749 136.978L87.8994 138.267C86.4272 137.769 85.3872 136.772 84.8086 135.498C84.2153 136.904 83.124 138.003 81.5859 138.545L80.6777 137.256C82.8604 136.553 83.9443 134.766 83.9443 132.891V131.382H85.585V132.905ZM91.2832 130.562V134.473H93.1289V135.85H91.2832V140.288H89.6572V130.562H91.2832ZM91.8105 142.222V143.54H82.8018V139.336H84.4717V142.222H91.8105ZM105.123 135.938V137.227H99.8789V138.223H103.614V141.475H96.085V142.441H103.98V143.687H94.4883V140.303H102.018V139.453H94.4736V138.223H98.2529V137.227H93.0527V135.938H105.123ZM103.57 130.972V135.103H94.5762V130.972H103.57ZM96.1729 132.246V133.828H101.944V132.246H96.1729ZM120.146 136.641V137.959H114.902V139.058C117.275 139.219 118.667 140.039 118.682 141.416C118.667 142.939 116.953 143.789 114.097 143.789C111.211 143.789 109.482 142.939 109.482 141.416C109.482 140.039 110.889 139.211 113.291 139.058V137.959H108.076V136.641H120.146ZM114.097 140.288C112.163 140.303 111.123 140.684 111.138 141.416C111.123 142.148 112.163 142.544 114.097 142.544C115.986 142.544 117.041 142.148 117.056 141.416C117.041 140.684 115.986 140.303 114.097 140.288ZM119.062 131.147V132.451H115.254C115.51 133.542 117.092 134.524 119.575 134.751L119.004 136.04C116.602 135.798 114.814 134.839 114.097 133.491C113.379 134.832 111.621 135.798 109.219 136.04L108.662 134.751C111.094 134.524 112.676 133.528 112.954 132.451H109.175V131.147H119.062ZM131.32 130.576V138.062H129.68V130.576H131.32ZM131.32 138.721V143.643H122.531V138.721H131.32ZM124.143 140.01V142.324H129.724V140.01H124.143ZM125.227 132.363C125.227 134.048 126.354 135.63 128.42 136.289L127.629 137.534C126.098 137.058 125 136.084 124.406 134.81C123.798 136.179 122.685 137.271 121.096 137.798L120.29 136.509C122.443 135.82 123.542 134.106 123.542 132.363V131.074H125.227V132.363ZM143.93 130.562V143.804H142.362V130.562H143.93ZM141.205 130.796V143.159H139.652V136.86H138.393C138.239 139.438 137.133 141.035 135.492 141.021C133.764 141.035 132.636 139.204 132.636 136.289C132.636 133.374 133.764 131.572 135.492 131.572C137.096 131.572 138.188 133.066 138.378 135.542H139.652V130.796H141.205ZM135.492 133.11C134.657 133.096 134.13 134.224 134.145 136.289C134.13 138.354 134.657 139.482 135.492 139.468C136.371 139.482 136.898 138.354 136.898 136.289C136.898 134.224 136.371 133.096 135.492 133.11ZM39.4951 154.851V163.522H33.2256V154.851H39.4951ZM34.8223 156.125V162.219H37.8691V156.125H34.8223ZM43.1279 153.562V158.645H45.1641V160.021H43.1279V166.804H41.502V153.562H43.1279ZM55.7373 160.505V161.794H46.4502V154.602H55.6201V155.92H48.1055V157.517H55.3125V158.791H48.1055V160.505H55.7373ZM57.0703 163.859V165.192H44.9707V163.859H57.0703ZM70.4385 153.532V156.521H72.2988V157.839H70.4385V160.754H68.8125V153.532H70.4385ZM70.4385 161.34V164.533H63.4072V165.471H70.8486V166.687H61.7959V163.405H68.8125V162.526H61.7812V161.34H70.4385ZM67.8604 154.631V155.876H60.0088V154.631H63.1289V153.459H64.7549V154.631H67.8604ZM63.9346 156.286C65.8975 156.301 67.1572 157.136 67.1719 158.454C67.1572 159.816 65.8975 160.622 63.9346 160.622C61.9717 160.622 60.6826 159.816 60.6826 158.454C60.6826 157.136 61.9717 156.301 63.9346 156.286ZM63.9346 157.458C62.9092 157.458 62.2646 157.824 62.2646 158.454C62.2646 159.099 62.9092 159.45 63.9346 159.45C64.96 159.45 65.6191 159.099 65.6191 158.454C65.6191 157.824 64.96 157.458 63.9346 157.458ZM83.2383 153.576V163.142H81.5977V153.576H83.2383ZM83.6045 165.222V166.54H74.4785V162.175H76.1191V165.222H83.6045ZM76.0166 154.44C78.0234 154.44 79.5762 155.832 79.5762 157.751C79.5762 159.714 78.0234 161.076 76.0166 161.076C73.9951 161.076 72.4424 159.714 72.4424 157.751C72.4424 155.832 73.9951 154.44 76.0166 154.44ZM76.0166 155.861C74.8887 155.861 74.0244 156.608 74.0391 157.751C74.0244 158.923 74.8887 159.655 76.0166 159.655C77.1152 159.655 77.9795 158.923 77.9795 157.751C77.9795 156.608 77.1152 155.861 76.0166 155.861ZM98.3203 153.562V161.428H96.6943V158.19H94.4385V156.857H96.6943V153.562H98.3203ZM93.8379 161.765C96.6504 161.765 98.3643 162.688 98.3643 164.284C98.3643 165.881 96.6504 166.804 93.8379 166.804C91.04 166.804 89.3262 165.881 89.3408 164.284C89.3262 162.688 91.04 161.765 93.8379 161.765ZM93.8379 163.01C91.9922 163.01 90.9521 163.449 90.9521 164.284C90.9521 165.104 91.9922 165.544 93.8379 165.544C95.6836 165.544 96.7383 165.104 96.7383 164.284C96.7383 163.449 95.6836 163.01 93.8379 163.01ZM92.0947 155.832C92.0947 157.443 93.1641 159.069 95.2148 159.758L94.3945 161.047C92.9224 160.549 91.875 159.538 91.3037 158.293C90.7178 159.707 89.6118 160.834 88.0371 161.398L87.1875 160.109C89.3115 159.377 90.4395 157.59 90.4395 155.847V155.744H87.6855V154.426H94.834V155.744H92.0947V155.832ZM111.545 163.874V165.207H99.4453V163.874H104.66V161.296H100.778V154.44H102.404V156.608H108.542V154.44H110.168V161.296H106.271V163.874H111.545ZM102.404 159.978H108.542V157.912H102.404V159.978ZM125.865 153.562V166.804H124.312V153.562H125.865ZM123.17 153.811V166.159H121.632V159.494H119.728V158.176H121.632V153.811H123.17ZM118.556 157.18C118.556 159.421 119.361 161.662 121.251 162.746L120.284 163.947C119.061 163.215 118.248 161.955 117.794 160.446C117.325 162.08 116.483 163.471 115.23 164.255L114.234 163.039C116.153 161.882 116.988 159.479 116.988 157.18V156.301H114.688V154.982H120.694V156.301H118.556V157.18ZM132.645 161.838C135.516 161.853 137.332 162.761 137.347 164.328C137.332 165.866 135.516 166.789 132.645 166.789C129.788 166.789 127.957 165.866 127.957 164.328C127.957 162.761 129.788 161.853 132.645 161.838ZM132.645 163.068C130.74 163.068 129.583 163.522 129.598 164.328C129.583 165.104 130.74 165.529 132.645 165.529C134.563 165.529 135.721 165.104 135.735 164.328C135.721 163.522 134.563 163.068 132.645 163.068ZM137.259 154.191V155.29C137.259 156.33 137.259 157.443 136.893 158.806L135.281 158.659C135.611 157.37 135.633 156.44 135.633 155.48H128.089V154.191H137.259ZM138.724 159.567V160.886H126.712V159.567H131.37V157.165H132.981V159.567H138.724ZM143.596 165.5H141.56L145.295 154.895H147.639L151.389 165.5H149.353L148.474 162.878H144.475L143.596 165.5ZM144.987 161.34H147.961L146.511 157.062H146.423L144.987 161.34ZM151.898 165.5V154.895H155.883C158.314 154.895 159.618 156.374 159.618 158.41C159.618 160.446 158.3 161.911 155.854 161.911H153.803V165.5H151.898ZM153.803 160.344H155.59C157.025 160.344 157.67 159.538 157.67 158.41C157.67 157.268 157.025 156.491 155.59 156.491H153.803V160.344ZM160.406 165.5V154.895H164.391C166.822 154.895 168.126 156.374 168.126 158.41C168.126 160.446 166.808 161.911 164.361 161.911H162.311V165.5H160.406ZM162.311 160.344H164.098C165.533 160.344 166.178 159.538 166.178 158.41C166.178 157.268 165.533 156.491 164.098 156.491H162.311V160.344Z" fill="#DEE2E6"/>
<defs>
<clipPath id="clip0_123_4141">
<rect width="43.75" height="40.4438" fill="white" transform="translate(78.6249 33.5)"/>
</clipPath>
</defs>
</svg>
