<svg width="800" height="499" viewBox="0 0 800 499" fill="none" xmlns="http://www.w3.org/2000/svg">
<mask id="path-1-inside-1_308_6265" fill="white">
<path d="M0 0H266.667V35H0V0Z"/>
</mask>
<path d="M0 0H266.667V35H0V0Z" fill="black"/>
<path d="M265.667 0V35H267.667V0H265.667Z" fill="white" mask="url(#path-1-inside-1_308_6265)"/>
<path d="M116.686 11.8232V12.9219C116.686 14.0352 116.686 15.3169 116.393 16.9941H118.165V18.3271H106.065V16.9941H114.737C115.038 15.3975 115.06 14.2109 115.06 13.1416H107.56V11.8232H116.686ZM117.066 22.707V24.0254H107.633V19.5869H109.244V22.707H117.066ZM130.118 11.0615V24.3037H128.492V17.5654H125.694V16.2324H128.492V11.0615H130.118ZM125.753 12.4678C125.738 16.3789 124.347 19.6602 119.791 21.916L118.941 20.6416C122.369 18.9644 123.841 16.7231 124.112 13.7568H119.557V12.4678H125.753ZM137.779 11.75V13.5518H140.738V11.75H142.35V14.167H145.016V11.0615H146.642V18.2979H145.016V15.5146H142.35V17.8877H136.153V11.75H137.779ZM137.779 16.5693H140.738V14.8115H137.779V16.5693ZM139.537 18.8838V20.2314H145.016V18.8838H146.642V24.1133H137.911V18.8838H139.537ZM139.537 22.7949H145.016V21.4912H139.537V22.7949ZM154.845 11.7793V15.749H150.67V17.3164C152.794 17.3091 154.017 17.2505 155.416 16.9941L155.577 18.3125C153.995 18.5908 152.618 18.6348 150.025 18.6348H149.059V14.5039H153.219V13.0977H149.029V11.7793H154.845ZM159.605 11.0762V19.1621H157.979V16.9795H155.665V15.6611H157.979V14.2695H155.665V12.9512H157.979V11.0762H159.605ZM155.152 19.3818C157.95 19.3818 159.664 20.3047 159.664 21.8721C159.664 23.4541 157.95 24.3477 155.152 24.3477C152.325 24.3477 150.611 23.4541 150.626 21.8721C150.611 20.3047 152.325 19.3818 155.152 19.3818ZM155.152 20.6416C153.277 20.6416 152.267 21.0664 152.267 21.8721C152.267 22.6777 153.277 23.1025 155.152 23.1025C156.998 23.1025 158.053 22.6777 158.053 21.8721C158.053 21.0664 156.998 20.6416 155.152 20.6416Z" fill="white"/>
<mask id="path-4-inside-2_308_6265" fill="white">
<path d="M0 35H266.667V267H0V35Z"/>
</mask>
<path d="M0 35H266.667V267H0V35Z" fill="white"/>
<path d="M266.667 267V268H267.667V267H266.667ZM265.667 35V267H267.667V35H265.667ZM266.667 266H0V268H266.667V266Z" fill="#495057" mask="url(#path-4-inside-2_308_6265)"/>
<path d="M84.437 133.179V142.729H83.2798V137.734H80.5991V136.782H83.2798V133.179H84.437ZM84.8032 144.941V145.908H76.0728V141.865H77.23V144.941H84.8032ZM78.1675 135.859C78.1675 137.544 79.4712 139.185 81.3755 139.829L80.7749 140.752C79.3027 140.225 78.1675 139.126 77.6108 137.778C77.0469 139.28 75.8457 140.481 74.3003 141.06L73.6997 140.122C75.6187 139.448 77.0103 137.734 77.0103 135.859V135.186H74.0659V134.233H81.0825V135.186H78.1675V135.859ZM91.0142 137.163C90.9995 139.258 92.5083 141.558 94.3979 142.451L93.7388 143.359C92.2739 142.649 91.0361 141.096 90.4575 139.331C89.8569 141.25 88.5459 142.935 87.0884 143.682L86.3853 142.773C88.2603 141.865 89.8716 139.39 89.8862 137.163V135.464H86.854V134.512H93.9438V135.464H91.0142V137.163ZM96.6831 133.164V138.438H98.8657V139.419H96.6831V146.187H95.5405V133.164H96.6831ZM103.919 135.273C103.919 137.046 105.267 138.672 107.157 139.316L106.527 140.225C105.084 139.697 103.949 138.621 103.377 137.266C102.821 138.796 101.664 140.005 100.14 140.591L99.5249 139.668C101.473 138.936 102.777 137.192 102.792 135.186V133.838H103.919V135.273ZM109.75 133.164V136.562H111.712V137.529H109.75V141.089H108.607V133.164H109.75ZM105.575 141.426C108.255 141.426 109.867 142.29 109.867 143.784C109.867 145.308 108.255 146.157 105.575 146.157C102.894 146.157 101.253 145.308 101.253 143.784C101.253 142.29 102.894 141.426 105.575 141.426ZM105.575 142.349C103.612 142.349 102.396 142.891 102.411 143.784C102.396 144.707 103.612 145.234 105.575 145.249C107.552 145.234 108.753 144.707 108.753 143.784C108.753 142.891 107.552 142.349 105.575 142.349ZM123.314 133.164V146.187H122.171V139.36H119.066V138.408H122.171V133.164H123.314ZM119.095 134.585C119.095 138.276 117.528 141.558 113.177 143.711L112.547 142.788C116.078 141.082 117.711 138.577 117.938 135.522H113.119V134.585H119.095ZM130.814 134.585V139.141H127.049V142.1C128.543 142.092 129.957 142.026 131.649 141.748L131.751 142.686C129.906 143.008 128.426 143.066 126.786 143.066H125.936V138.188H129.701V135.552H125.907V134.585H130.814ZM136.629 133.164V146.187H135.531V139.272H133.612V145.513H132.557V133.457H133.612V138.32H135.531V133.164H136.629ZM154.105 139.36V140.327H142.225V139.36H154.105ZM152.713 137.178V138.115H143.734V133.691H152.625V134.658H144.862V137.178H152.713ZM148.158 141.47C150.956 141.47 152.625 142.319 152.64 143.813C152.625 145.322 150.956 146.157 148.158 146.157C145.345 146.157 143.661 145.322 143.661 143.813C143.661 142.319 145.345 141.47 148.158 141.47ZM148.158 142.363C146.063 142.378 144.818 142.905 144.833 143.813C144.818 144.736 146.063 145.249 148.158 145.249C150.223 145.249 151.483 144.736 151.483 143.813C151.483 142.905 150.223 142.378 148.158 142.363ZM166.351 133.164V146.187H165.238V133.164H166.351ZM163.729 133.442V145.527H162.63V139.199H160.96C160.836 141.733 159.759 143.315 158.148 143.315C156.449 143.315 155.35 141.558 155.35 138.789C155.35 136.021 156.449 134.263 158.148 134.263C159.73 134.263 160.799 135.793 160.946 138.247H162.63V133.442H163.729ZM158.148 135.347C157.093 135.347 156.419 136.665 156.434 138.789C156.419 140.898 157.093 142.231 158.148 142.217C159.203 142.231 159.876 140.898 159.876 138.789C159.876 136.665 159.203 135.347 158.148 135.347ZM172.738 136.665C172.738 139.023 174.247 141.396 176.136 142.261L175.448 143.198C173.968 142.437 172.745 140.876 172.167 139.023C171.588 140.972 170.365 142.642 168.885 143.433L168.138 142.51C170.042 141.572 171.566 139.067 171.566 136.665V134.292H172.738V136.665ZM178.949 133.164V146.216H177.806V138.555H174.715V137.617H177.806V133.164H178.949ZM185.379 134.116C187.43 134.116 188.88 135.361 188.88 137.178C188.88 138.994 187.43 140.239 185.379 140.239C183.329 140.239 181.849 138.994 181.864 137.178C181.849 135.361 183.329 134.116 185.379 134.116ZM185.379 135.127C183.988 135.127 182.977 135.962 182.992 137.178C182.977 138.394 183.988 139.229 185.379 139.229C186.756 139.229 187.752 138.394 187.752 137.178C187.752 135.962 186.756 135.127 185.379 135.127ZM191.795 133.164V146.216H190.653V133.164H191.795ZM181.19 142.363C183.592 142.363 186.903 142.349 189.789 141.924L189.876 142.773C186.903 143.33 183.695 143.345 181.351 143.345L181.19 142.363ZM75.3184 166.535V167.487H63.3945V166.535H68.7266V163.342H69.8545V166.535H75.3184ZM69.8838 158.054C69.8838 160.236 72.4619 162.141 74.7324 162.536L74.2197 163.488C72.2349 163.085 70.1401 161.738 69.2979 159.855C68.4409 161.73 66.3608 163.085 64.376 163.488L63.8633 162.536C66.1338 162.141 68.6826 160.236 68.6826 158.054V157.058H69.8838V158.054ZM87.0957 156.164V169.216H85.9385V156.164H87.0957ZM78.2627 157.277V160.72H82.1445V157.277H83.2725V166.066H77.1201V157.277H78.2627ZM78.2627 165.1H82.1445V161.643H78.2627V165.1ZM93.7314 160.163C93.7168 162.258 95.2256 164.558 97.1152 165.451L96.4561 166.359C94.9912 165.649 93.7534 164.096 93.1748 162.331C92.5742 164.25 91.2632 165.935 89.8057 166.682L89.1025 165.773C90.9775 164.865 92.5889 162.39 92.6035 160.163V158.464H89.5713V157.512H96.6611V158.464H93.7314V160.163ZM99.4004 156.164V161.438H101.583V162.419H99.4004V169.187H98.2578V156.164H99.4004ZM117.975 166.564V167.517H106.051V166.564H111.412V163.752H107.457V157.087H108.614V159.445H115.382V157.087H116.51V163.752H112.54V166.564H117.975ZM108.614 162.814H115.382V160.383H108.614V162.814ZM130.265 158.098V159.05H119.601V158.098H124.376V156.384H125.504V158.098H130.265ZM130.938 166.711V167.663H119.015V166.711H124.376V164.88C122.062 164.755 120.655 163.854 120.67 162.39C120.655 160.837 122.296 159.929 124.947 159.943C127.569 159.929 129.225 160.837 129.225 162.39C129.225 163.854 127.804 164.755 125.504 164.88V166.711H130.938ZM124.947 160.852C122.999 160.852 121.812 161.423 121.827 162.39C121.812 163.386 122.999 163.942 124.947 163.957C126.866 163.942 128.053 163.386 128.053 162.39C128.053 161.423 126.866 160.852 124.947 160.852ZM143.141 156.164V169.187H142.027V156.164H143.141ZM140.519 156.442V168.527H139.42V162.199H137.75C137.625 164.733 136.549 166.315 134.938 166.315C133.238 166.315 132.14 164.558 132.14 161.789C132.14 159.021 133.238 157.263 134.938 157.263C136.52 157.263 137.589 158.793 137.735 161.247H139.42V156.442H140.519ZM134.938 158.347C133.883 158.347 133.209 159.665 133.224 161.789C133.209 163.898 133.883 165.231 134.938 165.217C135.992 165.231 136.666 163.898 136.666 161.789C136.666 159.665 135.992 158.347 134.938 158.347ZM155.929 157.175V157.863C155.914 158.713 155.914 160.017 155.592 161.716L154.435 161.628C154.75 160.068 154.779 158.962 154.801 158.142H149.439V157.175H155.929ZM152.574 160.061V162.858C154.017 162.8 155.511 162.697 156.866 162.507L156.939 163.356C154.215 163.825 151.065 163.884 148.751 163.884L148.634 162.932C149.476 162.924 150.428 162.917 151.432 162.888V160.061H152.574ZM158.917 156.164V160.412H160.821V161.394H158.917V165.964H157.745V156.164H158.917ZM159.342 167.941V168.908H150.641V165.085H151.798V167.941H159.342ZM171.852 156.179V160.471H173.814V161.438H171.852V165.935H170.709V156.179H171.852ZM169.464 157.775V158.713H161.7V157.775H165.011V156.179H166.153V157.775H169.464ZM165.582 159.431C167.442 159.431 168.702 160.383 168.717 161.862C168.702 163.327 167.442 164.265 165.582 164.265C163.707 164.265 162.433 163.327 162.447 161.862C162.433 160.383 163.707 159.431 165.582 159.431ZM165.582 160.339C164.352 160.339 163.531 160.939 163.546 161.862C163.531 162.785 164.352 163.371 165.582 163.356C166.798 163.371 167.618 162.785 167.633 161.862C167.618 160.939 166.798 160.339 165.582 160.339ZM172.452 167.941V168.908H163.707V165.158H164.835V167.941H172.452ZM180.201 156.838V158.859H183.834V156.838H184.962V159.372H188.038V156.164H189.195V163.283H188.038V160.339H184.962V162.8H179.059V156.838H180.201ZM180.201 161.862H183.834V159.768H180.201V161.862ZM181.959 163.913V165.51H188.038V163.913H189.181V169.011H180.802V163.913H181.959ZM181.959 168.059H188.038V166.433H181.959V168.059ZM203.272 162.111V163.005H200.05V164.191H201.778V166.96H193.956V168.205H202.203V169.04H192.799V166.154H200.636V165.041H192.784V164.191H194.586V163.005H191.349V162.111H203.272ZM201.734 156.56V159.24H194.044V160.354H201.969V161.188H192.901V158.464H200.577V157.38H192.857V156.56H201.734ZM195.714 164.191H198.907V163.005H195.714V164.191Z" fill="black"/>
<mask id="path-7-inside-3_308_6265" fill="white">
<path d="M0 267H266.667V325H0V267Z"/>
</mask>
<path d="M0 267H266.667V325H0V267Z" fill="white"/>
<path d="M266.667 325V326H267.667V325H266.667ZM265.667 267V325H267.667V267H265.667ZM266.667 324H0V326H266.667V324Z" fill="#495057" mask="url(#path-7-inside-3_308_6265)"/>
<path d="M100.353 296.578V297.516H88.4727V296.578H93.834V295.289H90.0547V290.045H98.873V290.982H91.2119V292.198H98.5215V293.077H91.2119V294.366H98.9463V295.289H94.9766V296.578H100.353ZM94.4199 298.497C97.2764 298.482 98.8877 299.215 98.9023 300.577C98.8877 301.939 97.2764 302.657 94.4199 302.657C91.5342 302.657 89.9229 301.939 89.9229 300.577C89.9229 299.215 91.5342 298.482 94.4199 298.497ZM94.4199 299.361C92.2666 299.361 91.0654 299.801 91.0801 300.577C91.0654 301.368 92.2666 301.778 94.4199 301.764C96.5439 301.778 97.7451 301.368 97.7451 300.577C97.7451 299.801 96.5439 299.361 94.4199 299.361ZM112.203 289.679V299.229H111.061V289.679H112.203ZM112.613 301.441V302.408H103.795V298.351H104.938V301.441H112.613ZM106.065 291.715C106.051 293.692 107.413 295.479 109.347 296.183L108.746 297.105C107.237 296.527 106.065 295.355 105.494 293.854C104.916 295.45 103.729 296.732 102.213 297.34L101.583 296.446C103.561 295.685 104.894 293.766 104.894 291.715V290.411H106.065V291.715ZM125.152 289.664V302.716H123.995V289.664H125.152ZM116.319 290.777V294.22H120.201V290.777H121.329V299.566H115.177V290.777H116.319ZM116.319 298.6H120.201V295.143H116.319V298.6ZM134.176 290.396V295.699H128.067V290.396H134.176ZM129.195 291.334V294.791H133.048V291.334H129.195ZM138.116 289.664V296.388H136.988V289.664H138.116ZM138.116 297.032V300.138H130.821V301.603H138.585V302.54H129.679V299.288H136.988V297.955H129.664V297.032H138.116ZM152.267 300.064V301.017H140.343V300.064H145.704V297.252H141.749V290.587H142.906V292.945H149.674V290.587H150.802V297.252H146.832V300.064H152.267ZM142.906 296.314H149.674V293.883H142.906V296.314ZM164.557 291.598V292.55H153.893V291.598H158.668V289.884H159.796V291.598H164.557ZM165.23 300.211V301.163H153.307V300.211H158.668V298.38C156.354 298.255 154.947 297.354 154.962 295.89C154.947 294.337 156.588 293.429 159.239 293.443C161.861 293.429 163.517 294.337 163.517 295.89C163.517 297.354 162.096 298.255 159.796 298.38V300.211H165.23ZM159.239 294.352C157.291 294.352 156.104 294.923 156.119 295.89C156.104 296.886 157.291 297.442 159.239 297.457C161.158 297.442 162.345 296.886 162.345 295.89C162.345 294.923 161.158 294.352 159.239 294.352ZM168.072 290.338V292.359H171.705V290.338H172.833V292.872H175.909V289.664H177.066V296.783H175.909V293.839H172.833V296.3H166.93V290.338H168.072ZM168.072 295.362H171.705V293.268H168.072V295.362ZM169.83 297.413V299.01H175.909V297.413H177.052V302.511H168.673V297.413H169.83ZM169.83 301.559H175.909V299.933H169.83V301.559Z" fill="black"/>
<mask id="path-10-inside-4_308_6265" fill="white">
<path d="M0 325H266.667V383H0V325Z"/>
</mask>
<path d="M0 325H266.667V383H0V325Z" fill="white"/>
<path d="M266.667 383V384H267.667V383H266.667ZM265.667 325V383H267.667V325H265.667ZM266.667 382H0V384H266.667V382Z" fill="#495057" mask="url(#path-10-inside-4_308_6265)"/>
<path d="M99.2832 347.679V357.229H98.126V352.234H95.4453V351.282H98.126V347.679H99.2832ZM99.6494 359.441V360.408H90.9189V356.365H92.0762V359.441H99.6494ZM93.0137 350.359C93.0137 352.044 94.3174 353.685 96.2217 354.329L95.6211 355.252C94.1489 354.725 93.0137 353.626 92.457 352.278C91.8931 353.78 90.6919 354.981 89.1465 355.56L88.5459 354.622C90.4648 353.948 91.8564 352.234 91.8564 350.359V349.686H88.9121V348.733H95.9287V349.686H93.0137V350.359ZM105.86 351.663C105.846 353.758 107.354 356.058 109.244 356.951L108.585 357.859C107.12 357.149 105.882 355.596 105.304 353.831C104.703 355.75 103.392 357.435 101.935 358.182L101.231 357.273C103.106 356.365 104.718 353.89 104.732 351.663V349.964H101.7V349.012H108.79V349.964H105.86V351.663ZM111.529 347.664V352.938H113.712V353.919H111.529V360.687H110.387V347.664H111.529ZM124.771 348.367V349.334C124.771 350.345 124.771 351.531 124.435 353.157H126.339V354.109H114.415V353.157H123.277C123.629 351.524 123.629 350.345 123.629 349.334V349.319H115.924V348.367H124.771ZM124.83 355.911V360.511H115.88V355.911H124.83ZM117.022 356.819V359.573H123.688V356.819H117.022ZM139.244 353.772V354.71H136.285V356.512C137.252 356.9 137.787 357.522 137.794 358.357C137.779 359.837 136.109 360.672 133.312 360.687C130.484 360.672 128.814 359.837 128.814 358.357C128.814 357.508 129.371 356.871 130.382 356.482V354.71H127.379V353.772H139.244ZM133.312 356.058C133.985 356.058 134.593 356.102 135.128 356.189V354.71H131.539V356.189C132.066 356.102 132.66 356.058 133.312 356.058ZM133.312 356.937C131.217 356.951 129.972 357.464 129.986 358.357C129.972 359.266 131.217 359.764 133.312 359.764C135.377 359.764 136.637 359.266 136.637 358.357C136.637 357.464 135.377 356.951 133.312 356.937ZM133.312 347.928C136.139 347.928 137.911 348.836 137.911 350.374C137.911 351.897 136.139 352.791 133.312 352.791C130.455 352.791 128.697 351.897 128.697 350.374C128.697 348.836 130.455 347.928 133.312 347.928ZM133.312 348.851C131.202 348.851 129.869 349.407 129.884 350.374C129.869 351.326 131.202 351.883 133.312 351.883C135.392 351.883 136.739 351.326 136.739 350.374C136.739 349.407 135.392 348.851 133.312 348.851ZM151.124 347.664V360.687H149.981V353.86H146.876V352.908H149.981V347.664H151.124ZM146.905 349.085C146.905 352.776 145.338 356.058 140.987 358.211L140.357 357.288C143.888 355.582 145.521 353.077 145.748 350.022H140.929V349.085H146.905ZM158.624 349.085V353.641H154.859V356.6C156.354 356.592 157.767 356.526 159.459 356.248L159.562 357.186C157.716 357.508 156.236 357.566 154.596 357.566H153.746V352.688H157.511V350.052H153.717V349.085H158.624ZM164.439 347.664V360.687H163.341V353.772H161.422V360.013H160.367V347.957H161.422V352.82H163.341V347.664H164.439ZM168.072 348.338V350.359H171.705V348.338H172.833V350.872H175.909V347.664H177.066V354.783H175.909V351.839H172.833V354.3H166.93V348.338H168.072ZM168.072 353.362H171.705V351.268H168.072V353.362ZM169.83 355.413V357.01H175.909V355.413H177.052V360.511H168.673V355.413H169.83ZM169.83 359.559H175.909V357.933H169.83V359.559Z" fill="black"/>
<mask id="path-13-inside-5_308_6265" fill="white">
<path d="M0 383H266.667V441H0V383Z"/>
</mask>
<path d="M0 383H266.667V441H0V383Z" fill="white"/>
<path d="M266.667 441V442H267.667V441H266.667ZM265.667 383V441H267.667V383H265.667ZM266.667 440H0V442H266.667V440Z" fill="#495057" mask="url(#path-13-inside-5_308_6265)"/>
<path d="M109.874 394.809V395.746C109.874 396.72 109.874 397.885 109.552 399.452H111.441V400.39H106.021V402.792H109.962V407.187H108.805V403.744H100.748V402.792H104.879V400.39H99.5176V399.452H108.395C108.731 397.855 108.731 396.72 108.731 395.746H101.026V394.809H109.874ZM116.349 397.87C116.349 399.936 117.359 402.177 119.088 403.202L118.429 404.096C117.176 403.334 116.275 401.942 115.821 400.36C115.338 402.089 114.371 403.576 113.067 404.374L112.335 403.51C114.137 402.455 115.235 400.141 115.235 397.914V395.395H116.349V397.87ZM123.644 394.164V407.187H122.53V394.164H123.644ZM120.948 394.442V406.527H119.864V399.818H117.652V398.837H119.864V394.442H120.948ZM136.212 394.164V407.187H135.055V394.164H136.212ZM132.359 395.585C132.345 399.335 130.602 402.646 126.236 404.74L125.606 403.803C129.129 402.133 130.924 399.635 131.188 396.522H126.207V395.585H132.359ZM141.134 394.691V396.347H147.579V394.691H148.722V399.892H144.913V401.283H150.274V402.235H138.409V401.283H143.771V399.892H139.991V394.691H141.134ZM141.134 398.969H147.579V397.255H141.134V398.969ZM148.956 405.941V406.908H139.947V403.275H141.104V405.941H148.956ZM153.175 394.838V396.859H156.808V394.838H157.936V397.372H161.012V394.164H162.169V401.283H161.012V398.339H157.936V400.8H152.032V394.838H153.175ZM153.175 399.862H156.808V397.768H153.175V399.862ZM154.933 401.913V403.51H161.012V401.913H162.154V407.011H153.775V401.913H154.933ZM154.933 406.059H161.012V404.433H154.933V406.059ZM166.476 405.019L165.333 409.003H164.249L165.055 405.019H166.476ZM109.735 417.838V419.859H113.368V417.838H114.496V420.372H117.572V417.164H118.729V424.283H117.572V421.339H114.496V423.8H108.592V417.838H109.735ZM109.735 422.862H113.368V420.768H109.735V422.862ZM111.493 424.913V426.51H117.572V424.913H118.714V430.011H110.335V424.913H111.493ZM111.493 429.059H117.572V427.433H111.493V429.059ZM131.649 417.179V426.7H130.506V417.179H131.649ZM132.059 428.941V429.908H123.241V425.733H124.383V428.941H132.059ZM124.618 418.087C126.566 418.087 128.031 419.405 128.031 421.28C128.031 423.185 126.566 424.488 124.618 424.488C122.669 424.488 121.205 423.185 121.205 421.28C121.205 419.405 122.669 418.087 124.618 418.087ZM124.618 419.098C123.299 419.098 122.318 420.006 122.333 421.28C122.318 422.584 123.299 423.478 124.618 423.478C125.907 423.478 126.903 422.584 126.903 421.28C126.903 420.006 125.907 419.098 124.618 419.098ZM137.728 420.87C137.728 422.936 138.739 425.177 140.467 426.202L139.808 427.096C138.556 426.334 137.655 424.942 137.201 423.36C136.717 425.089 135.75 426.576 134.447 427.374L133.714 426.51C135.516 425.455 136.615 423.141 136.615 420.914V418.395H137.728V420.87ZM145.023 417.164V430.187H143.91V417.164H145.023ZM142.328 417.442V429.527H141.244V422.818H139.032V421.837H141.244V417.442H142.328ZM148.626 417.838V419.859H152.259V417.838H153.387V420.372H156.463V417.164H157.621V424.283H156.463V421.339H153.387V423.8H147.484V417.838H148.626ZM148.626 422.862H152.259V420.768H148.626V422.862ZM150.384 424.913V426.51H156.463V424.913H157.606V430.011H149.227V424.913H150.384ZM150.384 429.059H156.463V427.433H150.384V429.059Z" fill="black"/>
<mask id="path-16-inside-6_308_6265" fill="white">
<path d="M0 441H266.667V499H0V441Z"/>
</mask>
<path d="M0 441H266.667V499H0V441Z" fill="white"/>
<path d="M266.667 499V500H267.667V499H266.667ZM265.667 441V499H267.667V441H265.667ZM266.667 498H0V500H266.667V498Z" fill="#495057" mask="url(#path-16-inside-6_308_6265)"/>
<path d="M60.4136 459.063V459.986H48.5337V459.063H60.4136ZM58.8755 461.261V465.187H57.7036V462.184H49.8667V461.261H58.8755ZM59.0073 456.91V457.804H50.1157V452.516H58.9341V453.438H51.2729V454.684H58.5825V455.577H51.2729V456.91H59.0073ZM72.3081 452.164V459.928H71.1509V456.515H68.5288V455.562H71.1509V452.164H72.3081ZM67.9868 460.338C70.6968 460.338 72.3521 461.217 72.3521 462.755C72.3521 464.293 70.6968 465.172 67.9868 465.187C65.2769 465.172 63.6216 464.293 63.6216 462.755C63.6216 461.217 65.2769 460.338 67.9868 460.338ZM67.9868 461.231C65.9946 461.231 64.7495 461.803 64.7642 462.755C64.7495 463.692 65.9946 464.264 67.9868 464.264C69.979 464.264 71.2095 463.692 71.2095 462.755C71.2095 461.803 69.979 461.231 67.9868 461.231ZM66.0386 454.552C66.0386 456.251 67.3423 457.862 69.2466 458.521L68.646 459.444C67.1812 458.917 66.0459 457.826 65.4966 456.471C64.9253 458.001 63.7168 459.225 62.1714 459.811L61.5708 458.888C63.5044 458.185 64.8813 456.427 64.8813 454.566V454.083H61.937V453.116H68.9536V454.083H66.0386V454.552ZM88.5972 452.867V453.834C88.5972 454.845 88.5972 456.031 88.2603 457.657H90.1646V458.609H78.2407V457.657H87.103C87.4546 456.024 87.4546 454.845 87.4546 453.834V453.819H79.7495V452.867H88.5972ZM88.6558 460.411V465.011H79.7056V460.411H88.6558ZM80.8481 461.319V464.073H87.5132V461.319H80.8481ZM103.07 458.272V459.21H100.111V461.012C101.078 461.4 101.612 462.022 101.62 462.857C101.605 464.337 99.9351 465.172 97.1372 465.187C94.3101 465.172 92.6401 464.337 92.6401 462.857C92.6401 462.008 93.1968 461.371 94.2075 460.982V459.21H91.2046V458.272H103.07ZM97.1372 460.558C97.811 460.558 98.4189 460.602 98.9536 460.689V459.21H95.3647V460.689C95.8921 460.602 96.4854 460.558 97.1372 460.558ZM97.1372 461.437C95.0425 461.451 93.7974 461.964 93.812 462.857C93.7974 463.766 95.0425 464.264 97.1372 464.264C99.2026 464.264 100.462 463.766 100.462 462.857C100.462 461.964 99.2026 461.451 97.1372 461.437ZM97.1372 452.428C99.9644 452.428 101.737 453.336 101.737 454.874C101.737 456.397 99.9644 457.291 97.1372 457.291C94.2808 457.291 92.5229 456.397 92.5229 454.874C92.5229 453.336 94.2808 452.428 97.1372 452.428ZM97.1372 453.351C95.0278 453.351 93.6948 453.907 93.7095 454.874C93.6948 455.826 95.0278 456.383 97.1372 456.383C99.2173 456.383 100.565 455.826 100.565 454.874C100.565 453.907 99.2173 453.351 97.1372 453.351ZM114.95 452.164V465.187H113.807V458.36H110.702V457.408H113.807V452.164H114.95ZM110.731 453.585C110.731 457.276 109.164 460.558 104.813 462.711L104.183 461.788C107.713 460.082 109.347 457.577 109.574 454.522H104.754V453.585H110.731ZM122.45 453.585V458.141H118.685V461.1C120.179 461.092 121.593 461.026 123.285 460.748L123.387 461.686C121.542 462.008 120.062 462.066 118.421 462.066H117.572V457.188H121.336V454.552H117.542V453.585H122.45ZM128.265 452.164V465.187H127.167V458.272H125.248V464.513H124.193V452.457H125.248V457.32H127.167V452.164H128.265ZM140.892 452.164V459.928H139.735V456.515H137.113V455.562H139.735V452.164H140.892ZM136.571 460.338C139.281 460.338 140.936 461.217 140.936 462.755C140.936 464.293 139.281 465.172 136.571 465.187C133.861 465.172 132.206 464.293 132.206 462.755C132.206 461.217 133.861 460.338 136.571 460.338ZM136.571 461.231C134.579 461.231 133.333 461.803 133.348 462.755C133.333 463.692 134.579 464.264 136.571 464.264C138.563 464.264 139.793 463.692 139.793 462.755C139.793 461.803 138.563 461.231 136.571 461.231ZM134.623 454.552C134.623 456.251 135.926 457.862 137.831 458.521L137.23 459.444C135.765 458.917 134.63 457.826 134.081 456.471C133.509 458.001 132.301 459.225 130.755 459.811L130.155 458.888C132.088 458.185 133.465 456.427 133.465 454.566V454.083H130.521V453.116H137.538V454.083H134.623V454.552ZM154.984 462.564V463.517H143.06V462.564H148.421V459.752H144.466V453.087H145.624V455.445H152.391V453.087H153.519V459.752H149.549V462.564H154.984ZM145.624 458.814H152.391V456.383H145.624V458.814ZM160.287 453.116C162.337 453.116 163.788 454.361 163.788 456.178C163.788 457.994 162.337 459.239 160.287 459.239C158.236 459.239 156.756 457.994 156.771 456.178C156.756 454.361 158.236 453.116 160.287 453.116ZM160.287 454.127C158.895 454.127 157.884 454.962 157.899 456.178C157.884 457.394 158.895 458.229 160.287 458.229C161.664 458.229 162.66 457.394 162.66 456.178C162.66 454.962 161.664 454.127 160.287 454.127ZM166.703 452.164V465.216H165.56V452.164H166.703ZM156.097 461.363C158.5 461.363 161.81 461.349 164.696 460.924L164.784 461.773C161.81 462.33 158.602 462.345 156.258 462.345L156.097 461.363ZM184.676 462.564V463.517H172.752V462.564H178.114V459.752H174.159V453.087H175.316V455.445H182.083V453.087H183.211V459.752H179.242V462.564H184.676ZM175.316 458.814H182.083V456.383H175.316V458.814ZM196.161 453.482V454.786C196.146 456.383 196.146 458.17 195.677 460.792L194.505 460.66C195.003 458.17 195.003 456.339 195.003 454.786V454.435H186.976V453.482H196.161ZM197.582 462.389V463.341H185.716V462.389H190.375V457.73H191.502V462.389H197.582ZM209.242 453.014V458.316H203.133V453.014H209.242ZM204.261 453.951V457.408H208.114V453.951H204.261ZM213.182 452.164V459.649H212.054V452.164H213.182ZM209.652 461.437C209.652 462.711 211.732 463.971 213.973 464.249L213.578 465.143C211.615 464.879 209.828 463.956 209.066 462.74C208.275 463.978 206.444 464.879 204.481 465.143L204.071 464.249C206.312 464 208.465 462.74 208.465 461.437H204.613V460.543H208.48V459.269H209.623V460.543H213.519V461.437H209.652ZM87.0957 475.164V488.216H85.9385V475.164H87.0957ZM80.167 476.175C82.1006 476.189 83.4922 477.947 83.4922 480.716C83.4922 483.484 82.1006 485.242 80.167 485.242C78.2188 485.242 76.8418 483.484 76.8418 480.716C76.8418 477.947 78.2188 476.189 80.167 476.175ZM80.167 477.2C78.8633 477.215 77.9551 478.592 77.9551 480.716C77.9551 482.84 78.8633 484.217 80.167 484.217C81.4707 484.217 82.3789 482.84 82.3789 480.716C82.3789 478.592 81.4707 477.215 80.167 477.2ZM101.188 481.609V482.562H89.3223V481.609H92.2666V479.778C91.2266 479.375 90.6406 478.709 90.6406 477.83C90.6406 476.292 92.3984 475.413 95.2549 475.413C98.082 475.413 99.8545 476.292 99.8545 477.83C99.8545 478.702 99.2759 479.368 98.2432 479.764V481.609H101.188ZM95.2549 483.558C98.0527 483.558 99.7227 484.363 99.7373 485.857C99.7227 487.337 98.0527 488.157 95.2549 488.157C92.4277 488.157 90.7578 487.337 90.7578 485.857C90.7578 484.363 92.4277 483.558 95.2549 483.558ZM95.2549 484.437C93.1602 484.451 91.915 484.964 91.9297 485.857C91.915 486.736 93.1602 487.264 95.2549 487.264C97.3203 487.264 98.5801 486.736 98.5801 485.857C98.5801 484.964 97.3203 484.451 95.2549 484.437ZM95.2549 476.321C93.1309 476.321 91.8125 476.893 91.8271 477.83C91.8125 478.782 93.1309 479.339 95.2549 479.339C97.3643 479.339 98.6826 478.782 98.6826 477.83C98.6826 476.893 97.3643 476.321 95.2549 476.321ZM93.4092 481.609H97.1006V480.086C96.5513 480.181 95.936 480.232 95.2549 480.232C94.5737 480.232 93.9585 480.181 93.4092 480.086V481.609ZM117.931 481.36V482.327H106.051V481.36H117.931ZM116.539 479.178V480.115H107.56V475.691H116.451V476.658H108.688V479.178H116.539ZM111.983 483.47C114.781 483.47 116.451 484.319 116.466 485.813C116.451 487.322 114.781 488.157 111.983 488.157C109.171 488.157 107.486 487.322 107.486 485.813C107.486 484.319 109.171 483.47 111.983 483.47ZM111.983 484.363C109.889 484.378 108.644 484.905 108.658 485.813C108.644 486.736 109.889 487.249 111.983 487.249C114.049 487.249 115.309 486.736 115.309 485.813C115.309 484.905 114.049 484.378 111.983 484.363ZM130.177 475.164V488.187H129.063V475.164H130.177ZM127.555 475.442V487.527H126.456V481.199H124.786C124.662 483.733 123.585 485.315 121.974 485.315C120.274 485.315 119.176 483.558 119.176 480.789C119.176 478.021 120.274 476.263 121.974 476.263C123.556 476.263 124.625 477.793 124.771 480.247H126.456V475.442H127.555ZM121.974 477.347C120.919 477.347 120.245 478.665 120.26 480.789C120.245 482.898 120.919 484.231 121.974 484.217C123.028 484.231 123.702 482.898 123.702 480.789C123.702 478.665 123.028 477.347 121.974 477.347ZM142.965 476.175V476.863C142.95 477.713 142.95 479.017 142.628 480.716L141.471 480.628C141.786 479.068 141.815 477.962 141.837 477.142H136.476V476.175H142.965ZM139.61 479.061V481.858C141.053 481.8 142.547 481.697 143.902 481.507L143.976 482.356C141.251 482.825 138.102 482.884 135.787 482.884L135.67 481.932C136.512 481.924 137.464 481.917 138.468 481.888V479.061H139.61ZM145.953 475.164V479.412H147.857V480.394H145.953V484.964H144.781V475.164H145.953ZM146.378 486.941V487.908H137.677V484.085H138.834V486.941H146.378ZM158.888 475.179V479.471H160.851V480.438H158.888V484.935H157.745V475.179H158.888ZM156.5 476.775V477.713H148.736V476.775H152.047V475.179H153.189V476.775H156.5ZM152.618 478.431C154.479 478.431 155.738 479.383 155.753 480.862C155.738 482.327 154.479 483.265 152.618 483.265C150.743 483.265 149.469 482.327 149.483 480.862C149.469 479.383 150.743 478.431 152.618 478.431ZM152.618 479.339C151.388 479.339 150.567 479.939 150.582 480.862C150.567 481.785 151.388 482.371 152.618 482.356C153.834 482.371 154.654 481.785 154.669 480.862C154.654 479.939 153.834 479.339 152.618 479.339ZM159.488 486.941V487.908H150.743V484.158H151.871V486.941H159.488ZM167.237 475.838V477.859H170.87V475.838H171.998V478.372H175.074V475.164H176.231V482.283H175.074V479.339H171.998V481.8H166.095V475.838H167.237ZM167.237 480.862H170.87V478.768H167.237V480.862ZM168.995 482.913V484.51H175.074V482.913H176.217V488.011H167.838V482.913H168.995ZM168.995 487.059H175.074V485.433H168.995V487.059ZM190.309 481.111V482.005H187.086V483.191H188.814V485.96H180.992V487.205H189.239V488.04H179.835V485.154H187.672V484.041H179.82V483.191H181.622V482.005H178.385V481.111H190.309ZM188.771 475.56V478.24H181.08V479.354H189.005V480.188H179.938V477.464H187.613V476.38H179.894V475.56H188.771ZM182.75 483.191H185.943V482.005H182.75V483.191Z" fill="black"/>
<mask id="path-19-inside-7_308_6265" fill="white">
<path d="M266.667 0H533.333V35H266.667V0Z"/>
</mask>
<path d="M266.667 0H533.333V35H266.667V0Z" fill="black"/>
<path d="M532.333 0V35H534.333V0H532.333Z" fill="white" mask="url(#path-19-inside-7_308_6265)"/>
<path d="M384.832 21.374V22.707H372.732V21.374H377.947V18.7959H374.065V11.9404H375.691V14.1084H381.829V11.9404H383.455V18.7959H379.558V21.374H384.832ZM375.691 17.4775H381.829V15.4121H375.691V17.4775ZM397.781 18.4883V19.8066H394.836V24.3037H393.181V19.8066H390.251V24.3037H388.582V19.8066H385.681V18.4883H397.781ZM391.702 11.5303C394.514 11.5449 396.477 12.6875 396.477 14.4893C396.477 16.2617 394.514 17.3896 391.702 17.3896C388.875 17.3896 386.941 16.2617 386.956 14.4893C386.941 12.6875 388.875 11.5449 391.702 11.5303ZM391.702 12.8486C389.827 12.8486 388.611 13.4492 388.625 14.4893C388.611 15.5 389.827 16.1006 391.702 16.1006C393.577 16.1006 394.792 15.5 394.792 14.4893C394.792 13.4492 393.577 12.8486 391.702 12.8486ZM413.308 11.0615V18.9277H411.682V15.6904H409.426V14.3574H411.682V11.0615H413.308ZM408.826 19.2646C411.638 19.2646 413.352 20.1875 413.352 21.7842C413.352 23.3809 411.638 24.3037 408.826 24.3037C406.028 24.3037 404.314 23.3809 404.329 21.7842C404.314 20.1875 406.028 19.2646 408.826 19.2646ZM408.826 20.5098C406.98 20.5098 405.94 20.9492 405.94 21.7842C405.94 22.6045 406.98 23.0439 408.826 23.0439C410.671 23.0439 411.726 22.6045 411.726 21.7842C411.726 20.9492 410.671 20.5098 408.826 20.5098ZM407.083 13.332C407.083 14.9434 408.152 16.5693 410.203 17.2578L409.382 18.5469C407.91 18.0488 406.863 17.0381 406.292 15.793C405.706 17.2065 404.6 18.3345 403.025 18.8984L402.175 17.6094C404.299 16.877 405.427 15.0898 405.427 13.3467V13.2441H402.673V11.9258H409.822V13.2441H407.083V13.332ZM427.283 21.374V22.707H415.183V21.374H420.398V18.7959H416.516V11.9404H418.142V14.1084H424.28V11.9404H425.906V18.7959H422.009V21.374H427.283ZM418.142 17.4775H424.28V15.4121H418.142V17.4775Z" fill="white"/>
<mask id="path-22-inside-8_308_6265" fill="white">
<path d="M266.667 35H533.333V93H266.667V35Z"/>
</mask>
<path d="M266.667 35H533.333V93H266.667V35Z" fill="white"/>
<path d="M533.333 93V94H534.333V93H533.333ZM532.333 35V93H534.333V35H532.333ZM533.333 92H266.667V94H533.333V92Z" fill="#495057" mask="url(#path-22-inside-8_308_6265)"/>
<path d="M337.444 46.1641V59.1865H336.345V46.1641H337.444ZM334.807 46.5156V58.5273H333.708V54.0156H331.292V53.0635H333.708V50.749H331.511C330.874 52.9536 329.446 54.9019 326.985 56.374L326.282 55.5391C329.116 53.8618 330.537 51.5107 330.764 48.7861H326.868V47.834H331.907C331.907 48.5005 331.848 49.1597 331.731 49.7969H333.708V46.5156H334.807ZM351.375 48.1855V49.123H349.441V50.9541H351.375V51.9355H349.441V53.9131H348.298V46.1641H349.441V48.1855H351.375ZM349.441 54.5137V59.1865H348.298V55.4658H340.916V54.5137H349.441ZM342.922 46.9551C344.9 46.9404 346.335 48.2148 346.35 50.0166C346.335 51.8477 344.9 53.1074 342.922 53.1074C340.945 53.1074 339.495 51.8477 339.509 50.0166C339.495 48.2148 340.945 46.9404 342.922 46.9551ZM342.922 47.9365C341.604 47.9365 340.623 48.7861 340.637 50.0166C340.623 51.2617 341.604 52.126 342.922 52.1113C344.255 52.126 345.222 51.2617 345.222 50.0166C345.222 48.7861 344.255 47.9365 342.922 47.9365ZM366.96 52.2139V53.1514H362.244V47.4092H366.799V48.3467H363.401V52.2139H366.96ZM367.913 56.5645V57.5166H355.989V56.5645H361.335V53.8105H362.463V56.5645H367.913ZM361.453 47.4092V48.3613H358.171V52.1992C359.27 52.1919 360.361 52.104 361.57 51.833L361.672 52.7998C360.251 53.1221 359.05 53.166 357.747 53.1514H357.029V47.4092H361.453ZM379.485 50.1191V51.042H370.564V46.6475H371.707V50.1191H379.485ZM380.862 52.8145V53.752H368.938V52.8145H380.862ZM379.558 57.9121V58.8643H370.491V55.085H371.633V57.9121H379.558ZM390.12 48.9619C390.12 50.5879 391.526 52.0381 393.445 52.6094L392.888 53.5029C391.379 53.0562 390.171 52.0674 389.592 50.7783C389.021 52.2065 387.834 53.3271 386.282 53.8398L385.725 52.9609C387.644 52.3164 388.992 50.7344 388.992 48.9619V48.6836H386.047V47.7607H388.992V46.1055H390.149V47.7607H393.064V48.6836H390.12V48.9619ZM396.477 46.1641V54.0596H395.32V50.8516H392.654V49.8994H395.32V46.1641H396.477ZM392.156 54.4111C394.866 54.4111 396.521 55.2607 396.521 56.7842C396.521 58.293 394.866 59.1572 392.156 59.1572C389.446 59.1572 387.791 58.293 387.791 56.7842C387.791 55.2607 389.446 54.4111 392.156 54.4111ZM392.156 55.3047C390.164 55.3193 388.918 55.8613 388.933 56.7842C388.918 57.6924 390.164 58.249 392.156 58.249C394.163 58.249 395.378 57.6924 395.378 56.7842C395.378 55.8613 394.163 55.3193 392.156 55.3047ZM410.759 48.1855V49.123H408.826V50.9541H410.759V51.9355H408.826V53.9131H407.683V46.1641H408.826V48.1855H410.759ZM408.826 54.5137V59.1865H407.683V55.4658H400.3V54.5137H408.826ZM402.307 46.9551C404.285 46.9404 405.72 48.2148 405.735 50.0166C405.72 51.8477 404.285 53.1074 402.307 53.1074C400.33 53.1074 398.879 51.8477 398.894 50.0166C398.879 48.2148 400.33 46.9404 402.307 46.9551ZM402.307 47.9365C400.989 47.9365 400.007 48.7861 400.022 50.0166C400.007 51.2617 400.989 52.126 402.307 52.1113C403.64 52.126 404.607 51.2617 404.607 50.0166C404.607 48.7861 403.64 47.9365 402.307 47.9365ZM419.812 48.7275C419.812 50.1631 421.277 51.4082 423.21 51.8623L422.683 52.7412C421.123 52.3604 419.871 51.4888 419.285 50.3096C418.699 51.5913 417.446 52.5581 415.857 53.0049L415.33 52.1113C417.263 51.584 418.684 50.2656 418.684 48.7275V48.4199H415.74V47.4824H418.684V46.1055H419.841V47.4824H422.756V48.4199H419.812V48.7275ZM426.155 46.1641V53.0049H425.012V50.3535H422.361V49.416H425.012V46.1641H426.155ZM426.155 53.6348V56.7109H418.889V58.1172H426.653V59.04H417.747V55.832H425.012V54.543H417.717V53.6348H426.155ZM439.016 46.1641V59.1865H437.874V46.1641H439.016ZM428.411 55.7148C429.524 55.7075 430.798 55.7002 432.117 55.6562V54.2354C430.557 54.0669 429.539 53.1807 429.553 51.877C429.539 50.4121 430.798 49.46 432.673 49.46C434.548 49.46 435.823 50.4121 435.823 51.877C435.823 53.166 434.812 54.0522 433.274 54.2207V55.6123C434.534 55.561 435.808 55.4658 437.009 55.3047L437.097 56.1836C434.197 56.6523 431.003 56.6963 428.586 56.6963L428.411 55.7148ZM436.672 47.7754V48.7129H428.689V47.7754H432.117V46.1787H433.274V47.7754H436.672ZM432.673 50.3535C431.472 50.3535 430.623 50.9688 430.623 51.877C430.623 52.7852 431.472 53.3711 432.673 53.3564C433.889 53.3711 434.724 52.7852 434.724 51.877C434.724 50.9688 433.889 50.3535 432.673 50.3535ZM456.946 52.3604V53.3271H445.066V52.3604H456.946ZM455.554 50.1777V51.1152H446.575V46.6914H455.466V47.6582H447.703V50.1777H455.554ZM450.999 54.4697C453.796 54.4697 455.466 55.3193 455.481 56.8135C455.466 58.3223 453.796 59.1572 450.999 59.1572C448.186 59.1572 446.501 58.3223 446.501 56.8135C446.501 55.3193 448.186 54.4697 450.999 54.4697ZM450.999 55.3633C448.904 55.3779 447.659 55.9053 447.673 56.8135C447.659 57.7363 448.904 58.249 450.999 58.249C453.064 58.249 454.324 57.7363 454.324 56.8135C454.324 55.9053 453.064 55.3779 450.999 55.3633ZM462.292 47.1162C464.343 47.1162 465.793 48.3613 465.793 50.1777C465.793 51.9941 464.343 53.2393 462.292 53.2393C460.242 53.2393 458.762 51.9941 458.777 50.1777C458.762 48.3613 460.242 47.1162 462.292 47.1162ZM462.292 48.127C460.901 48.127 459.89 48.9619 459.905 50.1777C459.89 51.3936 460.901 52.2285 462.292 52.2285C463.669 52.2285 464.666 51.3936 464.666 50.1777C464.666 48.9619 463.669 48.127 462.292 48.127ZM468.708 46.1641V59.2158H467.566V46.1641H468.708ZM458.103 55.3633C460.505 55.3633 463.816 55.3486 466.702 54.9238L466.79 55.7734C463.816 56.3301 460.608 56.3447 458.264 56.3447L458.103 55.3633ZM379.939 70.1748V70.8633C379.924 71.7129 379.924 73.0166 379.602 74.7158L378.445 74.6279C378.76 73.0679 378.789 71.9619 378.811 71.1416H373.45V70.1748H379.939ZM376.584 73.0605V75.8584C378.027 75.7998 379.521 75.6973 380.876 75.5068L380.95 76.3564C378.225 76.8252 375.076 76.8838 372.761 76.8838L372.644 75.9316C373.486 75.9243 374.438 75.917 375.442 75.8877V73.0605H376.584ZM382.927 69.1641V73.4121H384.832V74.3936H382.927V78.9639H381.755V69.1641H382.927ZM383.352 80.9414V81.9082H374.651V78.085H375.808V80.9414H383.352ZM395.862 69.1787V73.4707H397.825V74.4375H395.862V78.9346H394.719V69.1787H395.862ZM393.474 70.7754V71.7129H385.71V70.7754H389.021V69.1787H390.164V70.7754H393.474ZM389.592 72.4307C391.453 72.4307 392.712 73.3828 392.727 74.8623C392.712 76.3271 391.453 77.2646 389.592 77.2646C387.717 77.2646 386.443 76.3271 386.458 74.8623C386.443 73.3828 387.717 72.4307 389.592 72.4307ZM389.592 73.3389C388.362 73.3389 387.542 73.9395 387.556 74.8623C387.542 75.7852 388.362 76.3711 389.592 76.3564C390.808 76.3711 391.628 75.7852 391.643 74.8623C391.628 73.9395 390.808 73.3389 389.592 73.3389ZM396.462 80.9414V81.9082H387.717V78.1582H388.845V80.9414H396.462ZM413.176 69.1641V82.1865H412.019V69.1641H413.176ZM409.324 70.585C409.309 74.335 407.566 77.6455 403.201 79.7402L402.571 78.8027C406.094 77.1328 407.888 74.6353 408.152 71.5225H403.171V70.585H409.324ZM427.283 76.3418V77.2939H415.359V76.3418H420.75V74.9648H416.912V71.7861H424.587V70.4385H416.868V69.501H425.745V72.6504H418.054V74.042H426.023V74.9648H421.877V76.3418H427.283ZM425.818 78.29V82.0693H424.661V79.2275H416.692V78.29H425.818Z" fill="black"/>
<mask id="path-25-inside-9_308_6265" fill="white">
<path d="M266.667 93H533.333V151H266.667V93Z"/>
</mask>
<path d="M266.667 93H533.333V151H266.667V93Z" fill="white"/>
<path d="M533.333 151V152H534.333V151H533.333ZM532.333 93V151H534.333V93H532.333ZM533.333 150H266.667V152H533.333V150Z" fill="#495057" mask="url(#path-25-inside-9_308_6265)"/>
<path d="M322.583 104.164V117.187H321.484V110.36H319.565V116.513H318.511V104.457H319.565V109.408H321.484V104.164H322.583ZM316.812 105.761V106.713H313.076V112.982C314.871 112.975 316.116 112.909 317.559 112.616L317.661 113.583C316.094 113.905 314.761 113.964 312.769 113.964H311.934V105.761H316.812ZM334.771 104.867V105.834C334.771 106.845 334.771 108.031 334.434 109.657H336.338V110.609H324.414V109.657H333.276C333.628 108.024 333.628 106.845 333.628 105.834V105.819H325.923V104.867H334.771ZM334.829 112.411V117.011H325.879V112.411H334.829ZM327.021 113.319V116.073H333.687V113.319H327.021ZM351.938 104.164V110.829H350.781V109.467H347.31V108.559H350.781V106.991H347.5C346.68 109.049 344.658 110.434 341.772 111.122L341.362 110.17C344.556 109.43 346.416 107.87 346.636 105.775H342.021V104.823H347.896C347.896 105.255 347.852 105.673 347.778 106.068H350.781V104.164H351.938ZM351.938 111.415V114.594H344.673V116.117H352.378V117.069H343.53V113.715H350.781V112.353H343.501V111.415H351.938ZM365.239 104.164V117.187H364.141V104.164H365.239ZM362.603 104.486V116.513H361.519V109.804H359.321V108.866H361.519V104.486H362.603ZM357.93 107.885C357.93 110.141 358.94 112.382 360.742 113.422L360.039 114.271C358.757 113.502 357.849 112.096 357.402 110.434C356.926 112.228 355.981 113.759 354.678 114.579L353.945 113.715C355.762 112.631 356.816 110.258 356.816 107.885V106.654H354.312V105.702H360.317V106.654H357.93V107.885ZM377.632 105.014V110.316H371.523V105.014H377.632ZM372.651 105.951V109.408H376.504V105.951H372.651ZM381.572 104.164V111.649H380.444V104.164H381.572ZM378.042 113.437C378.042 114.711 380.122 115.971 382.363 116.249L381.968 117.143C380.005 116.879 378.218 115.956 377.456 114.74C376.665 115.978 374.834 116.879 372.871 117.143L372.461 116.249C374.702 116 376.855 114.74 376.855 113.437H373.003V112.543H376.87V111.269H378.013V112.543H381.909V113.437H378.042ZM398.755 104.164V117.187H397.642V110.419H395.869V116.527H394.771V104.442H395.869V109.438H397.642V104.164H398.755ZM391.416 107.724C391.416 110.111 392.397 112.206 394.258 113.158L393.569 114.052C392.251 113.334 391.35 112.045 390.889 110.448C390.442 112.265 389.526 113.686 388.149 114.491L387.432 113.612C389.307 112.587 390.303 110.36 390.303 107.724V106.684H387.739V105.717H393.833V106.684H391.416V107.724ZM410.635 104.164V109.716H412.715V110.683H410.635V117.187H409.478V104.164H410.635ZM400.366 113.715C401.428 113.715 402.666 113.715 403.955 113.671V112.221C402.439 112.052 401.45 111.166 401.465 109.877C401.45 108.412 402.695 107.46 404.541 107.46C406.357 107.46 407.617 108.412 407.632 109.877C407.617 111.166 406.614 112.052 405.112 112.235V113.627C406.328 113.568 407.551 113.473 408.687 113.305L408.76 114.184C405.918 114.667 402.842 114.696 400.557 114.696L400.366 113.715ZM408.452 105.761V106.698H400.601V105.761H403.955V104.193H405.112V105.761H408.452ZM404.541 108.354C403.34 108.354 402.534 108.969 402.534 109.877C402.534 110.785 403.34 111.371 404.541 111.356C405.728 111.371 406.533 110.785 406.533 109.877C406.533 108.969 405.728 108.354 404.541 108.354ZM429.136 110.36V111.327H417.256V110.36H429.136ZM427.744 108.178V109.115H418.765V104.691H427.656V105.658H419.893V108.178H427.744ZM423.188 112.47C425.986 112.47 427.656 113.319 427.671 114.813C427.656 116.322 425.986 117.157 423.188 117.157C420.376 117.157 418.691 116.322 418.691 114.813C418.691 113.319 420.376 112.47 423.188 112.47ZM423.188 113.363C421.094 113.378 419.849 113.905 419.863 114.813C419.849 115.736 421.094 116.249 423.188 116.249C425.254 116.249 426.514 115.736 426.514 114.813C426.514 113.905 425.254 113.378 423.188 113.363ZM434.482 105.116C436.533 105.116 437.983 106.361 437.983 108.178C437.983 109.994 436.533 111.239 434.482 111.239C432.432 111.239 430.952 109.994 430.967 108.178C430.952 106.361 432.432 105.116 434.482 105.116ZM434.482 106.127C433.091 106.127 432.08 106.962 432.095 108.178C432.08 109.394 433.091 110.229 434.482 110.229C435.859 110.229 436.855 109.394 436.855 108.178C436.855 106.962 435.859 106.127 434.482 106.127ZM440.898 104.164V117.216H439.756V104.164H440.898ZM430.293 113.363C432.695 113.363 436.006 113.349 438.892 112.924L438.979 113.773C436.006 114.33 432.798 114.345 430.454 114.345L430.293 113.363ZM452.837 112.396C455.635 112.396 457.407 113.275 457.407 114.784C457.407 116.278 455.635 117.157 452.837 117.157C450.054 117.157 448.281 116.278 448.281 114.784C448.281 113.275 450.054 112.396 452.837 112.396ZM452.837 113.275C450.757 113.29 449.409 113.861 449.424 114.784C449.409 115.692 450.757 116.249 452.837 116.249C454.917 116.249 456.25 115.692 456.265 114.784C456.25 113.861 454.917 113.29 452.837 113.275ZM457.305 104.838V105.937C457.305 106.991 457.305 108.046 456.938 109.394L455.811 109.262C456.162 107.914 456.162 106.962 456.162 105.937V105.775H448.369V104.838H457.305ZM458.813 110.243V111.181H446.963V110.243H451.87V107.724H452.998V110.243H458.813ZM462.607 111.62V113.349H469.126V111.62H470.269V117.011H461.465V111.62H462.607ZM462.607 116.073H469.126V114.257H462.607V116.073ZM470.269 104.765V105.717C470.269 106.713 470.269 107.87 469.917 109.496H471.836V110.448H459.912V109.496H468.789C469.126 107.877 469.126 106.713 469.126 105.717H461.421V104.765H470.269ZM484.038 104.164V117.187H482.925V104.164H484.038ZM481.416 104.442V116.527H480.317V110.199H478.647C478.523 112.733 477.446 114.315 475.835 114.315C474.136 114.315 473.037 112.558 473.037 109.789C473.037 107.021 474.136 105.263 475.835 105.263C477.417 105.263 478.486 106.793 478.633 109.247H480.317V104.442H481.416ZM475.835 106.347C474.78 106.347 474.106 107.665 474.121 109.789C474.106 111.898 474.78 113.231 475.835 113.217C476.89 113.231 477.563 111.898 477.563 109.789C477.563 107.665 476.89 106.347 475.835 106.347ZM379.939 128.175V128.863C379.924 129.713 379.924 131.017 379.602 132.716L378.445 132.628C378.76 131.068 378.789 129.962 378.811 129.142H373.45V128.175H379.939ZM376.584 131.061V133.858C378.027 133.8 379.521 133.697 380.876 133.507L380.95 134.356C378.225 134.825 375.076 134.884 372.761 134.884L372.644 133.932C373.486 133.924 374.438 133.917 375.442 133.888V131.061H376.584ZM382.927 127.164V131.412H384.832V132.394H382.927V136.964H381.755V127.164H382.927ZM383.352 138.941V139.908H374.651V136.085H375.808V138.941H383.352ZM395.862 127.179V131.471H397.825V132.438H395.862V136.935H394.719V127.179H395.862ZM393.474 128.775V129.713H385.71V128.775H389.021V127.179H390.164V128.775H393.474ZM389.592 130.431C391.453 130.431 392.712 131.383 392.727 132.862C392.712 134.327 391.453 135.265 389.592 135.265C387.717 135.265 386.443 134.327 386.458 132.862C386.443 131.383 387.717 130.431 389.592 130.431ZM389.592 131.339C388.362 131.339 387.542 131.939 387.556 132.862C387.542 133.785 388.362 134.371 389.592 134.356C390.808 134.371 391.628 133.785 391.643 132.862C391.628 131.939 390.808 131.339 389.592 131.339ZM396.462 138.941V139.908H387.717V136.158H388.845V138.941H396.462ZM413.176 127.164V140.187H412.019V127.164H413.176ZM409.324 128.585C409.309 132.335 407.566 135.646 403.201 137.74L402.571 136.803C406.094 135.133 407.888 132.635 408.152 129.522H403.171V128.585H409.324ZM427.283 134.342V135.294H415.359V134.342H420.75V132.965H416.912V129.786H424.587V128.438H416.868V127.501H425.745V130.65H418.054V132.042H426.023V132.965H421.877V134.342H427.283ZM425.818 136.29V140.069H424.661V137.228H416.692V136.29H425.818Z" fill="black"/>
<mask id="path-28-inside-10_308_6265" fill="white">
<path d="M266.667 151H533.333V209H266.667V151Z"/>
</mask>
<path d="M266.667 151H533.333V209H266.667V151Z" fill="white"/>
<path d="M533.333 209V210H534.333V209H533.333ZM532.333 151V209H534.333V151H532.333ZM533.333 208H266.667V210H533.333V208Z" fill="#495057" mask="url(#path-28-inside-10_308_6265)"/>
<path d="M318.774 172.535V173.487H306.851V172.535H312.183V169.342H313.311V172.535H318.774ZM313.34 164.054C313.34 166.236 315.918 168.141 318.188 168.536L317.676 169.488C315.691 169.085 313.596 167.738 312.754 165.855C311.897 167.73 309.817 169.085 307.832 169.488L307.319 168.536C309.59 168.141 312.139 166.236 312.139 164.054V163.058H313.34V164.054ZM330.552 162.164V175.216H329.395V162.164H330.552ZM321.719 163.277V166.72H325.601V163.277H326.729V172.066H320.576V163.277H321.719ZM321.719 171.1H325.601V167.643H321.719V171.1ZM337.188 166.163C337.173 168.258 338.682 170.558 340.571 171.451L339.912 172.359C338.447 171.649 337.209 170.096 336.631 168.331C336.03 170.25 334.719 171.935 333.262 172.682L332.559 171.773C334.434 170.865 336.045 168.39 336.06 166.163V164.464H333.027V163.512H340.117V164.464H337.188V166.163ZM342.856 162.164V167.438H345.039V168.419H342.856V175.187H341.714V162.164H342.856ZM350.005 163.116C352.056 163.116 353.506 164.361 353.506 166.178C353.506 167.994 352.056 169.239 350.005 169.239C347.954 169.239 346.475 167.994 346.489 166.178C346.475 164.361 347.954 163.116 350.005 163.116ZM350.005 164.127C348.613 164.127 347.603 164.962 347.617 166.178C347.603 167.394 348.613 168.229 350.005 168.229C351.382 168.229 352.378 167.394 352.378 166.178C352.378 164.962 351.382 164.127 350.005 164.127ZM356.421 162.164V175.216H355.278V162.164H356.421ZM345.815 171.363C348.218 171.363 351.528 171.349 354.414 170.924L354.502 171.773C351.528 172.33 348.32 172.345 345.977 172.345L345.815 171.363ZM365.195 162.384V163.629H371.641V162.384H372.783V166.661H364.053V162.384H365.195ZM365.195 165.768H371.641V164.508H365.195V165.768ZM374.336 167.745V168.697H368.96V169.972H372.812V172.857H365.078V174.132H373.208V175.04H363.936V172.008H371.685V170.851H363.906V169.972H367.817V168.697H362.471V167.745H374.336ZM382.012 163.351V169.342H375.991V163.351H382.012ZM377.119 164.288V168.419H380.898V164.288H377.119ZM385.615 162.164V166.134H387.578V167.101H385.615V171.715H384.473V162.164H385.615ZM386.216 173.941V174.908H377.471V170.807H378.599V173.941H386.216ZM403.135 168.214V169.151H398.418V163.409H402.974V164.347H399.575V168.214H403.135ZM404.087 172.564V173.517H392.163V172.564H397.51V169.811H398.638V172.564H404.087ZM397.627 163.409V164.361H394.346V168.199C395.444 168.192 396.536 168.104 397.744 167.833L397.847 168.8C396.426 169.122 395.225 169.166 393.921 169.151H393.203V163.409H397.627ZM415.659 166.119V167.042H406.738V162.647H407.881V166.119H415.659ZM417.036 168.814V169.752H405.112V168.814H417.036ZM415.732 173.912V174.864H406.665V171.085H407.808V173.912H415.732ZM433.765 169.063V170.001H428.462V172.55H427.319V170.001H421.841V169.063H433.765ZM432.432 173.941V174.908H423.364V171.349H424.507V173.941H432.432ZM424.58 162.589V164.259H431.025V162.589H432.168V167.789H423.438V162.589H424.58ZM424.58 166.852H431.025V165.138H424.58V166.852ZM438.672 164.815C438.657 166.412 439.58 167.833 441.25 168.463L440.635 169.342C439.419 168.866 438.577 167.95 438.145 166.808C437.683 168.082 436.79 169.151 435.508 169.708L434.878 168.814C436.592 168.067 437.559 166.441 437.559 164.815V164.2H435.127V163.263H441.016V164.2H438.672V164.815ZM445.879 162.179V170.162H444.78V166.603H443.081V169.737H441.968V162.428H443.081V165.65H444.78V162.179H445.879ZM441.572 170.47C444.268 170.47 445.952 171.334 445.952 172.813C445.952 174.293 444.268 175.157 441.572 175.157C438.862 175.157 437.192 174.293 437.207 172.813C437.192 171.334 438.862 170.47 441.572 170.47ZM441.572 171.363C439.58 171.363 438.335 171.905 438.35 172.813C438.335 173.722 439.58 174.249 441.572 174.249C443.55 174.249 444.795 173.722 444.81 172.813C444.795 171.905 443.55 171.363 441.572 171.363ZM462.344 162.164V175.216H461.187V168.36H458.33V167.408H461.187V162.164H462.344ZM456.045 166.412C456.045 168.565 457.51 170.675 459.443 171.539L458.784 172.433C457.305 171.751 456.074 170.331 455.503 168.609C454.932 170.426 453.716 171.949 452.236 172.667L451.577 171.773C453.481 170.88 454.917 168.653 454.917 166.412V165.372H451.929V164.435H454.917V162.413H456.06V164.435H459.004V165.372H456.045V166.412ZM475.264 162.164V175.216H474.121V162.164H475.264ZM471.309 163.38V168.009H466.445V171.085C468.606 171.085 470.532 170.99 472.861 170.616L472.979 171.583C470.576 171.964 468.599 172.052 466.357 172.052H465.273V167.071H470.151V164.332H465.244V163.38H471.309ZM488.638 162.164V175.187H487.524V162.164H488.638ZM486.016 162.442V174.527H484.917V168.199H483.247C483.123 170.733 482.046 172.315 480.435 172.315C478.735 172.315 477.637 170.558 477.637 167.789C477.637 165.021 478.735 163.263 480.435 163.263C482.017 163.263 483.086 164.793 483.232 167.247H484.917V162.442H486.016ZM480.435 164.347C479.38 164.347 478.706 165.665 478.721 167.789C478.706 169.898 479.38 171.231 480.435 171.217C481.489 171.231 482.163 169.898 482.163 167.789C482.163 165.665 481.489 164.347 480.435 164.347ZM379.939 186.175V186.863C379.924 187.713 379.924 189.017 379.602 190.716L378.445 190.628C378.76 189.068 378.789 187.962 378.811 187.142H373.45V186.175H379.939ZM376.584 189.061V191.858C378.027 191.8 379.521 191.697 380.876 191.507L380.95 192.356C378.225 192.825 375.076 192.884 372.761 192.884L372.644 191.932C373.486 191.924 374.438 191.917 375.442 191.888V189.061H376.584ZM382.927 185.164V189.412H384.832V190.394H382.927V194.964H381.755V185.164H382.927ZM383.352 196.941V197.908H374.651V194.085H375.808V196.941H383.352ZM395.862 185.179V189.471H397.825V190.438H395.862V194.935H394.719V185.179H395.862ZM393.474 186.775V187.713H385.71V186.775H389.021V185.179H390.164V186.775H393.474ZM389.592 188.431C391.453 188.431 392.712 189.383 392.727 190.862C392.712 192.327 391.453 193.265 389.592 193.265C387.717 193.265 386.443 192.327 386.458 190.862C386.443 189.383 387.717 188.431 389.592 188.431ZM389.592 189.339C388.362 189.339 387.542 189.939 387.556 190.862C387.542 191.785 388.362 192.371 389.592 192.356C390.808 192.371 391.628 191.785 391.643 190.862C391.628 189.939 390.808 189.339 389.592 189.339ZM396.462 196.941V197.908H387.717V194.158H388.845V196.941H396.462ZM413.176 185.164V198.187H412.019V185.164H413.176ZM409.324 186.585C409.309 190.335 407.566 193.646 403.201 195.74L402.571 194.803C406.094 193.133 407.888 190.635 408.152 187.522H403.171V186.585H409.324ZM427.283 192.342V193.294H415.359V192.342H420.75V190.965H416.912V187.786H424.587V186.438H416.868V185.501H425.745V188.65H418.054V190.042H426.023V190.965H421.877V192.342H427.283ZM425.818 194.29V198.069H424.661V195.228H416.692V194.29H425.818Z" fill="black"/>
<mask id="path-31-inside-11_308_6265" fill="white">
<path d="M266.667 209H533.333V267H266.667V209Z"/>
</mask>
<path d="M266.667 209H533.333V267H266.667V209Z" fill="white"/>
<path d="M533.333 267V268H534.333V267H533.333ZM532.333 209V267H534.333V209H532.333ZM533.333 266H266.667V268H533.333V266Z" fill="#495057" mask="url(#path-31-inside-11_308_6265)"/>
<path d="M376.24 230.638V231.59H364.316V230.638H367.642V227.532H365.4V226.58H367.437V222.332H365.371V221.38H375.098V222.332H373.032V226.58H375.068V227.532H372.827V230.638H376.24ZM368.579 226.58H371.904V222.332H368.579V226.58ZM368.799 230.638H371.685V227.532H368.799V230.638ZM381.909 223.665C381.895 226.038 383.521 228.44 385.439 229.305L384.736 230.213C383.257 229.488 381.975 227.957 381.353 226.097C380.745 228.067 379.463 229.708 377.939 230.477L377.207 229.51C379.141 228.616 380.752 226.141 380.767 223.665V221.292H381.909V223.665ZM388.018 220.164V233.216H386.86V220.164H388.018ZM392.383 231.019L391.24 235.003H390.156L390.962 231.019H392.383ZM405.068 220.984V221.688C405.054 222.508 405.054 223.68 404.717 225.218L403.574 225.115C403.875 223.738 403.911 222.735 403.911 221.951H398.579V220.984H405.068ZM401.714 223.812V226.36C403.164 226.316 404.651 226.214 406.006 226.038L406.079 226.888C403.354 227.327 400.234 227.4 397.891 227.4L397.773 226.434C398.623 226.434 399.575 226.426 400.571 226.404V223.812H401.714ZM408.057 220.164V223.738H409.961V224.705H408.057V228.309H406.885V220.164H408.057ZM403.823 228.47C406.519 228.47 408.159 229.334 408.159 230.784C408.159 232.293 406.519 233.143 403.823 233.143C401.128 233.143 399.487 232.293 399.487 230.784C399.487 229.334 401.128 228.47 403.823 228.47ZM403.823 229.363C401.86 229.363 400.63 229.905 400.645 230.784C400.63 231.707 401.86 232.234 403.823 232.234C405.786 232.234 407.002 231.707 407.002 230.784C407.002 229.905 405.786 229.363 403.823 229.363ZM421.255 221.482V222.786C421.24 224.383 421.24 226.17 420.771 228.792L419.6 228.66C420.098 226.17 420.098 224.339 420.098 222.786V222.435H412.07V221.482H421.255ZM422.676 230.389V231.341H410.811V230.389H415.469V225.73H416.597V230.389H422.676ZM434.937 220.164V233.187H433.823V220.164H434.937ZM432.314 220.442V232.527H431.216V226.199H429.546C429.421 228.733 428.345 230.315 426.733 230.315C425.034 230.315 423.936 228.558 423.936 225.789C423.936 223.021 425.034 221.263 426.733 221.263C428.315 221.263 429.385 222.793 429.531 225.247H431.216V220.442H432.314ZM426.733 222.347C425.679 222.347 425.005 223.665 425.02 225.789C425.005 227.898 425.679 229.231 426.733 229.217C427.788 229.231 428.462 227.898 428.462 225.789C428.462 223.665 427.788 222.347 426.733 222.347ZM379.939 244.175V244.863C379.924 245.713 379.924 247.017 379.602 248.716L378.445 248.628C378.76 247.068 378.789 245.962 378.811 245.142H373.45V244.175H379.939ZM376.584 247.061V249.858C378.027 249.8 379.521 249.697 380.876 249.507L380.95 250.356C378.225 250.825 375.076 250.884 372.761 250.884L372.644 249.932C373.486 249.924 374.438 249.917 375.442 249.888V247.061H376.584ZM382.927 243.164V247.412H384.832V248.394H382.927V252.964H381.755V243.164H382.927ZM383.352 254.941V255.908H374.651V252.085H375.808V254.941H383.352ZM395.862 243.179V247.471H397.825V248.438H395.862V252.935H394.719V243.179H395.862ZM393.474 244.775V245.713H385.71V244.775H389.021V243.179H390.164V244.775H393.474ZM389.592 246.431C391.453 246.431 392.712 247.383 392.727 248.862C392.712 250.327 391.453 251.265 389.592 251.265C387.717 251.265 386.443 250.327 386.458 248.862C386.443 247.383 387.717 246.431 389.592 246.431ZM389.592 247.339C388.362 247.339 387.542 247.939 387.556 248.862C387.542 249.785 388.362 250.371 389.592 250.356C390.808 250.371 391.628 249.785 391.643 248.862C391.628 247.939 390.808 247.339 389.592 247.339ZM396.462 254.941V255.908H387.717V252.158H388.845V254.941H396.462ZM413.176 243.164V256.187H412.019V243.164H413.176ZM409.324 244.585C409.309 248.335 407.566 251.646 403.201 253.74L402.571 252.803C406.094 251.133 407.888 248.635 408.152 245.522H403.171V244.585H409.324ZM427.283 250.342V251.294H415.359V250.342H420.75V248.965H416.912V245.786H424.587V244.438H416.868V243.501H425.745V246.65H418.054V248.042H426.023V248.965H421.877V250.342H427.283ZM425.818 252.29V256.069H424.661V253.228H416.692V252.29H425.818Z" fill="black"/>
<mask id="path-34-inside-12_308_6265" fill="white">
<path d="M266.667 267H533.333V325H266.667V267Z"/>
</mask>
<path d="M266.667 267H533.333V325H266.667V267Z" fill="white"/>
<path d="M533.333 325V326H534.333V325H533.333ZM532.333 267V325H534.333V267H532.333ZM533.333 324H266.667V326H533.333V324Z" fill="#495057" mask="url(#path-34-inside-12_308_6265)"/>
<path d="M356.772 285.078V286.016H344.893V285.078H350.254V283.789H346.475V278.545H355.293V279.482H347.632V280.698H354.941V281.577H347.632V282.866H355.366V283.789H351.396V285.078H356.772ZM350.84 286.997C353.696 286.982 355.308 287.715 355.322 289.077C355.308 290.439 353.696 291.157 350.84 291.157C347.954 291.157 346.343 290.439 346.343 289.077C346.343 287.715 347.954 286.982 350.84 286.997ZM350.84 287.861C348.687 287.861 347.485 288.301 347.5 289.077C347.485 289.868 348.687 290.278 350.84 290.264C352.964 290.278 354.165 289.868 354.165 289.077C354.165 288.301 352.964 287.861 350.84 287.861ZM368.623 278.179V287.729H367.48V278.179H368.623ZM369.033 289.941V290.908H360.215V286.851H361.357V289.941H369.033ZM362.485 280.215C362.471 282.192 363.833 283.979 365.767 284.683L365.166 285.605C363.657 285.027 362.485 283.855 361.914 282.354C361.335 283.95 360.149 285.232 358.633 285.84L358.003 284.946C359.98 284.185 361.313 282.266 361.313 280.215V278.911H362.485V280.215ZM375.2 281.665C375.2 283.965 376.724 286.323 378.569 287.231L377.866 288.154C376.431 287.4 375.229 285.862 374.658 284.053C374.072 285.979 372.842 287.62 371.377 288.403L370.645 287.48C372.549 286.543 374.058 284.038 374.072 281.665V279.292H375.2V281.665ZM380.913 278.164V283.452H383.096V284.448H380.913V291.187H379.771V278.164H380.913ZM394.536 278.164V284.917H393.408V278.164H394.536ZM394.551 285.576V288.696H387.241V290.103H395.02V291.04H386.113V287.803H393.408V286.499H386.084V285.576H394.551ZM388.413 279.541C388.398 281.387 389.805 283.013 391.738 283.643L391.167 284.536C389.644 284.016 388.428 282.925 387.842 281.519C387.256 283.035 386.033 284.229 384.487 284.785L383.887 283.877C385.85 283.188 387.241 281.46 387.241 279.541V278.545H388.413V279.541ZM410.693 278.179V282.119H412.642V283.086H410.693V286.909H409.536V278.179H410.693ZM400.469 285.576C401.509 285.576 402.725 285.576 403.999 285.532V284.58C402.483 284.448 401.509 283.738 401.509 282.661C401.509 281.475 402.725 280.742 404.556 280.742C406.401 280.742 407.603 281.475 407.617 282.661C407.603 283.73 406.65 284.441 405.142 284.58V285.488C406.357 285.43 407.588 285.334 408.73 285.166L408.833 286.001C406.006 286.499 402.886 286.514 400.601 286.514L400.469 285.576ZM410.693 287.554V291.187H409.536V288.477H402.065V287.554H410.693ZM408.335 279.365V280.244H400.791V279.365H403.999V278.062H405.142V279.365H408.335ZM404.556 281.562C403.354 281.548 402.607 281.973 402.607 282.661C402.607 283.335 403.354 283.804 404.556 283.789C405.757 283.804 406.519 283.335 406.519 282.661C406.519 281.973 405.757 281.548 404.556 281.562ZM424.243 278.179V287.7H423.101V278.179H424.243ZM424.653 289.941V290.908H415.835V286.733H416.978V289.941H424.653ZM417.212 279.087C419.16 279.087 420.625 280.405 420.625 282.28C420.625 284.185 419.16 285.488 417.212 285.488C415.264 285.488 413.799 284.185 413.799 282.28C413.799 280.405 415.264 279.087 417.212 279.087ZM417.212 280.098C415.894 280.098 414.912 281.006 414.927 282.28C414.912 283.584 415.894 284.478 417.212 284.478C418.501 284.478 419.497 283.584 419.497 282.28C419.497 281.006 418.501 280.098 417.212 280.098ZM430.864 282.163C430.85 284.258 432.358 286.558 434.248 287.451L433.589 288.359C432.124 287.649 430.886 286.096 430.308 284.331C429.707 286.25 428.396 287.935 426.938 288.682L426.235 287.773C428.11 286.865 429.722 284.39 429.736 282.163V280.464H426.704V279.512H433.794V280.464H430.864V282.163ZM436.533 278.164V283.438H438.716V284.419H436.533V291.187H435.391V278.164H436.533ZM451.343 288.608V289.575H439.419V288.608H442.773V286.133H440.913V282.119H448.706V280.083H440.884V279.131H449.834V283.071H442.056V285.181H450.142V286.133H448.105V288.608H451.343ZM443.901 288.608H446.978V286.133H443.901V288.608ZM398.33 301.164V314.187H397.173V301.164H398.33ZM394.478 302.585C394.463 306.335 392.72 309.646 388.354 311.74L387.725 310.803C391.248 309.133 393.042 306.635 393.306 303.522H388.325V302.585H394.478ZM412.437 308.342V309.294H400.513V308.342H405.903V306.965H402.065V303.786H409.741V302.438H402.021V301.501H410.898V304.65H403.208V306.042H411.177V306.965H407.031V308.342H412.437ZM410.972 310.29V314.069H409.814V311.228H401.846V310.29H410.972Z" fill="black"/>
<mask id="path-37-inside-13_308_6265" fill="white">
<path d="M266.667 325H533.333V383H266.667V325Z"/>
</mask>
<path d="M266.667 325H533.333V383H266.667V325Z" fill="white"/>
<path d="M533.333 383V384H534.333V383H533.333ZM532.333 325V383H534.333V325H532.333ZM533.333 382H266.667V384H533.333V382Z" fill="#495057" mask="url(#path-37-inside-13_308_6265)"/>
<path d="M362.185 336.179V345.729H361.028V340.734H358.347V339.782H361.028V336.179H362.185ZM362.551 347.941V348.908H353.821V344.865H354.978V347.941H362.551ZM355.916 338.859C355.916 340.544 357.219 342.185 359.124 342.829L358.523 343.752C357.051 343.225 355.916 342.126 355.359 340.778C354.795 342.28 353.594 343.481 352.048 344.06L351.448 343.122C353.367 342.448 354.758 340.734 354.758 338.859V338.186H351.814V337.233H358.831V338.186H355.916V338.859ZM368.762 340.163C368.748 342.258 370.256 344.558 372.146 345.451L371.487 346.359C370.022 345.649 368.784 344.096 368.206 342.331C367.605 344.25 366.294 345.935 364.836 346.682L364.133 345.773C366.008 344.865 367.62 342.39 367.634 340.163V338.464H364.602V337.512H371.692V338.464H368.762V340.163ZM374.431 336.164V341.438H376.614V342.419H374.431V349.187H373.289V336.164H374.431ZM387.673 336.867V337.834C387.673 338.845 387.673 340.031 387.336 341.657H389.241V342.609H377.317V341.657H386.179C386.531 340.024 386.531 338.845 386.531 337.834V337.819H378.826V336.867H387.673ZM387.732 344.411V349.011H378.782V344.411H387.732ZM379.924 345.319V348.073H386.589V345.319H379.924ZM402.146 342.272V343.21H399.187V345.012C400.154 345.4 400.688 346.022 400.696 346.857C400.681 348.337 399.011 349.172 396.213 349.187C393.386 349.172 391.716 348.337 391.716 346.857C391.716 346.008 392.273 345.371 393.284 344.982V343.21H390.281V342.272H402.146ZM396.213 344.558C396.887 344.558 397.495 344.602 398.03 344.689V343.21H394.441V344.689C394.968 344.602 395.562 344.558 396.213 344.558ZM396.213 345.437C394.119 345.451 392.874 345.964 392.888 346.857C392.874 347.766 394.119 348.264 396.213 348.264C398.279 348.264 399.539 347.766 399.539 346.857C399.539 345.964 398.279 345.451 396.213 345.437ZM396.213 336.428C399.041 336.428 400.813 337.336 400.813 338.874C400.813 340.397 399.041 341.291 396.213 341.291C393.357 341.291 391.599 340.397 391.599 338.874C391.599 337.336 393.357 336.428 396.213 336.428ZM396.213 337.351C394.104 337.351 392.771 337.907 392.786 338.874C392.771 339.826 394.104 340.383 396.213 340.383C398.293 340.383 399.641 339.826 399.641 338.874C399.641 337.907 398.293 337.351 396.213 337.351ZM417.791 336.164V349.187H416.648V342.36H413.542V341.408H416.648V336.164H417.791ZM413.572 337.585C413.572 341.276 412.004 344.558 407.654 346.711L407.024 345.788C410.554 344.082 412.188 341.577 412.415 338.522H407.595V337.585H413.572ZM425.291 337.585V342.141H421.526V345.1C423.02 345.092 424.434 345.026 426.125 344.748L426.228 345.686C424.382 346.008 422.903 346.066 421.262 346.066H420.413V341.188H424.177V338.552H420.383V337.585H425.291ZM431.106 336.164V349.187H430.007V342.272H428.088V348.513H427.034V336.457H428.088V341.32H430.007V336.164H431.106ZM444.099 336.164V349.187H442.986V336.164H444.099ZM441.477 336.442V348.527H440.378V342.199H438.708C438.584 344.733 437.507 346.315 435.896 346.315C434.197 346.315 433.098 344.558 433.098 341.789C433.098 339.021 434.197 337.263 435.896 337.263C437.478 337.263 438.547 338.793 438.694 341.247H440.378V336.442H441.477ZM435.896 338.347C434.841 338.347 434.167 339.665 434.182 341.789C434.167 343.898 434.841 345.231 435.896 345.217C436.951 345.231 437.625 343.898 437.625 341.789C437.625 339.665 436.951 338.347 435.896 338.347ZM379.939 360.175V360.863C379.924 361.713 379.924 363.017 379.602 364.716L378.445 364.628C378.76 363.068 378.789 361.962 378.811 361.142H373.45V360.175H379.939ZM376.584 363.061V365.858C378.027 365.8 379.521 365.697 380.876 365.507L380.95 366.356C378.225 366.825 375.076 366.884 372.761 366.884L372.644 365.932C373.486 365.924 374.438 365.917 375.442 365.888V363.061H376.584ZM382.927 359.164V363.412H384.832V364.394H382.927V368.964H381.755V359.164H382.927ZM383.352 370.941V371.908H374.651V368.085H375.808V370.941H383.352ZM395.862 359.179V363.471H397.825V364.438H395.862V368.935H394.719V359.179H395.862ZM393.474 360.775V361.713H385.71V360.775H389.021V359.179H390.164V360.775H393.474ZM389.592 362.431C391.453 362.431 392.712 363.383 392.727 364.862C392.712 366.327 391.453 367.265 389.592 367.265C387.717 367.265 386.443 366.327 386.458 364.862C386.443 363.383 387.717 362.431 389.592 362.431ZM389.592 363.339C388.362 363.339 387.542 363.939 387.556 364.862C387.542 365.785 388.362 366.371 389.592 366.356C390.808 366.371 391.628 365.785 391.643 364.862C391.628 363.939 390.808 363.339 389.592 363.339ZM396.462 370.941V371.908H387.717V368.158H388.845V370.941H396.462ZM413.176 359.164V372.187H412.019V359.164H413.176ZM409.324 360.585C409.309 364.335 407.566 367.646 403.201 369.74L402.571 368.803C406.094 367.133 407.888 364.635 408.152 361.522H403.171V360.585H409.324ZM427.283 366.342V367.294H415.359V366.342H420.75V364.965H416.912V361.786H424.587V360.438H416.868V359.501H425.745V362.65H418.054V364.042H426.023V364.965H421.877V366.342H427.283ZM425.818 368.29V372.069H424.661V369.228H416.692V368.29H425.818Z" fill="black"/>
<mask id="path-40-inside-14_308_6265" fill="white">
<path d="M266.667 383H533.333V441H266.667V383Z"/>
</mask>
<path d="M266.667 383H533.333V441H266.667V383Z" fill="white"/>
<path d="M533.333 441V442H534.333V441H533.333ZM532.333 383V441H534.333V383H532.333ZM533.333 440H266.667V442H533.333V440Z" fill="#495057" mask="url(#path-40-inside-14_308_6265)"/>
<path d="M320.964 397.87C320.964 399.936 321.975 402.177 323.704 403.202L323.044 404.096C321.792 403.334 320.891 401.942 320.437 400.36C319.954 402.089 318.987 403.576 317.683 404.374L316.951 403.51C318.752 402.455 319.851 400.141 319.851 397.914V395.395H320.964V397.87ZM328.259 394.164V407.187H327.146V394.164H328.259ZM325.564 394.442V406.527H324.48V399.818H322.268V398.837H324.48V394.442H325.564ZM331.863 394.838V396.859H335.496V394.838H336.624V397.372H339.7V394.164H340.857V401.283H339.7V398.339H336.624V400.8H330.72V394.838H331.863ZM331.863 399.862H335.496V397.768H331.863V399.862ZM333.621 401.913V403.51H339.7V401.913H340.842V407.011H332.463V401.913H333.621ZM333.621 406.059H339.7V404.433H333.621V406.059ZM353.762 394.164V407.216H352.605V394.164H353.762ZM346.833 395.175C348.767 395.189 350.159 396.947 350.159 399.716C350.159 402.484 348.767 404.242 346.833 404.242C344.885 404.242 343.508 402.484 343.508 399.716C343.508 396.947 344.885 395.189 346.833 395.175ZM346.833 396.2C345.53 396.215 344.622 397.592 344.622 399.716C344.622 401.84 345.53 403.217 346.833 403.217C348.137 403.217 349.045 401.84 349.045 399.716C349.045 397.592 348.137 396.215 346.833 396.2ZM369.978 395.014V396.01C369.978 397.182 369.978 398.632 369.612 400.697H371.619V401.649H368.484V407.187H367.341V401.649H364.001V407.187H362.859V401.649H359.753V400.697H368.44C368.865 398.646 368.865 397.174 368.865 396.01V395.966H361.277V395.014H369.978ZM383.513 394.164V401.928H382.356V398.515H379.734V397.562H382.356V394.164H383.513ZM379.192 402.338C381.902 402.338 383.557 403.217 383.557 404.755C383.557 406.293 381.902 407.172 379.192 407.187C376.482 407.172 374.827 406.293 374.827 404.755C374.827 403.217 376.482 402.338 379.192 402.338ZM379.192 403.231C377.2 403.231 375.955 403.803 375.969 404.755C375.955 405.692 377.2 406.264 379.192 406.264C381.184 406.264 382.415 405.692 382.415 404.755C382.415 403.803 381.184 403.231 379.192 403.231ZM377.244 396.552C377.244 398.251 378.547 399.862 380.452 400.521L379.851 401.444C378.386 400.917 377.251 399.826 376.702 398.471C376.13 400.001 374.922 401.225 373.376 401.811L372.776 400.888C374.709 400.185 376.086 398.427 376.086 396.566V396.083H373.142V395.116H380.159V396.083H377.244V396.552ZM395.759 394.164V399.54H397.942V400.492H395.759V407.187H394.617V394.164H395.759ZM393.357 396.259V397.211H385.608V396.259H388.962V394.325H390.105V396.259H393.357ZM389.548 398.295C391.394 398.295 392.727 399.525 392.742 401.283C392.727 403.041 391.394 404.271 389.548 404.271C387.688 404.271 386.34 403.041 386.355 401.283C386.34 399.525 387.688 398.295 389.548 398.295ZM389.548 399.262C388.333 399.262 387.439 400.111 387.454 401.283C387.439 402.47 388.333 403.305 389.548 403.29C390.75 403.305 391.628 402.47 391.643 401.283C391.628 400.111 390.75 399.262 389.548 399.262ZM409.177 398.119V399.042H400.256V394.647H401.399V398.119H409.177ZM410.554 400.814V401.752H398.63V400.814H410.554ZM409.25 405.912V406.864H400.183V403.085H401.326V405.912H409.25ZM427.297 404.55V405.517H415.374V404.55H420.735V401.371H416.78V395.263H425.818V401.371H421.863V404.55H427.297ZM417.908 396.186V400.448H424.705V396.186H417.908ZM440.217 400.741V401.679H428.337V400.741H440.217ZM438.855 398.354V399.306H429.846V394.735H438.738V395.673H430.989V398.354H438.855ZM438.958 405.927V406.894H429.875V403.085H431.018V405.927H438.958ZM455.847 394.164V407.187H454.705V400.36H451.599V399.408H454.705V394.164H455.847ZM451.628 395.585C451.628 399.276 450.061 402.558 445.71 404.711L445.081 403.788C448.611 402.082 450.244 399.577 450.471 396.522H445.652V395.585H451.628ZM463.347 395.585V400.141H459.583V403.1C461.077 403.092 462.49 403.026 464.182 402.748L464.285 403.686C462.439 404.008 460.959 404.066 459.319 404.066H458.469V399.188H462.234V396.552H458.44V395.585H463.347ZM469.163 394.164V407.187H468.064V400.272H466.145V406.513H465.09V394.457H466.145V399.32H468.064V394.164H469.163ZM482.156 394.164V407.187H481.042V394.164H482.156ZM479.534 394.442V406.527H478.435V400.199H476.765C476.641 402.733 475.564 404.315 473.953 404.315C472.253 404.315 471.155 402.558 471.155 399.789C471.155 397.021 472.253 395.263 473.953 395.263C475.535 395.263 476.604 396.793 476.75 399.247H478.435V394.442H479.534ZM473.953 396.347C472.898 396.347 472.224 397.665 472.239 399.789C472.224 401.898 472.898 403.231 473.953 403.217C475.007 403.231 475.681 401.898 475.681 399.789C475.681 397.665 475.007 396.347 473.953 396.347ZM343.765 418.175V418.863C343.75 419.713 343.75 421.017 343.428 422.716L342.271 422.628C342.585 421.068 342.615 419.962 342.637 419.142H337.275V418.175H343.765ZM340.41 421.061V423.858C341.853 423.8 343.347 423.697 344.702 423.507L344.775 424.356C342.051 424.825 338.901 424.884 336.587 424.884L336.47 423.932C337.312 423.924 338.264 423.917 339.268 423.888V421.061H340.41ZM346.753 417.164V421.412H348.657V422.394H346.753V426.964H345.581V417.164H346.753ZM347.178 428.941V429.908H338.477V426.085H339.634V428.941H347.178ZM359.688 417.179V421.471H361.65V422.438H359.688V426.935H358.545V417.179H359.688ZM357.3 418.775V419.713H349.536V418.775H352.847V417.179H353.989V418.775H357.3ZM353.418 420.431C355.278 420.431 356.538 421.383 356.553 422.862C356.538 424.327 355.278 425.265 353.418 425.265C351.543 425.265 350.269 424.327 350.283 422.862C350.269 421.383 351.543 420.431 353.418 420.431ZM353.418 421.339C352.188 421.339 351.367 421.939 351.382 422.862C351.367 423.785 352.188 424.371 353.418 424.356C354.634 424.371 355.454 423.785 355.469 422.862C355.454 421.939 354.634 421.339 353.418 421.339ZM360.288 428.941V429.908H351.543V426.158H352.671V428.941H360.288ZM370.645 419.64C370.645 421.339 371.919 422.862 373.838 423.492L373.296 424.4C371.794 423.91 370.659 422.87 370.103 421.559C369.539 423.053 368.337 424.217 366.777 424.781L366.191 423.858C368.14 423.199 369.502 421.515 369.517 419.64V419.083H366.543V418.131H373.574V419.083H370.645V419.64ZM376.416 417.164V420.489H378.379V421.456H376.416V425.03H375.273V417.164H376.416ZM372.241 425.382C374.922 425.382 376.533 426.261 376.533 427.755C376.533 429.278 374.922 430.157 372.241 430.157C369.561 430.157 367.92 429.278 367.92 427.755C367.92 426.261 369.561 425.382 372.241 425.382ZM372.241 426.305C370.278 426.305 369.062 426.847 369.077 427.755C369.062 428.692 370.278 429.234 372.241 429.234C374.219 429.234 375.42 428.692 375.42 427.755C375.42 426.847 374.219 426.305 372.241 426.305ZM391.108 424.898V425.836H385.674V430.187H384.546V425.836H379.185V424.898H391.108ZM381.851 417.706V419.508H388.413V417.706H389.57V423.316H380.708V417.706H381.851ZM381.851 422.379H388.413V420.445H381.851V422.379ZM402.725 418.014V423.316H396.616V418.014H402.725ZM397.744 418.951V422.408H401.597V418.951H397.744ZM406.665 417.164V424.649H405.537V417.164H406.665ZM403.135 426.437C403.135 427.711 405.215 428.971 407.456 429.249L407.061 430.143C405.098 429.879 403.311 428.956 402.549 427.74C401.758 428.978 399.927 429.879 397.964 430.143L397.554 429.249C399.795 429 401.948 427.74 401.948 426.437H398.096V425.543H401.963V424.269H403.105V425.543H407.002V426.437H403.135ZM424.521 423.36V424.312H412.656V423.36H424.521ZM418.589 425.455C421.387 425.455 423.057 426.319 423.071 427.813C423.057 429.322 421.387 430.157 418.589 430.157C415.776 430.157 414.092 429.322 414.092 427.813C414.092 426.319 415.776 425.455 418.589 425.455ZM418.589 426.363C416.494 426.378 415.249 426.891 415.264 427.813C415.249 428.722 416.494 429.234 418.589 429.234C420.654 429.234 421.914 428.722 421.914 427.813C421.914 426.891 420.654 426.378 418.589 426.363ZM423.467 417.838V418.79H419.336C419.38 420.27 421.548 421.397 423.862 421.661L423.438 422.584C421.306 422.313 419.307 421.361 418.589 419.903C417.878 421.361 415.886 422.313 413.74 422.584L413.33 421.661C415.601 421.397 417.783 420.27 417.842 418.79H413.74V417.838H423.467ZM427.451 417.984V420.006H431.289V417.984H432.432V424.02H426.309V417.984H427.451ZM427.451 423.067H431.289V420.914H427.451V423.067ZM436.372 417.179V425.074H435.229V417.179H436.372ZM432.021 425.309C434.746 425.323 436.401 426.202 436.416 427.755C436.401 429.278 434.746 430.157 432.021 430.157C429.282 430.157 427.627 429.278 427.627 427.755C427.627 426.202 429.282 425.323 432.021 425.309ZM432.021 426.217C429.985 426.217 428.784 426.788 428.784 427.755C428.784 428.678 429.985 429.249 432.021 429.249C434.043 429.249 435.273 428.678 435.273 427.755C435.273 426.788 434.043 426.217 432.021 426.217ZM443.169 420.665C443.169 423.023 444.678 425.396 446.567 426.261L445.879 427.198C444.399 426.437 443.176 424.876 442.598 423.023C442.019 424.972 440.796 426.642 439.316 427.433L438.569 426.51C440.474 425.572 441.997 423.067 441.997 420.665V418.292H443.169V420.665ZM449.38 417.164V430.216H448.237V422.555H445.146V421.617H448.237V417.164H449.38ZM463.457 424.942V425.865H460.322V430.187H459.18V425.865H455.811V430.187H454.653V425.865H451.533V424.942H463.457ZM462.007 417.677V421.017H454.155V422.643H462.285V423.595H452.998V420.123H460.835V418.629H452.969V417.677H462.007Z" fill="black"/>
<mask id="path-43-inside-15_308_6265" fill="white">
<path d="M266.667 441H533.333V499H266.667V441Z"/>
</mask>
<path d="M266.667 441H533.333V499H266.667V441Z" fill="white"/>
<path d="M533.333 499V500H534.333V499H533.333ZM532.333 441V499H534.333V441H532.333ZM533.333 498H266.667V500H533.333V498Z" fill="#495057" mask="url(#path-43-inside-15_308_6265)"/>
<path d="M368.315 464.982V466.286C368.301 467.883 368.301 469.67 367.832 472.292L366.66 472.16C367.158 469.67 367.158 467.839 367.158 466.286V465.935H359.131V464.982H368.315ZM369.736 473.889V474.841H357.871V473.889H362.529V469.23H363.657V473.889H369.736ZM381.895 463.679V471.354H380.796V467.912H379.023V471.267H377.925V463.928H379.023V466.96H380.796V463.679H381.895ZM381.895 471.955V476.687H380.767V472.893H373.105V471.955H381.895ZM376.548 464.631C376.548 467.736 374.79 470.095 371.479 471.501L370.908 470.637C373.611 469.531 375.142 467.773 375.361 465.583H371.436V464.631H376.548ZM397.729 463.679V467.619H399.678V468.586H397.729V472.409H396.572V463.679H397.729ZM387.505 471.076C388.545 471.076 389.761 471.076 391.035 471.032V470.08C389.519 469.948 388.545 469.238 388.545 468.161C388.545 466.975 389.761 466.242 391.592 466.242C393.438 466.242 394.639 466.975 394.653 468.161C394.639 469.23 393.687 469.941 392.178 470.08V470.988C393.394 470.93 394.624 470.834 395.767 470.666L395.869 471.501C393.042 471.999 389.922 472.014 387.637 472.014L387.505 471.076ZM397.729 473.054V476.687H396.572V473.977H389.102V473.054H397.729ZM395.371 464.865V465.744H387.827V464.865H391.035V463.562H392.178V464.865H395.371ZM391.592 467.062C390.391 467.048 389.644 467.473 389.644 468.161C389.644 468.835 390.391 469.304 391.592 469.289C392.793 469.304 393.555 468.835 393.555 468.161C393.555 467.473 392.793 467.048 391.592 467.062ZM411.279 463.679V473.2H410.137V463.679H411.279ZM411.689 475.441V476.408H402.871V472.233H404.014V475.441H411.689ZM404.248 464.587C406.196 464.587 407.661 465.905 407.661 467.78C407.661 469.685 406.196 470.988 404.248 470.988C402.3 470.988 400.835 469.685 400.835 467.78C400.835 465.905 402.3 464.587 404.248 464.587ZM404.248 465.598C402.93 465.598 401.948 466.506 401.963 467.78C401.948 469.084 402.93 469.978 404.248 469.978C405.537 469.978 406.533 469.084 406.533 467.78C406.533 466.506 405.537 465.598 404.248 465.598ZM428.052 463.664V471.428H426.895V468.015H424.272V467.062H426.895V463.664H428.052ZM423.73 471.838C426.44 471.838 428.096 472.717 428.096 474.255C428.096 475.793 426.44 476.672 423.73 476.687C421.021 476.672 419.365 475.793 419.365 474.255C419.365 472.717 421.021 471.838 423.73 471.838ZM423.73 472.731C421.738 472.731 420.493 473.303 420.508 474.255C420.493 475.192 421.738 475.764 423.73 475.764C425.723 475.764 426.953 475.192 426.953 474.255C426.953 473.303 425.723 472.731 423.73 472.731ZM421.782 466.052C421.782 467.751 423.086 469.362 424.99 470.021L424.39 470.944C422.925 470.417 421.79 469.326 421.24 467.971C420.669 469.501 419.46 470.725 417.915 471.311L417.314 470.388C419.248 469.685 420.625 467.927 420.625 466.066V465.583H417.681V464.616H424.697V465.583H421.782V466.052ZM442.144 474.064V475.017H430.22V474.064H435.581V471.252H431.626V464.587H432.783V466.945H439.551V464.587H440.679V471.252H436.709V474.064H442.144ZM432.783 470.314H439.551V467.883H432.783V470.314Z" fill="black"/>
<mask id="path-46-inside-16_308_6265" fill="white">
<path d="M533.333 0H800V35H533.333V0Z"/>
</mask>
<path d="M533.333 0H800V35H533.333V0Z" fill="black"/>
<path d="M799 0V35H801V0H799Z" fill="white" mask="url(#path-46-inside-16_308_6265)"/>
<path d="M651.499 21.374V22.707H639.399V21.374H644.614V18.7959H640.732V11.9404H642.358V14.1084H648.496V11.9404H650.122V18.7959H646.225V21.374H651.499ZM642.358 17.4775H648.496V15.4121H642.358V17.4775ZM664.448 18.4883V19.8066H661.503V24.3037H659.848V19.8066H656.918V24.3037H655.249V19.8066H652.348V18.4883H664.448ZM658.369 11.5303C661.181 11.5449 663.144 12.6875 663.144 14.4893C663.144 16.2617 661.181 17.3896 658.369 17.3896C655.542 17.3896 653.608 16.2617 653.623 14.4893C653.608 12.6875 655.542 11.5449 658.369 11.5303ZM658.369 12.8486C656.494 12.8486 655.278 13.4492 655.292 14.4893C655.278 15.5 656.494 16.1006 658.369 16.1006C660.244 16.1006 661.459 15.5 661.459 14.4893C661.459 13.4492 660.244 12.8486 658.369 12.8486ZM679.946 11.0615V24.3037H678.305V11.0615H679.946ZM675.991 12.4678C675.991 16.4082 674.467 19.7627 669.824 21.96L668.974 20.6562C672.438 19.0083 674.05 16.7671 674.335 13.7568H669.648V12.4678H675.991ZM692.294 11.0615V14.8701H694.14V16.2324H692.294V20.6123H690.639V11.0615H692.294ZM688.691 12.0723C688.691 15.5879 686.406 18.0928 682.48 19.2354L681.806 17.9463C684.831 17.0747 686.633 15.4268 686.918 13.4053H682.363V12.0723H688.691ZM692.792 22.7217V24.04H683.784V19.6309H685.439V22.7217H692.792Z" fill="white"/>
<mask id="path-49-inside-17_308_6265" fill="white">
<path d="M533.333 35H800V93H533.333V35Z"/>
</mask>
<path d="M533.333 35H800V93H533.333V35Z" fill="white"/>
<path d="M800 92H533.333V94H800V92Z" fill="#495057" mask="url(#path-49-inside-17_308_6265)"/>
<path d="M660.163 69.6465C658.244 69.6465 656.794 68.46 656.721 66.834H657.995C658.098 67.7861 659.021 68.4893 660.163 68.4893C661.54 68.4893 662.536 67.4785 662.536 66.1455C662.536 64.7686 661.496 63.7578 660.075 63.7432C659.182 63.7285 658.493 64.0068 658.098 64.6953H656.823L657.57 58.8945H663.312V60.0664H658.669L658.273 63.1719H658.376C658.845 62.8057 659.562 62.5566 660.31 62.5566C662.331 62.5566 663.825 64.0508 663.825 66.1162C663.825 68.167 662.272 69.6465 660.163 69.6465ZM675.983 57.6787V67.3174H674.826V62.8057H671.076V61.8828H674.826V60.3154H671.076V59.3926H674.826V57.6787H675.983ZM676.335 69.4414V70.4082H667.59V66.4971H668.747V69.4414H676.335ZM667.121 58.6162V64.4023C668.916 64.395 670.644 64.2998 672.629 63.9336L672.746 64.8857C670.622 65.2812 668.85 65.3691 666.945 65.3838H665.964V58.6162H667.121Z" fill="black"/>
<mask id="path-52-inside-18_308_6265" fill="white">
<path d="M533.333 93H800V151H533.333V93Z"/>
</mask>
<path d="M533.333 93H800V151H533.333V93Z" fill="white"/>
<path d="M800 150H533.333V152H800V150Z" fill="#495057" mask="url(#path-52-inside-18_308_6265)"/>
<path d="M660.163 127.646C658.244 127.646 656.794 126.46 656.721 124.834H657.995C658.098 125.786 659.021 126.489 660.163 126.489C661.54 126.489 662.536 125.479 662.536 124.146C662.536 122.769 661.496 121.758 660.075 121.743C659.182 121.729 658.493 122.007 658.098 122.695H656.823L657.57 116.895H663.312V118.066H658.669L658.273 121.172H658.376C658.845 120.806 659.562 120.557 660.31 120.557C662.331 120.557 663.825 122.051 663.825 124.116C663.825 126.167 662.272 127.646 660.163 127.646ZM675.983 115.679V125.317H674.826V120.806H671.076V119.883H674.826V118.315H671.076V117.393H674.826V115.679H675.983ZM676.335 127.441V128.408H667.59V124.497H668.747V127.441H676.335ZM667.121 116.616V122.402C668.916 122.395 670.644 122.3 672.629 121.934L672.746 122.886C670.622 123.281 668.85 123.369 666.945 123.384H665.964V116.616H667.121Z" fill="black"/>
<mask id="path-55-inside-19_308_6265" fill="white">
<path d="M533.333 151H800V209H533.333V151Z"/>
</mask>
<path d="M533.333 151H800V209H533.333V151Z" fill="white"/>
<path d="M800 208H533.333V210H800V208Z" fill="#495057" mask="url(#path-55-inside-19_308_6265)"/>
<path d="M660.214 185.646C658.105 185.646 656.596 184.519 656.523 182.834H657.856C657.929 183.845 658.94 184.475 660.2 184.475C661.591 184.475 662.617 183.713 662.617 182.614C662.617 181.457 661.694 180.637 660.039 180.637H659.174V179.479H660.039C661.328 179.479 662.221 178.762 662.221 177.663C662.221 176.608 661.445 175.891 660.244 175.891C659.116 175.891 658.076 176.521 658.017 177.561H656.743C656.816 175.876 658.369 174.748 660.258 174.748C662.28 174.748 663.51 176.066 663.496 177.59C663.51 178.791 662.807 179.685 661.694 179.992V180.065C663.071 180.285 663.92 181.267 663.906 182.614C663.92 184.357 662.324 185.646 660.214 185.646ZM676.137 173.679V183.317H674.98V178.806H671.23V177.883H674.98V176.315H671.23V175.393H674.98V173.679H676.137ZM676.489 185.441V186.408H667.744V182.497H668.901V185.441H676.489ZM667.275 174.616V180.402C669.069 180.395 670.798 180.3 672.783 179.934L672.9 180.886C670.776 181.281 669.003 181.369 667.099 181.384H666.118V174.616H667.275Z" fill="black"/>
<mask id="path-58-inside-20_308_6265" fill="white">
<path d="M533.333 209H800V267H533.333V209Z"/>
</mask>
<path d="M533.333 209H800V267H533.333V209Z" fill="white"/>
<path d="M800 266H533.333V268H800V266Z" fill="#495057" mask="url(#path-58-inside-20_308_6265)"/>
<path d="M653.791 243.646C651.945 243.617 649.924 242.533 649.924 238.607C649.924 234.857 651.462 232.748 653.952 232.748C655.812 232.748 657.116 233.891 657.395 235.561H656.091C655.842 234.623 655.139 233.92 653.952 233.92C652.209 233.92 651.169 235.414 651.169 237.963H651.301C651.916 237.084 652.883 236.557 654.025 236.557C655.915 236.557 657.482 238.021 657.482 240.072C657.482 242.064 656.018 243.661 653.791 243.646ZM653.791 242.489C655.168 242.489 656.193 241.405 656.208 240.087C656.193 238.783 655.212 237.714 653.82 237.714C652.429 237.714 651.359 238.842 651.345 240.102C651.345 241.347 652.37 242.489 653.791 242.489ZM669.948 231.664V244.687H668.82V237.875H667.019V244.042H665.92V232.016H667.019V236.923H668.82V231.664H669.948ZM664.44 233.363C664.426 236.674 663.269 239.809 659.519 241.889L658.845 241.083C661.87 239.398 663.122 237.011 663.312 234.315H659.343V233.363H664.44ZM682.531 231.679V239.354H681.374V238.637H678.737V237.875H681.374V231.679H682.531ZM671.75 236.586C674.27 236.601 677.492 236.571 680.305 236.264L680.378 237.011C679.104 237.194 677.778 237.304 676.481 237.362V239.398H675.354V237.406C674.123 237.45 672.944 237.458 671.882 237.45L671.75 236.586ZM682.531 239.823V242.519H674.929V243.69H682.956V244.54H673.801V241.713H681.389V240.658H673.742V239.823H682.531ZM675.998 231.928C677.932 231.928 679.221 232.689 679.235 233.891C679.221 235.106 677.932 235.839 675.998 235.839C674.035 235.839 672.761 235.106 672.761 233.891C672.761 232.689 674.035 231.928 675.998 231.928ZM675.998 232.733C674.68 232.733 673.83 233.188 673.845 233.891C673.83 234.579 674.68 235.048 675.998 235.048C677.302 235.048 678.151 234.579 678.151 233.891C678.151 233.188 677.302 232.733 675.998 232.733Z" fill="black"/>
<mask id="path-61-inside-21_308_6265" fill="white">
<path d="M533.333 267H800V325H533.333V267Z"/>
</mask>
<path d="M533.333 267H800V325H533.333V267Z" fill="white"/>
<path d="M800 324H533.333V326H800V324Z" fill="#495057" mask="url(#path-61-inside-21_308_6265)"/>
<path d="M653.732 301.646C651.623 301.646 650.114 300.519 650.041 298.834H651.374C651.447 299.845 652.458 300.475 653.718 300.475C655.109 300.475 656.135 299.713 656.135 298.614C656.135 297.457 655.212 296.637 653.557 296.637H652.692V295.479H653.557C654.846 295.479 655.739 294.762 655.739 293.663C655.739 292.608 654.963 291.891 653.762 291.891C652.634 291.891 651.594 292.521 651.535 293.561H650.261C650.334 291.876 651.887 290.748 653.776 290.748C655.798 290.748 657.028 292.066 657.014 293.59C657.028 294.791 656.325 295.685 655.212 295.992V296.065C656.589 296.285 657.438 297.267 657.424 298.614C657.438 300.357 655.842 301.646 653.732 301.646ZM669.978 289.664V302.687H668.85V295.875H667.048V302.042H665.949V290.016H667.048V294.923H668.85V289.664H669.978ZM664.47 291.363C664.455 294.674 663.298 297.809 659.548 299.889L658.874 299.083C661.899 297.398 663.151 295.011 663.342 292.315H659.372V291.363H664.47ZM682.561 289.679V297.354H681.403V296.637H678.767V295.875H681.403V289.679H682.561ZM671.779 294.586C674.299 294.601 677.521 294.571 680.334 294.264L680.407 295.011C679.133 295.194 677.807 295.304 676.511 295.362V297.398H675.383V295.406C674.152 295.45 672.973 295.458 671.911 295.45L671.779 294.586ZM682.561 297.823V300.519H674.958V301.69H682.985V302.54H673.83V299.713H681.418V298.658H673.771V297.823H682.561ZM676.027 289.928C677.961 289.928 679.25 290.689 679.265 291.891C679.25 293.106 677.961 293.839 676.027 293.839C674.064 293.839 672.79 293.106 672.79 291.891C672.79 290.689 674.064 289.928 676.027 289.928ZM676.027 290.733C674.709 290.733 673.859 291.188 673.874 291.891C673.859 292.579 674.709 293.048 676.027 293.048C677.331 293.048 678.181 292.579 678.181 291.891C678.181 291.188 677.331 290.733 676.027 290.733Z" fill="black"/>
<mask id="path-64-inside-22_308_6265" fill="white">
<path d="M533.333 325H800V383H533.333V325Z"/>
</mask>
<path d="M533.333 325H800V383H533.333V325Z" fill="white"/>
<path d="M800 382H533.333V384H800V382Z" fill="#495057" mask="url(#path-64-inside-22_308_6265)"/>
<path d="M660.163 359.646C658.244 359.646 656.794 358.46 656.721 356.834H657.995C658.098 357.786 659.021 358.489 660.163 358.489C661.54 358.489 662.536 357.479 662.536 356.146C662.536 354.769 661.496 353.758 660.075 353.743C659.182 353.729 658.493 354.007 658.098 354.695H656.823L657.57 348.895H663.312V350.066H658.669L658.273 353.172H658.376C658.845 352.806 659.562 352.557 660.31 352.557C662.331 352.557 663.825 354.051 663.825 356.116C663.825 358.167 662.272 359.646 660.163 359.646ZM675.983 347.679V357.317H674.826V352.806H671.076V351.883H674.826V350.315H671.076V349.393H674.826V347.679H675.983ZM676.335 359.441V360.408H667.59V356.497H668.747V359.441H676.335ZM667.121 348.616V354.402C668.916 354.395 670.644 354.3 672.629 353.934L672.746 354.886C670.622 355.281 668.85 355.369 666.945 355.384H665.964V348.616H667.121Z" fill="black"/>
<mask id="path-67-inside-23_308_6265" fill="white">
<path d="M533.333 383H800V441H533.333V383Z"/>
</mask>
<path d="M533.333 383H800V441H533.333V383Z" fill="white"/>
<path d="M800 440H533.333V442H800V440Z" fill="#495057" mask="url(#path-67-inside-23_308_6265)"/>
<path d="M660.163 417.646C658.244 417.646 656.794 416.46 656.721 414.834H657.995C658.098 415.786 659.021 416.489 660.163 416.489C661.54 416.489 662.536 415.479 662.536 414.146C662.536 412.769 661.496 411.758 660.075 411.743C659.182 411.729 658.493 412.007 658.098 412.695H656.823L657.57 406.895H663.312V408.066H658.669L658.273 411.172H658.376C658.845 410.806 659.562 410.557 660.31 410.557C662.331 410.557 663.825 412.051 663.825 414.116C663.825 416.167 662.272 417.646 660.163 417.646ZM675.983 405.679V415.317H674.826V410.806H671.076V409.883H674.826V408.315H671.076V407.393H674.826V405.679H675.983ZM676.335 417.441V418.408H667.59V414.497H668.747V417.441H676.335ZM667.121 406.616V412.402C668.916 412.395 670.644 412.3 672.629 411.934L672.746 412.886C670.622 413.281 668.85 413.369 666.945 413.384H665.964V406.616H667.121Z" fill="black"/>
<mask id="path-70-inside-24_308_6265" fill="white">
<path d="M533.333 441H800V499H533.333V441Z"/>
</mask>
<path d="M533.333 441H800V499H533.333V441Z" fill="white"/>
<path d="M800 498H533.333V500H800V498Z" fill="#495057" mask="url(#path-70-inside-24_308_6265)"/>
<path d="M660.163 475.646C658.244 475.646 656.794 474.46 656.721 472.834H657.995C658.098 473.786 659.021 474.489 660.163 474.489C661.54 474.489 662.536 473.479 662.536 472.146C662.536 470.769 661.496 469.758 660.075 469.743C659.182 469.729 658.493 470.007 658.098 470.695H656.823L657.57 464.895H663.312V466.066H658.669L658.273 469.172H658.376C658.845 468.806 659.562 468.557 660.31 468.557C662.331 468.557 663.825 470.051 663.825 472.116C663.825 474.167 662.272 475.646 660.163 475.646ZM675.983 463.679V473.317H674.826V468.806H671.076V467.883H674.826V466.315H671.076V465.393H674.826V463.679H675.983ZM676.335 475.441V476.408H667.59V472.497H668.747V475.441H676.335ZM667.121 464.616V470.402C668.916 470.395 670.644 470.3 672.629 469.934L672.746 470.886C670.622 471.281 668.85 471.369 666.945 471.384H665.964V464.616H667.121Z" fill="black"/>
</svg>
