<svg width="800" height="326" viewBox="0 0 800 326" fill="none" xmlns="http://www.w3.org/2000/svg">
<mask id="path-1-inside-1_308_6396" fill="white">
<path d="M0 0H400V35H0V0Z"/>
</mask>
<path d="M0 0H400V35H0V0Z" fill="black"/>
<path d="M399 0V35H401V0H399Z" fill="white" mask="url(#path-1-inside-1_308_6396)"/>
<path d="M187.893 12.1602C187.893 13.8301 189.753 15.5146 192.581 15.8809L191.936 17.1992C189.688 16.8623 187.9 15.7563 187.043 14.2549C186.172 15.7563 184.392 16.8623 182.166 17.1992L181.521 15.8809C184.319 15.5146 186.179 13.8301 186.179 12.1602V11.4863H187.893V12.1602ZM193.064 18.3418V19.6895H187.805V24.3037H186.194V19.6895H180.994V18.3418H193.064ZM200.696 11.9551V13.2588H196.125V14.5625H200.432V15.8223H196.125V17.1992C198.418 17.1919 199.846 17.1187 201.458 16.8184L201.633 18.1221C199.832 18.4297 198.264 18.4883 195.554 18.4883H194.5V11.9551H200.696ZM204.402 11.0615V14.3867H206.248V15.7637H204.402V19.0742H202.776V11.0615H204.402ZM204.402 19.6602V24.3037H202.776V20.9639H195.583V19.6602H204.402ZM211.667 14.8262C211.667 16.877 212.883 19.2061 214.978 20.1729L214.07 21.4619C212.576 20.7588 211.47 19.3379 210.876 17.6826C210.276 19.499 209.119 21.0518 207.595 21.7842L206.643 20.5098C208.752 19.5137 210.027 17.0234 210.042 14.8262V13.7129H207.156V12.3652H214.436V13.7129H211.667V14.8262ZM217.292 11.0615V16.2178H219.329V17.5801H217.292V24.3037H215.667V11.0615H217.292Z" fill="white"/>
<mask id="path-4-inside-2_308_6396" fill="white">
<path d="M0 35H400V70H0V35Z"/>
</mask>
<path d="M0 35H400V70H0V35Z" fill="white"/>
<path d="M400 70V71H401V70H400ZM399 35V70H401V35H399ZM400 69H0V71H400V69Z" fill="#495057" mask="url(#path-4-inside-2_308_6396)"/>
<path d="M95.9595 53.957C95.9741 51.1885 96.7212 48.8887 98.0688 46.9404H99.1821C98.186 48.3906 97.2632 51.3496 97.2632 53.957C97.2632 56.5645 98.186 59.5381 99.1821 60.9883H98.0688C96.7212 59.0254 95.9741 56.7256 95.9595 53.957ZM106.843 48.0098C106.829 49.7529 109.158 51.2324 111.428 51.5693L111.003 52.4775C108.967 52.1333 106.99 51.0493 106.199 49.4746C105.408 51.0493 103.423 52.1333 101.423 52.4775L100.969 51.5693C103.225 51.2324 105.554 49.7529 105.554 48.0098V47.9219H101.379V46.9844H111.003V47.9219H106.843V48.0098ZM112.131 53.5908V54.543H106.741V59.1865H105.613V54.543H100.266V53.5908H112.131ZM116.482 53.957C116.467 56.7256 115.72 59.0254 114.373 60.9883H113.259C114.255 59.5381 115.178 56.5645 115.178 53.957C115.178 51.3496 114.255 48.3906 113.259 46.9404H114.373C115.72 48.8887 116.467 51.1885 116.482 53.957ZM126.223 50.7051C125.769 49.3428 124.729 48.4785 123.22 48.4785C121.345 48.4785 119.851 49.958 119.851 52.6973C119.851 55.4365 121.345 56.916 123.308 56.916C125.103 56.916 126.326 55.7148 126.355 53.8398H123.586V52.6826H127.644V53.8252C127.644 56.4619 125.828 58.1465 123.308 58.1465C120.481 58.1465 118.577 56.0518 118.577 52.6973C118.577 49.3428 120.496 47.248 123.22 47.248C125.461 47.248 127.19 48.6543 127.585 50.7051H126.223ZM135.408 50.0605C135.291 49.0205 134.338 48.4199 133.064 48.4199C131.658 48.4199 130.735 49.1523 130.735 50.1631C130.735 51.2764 131.98 51.6865 132.786 51.8916L133.84 52.1846C134.983 52.4775 136.843 53.1367 136.843 55.1143C136.843 56.8428 135.452 58.1904 132.991 58.1904C130.706 58.1904 129.285 57.0039 129.167 55.2461H130.515C130.632 56.4326 131.731 56.9893 132.991 56.9893C134.456 56.9893 135.554 56.2422 135.554 55.085C135.554 54.0596 134.573 53.6641 133.459 53.3418L132.156 52.9902C130.486 52.5068 129.46 51.6572 129.46 50.2217C129.46 48.4346 131.057 47.248 133.108 47.248C135.159 47.248 136.638 48.4492 136.697 50.0605H135.408ZM143.816 47.3945V58H142.498V47.3945H143.816ZM145.574 48.5664V47.3945H153.572V48.5664H150.247V58H148.914V48.5664H145.574ZM155.33 47.3945H156.912L160.486 56.125H160.618L164.192 47.3945H165.774V58H164.529V49.9873H164.426L161.13 58H159.958L156.663 49.9873H156.575V58H155.33V47.3945ZM169.612 57.0186L168.469 61.0029H167.385L168.191 57.0186H169.612ZM186.135 46.1641V53.9131H185.037V46.1641H186.135ZM183.601 46.3984V53.7666H182.488V50.3389H180.525V49.3721H182.488V46.3984H183.601ZM186.135 54.5137V59.0107H177.537V54.5137H186.135ZM178.665 55.4365V58.0732H185.007V55.4365H178.665ZM178.928 48.7861C178.928 50.2217 179.88 51.7598 181.536 52.4336L180.935 53.3271C179.712 52.8145 178.855 51.8477 178.401 50.7197C177.947 51.9868 177.039 53.0708 175.75 53.6348L175.134 52.7559C176.833 52.0234 177.815 50.3389 177.815 48.7861V48.083H175.383V47.1162H181.228V48.083H178.928V48.7861ZM193.621 47.1016V48.0391H189.753V49.7383H193.079V50.6611H189.753V52.4922C191.636 52.4849 192.808 52.4189 194.207 52.1406L194.324 53.0928C192.815 53.3857 191.584 53.4297 189.475 53.4297H188.655V47.1016H193.621ZM199.099 54.8359V59.1865H197.971V55.7881H190.266V54.8359H199.099ZM199.099 46.1787V54.2207H198V46.1787H199.099ZM196.565 46.457V54.1328H195.452V50.5586H193.694V49.5918H195.452V46.457H196.565ZM201.809 53.957C201.824 51.1885 202.571 48.8887 203.918 46.9404H205.032C204.036 48.3906 203.113 51.3496 203.113 53.957C203.113 56.5645 204.036 59.5381 205.032 60.9883H203.918C202.571 59.0254 201.824 56.7256 201.809 53.957ZM212.693 48.0098C212.678 49.7529 215.007 51.2324 217.278 51.5693L216.853 52.4775C214.817 52.1333 212.839 51.0493 212.048 49.4746C211.257 51.0493 209.272 52.1333 207.273 52.4775L206.819 51.5693C209.075 51.2324 211.404 49.7529 211.404 48.0098V47.9219H207.229V46.9844H216.853V47.9219H212.693V48.0098ZM217.981 53.5908V54.543H212.59V59.1865H211.462V54.543H206.116V53.5908H217.981ZM222.332 53.957C222.317 56.7256 221.57 59.0254 220.222 60.9883H219.109C220.105 59.5381 221.028 56.5645 221.028 53.957C221.028 51.3496 220.105 48.3906 219.109 46.9404H220.222C221.57 48.8887 222.317 51.1885 222.332 53.957ZM226.331 57.0186L225.188 61.0029H224.104L224.91 57.0186H226.331ZM238.372 48.0098C238.357 49.7529 240.686 51.2324 242.957 51.5693L242.532 52.4775C240.496 52.1333 238.518 51.0493 237.727 49.4746C236.936 51.0493 234.951 52.1333 232.952 52.4775L232.498 51.5693C234.753 51.2324 237.083 49.7529 237.083 48.0098V47.9219H232.908V46.9844H242.532V47.9219H238.372V48.0098ZM243.66 53.5908V54.543H238.269V59.1865H237.141V54.543H231.794V53.5908H243.66ZM249.373 48.0537C249.358 49.958 250.735 51.6426 252.668 52.3164L252.083 53.2246C250.574 52.6753 249.38 51.5474 248.801 50.1045C248.223 51.6499 247.014 52.8657 245.491 53.459L244.89 52.5508C246.838 51.833 248.201 50.0166 248.201 48.0537V46.8086H249.373V48.0537ZM255.51 54.6602V59.1865H254.368V55.6123H246.75V54.6602H255.51ZM255.51 46.1641V54.0156H254.368V46.1641H255.51ZM268.401 46.1641V59.1865H267.258V46.1641H268.401ZM257.795 55.7148C258.909 55.7075 260.183 55.7002 261.501 55.6562V54.2354C259.941 54.0669 258.923 53.1807 258.938 51.877C258.923 50.4121 260.183 49.46 262.058 49.46C263.933 49.46 265.208 50.4121 265.208 51.877C265.208 53.166 264.197 54.0522 262.659 54.2207V55.6123C263.918 55.561 265.193 55.4658 266.394 55.3047L266.482 56.1836C263.582 56.6523 260.388 56.6963 257.971 56.6963L257.795 55.7148ZM266.057 47.7754V48.7129H258.074V47.7754H261.501V46.1787H262.659V47.7754H266.057ZM262.058 50.3535C260.857 50.3535 260.007 50.9688 260.007 51.877C260.007 52.7852 260.857 53.3711 262.058 53.3564C263.274 53.3711 264.109 52.7852 264.109 51.877C264.109 50.9688 263.274 50.3535 262.058 50.3535ZM275.051 49.665C275.051 51.9648 276.575 54.3232 278.42 55.2314L277.717 56.1543C276.282 55.3999 275.081 53.8618 274.509 52.0527C273.923 53.979 272.693 55.6196 271.228 56.4033L270.496 55.4805C272.4 54.543 273.909 52.0381 273.923 49.665V47.292H275.051V49.665ZM280.764 46.1641V51.4521H282.947V52.4482H280.764V59.1865H279.622V46.1641H280.764ZM288.059 58V47.3945H289.377V52.6387H289.509L294.226 47.3945H295.955L291.516 52.1846L295.955 58H294.343L290.696 53.0928L289.377 54.5869V58H288.059ZM296.79 48.5664V47.3945H304.788V48.5664H301.462V58H300.129V48.5664H296.79Z" fill="black"/>
<mask id="path-7-inside-3_308_6396" fill="white">
<path d="M0 70H400V105H0V70Z"/>
</mask>
<path d="M0 70H400V105H0V70Z" fill="white"/>
<path d="M400 105V106H401V105H400ZM399 70V105H401V70H399ZM400 104H0V106H400V104Z" fill="#495057" mask="url(#path-7-inside-3_308_6396)"/>
<path d="M124.319 88.957C124.333 86.1885 125.081 83.8887 126.428 81.9404H127.542C126.545 83.3906 125.623 86.3496 125.623 88.957C125.623 91.5645 126.545 94.5381 127.542 95.9883H126.428C125.081 94.0254 124.333 91.7256 124.319 88.957ZM135.203 83.0098C135.188 84.7529 137.517 86.2324 139.788 86.5693L139.363 87.4775C137.327 87.1333 135.349 86.0493 134.558 84.4746C133.767 86.0493 131.782 87.1333 129.783 87.4775L129.329 86.5693C131.584 86.2324 133.914 84.7529 133.914 83.0098V82.9219H129.739V81.9844H139.363V82.9219H135.203V83.0098ZM140.491 88.5908V89.543H135.1V94.1865H133.972V89.543H128.625V88.5908H140.491ZM144.841 88.957C144.827 91.7256 144.08 94.0254 142.732 95.9883H141.619C142.615 94.5381 143.538 91.5645 143.538 88.957C143.538 86.3496 142.615 83.3906 141.619 81.9404H142.732C144.08 83.8887 144.827 86.1885 144.841 88.957ZM154.583 85.7051C154.128 84.3428 153.088 83.4785 151.58 83.4785C149.705 83.4785 148.21 84.958 148.21 87.6973C148.21 90.4365 149.705 91.916 151.667 91.916C153.462 91.916 154.685 90.7148 154.714 88.8398H151.946V87.6826H156.003V88.8252C156.003 91.4619 154.187 93.1465 151.667 93.1465C148.84 93.1465 146.936 91.0518 146.936 87.6973C146.936 84.3428 148.855 82.248 151.58 82.248C153.821 82.248 155.549 83.6543 155.945 85.7051H154.583ZM163.767 85.0605C163.65 84.0205 162.698 83.4199 161.423 83.4199C160.017 83.4199 159.094 84.1523 159.094 85.1631C159.094 86.2764 160.339 86.6865 161.145 86.8916L162.2 87.1846C163.342 87.4775 165.203 88.1367 165.203 90.1143C165.203 91.8428 163.811 93.1904 161.35 93.1904C159.065 93.1904 157.644 92.0039 157.527 90.2461H158.875C158.992 91.4326 160.09 91.9893 161.35 91.9893C162.815 91.9893 163.914 91.2422 163.914 90.085C163.914 89.0596 162.932 88.6641 161.819 88.3418L160.515 87.9902C158.845 87.5068 157.82 86.6572 157.82 85.2217C157.82 83.4346 159.417 82.248 161.467 82.248C163.518 82.248 164.998 83.4492 165.056 85.0605H163.767ZM172.175 82.3945V93H170.857V82.3945H172.175ZM173.933 83.5664V82.3945H181.931V83.5664H178.606V93H177.273V83.5664H173.933ZM183.689 82.3945H185.271L188.845 91.125H188.977L192.551 82.3945H194.133V93H192.888V84.9873H192.786L189.49 93H188.318L185.022 84.9873H184.934V93H183.689V82.3945ZM197.971 92.0186L196.829 96.0029H195.745L196.55 92.0186H197.971ZM210.012 83.0098C209.998 84.7529 212.327 86.2324 214.597 86.5693L214.172 87.4775C212.136 87.1333 210.159 86.0493 209.368 84.4746C208.577 86.0493 206.592 87.1333 204.592 87.4775L204.138 86.5693C206.394 86.2324 208.723 84.7529 208.723 83.0098V82.9219H204.548V81.9844H214.172V82.9219H210.012V83.0098ZM215.3 88.5908V89.543H209.91V94.1865H208.782V89.543H203.435V88.5908H215.3ZM221.013 83.0537C220.999 84.958 222.375 86.6426 224.309 87.3164L223.723 88.2246C222.214 87.6753 221.021 86.5474 220.442 85.1045C219.863 86.6499 218.655 87.8657 217.131 88.459L216.531 87.5508C218.479 86.833 219.841 85.0166 219.841 83.0537V81.8086H221.013V83.0537ZM227.151 89.6602V94.1865H226.008V90.6123H218.391V89.6602H227.151ZM227.151 81.1641V89.0156H226.008V81.1641H227.151ZM240.042 81.1641V94.1865H238.899V81.1641H240.042ZM229.436 90.7148C230.549 90.7075 231.824 90.7002 233.142 90.6562V89.2354C231.582 89.0669 230.564 88.1807 230.579 86.877C230.564 85.4121 231.824 84.46 233.699 84.46C235.574 84.46 236.848 85.4121 236.848 86.877C236.848 88.166 235.837 89.0522 234.299 89.2207V90.6123C235.559 90.561 236.833 90.4658 238.035 90.3047L238.123 91.1836C235.222 91.6523 232.029 91.6963 229.612 91.6963L229.436 90.7148ZM237.698 82.7754V83.7129H229.714V82.7754H233.142V81.1787H234.299V82.7754H237.698ZM233.699 85.3535C232.498 85.3535 231.648 85.9688 231.648 86.877C231.648 87.7852 232.498 88.3711 233.699 88.3564C234.915 88.3711 235.75 87.7852 235.75 86.877C235.75 85.9688 234.915 85.3535 233.699 85.3535ZM246.692 84.665C246.692 86.9648 248.215 89.3232 250.061 90.2314L249.358 91.1543C247.922 90.3999 246.721 88.8618 246.15 87.0527C245.564 88.979 244.333 90.6196 242.869 91.4033L242.136 90.4805C244.041 89.543 245.549 87.0381 245.564 84.665V82.292H246.692V84.665ZM252.405 81.1641V86.4521H254.587V87.4482H252.405V94.1865H251.262V81.1641H252.405ZM259.7 93V82.3945H261.018V87.6387H261.15L265.867 82.3945H267.595L263.157 87.1846L267.595 93H265.984L262.336 88.0928L261.018 89.5869V93H259.7ZM268.43 83.5664V82.3945H276.428V83.5664H273.103V93H271.77V83.5664H268.43Z" fill="black"/>
<mask id="path-10-inside-4_308_6396" fill="white">
<path d="M0 105H400V140H0V105Z"/>
</mask>
<path d="M0 105H400V140H0V105Z" fill="white"/>
<path d="M400 140V141H401V140H400ZM399 105V140H401V105H399ZM400 139H0V141H400V139Z" fill="#495057" mask="url(#path-10-inside-4_308_6396)"/>
<path d="M176.775 123.957C176.79 121.188 177.537 118.889 178.884 116.94H179.998C179.001 118.391 178.079 121.35 178.079 123.957C178.079 126.564 179.001 129.538 179.998 130.988H178.884C177.537 129.025 176.79 126.726 176.775 123.957ZM187.659 118.01C187.644 119.753 189.973 121.232 192.244 121.569L191.819 122.478C189.783 122.133 187.805 121.049 187.014 119.475C186.223 121.049 184.238 122.133 182.239 122.478L181.785 121.569C184.041 121.232 186.37 119.753 186.37 118.01V117.922H182.195V116.984H191.819V117.922H187.659V118.01ZM192.947 123.591V124.543H187.556V129.187H186.428V124.543H181.082V123.591H192.947ZM197.297 123.957C197.283 126.726 196.536 129.025 195.188 130.988H194.075C195.071 129.538 195.994 126.564 195.994 123.957C195.994 121.35 195.071 118.391 194.075 116.94H195.188C196.536 118.889 197.283 121.188 197.297 123.957ZM209.5 116.984V118.186C209.5 119.526 209.5 121.042 209.045 123.166H211.023V124.133H205.691V129.187H204.534V124.133H199.158V123.166H207.888C208.115 122.236 208.24 121.423 208.313 120.676L200.447 121.086L200.3 120.075L208.386 119.797C208.408 119.226 208.408 118.691 208.416 118.186V117.937H200.667V116.984H209.5ZM222.507 116.809V117.893C222.507 119.108 222.507 120.427 222.156 122.214L221.013 122.111C221.174 121.35 221.262 120.668 221.321 120.046L213.381 120.427L213.22 119.445L221.365 119.182C221.379 118.728 221.379 118.303 221.379 117.893V117.746H213.542V116.809H222.507ZM223.987 123.093V124.03H212.136V123.093H216.97V121.174H218.127V123.093H223.987ZM222.815 128.044V128.981H213.645V125.144H214.802V128.044H222.815Z" fill="black"/>
<mask id="path-13-inside-5_308_6396" fill="white">
<path d="M0 140H400V175H0V140Z"/>
</mask>
<path d="M0 140H400V175H0V140Z" fill="white"/>
<path d="M400 175V176H401V175H400ZM399 140V175H401V140H399ZM400 174H0V176H400V174Z" fill="#495057" mask="url(#path-13-inside-5_308_6396)"/>
<path d="M128.97 158.957C128.984 156.188 129.731 153.889 131.079 151.94H132.192C131.196 153.391 130.273 156.35 130.273 158.957C130.273 161.564 131.196 164.538 132.192 165.988H131.079C129.731 164.025 128.984 161.726 128.97 158.957ZM139.854 153.01C139.839 154.753 142.168 156.232 144.438 156.569L144.014 157.478C141.978 157.133 140 156.049 139.209 154.475C138.418 156.049 136.433 157.133 134.434 157.478L133.979 156.569C136.235 156.232 138.564 154.753 138.564 153.01V152.922H134.39V151.984H144.014V152.922H139.854V153.01ZM145.142 158.591V159.543H139.751V164.187H138.623V159.543H133.276V158.591H145.142ZM149.492 158.957C149.478 161.726 148.73 164.025 147.383 165.988H146.27C147.266 164.538 148.188 161.564 148.188 158.957C148.188 156.35 147.266 153.391 146.27 151.94H147.383C148.73 153.889 149.478 156.188 149.492 158.957ZM157.988 152.409V153.376H153.169V160.012C155.513 160.012 157.065 159.931 158.867 159.587L159.014 160.539C157.095 160.905 155.513 160.993 153.008 160.993H152.012V152.409H157.988ZM162.163 151.164V164.216H161.006V156.862H157.212V155.91H161.006V151.164H162.163ZM175.522 151.164V164.187H174.409V151.164H175.522ZM172.974 151.486V163.498H171.875V157.155H170.059V156.115H171.875V151.486H172.974ZM170.439 152.834V153.786H169.341V159.807C169.832 159.777 170.3 159.733 170.732 159.675L170.806 160.524C168.755 160.905 166.016 160.964 164.316 160.964L164.17 159.982C164.573 159.982 165.042 159.982 165.547 159.968V153.786H164.448V152.834H170.439ZM166.602 159.953C167.144 159.938 167.715 159.917 168.271 159.88V153.786H166.602V159.953ZM188.018 151.164V164.216H186.86V151.164H188.018ZM181.089 152.175C183.022 152.189 184.414 153.947 184.414 156.716C184.414 159.484 183.022 161.242 181.089 161.242C179.141 161.242 177.764 159.484 177.764 156.716C177.764 153.947 179.141 152.189 181.089 152.175ZM181.089 153.2C179.785 153.215 178.877 154.592 178.877 156.716C178.877 158.84 179.785 160.217 181.089 160.217C182.393 160.217 183.301 158.84 183.301 156.716C183.301 154.592 182.393 153.215 181.089 153.2ZM192.383 162.019L191.24 166.003H190.156L190.962 162.019H192.383ZM198.652 158.957C198.667 156.188 199.414 153.889 200.762 151.94H201.875C200.879 153.391 199.956 156.35 199.956 158.957C199.956 161.564 200.879 164.538 201.875 165.988H200.762C199.414 164.025 198.667 161.726 198.652 158.957ZM209.536 153.01C209.521 154.753 211.851 156.232 214.121 156.569L213.696 157.478C211.66 157.133 209.683 156.049 208.892 154.475C208.101 156.049 206.116 157.133 204.116 157.478L203.662 156.569C205.918 156.232 208.247 154.753 208.247 153.01V152.922H204.072V151.984H213.696V152.922H209.536V153.01ZM214.824 158.591V159.543H209.434V164.187H208.306V159.543H202.959V158.591H214.824ZM219.175 158.957C219.16 161.726 218.413 164.025 217.065 165.988H215.952C216.948 164.538 217.871 161.564 217.871 158.957C217.871 156.35 216.948 153.391 215.952 151.94H217.065C218.413 153.889 219.16 156.188 219.175 158.957ZM232.095 151.164V158.957H230.996V151.164H232.095ZM229.604 151.428V158.854H228.521V155.573H227.114C226.902 157.133 225.708 158.166 224.155 158.166C222.412 158.166 221.167 156.906 221.182 155.075C221.167 153.259 222.412 151.984 224.155 151.984C225.723 151.984 226.924 153.046 227.114 154.621H228.521V151.428H229.604ZM232.095 159.587V164.216H230.967V160.51H223.32V159.587H232.095ZM224.155 152.98C223.042 152.98 222.207 153.859 222.222 155.075C222.207 156.32 223.042 157.199 224.155 157.185C225.269 157.199 226.089 156.32 226.104 155.075C226.089 153.859 225.269 152.98 224.155 152.98ZM244.751 151.179V158.576H243.608V151.179H244.751ZM244.751 159.323V164.011H236.284V159.323H244.751ZM237.412 160.261V163.073H243.623V160.261H237.412ZM238.613 152.966C238.599 154.812 240.005 156.438 241.924 157.111L241.338 157.99C239.829 157.47 238.628 156.372 238.042 154.943C237.463 156.467 236.248 157.668 234.688 158.239L234.102 157.331C236.079 156.643 237.441 154.885 237.441 152.966V151.691H238.613V152.966ZM248.545 152.453V155.646H251.387V152.453H252.441V156.115H254.404V151.457H255.503V163.542H254.404V157.082H252.441V160.92H247.446V152.453H248.545ZM248.545 159.953H251.387V156.584H248.545V159.953ZM258.125 151.164V164.187H257.012V151.164H258.125ZM270.664 151.164V164.216H269.507V151.164H270.664ZM263.735 152.175C265.669 152.189 267.061 153.947 267.061 156.716C267.061 159.484 265.669 161.242 263.735 161.242C261.787 161.242 260.41 159.484 260.41 156.716C260.41 153.947 261.787 152.189 263.735 152.175ZM263.735 153.2C262.432 153.215 261.523 154.592 261.523 156.716C261.523 158.84 262.432 160.217 263.735 160.217C265.039 160.217 265.947 158.84 265.947 156.716C265.947 154.592 265.039 153.215 263.735 153.2Z" fill="black"/>
<mask id="path-16-inside-6_308_6396" fill="white">
<path d="M0 175H400V233H0V175Z"/>
</mask>
<path d="M0 175H400V233H0V175Z" fill="white"/>
<path d="M400 233V234H401V233H400ZM399 175V233H401V175H399ZM400 232H0V234H400V232Z" fill="#495057" mask="url(#path-16-inside-6_308_6396)"/>
<path d="M155.396 193.957C155.41 191.188 156.157 188.889 157.505 186.94H158.618C157.622 188.391 156.699 191.35 156.699 193.957C156.699 196.564 157.622 199.538 158.618 200.988H157.505C156.157 199.025 155.41 196.726 155.396 193.957ZM166.279 188.01C166.265 189.753 168.594 191.232 170.864 191.569L170.439 192.478C168.403 192.133 166.426 191.049 165.635 189.475C164.844 191.049 162.859 192.133 160.859 192.478L160.405 191.569C162.661 191.232 164.99 189.753 164.99 188.01V187.922H160.815V186.984H170.439V187.922H166.279V188.01ZM171.567 193.591V194.543H166.177V199.187H165.049V194.543H159.702V193.591H171.567ZM175.918 193.957C175.903 196.726 175.156 199.025 173.809 200.988H172.695C173.691 199.538 174.614 196.564 174.614 193.957C174.614 191.35 173.691 188.391 172.695 186.94H173.809C175.156 188.889 175.903 191.188 175.918 193.957ZM183.242 187.688V191.086H185.22V186.442H186.318V198.527H185.22V192.038H183.242V195.686H178.262V187.688H183.242ZM179.346 188.61V194.763H182.158V188.61H179.346ZM188.94 186.164V199.187H187.827V186.164H188.94ZM195.605 187.541C195.605 189.05 196.924 190.295 198.887 190.764L198.345 191.687C196.799 191.269 195.613 190.412 195.049 189.24C194.456 190.544 193.225 191.533 191.665 191.994L191.079 191.086C193.057 190.559 194.434 189.167 194.434 187.541V186.735H195.605V187.541ZM201.479 186.179V199.201H200.352V186.179H201.479ZM190.713 193.151C193.174 193.166 196.499 193.137 199.399 192.727L199.473 193.562C198.228 193.781 196.938 193.92 195.679 194.001V198.791H194.536V194.06C193.218 194.125 191.965 194.133 190.874 194.133L190.713 193.151ZM214.121 187.438V188.698C214.106 190.28 214.121 192.067 213.579 194.719L212.451 194.587C212.708 193.408 212.839 192.375 212.92 191.452L204.951 191.936L204.761 190.925L212.964 190.588C212.993 189.899 212.993 189.277 212.993 188.698V188.391H205.142V187.438H214.121ZM215.571 196.433V197.414H203.706V196.433H208.364V193.063H209.492V196.433H215.571ZM227.422 186.164V199.216H226.279V186.164H227.422ZM223.467 187.38V192.009H218.604V195.085C220.764 195.085 222.69 194.99 225.02 194.616L225.137 195.583C222.734 195.964 220.757 196.052 218.516 196.052H217.432V191.071H222.31V188.332H217.402V187.38H223.467ZM233.12 187.175C235.039 187.189 236.401 188.947 236.416 191.716C236.401 194.484 235.039 196.242 233.12 196.242C231.187 196.242 229.839 194.484 229.839 191.716C229.839 188.947 231.187 187.189 233.12 187.175ZM233.12 188.2C231.831 188.215 230.923 189.592 230.923 191.716C230.923 193.84 231.831 195.217 233.12 195.217C234.424 195.217 235.303 193.84 235.303 191.716C235.303 189.592 234.424 188.215 233.12 188.2ZM239.712 186.164V191.364H241.895V192.36H239.712V199.187H238.569V186.164H239.712ZM244.736 197.019L243.594 201.003H242.51L243.315 197.019H244.736ZM105.562 211.01C105.547 212.753 107.876 214.232 110.146 214.569L109.722 215.478C107.686 215.133 105.708 214.049 104.917 212.475C104.126 214.049 102.141 215.133 100.142 215.478L99.6875 214.569C101.943 214.232 104.272 212.753 104.272 211.01V210.922H100.098V209.984H109.722V210.922H105.562V211.01ZM110.85 216.591V217.543H105.459V222.187H104.331V217.543H98.9844V216.591H110.85ZM116.562 211.054C116.548 212.958 117.925 214.643 119.858 215.316L119.272 216.225C117.764 215.675 116.57 214.547 115.991 213.104C115.413 214.65 114.204 215.866 112.681 216.459L112.08 215.551C114.028 214.833 115.391 213.017 115.391 211.054V209.809H116.562V211.054ZM122.7 217.66V222.187H121.558V218.612H113.94V217.66H122.7ZM122.7 209.164V217.016H121.558V209.164H122.7ZM135.591 209.164V222.187H134.448V209.164H135.591ZM124.985 218.715C126.099 218.708 127.373 218.7 128.691 218.656V217.235C127.131 217.067 126.113 216.181 126.128 214.877C126.113 213.412 127.373 212.46 129.248 212.46C131.123 212.46 132.397 213.412 132.397 214.877C132.397 216.166 131.387 217.052 129.849 217.221V218.612C131.108 218.561 132.383 218.466 133.584 218.305L133.672 219.184C130.771 219.652 127.578 219.696 125.161 219.696L124.985 218.715ZM133.247 210.775V211.713H125.264V210.775H128.691V209.179H129.849V210.775H133.247ZM129.248 213.354C128.047 213.354 127.197 213.969 127.197 214.877C127.197 215.785 128.047 216.371 129.248 216.356C130.464 216.371 131.299 215.785 131.299 214.877C131.299 213.969 130.464 213.354 129.248 213.354ZM142.241 212.665C142.241 214.965 143.765 217.323 145.61 218.231L144.907 219.154C143.472 218.4 142.271 216.862 141.699 215.053C141.113 216.979 139.883 218.62 138.418 219.403L137.686 218.48C139.59 217.543 141.099 215.038 141.113 212.665V210.292H142.241V212.665ZM147.954 209.164V214.452H150.137V215.448H147.954V222.187H146.812V209.164H147.954ZM164.683 209.164V214.291H166.865V215.287H164.683V222.187H163.54V209.164H164.683ZM156.289 210.277V213.72H160.098V210.277H161.24V219.066H155.146V210.277H156.289ZM156.289 218.1H160.098V214.643H156.289V218.1ZM179.492 219.608V220.575H167.568V219.608H172.93V217.147H169.062V213.134H176.855V211.083H169.033V210.131H177.983V214.071H170.205V216.195H178.291V217.147H174.058V219.608H179.492ZM190.977 210.482V211.786C190.962 213.383 190.962 215.17 190.493 217.792L189.321 217.66C189.819 215.17 189.819 213.339 189.819 211.786V211.435H181.792V210.482H190.977ZM192.397 219.389V220.341H180.532V219.389H185.19V214.73H186.318V219.389H192.397ZM195.635 220.019L194.492 224.003H193.408L194.214 220.019H195.635ZM201.904 216.957C201.919 214.188 202.666 211.889 204.014 209.94H205.127C204.131 211.391 203.208 214.35 203.208 216.957C203.208 219.564 204.131 222.538 205.127 223.988H204.014C202.666 222.025 201.919 219.726 201.904 216.957ZM212.788 211.01C212.773 212.753 215.103 214.232 217.373 214.569L216.948 215.478C214.912 215.133 212.935 214.049 212.144 212.475C211.353 214.049 209.368 215.133 207.368 215.478L206.914 214.569C209.17 214.232 211.499 212.753 211.499 211.01V210.922H207.324V209.984H216.948V210.922H212.788V211.01ZM218.076 216.591V217.543H212.686V222.187H211.558V217.543H206.211V216.591H218.076ZM222.427 216.957C222.412 219.726 221.665 222.025 220.317 223.988H219.204C220.2 222.538 221.123 219.564 221.123 216.957C221.123 214.35 220.2 211.391 219.204 209.94H220.317C221.665 211.889 222.412 214.188 222.427 216.957ZM228.945 213.163C228.945 215.375 230.557 217.616 232.476 218.451L231.831 219.359C230.308 218.664 228.989 217.162 228.389 215.36C227.773 217.272 226.462 218.935 224.976 219.682L224.287 218.773C226.147 217.88 227.773 215.419 227.788 213.163V211.464H224.712V210.512H232.051V211.464H228.945V213.163ZM235.024 209.164V222.187H233.867V209.164H235.024ZM248.413 209.164V222.187H247.3V209.164H248.413ZM245.791 209.442V221.527H244.692V215.199H243.022C242.898 217.733 241.821 219.315 240.21 219.315C238.511 219.315 237.412 217.558 237.412 214.789C237.412 212.021 238.511 210.263 240.21 210.263C241.792 210.263 242.861 211.793 243.008 214.247H244.692V209.442H245.791ZM240.21 211.347C239.155 211.347 238.481 212.665 238.496 214.789C238.481 216.898 239.155 218.231 240.21 218.217C241.265 218.231 241.938 216.898 241.938 214.789C241.938 212.665 241.265 211.347 240.21 211.347ZM256.704 211.083C256.704 213.31 259.253 215.302 261.523 215.727L260.996 216.693C259.033 216.239 256.96 214.84 256.118 212.914C255.276 214.833 253.21 216.232 251.24 216.693L250.713 215.727C252.969 215.287 255.503 213.324 255.503 211.083V210.087H256.704V211.083ZM262.139 219.462V220.414H250.215V219.462H262.139ZM273.931 209.164V222.216H272.788V209.164H273.931ZM269.976 210.38V215.009H265.112V218.085C267.273 218.085 269.199 217.99 271.528 217.616L271.646 218.583C269.243 218.964 267.266 219.052 265.024 219.052H263.94V214.071H268.818V211.332H263.911V210.38H269.976ZM281.504 210.761V211.684H277.754V214.262H280.903V215.185H277.754V218.114C279.622 218.092 280.764 218.026 282.178 217.763L282.28 218.7C280.771 219.008 279.541 219.037 277.476 219.052H276.655V210.761H281.504ZM287.29 209.164V222.187H286.177V209.164H287.29ZM284.624 209.486V221.513H283.525V215.067H281.606V214.115H283.525V209.486H284.624ZM292.798 209.647C294.746 209.662 296.167 210.834 296.167 212.533C296.167 214.232 294.746 215.404 292.798 215.404C290.82 215.404 289.414 214.232 289.414 212.533C289.414 210.834 290.82 209.662 292.798 209.647ZM292.798 210.614C291.494 210.614 290.527 211.405 290.542 212.533C290.527 213.676 291.494 214.467 292.798 214.467C294.087 214.467 295.054 213.676 295.054 212.533C295.054 211.405 294.087 210.614 292.798 210.614ZM299.858 209.164V215.858H298.716V209.164H299.858ZM299.858 216.488V219.623H292.549V221.088H300.327V222.011H291.421V218.759H298.716V217.411H291.392V216.488H299.858Z" fill="black"/>
<mask id="path-19-inside-7_308_6396" fill="white">
<path d="M0 233H400V291H0V233Z"/>
</mask>
<path d="M0 233H400V291H0V233Z" fill="white"/>
<path d="M400 291V292H401V291H400ZM399 233V291H401V233H399ZM400 290H0V292H400V290Z" fill="#495057" mask="url(#path-19-inside-7_308_6396)"/>
<path d="M66.0986 246.01C66.084 247.753 68.4131 249.232 70.6836 249.569L70.2588 250.478C68.2227 250.133 66.2451 249.049 65.4541 247.475C64.6631 249.049 62.6782 250.133 60.6787 250.478L60.2246 249.569C62.4805 249.232 64.8096 247.753 64.8096 246.01V245.922H60.6348V244.984H70.2588V245.922H66.0986V246.01ZM71.3867 251.591V252.543H65.9961V257.187H64.8682V252.543H59.5215V251.591H71.3867ZM77.0996 246.054C77.085 247.958 78.4619 249.643 80.3955 250.316L79.8096 251.225C78.3008 250.675 77.1069 249.547 76.5283 248.104C75.9497 249.65 74.7412 250.866 73.2178 251.459L72.6172 250.551C74.5654 249.833 75.9277 248.017 75.9277 246.054V244.809H77.0996V246.054ZM83.2373 252.66V257.187H82.0947V253.612H74.4775V252.66H83.2373ZM83.2373 244.164V252.016H82.0947V244.164H83.2373ZM96.1279 244.164V257.187H94.9854V244.164H96.1279ZM85.5225 253.715C86.6357 253.708 87.9102 253.7 89.2285 253.656V252.235C87.6685 252.067 86.6504 251.181 86.665 249.877C86.6504 248.412 87.9102 247.46 89.7852 247.46C91.6602 247.46 92.9346 248.412 92.9346 249.877C92.9346 251.166 91.9238 252.052 90.3857 252.221V253.612C91.6455 253.561 92.9199 253.466 94.1211 253.305L94.209 254.184C91.3086 254.652 88.1152 254.696 85.6982 254.696L85.5225 253.715ZM93.7842 245.775V246.713H85.8008V245.775H89.2285V244.179H90.3857V245.775H93.7842ZM89.7852 248.354C88.584 248.354 87.7344 248.969 87.7344 249.877C87.7344 250.785 88.584 251.371 89.7852 251.356C91.001 251.371 91.8359 250.785 91.8359 249.877C91.8359 248.969 91.001 248.354 89.7852 248.354ZM102.778 247.665C102.778 249.965 104.302 252.323 106.147 253.231L105.444 254.154C104.009 253.4 102.808 251.862 102.236 250.053C101.65 251.979 100.42 253.62 98.9551 254.403L98.2227 253.48C100.127 252.543 101.636 250.038 101.65 247.665V245.292H102.778V247.665ZM108.491 244.164V249.452H110.674V250.448H108.491V257.187H107.349V244.164H108.491ZM121.895 245.526C121.88 249.291 120.605 252.733 115.918 255.033L115.273 254.154C117.727 252.968 119.199 251.459 119.99 249.701L115.522 250.126L115.332 249.115L120.342 248.778C120.569 248.046 120.701 247.277 120.752 246.479H115.991V245.526H121.895ZM125.22 244.164V249.467H127.329V250.434H125.22V257.187H124.077V244.164H125.22ZM134.858 245.526C134.844 249.291 133.569 252.733 128.882 255.033L128.237 254.154C130.691 252.968 132.163 251.459 132.954 249.701L128.486 250.126L128.296 249.115L133.306 248.778C133.533 248.046 133.665 247.277 133.716 246.479H128.955V245.526H134.858ZM138.184 244.164V249.467H140.293V250.434H138.184V257.187H137.041V244.164H138.184ZM147.002 245.014C149.771 245.028 151.763 246.376 151.763 248.427C151.763 250.368 150.034 251.657 147.559 251.811V254.55H152.993V255.517H141.069V254.55H146.431V251.811C143.962 251.649 142.241 250.36 142.241 248.427C142.241 246.376 144.233 245.028 147.002 245.014ZM147.002 245.966C144.893 245.966 143.354 246.962 143.354 248.427C143.354 249.936 144.893 250.902 147.002 250.917C149.111 250.902 150.649 249.936 150.649 248.427C150.649 246.962 149.111 245.966 147.002 245.966ZM165.239 244.164V257.187H164.126V244.164H165.239ZM162.69 244.486V256.498H161.592V250.155H159.775V249.115H161.592V244.486H162.69ZM160.156 245.834V246.786H159.058V252.807C159.548 252.777 160.017 252.733 160.449 252.675L160.522 253.524C158.472 253.905 155.732 253.964 154.033 253.964L153.887 252.982C154.29 252.982 154.758 252.982 155.264 252.968V246.786H154.165V245.834H160.156ZM156.318 252.953C156.86 252.938 157.432 252.917 157.988 252.88V246.786H156.318V252.953ZM177.734 244.164V257.216H176.577V244.164H177.734ZM170.806 245.175C172.739 245.189 174.131 246.947 174.131 249.716C174.131 252.484 172.739 254.242 170.806 254.242C168.857 254.242 167.48 252.484 167.48 249.716C167.48 246.947 168.857 245.189 170.806 245.175ZM170.806 246.2C169.502 246.215 168.594 247.592 168.594 249.716C168.594 251.84 169.502 253.217 170.806 253.217C172.109 253.217 173.018 251.84 173.018 249.716C173.018 247.592 172.109 246.215 170.806 246.2ZM182.1 255.019L180.957 259.003H179.873L180.679 255.019H182.1ZM194.141 246.01C194.126 247.753 196.455 249.232 198.726 249.569L198.301 250.478C196.265 250.133 194.287 249.049 193.496 247.475C192.705 249.049 190.72 250.133 188.721 250.478L188.267 249.569C190.522 249.232 192.852 247.753 192.852 246.01V245.922H188.677V244.984H198.301V245.922H194.141V246.01ZM199.429 251.591V252.543H194.038V257.187H192.91V252.543H187.563V251.591H199.429ZM205.142 246.054C205.127 247.958 206.504 249.643 208.438 250.316L207.852 251.225C206.343 250.675 205.149 249.547 204.57 248.104C203.992 249.65 202.783 250.866 201.26 251.459L200.659 250.551C202.607 249.833 203.97 248.017 203.97 246.054V244.809H205.142V246.054ZM211.279 252.66V257.187H210.137V253.612H202.52V252.66H211.279ZM211.279 244.164V252.016H210.137V244.164H211.279ZM224.17 244.164V257.187H223.027V244.164H224.17ZM213.564 253.715C214.678 253.708 215.952 253.7 217.271 253.656V252.235C215.71 252.067 214.692 251.181 214.707 249.877C214.692 248.412 215.952 247.46 217.827 247.46C219.702 247.46 220.977 248.412 220.977 249.877C220.977 251.166 219.966 252.052 218.428 252.221V253.612C219.688 253.561 220.962 253.466 222.163 253.305L222.251 254.184C219.351 254.652 216.157 254.696 213.74 254.696L213.564 253.715ZM221.826 245.775V246.713H213.843V245.775H217.271V244.179H218.428V245.775H221.826ZM217.827 248.354C216.626 248.354 215.776 248.969 215.776 249.877C215.776 250.785 216.626 251.371 217.827 251.356C219.043 251.371 219.878 250.785 219.878 249.877C219.878 248.969 219.043 248.354 217.827 248.354ZM230.82 247.665C230.82 249.965 232.344 252.323 234.189 253.231L233.486 254.154C232.051 253.4 230.85 251.862 230.278 250.053C229.692 251.979 228.462 253.62 226.997 254.403L226.265 253.48C228.169 252.543 229.678 250.038 229.692 247.665V245.292H230.82V247.665ZM236.533 244.164V249.452H238.716V250.448H236.533V257.187H235.391V244.164H236.533ZM244.971 245.585V252.88C246.377 252.865 247.71 252.785 249.277 252.455L249.438 253.451C247.695 253.817 246.245 253.891 244.648 253.891H243.828V245.585H244.971ZM254.331 244.164V257.187H253.232V244.164H254.331ZM251.548 244.486V256.527H250.449V249.511H247.476V248.559H250.449V244.486H251.548ZM266.885 244.164V257.216H265.728V244.164H266.885ZM259.956 245.175C261.89 245.189 263.281 246.947 263.281 249.716C263.281 252.484 261.89 254.242 259.956 254.242C258.008 254.242 256.631 252.484 256.631 249.716C256.631 246.947 258.008 245.189 259.956 245.175ZM259.956 246.2C258.652 246.215 257.744 247.592 257.744 249.716C257.744 251.84 258.652 253.217 259.956 253.217C261.26 253.217 262.168 251.84 262.168 249.716C262.168 247.592 261.26 246.215 259.956 246.2ZM279.907 244.164V257.216H278.765V249.965H275.645V253.92H269.639V245.189H270.796V248.588H274.517V245.189H275.645V249.013H278.765V244.164H279.907ZM270.796 252.968H274.517V249.511H270.796V252.968ZM289.561 245.585V246.537H288.11V252.807C288.813 252.755 289.509 252.697 290.176 252.616L290.234 253.466C287.48 253.905 284.36 253.949 282.061 253.964L281.914 252.982C282.463 252.982 283.049 252.982 283.672 252.968V246.537H282.236V245.585H289.561ZM292.153 244.164V249.394H294.336V250.36H292.153V257.187H291.011V244.164H292.153ZM284.785 252.953C285.51 252.938 286.265 252.909 287.012 252.865V246.537H284.785V252.953ZM305.776 244.164V257.216H304.619V244.164H305.776ZM298.848 245.175C300.781 245.189 302.173 246.947 302.173 249.716C302.173 252.484 300.781 254.242 298.848 254.242C296.899 254.242 295.522 252.484 295.522 249.716C295.522 246.947 296.899 245.189 298.848 245.175ZM298.848 246.2C297.544 246.215 296.636 247.592 296.636 249.716C296.636 251.84 297.544 253.217 298.848 253.217C300.151 253.217 301.06 251.84 301.06 249.716C301.06 247.592 300.151 246.215 298.848 246.2ZM319.092 244.179V253.788H317.993V244.179H319.092ZM316.484 244.442V253.437H315.386V248.148H312.559V247.211H315.386V244.442H316.484ZM319.561 255.941V256.908H310.669V252.66H311.797V255.941H319.561ZM309.849 245.307V250.478C311.226 250.485 312.566 250.412 314.141 250.111L314.287 251.063C312.515 251.386 311.079 251.444 309.526 251.444H308.706V245.307H309.849ZM331.763 244.164V251.005H330.605V248.808H327.998V247.885H330.605V246.449H327.998V245.541H330.605V244.164H331.763ZM331.763 251.635V254.696H324.482V256.088H332.246V257.011H323.354V253.817H330.62V252.558H323.325V251.635H331.763ZM325.405 245.893C325.391 247.636 326.738 249.247 328.628 249.892L328.027 250.785C326.57 250.25 325.413 249.159 324.849 247.782C324.285 249.276 323.091 250.47 321.582 251.034L320.967 250.141C322.9 249.467 324.263 247.738 324.277 245.893V244.501H325.405V245.893ZM336.069 255.019L334.927 259.003H333.843L334.648 255.019H336.069ZM47.085 269.01C47.0703 270.753 49.3994 272.232 51.6699 272.569L51.2451 273.478C49.209 273.133 47.2314 272.049 46.4404 270.475C45.6494 272.049 43.6646 273.133 41.665 273.478L41.2109 272.569C43.4668 272.232 45.7959 270.753 45.7959 269.01V268.922H41.6211V267.984H51.2451V268.922H47.085V269.01ZM52.373 274.591V275.543H46.9824V280.187H45.8545V275.543H40.5078V274.591H52.373ZM58.0859 269.054C58.0713 270.958 59.4482 272.643 61.3818 273.316L60.7959 274.225C59.2871 273.675 58.0933 272.547 57.5146 271.104C56.936 272.65 55.7275 273.866 54.2041 274.459L53.6035 273.551C55.5518 272.833 56.9141 271.017 56.9141 269.054V267.809H58.0859V269.054ZM64.2236 275.66V280.187H63.0811V276.612H55.4639V275.66H64.2236ZM64.2236 267.164V275.016H63.0811V267.164H64.2236ZM77.1143 267.164V280.187H75.9717V267.164H77.1143ZM66.5088 276.715C67.6221 276.708 68.8965 276.7 70.2148 276.656V275.235C68.6548 275.067 67.6367 274.181 67.6514 272.877C67.6367 271.412 68.8965 270.46 70.7715 270.46C72.6465 270.46 73.9209 271.412 73.9209 272.877C73.9209 274.166 72.9102 275.052 71.3721 275.221V276.612C72.6318 276.561 73.9062 276.466 75.1074 276.305L75.1953 277.184C72.2949 277.652 69.1016 277.696 66.6846 277.696L66.5088 276.715ZM74.7705 268.775V269.713H66.7871V268.775H70.2148V267.179H71.3721V268.775H74.7705ZM70.7715 271.354C69.5703 271.354 68.7207 271.969 68.7207 272.877C68.7207 273.785 69.5703 274.371 70.7715 274.356C71.9873 274.371 72.8223 273.785 72.8223 272.877C72.8223 271.969 71.9873 271.354 70.7715 271.354ZM83.7646 270.665C83.7646 272.965 85.2881 275.323 87.1338 276.231L86.4307 277.154C84.9951 276.4 83.7939 274.862 83.2227 273.053C82.6367 274.979 81.4062 276.62 79.9414 277.403L79.209 276.48C81.1133 275.543 82.6221 273.038 82.6367 270.665V268.292H83.7646V270.665ZM89.4775 267.164V272.452H91.6602V273.448H89.4775V280.187H88.335V267.164H89.4775ZM107.334 267.164V280.187H106.221V267.164H107.334ZM104.785 267.486V279.498H103.687V273.155H101.87V272.115H103.687V267.486H104.785ZM102.251 268.834V269.786H101.152V275.807C101.643 275.777 102.112 275.733 102.544 275.675L102.617 276.524C100.566 276.905 97.8271 276.964 96.1279 276.964L95.9814 275.982C96.3843 275.982 96.853 275.982 97.3584 275.968V269.786H96.2598V268.834H102.251ZM98.4131 275.953C98.9551 275.938 99.5264 275.917 100.083 275.88V269.786H98.4131V275.953ZM119.829 267.164V280.216H118.672V267.164H119.829ZM112.9 268.175C114.834 268.189 116.226 269.947 116.226 272.716C116.226 275.484 114.834 277.242 112.9 277.242C110.952 277.242 109.575 275.484 109.575 272.716C109.575 269.947 110.952 268.189 112.9 268.175ZM112.9 269.2C111.597 269.215 110.688 270.592 110.688 272.716C110.688 274.84 111.597 276.217 112.9 276.217C114.204 276.217 115.112 274.84 115.112 272.716C115.112 270.592 114.204 269.215 112.9 269.2ZM132.471 268.438V269.698C132.456 271.28 132.471 273.067 131.929 275.719L130.801 275.587C131.057 274.408 131.189 273.375 131.27 272.452L123.301 272.936L123.11 271.925L131.313 271.588C131.343 270.899 131.343 270.277 131.343 269.698V269.391H123.491V268.438H132.471ZM133.921 277.433V278.414H122.056V277.433H126.714V274.063H127.842V277.433H133.921ZM137.158 278.019L136.016 282.003H134.932L135.737 278.019H137.158ZM152.803 267.179V271.471H154.766V272.438H152.803V276.935H151.66V267.179H152.803ZM150.415 268.775V269.713H142.651V268.775H145.962V267.179H147.104V268.775H150.415ZM146.533 270.431C148.394 270.431 149.653 271.383 149.668 272.862C149.653 274.327 148.394 275.265 146.533 275.265C144.658 275.265 143.384 274.327 143.398 272.862C143.384 271.383 144.658 270.431 146.533 270.431ZM146.533 271.339C145.303 271.339 144.482 271.939 144.497 272.862C144.482 273.785 145.303 274.371 146.533 274.356C147.749 274.371 148.569 273.785 148.584 272.862C148.569 271.939 147.749 271.339 146.533 271.339ZM153.403 278.941V279.908H144.658V276.158H145.786V278.941H153.403ZM165.942 267.809V268.746C165.942 269.72 165.942 270.885 165.62 272.452H167.51V273.39H162.09V275.792H166.03V280.187H164.873V276.744H156.816V275.792H160.947V273.39H155.586V272.452H164.463C164.8 270.855 164.8 269.72 164.8 268.746H157.095V267.809H165.942ZM178.73 267.164V271.134H180.693V272.101H178.73V276.7H177.573V267.164H178.73ZM175.215 268.175C175.215 271.529 172.812 274.02 169.062 275.191L168.564 274.269C171.685 273.294 173.721 271.434 173.97 269.142H169.106V268.175H175.215ZM179.331 278.941V279.908H170.571V275.733H171.714V278.941H179.331ZM192.31 267.164V276.861H191.152V273.082H188.926V272.115H191.152V270.606H188.926V269.654H191.152V267.164H192.31ZM188.823 268.233V269.171H187.49V273.727C188.098 273.69 188.684 273.646 189.248 273.58L189.307 274.444C186.772 274.84 183.799 274.884 181.689 274.884L181.543 273.902C182.063 273.902 182.627 273.895 183.228 273.888V269.171H181.909V268.233H188.823ZM192.661 278.941V279.908H183.916V276.056H185.073V278.941H192.661ZM184.341 273.858C185.007 273.851 185.696 273.829 186.377 273.8V269.171H184.341V273.858ZM205.273 267.164V273.829H204.116V272.467H200.645V271.559H204.116V269.991H200.835C200.015 272.049 197.993 273.434 195.107 274.122L194.697 273.17C197.891 272.43 199.751 270.87 199.971 268.775H195.356V267.823H201.23C201.23 268.255 201.187 268.673 201.113 269.068H204.116V267.164H205.273ZM205.273 274.415V277.594H198.008V279.117H205.713V280.069H196.865V276.715H204.116V275.353H196.836V274.415H205.273ZM218.574 267.164V280.187H217.476V267.164H218.574ZM215.938 267.486V279.513H214.854V272.804H212.656V271.866H214.854V267.486H215.938ZM211.265 270.885C211.265 273.141 212.275 275.382 214.077 276.422L213.374 277.271C212.092 276.502 211.184 275.096 210.737 273.434C210.261 275.228 209.316 276.759 208.013 277.579L207.28 276.715C209.097 275.631 210.151 273.258 210.151 270.885V269.654H207.646V268.702H213.652V269.654H211.265V270.885ZM225.093 269.962C225.093 271.72 226.484 273.302 228.433 273.917L227.847 274.84C226.331 274.327 225.122 273.258 224.536 271.881C223.965 273.368 222.742 274.54 221.196 275.104L220.596 274.181C222.544 273.492 223.936 271.808 223.936 269.962V269.2H220.889V268.263H228.096V269.2H225.093V269.962ZM231.157 267.179V276.729H230.015V267.179H231.157ZM231.567 278.941V279.908H222.749V275.821H223.892V278.941H231.567ZM239.302 276.158C242.158 276.158 243.77 276.847 243.784 278.165C243.77 279.483 242.158 280.172 239.302 280.187C236.416 280.172 234.805 279.483 234.805 278.165C234.805 276.847 236.416 276.158 239.302 276.158ZM239.302 277.008C237.178 277.008 235.977 277.433 235.977 278.165C235.977 278.912 237.178 279.308 239.302 279.308C241.411 279.308 242.612 278.912 242.612 278.165C242.612 277.433 241.411 277.008 239.302 277.008ZM244.546 268.292V269.186H233.984V268.292H238.73V266.974H239.873V268.292H244.546ZM239.302 269.728C241.997 269.728 243.521 270.387 243.521 271.617C243.521 272.848 241.997 273.492 239.302 273.492C236.606 273.492 235.068 272.848 235.068 271.617C235.068 270.387 236.606 269.728 239.302 269.728ZM239.302 270.533C237.383 270.533 236.284 270.929 236.299 271.617C236.284 272.291 237.383 272.672 239.302 272.672C241.206 272.672 242.305 272.291 242.305 271.617C242.305 270.929 241.206 270.533 239.302 270.533ZM245.234 274.356V275.265H233.369V274.356H245.234ZM257.07 267.179V277.066H255.913V275.719H253.218V274.884H255.913V267.179H257.07ZM257.393 278.941V279.908H248.135V276.1H249.292V278.941H257.393ZM246.26 273.214C248.691 273.199 251.943 273.185 254.741 272.833L254.814 273.668C253.65 273.851 252.434 273.968 251.24 274.034V276.612H250.083V274.093C248.765 274.151 247.512 274.159 246.421 274.151L246.26 273.214ZM250.537 267.706C252.441 267.706 253.745 268.614 253.76 269.977C253.745 271.368 252.441 272.232 250.537 272.232C248.618 272.232 247.314 271.368 247.314 269.977C247.314 268.614 248.618 267.706 250.537 267.706ZM250.537 268.585C249.263 268.57 248.398 269.142 248.413 269.977C248.398 270.826 249.263 271.383 250.537 271.383C251.768 271.383 252.646 270.826 252.661 269.977C252.646 269.142 251.768 268.57 250.537 268.585ZM261.436 278.019L260.293 282.003H259.209L260.015 278.019H261.436ZM267.705 274.957C267.72 272.188 268.467 269.889 269.814 267.94H270.928C269.932 269.391 269.009 272.35 269.009 274.957C269.009 277.564 269.932 280.538 270.928 281.988H269.814C268.467 280.025 267.72 277.726 267.705 274.957ZM278.589 269.01C278.574 270.753 280.903 272.232 283.174 272.569L282.749 273.478C280.713 273.133 278.735 272.049 277.944 270.475C277.153 272.049 275.168 273.133 273.169 273.478L272.715 272.569C274.971 272.232 277.3 270.753 277.3 269.01V268.922H273.125V267.984H282.749V268.922H278.589V269.01ZM283.877 274.591V275.543H278.486V280.187H277.358V275.543H272.012V274.591H283.877ZM288.228 274.957C288.213 277.726 287.466 280.025 286.118 281.988H285.005C286.001 280.538 286.924 277.564 286.924 274.957C286.924 272.35 286.001 269.391 285.005 267.94H286.118C287.466 269.889 288.213 272.188 288.228 274.957ZM290.732 279V268.395H292.051V273.639H292.183L296.899 268.395H298.628L294.189 273.185L298.628 279H297.017L293.369 274.093L292.051 275.587V279H290.732ZM300.049 279V268.395H303.77C305.996 268.395 307.036 269.64 307.036 271.207C307.036 272.569 306.23 273.185 305.308 273.434V273.536C306.289 273.595 307.461 274.503 307.461 276.188C307.461 277.784 306.406 279 303.901 279H300.049ZM303.887 277.828C305.542 277.828 306.187 277.096 306.187 276.173C306.187 275.089 305.322 274.181 303.96 274.181H301.367V277.828H303.887ZM303.726 273.038C304.868 273.038 305.776 272.335 305.776 271.222C305.776 270.299 305.161 269.566 303.77 269.566H301.367V273.038H303.726ZM319.048 267.809V268.746C319.048 269.72 319.048 270.885 318.726 272.452H320.615V273.39H315.195V275.792H319.136V280.187H317.979V276.744H309.922V275.792H314.053V273.39H308.691V272.452H317.568C317.905 270.855 317.905 269.72 317.905 268.746H310.2V267.809H319.048ZM328.452 268.307V274.342H322.344V268.307H328.452ZM323.472 269.259V273.419H327.324V269.259H323.472ZM332.407 267.179V276.539H331.265V267.179H332.407ZM332.817 278.795V279.747H323.999V275.631H325.142V278.795H332.817ZM346.484 274.034V274.972H334.619V274.034H346.484ZM345.166 278.941V279.908H336.157V276.114H337.314V278.941H345.166ZM340.552 267.633C343.35 267.618 345.151 268.585 345.151 270.211C345.151 271.837 343.35 272.804 340.552 272.804C337.725 272.804 335.938 271.837 335.938 270.211C335.938 268.585 337.725 267.618 340.552 267.633ZM340.552 268.556C338.457 268.556 337.109 269.186 337.124 270.211C337.109 271.236 338.457 271.866 340.552 271.866C342.632 271.866 343.979 271.236 343.979 270.211C343.979 269.186 342.632 268.556 340.552 268.556ZM358.643 267.164V275.411H357.544V271.676H355.801V274.942H354.717V267.428H355.801V270.724H357.544V267.164H358.643ZM354.189 268.731V269.654H347.51V268.731H350.293V267.267H351.436V268.731H354.189ZM350.864 270.357C352.52 270.357 353.647 271.222 353.662 272.584C353.647 273.917 352.52 274.796 350.864 274.796C349.224 274.796 348.066 273.917 348.081 272.584C348.066 271.222 349.224 270.357 350.864 270.357ZM350.864 271.207C349.824 271.207 349.106 271.764 349.106 272.584C349.106 273.39 349.824 273.932 350.864 273.932C351.904 273.932 352.622 273.39 352.622 272.584C352.622 271.764 351.904 271.207 350.864 271.207ZM354.336 275.631C357.075 275.631 358.716 276.451 358.716 277.916C358.716 279.337 357.075 280.157 354.336 280.157C351.597 280.157 349.956 279.337 349.971 277.916C349.956 276.451 351.597 275.631 354.336 275.631ZM354.336 276.539C352.314 276.524 351.099 277.022 351.113 277.916C351.099 278.766 352.314 279.264 354.336 279.264C356.357 279.264 357.559 278.766 357.573 277.916C357.559 277.022 356.357 276.524 354.336 276.539Z" fill="black"/>
<mask id="path-22-inside-8_308_6396" fill="white">
<path d="M0 291H400V326H0V291Z"/>
</mask>
<path d="M0 291H400V326H0V291Z" fill="white"/>
<path d="M400 326V327H401V326H400ZM399 291V326H401V291H399ZM400 325H0V327H400V325Z" fill="#495057" mask="url(#path-22-inside-8_308_6396)"/>
<path d="M185.688 302.179V309.796H184.59V302.179H185.688ZM183.081 302.457V309.664H181.982V305.812H179.17V304.859H181.982V302.457H183.081ZM176.445 303.102V307.994C177.837 307.987 179.163 307.914 180.737 307.613L180.869 308.536C179.126 308.888 177.69 308.961 176.123 308.961H175.303V303.102H176.445ZM185.688 310.44V315.187H184.561V311.393H176.87V310.44H185.688ZM194.053 304.083C194.053 306.31 196.602 308.302 198.872 308.727L198.345 309.693C196.382 309.239 194.309 307.84 193.467 305.914C192.625 307.833 190.559 309.232 188.589 309.693L188.062 308.727C190.317 308.287 192.852 306.324 192.852 304.083V303.087H194.053V304.083ZM199.487 312.462V313.414H187.563V312.462H199.487ZM211.294 302.164V315.187H210.137V302.164H211.294ZM208.291 303.585V304.537H206.812V310.807C207.544 310.755 208.269 310.689 208.965 310.602L209.038 311.466C206.196 311.905 203.062 311.949 200.645 311.964L200.513 310.982C201.077 310.982 201.685 310.982 202.314 310.968V304.537H200.85V303.585H208.291ZM203.442 310.953C204.175 310.938 204.929 310.909 205.684 310.865V304.537H203.442V310.953ZM216.978 303.175C218.896 303.189 220.259 304.947 220.273 307.716C220.259 310.484 218.896 312.242 216.978 312.242C215.044 312.242 213.696 310.484 213.696 307.716C213.696 304.947 215.044 303.189 216.978 303.175ZM216.978 304.2C215.688 304.215 214.78 305.592 214.78 307.716C214.78 309.84 215.688 311.217 216.978 311.217C218.281 311.217 219.16 309.84 219.16 307.716C219.16 305.592 218.281 304.215 216.978 304.2ZM223.569 302.164V307.364H225.752V308.36H223.569V315.187H222.427V302.164H223.569Z" fill="black"/>
<mask id="path-25-inside-9_308_6396" fill="white">
<path d="M400 0H800V35H400V0Z"/>
</mask>
<path d="M400 0H800V35H400V0Z" fill="black"/>
<path d="M799 0V35H801V0H799Z" fill="white" mask="url(#path-25-inside-9_308_6396)"/>
<path d="M578.833 11.6475C580.84 11.6328 582.305 12.7754 582.305 14.4307C582.305 16.0566 580.84 17.2139 578.833 17.1992C576.841 17.2139 575.391 16.0566 575.391 14.4307C575.391 12.7754 576.841 11.6328 578.833 11.6475ZM578.833 12.9658C577.749 12.9512 576.958 13.5225 576.973 14.4307C576.958 15.3242 577.749 15.8662 578.833 15.8662C579.961 15.8662 580.752 15.3242 580.752 14.4307C580.752 13.5225 579.961 12.9512 578.833 12.9658ZM585.586 11.0762V24.2891H583.975V11.0762H585.586ZM574.526 18.1074C576.914 18.1074 580.254 18.0635 583.11 17.6387L583.228 18.8398C582.085 19.0596 580.898 19.1987 579.741 19.2793V23.8936H578.101V19.3818C576.877 19.4331 575.728 19.4404 574.731 19.4551L574.526 18.1074ZM594.214 11.9551V13.2588H589.644V14.5625H593.95V15.8223H589.644V17.1992C591.936 17.1919 593.364 17.1187 594.976 16.8184L595.151 18.1221C593.35 18.4297 591.782 18.4883 589.072 18.4883H588.018V11.9551H594.214ZM597.92 11.0615V14.3867H599.766V15.7637H597.92V19.0742H596.294V11.0615H597.92ZM597.92 19.6602V24.3037H596.294V20.9639H589.102V19.6602H597.92ZM604.116 11.6475C605.83 11.6328 607.178 12.6216 607.515 14.0791H609.902V11.0615H611.528V18.166H609.902V15.3975H607.529C607.2 16.8843 605.837 17.8877 604.116 17.8877C602.08 17.8877 600.615 16.584 600.615 14.7529C600.615 12.9512 602.08 11.6328 604.116 11.6475ZM604.116 13.0098C602.974 13.0098 602.168 13.6836 602.168 14.7529C602.168 15.8076 602.974 16.5107 604.116 16.5107C605.229 16.5107 606.021 15.8076 606.035 14.7529C606.021 13.6836 605.229 13.0098 604.116 13.0098ZM604.409 18.7812V20.1875H609.902V18.7812H611.528V24.1426H602.798V18.7812H604.409ZM604.409 22.8242H609.902V21.4473H604.409V22.8242ZM625.488 18.5615V19.8799H620.215V24.2891H618.604V19.8799H613.389V18.5615H625.488ZM624.009 11.7354V17.0088H614.868V11.7354H624.009ZM616.465 13.0391V15.7344H622.383V13.0391H616.465Z" fill="white"/>
<mask id="path-28-inside-10_308_6396" fill="white">
<path d="M400 35H800V70H400V35Z"/>
</mask>
<path d="M400 35H800V70H400V35Z" fill="white"/>
<path d="M800 69H400V71H800V69Z" fill="#495057" mask="url(#path-28-inside-10_308_6396)"/>
<path d="M552.217 52.8291V53.7812H546.914V56.4473H545.771V53.7812H540.293V52.8291H552.217ZM550.664 46.8086V51.335H541.846V46.8086H550.664ZM542.974 47.7168V50.4121H549.521V47.7168H542.974ZM550.884 57.9414V58.9082H541.816V55.1582H542.974V57.9414H550.884ZM557.681 50.1631C557.666 52.2578 559.175 54.5576 561.064 55.4512L560.405 56.3594C558.94 55.6489 557.703 54.0962 557.124 52.3311C556.523 54.25 555.212 55.9346 553.755 56.6816L553.052 55.7734C554.927 54.8652 556.538 52.3896 556.553 50.1631V48.4639H553.521V47.5117H560.61V48.4639H557.681V50.1631ZM563.35 46.1641V51.4375H565.532V52.4189H563.35V59.1865H562.207V46.1641H563.35ZM571.699 47.6875V51.0859H573.677V46.4424H574.775V58.5273H573.677V52.0381H571.699V55.6855H566.719V47.6875H571.699ZM567.803 48.6104V54.7627H570.615V48.6104H567.803ZM577.397 46.1641V59.1865H576.284V46.1641H577.397ZM583.066 49.8701C583.066 51.9355 584.077 54.1768 585.806 55.2021L585.146 56.0957C583.894 55.334 582.993 53.9424 582.539 52.3604C582.056 54.0889 581.089 55.5757 579.785 56.374L579.053 55.5098C580.854 54.4551 581.953 52.1406 581.953 49.9141V47.3945H583.066V49.8701ZM590.361 46.1641V59.1865H589.248V46.1641H590.361ZM587.666 46.4424V58.5273H586.582V51.8184H584.37V50.8369H586.582V46.4424H587.666ZM596.821 50.1631C596.821 52.375 598.433 54.6162 600.352 55.4512L599.707 56.3594C598.184 55.6636 596.865 54.1621 596.265 52.3604C595.649 54.272 594.338 55.9346 592.852 56.6816L592.163 55.7734C594.023 54.8799 595.649 52.4189 595.664 50.1631V48.4639H592.588V47.5117H599.927V48.4639H596.821V50.1631ZM602.9 46.1641V59.1865H601.743V46.1641H602.9ZM610.576 46.7207V48.5957H614.37V46.7207H615.513V52.3896H609.448V46.7207H610.576ZM610.576 51.4521H614.37V49.4893H610.576V51.4521ZM619.072 46.1641V48.9912H621.035V49.958H619.072V52.9023H617.93V46.1641H619.072ZM619.072 53.5176V56.667H611.924V58.1025H619.556V59.04H610.796V55.7881H617.93V54.4404H610.767V53.5176H619.072ZM628.345 50.7197V52.6387H633.721V53.5762H621.855V52.6387H627.217V50.7197H628.345ZM628.359 46.9844C628.359 48.7129 630.703 50.1631 633.003 50.4854L632.534 51.4082C630.557 51.064 628.601 50.0166 627.788 48.5078C626.968 50.0239 625.005 51.064 623.013 51.4082L622.573 50.4854C624.873 50.1631 627.202 48.7129 627.202 46.9844V46.3691H628.359V46.9844ZM627.788 54.6602C630.586 54.6602 632.256 55.4658 632.271 56.916C632.256 58.3662 630.586 59.1572 627.788 59.1572C624.961 59.1572 623.291 58.3662 623.291 56.916C623.291 55.4658 624.961 54.6602 627.788 54.6602ZM627.788 55.5684C625.679 55.5684 624.448 56.0518 624.463 56.916C624.448 57.7656 625.679 58.2637 627.788 58.2637C629.868 58.2637 631.113 57.7656 631.113 56.916C631.113 56.0518 629.868 55.5684 627.788 55.5684ZM638.408 46.7793C640.159 46.7646 641.484 47.7827 641.733 49.2842H644.458V46.1641H645.615V53.1514H644.458V50.2363H641.748C641.514 51.7744 640.173 52.7998 638.408 52.7998C636.431 52.7998 635.024 51.5693 635.024 49.7822C635.024 48.0098 636.431 46.7646 638.408 46.7793ZM638.408 47.7607C637.075 47.7461 636.123 48.5811 636.123 49.7822C636.123 50.9688 637.075 51.833 638.408 51.833C639.727 51.833 640.664 50.9688 640.664 49.7822C640.664 48.5811 639.727 47.7461 638.408 47.7607ZM638.379 53.8105V55.4658H644.458V53.8105H645.615V59.0107H637.222V53.8105H638.379ZM638.379 58.0732H644.458V56.3887H638.379V58.0732ZM659.692 53.7373V54.6895H654.258V59.1865H653.13V54.6895H647.769V53.7373H659.692ZM658.14 46.8965V51.9648H649.307V46.8965H658.14ZM650.435 47.834V51.0566H656.997V47.834H650.435Z" fill="black"/>
<mask id="path-31-inside-11_308_6396" fill="white">
<path d="M400 70H800V105H400V70Z"/>
</mask>
<path d="M400 70H800V105H400V70Z" fill="white"/>
<path d="M800 104H400V106H800V104Z" fill="#495057" mask="url(#path-31-inside-11_308_6396)"/>
<path d="M538.696 82.5264C538.682 86.291 537.407 89.7334 532.72 92.0332L532.075 91.1543C534.529 89.9678 536.001 88.459 536.792 86.7012L532.324 87.126L532.134 86.1152L537.144 85.7783C537.371 85.0459 537.502 84.2769 537.554 83.4785H532.793V82.5264H538.696ZM542.021 81.1641V86.4668H544.131V87.4336H542.021V94.1865H540.879V81.1641H542.021ZM551.66 82.5264C551.646 86.291 550.371 89.7334 545.684 92.0332L545.039 91.1543C547.493 89.9678 548.965 88.459 549.756 86.7012L545.288 87.126L545.098 86.1152L550.107 85.7783C550.334 85.0459 550.466 84.2769 550.518 83.4785H545.757V82.5264H551.66ZM554.985 81.1641V86.4668H557.095V87.4336H554.985V94.1865H553.843V81.1641H554.985ZM563.804 82.0137C566.572 82.0283 568.564 83.376 568.564 85.4268C568.564 87.3677 566.836 88.6567 564.36 88.8105V91.5498H569.795V92.5166H557.871V91.5498H563.232V88.8105C560.764 88.6494 559.043 87.3604 559.043 85.4268C559.043 83.376 561.035 82.0283 563.804 82.0137ZM563.804 82.9658C561.694 82.9658 560.156 83.9619 560.156 85.4268C560.156 86.9355 561.694 87.9023 563.804 87.917C565.913 87.9023 567.451 86.9355 567.451 85.4268C567.451 83.9619 565.913 82.9658 563.804 82.9658ZM584.78 81.1641V83.9912H586.743V84.958H584.78V87.7998H583.638V81.1641H584.78ZM584.78 88.415V91.5938H577.632V93.0879H585.264V94.0107H576.504V90.7148H583.638V89.3379H576.475V88.415H584.78ZM578.232 81.6475C580.195 81.6621 581.616 82.834 581.616 84.5332C581.616 86.2471 580.195 87.4336 578.232 87.4336C576.284 87.4336 574.834 86.2471 574.849 84.5332C574.834 82.834 576.284 81.6621 578.232 81.6475ZM578.232 82.6143C576.929 82.5996 575.962 83.4053 575.977 84.5332C575.962 85.6758 576.929 86.4961 578.232 86.4961C579.536 86.4961 580.488 85.6758 580.488 84.5332C580.488 83.4053 579.536 82.5996 578.232 82.6143ZM598.315 81.1787V88.8984H597.173V81.1787H598.315ZM594.17 81.9697V85.5H589.365V87.3018C591.694 87.3164 593.438 87.2432 595.547 86.8916L595.679 87.8584C593.496 88.1953 591.709 88.2686 589.307 88.2686H588.252V84.5918H593.027V82.8926H588.223V81.9697H594.17ZM598.315 89.6016V94.0107H589.849V89.6016H598.315ZM590.977 90.5391V93.0732H597.188V90.5391H590.977ZM612.393 88.1953V89.1328H600.513V88.1953H605.874V86.8037H602.095V81.5156H610.913V82.4385H603.252V83.6836H610.562V84.5771H603.252V85.9102H610.986V86.8037H607.017V88.1953H612.393ZM610.854 90.29V94.1865H609.683V91.2275H601.846V90.29H610.854ZM618.94 81.7207V83.5957H622.734V81.7207H623.877V87.3896H617.812V81.7207H618.94ZM618.94 86.4521H622.734V84.4893H618.94V86.4521ZM627.437 81.1641V83.9912H629.399V84.958H627.437V87.9023H626.294V81.1641H627.437ZM627.437 88.5176V91.667H620.288V93.1025H627.92V94.04H619.16V90.7881H626.294V89.4404H619.131V88.5176H627.437ZM636.709 85.7197V87.6387H642.085V88.5762H630.22V87.6387H635.581V85.7197H636.709ZM636.724 81.9844C636.724 83.7129 639.067 85.1631 641.367 85.4854L640.898 86.4082C638.921 86.064 636.965 85.0166 636.152 83.5078C635.332 85.0239 633.369 86.064 631.377 86.4082L630.938 85.4854C633.237 85.1631 635.566 83.7129 635.566 81.9844V81.3691H636.724V81.9844ZM636.152 89.6602C638.95 89.6602 640.62 90.4658 640.635 91.916C640.62 93.3662 638.95 94.1572 636.152 94.1572C633.325 94.1572 631.655 93.3662 631.655 91.916C631.655 90.4658 633.325 89.6602 636.152 89.6602ZM636.152 90.5684C634.043 90.5684 632.812 91.0518 632.827 91.916C632.812 92.7656 634.043 93.2637 636.152 93.2637C638.232 93.2637 639.478 92.7656 639.478 91.916C639.478 91.0518 638.232 90.5684 636.152 90.5684ZM646.772 81.7793C648.523 81.7646 649.849 82.7827 650.098 84.2842H652.822V81.1641H653.979V88.1514H652.822V85.2363H650.112C649.878 86.7744 648.538 87.7998 646.772 87.7998C644.795 87.7998 643.389 86.5693 643.389 84.7822C643.389 83.0098 644.795 81.7646 646.772 81.7793ZM646.772 82.7607C645.439 82.7461 644.487 83.5811 644.487 84.7822C644.487 85.9688 645.439 86.833 646.772 86.833C648.091 86.833 649.028 85.9688 649.028 84.7822C649.028 83.5811 648.091 82.7461 646.772 82.7607ZM646.743 88.8105V90.4658H652.822V88.8105H653.979V94.0107H645.586V88.8105H646.743ZM646.743 93.0732H652.822V91.3887H646.743V93.0732ZM668.057 88.7373V89.6895H662.622V94.1865H661.494V89.6895H656.133V88.7373H668.057ZM666.504 81.8965V86.9648H657.671V81.8965H666.504ZM658.799 82.834V86.0566H665.361V82.834H658.799Z" fill="black"/>
<mask id="path-34-inside-12_308_6396" fill="white">
<path d="M400 105H800V140H400V105Z"/>
</mask>
<path d="M400 105H800V140H400V105Z" fill="white"/>
<path d="M800 139H400V141H800V139Z" fill="#495057" mask="url(#path-34-inside-12_308_6396)"/>
<path d="M563.35 116.164V121.467H565.459V122.434H563.35V129.187H562.207V116.164H563.35ZM559.98 117.57C559.98 121.262 558.252 124.616 554.004 126.711L553.359 125.803C556.729 124.125 558.56 121.621 558.823 118.537H553.96V117.57H559.98ZM570.586 118.273C570.586 120.046 571.934 121.672 573.823 122.316L573.193 123.225C571.75 122.697 570.615 121.621 570.044 120.266C569.487 121.796 568.33 123.005 566.807 123.591L566.191 122.668C568.14 121.936 569.443 120.192 569.458 118.186V116.838H570.586V118.273ZM576.416 116.164V119.562H578.379V120.529H576.416V124.089H575.273V116.164H576.416ZM572.241 124.426C574.922 124.426 576.533 125.29 576.533 126.784C576.533 128.308 574.922 129.157 572.241 129.157C569.561 129.157 567.92 128.308 567.92 126.784C567.92 125.29 569.561 124.426 572.241 124.426ZM572.241 125.349C570.278 125.349 569.062 125.891 569.077 126.784C569.062 127.707 570.278 128.234 572.241 128.249C574.219 128.234 575.42 127.707 575.42 126.784C575.42 125.891 574.219 125.349 572.241 125.349ZM590.347 116.164V129.187H589.248V116.164H590.347ZM587.71 116.516V128.527H586.611V124.016H584.194V123.063H586.611V120.749H584.414C583.777 122.954 582.349 124.902 579.888 126.374L579.185 125.539C582.019 123.862 583.44 121.511 583.667 118.786H579.771V117.834H584.81C584.81 118.5 584.751 119.16 584.634 119.797H586.611V116.516H587.71ZM596.733 118.508C596.719 120.163 598.066 121.628 599.971 122.214L599.429 123.122C597.913 122.639 596.726 121.643 596.162 120.324C595.591 121.752 594.368 122.829 592.822 123.342L592.222 122.434C594.185 121.818 595.562 120.295 595.576 118.508V118.347H592.617V117.38H599.663V118.347H596.733V118.508ZM596.733 122.8V125.407C597.92 125.363 599.128 125.268 600.249 125.114L600.322 125.964C597.524 126.462 594.448 126.462 592.178 126.462L592.002 125.495C593.057 125.495 594.287 125.495 595.576 125.451V122.8H596.733ZM604.351 121.584V122.565H602.227V129.187H601.084V116.164H602.227V121.584H604.351ZM613.477 119.665C613.477 122.023 614.985 124.396 616.875 125.261L616.187 126.198C614.707 125.437 613.484 123.876 612.905 122.023C612.327 123.972 611.104 125.642 609.624 126.433L608.877 125.51C610.781 124.572 612.305 122.067 612.305 119.665V117.292H613.477V119.665ZM619.688 116.164V129.216H618.545V121.555H615.454V120.617H618.545V116.164H619.688ZM632.593 116.164V129.216H631.436V116.164H632.593ZM623.76 117.277V120.72H627.642V117.277H628.77V126.066H622.617V117.277H623.76ZM623.76 125.1H627.642V121.643H623.76V125.1ZM641.309 118.083C641.309 120.31 643.857 122.302 646.128 122.727L645.601 123.693C643.638 123.239 641.565 121.84 640.723 119.914C639.88 121.833 637.815 123.232 635.845 123.693L635.317 122.727C637.573 122.287 640.107 120.324 640.107 118.083V117.087H641.309V118.083ZM646.743 126.462V127.414H634.819V126.462H646.743Z" fill="black"/>
<mask id="path-37-inside-13_308_6396" fill="white">
<path d="M400 140H800V175H400V140Z"/>
</mask>
<path d="M400 140H800V175H400V140Z" fill="white"/>
<path d="M800 174H400V176H800V174Z" fill="#495057" mask="url(#path-37-inside-13_308_6396)"/>
<path d="M564.067 151.164V157.829H562.91V156.467H559.438V155.559H562.91V153.991H559.629C558.809 156.049 556.787 157.434 553.901 158.122L553.491 157.17C556.685 156.43 558.545 154.87 558.765 152.775H554.15V151.823H560.024C560.024 152.255 559.98 152.673 559.907 153.068H562.91V151.164H564.067ZM564.067 158.415V161.594H556.802V163.117H564.507V164.069H555.659V160.715H562.91V159.353H555.63V158.415H564.067ZM577.368 151.164V164.187H576.27V151.164H577.368ZM574.731 151.486V163.513H573.647V156.804H571.45V155.866H573.647V151.486H574.731ZM570.059 154.885C570.059 157.141 571.069 159.382 572.871 160.422L572.168 161.271C570.886 160.502 569.978 159.096 569.531 157.434C569.055 159.228 568.11 160.759 566.807 161.579L566.074 160.715C567.891 159.631 568.945 157.258 568.945 154.885V153.654H566.44V152.702H572.446V153.654H570.059V154.885ZM590.332 151.164V164.187H589.233V157.36H587.314V163.513H586.26V151.457H587.314V156.408H589.233V151.164H590.332ZM584.561 152.761V153.713H580.825V159.982C582.62 159.975 583.865 159.909 585.308 159.616L585.41 160.583C583.843 160.905 582.51 160.964 580.518 160.964H579.683V152.761H584.561ZM603.223 151.164V159.411H602.124V155.676H600.381V158.942H599.297V151.428H600.381V154.724H602.124V151.164H603.223ZM598.77 152.731V153.654H592.09V152.731H594.873V151.267H596.016V152.731H598.77ZM595.444 154.357C597.1 154.357 598.228 155.222 598.242 156.584C598.228 157.917 597.1 158.796 595.444 158.796C593.804 158.796 592.646 157.917 592.661 156.584C592.646 155.222 593.804 154.357 595.444 154.357ZM595.444 155.207C594.404 155.207 593.687 155.764 593.687 156.584C593.687 157.39 594.404 157.932 595.444 157.932C596.484 157.932 597.202 157.39 597.202 156.584C597.202 155.764 596.484 155.207 595.444 155.207ZM598.916 159.631C601.655 159.631 603.296 160.451 603.296 161.916C603.296 163.337 601.655 164.157 598.916 164.157C596.177 164.157 594.536 163.337 594.551 161.916C594.536 160.451 596.177 159.631 598.916 159.631ZM598.916 160.539C596.895 160.524 595.679 161.022 595.693 161.916C595.679 162.766 596.895 163.264 598.916 163.264C600.938 163.264 602.139 162.766 602.153 161.916C602.139 161.022 600.938 160.524 598.916 160.539ZM613.477 154.665C613.477 157.023 614.985 159.396 616.875 160.261L616.187 161.198C614.707 160.437 613.484 158.876 612.905 157.023C612.327 158.972 611.104 160.642 609.624 161.433L608.877 160.51C610.781 159.572 612.305 157.067 612.305 154.665V152.292H613.477V154.665ZM619.688 151.164V164.216H618.545V156.555H615.454V155.617H618.545V151.164H619.688ZM632.593 151.164V164.216H631.436V151.164H632.593ZM623.76 152.277V155.72H627.642V152.277H628.77V161.066H622.617V152.277H623.76ZM623.76 160.1H627.642V156.643H623.76V160.1ZM641.309 153.083C641.309 155.31 643.857 157.302 646.128 157.727L645.601 158.693C643.638 158.239 641.565 156.84 640.723 154.914C639.88 156.833 637.815 158.232 635.845 158.693L635.317 157.727C637.573 157.287 640.107 155.324 640.107 153.083V152.087H641.309V153.083ZM646.743 161.462V162.414H634.819V161.462H646.743Z" fill="black"/>
<mask id="path-40-inside-14_308_6396" fill="white">
<path d="M400 175H800V233H400V175Z"/>
</mask>
<path d="M400 175H800V233H400V175Z" fill="white"/>
<path d="M800 232H400V234H800V232Z" fill="#495057" mask="url(#path-40-inside-14_308_6396)"/>
<path d="M557.534 198.514C559.585 198.528 561.035 199.759 561.035 201.575C561.035 203.216 559.849 204.38 558.105 204.578V206.805C559.395 206.739 560.706 206.629 561.943 206.438L562.031 207.288C559.058 207.845 555.85 207.859 553.506 207.859L553.345 206.893C554.407 206.893 555.645 206.893 556.948 206.849V204.578C555.205 204.373 554.004 203.216 554.019 201.575C554.004 199.759 555.483 198.528 557.534 198.514ZM557.534 199.524C556.143 199.524 555.132 200.359 555.146 201.575C555.132 202.791 556.143 203.641 557.534 203.626C558.911 203.641 559.907 202.791 559.907 201.575C559.907 200.359 558.911 199.524 557.534 199.524ZM563.95 197.664V210.716H562.808V197.664H563.95ZM572.812 199.51C572.798 201.253 575.127 202.732 577.397 203.069L576.973 203.978C574.937 203.633 572.959 202.549 572.168 200.975C571.377 202.549 569.392 203.633 567.393 203.978L566.938 203.069C569.194 202.732 571.523 201.253 571.523 199.51V199.422H567.349V198.484H576.973V199.422H572.812V199.51ZM578.101 205.091V206.043H572.71V210.687H571.582V206.043H566.235V205.091H578.101ZM580.781 198.909V202.088H583.608V198.909H584.678V207.435H579.683V198.909H580.781ZM580.781 206.482H583.608V203.025H580.781V206.482ZM590.361 197.664V210.687H589.248V203.787H587.432V210.027H586.333V197.942H587.432V202.835H589.248V197.664H590.361ZM598.652 202.22V204.139H604.028V205.076H592.163V204.139H597.524V202.22H598.652ZM598.667 198.484C598.667 200.213 601.011 201.663 603.311 201.985L602.842 202.908C600.864 202.564 598.909 201.517 598.096 200.008C597.275 201.524 595.312 202.564 593.32 202.908L592.881 201.985C595.181 201.663 597.51 200.213 597.51 198.484V197.869H598.667V198.484ZM598.096 206.16C600.894 206.16 602.563 206.966 602.578 208.416C602.563 209.866 600.894 210.657 598.096 210.657C595.269 210.657 593.599 209.866 593.599 208.416C593.599 206.966 595.269 206.16 598.096 206.16ZM598.096 207.068C595.986 207.068 594.756 207.552 594.771 208.416C594.756 209.266 595.986 209.764 598.096 209.764C600.176 209.764 601.421 209.266 601.421 208.416C601.421 207.552 600.176 207.068 598.096 207.068ZM613.477 201.165C613.477 203.523 614.985 205.896 616.875 206.761L616.187 207.698C614.707 206.937 613.484 205.376 612.905 203.523C612.327 205.472 611.104 207.142 609.624 207.933L608.877 207.01C610.781 206.072 612.305 203.567 612.305 201.165V198.792H613.477V201.165ZM619.688 197.664V210.716H618.545V203.055H615.454V202.117H618.545V197.664H619.688ZM632.593 197.664V210.716H631.436V197.664H632.593ZM623.76 198.777V202.22H627.642V198.777H628.77V207.566H622.617V198.777H623.76ZM623.76 206.6H627.642V203.143H623.76V206.6ZM641.309 199.583C641.309 201.81 643.857 203.802 646.128 204.227L645.601 205.193C643.638 204.739 641.565 203.34 640.723 201.414C639.88 203.333 637.815 204.732 635.845 205.193L635.317 204.227C637.573 203.787 640.107 201.824 640.107 199.583V198.587H641.309V199.583ZM646.743 207.962V208.914H634.819V207.962H646.743Z" fill="black"/>
<mask id="path-43-inside-15_308_6396" fill="white">
<path d="M400 233H800V291H400V233Z"/>
</mask>
<path d="M400 233H800V291H400V233Z" fill="white"/>
<path d="M800 290H400V292H800V290Z" fill="#495057" mask="url(#path-43-inside-15_308_6396)"/>
<path d="M563.452 255.664V259.634H565.415V260.601H563.452V265.2H562.295V255.664H563.452ZM559.937 256.675C559.937 260.029 557.534 262.52 553.784 263.691L553.286 262.769C556.406 261.794 558.442 259.934 558.691 257.642H553.828V256.675H559.937ZM564.053 267.441V268.408H555.293V264.233H556.436V267.441H564.053ZM577.031 255.664V265.361H575.874V261.582H573.647V260.615H575.874V259.106H573.647V258.154H575.874V255.664H577.031ZM573.545 256.733V257.671H572.212V262.227C572.82 262.19 573.406 262.146 573.97 262.08L574.028 262.944C571.494 263.34 568.521 263.384 566.411 263.384L566.265 262.402C566.785 262.402 567.349 262.395 567.949 262.388V257.671H566.631V256.733H573.545ZM577.383 267.441V268.408H568.638V264.556H569.795V267.441H577.383ZM569.062 262.358C569.729 262.351 570.417 262.329 571.099 262.3V257.671H569.062V262.358ZM589.995 255.664V262.329H588.838V260.967H585.366V260.059H588.838V258.491H585.557C584.736 260.549 582.715 261.934 579.829 262.622L579.419 261.67C582.612 260.93 584.473 259.37 584.692 257.275H580.078V256.323H585.952C585.952 256.755 585.908 257.173 585.835 257.568H588.838V255.664H589.995ZM589.995 262.915V266.094H582.729V267.617H590.435V268.569H581.587V265.215H588.838V263.853H581.558V262.915H589.995ZM603.296 255.664V268.687H602.197V255.664H603.296ZM600.659 255.986V268.013H599.575V261.304H597.378V260.366H599.575V255.986H600.659ZM595.986 259.385C595.986 261.641 596.997 263.882 598.799 264.922L598.096 265.771C596.814 265.002 595.906 263.596 595.459 261.934C594.983 263.728 594.038 265.259 592.734 266.079L592.002 265.215C593.818 264.131 594.873 261.758 594.873 259.385V258.154H592.368V257.202H598.374V258.154H595.986V259.385ZM613.477 259.165C613.477 261.523 614.985 263.896 616.875 264.761L616.187 265.698C614.707 264.937 613.484 263.376 612.905 261.523C612.327 263.472 611.104 265.142 609.624 265.933L608.877 265.01C610.781 264.072 612.305 261.567 612.305 259.165V256.792H613.477V259.165ZM619.688 255.664V268.716H618.545V261.055H615.454V260.117H618.545V255.664H619.688ZM632.593 255.664V268.716H631.436V255.664H632.593ZM623.76 256.777V260.22H627.642V256.777H628.77V265.566H622.617V256.777H623.76ZM623.76 264.6H627.642V261.143H623.76V264.6ZM641.309 257.583C641.309 259.81 643.857 261.802 646.128 262.227L645.601 263.193C643.638 262.739 641.565 261.34 640.723 259.414C639.88 261.333 637.815 262.732 635.845 263.193L635.317 262.227C637.573 261.787 640.107 259.824 640.107 257.583V256.587H641.309V257.583ZM646.743 265.962V266.914H634.819V265.962H646.743Z" fill="black"/>
<mask id="path-46-inside-16_308_6396" fill="white">
<path d="M400 291H800V326H400V291Z"/>
</mask>
<path d="M400 291H800V326H400V291Z" fill="white"/>
<path d="M800 325H400V327H800V325Z" fill="#495057" mask="url(#path-46-inside-16_308_6396)"/>
<path d="M541.846 314.146C539.487 314.146 538.14 312.169 538.14 308.697C538.14 305.255 539.517 303.248 541.846 303.248C544.175 303.248 545.552 305.255 545.552 308.697C545.552 312.169 544.189 314.146 541.846 314.146ZM541.846 312.975C543.369 312.975 544.263 311.437 544.263 308.697C544.263 305.958 543.369 304.391 541.846 304.391C540.322 304.391 539.414 305.958 539.414 308.697C539.414 311.437 540.308 312.975 541.846 312.975ZM550.854 314.146C548.628 314.146 547.075 312.916 547.09 311.188C547.075 309.811 548.027 308.683 549.243 308.492V308.434C548.188 308.185 547.5 307.218 547.5 306.061C547.5 304.435 548.921 303.248 550.854 303.248C552.788 303.248 554.209 304.435 554.224 306.061C554.209 307.218 553.506 308.185 552.466 308.434V308.492C553.667 308.683 554.619 309.811 554.634 311.188C554.619 312.916 553.066 314.146 550.854 314.146ZM550.854 312.989C552.378 312.989 553.315 312.228 553.315 311.114C553.315 309.942 552.275 309.078 550.854 309.078C549.434 309.078 548.379 309.942 548.408 311.114C548.379 312.228 549.331 312.989 550.854 312.989ZM550.854 307.965C552.056 307.965 552.935 307.232 552.935 306.163C552.935 305.108 552.1 304.391 550.854 304.391C549.595 304.391 548.774 305.108 548.774 306.163C548.774 307.232 549.639 307.965 550.854 307.965ZM559.878 314.146C557.52 314.146 556.172 312.169 556.172 308.697C556.172 305.255 557.549 303.248 559.878 303.248C562.207 303.248 563.584 305.255 563.584 308.697C563.584 312.169 562.222 314.146 559.878 314.146ZM559.878 312.975C561.401 312.975 562.295 311.437 562.295 308.697C562.295 305.958 561.401 304.391 559.878 304.391C558.354 304.391 557.446 305.958 557.446 308.697C557.446 311.437 558.34 312.975 559.878 312.975ZM575.171 303.38C575.171 305.211 577.573 306.808 579.917 307.13L579.448 308.067C577.427 307.73 575.427 306.61 574.585 305.006C573.75 306.617 571.743 307.73 569.722 308.067L569.253 307.13C571.597 306.808 573.984 305.24 573.984 303.38V302.633H575.171V303.38ZM580.503 309.503V310.47H575.112V315.187H573.984V310.47H568.638V309.503H580.503ZM592.354 302.179V311.729H591.211V302.179H592.354ZM592.764 313.941V314.908H583.945V310.851H585.088V313.941H592.764ZM586.216 304.215C586.201 306.192 587.563 307.979 589.497 308.683L588.896 309.605C587.388 309.027 586.216 307.855 585.645 306.354C585.066 307.95 583.879 309.232 582.363 309.84L581.733 308.946C583.711 308.185 585.044 306.266 585.044 304.215V302.911H586.216V304.215ZM605.347 302.164V315.187H604.204V308.36H601.099V307.408H604.204V302.164H605.347ZM601.128 303.585C601.128 307.276 599.561 310.558 595.21 312.711L594.58 311.788C598.11 310.082 599.744 307.577 599.971 304.522H595.151V303.585H601.128ZM619.438 309.898V310.836H614.004V315.187H612.876V310.836H607.515V309.898H619.438ZM610.181 302.706V304.508H616.743V302.706H617.9V308.316H609.038V302.706H610.181ZM610.181 307.379H616.743V305.445H610.181V307.379ZM628.843 305.665C628.843 308.023 630.352 310.396 632.241 311.261L631.553 312.198C630.073 311.437 628.85 309.876 628.271 308.023C627.693 309.972 626.47 311.642 624.99 312.433L624.243 311.51C626.147 310.572 627.671 308.067 627.671 305.665V303.292H628.843V305.665ZM635.054 302.164V315.216H633.911V307.555H630.82V306.617H633.911V302.164H635.054ZM647.959 302.164V315.216H646.802V302.164H647.959ZM639.126 303.277V306.72H643.008V303.277H644.136V312.066H637.983V303.277H639.126ZM639.126 311.1H643.008V307.643H639.126V311.1ZM656.675 304.083C656.675 306.31 659.224 308.302 661.494 308.727L660.967 309.693C659.004 309.239 656.931 307.84 656.089 305.914C655.247 307.833 653.181 309.232 651.211 309.693L650.684 308.727C652.939 308.287 655.474 306.324 655.474 304.083V303.087H656.675V304.083ZM662.109 312.462V313.414H650.186V312.462H662.109Z" fill="black"/>
</svg>
