<svg width="800" height="221" viewBox="0 0 800 221" fill="none" xmlns="http://www.w3.org/2000/svg">
<mask id="path-1-inside-1_308_6206" fill="white">
<path d="M0 0H266.667V35H0V0Z"/>
</mask>
<path d="M0 0H266.667V35H0V0Z" fill="black"/>
<path d="M265.667 0V35H267.667V0H265.667Z" fill="white" mask="url(#path-1-inside-1_308_6206)"/>
<path d="M117.11 11.0615V17.8877H115.484V11.0615H117.11ZM117.11 18.4443V21.8574H109.874V22.8975H117.535V24.1865H108.263V20.6709H115.499V19.7188H108.233V18.4443H117.11ZM113.829 11.9111V13.1709H112.643V16.0566C113.243 16.0054 113.829 15.9468 114.386 15.8809L114.459 17.0527C111.822 17.4629 108.775 17.5508 106.461 17.5508L106.285 16.2617C106.761 16.2617 107.267 16.2544 107.794 16.2471V13.1709H106.637V11.9111H113.829ZM109.361 16.2178C109.933 16.2031 110.511 16.1812 111.09 16.1445V13.1709H109.361V16.2178ZM125.929 12.1602C125.929 13.8301 127.789 15.5146 130.616 15.8809L129.972 17.1992C127.723 16.8623 125.936 15.7563 125.079 14.2549C124.208 15.7563 122.428 16.8623 120.201 17.1992L119.557 15.8809C122.354 15.5146 124.215 13.8301 124.215 12.1602V11.4863H125.929V12.1602ZM131.1 18.3418V19.6895H125.841V24.3037H124.229V19.6895H119.029V18.3418H131.1ZM139.171 12.0283C140.372 12.0283 141.361 12.6948 141.954 13.8594H145.045V11.0615H146.656V24.3184H145.045V19.3086H142.071C141.5 20.627 140.453 21.3887 139.171 21.3887C137.179 21.3887 135.772 19.5869 135.772 16.7012C135.772 13.8447 137.179 12.0283 139.171 12.0283ZM139.171 13.4932C138.072 13.4932 137.325 14.6797 137.34 16.7012C137.325 18.7373 138.072 19.9238 139.171 19.9238C140.27 19.9238 141.002 18.7373 141.017 16.7012C141.002 14.6797 140.27 13.4932 139.171 13.4932ZM142.408 15.1924C142.503 15.6538 142.555 16.1592 142.555 16.7012C142.555 17.1626 142.518 17.5874 142.452 17.9902H145.045V15.1924H142.408ZM160.602 18.7666V20.0557H155.328V24.3037H153.717V20.0557H148.502V18.7666H160.602ZM151.578 11.5889V13.2148H157.496V11.5889H159.137V17.3896H149.967V11.5889H151.578ZM151.578 16.0713H157.496V14.5039H151.578V16.0713Z" fill="white"/>
<mask id="path-4-inside-2_308_6206" fill="white">
<path d="M0 35H266.667V128H0V35Z"/>
</mask>
<path d="M0 35H266.667V128H0V35Z" fill="white"/>
<path d="M266.667 128V129H267.667V128H266.667ZM265.667 35V128H267.667V35H265.667ZM266.667 127H0V129H266.667V127Z" fill="#495057" mask="url(#path-4-inside-2_308_6206)"/>
<path d="M131.664 75.1641V81.9316H130.506V75.1641H131.664ZM131.664 82.5615V85.667H124.31V87.1025H132.162V88.04H123.182V84.8027H130.521V83.4844H123.138V82.5615H131.664ZM128.529 76.0576V76.9805H127.21V80.3057C127.884 80.269 128.551 80.2031 129.173 80.1299L129.232 80.9795C126.625 81.3604 123.563 81.4629 121.263 81.4629L121.117 80.5107C121.637 80.5107 122.201 80.5107 122.787 80.4961V76.9805H121.483V76.0576H128.529ZM123.9 80.4668C124.618 80.4521 125.357 80.4302 126.097 80.3789V76.9805H123.9V80.4668ZM140.394 76.3799C140.394 78.2109 142.796 79.8076 145.14 80.1299L144.671 81.0674C142.65 80.7305 140.65 79.6099 139.808 78.0059C138.973 79.6172 136.966 80.7305 134.945 81.0674L134.476 80.1299C136.82 79.8076 139.208 78.2402 139.208 76.3799V75.6328H140.394V76.3799ZM145.726 82.5029V83.4697H140.335V88.1865H139.208V83.4697H133.861V82.5029H145.726Z" fill="black"/>
<mask id="path-7-inside-3_308_6206" fill="white">
<path d="M0 128H266.667V221H0V128Z"/>
</mask>
<path d="M0 128H266.667V221H0V128Z" fill="white"/>
<path d="M266.667 221V222H267.667V221H266.667ZM265.667 128V221H267.667V128H265.667ZM266.667 220H0V222H266.667V220Z" fill="#495057" mask="url(#path-7-inside-3_308_6206)"/>
<path d="M125.35 170.625C125.35 172.441 126.668 174.155 128.573 174.844L127.928 175.737C126.5 175.166 125.365 174.031 124.808 172.617C124.251 174.192 123.065 175.444 121.527 176.06L120.912 175.122C122.86 174.404 124.208 172.588 124.222 170.581V168.97H125.35V170.625ZM131.693 168.179V177.935H130.536V172.207H127.635V171.24H130.536V168.179H131.693ZM131.986 179.941V180.908H123.27V176.821H124.427V179.941H131.986ZM139.5 169.116V170.083H135.545V171.709H139.354V172.617H135.545V174.419C137.442 174.412 138.629 174.346 140.028 174.067L140.145 175.02C138.622 175.312 137.391 175.386 135.267 175.386H134.447V169.116H139.5ZM144.92 168.179V176.074H143.822V172.515H141.991V175.986H140.921V168.428H141.991V171.577H143.822V168.179H144.92ZM144.92 176.748V181.187H143.792V177.686H136.146V176.748H144.92Z" fill="black"/>
<mask id="path-10-inside-4_308_6206" fill="white">
<path d="M266.667 0H533.333V35H266.667V0Z"/>
</mask>
<path d="M266.667 0H533.333V35H266.667V0Z" fill="black"/>
<path d="M532.333 0V35H534.333V0H532.333Z" fill="white" mask="url(#path-10-inside-4_308_6206)"/>
<path d="M383.821 11.0615V18.2832H382.195V15.4561H379.91V14.1084H382.195V11.0615H383.821ZM376.716 18.8398V20.2168H382.195V18.8398H383.821V24.1426H375.09V18.8398H376.716ZM376.716 22.8242H382.195V21.4912H376.716V22.8242ZM380.334 11.7354V13.0684H377.595C377.61 14.6577 378.679 16.2983 380.715 16.9795L379.895 18.2393C378.416 17.7266 377.368 16.7305 376.79 15.4854C376.204 16.8696 375.105 17.9829 373.538 18.5176L372.703 17.2285C374.797 16.5181 375.925 14.8042 375.94 13.0684H373.186V11.7354H380.334ZM396.316 11.8232V12.9219C396.316 14.0352 396.316 15.3169 396.023 16.9941H397.795V18.3271H385.696V16.9941H394.368C394.668 15.3975 394.69 14.2109 394.69 13.1416H387.19V11.8232H396.316ZM396.697 22.707V24.0254H387.263V19.5869H388.875V22.707H396.697ZM412.664 11.0615V14.5479H414.509V15.9102H412.664V19.5137H411.038V11.0615H412.664ZM408.386 19.6309C411.096 19.6309 412.81 20.4951 412.81 21.96C412.81 23.4102 411.096 24.2891 408.386 24.2891C405.632 24.2891 403.948 23.4102 403.962 21.96C403.948 20.4951 405.632 19.6309 408.386 19.6309ZM408.386 20.876C406.57 20.876 405.559 21.2275 405.574 21.96C405.559 22.6631 406.57 23.0586 408.386 23.0586C410.173 23.0586 411.184 22.6631 411.184 21.96C411.184 21.2275 410.173 20.876 408.386 20.876ZM410.085 12.4092V13.6836H402.234V12.4092H405.354V10.9736H406.98V12.4092H410.085ZM406.16 14.2109C408.079 14.2109 409.382 15.1631 409.397 16.584C409.382 18.0049 408.079 18.9424 406.16 18.9424C404.226 18.9424 402.908 18.0049 402.908 16.584C402.908 15.1631 404.226 14.2109 406.16 14.2109ZM406.16 15.4121C405.149 15.4121 404.49 15.8516 404.49 16.584C404.49 17.3018 405.149 17.7119 406.16 17.7119C407.17 17.7119 407.844 17.3018 407.844 16.584C407.844 15.8516 407.17 15.4121 406.16 15.4121ZM425.715 11.6035V16.2031H422.024V17.5947H427.253V18.9131H415.183V17.5947H420.383V16.2031H416.707V11.6035H425.715ZM418.289 12.8779V14.9141H424.104V12.8779H418.289ZM425.774 20.0264V24.3037H424.148V21.3154H416.516V20.0264H425.774Z" fill="white"/>
<mask id="path-13-inside-5_308_6206" fill="white">
<path d="M266.667 35H533.333V93H266.667V35Z"/>
</mask>
<path d="M266.667 35H533.333V93H266.667V35Z" fill="white"/>
<path d="M533.333 93V94H534.333V93H533.333ZM532.333 35V93H534.333V35H532.333ZM533.333 92H266.667V94H533.333V92Z" fill="#495057" mask="url(#path-13-inside-5_308_6206)"/>
<path d="M351.909 57.6641V70.6865H350.752V57.6641H351.909ZM348.057 59.085C348.042 62.835 346.299 66.1455 341.934 68.2402L341.304 67.3027C344.827 65.6328 346.621 63.1353 346.885 60.0225H341.904V59.085H348.057ZM364.873 57.6641V70.6865H363.716V57.6641H364.873ZM361.021 59.085C361.006 62.835 359.263 66.1455 354.897 68.2402L354.268 67.3027C357.791 65.6328 359.585 63.1353 359.849 60.0225H354.868V59.085H361.021ZM377.632 58.5137V63.8164H371.523V58.5137H377.632ZM372.651 59.4512V62.9082H376.504V59.4512H372.651ZM381.572 57.6641V65.1494H380.444V57.6641H381.572ZM378.042 66.9365C378.042 68.2109 380.122 69.4707 382.363 69.749L381.968 70.6426C380.005 70.3789 378.218 69.4561 377.456 68.2402C376.665 69.478 374.834 70.3789 372.871 70.6426L372.461 69.749C374.702 69.5 376.855 68.2402 376.855 66.9365H373.003V66.043H376.87V64.7686H378.013V66.043H381.909V66.9365H378.042ZM390.684 58.3965C392.427 58.3818 393.672 59.5977 393.672 61.3408C393.672 63.084 392.427 64.2852 390.684 64.2852C388.926 64.2852 387.695 63.084 387.71 61.3408C387.695 59.5977 388.926 58.3818 390.684 58.3965ZM390.684 59.334C389.57 59.334 388.735 60.1689 388.75 61.3408C388.735 62.498 389.57 63.333 390.684 63.333C391.797 63.333 392.603 62.498 392.617 61.3408C392.603 60.1689 391.797 59.334 390.684 59.334ZM398.623 57.6787V64.7686H397.524V61.6338H395.796V64.666H394.712V57.9277H395.796V60.667H397.524V57.6787H398.623ZM391.182 65.3545V66.9072H397.495V65.3545H398.623V70.5107H390.039V65.3545H391.182ZM391.182 69.5732H397.495V67.8594H391.182V69.5732ZM415.059 57.6641V70.6865H413.901V57.6641H415.059ZM411.206 59.085C411.191 62.835 409.448 66.1455 405.083 68.2402L404.453 67.3027C407.976 65.6328 409.771 63.1353 410.034 60.0225H405.054V59.085H411.206ZM429.165 64.8418V65.7939H417.241V64.8418H422.632V63.4648H418.794V60.2861H426.47V58.9385H418.75V58.001H427.627V61.1504H419.937V62.542H427.905V63.4648H423.76V64.8418H429.165ZM427.7 66.79V70.5693H426.543V67.7275H418.574V66.79H427.7ZM444.766 57.6787V67.5225H443.594V65.6914H440.723V64.7539H443.594V57.6787H444.766ZM445.088 69.4414V70.4082H435.845V66.4238H437.002V69.4414H445.088ZM433.896 62.835C435.566 62.835 437.668 62.813 439.741 62.6738C439.998 61.231 440.042 60.1543 440.049 59.4072H435.068V58.4697H441.191V58.9824C441.191 59.7002 441.191 60.9233 440.913 62.5713C441.426 62.5347 441.924 62.4761 442.407 62.4102L442.495 63.2451C441.279 63.4502 440.005 63.5747 438.76 63.6553V66.6582H437.617V63.7139C436.328 63.7725 435.112 63.7871 434.058 63.7871L433.896 62.835ZM457.129 57.6787V61.9707H459.092V62.9375H457.129V67.4346H455.986V57.6787H457.129ZM454.741 59.2754V60.2129H446.978V59.2754H450.288V57.6787H451.431V59.2754H454.741ZM450.859 60.9307C452.72 60.9307 453.979 61.8828 453.994 63.3623C453.979 64.8271 452.72 65.7646 450.859 65.7646C448.984 65.7646 447.71 64.8271 447.725 63.3623C447.71 61.8828 448.984 60.9307 450.859 60.9307ZM450.859 61.8389C449.629 61.8389 448.809 62.4395 448.823 63.3623C448.809 64.2852 449.629 64.8711 450.859 64.8564C452.075 64.8711 452.896 64.2852 452.91 63.3623C452.896 62.4395 452.075 61.8389 450.859 61.8389ZM457.729 69.4414V70.4082H448.984V66.6582H450.112V69.4414H457.729Z" fill="black"/>
<mask id="path-16-inside-6_308_6206" fill="white">
<path d="M266.667 93H533.333V128H266.667V93Z"/>
</mask>
<path d="M266.667 93H533.333V128H266.667V93Z" fill="white"/>
<path d="M533.333 128V129H534.333V128H533.333ZM532.333 93V128H534.333V93H532.333ZM533.333 127H266.667V129H533.333V127Z" fill="#495057" mask="url(#path-16-inside-6_308_6206)"/>
<path d="M362.163 104.809C364.111 104.794 365.503 105.863 365.503 107.46C365.503 109.042 364.111 110.141 362.163 110.126C360.215 110.141 358.823 109.042 358.823 107.46C358.823 105.863 360.215 104.794 362.163 104.809ZM362.163 105.746C360.859 105.731 359.937 106.449 359.951 107.46C359.937 108.485 360.859 109.188 362.163 109.174C363.481 109.188 364.404 108.485 364.404 107.46C364.404 106.449 363.481 105.731 362.163 105.746ZM368.608 104.179V117.201H367.48V104.179H368.608ZM357.842 111.239C360.288 111.239 363.628 111.195 366.528 110.771L366.602 111.635C365.356 111.862 364.06 112.001 362.808 112.074V116.791H361.665V112.147C360.339 112.206 359.087 112.213 358.003 112.221L357.842 111.239ZM381.572 104.164V117.187H380.415V104.164H381.572ZM375.64 108.412C375.64 110.595 377.163 112.704 379.126 113.539L378.481 114.433C376.98 113.766 375.706 112.353 375.098 110.624C374.512 112.455 373.245 113.957 371.743 114.667L371.099 113.773C373.032 112.895 374.512 110.697 374.512 108.412V107.372H371.45V106.435H374.497V104.413H375.64V106.435H378.672V107.372H375.64V108.412ZM398.33 104.164V117.187H397.173V104.164H398.33ZM394.478 105.585C394.463 109.335 392.72 112.646 388.354 114.74L387.725 113.803C391.248 112.133 393.042 109.635 393.306 106.522H388.325V105.585H394.478ZM410.708 104.179V108.119H412.671V109.086H410.708V113.744H409.565V104.179H410.708ZM411.309 115.941V116.908H402.563V112.807H403.691V115.941H411.309ZM402.212 105.116V107.313H406.006V105.116H407.148V111.547H401.084V105.116H402.212ZM402.212 110.609H406.006V108.222H402.212V110.609ZM428.052 104.164V111.928H426.895V108.515H424.272V107.562H426.895V104.164H428.052ZM423.73 112.338C426.44 112.338 428.096 113.217 428.096 114.755C428.096 116.293 426.44 117.172 423.73 117.187C421.021 117.172 419.365 116.293 419.365 114.755C419.365 113.217 421.021 112.338 423.73 112.338ZM423.73 113.231C421.738 113.231 420.493 113.803 420.508 114.755C420.493 115.692 421.738 116.264 423.73 116.264C425.723 116.264 426.953 115.692 426.953 114.755C426.953 113.803 425.723 113.231 423.73 113.231ZM421.782 106.552C421.782 108.251 423.086 109.862 424.99 110.521L424.39 111.444C422.925 110.917 421.79 109.826 421.24 108.471C420.669 110.001 419.46 111.225 417.915 111.811L417.314 110.888C419.248 110.185 420.625 108.427 420.625 106.566V106.083H417.681V105.116H424.697V106.083H421.782V106.552ZM442.144 114.564V115.517H430.22V114.564H435.581V111.752H431.626V105.087H432.783V107.445H439.551V105.087H440.679V111.752H436.709V114.564H442.144ZM432.783 110.814H439.551V108.383H432.783V110.814Z" fill="black"/>
<mask id="path-19-inside-7_308_6206" fill="white">
<path d="M266.667 128H533.333V186H266.667V128Z"/>
</mask>
<path d="M266.667 128H533.333V186H266.667V128Z" fill="white"/>
<path d="M533.333 186V187H534.333V186H533.333ZM532.333 128V186H534.333V128H532.333ZM533.333 185H266.667V187H533.333V185Z" fill="#495057" mask="url(#path-19-inside-7_308_6206)"/>
<path d="M369.978 154.165C369.978 156.465 371.501 158.823 373.347 159.731L372.644 160.654C371.208 159.9 370.007 158.362 369.436 156.553C368.85 158.479 367.62 160.12 366.155 160.903L365.422 159.98C367.327 159.043 368.835 156.538 368.85 154.165V151.792H369.978V154.165ZM375.691 150.664V155.952H377.874V156.948H375.691V163.687H374.548V150.664H375.691ZM383.264 153.462C383.264 155.22 384.656 156.802 386.604 157.417L386.018 158.34C384.502 157.827 383.293 156.758 382.708 155.381C382.136 156.868 380.913 158.04 379.368 158.604L378.767 157.681C380.715 156.992 382.107 155.308 382.107 153.462V152.7H379.06V151.763H386.267V152.7H383.264V153.462ZM389.329 150.679V160.229H388.186V150.679H389.329ZM389.739 162.441V163.408H380.92V159.321H382.063V162.441H389.739ZM395.803 151.396L392.375 164.097H391.233L394.646 151.396H395.803ZM403.303 152.026C403.289 155.791 402.014 159.233 397.327 161.533L396.682 160.654C399.136 159.468 400.608 157.959 401.399 156.201L396.931 156.626L396.741 155.615L401.75 155.278C401.978 154.546 402.109 153.777 402.161 152.979H397.4V152.026H403.303ZM406.628 150.664V155.967H408.738V156.934H406.628V163.687H405.486V150.664H406.628ZM414.978 152.188V155.586H416.956V150.942H418.054V163.027H416.956V156.538H414.978V160.186H409.998V152.188H414.978ZM411.082 153.11V159.263H413.894V153.11H411.082ZM420.676 150.664V163.687H419.563V150.664H420.676ZM432.556 150.664V155.85H434.739V156.816H432.556V163.716H431.414V150.664H432.556ZM428.909 151.88V156.538H424.163V159.585C426.58 159.585 428.264 159.504 430.242 159.131L430.359 160.083C428.308 160.464 426.565 160.552 424.06 160.566H423.02V155.586H427.766V152.832H422.991V151.88H428.909Z" fill="black"/>
<mask id="path-22-inside-8_308_6206" fill="white">
<path d="M266.667 186H533.333V221H266.667V186Z"/>
</mask>
<path d="M266.667 186H533.333V221H266.667V186Z" fill="white"/>
<path d="M533.333 221V222H534.333V221H533.333ZM532.333 186V221H534.333V186H532.333ZM533.333 220H266.667V222H533.333V220Z" fill="#495057" mask="url(#path-22-inside-8_308_6206)"/>
<path d="M365.518 199.757C365.518 201.192 366.528 202.657 368.198 203.287L367.598 204.166C366.345 203.683 365.444 202.752 364.976 201.632C364.492 202.877 363.562 203.983 362.28 204.532L361.65 203.639C363.364 202.892 364.419 201.207 364.419 199.757V197.984H365.518V199.757ZM372.695 197.179V205.221H371.597V201.632H369.868V204.811H368.784V197.428H369.868V200.68H371.597V197.179H372.695ZM368.389 205.514C371.084 205.514 372.769 206.363 372.769 207.843C372.769 209.308 371.084 210.157 368.389 210.157C365.679 210.157 364.009 209.308 364.023 207.843C364.009 206.363 365.679 205.514 368.389 205.514ZM368.389 206.393C366.396 206.393 365.151 206.935 365.166 207.843C365.151 208.736 366.396 209.264 368.389 209.264C370.366 209.264 371.611 208.736 371.626 207.843C371.611 206.935 370.366 206.393 368.389 206.393ZM378.408 201.178C378.408 203.272 379.478 205.411 381.25 206.363L380.591 207.228C379.294 206.524 378.357 205.177 377.881 203.609C377.412 205.279 376.482 206.729 375.186 207.521L374.497 206.642C376.27 205.616 377.31 203.331 377.324 201.178V200.533H374.849V199.581H377.324V197.647H378.423V199.581H380.854V200.533H378.408V201.178ZM385.732 197.164V210.187H384.634V197.164H385.732ZM383.096 197.486V209.513H382.012V203.287H379.961V202.306H382.012V197.486H383.096ZM398.315 197.179V206.7H397.173V197.179H398.315ZM398.726 208.941V209.908H389.907V205.733H391.05V208.941H398.726ZM391.284 198.087C393.232 198.087 394.697 199.405 394.697 201.28C394.697 203.185 393.232 204.488 391.284 204.488C389.336 204.488 387.871 203.185 387.871 201.28C387.871 199.405 389.336 198.087 391.284 198.087ZM391.284 199.098C389.966 199.098 388.984 200.006 388.999 201.28C388.984 202.584 389.966 203.478 391.284 203.478C392.573 203.478 393.569 202.584 393.569 201.28C393.569 200.006 392.573 199.098 391.284 199.098ZM412.393 203.36V204.312H400.527V203.36H412.393ZM406.46 205.455C409.258 205.455 410.928 206.319 410.942 207.813C410.928 209.322 409.258 210.157 406.46 210.157C403.647 210.157 401.963 209.322 401.963 207.813C401.963 206.319 403.647 205.455 406.46 205.455ZM406.46 206.363C404.365 206.378 403.12 206.891 403.135 207.813C403.12 208.722 404.365 209.234 406.46 209.234C408.525 209.234 409.785 208.722 409.785 207.813C409.785 206.891 408.525 206.378 406.46 206.363ZM411.338 197.838V198.79H407.207C407.251 200.27 409.419 201.397 411.733 201.661L411.309 202.584C409.177 202.313 407.178 201.361 406.46 199.903C405.75 201.361 403.757 202.313 401.611 202.584L401.201 201.661C403.472 201.397 405.654 200.27 405.713 198.79H401.611V197.838H411.338ZM424.287 197.164V204.928H423.13V201.515H420.508V200.562H423.13V197.164H424.287ZM419.966 205.338C422.676 205.338 424.331 206.217 424.331 207.755C424.331 209.293 422.676 210.172 419.966 210.187C417.256 210.172 415.601 209.293 415.601 207.755C415.601 206.217 417.256 205.338 419.966 205.338ZM419.966 206.231C417.974 206.231 416.729 206.803 416.743 207.755C416.729 208.692 417.974 209.264 419.966 209.264C421.958 209.264 423.188 208.692 423.188 207.755C423.188 206.803 421.958 206.231 419.966 206.231ZM418.018 199.552C418.018 201.251 419.321 202.862 421.226 203.521L420.625 204.444C419.16 203.917 418.025 202.826 417.476 201.471C416.904 203.001 415.696 204.225 414.15 204.811L413.55 203.888C415.483 203.185 416.86 201.427 416.86 199.566V199.083H413.916V198.116H420.933V199.083H418.018V199.552ZM438.379 207.564V208.517H426.455V207.564H431.816V204.752H427.861V198.087H429.019V200.445H435.786V198.087H436.914V204.752H432.944V207.564H438.379ZM429.019 203.814H435.786V201.383H429.019V203.814Z" fill="black"/>
<mask id="path-25-inside-9_308_6206" fill="white">
<path d="M533.333 0H800V35H533.333V0Z"/>
</mask>
<path d="M533.333 0H800V35H533.333V0Z" fill="black"/>
<path d="M799 0V35H801V0H799Z" fill="white" mask="url(#path-25-inside-9_308_6206)"/>
<path d="M650.488 11.0615V18.2832H648.862V15.4561H646.577V14.1084H648.862V11.0615H650.488ZM643.383 18.8398V20.2168H648.862V18.8398H650.488V24.1426H641.757V18.8398H643.383ZM643.383 22.8242H648.862V21.4912H643.383V22.8242ZM647.001 11.7354V13.0684H644.262C644.277 14.6577 645.346 16.2983 647.382 16.9795L646.562 18.2393C645.083 17.7266 644.035 16.7305 643.457 15.4854C642.871 16.8696 641.772 17.9829 640.205 18.5176L639.37 17.2285C641.464 16.5181 642.592 14.8042 642.607 13.0684H639.853V11.7354H647.001ZM662.983 11.8232V12.9219C662.983 14.0352 662.983 15.3169 662.69 16.9941H664.462V18.3271H652.363V16.9941H661.035C661.335 15.3975 661.357 14.2109 661.357 13.1416H653.857V11.8232H662.983ZM663.364 22.707V24.0254H653.93V19.5869H655.542V22.707H663.364ZM679.418 11.6035V16.2031H675.727V17.5947H680.957V18.9131H668.886V17.5947H674.086V16.2031H670.41V11.6035H679.418ZM671.992 12.8779V14.9141H677.807V12.8779H671.992ZM679.477 20.0264V24.3037H677.851V21.3154H670.219V20.0264H679.477ZM686.713 13.332C686.713 14.9434 687.783 16.5693 689.833 17.2578L689.013 18.5176C687.534 18.0342 686.486 17.0308 685.908 15.793C685.329 17.1772 684.223 18.2905 682.656 18.8105L681.821 17.5215C683.93 16.833 685.058 15.0752 685.058 13.3467V13.1709H682.304V11.8672H689.453V13.1709H686.713V13.332ZM692.939 19.5869V24.3037H691.313V20.8906H683.916V19.5869H692.939ZM692.939 11.0615V18.957H691.313V15.6758H689.057V14.3428H691.313V11.0615H692.939Z" fill="white"/>
<mask id="path-28-inside-10_308_6206" fill="white">
<path d="M533.333 35H800V93H533.333V35Z"/>
</mask>
<path d="M533.333 35H800V93H533.333V35Z" fill="white"/>
<path d="M800 92H533.333V94H800V92Z" fill="#495057" mask="url(#path-28-inside-10_308_6206)"/>
<path d="M610.93 46.8965C612.673 46.8818 613.918 48.0977 613.918 49.8408C613.918 51.584 612.673 52.7852 610.93 52.7852C609.172 52.7852 607.941 51.584 607.956 49.8408C607.941 48.0977 609.172 46.8818 610.93 46.8965ZM610.93 47.834C609.816 47.834 608.981 48.6689 608.996 49.8408C608.981 50.998 609.816 51.833 610.93 51.833C612.043 51.833 612.849 50.998 612.863 49.8408C612.849 48.6689 612.043 47.834 610.93 47.834ZM618.869 46.1787V53.2686H617.771V50.1338H616.042V53.166H614.958V46.4277H616.042V49.167H617.771V46.1787H618.869ZM611.428 53.8545V55.4072H617.741V53.8545H618.869V59.0107H610.285V53.8545H611.428ZM611.428 58.0732H617.741V56.3594H611.428V58.0732ZM635.275 46.1641V52.917H634.147V46.1641H635.275ZM635.29 53.5762V56.6963H627.98V58.1025H635.759V59.04H626.853V55.8027H634.147V54.499H626.823V53.5762H635.29ZM629.152 47.541C629.138 49.3867 630.544 51.0127 632.478 51.6426L631.906 52.5361C630.383 52.0161 629.167 50.9248 628.581 49.5186C627.995 51.0347 626.772 52.2285 625.227 52.7852L624.626 51.877C626.589 51.1885 627.98 49.46 627.98 47.541V46.5449H629.152V47.541ZM648.562 46.1641V54.4111H647.463V50.6758H645.72V53.9424H644.636V46.4277H645.72V49.7236H647.463V46.1641H648.562ZM644.108 47.7314V48.6543H637.429V47.7314H640.212V46.2666H641.354V47.7314H644.108ZM640.783 49.3574C642.438 49.3574 643.566 50.2217 643.581 51.584C643.566 52.917 642.438 53.7959 640.783 53.7959C639.143 53.7959 637.985 52.917 638 51.584C637.985 50.2217 639.143 49.3574 640.783 49.3574ZM640.783 50.207C639.743 50.207 639.025 50.7637 639.025 51.584C639.025 52.3896 639.743 52.9316 640.783 52.9316C641.823 52.9316 642.541 52.3896 642.541 51.584C642.541 50.7637 641.823 50.207 640.783 50.207ZM644.255 54.6309C646.994 54.6309 648.635 55.4512 648.635 56.916C648.635 58.3369 646.994 59.1572 644.255 59.1572C641.516 59.1572 639.875 58.3369 639.89 56.916C639.875 55.4512 641.516 54.6309 644.255 54.6309ZM644.255 55.5391C642.233 55.5244 641.018 56.0225 641.032 56.916C641.018 57.7656 642.233 58.2637 644.255 58.2637C646.276 58.2637 647.478 57.7656 647.492 56.916C647.478 56.0225 646.276 55.5244 644.255 55.5391ZM658.859 49.665C658.845 52.0381 660.471 54.4404 662.39 55.3047L661.687 56.2129C660.207 55.4878 658.925 53.957 658.303 52.0967C657.695 54.0669 656.413 55.7075 654.89 56.4766L654.157 55.5098C656.091 54.6162 657.702 52.1406 657.717 49.665V47.292H658.859V49.665ZM664.968 46.1641V59.2158H663.811V46.1641H664.968ZM676.892 47.0137C679.66 47.0283 681.652 48.376 681.652 50.4268C681.652 52.3677 679.924 53.6567 677.448 53.8105V56.5498H682.883V57.5166H670.959V56.5498H676.32V53.8105C673.852 53.6494 672.131 52.3604 672.131 50.4268C672.131 48.376 674.123 47.0283 676.892 47.0137ZM676.892 47.9658C674.782 47.9658 673.244 48.9619 673.244 50.4268C673.244 51.9355 674.782 52.9023 676.892 52.917C679.001 52.9023 680.539 51.9355 680.539 50.4268C680.539 48.9619 679.001 47.9658 676.892 47.9658ZM695.832 53.9424V54.8652H692.697V59.1865H691.555V54.8652H688.186V59.1865H687.028V54.8652H683.908V53.9424H695.832ZM694.382 46.6768V50.0166H686.53V51.6426H694.66V52.5947H685.373V49.123H693.21V47.6289H685.344V46.6768H694.382ZM710.817 46.1787V50.1191H712.766V51.0859H710.817V54.9092H709.66V46.1787H710.817ZM700.593 53.5762C701.633 53.5762 702.849 53.5762 704.123 53.5322V52.5801C702.607 52.4482 701.633 51.7378 701.633 50.6611C701.633 49.4746 702.849 48.7422 704.68 48.7422C706.525 48.7422 707.727 49.4746 707.741 50.6611C707.727 51.7305 706.774 52.4409 705.266 52.5801V53.4883C706.481 53.4297 707.712 53.3345 708.854 53.166L708.957 54.001C706.13 54.499 703.01 54.5137 700.725 54.5137L700.593 53.5762ZM710.817 55.5537V59.1865H709.66V56.4766H702.189V55.5537H710.817ZM708.459 47.3652V48.2441H700.915V47.3652H704.123V46.0615H705.266V47.3652H708.459ZM704.68 49.5625C703.479 49.5479 702.731 49.9727 702.731 50.6611C702.731 51.335 703.479 51.8037 704.68 51.7891C705.881 51.8037 706.643 51.335 706.643 50.6611C706.643 49.9727 705.881 49.5479 704.68 49.5625ZM724.367 46.1787V55.7002H723.225V46.1787H724.367ZM724.777 57.9414V58.9082H715.959V54.7334H717.102V57.9414H724.777ZM717.336 47.0869C719.284 47.0869 720.749 48.4053 720.749 50.2803C720.749 52.1846 719.284 53.4883 717.336 53.4883C715.388 53.4883 713.923 52.1846 713.923 50.2803C713.923 48.4053 715.388 47.0869 717.336 47.0869ZM717.336 48.0977C716.018 48.0977 715.036 49.0059 715.051 50.2803C715.036 51.584 716.018 52.4775 717.336 52.4775C718.625 52.4775 719.621 51.584 719.621 50.2803C719.621 49.0059 718.625 48.0977 717.336 48.0977ZM637.268 72.665C637.268 74.9648 638.791 77.3232 640.637 78.2314L639.934 79.1543C638.498 78.3999 637.297 76.8618 636.726 75.0527C636.14 76.979 634.909 78.6196 633.444 79.4033L632.712 78.4805C634.616 77.543 636.125 75.0381 636.14 72.665V70.292H637.268V72.665ZM642.98 69.1641V74.4521H645.163V75.4482H642.98V82.1865H641.838V69.1641H642.98ZM657.731 75.6094V76.5615H645.866V75.6094H648.811V73.7783C647.771 73.3755 647.185 72.709 647.185 71.8301C647.185 70.292 648.942 69.4131 651.799 69.4131C654.626 69.4131 656.398 70.292 656.398 71.8301C656.398 72.7017 655.82 73.3682 654.787 73.7637V75.6094H657.731ZM651.799 77.5576C654.597 77.5576 656.267 78.3633 656.281 79.8574C656.267 81.3369 654.597 82.1572 651.799 82.1572C648.972 82.1572 647.302 81.3369 647.302 79.8574C647.302 78.3633 648.972 77.5576 651.799 77.5576ZM651.799 78.4365C649.704 78.4512 648.459 78.9639 648.474 79.8574C648.459 80.7363 649.704 81.2637 651.799 81.2637C653.864 81.2637 655.124 80.7363 655.124 79.8574C655.124 78.9639 653.864 78.4512 651.799 78.4365ZM651.799 70.3213C649.675 70.3213 648.356 70.8926 648.371 71.8301C648.356 72.7822 649.675 73.3389 651.799 73.3389C653.908 73.3389 655.227 72.7822 655.227 71.8301C655.227 70.8926 653.908 70.3213 651.799 70.3213ZM649.953 75.6094H653.645V74.0859C653.095 74.1812 652.48 74.2324 651.799 74.2324C651.118 74.2324 650.502 74.1812 649.953 74.0859V75.6094ZM663.312 71.2148C663.298 73.0752 664.616 74.7158 666.535 75.3604L665.891 76.2539C664.455 75.7119 663.327 74.6572 662.771 73.2803C662.207 74.8403 661.013 76.0562 659.445 76.6494L658.815 75.7119C660.822 75.0088 662.155 73.2803 662.17 71.2588V69.9111H663.312V71.2148ZM669.626 69.1641V76.8838H668.469V72.9141H665.568V71.9619H668.469V69.1641H669.626ZM665.305 77.2646C668.015 77.2646 669.67 78.1582 669.67 79.7256C669.67 81.2783 668.015 82.1572 665.305 82.1572C662.595 82.1572 660.939 81.2783 660.939 79.7256C660.939 78.1582 662.595 77.2646 665.305 77.2646ZM665.305 78.1729C663.312 78.1729 662.067 78.7588 662.082 79.7256C662.067 80.6631 663.312 81.2344 665.305 81.2344C667.297 81.2344 668.527 80.6631 668.527 79.7256C668.527 78.7588 667.297 78.1729 665.305 78.1729ZM686.677 69.1641V82.1865H685.549V75.375H683.747V81.542H682.648V69.5156H683.747V74.4229H685.549V69.1641H686.677ZM681.169 70.8633C681.154 74.1738 679.997 77.3086 676.247 79.3887L675.573 78.583C678.598 76.8984 679.851 74.5107 680.041 71.8154H676.071V70.8633H681.169ZM692.976 71.625C692.976 73.4414 694.294 75.1553 696.198 75.8438L695.554 76.7373C694.125 76.166 692.99 75.0308 692.434 73.6172C691.877 75.1919 690.69 76.4443 689.152 77.0596L688.537 76.1221C690.485 75.4043 691.833 73.5879 691.848 71.5811V69.9697H692.976V71.625ZM699.318 69.1787V78.9346H698.161V73.207H695.261V72.2402H698.161V69.1787H699.318ZM699.611 80.9414V81.9082H690.896V77.8213H692.053V80.9414H699.611Z" fill="black"/>
<mask id="path-31-inside-11_308_6206" fill="white">
<path d="M533.333 93H800V128H533.333V93Z"/>
</mask>
<path d="M533.333 93H800V128H533.333V93Z" fill="white"/>
<path d="M800 127H533.333V129H800V127Z" fill="#495057" mask="url(#path-31-inside-11_308_6206)"/>
<path d="M607.502 104.809C609.45 104.794 610.842 105.863 610.842 107.46C610.842 109.042 609.45 110.141 607.502 110.126C605.554 110.141 604.162 109.042 604.162 107.46C604.162 105.863 605.554 104.794 607.502 104.809ZM607.502 105.746C606.198 105.731 605.275 106.449 605.29 107.46C605.275 108.485 606.198 109.188 607.502 109.174C608.82 109.188 609.743 108.485 609.743 107.46C609.743 106.449 608.82 105.731 607.502 105.746ZM613.947 104.179V117.201H612.819V104.179H613.947ZM603.181 111.239C605.627 111.239 608.967 111.195 611.867 110.771L611.94 111.635C610.695 111.862 609.399 112.001 608.146 112.074V116.791H607.004V112.147C605.678 112.206 604.426 112.213 603.342 112.221L603.181 111.239ZM626.911 104.164V117.187H625.754V104.164H626.911ZM620.979 108.412C620.979 110.595 622.502 112.704 624.465 113.539L623.82 114.433C622.319 113.766 621.044 112.353 620.437 110.624C619.851 112.455 618.583 113.957 617.082 114.667L616.438 113.773C618.371 112.895 619.851 110.697 619.851 108.412V107.372H616.789V106.435H619.836V104.413H620.979V106.435H624.011V107.372H620.979V108.412ZM643.669 104.164V117.187H642.512V104.164H643.669ZM639.816 105.585C639.802 109.335 638.059 112.646 633.693 114.74L633.063 113.803C636.586 112.133 638.381 109.635 638.645 106.522H633.664V105.585H639.816ZM656.047 104.179V108.119H658.01V109.086H656.047V113.744H654.904V104.179H656.047ZM656.647 115.941V116.908H647.902V112.807H649.03V115.941H656.647ZM647.551 105.116V107.313H651.345V105.116H652.487V111.547H646.423V105.116H647.551ZM647.551 110.609H651.345V108.222H647.551V110.609ZM667.18 107.665C667.18 110.023 668.688 112.396 670.578 113.261L669.89 114.198C668.41 113.437 667.187 111.876 666.608 110.023C666.03 111.972 664.807 113.642 663.327 114.433L662.58 113.51C664.484 112.572 666.008 110.067 666.008 107.665V105.292H667.18V107.665ZM673.391 104.164V117.216H672.248V109.555H669.157V108.617H672.248V104.164H673.391ZM686.296 104.164V117.216H685.139V104.164H686.296ZM677.463 105.277V108.72H681.345V105.277H682.473V114.066H676.32V105.277H677.463ZM677.463 113.1H681.345V109.643H677.463V113.1ZM695.012 106.083C695.012 108.31 697.561 110.302 699.831 110.727L699.304 111.693C697.341 111.239 695.268 109.84 694.426 107.914C693.583 109.833 691.518 111.232 689.548 111.693L689.021 110.727C691.276 110.287 693.811 108.324 693.811 106.083V105.087H695.012V106.083ZM700.446 114.462V115.414H688.522V114.462H700.446ZM716.384 104.164V117.187H715.285V104.164H716.384ZM713.747 104.486V116.513H712.663V109.804H710.466V108.866H712.663V104.486H713.747ZM709.074 107.885C709.074 110.141 710.085 112.382 711.887 113.422L711.184 114.271C709.902 113.502 708.994 112.096 708.547 110.434C708.071 112.228 707.126 113.759 705.822 114.579L705.09 113.715C706.906 112.631 707.961 110.258 707.961 107.885V106.654H705.456V105.702H711.462V106.654H709.074V107.885ZM724.104 112.396C726.901 112.396 728.674 113.275 728.674 114.784C728.674 116.278 726.901 117.157 724.104 117.157C721.32 117.157 719.548 116.278 719.548 114.784C719.548 113.275 721.32 112.396 724.104 112.396ZM724.104 113.275C722.023 113.29 720.676 113.861 720.69 114.784C720.676 115.692 722.023 116.249 724.104 116.249C726.184 116.249 727.517 115.692 727.531 114.784C727.517 113.861 726.184 113.29 724.104 113.275ZM728.571 104.838V105.937C728.571 106.991 728.571 108.046 728.205 109.394L727.077 109.262C727.429 107.914 727.429 106.962 727.429 105.937V105.775H719.636V104.838H728.571ZM730.08 110.243V111.181H718.229V110.243H723.137V107.724H724.265V110.243H730.08Z" fill="black"/>
<mask id="path-34-inside-12_308_6206" fill="white">
<path d="M533.333 128H800V186H533.333V128Z"/>
</mask>
<path d="M533.333 128H800V186H533.333V128Z" fill="white"/>
<path d="M800 185H533.333V187H800V185Z" fill="#495057" mask="url(#path-34-inside-12_308_6206)"/>
<path d="M611.281 149.594V150.575H599.357V149.594H604.704V146.591H600.441V145.668H602.478V141.391H600.412V140.438H610.139V141.391H608.073V145.668H610.109V146.591H605.832V149.594H611.281ZM603.62 145.668H606.945V141.391H603.62V145.668ZM622.868 145.946V146.884H618.825V149.608H624.245V150.561H612.321V149.608H617.683V146.884H613.859V140.233H622.722V141.186H615.031V143.046H622.443V143.983H615.031V145.946H622.868ZM633.4 141.273C633.4 143.046 634.748 144.672 636.638 145.316L636.008 146.225C634.565 145.697 633.43 144.621 632.858 143.266C632.302 144.796 631.145 146.005 629.621 146.591L629.006 145.668C630.954 144.936 632.258 143.192 632.272 141.186V139.838H633.4V141.273ZM639.23 139.164V142.562H641.193V143.529H639.23V147.089H638.088V139.164H639.23ZM635.056 147.426C637.736 147.426 639.348 148.29 639.348 149.784C639.348 151.308 637.736 152.157 635.056 152.157C632.375 152.157 630.734 151.308 630.734 149.784C630.734 148.29 632.375 147.426 635.056 147.426ZM635.056 148.349C633.093 148.349 631.877 148.891 631.892 149.784C631.877 150.707 633.093 151.234 635.056 151.249C637.033 151.234 638.234 150.707 638.234 149.784C638.234 148.891 637.033 148.349 635.056 148.349ZM653.879 145.463V146.415H648.503V147.953H652.429V152.011H643.464V147.953H647.375V146.415H642.014V145.463H653.879ZM652.751 139.589V140.541H650.744V143.28H652.707V144.232H643.171V143.28H645.134V140.541H643.127V139.589H652.751ZM644.606 148.861V151.073H651.301V148.861H644.606ZM646.276 143.28H649.602V140.541H646.276V143.28ZM665.773 139.164V146.884H664.616V144.833H661.569V145.946H655.593V140.16H661.569V141.288H664.616V139.164H665.773ZM656.735 141.098V145.009H660.441V141.098H656.735ZM661.452 147.265C664.162 147.265 665.817 148.158 665.817 149.726C665.817 151.278 664.162 152.157 661.452 152.157C658.742 152.157 657.087 151.278 657.087 149.726C657.087 148.158 658.742 147.265 661.452 147.265ZM661.452 148.158C659.46 148.173 658.215 148.744 658.229 149.726C658.215 150.663 659.46 151.249 661.452 151.249C663.444 151.249 664.675 150.663 664.675 149.726C664.675 148.744 663.444 148.173 661.452 148.158ZM661.569 143.866H664.616V142.24H661.569V143.866ZM670.08 150.019L668.938 154.003H667.854L668.659 150.019H670.08ZM682.033 141.083C682.033 143.31 684.582 145.302 686.853 145.727L686.325 146.693C684.362 146.239 682.29 144.84 681.447 142.914C680.605 144.833 678.54 146.232 676.569 146.693L676.042 145.727C678.298 145.287 680.832 143.324 680.832 141.083V140.087H682.033V141.083ZM687.468 149.462V150.414H675.544V149.462H687.468ZM699.567 139.179V148.964H698.469V144.174H696.696V148.539H695.598V139.428H696.696V143.207H698.469V139.179H699.567ZM699.978 150.941V151.908H690.998V147.777H692.141V150.941H699.978ZM694.323 140.292C694.323 143.456 692.873 145.99 689.211 147.514L688.64 146.679C690.551 145.895 691.796 144.848 692.492 143.573L688.801 143.983L688.61 143.002L692.873 142.724C693.042 142.255 693.137 141.757 693.181 141.244H689.24V140.292H694.323ZM711.96 140.014C711.945 143.28 709.616 145.624 705.866 146.693L705.383 145.785C708.496 144.906 710.48 143.178 710.729 140.966H706.057V140.014H711.96ZM716.032 139.179V146.605H714.875V143.5H711.989V142.533H714.875V139.179H716.032ZM716.032 147.162V152.011H707.58V147.162H716.032ZM708.693 148.085V151.073H714.89V148.085H708.693ZM722.082 141.713C722.082 143.192 723.078 144.687 724.748 145.346L724.133 146.239C722.902 145.727 722.001 144.774 721.54 143.617C721.057 144.884 720.119 145.99 718.845 146.562L718.215 145.668C719.929 144.906 720.983 143.192 720.983 141.713V139.97H722.082V141.713ZM729.26 139.179V147.045H728.161V143.544H726.433V146.972H725.349V139.413H726.433V142.577H728.161V139.179H729.26ZM729.26 147.763V152.187H728.132V148.715H720.485V147.763H729.26ZM733.303 150.019L732.16 154.003H731.076L731.882 150.019H733.303ZM638.344 172.55V173.517H626.42V172.55H631.782V169.371H627.827V163.263H636.865V169.371H632.91V172.55H638.344ZM628.955 164.186V168.448H635.751V164.186H628.955ZM649.462 162.164V167.291H651.645V168.287H649.462V175.187H648.32V162.164H649.462ZM641.069 163.277V166.72H644.877V163.277H646.02V172.066H639.926V163.277H641.069ZM641.069 171.1H644.877V167.643H641.069V171.1ZM656.04 162.647C657.988 162.662 659.409 163.834 659.409 165.533C659.409 167.232 657.988 168.404 656.04 168.404C654.062 168.404 652.656 167.232 652.656 165.533C652.656 163.834 654.062 162.662 656.04 162.647ZM656.04 163.614C654.736 163.614 653.769 164.405 653.784 165.533C653.769 166.676 654.736 167.467 656.04 167.467C657.329 167.467 658.295 166.676 658.295 165.533C658.295 164.405 657.329 163.614 656.04 163.614ZM663.1 162.164V168.858H661.958V162.164H663.1ZM663.1 169.488V172.623H655.791V174.088H663.569V175.011H654.663V171.759H661.958V170.411H654.633V169.488H663.1ZM672.666 162.955C673.764 162.948 674.702 163.358 675.302 164.054H678.715V162.164H679.873V169.884H678.715V168.023H675.317C674.702 168.719 673.764 169.129 672.666 169.122C670.717 169.137 669.282 167.862 669.282 166.046C669.282 164.215 670.717 162.94 672.666 162.955ZM672.666 163.951C671.333 163.937 670.38 164.815 670.38 166.046C670.38 167.262 671.333 168.141 672.666 168.141C673.955 168.141 674.921 167.262 674.921 166.046C674.921 164.815 673.955 163.937 672.666 163.951ZM675.551 170.191C678.247 170.191 679.917 171.1 679.917 172.667C679.917 174.249 678.247 175.157 675.551 175.157C672.841 175.157 671.186 174.249 671.186 172.667C671.186 171.1 672.841 170.191 675.551 170.191ZM675.551 171.085C673.559 171.085 672.314 171.686 672.314 172.667C672.314 173.648 673.559 174.234 675.551 174.234C677.558 174.234 678.789 173.648 678.789 172.667C678.789 171.686 677.558 171.085 675.551 171.085ZM675.859 164.991C675.969 165.313 676.035 165.665 676.035 166.046C676.035 166.412 675.969 166.756 675.859 167.071H678.715V164.991H675.859ZM688.574 163.38C688.574 165.211 690.976 166.808 693.32 167.13L692.851 168.067C690.83 167.73 688.83 166.61 687.988 165.006C687.153 166.617 685.146 167.73 683.125 168.067L682.656 167.13C685 166.808 687.387 165.24 687.387 163.38V162.633H688.574V163.38ZM693.906 169.503V170.47H688.515V175.187H687.387V170.47H682.041V169.503H693.906ZM706.87 168.36V169.312H695.004V168.36H706.87ZM700.937 170.455C703.735 170.455 705.405 171.319 705.419 172.813C705.405 174.322 703.735 175.157 700.937 175.157C698.125 175.157 696.44 174.322 696.44 172.813C696.44 171.319 698.125 170.455 700.937 170.455ZM700.937 171.363C698.842 171.378 697.597 171.891 697.612 172.813C697.597 173.722 698.842 174.234 700.937 174.234C703.002 174.234 704.262 173.722 704.262 172.813C704.262 171.891 703.002 171.378 700.937 171.363ZM705.815 162.838V163.79H701.684C701.728 165.27 703.896 166.397 706.21 166.661L705.786 167.584C703.654 167.313 701.655 166.361 700.937 164.903C700.227 166.361 698.234 167.313 696.088 167.584L695.678 166.661C697.949 166.397 700.131 165.27 700.19 163.79H696.088V162.838H705.815Z" fill="black"/>
<mask id="path-37-inside-13_308_6206" fill="white">
<path d="M533.333 186H800V221H533.333V186Z"/>
</mask>
<path d="M533.333 186H800V221H533.333V186Z" fill="white"/>
<path d="M800 220H533.333V222H800V220Z" fill="#495057" mask="url(#path-37-inside-13_308_6206)"/>
<path d="M593.806 207.608V208.575H581.882V207.608H587.243V205.147H583.376V201.134H591.169V199.083H583.347V198.131H592.297V202.071H584.519V204.195H592.604V205.147H588.371V207.608H593.806ZM605.114 198.556V199.859C605.114 201.5 605.114 203.36 604.631 206.188L603.459 206.07C603.986 203.404 603.986 201.456 603.986 199.859V199.508H596.135V198.556H605.114ZM606.711 207.315V208.268H594.846V207.315H606.711ZM618.562 197.179V206.7H617.419V197.179H618.562ZM618.972 208.941V209.908H610.153V205.733H611.296V208.941H618.972ZM611.53 198.087C613.479 198.087 614.943 199.405 614.943 201.28C614.943 203.185 613.479 204.488 611.53 204.488C609.582 204.488 608.117 203.185 608.117 201.28C608.117 199.405 609.582 198.087 611.53 198.087ZM611.53 199.098C610.212 199.098 609.23 200.006 609.245 201.28C609.23 202.584 610.212 203.478 611.53 203.478C612.819 203.478 613.815 202.584 613.815 201.28C613.815 200.006 612.819 199.098 611.53 199.098ZM634.719 197.164V201.134H636.682V202.101H634.719V206.7H633.562V197.164H634.719ZM631.203 198.175C631.203 201.529 628.801 204.02 625.051 205.191L624.553 204.269C627.673 203.294 629.709 201.434 629.958 199.142H625.095V198.175H631.203ZM635.319 208.941V209.908H626.56V205.733H627.702V208.941H635.319ZM648.298 197.164V206.861H647.141V203.082H644.914V202.115H647.141V200.606H644.914V199.654H647.141V197.164H648.298ZM644.812 198.233V199.171H643.479V203.727C644.086 203.69 644.672 203.646 645.236 203.58L645.295 204.444C642.761 204.84 639.787 204.884 637.678 204.884L637.531 203.902C638.051 203.902 638.615 203.895 639.216 203.888V199.171H637.897V198.233H644.812ZM648.649 208.941V209.908H639.904V206.056H641.062V208.941H648.649ZM640.329 203.858C640.996 203.851 641.684 203.829 642.365 203.8V199.171H640.329V203.858ZM664.982 197.179V206.7H663.84V197.179H664.982ZM665.393 208.941V209.908H656.574V205.733H657.717V208.941H665.393ZM657.951 198.087C659.899 198.087 661.364 199.405 661.364 201.28C661.364 203.185 659.899 204.488 657.951 204.488C656.003 204.488 654.538 203.185 654.538 201.28C654.538 199.405 656.003 198.087 657.951 198.087ZM657.951 199.098C656.633 199.098 655.651 200.006 655.666 201.28C655.651 202.584 656.633 203.478 657.951 203.478C659.24 203.478 660.236 202.584 660.236 201.28C660.236 200.006 659.24 199.098 657.951 199.098ZM679.06 203.36V204.312H667.194V203.36H679.06ZM673.127 205.455C675.925 205.455 677.595 206.319 677.609 207.813C677.595 209.322 675.925 210.157 673.127 210.157C670.314 210.157 668.63 209.322 668.63 207.813C668.63 206.319 670.314 205.455 673.127 205.455ZM673.127 206.363C671.032 206.378 669.787 206.891 669.802 207.813C669.787 208.722 671.032 209.234 673.127 209.234C675.192 209.234 676.452 208.722 676.452 207.813C676.452 206.891 675.192 206.378 673.127 206.363ZM678.005 197.838V198.79H673.874C673.918 200.27 676.086 201.397 678.4 201.661L677.976 202.584C675.844 202.313 673.845 201.361 673.127 199.903C672.417 201.361 670.424 202.313 668.278 202.584L667.868 201.661C670.139 201.397 672.321 200.27 672.38 198.79H668.278V197.838H678.005ZM688.508 200.665C688.508 203.023 690.017 205.396 691.906 206.261L691.218 207.198C689.738 206.437 688.515 204.876 687.937 203.023C687.358 204.972 686.135 206.642 684.655 207.433L683.908 206.51C685.812 205.572 687.336 203.067 687.336 200.665V198.292H688.508V200.665ZM694.719 197.164V210.216H693.576V202.555H690.485V201.617H693.576V197.164H694.719ZM707.624 197.164V210.216H706.467V197.164H707.624ZM698.791 198.277V201.72H702.673V198.277H703.801V207.066H697.648V198.277H698.791ZM698.791 206.1H702.673V202.643H698.791V206.1ZM716.34 199.083C716.34 201.31 718.889 203.302 721.159 203.727L720.632 204.693C718.669 204.239 716.596 202.84 715.754 200.914C714.912 202.833 712.846 204.232 710.876 204.693L710.349 203.727C712.604 203.287 715.139 201.324 715.139 199.083V198.087H716.34V199.083ZM721.774 207.462V208.414H709.851V207.462H721.774ZM737.316 197.164V210.216H736.159V197.164H737.316ZM730.388 198.175C732.321 198.189 733.713 199.947 733.713 202.716C733.713 205.484 732.321 207.242 730.388 207.242C728.439 207.242 727.062 205.484 727.062 202.716C727.062 199.947 728.439 198.189 730.388 198.175ZM730.388 199.2C729.084 199.215 728.176 200.592 728.176 202.716C728.176 204.84 729.084 206.217 730.388 206.217C731.691 206.217 732.6 204.84 732.6 202.716C732.6 200.592 731.691 199.215 730.388 199.2ZM751.408 203.609V204.562H739.543V203.609H742.487V201.778C741.447 201.375 740.861 200.709 740.861 199.83C740.861 198.292 742.619 197.413 745.476 197.413C748.303 197.413 750.075 198.292 750.075 199.83C750.075 200.702 749.497 201.368 748.464 201.764V203.609H751.408ZM745.476 205.558C748.273 205.558 749.943 206.363 749.958 207.857C749.943 209.337 748.273 210.157 745.476 210.157C742.648 210.157 740.979 209.337 740.979 207.857C740.979 206.363 742.648 205.558 745.476 205.558ZM745.476 206.437C743.381 206.451 742.136 206.964 742.15 207.857C742.136 208.736 743.381 209.264 745.476 209.264C747.541 209.264 748.801 208.736 748.801 207.857C748.801 206.964 747.541 206.451 745.476 206.437ZM745.476 198.321C743.352 198.321 742.033 198.893 742.048 199.83C742.033 200.782 743.352 201.339 745.476 201.339C747.585 201.339 748.903 200.782 748.903 199.83C748.903 198.893 747.585 198.321 745.476 198.321ZM743.63 203.609H747.321V202.086C746.772 202.181 746.157 202.232 745.476 202.232C744.794 202.232 744.179 202.181 743.63 202.086V203.609Z" fill="black"/>
</svg>
