<svg width="19" height="17" viewBox="0 0 19 17" fill="none" xmlns="http://www.w3.org/2000/svg">
<g clip-path="url(#clip0_1204_28061)">
<path d="M18.85 3.13047L18.27 3.07047C18.04 3.05047 17.88 2.90047 17.79 2.69047C17.71 2.48047 17.73 2.25047 17.87 2.08047L18.22 1.62047C18.28 1.56047 18.26 1.45047 18.2 1.39047L17.6 0.780469C17.54 0.720469 17.43 0.720469 17.37 0.760469L16.93 1.11047C16.76 1.26047 16.54 1.28047 16.33 1.19047C16.12 1.11047 15.98 0.920469 15.96 0.710469L15.9 0.130469C15.9 0.0504687 15.82 -0.0195312 15.73 -0.0195312H14.9C14.82 -0.0195312 14.73 0.0404687 14.73 0.130469L14.65 0.710469C14.63 0.940469 14.48 1.11047 14.28 1.19047C14.07 1.27047 13.84 1.25047 13.68 1.11047L13.24 0.760469C13.18 0.700469 13.07 0.720469 13.01 0.780469L12.41 1.39047C12.35 1.45047 12.35 1.56047 12.39 1.62047L12.74 2.08047C12.89 2.25047 12.91 2.48047 12.82 2.69047C12.74 2.90047 12.55 3.04047 12.34 3.07047L11.76 3.13047C11.68 3.13047 11.61 3.21047 11.61 3.30047V4.14047C11.61 4.22047 11.67 4.31047 11.76 4.31047L12.34 4.37047C12.57 4.39047 12.73 4.54047 12.82 4.75047C12.9 4.96047 12.88 5.19047 12.74 5.36047L12.39 5.82047C12.33 5.88047 12.35 5.99047 12.41 6.05047L13.01 6.66047C13.07 6.72047 13.18 6.72047 13.24 6.68047L13.7 6.33047C13.87 6.18047 14.09 6.16047 14.3 6.25047C14.51 6.33047 14.65 6.52047 14.67 6.73047L14.73 7.31047C14.73 7.39047 14.79 7.46047 14.88 7.46047H15.71C15.79 7.46047 15.88 7.40047 15.88 7.31047L15.94 6.73047C15.96 6.50047 16.11 6.33047 16.31 6.25047C16.52 6.17047 16.75 6.19047 16.91 6.33047L17.37 6.68047C17.43 6.74047 17.54 6.72047 17.6 6.66047L18.2 6.05047C18.26 5.99047 18.26 5.88047 18.22 5.82047L17.87 5.36047C17.72 5.19047 17.7 4.96047 17.79 4.75047C17.88 4.54047 18.06 4.40047 18.27 4.37047L18.85 4.31047C18.93 4.31047 19 4.23047 19 4.14047V3.30047C19 3.22047 18.94 3.13047 18.85 3.13047ZM15.32 5.07047C14.57 5.07047 13.97 4.46047 13.97 3.71047C13.97 2.96047 14.57 2.35047 15.32 2.35047C16.07 2.35047 16.67 2.96047 16.67 3.71047C16.67 4.46047 16.07 5.07047 15.32 5.07047ZM0 11.1205C0 12.5305 1.13 13.6705 2.53 13.6705H12.66C14.06 13.6705 15.19 12.5305 15.19 11.1205V10.8905H0V11.1205ZM7.6 11.4805C8.02 11.4805 8.37 11.8205 8.37 12.2505C8.37 12.6805 8.03 13.0205 7.6 13.0205C7.17 13.0205 6.83 12.6805 6.83 12.2505C6.83 11.8205 7.17 11.4805 7.6 11.4805ZM10.71 16.6805C10.71 16.8605 10.57 17.0005 10.39 17.0005H4.61C4.43 17.0005 4.29 16.8605 4.29 16.6805C4.29 16.5005 4.43 16.3605 4.61 16.3605H5.29L5.49 14.7405H9.51L9.71 16.3605H10.39C10.57 16.3605 10.71 16.5005 10.71 16.6805ZM15.2 8.58047V9.80047H0V5.64047C0 4.22047 1.13 3.08047 2.53 3.08047H10.71C10.69 3.27047 10.65 3.45047 10.65 3.64047C10.65 6.25047 12.65 8.36047 15.19 8.57047L15.2 8.58047Z" fill="#FBAF17"/>
</g>
<defs>
<clipPath id="clip0_1204_28061">
<rect width="19" height="17" fill="white"/>
</clipPath>
</defs>
</svg>
