<svg width="19" height="17" viewBox="0 0 19 17" fill="none" xmlns="http://www.w3.org/2000/svg">
<g clip-path="url(#clip0_1204_29355)">
<path d="M18.8494 3.12L18.2694 3.06C18.0394 3.04 17.8794 2.89 17.7894 2.69C17.7094 2.48 17.7294 2.25 17.8694 2.09L18.2194 1.63C18.2794 1.57 18.2594 1.46 18.1994 1.4L17.5994 0.8C17.5394 0.74 17.4294 0.74 17.3694 0.78L16.9294 1.13C16.7594 1.28 16.5394 1.3 16.3294 1.21C16.1194 1.13 15.9794 0.94 15.9594 0.73L15.8994 0.15C15.8994 0.07 15.8194 0 15.7294 0H14.8994C14.8194 0 14.7294 0.06 14.7294 0.15L14.6494 0.73C14.6294 0.96 14.4794 1.13 14.2794 1.21C14.0694 1.29 13.8394 1.27 13.6794 1.13L13.2394 0.78C13.1794 0.72 13.0694 0.74 13.0094 0.8L12.4094 1.4C12.3494 1.46 12.3494 1.57 12.3894 1.63L12.7394 2.09C12.8894 2.26 12.9094 2.49 12.8194 2.69C12.7394 2.9 12.5494 3.04 12.3394 3.06L11.7594 3.12C11.6794 3.12 11.6094 3.2 11.6094 3.29V4.12C11.6094 4.2 11.6694 4.29 11.7594 4.29L12.3394 4.35C12.5694 4.37 12.7294 4.52 12.8194 4.72C12.8994 4.93 12.8794 5.16 12.7394 5.32L12.3894 5.78C12.3294 5.84 12.3494 5.95 12.4094 6.01L13.0094 6.61C13.0694 6.67 13.1794 6.67 13.2394 6.63L13.6994 6.28C13.8694 6.13 14.0894 6.11 14.2994 6.2C14.5094 6.28 14.6494 6.47 14.6694 6.68L14.7294 7.26C14.7294 7.34 14.7894 7.41 14.8794 7.41H15.7094C15.7894 7.41 15.8794 7.35 15.8794 7.26L15.9394 6.68C15.9594 6.45 16.1094 6.28 16.3094 6.2C16.5194 6.12 16.7494 6.14 16.9094 6.28L17.3694 6.63C17.4294 6.69 17.5394 6.67 17.5994 6.61L18.1994 6.01C18.2594 5.95 18.2594 5.84 18.2194 5.78L17.8694 5.32C17.7194 5.15 17.6994 4.92 17.7894 4.72C17.8794 4.52 18.0594 4.37 18.2694 4.35L18.8494 4.29C18.9294 4.29 18.9994 4.21 18.9994 4.12V3.29C18.9994 3.21 18.9394 3.12 18.8494 3.12ZM15.3194 5.06C14.5694 5.06 13.9694 4.46 13.9694 3.71C13.9694 2.96 14.5694 2.36 15.3194 2.36C16.0694 2.36 16.6694 2.96 16.6694 3.71C16.6694 4.46 16.0694 5.06 15.3194 5.06Z" fill="#FBAF17"/>
<path d="M10.56 3.49043C10.56 2.66043 10.77 1.88043 11.11 1.19043H3.03C1.35 1.19043 0 2.55043 0 4.22043V13.9604C0 15.6404 1.35 17.0004 3.03 17.0004H11.53C13.2 17.0004 14.56 15.6404 14.56 13.9604V8.58043C12.27 8.02043 10.57 5.96043 10.57 3.49043H10.56ZM3.19 5.34043H6.83C7.39 5.34043 7.85 5.80043 7.85 6.37043C7.85 6.94043 7.39 7.40043 6.83 7.40043H3.19C2.63 7.40043 2.17 6.94043 2.17 6.37043C2.17 5.80043 2.63 5.34043 3.19 5.34043ZM11.45 14.7004H3.2C2.64 14.7004 2.18 14.2404 2.18 13.6704C2.18 13.1004 2.64 12.6404 3.2 12.6404H11.46C12.02 12.6404 12.48 13.1004 12.48 13.6704C12.48 14.2404 12.02 14.7004 11.46 14.7004H11.45ZM11.45 11.0404H3.2C2.64 11.0404 2.18 10.5804 2.18 10.0104C2.18 9.44043 2.64 8.98043 3.2 8.98043H11.46C12.02 8.98043 12.48 9.44043 12.48 10.0104C12.48 10.5804 12.02 11.0404 11.46 11.0404H11.45Z" fill="#FBAF17"/>
</g>
<defs>
<clipPath id="clip0_1204_29355">
<rect width="19" height="17" fill="white"/>
</clipPath>
</defs>
</svg>
