<svg width="60" height="60" viewBox="0 0 60 60" fill="none" xmlns="http://www.w3.org/2000/svg">
<rect width="60" height="60" rx="30" fill="#FFEBC2"/>
<g clip-path="url(#clip0_1204_29195)">
<path d="M47.4654 31.0941H30.451L18.4197 43.1254C20.8758 45.2922 23.8906 46.7263 27.1213 47.2645C30.352 47.8028 33.6689 47.4236 36.6947 46.1702C39.7206 44.9167 42.334 42.8392 44.2377 40.1741C46.1413 37.5089 47.2611 34.363 47.4654 31.0941ZM16.8732 41.5766C14.7064 39.1206 13.2723 36.1058 12.734 32.8751C12.1958 29.6444 12.575 26.3275 13.8284 23.3017C15.0819 20.2758 17.1593 17.6624 19.8245 15.7587C22.4897 13.8551 25.6356 12.7375 28.9044 12.5332V29.5476L16.8732 41.5766ZM31.0919 12.5332V28.9066H47.4654C47.1988 24.6515 45.3881 20.64 42.3734 17.6252C39.3586 14.6105 35.3471 12.7998 31.0919 12.5332Z" fill="#FBAF17"/>
</g>
<defs>
<clipPath id="clip0_1204_29195">
<rect width="35" height="35" fill="white" transform="translate(12.5 12.5)"/>
</clipPath>
</defs>
</svg>
