<svg width="19" height="19" viewBox="0 0 19 19" fill="none" xmlns="http://www.w3.org/2000/svg">
<path d="M3.97917 3C3.18904 3 2.43128 3.31388 1.87258 3.87258C1.31388 4.43128 1 5.18904 1 5.97917V7.33333H18.3333V5.97917C18.3333 5.18904 18.0195 4.43128 17.4608 3.87258C16.9021 3.31388 16.1443 3 15.3542 3H3.97917ZM18.3333 8.41667H1V13.0208C1 13.811 1.31388 14.5687 1.87258 15.1274C2.43128 15.6861 3.18904 16 3.97917 16H15.3542C16.1443 16 16.9021 15.6861 17.4608 15.1274C18.0195 14.5687 18.3333 13.811 18.3333 13.0208V8.41667ZM13.4583 12.75H15.625C15.7687 12.75 15.9064 12.8071 16.008 12.9087C16.1096 13.0102 16.1667 13.148 16.1667 13.2917C16.1667 13.4353 16.1096 13.5731 16.008 13.6747C15.9064 13.7763 15.7687 13.8333 15.625 13.8333H13.4583C13.3147 13.8333 13.1769 13.7763 13.0753 13.6747C12.9737 13.5731 12.9167 13.4353 12.9167 13.2917C12.9167 13.148 12.9737 13.0102 13.0753 12.9087C13.1769 12.8071 13.3147 12.75 13.4583 12.75Z" fill="#FBAF17"/>
</svg>
