<svg width="19" height="17" viewBox="0 0 19 17" fill="none" xmlns="http://www.w3.org/2000/svg">
<g clip-path="url(#clip0_1204_29579)">
<path d="M18.8491 5.26003L18.2591 5.20003C18.0291 5.18003 17.8591 5.03003 17.7791 4.81003C17.6991 4.59003 17.7191 4.36003 17.8591 4.18003L18.2191 3.71003C18.2791 3.65003 18.2591 3.54003 18.1991 3.47003L17.5891 2.84003C17.5291 2.78003 17.4191 2.78003 17.3591 2.82003L16.9191 3.19003C16.7491 3.34003 16.5191 3.36003 16.3091 3.28003C16.0991 3.19003 15.9491 3.00003 15.9291 2.78003L15.8691 2.18003C15.8691 2.09003 15.7891 2.03003 15.6991 2.03003H14.8591C14.7791 2.03003 14.6891 2.09003 14.6891 2.18003L14.6091 2.78003C14.5891 3.02003 14.4391 3.19003 14.2291 3.28003C14.0191 3.37003 13.7891 3.34003 13.6191 3.19003L13.1791 2.82003C13.1191 2.76003 13.0091 2.78003 12.9491 2.84003L12.3391 3.47003C12.2791 3.53003 12.2791 3.64003 12.3191 3.71003L12.6791 4.18003C12.8291 4.35003 12.8491 4.59003 12.7591 4.81003C12.6791 5.03003 12.4891 5.18003 12.2791 5.20003L11.6891 5.26003C11.6091 5.26003 11.5391 5.35003 11.5391 5.43003V6.29003C11.5391 6.38003 11.5991 6.46003 11.6891 6.46003L12.2791 6.52003C12.5091 6.54003 12.6791 6.69003 12.7591 6.91003C12.8391 7.13003 12.8191 7.36003 12.6791 7.54003L12.3191 8.01003C12.2591 8.07003 12.2791 8.18003 12.3391 8.25003L12.9491 8.88003C13.0091 8.94003 13.1191 8.94003 13.1791 8.90003L13.6391 8.53003C13.8091 8.38003 14.0391 8.36003 14.2491 8.44003C14.4591 8.53003 14.6091 8.72003 14.6291 8.94003L14.6891 9.54003C14.6891 9.63003 14.7491 9.69003 14.8391 9.69003H15.6791C15.7591 9.69003 15.8491 9.63003 15.8491 9.54003L15.9091 8.94003C15.9291 8.70003 16.0791 8.53003 16.2891 8.44003C16.4991 8.35003 16.7291 8.38003 16.8991 8.53003L17.3591 8.90003C17.4191 8.96003 17.5291 8.94003 17.5891 8.88003L18.1991 8.25003C18.2591 8.19003 18.2591 8.08003 18.2191 8.01003L17.8591 7.54003C17.7091 7.37003 17.6891 7.13003 17.7791 6.91003C17.8591 6.69003 18.0491 6.54003 18.2591 6.52003L18.8491 6.46003C18.9291 6.46003 18.9991 6.37003 18.9991 6.29003V5.43003C18.9991 5.34003 18.9391 5.26003 18.8491 5.26003ZM15.2791 7.27003C14.5291 7.27003 13.9191 6.64003 13.9191 5.87003C13.9191 5.10003 14.5291 4.47003 15.2791 4.47003C16.0291 4.47003 16.6391 5.10003 16.6391 5.87003C16.6391 6.64003 16.0291 7.27003 15.2791 7.27003Z" fill="#FBAF17"/>
<path d="M9.88828 8.33996C9.78828 8.28996 9.68828 8.28996 9.57828 8.33996C8.70828 8.96996 7.63828 9.38996 6.46828 9.38996C5.29828 9.38996 4.22828 9.01996 3.35828 8.33996C3.25828 8.28996 3.15828 8.23996 3.04828 8.33996C1.00828 9.69996 -0.0117188 12.38 -0.0117188 15.42C-0.0117188 17.52 12.9383 17.52 12.9383 15.42C12.9383 12.38 11.9183 9.69996 9.87828 8.33996H9.88828Z" fill="#FBAF17"/>
<path d="M6.48156 7.98C8.62443 7.98 10.3616 6.19362 10.3616 3.99C10.3616 1.78638 8.62443 0 6.48156 0C4.3387 0 2.60156 1.78638 2.60156 3.99C2.60156 6.19362 4.3387 7.98 6.48156 7.98Z" fill="#FBAF17"/>
</g>
<defs>
<clipPath id="clip0_1204_29579">
<rect width="19" height="17" fill="white"/>
</clipPath>
</defs>
</svg>
