<svg width="19" height="17" viewBox="0 0 19 17" fill="none" xmlns="http://www.w3.org/2000/svg">
<g clip-path="url(#clip0_1204_26581)">
<path d="M18.85 3.12998L18.27 3.06998C18.04 3.04998 17.88 2.89998 17.79 2.68998C17.71 2.47998 17.73 2.24998 17.87 2.07998L18.22 1.61998C18.28 1.55998 18.26 1.44998 18.2 1.38998L17.6 0.77998C17.54 0.71998 17.43 0.71998 17.37 0.75998L16.93 1.10998C16.76 1.25998 16.54 1.27998 16.33 1.18998C16.12 1.10998 15.98 0.91998 15.96 0.70998L15.9 0.12998C15.9 0.0499805 15.82 -0.0200195 15.73 -0.0200195H14.9C14.82 -0.0200195 14.73 0.0399805 14.73 0.12998L14.65 0.70998C14.63 0.93998 14.48 1.10998 14.28 1.18998C14.07 1.26998 13.84 1.24998 13.68 1.10998L13.24 0.75998C13.18 0.69998 13.07 0.71998 13.01 0.77998L12.41 1.38998C12.35 1.44998 12.35 1.55998 12.39 1.61998L12.74 2.07998C12.89 2.24998 12.91 2.47998 12.82 2.68998C12.74 2.89998 12.55 3.03998 12.34 3.06998L11.76 3.12998C11.68 3.12998 11.61 3.20998 11.61 3.29998V4.13998C11.61 4.21998 11.67 4.30998 11.76 4.30998L12.34 4.36998C12.57 4.38998 12.73 4.53998 12.82 4.74998C12.9 4.95998 12.88 5.18998 12.74 5.35998L12.39 5.81998C12.33 5.87998 12.35 5.98998 12.41 6.04998L13.01 6.65998C13.07 6.71998 13.18 6.71998 13.24 6.67998L13.7 6.32998C13.87 6.17998 14.09 6.15998 14.3 6.24998C14.51 6.32998 14.65 6.51998 14.67 6.72998L14.73 7.30998C14.73 7.38998 14.79 7.45998 14.88 7.45998H15.71C15.79 7.45998 15.88 7.39998 15.88 7.30998L15.94 6.72998C15.96 6.49998 16.11 6.32998 16.31 6.24998C16.52 6.16998 16.75 6.18998 16.91 6.32998L17.37 6.67998C17.43 6.73998 17.54 6.71998 17.6 6.65998L18.2 6.04998C18.26 5.98998 18.26 5.87998 18.22 5.81998L17.87 5.35998C17.72 5.18998 17.7 4.95998 17.79 4.74998C17.88 4.53998 18.06 4.39998 18.27 4.36998L18.85 4.30998C18.93 4.30998 19 4.22998 19 4.13998V3.29998C19 3.21998 18.94 3.12998 18.85 3.12998ZM15.32 5.06998C14.57 5.06998 13.97 4.45998 13.97 3.70998C13.97 2.95998 14.57 2.34998 15.32 2.34998C16.07 2.34998 16.67 2.95998 16.67 3.70998C16.67 4.45998 16.07 5.06998 15.32 5.06998ZM0 11.12C0 12.53 1.13 13.67 2.53 13.67H12.66C14.06 13.67 15.19 12.53 15.19 11.12V10.89H0V11.12ZM7.6 11.48C8.02 11.48 8.37 11.82 8.37 12.25C8.37 12.68 8.03 13.02 7.6 13.02C7.17 13.02 6.83 12.68 6.83 12.25C6.83 11.82 7.17 11.48 7.6 11.48ZM10.71 16.68C10.71 16.86 10.57 17 10.39 17H4.61C4.43 17 4.29 16.86 4.29 16.68C4.29 16.5 4.43 16.36 4.61 16.36H5.29L5.49 14.74H9.51L9.71 16.36H10.39C10.57 16.36 10.71 16.5 10.71 16.68ZM15.2 8.57998V9.79998H0V5.63998C0 4.21998 1.13 3.07998 2.53 3.07998H10.71C10.69 3.26998 10.65 3.44998 10.65 3.63998C10.65 6.24998 12.65 8.35998 15.19 8.56998L15.2 8.57998Z" fill="white"/>
</g>
<defs>
<clipPath id="clip0_1204_26581">
<rect width="19" height="17" fill="white"/>
</clipPath>
</defs>
</svg>
