<svg width="19" height="17" viewBox="0 0 19 17" fill="none" xmlns="http://www.w3.org/2000/svg">
<g clip-path="url(#clip0_1204_27879)">
<path d="M18.8491 5.26027L18.2591 5.20027C18.0291 5.18027 17.8591 5.03027 17.7791 4.81027C17.6991 4.59027 17.7191 4.36027 17.8591 4.18027L18.2191 3.71027C18.2791 3.65027 18.2591 3.54027 18.1991 3.47027L17.5891 2.84027C17.5291 2.78027 17.4191 2.78027 17.3591 2.82027L16.9191 3.19027C16.7491 3.34027 16.5191 3.36027 16.3091 3.28027C16.0991 3.19027 15.9491 3.00027 15.9291 2.78027L15.8691 2.18027C15.8691 2.09027 15.7891 2.03027 15.6991 2.03027H14.8591C14.7791 2.03027 14.6891 2.09027 14.6891 2.18027L14.6091 2.78027C14.5891 3.02027 14.4391 3.19027 14.2291 3.28027C14.0191 3.37027 13.7891 3.34027 13.6191 3.19027L13.1791 2.82027C13.1191 2.76027 13.0091 2.78027 12.9491 2.84027L12.3391 3.47027C12.2791 3.53027 12.2791 3.64027 12.3191 3.71027L12.6791 4.18027C12.8291 4.35027 12.8491 4.59027 12.7591 4.81027C12.6791 5.03027 12.4891 5.18027 12.2791 5.20027L11.6891 5.26027C11.6091 5.26027 11.5391 5.35027 11.5391 5.43027V6.29027C11.5391 6.38027 11.5991 6.46027 11.6891 6.46027L12.2791 6.52027C12.5091 6.54027 12.6791 6.69027 12.7591 6.91027C12.8391 7.13027 12.8191 7.36027 12.6791 7.54027L12.3191 8.01027C12.2591 8.07027 12.2791 8.18027 12.3391 8.25027L12.9491 8.88027C13.0091 8.94027 13.1191 8.94027 13.1791 8.90027L13.6391 8.53027C13.8091 8.38027 14.0391 8.36027 14.2491 8.44027C14.4591 8.53027 14.6091 8.72027 14.6291 8.94027L14.6891 9.54027C14.6891 9.63027 14.7491 9.69027 14.8391 9.69027H15.6791C15.7591 9.69027 15.8491 9.63027 15.8491 9.54027L15.9091 8.94027C15.9291 8.70027 16.0791 8.53027 16.2891 8.44027C16.4991 8.35027 16.7291 8.38027 16.8991 8.53027L17.3591 8.90027C17.4191 8.96027 17.5291 8.94027 17.5891 8.88027L18.1991 8.25027C18.2591 8.19027 18.2591 8.08027 18.2191 8.01027L17.8591 7.54027C17.7091 7.37027 17.6891 7.13027 17.7791 6.91027C17.8591 6.69027 18.0491 6.54027 18.2591 6.52027L18.8491 6.46027C18.9291 6.46027 18.9991 6.37027 18.9991 6.29027V5.43027C18.9991 5.34027 18.9391 5.26027 18.8491 5.26027ZM15.2791 7.27027C14.5291 7.27027 13.9191 6.64027 13.9191 5.87027C13.9191 5.10027 14.5291 4.47027 15.2791 4.47027C16.0291 4.47027 16.6391 5.10027 16.6391 5.87027C16.6391 6.64027 16.0291 7.27027 15.2791 7.27027Z" fill="white"/>
<path d="M9.88828 8.33996C9.78828 8.28996 9.68828 8.28996 9.57828 8.33996C8.70828 8.96996 7.63828 9.38996 6.46828 9.38996C5.29828 9.38996 4.22828 9.01996 3.35828 8.33996C3.25828 8.28996 3.15828 8.23996 3.04828 8.33996C1.00828 9.69996 -0.0117188 12.38 -0.0117188 15.42C-0.0117188 17.52 12.9383 17.52 12.9383 15.42C12.9383 12.38 11.9183 9.69996 9.87828 8.33996H9.88828Z" fill="white"/>
<path d="M6.48156 7.98C8.62443 7.98 10.3616 6.19362 10.3616 3.99C10.3616 1.78638 8.62443 0 6.48156 0C4.3387 0 2.60156 1.78638 2.60156 3.99C2.60156 6.19362 4.3387 7.98 6.48156 7.98Z" fill="white"/>
</g>
<defs>
<clipPath id="clip0_1204_27879">
<rect width="19" height="17" fill="white"/>
</clipPath>
</defs>
</svg>
