<svg width="14" height="15" viewBox="0 0 14 15" fill="none" xmlns="http://www.w3.org/2000/svg">
<path d="M12.5358 1.37264C10.5849 -0.457548 7.40799 -0.457548 5.45918 1.37264L0.0538653 6.43967C0.0186583 6.4727 1.91462e-05 6.51739 1.91462e-05 6.56402C1.91462e-05 6.61065 0.0186583 6.65533 0.0538653 6.68836L0.818065 7.40528C0.852996 7.43791 0.900281 7.45623 0.949574 7.45623C0.998866 7.45623 1.04615 7.43791 1.08108 7.40528L6.4864 2.33826C7.1574 1.70876 8.05 1.36293 8.99852 1.36293C9.94704 1.36293 10.8396 1.70876 11.5086 2.33826C12.1796 2.96775 12.5482 3.80513 12.5482 4.69303C12.5482 5.58286 12.1796 6.4183 11.5086 7.04779L5.99971 12.2139L5.10711 13.0513C4.2725 13.8343 2.91599 13.8343 2.08138 13.0513C1.67753 12.6724 1.45593 12.1692 1.45593 11.633C1.45593 11.0968 1.67753 10.5935 2.08138 10.2147L7.54675 5.08937C7.68551 4.96114 7.86776 4.88926 8.06243 4.88926H8.0645C8.25918 4.88926 8.43935 4.96114 8.57604 5.08937C8.7148 5.21954 8.78935 5.39052 8.78935 5.57315C8.78935 5.75384 8.71272 5.92481 8.57604 6.05304L4.10889 10.2399C4.07368 10.273 4.05504 10.3177 4.05504 10.3643C4.05504 10.4109 4.07368 10.4556 4.10889 10.4886L4.87309 11.2056C4.90802 11.2382 4.9553 11.2565 5.0046 11.2565C5.05389 11.2565 5.10117 11.2382 5.1361 11.2056L9.60118 7.01671C10.0133 6.63008 10.2391 6.11716 10.2391 5.57121C10.2391 5.02526 10.0112 4.51039 9.60118 4.1257C8.75 3.32718 7.36657 3.32912 6.51539 4.1257L5.98522 4.62502L1.05209 9.25102C0.717271 9.56328 0.451867 9.93479 0.271269 10.344C0.0906712 10.7532 -0.00152772 11.192 1.91462e-05 11.6349C1.91462e-05 12.5345 0.374871 13.3796 1.05209 14.015C1.75416 14.6717 2.67368 15 3.59321 15C4.51273 15 5.43226 14.6717 6.13226 14.015L12.5358 8.01146C13.4781 7.12551 14 5.94618 14 4.69303C14.0021 3.43792 13.4802 2.2586 12.5358 1.37264Z" fill="#FBAF17"/>
</svg>
