<svg width="20" height="20" viewBox="0 0 20 20" fill="none" xmlns="http://www.w3.org/2000/svg">
<path fill-rule="evenodd" clip-rule="evenodd" d="M10 2.5C7.6864 2.5 5.8336 4.296 5.8336 6.48757V7.77433C4.8064 7.79706 4 8.5973 4 9.56123V15.7131C4 16.6907 4.8304 17.5 5.8768 17.5H14.1232C15.1696 17.5 16 16.6907 16 15.7131V9.56123C16 8.5973 15.1936 7.79706 14.1664 7.77433V6.48757C14.1664 4.296 12.3136 2.5 10 2.5ZM12.2464 6.48757V7.77433H7.7536V6.48757C7.7536 5.27811 8.7712 4.31873 10 4.31873C11.2288 4.31873 12.2464 5.27811 12.2464 6.48757ZM10.96 11.7619C10.96 11.2617 10.528 10.8525 10 10.8525C9.472 10.8525 9.04 11.2617 9.04 11.7619V13.5215C9.04 14.0217 9.472 14.4309 10 14.4309C10.528 14.4309 10.96 14.0217 10.96 13.5215V11.7619Z" fill="white"/>
</svg>
