<svg width="20" height="20" viewBox="0 0 20 20" fill="none" xmlns="http://www.w3.org/2000/svg">
<path d="M15.3588 9.1849C15.1155 8.92232 14.8165 8.72265 14.4819 8.60503V7.33042C14.4819 6.03392 13.9979 4.84956 13.2173 3.97976L13.1666 3.91958C12.3556 3.04431 11.2355 2.5 10.0038 2.5H10.0013C8.77212 2.5 7.64942 3.04158 6.84097 3.91958C6.02999 4.79759 5.52566 6.00383 5.52566 7.33315V8.6105C5.19113 8.72812 4.89208 8.93053 4.64625 9.19584C4.2509 9.62527 4 10.2188 4 10.8698V15.1204C4 15.7604 4.24076 16.343 4.62344 16.7724L4.64372 16.797L4.64879 16.8025C5.04667 17.2292 5.59662 17.5 6.19979 17.5H13.7977C14.4034 17.5 14.9559 17.2319 15.3537 16.8025C15.7491 16.3758 16 15.7768 16 15.1231V10.8725C16 10.2598 15.7795 9.69639 15.4196 9.27243L15.3537 9.19311L15.3588 9.1849ZM7.43654 7.32768C7.43654 6.56455 7.72545 5.87254 8.1867 5.37473H8.19176C8.65554 4.87418 9.29673 4.55963 10.0013 4.55963H10.0038C10.7058 4.55963 11.3495 4.87144 11.8133 5.37473L11.8589 5.41849C12.2999 5.91357 12.5685 6.58917 12.5685 7.33042V8.48742H7.43654V7.32768ZM14.0917 15.1121C14.0917 15.1969 14.0612 15.2735 14.008 15.331C13.9523 15.3884 13.8813 15.4267 13.8027 15.4267H6.20486C6.12629 15.4267 6.0528 15.3911 5.99958 15.3337C5.94636 15.279 5.91595 15.1969 5.91595 15.1121V10.8616C5.91595 10.7741 5.95143 10.6947 6.00211 10.6373C6.0528 10.5799 6.12629 10.5498 6.20486 10.5498H13.8027C13.8813 10.5498 13.9548 10.5853 14.008 10.6428L14.0283 10.6674C14.0688 10.7221 14.0917 10.7905 14.0917 10.8643V15.1149V15.1121Z" fill="white"/>
</svg>
