<svg width="19" height="17" viewBox="0 0 19 17" fill="none" xmlns="http://www.w3.org/2000/svg">
<g clip-path="url(#clip0_1204_26984)">
<path d="M12.8183 0.339995C12.0483 -0.120005 11.1083 -0.120005 10.3383 0.339995L5.77828 3.26C5.64828 3.34 5.49828 3.39 5.33828 3.39H2.46828C1.09828 3.39 -0.0117188 4.53 -0.0117188 5.94V11.05C-0.0117188 12.46 1.09828 13.6 2.46828 13.6H5.29828C5.44828 13.6 5.60828 13.64 5.73828 13.73L10.3583 16.68C11.5583 17.36 13.0683 16.91 13.7283 15.68C13.9283 15.3 14.0383 14.88 14.0383 14.45V2.54C14.0383 1.64 13.5683 0.799995 12.8183 0.339995Z" fill="#FBAF17"/>
<path d="M16.5292 13.14C16.0692 13.14 15.6992 12.76 15.6992 12.29C15.6992 12.05 15.7992 11.81 15.9792 11.65C17.6692 10.07 17.8092 7.38 16.2792 5.64C16.1892 5.53 16.0892 5.43 15.9792 5.34C15.6392 5.03 15.6092 4.49 15.9092 4.14C16.2092 3.79 16.7392 3.76 17.0792 4.07C19.4592 6.27 19.6592 10.03 17.5192 12.48C17.3792 12.64 17.2292 12.79 17.0792 12.94C16.9292 13.08 16.7292 13.15 16.5292 13.15V13.14Z" fill="#FBAF17"/>
</g>
<defs>
<clipPath id="clip0_1204_26984">
<rect width="19" height="17" fill="white"/>
</clipPath>
</defs>
</svg>
