<svg width="20" height="20" viewBox="0 0 20 20" fill="none" xmlns="http://www.w3.org/2000/svg">
<path d="M17 16.1111C17 13.4259 15.9764 11.0648 13.9291 9.86111C13.8268 9.81481 13.7244 9.81481 13.622 9.86111C12.752 10.4167 11.6772 10.787 10.5 10.787C9.32283 10.787 8.24803 10.463 7.37795 9.86111C7.27559 9.81481 7.17323 9.76852 7.07087 9.86111C5.02362 11.0648 4 13.4259 4 16.1111C4 17.963 17 17.963 17 16.1111Z" fill="white"/>
<path d="M10.5 9.53704C12.6483 9.53704 14.3898 7.96174 14.3898 6.01852C14.3898 4.07529 12.6483 2.5 10.5 2.5C8.35174 2.5 6.61024 4.07529 6.61024 6.01852C6.61024 7.96174 8.35174 9.53704 10.5 9.53704Z" fill="white"/>
</svg>
