<svg width="19" height="17" viewBox="0 0 19 17" fill="none" xmlns="http://www.w3.org/2000/svg">
<g clip-path="url(#clip0_824_12408)">
<path d="M18.85 3.12L18.27 3.06C18.04 3.04 17.88 2.89 17.79 2.69C17.71 2.48 17.73 2.25 17.87 2.09L18.22 1.63C18.28 1.57 18.26 1.46 18.2 1.4L17.6 0.8C17.54 0.74 17.43 0.74 17.37 0.78L16.93 1.13C16.76 1.28 16.54 1.3 16.33 1.21C16.12 1.13 15.98 0.94 15.96 0.73L15.9 0.15C15.9 0.07 15.82 0 15.73 0H14.9C14.82 0 14.73 0.06 14.73 0.15L14.65 0.73C14.63 0.96 14.48 1.13 14.28 1.21C14.07 1.29 13.84 1.27 13.68 1.13L13.24 0.78C13.18 0.72 13.07 0.74 13.01 0.8L12.41 1.4C12.35 1.46 12.35 1.57 12.39 1.63L12.74 2.09C12.89 2.26 12.91 2.49 12.82 2.69C12.74 2.9 12.55 3.04 12.34 3.06L11.76 3.12C11.68 3.12 11.61 3.2 11.61 3.29V4.12C11.61 4.2 11.67 4.29 11.76 4.29L12.34 4.35C12.57 4.37 12.73 4.52 12.82 4.72C12.9 4.93 12.88 5.16 12.74 5.32L12.39 5.78C12.33 5.84 12.35 5.95 12.41 6.01L13.01 6.61C13.07 6.67 13.18 6.67 13.24 6.63L13.7 6.28C13.87 6.13 14.09 6.11 14.3 6.2C14.51 6.28 14.65 6.47 14.67 6.68L14.73 7.26C14.73 7.34 14.79 7.41 14.88 7.41H15.71C15.79 7.41 15.88 7.35 15.88 7.26L15.94 6.68C15.96 6.45 16.11 6.28 16.31 6.2C16.52 6.12 16.75 6.14 16.91 6.28L17.37 6.63C17.43 6.69 17.54 6.67 17.6 6.61L18.2 6.01C18.26 5.95 18.26 5.84 18.22 5.78L17.87 5.32C17.72 5.15 17.7 4.92 17.79 4.72C17.88 4.52 18.06 4.37 18.27 4.35L18.85 4.29C18.93 4.29 19 4.21 19 4.12V3.29C19 3.21 18.94 3.12 18.85 3.12ZM15.32 5.06C14.57 5.06 13.97 4.46 13.97 3.71C13.97 2.96 14.57 2.36 15.32 2.36C16.07 2.36 16.67 2.96 16.67 3.71C16.67 4.46 16.07 5.06 15.32 5.06Z" fill="white"/>
<path d="M10.56 3.49043C10.56 2.66043 10.77 1.88043 11.11 1.19043H3.03C1.35 1.19043 0 2.55043 0 4.22043V13.9604C0 15.6404 1.35 17.0004 3.03 17.0004H11.53C13.2 17.0004 14.56 15.6404 14.56 13.9604V8.58043C12.27 8.02043 10.57 5.96043 10.57 3.49043H10.56ZM3.19 5.34043H6.83C7.39 5.34043 7.85 5.80043 7.85 6.37043C7.85 6.94043 7.39 7.40043 6.83 7.40043H3.19C2.63 7.40043 2.17 6.94043 2.17 6.37043C2.17 5.80043 2.63 5.34043 3.19 5.34043ZM11.45 14.7004H3.2C2.64 14.7004 2.18 14.2404 2.18 13.6704C2.18 13.1004 2.64 12.6404 3.2 12.6404H11.46C12.02 12.6404 12.48 13.1004 12.48 13.6704C12.48 14.2404 12.02 14.7004 11.46 14.7004H11.45ZM11.45 11.0404H3.2C2.64 11.0404 2.18 10.5804 2.18 10.0104C2.18 9.44043 2.64 8.98043 3.2 8.98043H11.46C12.02 8.98043 12.48 9.44043 12.48 10.0104C12.48 10.5804 12.02 11.0404 11.46 11.0404H11.45Z" fill="white"/>
</g>
<defs>
<clipPath id="clip0_824_12408">
<rect width="19" height="17" fill="white"/>
</clipPath>
</defs>
</svg>
