<svg width="19" height="17" viewBox="0 0 19 17" fill="none" xmlns="http://www.w3.org/2000/svg">
<g clip-path="url(#clip0_824_14739)">
<path fill-rule="evenodd" clip-rule="evenodd" d="M10 8.33996C9.90001 8.28996 9.79001 8.28996 9.69001 8.33996C8.81001 8.96996 7.73001 9.38996 6.55001 9.38996C5.37001 9.38996 4.28001 9.01996 3.41001 8.33996C3.31001 8.28996 3.20001 8.23996 3.10001 8.33996C1.04001 9.69996 0.0100098 12.38 0.0100098 15.42C0.0100098 17.52 13.1 17.52 13.1 15.42C13.1 12.38 12.07 9.69996 10.01 8.33996H10Z" fill="white"/>
<path d="M6.54 7.98C8.70495 7.98 10.46 6.19362 10.46 3.99C10.46 1.78638 8.70495 0 6.54 0C4.37504 0 2.62 1.78638 2.62 3.99C2.62 6.19362 4.37504 7.98 6.54 7.98Z" fill="white"/>
<path fill-rule="evenodd" clip-rule="evenodd" d="M18.8801 4.19989L18.1801 3.44989C18.0001 3.25989 17.6901 3.22989 17.4801 3.41989L13.8501 7.02989L12.7801 5.87989C12.6001 5.68989 12.2901 5.65989 12.1101 5.84989L11.3801 6.56989C11.2001 6.75989 11.1701 7.06989 11.3501 7.28989L13.4901 9.52989C13.6701 9.71989 13.9801 9.71989 14.1601 9.52989L18.8601 4.89989C19.0401 4.70989 19.0701 4.39989 18.8901 4.21989L18.8801 4.19989Z" fill="white"/>
</g>
<defs>
<clipPath id="clip0_824_14739">
<rect width="19" height="17" fill="white"/>
</clipPath>
</defs>
</svg>
