<svg width="19" height="17" viewBox="0 0 19 17" fill="none" xmlns="http://www.w3.org/2000/svg">
<g clip-path="url(#clip0_824_12370)">
<path d="M12.82 0.340117C12.05 -0.119883 11.11 -0.119883 10.34 0.340117L5.77999 3.26012C5.64999 3.34012 5.49999 3.39012 5.33999 3.39012H2.46999C1.09999 3.39012 -0.0100098 4.53012 -0.0100098 5.94012V11.0501C-0.0100098 12.4601 1.09999 13.6001 2.46999 13.6001H5.29999C5.44999 13.6001 5.60999 13.6401 5.73999 13.7301L10.36 16.6801C11.56 17.3601 13.07 16.9101 13.73 15.6801C13.93 15.3001 14.04 14.8801 14.04 14.4501V2.54012C14.04 1.64012 13.57 0.800117 12.82 0.340117Z" fill="white"/>
<path d="M16.53 13.1404C16.07 13.1404 15.7 12.7604 15.7 12.2904C15.7 12.0504 15.8 11.8104 15.98 11.6504C17.67 10.0704 17.81 7.38036 16.28 5.64036C16.19 5.53036 16.09 5.43036 15.98 5.34036C15.64 5.03036 15.61 4.49036 15.91 4.14036C16.21 3.79036 16.74 3.76036 17.08 4.07036C19.46 6.27036 19.66 10.0304 17.52 12.4804C17.38 12.6404 17.23 12.7904 17.08 12.9404C16.93 13.0804 16.73 13.1504 16.53 13.1504V13.1404Z" fill="white"/>
</g>
<defs>
<clipPath id="clip0_824_12370">
<rect width="19" height="17" fill="white"/>
</clipPath>
</defs>
</svg>
