<svg width="20" height="20" viewBox="0 0 20 20" fill="none" xmlns="http://www.w3.org/2000/svg">
<path d="M16.2588 12.147L14.9339 11.2512C14.3019 10.8235 13.4873 10.9191 12.963 11.4878L12.5651 11.9155C12.4574 12.0312 12.2093 12.0866 12.0782 12.0262C10.2851 11.1455 8.96025 9.71635 8.14098 7.78895C8.08012 7.65308 8.13161 7.38636 8.24397 7.27062L8.63722 6.84287C9.16624 6.27421 9.25987 5.40361 8.86194 4.72424L8.02862 3.30007C7.76645 2.85722 7.34043 2.57038 6.85822 2.50999C6.37134 2.45463 5.8985 2.63077 5.55674 3.00316L5.04645 3.54666C4.04459 4.62359 3.73093 6.22892 4.24122 7.63295C4.2974 7.78895 4.35826 7.94496 4.4238 8.09593C4.48934 8.26703 4.55957 8.4331 4.62979 8.59917C4.6532 8.66459 4.68129 8.73001 4.70938 8.79543C4.70938 8.80549 4.71874 8.82059 4.7281 8.83066C5.09795 9.67106 5.53334 10.4561 6.0249 11.1757C6.0249 11.1858 6.02958 11.1959 6.03895 11.2009C6.04363 11.216 6.05299 11.2311 6.06235 11.2462C6.08576 11.2814 6.10917 11.3167 6.13726 11.3519C6.23557 11.4878 6.33389 11.6236 6.43688 11.7595C6.43688 11.7595 6.44156 11.7595 6.44156 11.7645C7.9303 13.7674 9.87784 15.2771 12.2514 16.2534C12.654 16.4195 13.0707 16.5 13.4873 16.5C14.4096 16.5 15.3225 16.1075 16.006 15.3727L16.5351 14.8041C16.8815 14.4317 17.0453 13.9234 16.9892 13.4051C16.9377 12.8817 16.6708 12.4238 16.2588 12.147Z" fill="white"/>
</svg>
