<svg width="19" height="17" viewBox="0 0 19 17" fill="none" xmlns="http://www.w3.org/2000/svg">
<g clip-path="url(#clip0_824_12386)">
<path fill-rule="evenodd" clip-rule="evenodd" d="M10 8.33996C9.90001 8.28996 9.79001 8.28996 9.69001 8.33996C8.81001 8.96996 7.73001 9.38996 6.55001 9.38996C5.37001 9.38996 4.28001 9.01996 3.41001 8.33996C3.31001 8.28996 3.20001 8.23996 3.10001 8.33996C1.04001 9.69996 0.0100098 12.38 0.0100098 15.42C0.0100098 17.52 13.1 17.52 13.1 15.42C13.1 12.38 12.07 9.69996 10.01 8.33996H10Z" fill="#FBAF17"/>
<path d="M6.54 7.98C8.70495 7.98 10.46 6.19362 10.46 3.99C10.46 1.78638 8.70495 0 6.54 0C4.37504 0 2.62 1.78638 2.62 3.99C2.62 6.19362 4.37504 7.98 6.54 7.98Z" fill="#FBAF17"/>
<path fill-rule="evenodd" clip-rule="evenodd" d="M18.8801 4.20038L18.1801 3.45038C18.0001 3.26038 17.6901 3.23038 17.4801 3.42038L13.8501 7.03038L12.7801 5.88038C12.6001 5.69038 12.2901 5.66038 12.1101 5.85038L11.3801 6.57038C11.2001 6.76038 11.1701 7.07038 11.3501 7.29038L13.4901 9.53038C13.6701 9.72038 13.9801 9.72038 14.1601 9.53038L18.8601 4.90038C19.0401 4.71038 19.0701 4.40038 18.8901 4.22038L18.8801 4.20038Z" fill="#FBAF17"/>
</g>
<defs>
<clipPath id="clip0_824_12386">
<rect width="19" height="17" fill="white"/>
</clipPath>
</defs>
</svg>
