<svg width="10" height="10" viewBox="0 0 10 10" fill="none" xmlns="http://www.w3.org/2000/svg">
<path d="M5 0C2.23793 0 0 2.23793 0 5C0 7.76207 2.23793 10 5 10C7.76207 10 10 7.76207 10 5C9.99655 2.24138 7.75862 0 5 0ZM5 9.03103C2.77241 9.03103 0.968966 7.22414 0.968966 5C0.968966 2.77586 2.77241 0.968966 5 0.968966C7.22759 0.968966 9.03103 2.77586 9.03103 5C9.03103 7.22759 7.22414 9.03103 5 9.03103Z" fill="#C2255C"/>
<path d="M5 2.57931C4.73448 2.57931 4.51724 2.79655 4.51724 3.06207V4.99655C4.51724 5.26207 4.73448 5.47931 5 5.47931C5.26552 5.47931 5.48276 5.26207 5.48276 4.99655V3.06207C5.48276 2.79655 5.26552 2.57931 5 2.57931Z" fill="#C2255C"/>
<path d="M5.34138 6.5931C5.20345 6.45517 4.9931 6.41379 4.81379 6.48966C4.75517 6.51379 4.70345 6.54828 4.65862 6.5931C4.46897 6.78276 4.46897 7.08621 4.65862 7.27586C4.70345 7.32069 4.75517 7.35517 4.81379 7.37931C5.05862 7.48276 5.34483 7.36897 5.44828 7.12069C5.47241 7.06207 5.48621 6.99655 5.48621 6.93448C5.48621 6.86897 5.47241 6.8069 5.44828 6.74828C5.42414 6.68966 5.38966 6.63793 5.34483 6.5931H5.34138Z" fill="#C2255C"/>
</svg>
