<svg width="19" height="17" viewBox="0 0 19 17" fill="none" xmlns="http://www.w3.org/2000/svg">
<g clip-path="url(#clip0_824_12401)">
<path d="M18.86 3.19977L18.28 3.13977C18.05 3.11977 17.89 2.96977 17.81 2.75977C17.73 2.54977 17.75 2.30977 17.89 2.13977L18.24 1.66977C18.3 1.60977 18.28 1.49977 18.22 1.43977L17.62 0.819766C17.56 0.759766 17.46 0.759766 17.39 0.799766L16.96 1.15977C16.8 1.30977 16.57 1.32977 16.36 1.24977C16.15 1.15977 16.01 0.969766 15.99 0.759766L15.93 0.159766C15.93 0.0697656 15.85 0.00976562 15.77 0.00976562H14.95C14.87 0.00976562 14.79 0.0697656 14.79 0.159766L14.71 0.759766C14.69 0.989766 14.55 1.16977 14.34 1.24977C14.13 1.33977 13.91 1.30977 13.74 1.15977L13.31 0.799766C13.25 0.739766 13.15 0.759766 13.08 0.819766L12.48 1.43977C12.42 1.49977 12.42 1.60977 12.46 1.66977L12.81 2.13977C12.95 2.30977 12.97 2.54977 12.89 2.75977C12.81 2.96977 12.62 3.11977 12.42 3.13977L11.84 3.19977C11.76 3.19977 11.7 3.28977 11.7 3.36977V4.21977C11.7 4.30977 11.76 4.38977 11.84 4.38977L12.42 4.44977C12.65 4.46977 12.81 4.61977 12.89 4.82977C12.97 5.03977 12.95 5.27977 12.81 5.44977L12.46 5.91977C12.4 5.97977 12.42 6.08977 12.48 6.14977L13.08 6.76977C13.14 6.82977 13.24 6.82977 13.31 6.78977L13.76 6.42977C13.92 6.27977 14.15 6.25977 14.36 6.33977C14.57 6.42977 14.71 6.61977 14.73 6.82977L14.79 7.42977C14.79 7.51977 14.85 7.57977 14.93 7.57977H15.75C15.83 7.57977 15.91 7.51977 15.91 7.42977L15.97 6.82977C15.99 6.59977 16.13 6.41977 16.34 6.33977C16.55 6.24977 16.77 6.27977 16.94 6.42977L17.39 6.78977C17.45 6.84977 17.55 6.82977 17.62 6.76977L18.22 6.14977C18.28 6.08977 18.28 5.97977 18.24 5.91977L17.89 5.44977C17.75 5.27977 17.73 5.03977 17.81 4.82977C17.89 4.61977 18.08 4.46977 18.28 4.44977L18.86 4.38977C18.94 4.38977 19 4.29977 19 4.21977V3.36977C19 3.27977 18.94 3.19977 18.86 3.19977ZM15.36 5.17977C14.62 5.17977 14.02 4.55977 14.02 3.78977C14.02 3.01977 14.62 2.39977 15.36 2.39977C16.1 2.39977 16.7 3.01977 16.7 3.78977C16.7 4.55977 16.1 5.17977 15.36 5.17977Z" fill="white"/>
<path d="M11.29 5.23047H2.43C1.09 5.23047 0 6.36047 0 7.75047V14.4805C0 15.8705 1.09 17.0005 2.43 17.0005H12.16C13.5 17.0005 14.59 15.8705 14.59 14.4805V8.18047C12.91 8.18047 11.53 6.90047 11.28 5.23047H11.29ZM5.53 13.3605V8.88047L9.85 11.1705L5.53 13.3705V13.3605Z" fill="white"/>
</g>
<defs>
<clipPath id="clip0_824_12401">
<rect width="19" height="17" fill="white"/>
</clipPath>
</defs>
</svg>
