<svg width="10" height="11" viewBox="0 0 10 11" fill="none" xmlns="http://www.w3.org/2000/svg">
<path d="M5 0.5C2.23793 0.5 0 2.73793 0 5.5C0 8.26207 2.23793 10.5 5 10.5C7.76207 10.5 10 8.26207 10 5.5C9.99655 2.74138 7.75862 0.5 5 0.5ZM5 9.53103C2.77241 9.53103 0.968966 7.72414 0.968966 5.5C0.968966 3.27586 2.77241 1.46897 5 1.46897C7.22759 1.46897 9.03103 3.27586 9.03103 5.5C9.03103 7.72759 7.22414 9.53103 5 9.53103Z" fill="#495057"/>
<path d="M5 3.07931C4.73448 3.07931 4.51724 3.29655 4.51724 3.56207V5.49655C4.51724 5.76207 4.73448 5.97931 5 5.97931C5.26552 5.97931 5.48276 5.76207 5.48276 5.49655V3.56207C5.48276 3.29655 5.26552 3.07931 5 3.07931Z" fill="#495057"/>
<path d="M5.34138 7.0931C5.20345 6.95517 4.9931 6.91379 4.81379 6.98966C4.75517 7.01379 4.70345 7.04828 4.65862 7.0931C4.46897 7.28276 4.46897 7.58621 4.65862 7.77586C4.70345 7.82069 4.75517 7.85517 4.81379 7.87931C5.05862 7.98276 5.34483 7.86897 5.44828 7.62069C5.47241 7.56207 5.48621 7.49655 5.48621 7.43448C5.48621 7.36897 5.47241 7.3069 5.44828 7.24828C5.42414 7.18966 5.38966 7.13793 5.34483 7.0931H5.34138Z" fill="#495057"/>
</svg>
