<svg width="292" height="83" viewBox="0 0 292 83" fill="none" xmlns="http://www.w3.org/2000/svg">
<path d="M100.01 52.6215H86.0928V14.6465H100.292C104.371 14.6465 107.876 15.4078 110.81 16.9214C113.743 18.435 115.998 20.6114 117.583 23.4416C119.16 26.2719 119.953 29.6574 119.953 33.6071C119.953 37.5569 119.16 40.9603 117.575 43.8084C115.989 46.6476 113.708 48.8329 110.73 50.3555C107.753 51.8781 104.177 52.6394 100.01 52.6394V52.6215ZM93.5272 46.6655H99.6492C102.512 46.6655 104.899 46.1818 106.811 45.2056C108.722 44.2383 110.158 42.7874 111.127 40.8438C112.087 38.9093 112.571 36.4911 112.571 33.5892C112.571 30.6873 112.087 28.2691 111.127 26.3435C110.167 24.4179 108.74 22.9849 106.863 22.0265C104.987 21.0682 102.653 20.5935 99.8694 20.5935H93.5272V46.6655Z" fill="white"/>
<path d="M162.172 27.4618H154.668C154.456 26.3244 154.06 25.3123 153.487 24.4346C152.915 23.5479 152.192 22.7956 151.338 22.1776C150.484 21.5596 149.506 21.0939 148.422 20.7804C147.33 20.4669 146.159 20.3057 144.899 20.3057C142.662 20.3057 140.688 20.8252 138.962 21.8552C137.235 22.8852 135.888 24.3988 134.91 26.3781C133.932 28.3575 133.448 30.7847 133.448 33.6328C133.448 36.4809 133.941 38.9797 134.919 40.9681C135.905 42.9564 137.253 44.4521 138.971 45.4552C140.688 46.4583 142.662 46.9688 144.881 46.9688C146.114 46.9688 147.268 46.8166 148.343 46.512C149.418 46.2075 150.387 45.7597 151.25 45.1686C152.113 44.5775 152.844 43.843 153.434 42.9832C154.033 42.1145 154.439 41.1293 154.668 40.0187L162.172 40.0545C161.891 41.8637 161.283 43.5564 160.358 45.1328C159.424 46.718 158.217 48.1063 156.72 49.3154C155.223 50.5155 153.47 51.456 151.461 52.1366C149.453 52.8173 147.233 53.1487 144.784 53.1487C141.173 53.1487 137.949 52.3784 135.113 50.829C132.276 49.2795 130.048 47.0494 128.409 44.1386C126.78 41.2188 125.96 37.7259 125.96 33.6418C125.96 29.5577 126.78 26.0467 128.427 23.1359C130.074 20.2251 132.311 17.995 135.148 16.4545C137.984 14.914 141.19 14.1348 144.776 14.1348C147.066 14.1348 149.189 14.4303 151.153 15.0215C153.117 15.6126 154.87 16.4814 156.412 17.6278C157.953 18.7742 159.213 20.1714 160.217 21.8193C161.212 23.4673 161.864 25.3481 162.172 27.4618Z" fill="white"/>
<path d="M205.722 33.6339C205.722 37.727 204.894 41.2289 203.247 44.1397C201.591 47.0505 199.345 49.2807 196.509 50.8212C193.663 52.3706 190.448 53.1409 186.846 53.1409C183.243 53.1409 180.028 52.3617 177.183 50.8122C174.337 49.2628 172.091 47.0326 170.444 44.1218C168.797 41.211 167.969 37.718 167.969 33.6339C167.969 29.5498 168.797 26.0389 170.444 23.1281C172.1 20.2173 174.346 17.9871 177.183 16.4466C180.028 14.8972 183.243 14.127 186.846 14.127C190.448 14.127 193.663 14.8972 196.509 16.4466C199.354 17.9961 201.6 20.2173 203.247 23.1281C204.903 26.0389 205.722 29.5409 205.722 33.6339ZM198.244 33.6339C198.244 30.75 197.759 28.3228 196.79 26.3345C195.821 24.3462 194.483 22.8505 192.765 21.8294C191.047 20.8084 189.083 20.2979 186.846 20.2979C184.608 20.2979 182.644 20.8084 180.926 21.8294C179.208 22.8505 177.87 24.3551 176.901 26.3345C175.932 28.3228 175.447 30.75 175.447 33.6339C175.447 36.5179 175.932 38.945 176.901 40.9333C177.87 42.9217 179.208 44.4174 180.926 45.4384C182.644 46.4594 184.608 46.9699 186.846 46.9699C189.083 46.9699 191.047 46.4594 192.765 45.4384C194.483 44.4174 195.821 42.9127 196.79 40.9333C197.759 38.945 198.244 36.5179 198.244 33.6339Z" fill="white"/>
<path d="M247.95 27.4618H240.445C240.234 26.3244 239.838 25.3123 239.265 24.4346C238.693 23.5479 237.97 22.7956 237.116 22.1776C236.261 21.5596 235.284 21.0939 234.2 20.7804C233.108 20.4669 231.936 20.3057 230.677 20.3057C228.439 20.3057 226.466 20.8252 224.74 21.8552C223.013 22.8852 221.666 24.3988 220.688 26.3781C219.71 28.3575 219.226 30.7847 219.226 33.6328C219.226 36.4809 219.719 38.9797 220.697 40.9681C221.683 42.9564 223.031 44.4521 224.749 45.4552C226.466 46.4583 228.439 46.9688 230.659 46.9688C231.892 46.9688 233.046 46.8166 234.121 46.512C235.196 46.2075 236.164 45.7597 237.028 45.1686C237.891 44.5775 238.622 43.843 239.212 42.9832C239.811 42.1145 240.216 41.1293 240.445 40.0187L247.95 40.0545C247.668 41.8637 247.061 43.5564 246.136 45.1328C245.202 46.718 243.995 48.1063 242.498 49.3154C241 50.5155 239.247 51.456 237.239 52.1366C235.231 52.8173 233.011 53.1487 230.562 53.1487C226.951 53.1487 223.727 52.3784 220.89 50.829C218.054 49.2795 215.825 47.0494 214.187 44.1386C212.557 41.2188 211.738 37.7259 211.738 33.6418C211.738 29.5577 212.557 26.0467 214.205 23.1359C215.852 20.2251 218.089 17.995 220.926 16.4545C223.762 14.914 226.968 14.1348 230.553 14.1348C232.844 14.1348 234.966 14.4303 236.931 15.0215C238.895 15.6126 240.648 16.4814 242.19 17.6278C243.731 18.7742 244.991 20.1714 245.995 21.8193C246.99 23.4673 247.642 25.3481 247.95 27.4618Z" fill="white"/>
<path d="M291.5 33.6339C291.5 37.727 290.672 41.2289 289.025 44.1397C287.369 47.0505 285.123 49.2807 282.286 50.8212C279.441 52.3706 276.226 53.1409 272.623 53.1409C269.021 53.1409 265.806 52.3617 262.96 50.8122C260.115 49.2628 257.869 47.0326 256.222 44.1218C254.575 41.211 253.747 37.718 253.747 33.6339C253.747 29.5498 254.575 26.0389 256.222 23.1281C257.878 20.2173 260.124 17.9871 262.96 16.4466C265.806 14.8972 269.021 14.127 272.623 14.127C276.226 14.127 279.441 14.8972 282.286 16.4466C285.132 17.9961 287.378 20.2173 289.025 23.1281C290.681 26.0389 291.5 29.5409 291.5 33.6339ZM284.022 33.6339C284.022 30.75 283.537 28.3228 282.568 26.3345C281.599 24.3462 280.26 22.8505 278.543 21.8294C276.825 20.8084 274.861 20.2979 272.623 20.2979C270.386 20.2979 268.422 20.8084 266.704 21.8294C264.986 22.8505 263.647 24.3551 262.678 26.3345C261.71 28.3228 261.225 30.75 261.225 33.6339C261.225 36.5179 261.71 38.945 262.678 40.9333C263.647 42.9217 264.986 44.4174 266.704 45.4384C268.422 46.4594 270.386 46.9699 272.623 46.9699C274.861 46.9699 276.825 46.4594 278.543 45.4384C280.26 44.4174 281.599 42.9127 282.568 40.9333C283.537 38.945 284.022 36.5179 284.022 33.6339Z" fill="white"/>
<path d="M130.532 60.3047C131.201 60.3047 131.774 60.4211 132.259 60.6629C132.743 60.9048 133.113 61.2451 133.377 61.684C133.633 62.1228 133.765 62.6333 133.765 63.2155C133.765 63.7977 133.633 64.3082 133.377 64.747C133.122 65.1859 132.752 65.5263 132.259 65.7681C131.774 66.0099 131.201 66.1263 130.532 66.1263H128.779V68.6878H127.749V60.3047H130.523H130.532ZM132.135 64.6306C132.54 64.2992 132.734 63.8245 132.734 63.2155C132.734 62.6065 132.532 62.1318 132.135 61.8004C131.73 61.469 131.175 61.2988 130.462 61.2988H128.788V65.1322H130.462C131.175 65.1322 131.739 64.9709 132.135 64.6396V64.6306Z" fill="white"/>
<path d="M140.037 66.6189H136.276L135.492 68.6878H134.417L137.641 60.3047H138.724L141.94 68.6878H140.812L140.028 66.6189H140.037ZM139.676 65.6427L138.161 61.5944L136.637 65.6427H139.676Z" fill="white"/>
<path d="M145.93 65.8845V68.6878H144.89V65.8845L141.816 60.3047H142.979L145.445 64.8545L147.991 60.3047H149.092L145.921 65.8845H145.93Z" fill="white"/>
<path d="M152.078 60.3047L155.099 66.0009L158.121 60.3047H159.019V68.6878H157.989V62.499L155.469 67.2727H154.73L152.21 62.499V68.6878H151.18V60.3047H152.078Z" fill="white"/>
<path d="M167.237 60.3047V61.2809H162.701V63.9231H166.894V64.8993H162.701V67.7295H167.326V68.7058H161.67V60.3226H167.237V60.3047Z" fill="white"/>
<path d="M170.585 60.3057L175.332 66.8349V60.252H176.372V68.6351H175.403L170.655 62.1059V68.6888H169.625V60.3057H170.585Z" fill="white"/>
<path d="M182.388 61.2899V68.6878H181.358V61.2899H178.539V60.3047H185.19V61.2899H182.38H182.388Z" fill="white"/>
<path d="M192.73 68.3126C192.104 67.9364 191.62 67.417 191.267 66.7452C190.915 66.0825 190.739 65.3301 190.739 64.4882C190.739 63.6463 190.915 62.903 191.267 62.2312C191.62 61.5685 192.104 61.04 192.73 60.6639C193.355 60.2877 194.06 60.0996 194.844 60.0996C195.487 60.0996 196.086 60.225 196.632 60.4668C197.178 60.7176 197.627 61.058 197.997 61.4879C198.367 61.9178 198.614 62.4014 198.755 62.9388H197.636C197.53 62.5895 197.345 62.276 197.072 61.9984C196.799 61.7207 196.473 61.4968 196.094 61.3356C195.716 61.1744 195.302 61.0938 194.87 61.0938C194.28 61.0938 193.742 61.2371 193.267 61.5326C192.791 61.8192 192.43 62.2223 192.166 62.7328C191.901 63.2433 191.769 63.8255 191.769 64.4793C191.769 65.1331 191.901 65.7153 192.166 66.2347C192.43 66.7542 192.8 67.1572 193.276 67.4528C193.751 67.7484 194.289 67.8917 194.888 67.8917C195.416 67.8917 195.892 67.7752 196.323 67.5423C196.746 67.3095 197.09 66.996 197.354 66.593C197.618 66.1899 197.768 65.7421 197.803 65.2406H194.685V64.2912H198.904V64.6674C198.904 65.4734 198.728 66.1989 198.367 66.8348C198.015 67.4707 197.53 67.9723 196.914 68.3305C196.297 68.6888 195.61 68.8679 194.852 68.8679C194.095 68.8679 193.355 68.6798 192.738 68.3036L192.73 68.3126Z" fill="white"/>
<path d="M205.784 66.6189H202.023L201.239 68.6878H200.164L203.388 60.3047H204.471L207.687 68.6878H206.559L205.775 66.6189H205.784ZM205.423 65.6427L203.908 61.5944L202.384 65.6427H205.423Z" fill="white"/>
<path d="M211.8 61.2899V68.6878H210.769V61.2899H207.951V60.3047H214.601V61.2899H211.791H211.8Z" fill="white"/>
<path d="M222.361 60.3047V61.2809H217.825V63.9231H222.018V64.8993H217.825V67.7295H222.45V68.7058H216.794V60.3226H222.361V60.3047Z" fill="white"/>
<path d="M234.781 60.3047L232.394 68.6878H231.355L229.47 61.9974L227.576 68.6878H226.537L224.158 60.3047H225.224L227.083 67.022L228.932 60.3047H230.025L231.883 67.0488L233.742 60.3047H234.781Z" fill="white"/>
<path d="M240.762 66.6189H237.001L236.217 68.6878H235.143L238.367 60.3047H239.45L242.665 68.6878H241.538L240.754 66.6189H240.762ZM240.401 65.6427L238.886 61.5944L237.362 65.6427H240.401Z" fill="white"/>
<path d="M246.664 65.8845V68.6878H245.625V65.8845L242.551 60.3047H243.713L246.18 64.8545L248.726 60.3047H249.827L246.656 65.8845H246.664Z" fill="white"/>
<path d="M21.9929 63.3603V47.409L36.8442 56.7773L67.4275 37.4853C71.0391 35.2104 73.1883 31.2786 73.1883 26.9616C73.1883 22.6446 71.0391 18.7128 67.4275 16.4379L46.7362 3.38843C40.6319 -0.462809 33.0477 -0.462809 26.9433 3.38843L0.5 20.0652V59.5627L8.01371 64.3813V24.9912L8.64793 24.6688L31.2507 10.4102C34.7037 8.23384 38.9935 8.23384 42.4552 10.4102L63.1466 23.4596C64.3445 24.212 65.058 25.5196 65.058 26.9526C65.058 28.3857 64.3445 29.6843 63.1466 30.4456L36.853 47.0328L14.4528 32.8997V68.331L36.8354 82.5L72.4044 60.3061V50.5885L36.8706 72.7555L22.0017 63.3423L21.9929 63.3603Z" fill="#FBAF17"/>
</svg>
