<svg width="160" height="45" viewBox="0 0 160 45" fill="none" xmlns="http://www.w3.org/2000/svg">
<path d="M54.7128 28.6036H47.0605V7.76367H54.8678C57.1102 7.76367 59.0378 8.18146 60.6506 9.01211C62.2634 9.84275 63.5032 11.0371 64.375 12.5903C65.2419 14.1434 65.6778 16.0013 65.6778 18.1689C65.6778 20.3364 65.2419 22.2042 64.3702 23.7672C63.4984 25.3252 62.244 26.5245 60.607 27.3601C58.97 28.1956 57.0036 28.6134 54.7128 28.6134V28.6036ZM51.1482 25.3351H54.5142C56.0883 25.3351 57.4008 25.0697 58.4518 24.5339C59.5027 24.0031 60.2922 23.2068 60.8249 22.1403C61.3528 21.0786 61.6192 19.7515 61.6192 18.1591C61.6192 16.5666 61.3528 15.2395 60.8249 14.1828C60.297 13.126 59.5124 12.3396 58.4808 11.8137C57.4492 11.2878 56.1658 11.0273 54.6353 11.0273H51.1482V25.3351Z" fill="white"/>
<path d="M88.8928 14.798H84.7664C84.6502 14.1738 84.4322 13.6184 84.1174 13.1367C83.8026 12.6501 83.4055 12.2373 82.9357 11.8981C82.4659 11.559 81.9283 11.3034 81.3326 11.1314C80.732 10.9593 80.0879 10.8709 79.3953 10.8709C78.1651 10.8709 77.0803 11.156 76.131 11.7212C75.1817 12.2864 74.4407 13.1171 73.9031 14.2033C73.3655 15.2895 73.0991 16.6215 73.0991 18.1845C73.0991 19.7475 73.3704 21.1188 73.908 22.21C74.4504 23.3011 75.1914 24.1219 76.1358 24.6724C77.0803 25.2229 78.1651 25.503 79.3856 25.503C80.0637 25.503 80.6981 25.4195 81.289 25.2524C81.8799 25.0853 82.4126 24.8395 82.8873 24.5151C83.3619 24.1907 83.7639 23.7877 84.0884 23.3159C84.4177 22.8391 84.6405 22.2984 84.7664 21.689L88.8928 21.7086C88.7378 22.7015 88.4037 23.6304 87.8951 24.4955C87.3817 25.3654 86.7182 26.1273 85.8949 26.7908C85.0715 27.4494 84.1077 27.9655 83.0035 28.3391C81.8992 28.7126 80.6788 28.8945 79.3323 28.8945C77.3466 28.8945 75.574 28.4718 74.0145 27.6214C72.455 26.7711 71.2297 25.5473 70.3288 23.9499C69.4328 22.3476 68.9824 20.4307 68.9824 18.1894C68.9824 15.9482 69.4328 14.0214 70.3385 12.424C71.2442 10.8266 72.4744 9.60279 74.0339 8.75739C75.5934 7.912 77.3563 7.48438 79.3275 7.48438C80.5867 7.48438 81.7539 7.64658 82.834 7.97098C83.914 8.29537 84.8778 8.77214 85.7254 9.40127C86.5729 10.0304 87.2655 10.7971 87.8176 11.7015C88.3649 12.6059 88.7233 13.6381 88.8928 14.798Z" fill="white"/>
<path d="M112.836 18.1836C112.836 20.4297 112.381 22.3515 111.475 23.9489C110.565 25.5463 109.33 26.7702 107.77 27.6156C106.206 28.4659 104.438 28.8886 102.457 28.8886C100.476 28.8886 98.7085 28.461 97.1441 27.6107C95.5798 26.7604 94.3447 25.5365 93.4391 23.9391C92.5334 22.3417 92.0781 20.4248 92.0781 18.1836C92.0781 15.9423 92.5334 14.0156 93.4391 12.4182C94.3496 10.8208 95.5846 9.59691 97.1441 8.75152C98.7085 7.90121 100.476 7.47852 102.457 7.47852C104.438 7.47852 106.206 7.90121 107.77 8.75152C109.334 9.60183 110.569 10.8208 111.475 12.4182C112.386 14.0156 112.836 15.9374 112.836 18.1836ZM108.724 18.1836C108.724 16.6009 108.458 15.2689 107.925 14.1778C107.392 13.0866 106.656 12.2658 105.712 11.7055C104.767 11.1452 103.687 10.865 102.457 10.865C101.227 10.865 100.147 11.1452 99.2025 11.7055C98.2581 12.2658 97.5219 13.0915 96.9891 14.1778C96.4564 15.2689 96.19 16.6009 96.19 18.1836C96.19 19.7662 96.4564 21.0982 96.9891 22.1893C97.5219 23.2805 98.2581 24.1013 99.2025 24.6616C100.147 25.2219 101.227 25.5021 102.457 25.5021C103.687 25.5021 104.767 25.2219 105.712 24.6616C106.656 24.1013 107.392 23.2756 107.925 22.1893C108.458 21.0982 108.724 19.7662 108.724 18.1836Z" fill="white"/>
<path d="M136.055 14.798H131.929C131.812 14.1738 131.594 13.6184 131.28 13.1367C130.965 12.6501 130.568 12.2373 130.098 11.8981C129.628 11.559 129.09 11.3034 128.495 11.1314C127.894 10.9593 127.25 10.8709 126.557 10.8709C125.327 10.8709 124.242 11.156 123.293 11.7212C122.344 12.2864 121.603 13.1171 121.065 14.2033C120.528 15.2895 120.261 16.6215 120.261 18.1845C120.261 19.7475 120.532 21.1188 121.07 22.21C121.613 23.3011 122.354 24.1219 123.298 24.6724C124.242 25.2229 125.327 25.503 126.548 25.503C127.226 25.503 127.86 25.4195 128.451 25.2524C129.042 25.0853 129.575 24.8395 130.049 24.5151C130.524 24.1907 130.926 23.7877 131.25 23.3159C131.58 22.8391 131.803 22.2984 131.929 21.689L136.055 21.7086C135.9 22.7015 135.566 23.6304 135.057 24.4955C134.544 25.3654 133.88 26.1273 133.057 26.7908C132.234 27.4494 131.27 27.9655 130.166 28.3391C129.061 28.7126 127.841 28.8945 126.494 28.8945C124.509 28.8945 122.736 28.4718 121.177 27.6214C119.617 26.7711 118.392 25.5473 117.491 23.9499C116.595 22.3476 116.145 20.4307 116.145 18.1894C116.145 15.9482 116.595 14.0214 117.501 12.424C118.406 10.8266 119.636 9.60279 121.196 8.75739C122.756 7.912 124.518 7.48438 126.49 7.48438C127.749 7.48438 128.916 7.64658 129.996 7.97098C131.076 8.29537 132.04 8.77214 132.887 9.40127C133.735 10.0304 134.428 10.7971 134.98 11.7015C135.527 12.6059 135.885 13.6381 136.055 14.798Z" fill="white"/>
<path d="M160 18.1836C160 20.4297 159.545 22.3515 158.639 23.9489C157.729 25.5463 156.494 26.7702 154.934 27.6156C153.37 28.4659 151.602 28.8886 149.621 28.8886C147.64 28.8886 145.873 28.461 144.308 27.6107C142.744 26.7604 141.509 25.5365 140.603 23.9391C139.697 22.3417 139.242 20.4248 139.242 18.1836C139.242 15.9423 139.697 14.0156 140.603 12.4182C141.514 10.8208 142.749 9.59691 144.308 8.75152C145.873 7.90121 147.64 7.47852 149.621 7.47852C151.602 7.47852 153.37 7.90121 154.934 8.75152C156.499 9.60183 157.734 10.8208 158.639 12.4182C159.55 14.0156 160 15.9374 160 18.1836ZM155.888 18.1836C155.888 16.6009 155.622 15.2689 155.089 14.1778C154.556 13.0866 153.82 12.2658 152.876 11.7055C151.931 11.1452 150.851 10.865 149.621 10.865C148.391 10.865 147.311 11.1452 146.367 11.7055C145.422 12.2658 144.686 13.0915 144.153 14.1778C143.62 15.2689 143.354 16.6009 143.354 18.1836C143.354 19.7662 143.62 21.0982 144.153 22.1893C144.686 23.2805 145.422 24.1013 146.367 24.6616C147.311 25.2219 148.391 25.5021 149.621 25.5021C150.851 25.5021 151.931 25.2219 152.876 24.6616C153.82 24.1013 154.556 23.2756 155.089 22.1893C155.622 21.0982 155.888 19.7662 155.888 18.1836Z" fill="white"/>
<path d="M71.4953 32.8203C71.8634 32.8203 72.1782 32.8842 72.4446 33.0169C72.7109 33.1496 72.9144 33.3364 73.0596 33.5772C73.2001 33.8181 73.2727 34.0982 73.2727 34.4177C73.2727 34.7372 73.2001 35.0173 73.0596 35.2582C72.9192 35.499 72.7158 35.6858 72.4446 35.8185C72.1782 35.9512 71.8634 36.0151 71.4953 36.0151H70.5315V37.4208H69.9648V32.8203H71.4904H71.4953ZM72.3768 35.1943C72.5995 35.0124 72.7061 34.7519 72.7061 34.4177C72.7061 34.0835 72.5947 33.823 72.3768 33.6411C72.154 33.4593 71.8488 33.3659 71.4565 33.3659H70.5363V35.4695H71.4565C71.8488 35.4695 72.1588 35.3811 72.3768 35.1992V35.1943Z" fill="white"/>
<path d="M76.7228 36.2854H74.6547L74.2237 37.4208H73.6328L75.4054 32.8203H76.0011L77.7689 37.4208H77.149L76.7179 36.2854H76.7228ZM76.5242 35.7497L75.6912 33.5281L74.8533 35.7497H76.5242Z" fill="white"/>
<path d="M79.963 35.8824V37.4208H79.3915V35.8824L77.7012 32.8203H78.3405L79.6966 35.3172L81.0963 32.8203H81.7017L79.9581 35.8824H79.963Z" fill="white"/>
<path d="M83.3417 32.8203L85.0029 35.9463L86.6641 32.8203H87.1581V37.4208H86.5914V34.0245L85.2063 36.6442H84.7995L83.4143 34.0245V37.4208H82.8477V32.8203H83.3417Z" fill="white"/>
<path d="M91.6781 32.8203V33.3561H89.1838V34.806H91.4892V35.3417H89.1838V36.8949H91.7265V37.4307H88.6172V32.8301H91.6781V32.8203Z" fill="white"/>
<path d="M93.5162 32.8205L96.1267 36.4036V32.791H96.6982V37.3915H96.1654L93.5549 33.8084V37.421H92.9883V32.8205H93.5162Z" fill="white"/>
<path d="M100.007 33.361V37.4208H99.4405V33.361H97.8906V32.8203H101.547V33.361H100.002H100.007Z" fill="white"/>
<path d="M105.694 37.2142C105.35 37.0077 105.084 36.7227 104.89 36.354C104.696 35.9903 104.6 35.5774 104.6 35.1154C104.6 34.6534 104.696 34.2455 104.89 33.8768C105.084 33.5131 105.35 33.2231 105.694 33.0167C106.038 32.8103 106.425 32.707 106.857 32.707C107.21 32.707 107.539 32.7758 107.84 32.9086C108.14 33.0462 108.387 33.233 108.59 33.4689C108.794 33.7048 108.929 33.9702 109.007 34.2651H108.392C108.334 34.0734 108.232 33.9014 108.082 33.749C107.932 33.5967 107.753 33.4738 107.544 33.3853C107.336 33.2968 107.108 33.2526 106.871 33.2526C106.547 33.2526 106.251 33.3312 105.99 33.4934C105.728 33.6507 105.53 33.8719 105.384 34.1521C105.239 34.4322 105.166 34.7517 105.166 35.1105C105.166 35.4693 105.239 35.7888 105.384 36.0739C105.53 36.3589 105.733 36.5801 105.994 36.7423C106.256 36.9045 106.551 36.9832 106.881 36.9832C107.171 36.9832 107.433 36.9193 107.67 36.7915C107.903 36.6637 108.092 36.4916 108.237 36.2705C108.382 36.0493 108.464 35.8035 108.484 35.5283H106.769V35.0073H109.089V35.2137C109.089 35.6561 108.992 36.0542 108.794 36.4032C108.6 36.7521 108.334 37.0274 107.995 37.224C107.656 37.4206 107.278 37.5189 106.861 37.5189C106.445 37.5189 106.038 37.4157 105.699 37.2092L105.694 37.2142Z" fill="white"/>
<path d="M112.871 36.2854H110.803L110.372 37.4208H109.781L111.554 32.8203H112.15L113.917 37.4208H113.297L112.866 36.2854H112.871ZM112.673 35.7497L111.84 33.5281L111.002 35.7497H112.673Z" fill="white"/>
<path d="M116.177 33.361V37.4208H115.61V33.361H114.061V32.8203H117.717V33.361H116.172H116.177Z" fill="white"/>
<path d="M121.985 32.8203V33.3561H119.49V34.806H121.796V35.3417H119.49V36.8949H122.033V37.4307H118.924V32.8301H121.985V32.8203Z" fill="white"/>
<path d="M128.814 32.8203L127.501 37.4208H126.93L125.893 33.7493L124.852 37.4208H124.28L122.973 32.8203H123.559L124.581 36.5066L125.598 32.8203H126.198L127.22 36.5214L128.242 32.8203H128.814Z" fill="white"/>
<path d="M132.102 36.2854H130.034L129.603 37.4208H129.012L130.784 32.8203H131.38L133.148 37.4208H132.528L132.097 36.2854H132.102ZM131.903 35.7497L131.07 33.5281L130.232 35.7497H131.903Z" fill="white"/>
<path d="M135.348 35.8824V37.4208H134.776V35.8824L133.086 32.8203H133.725L135.081 35.3172L136.481 32.8203H137.086L135.343 35.8824H135.348Z" fill="white"/>
<path d="M11.8174 34.4965V25.7427L19.983 30.8839L36.7986 20.2968C38.7844 19.0484 39.9661 16.8907 39.9661 14.5216C39.9661 12.1525 38.7844 9.99481 36.7986 8.74638L25.422 1.58511C22.0656 -0.528371 17.8956 -0.528371 14.5393 1.58511L0 10.737V32.4125L4.13125 35.0568V13.4403L4.47996 13.2633L16.9076 5.43855C18.8062 4.24418 21.1648 4.24418 23.0682 5.43855L34.4449 12.5998C35.1035 13.0127 35.4958 13.7303 35.4958 14.5167C35.4958 15.3031 35.1035 16.0158 34.4449 16.4336L19.9879 25.5363L7.67163 17.7803V37.2243L19.9782 45L39.5351 32.8204V27.4876L19.9976 39.6524L11.8223 34.4866L11.8174 34.4965Z" fill="#FBAF17"/>
</svg>
