<svg width="17" height="18" viewBox="0 0 17 18" fill="none" xmlns="http://www.w3.org/2000/svg">
<path d="M10.4956 8.99879L16.5814 2.9263C16.8479 2.65975 16.9976 2.29824 16.9976 1.92129C16.9976 1.54434 16.8479 1.18283 16.5814 0.916287C16.3148 0.649743 15.9534 0.5 15.5765 0.5C15.1996 0.5 14.8381 0.649743 14.5716 0.916287L8.5 7.00294L2.42837 0.916287C2.16186 0.649743 1.8004 0.5 1.42351 0.5C1.04661 0.5 0.685149 0.649743 0.418643 0.916287C0.152137 1.18283 0.00241535 1.54434 0.00241535 1.92129C0.00241535 2.29824 0.152137 2.65975 0.418643 2.9263L6.50443 8.99879L0.418643 15.0713C0.285989 15.2029 0.180699 15.3594 0.108847 15.5319C0.0369938 15.7044 0 15.8894 0 16.0763C0 16.2632 0.0369938 16.4482 0.108847 16.6207C0.180699 16.7932 0.285989 16.9497 0.418643 17.0813C0.550213 17.214 0.706747 17.3193 0.879214 17.3911C1.05168 17.463 1.23667 17.5 1.42351 17.5C1.61034 17.5 1.79533 17.463 1.9678 17.3911C2.14026 17.3193 2.2968 17.214 2.42837 17.0813L8.5 10.9946L14.5716 17.0813C14.7032 17.214 14.8597 17.3193 15.0322 17.3911C15.2047 17.463 15.3897 17.5 15.5765 17.5C15.7633 17.5 15.9483 17.463 16.1208 17.3911C16.2933 17.3193 16.4498 17.214 16.5814 17.0813C16.714 16.9497 16.8193 16.7932 16.8912 16.6207C16.963 16.4482 17 16.2632 17 16.0763C17 15.8894 16.963 15.7044 16.8912 15.5319C16.8193 15.3594 16.714 15.2029 16.5814 15.0713L10.4956 8.99879Z" fill="white"/>
</svg>
