<svg width="40" height="40" viewBox="0 0 40 40" fill="none" xmlns="http://www.w3.org/2000/svg">
<rect width="40" height="40" rx="20" fill="#FFEBC2"/>
<g clip-path="url(#clip0_1204_20423)">
<path d="M28.5725 25.7154V26.6678C28.5725 27.7154 27.7154 28.5725 26.6678 28.5725H13.3344C12.2773 28.5725 11.4297 27.7154 11.4297 26.6678V13.3344C11.4297 12.2868 12.2773 11.4297 13.3344 11.4297H26.6678C27.7154 11.4297 28.5725 12.2868 28.5725 13.3344V14.2868H20.0011C18.944 14.2868 18.0964 15.144 18.0964 16.1916V23.8106C18.0964 24.8583 18.944 25.7154 20.0011 25.7154H28.5725ZM20.0011 23.8106H29.5249V16.1916H20.0011V23.8106ZM23.8106 21.4297C23.0202 21.4297 22.3821 20.7916 22.3821 20.0011C22.3821 19.2106 23.0202 18.5725 23.8106 18.5725C24.6011 18.5725 25.2392 19.2106 25.2392 20.0011C25.2392 20.7916 24.6011 21.4297 23.8106 21.4297Z" fill="#FBAF17"/>
</g>
<defs>
<clipPath id="clip0_1204_20423">
<rect width="22.8571" height="22.8571" fill="white" transform="translate(8.57031 8.57227)"/>
</clipPath>
</defs>
</svg>
