<svg width="20" height="19" viewBox="0 0 20 19" fill="none" xmlns="http://www.w3.org/2000/svg">
<g clip-path="url(#clip0_3221_402)">
<path d="M15.3385 2.37435H12.0294C11.6969 1.45602 10.826 0.791016 9.79688 0.791016C8.76771 0.791016 7.89688 1.45602 7.56438 2.37435H4.25521C3.38437 2.37435 2.67188 3.08685 2.67188 3.95768V15.041C2.67188 15.9118 3.38437 16.6243 4.25521 16.6243H15.3385C16.2094 16.6243 16.9219 15.9118 16.9219 15.041V3.95768C16.9219 3.08685 16.2094 2.37435 15.3385 2.37435ZM9.79688 2.37435C10.2323 2.37435 10.5885 2.7306 10.5885 3.16602C10.5885 3.60143 10.2323 3.95768 9.79688 3.95768C9.36146 3.95768 9.00521 3.60143 9.00521 3.16602C9.00521 2.7306 9.36146 2.37435 9.79688 2.37435ZM11.3802 13.4577H5.83854V11.8743H11.3802V13.4577ZM13.7552 10.291H5.83854V8.70768H13.7552V10.291ZM13.7552 7.12435H5.83854V5.54102H13.7552V7.12435Z" fill="white"/>
</g>
<defs>
<clipPath id="clip0_3221_402">
<rect width="19" height="19" fill="white" transform="translate(0.296875)"/>
</clipPath>
</defs>
</svg>
