<svg width="19" height="19" viewBox="0 0 19 19" fill="none" xmlns="http://www.w3.org/2000/svg">
<g clip-path="url(#clip0_3221_118)">
<path d="M15.0417 2.37533H11.7325C11.4 1.45699 10.5292 0.791992 9.5 0.791992C8.47083 0.791992 7.6 1.45699 7.2675 2.37533H3.95833C3.0875 2.37533 2.375 3.08783 2.375 3.95866V15.042C2.375 15.9128 3.0875 16.6253 3.95833 16.6253H15.0417C15.9125 16.6253 16.625 15.9128 16.625 15.042V3.95866C16.625 3.08783 15.9125 2.37533 15.0417 2.37533ZM9.5 2.37533C9.93542 2.37533 10.2917 2.73158 10.2917 3.16699C10.2917 3.60241 9.93542 3.95866 9.5 3.95866C9.06458 3.95866 8.70833 3.60241 8.70833 3.16699C8.70833 2.73158 9.06458 2.37533 9.5 2.37533ZM11.0833 13.4587H5.54167V11.8753H11.0833V13.4587ZM13.4583 10.292H5.54167V8.70866H13.4583V10.292ZM13.4583 7.12533H5.54167V5.54199H13.4583V7.12533Z" fill="#FBAF17"/>
</g>
<defs>
<clipPath id="clip0_3221_118">
<rect width="19" height="19" fill="white"/>
</clipPath>
</defs>
</svg>
