<svg width="20" height="19" viewBox="0 0 20 19" fill="none" xmlns="http://www.w3.org/2000/svg">
<g clip-path="url(#clip0_3221_1738)">
<path d="M15.3359 0.791016H7.41927C6.54844 0.791016 5.83594 1.50352 5.83594 2.37435V4.74935H7.41927V3.16602H15.3359V15.8327H7.41927V14.2493H5.83594V16.6243C5.83594 17.4952 6.54844 18.2077 7.41927 18.2077H15.3359C16.2068 18.2077 16.9193 17.4952 16.9193 16.6243V2.37435C16.9193 1.50352 16.2068 0.791016 15.3359 0.791016ZM8.84427 8.70768V7.52018C8.84427 6.41185 7.73594 5.54102 6.6276 5.54102C5.51927 5.54102 4.41094 6.41185 4.41094 7.52018V8.70768C3.93594 8.70768 3.46094 9.18268 3.46094 9.65768V12.4285C3.46094 12.9827 3.93594 13.4577 4.41094 13.4577H8.7651C9.31927 13.4577 9.79427 12.9827 9.79427 12.5077V9.73685C9.79427 9.18268 9.31927 8.70768 8.84427 8.70768ZM7.8151 8.70768H5.4401V7.52018C5.4401 6.88685 5.99427 6.49101 6.6276 6.49101C7.26094 6.49101 7.8151 6.88685 7.8151 7.52018V8.70768Z" fill="#FBAF17"/>
</g>
<defs>
<clipPath id="clip0_3221_1738">
<rect width="19" height="19" fill="white" transform="translate(0.296875)"/>
</clipPath>
</defs>
</svg>
