<svg width="80" height="81" viewBox="0 0 80 81" fill="none" xmlns="http://www.w3.org/2000/svg">
<g clip-path="url(#clip0_1760_10031)">
<path d="M21.1171 13.9639H59.8255C61.3735 13.9639 62.6302 15.2205 62.6302 16.7685V66.6987C62.6302 68.2466 61.3735 69.5033 59.8255 69.5033H21.1171C19.5692 69.5033 18.3125 68.2466 18.3125 66.6987V16.7685C18.3125 15.2205 19.5692 13.9639 21.1171 13.9639Z" fill="white"/>
<path d="M59.8254 70.8128H21.1137C18.8458 70.8128 17 68.967 17 66.6991V16.7689C17 14.501 18.8458 12.6553 21.1137 12.6553H59.8221C62.09 12.6553 63.9357 14.501 63.9357 16.7689V66.6991C63.9357 68.967 62.09 70.8128 59.8221 70.8128H59.8254ZM21.1137 15.2734C20.289 15.2734 19.6181 15.9442 19.6181 16.7689V66.6991C19.6181 67.5238 20.289 68.1947 21.1137 68.1947H59.8254C60.6501 68.1947 61.3209 67.5238 61.3209 66.6991V16.7689C61.3209 15.9442 60.6501 15.2734 59.8254 15.2734H21.1137Z" fill="#0068DE"/>
<path d="M55.8648 21.2881H25.0859V62.1793H55.8648V21.2881Z" fill="white"/>
<path d="M55.8614 63.4888H25.0825C24.3592 63.4888 23.7734 62.903 23.7734 62.1798V21.2885C23.7734 20.5653 24.3592 19.9795 25.0825 19.9795H55.8614C56.5846 19.9795 57.1704 20.5653 57.1704 21.2885V62.1798C57.1704 62.903 56.5846 63.4888 55.8614 63.4888ZM26.3915 60.8707H54.5523V22.5976H26.3915V60.8707Z" fill="#0068DE"/>
<mask id="mask0_1760_10031" style="mask-type:luminance" maskUnits="userSpaceOnUse" x="31" y="12" width="19" height="12">
<path d="M46.3497 17.2362V12.1211H34.5978V17.2362H31.3906V23.1858H49.5569V17.2362H46.3497Z" fill="white"/>
</mask>
<g mask="url(#mask0_1760_10031)">
<rect x="27.0078" y="2.8125" width="26" height="15" fill="#99CCFF"/>
</g>
<path d="M49.5534 24.4953H31.3872C30.6639 24.4953 30.0781 23.9095 30.0781 23.1862V17.2366C30.0781 16.5134 30.6639 15.9276 31.3872 15.9276H33.2853V12.1215C33.2853 11.3983 33.8711 10.8125 34.5943 10.8125H46.343C47.0662 10.8125 47.652 11.3983 47.652 12.1215V15.9276H49.5501C50.2734 15.9276 50.8592 16.5134 50.8592 17.2366V23.1862C50.8592 23.9095 50.2734 24.4953 49.5501 24.4953H49.5534ZM32.6962 21.8772H48.2444V18.5457H46.3463C45.623 18.5457 45.0372 17.9599 45.0372 17.2366V13.4306H35.9066V17.2366C35.9066 17.9599 35.3208 18.5457 34.5976 18.5457H32.6995V21.8772H32.6962Z" fill="#0068DE"/>
<path d="M38.3223 18.5458H34.5981C33.8749 18.5458 33.2891 17.96 33.2891 17.2368C33.2891 16.5135 33.8749 15.9277 34.5981 15.9277H38.3223C39.0456 15.9277 39.6314 16.5135 39.6314 17.2368C39.6314 17.96 39.0456 18.5458 38.3223 18.5458Z" fill="#0068DE"/>
<path d="M49.5021 32.454H31.434C30.7108 32.454 30.125 31.8682 30.125 31.145C30.125 30.4217 30.7108 29.8359 31.434 29.8359H49.5021C50.2254 29.8359 50.8112 30.4217 50.8112 31.145C50.8112 31.8682 50.2254 32.454 49.5021 32.454Z" fill="#0068DE"/>
<path d="M47.7688 37.2646H33.1762C32.453 37.2646 31.8672 36.6788 31.8672 35.9555C31.8672 35.2323 32.453 34.6465 33.1762 34.6465H47.7688C48.492 34.6465 49.0778 35.2323 49.0778 35.9555C49.0778 36.6788 48.492 37.2646 47.7688 37.2646Z" fill="#0068DE"/>
<path d="M49.5534 42.0761H31.3872C30.6639 42.0761 30.0781 41.4903 30.0781 40.7671C30.0781 40.0438 30.6639 39.458 31.3872 39.458H49.5534C50.2767 39.458 50.8625 40.0438 50.8625 40.7671C50.8625 41.4903 50.2767 42.0761 49.5534 42.0761Z" fill="#0068DE"/>
<path d="M44.1193 57.2831H36.8247C36.1014 57.2831 35.5156 56.6973 35.5156 55.9741C35.5156 55.2508 36.1014 54.665 36.8247 54.665H44.1193C44.8426 54.665 45.4284 55.2508 45.4284 55.9741C45.4284 56.6973 44.8426 57.2831 44.1193 57.2831Z" fill="#0068DE"/>
</g>
<defs>
<clipPath id="clip0_1760_10031">
<rect width="46.939" height="60" fill="white" transform="translate(17 10.8125)"/>
</clipPath>
</defs>
</svg>
