<svg width="80" height="81" viewBox="0 0 80 81" fill="none" xmlns="http://www.w3.org/2000/svg">
<g clip-path="url(#clip0_1760_10092)">
<path d="M64.9703 70.3923L27.2024 70.3815C26.4232 70.3815 25.7877 69.7603 25.7662 68.9848C25.7446 68.2057 26.3478 67.5522 27.1234 67.5127C27.6224 67.484 28.1538 67.3332 28.696 67.0603C30.4948 66.1555 31.4786 63.6566 31.9884 61.7213C32.1536 61.0894 32.7245 60.6514 33.3779 60.6514H68.4459C69.1532 60.6514 69.7564 61.1648 69.8641 61.8649C69.9359 62.3317 70.5211 66.4823 68.5069 68.8412C67.638 69.8573 66.4173 70.3923 64.9703 70.3923ZM32.4731 67.5091L64.9667 67.5199C65.7602 67.5199 66.1192 67.2075 66.3167 66.9741C66.9989 66.1735 67.1389 64.6619 67.1174 63.5237H64.2881C64.2307 63.5237 64.1732 63.5237 64.1194 63.5237H34.4551C33.938 65.1322 33.2774 66.4643 32.4731 67.5127V67.5091Z" fill="#0068DE"/>
<path d="M33.3854 62.0841H64.213C62.9312 54.7273 61.6423 47.3741 61.7428 40.0172C61.3802 30.7611 63.2256 21.5049 58.26 12.2451H16.6719C16.916 12.7298 17.1422 13.2217 17.3541 13.7172C17.4295 13.8931 17.4977 14.0727 17.5695 14.2486C17.6987 14.5645 17.8244 14.8877 17.9429 15.2072C18.0255 15.4334 18.1009 15.6596 18.1763 15.8858C18.2696 16.1587 18.3558 16.4316 18.4384 16.7045C18.5174 16.963 18.5964 17.2251 18.6682 17.4908C18.7328 17.717 18.7902 17.9468 18.8477 18.1765C18.9231 18.4817 19.0021 18.7869 19.0739 19.0957C19.099 19.2106 19.1206 19.3219 19.1457 19.4404C20.5747 26.0863 20.2049 33.2852 20.1079 40.0208C20.1977 42.3223 20.151 44.6453 20.1223 46.954C20.072 51.0543 19.9571 55.0899 20.6932 59.1328C21.063 61.1578 21.4938 63.2474 22.2658 65.1288C23.2352 67.4878 24.8689 68.8809 26.8221 68.9491H27.2063C27.8884 68.9132 28.6065 68.7193 29.3462 68.3495C31.522 67.2544 32.7284 64.5759 33.3818 62.0913L33.3854 62.0841Z" fill="white"/>
<path d="M27.2061 70.3816H26.822C26.822 70.3816 26.7896 70.3816 26.7717 70.3816C24.2584 70.2955 22.1328 68.5792 20.9372 65.6746C20.0935 63.6208 19.6375 61.3553 19.2784 59.3913C18.5675 55.5064 18.6214 51.6 18.6716 47.8264L18.6932 46.1928C18.7219 44.1785 18.747 42.0961 18.668 40.0783C18.668 40.0531 18.668 40.028 18.668 40.0029C18.6824 39.1268 18.6968 38.2399 18.7147 37.3495C18.8296 31.4576 18.9445 25.3646 17.7381 19.7455L17.6663 19.4044C17.6125 19.1639 17.5478 18.9054 17.4832 18.6505L17.4329 18.4494C17.3863 18.2591 17.336 18.0724 17.2821 17.8821C17.2139 17.6308 17.1385 17.383 17.0631 17.1317C16.9841 16.8696 16.9015 16.6111 16.8154 16.3526C16.74 16.13 16.6682 15.9145 16.5892 15.6991C16.4815 15.3939 16.3594 15.0923 16.2373 14.7943L16.1547 14.5861C16.1152 14.4855 16.0757 14.385 16.0327 14.2881C15.7957 13.7423 15.591 13.3007 15.39 12.8986C15.1638 12.4533 15.1853 11.9219 15.4474 11.4983C15.7095 11.0746 16.1727 10.8125 16.6718 10.8125H58.2635C58.7913 10.8125 59.2796 11.1033 59.5309 11.5701C63.4589 18.8946 63.3189 26.194 63.1824 33.2564C63.1393 35.4609 63.0963 37.7445 63.1824 39.9669C63.1824 39.9921 63.1824 40.0172 63.1824 40.0424C63.0819 47.2161 64.3637 54.5765 65.606 61.6964C65.6419 61.822 65.6598 61.9513 65.6598 62.0841C65.6598 62.8776 65.0172 63.5203 64.2237 63.5203C64.2237 63.5203 64.2201 63.5203 64.2165 63.5203H34.466C33.4858 66.5722 31.985 68.6223 29.9995 69.6241C29.0983 70.0765 28.1899 70.3278 27.2923 70.3781C27.2672 70.3781 27.242 70.3781 27.2169 70.3781L27.2061 70.3816ZM26.8471 67.5093H27.163C27.6549 67.477 28.172 67.3262 28.6998 67.0605C30.4986 66.1557 31.4824 63.6567 31.9922 61.7215C32.1574 61.0896 32.7282 60.6515 33.3817 60.6515H62.5038C61.3334 53.8943 60.2131 46.9432 60.3065 40.0388C60.2167 37.7445 60.2634 35.4358 60.3065 33.199C60.4357 26.4669 60.5578 20.0902 57.3839 13.6849H18.8871L18.8978 13.71C19.0343 14.0475 19.1671 14.385 19.2892 14.7225C19.3754 14.9595 19.4543 15.1964 19.5333 15.4334C19.6303 15.7135 19.72 16.0007 19.8098 16.2915C19.8924 16.5572 19.9714 16.8301 20.0468 17.1066C20.1042 17.3148 20.1581 17.5231 20.2119 17.7313L20.2658 17.9431C20.334 18.2196 20.4058 18.4961 20.4669 18.7725L20.5423 19.1352C21.8205 25.0809 21.702 31.3427 21.5835 37.3962C21.5655 38.2687 21.5512 39.1376 21.5368 39.9993C21.6158 42.0781 21.5871 44.1857 21.5619 46.2251L21.5404 47.8588C21.4901 51.6646 21.4399 55.2587 22.1005 58.8671C22.4344 60.6874 22.8509 62.7771 23.5905 64.5723C24.0286 65.6351 25.0303 67.4267 26.8435 67.5021L26.8471 67.5093Z" fill="#0068DE"/>
<mask id="mask0_1760_10092" style="mask-type:luminance" maskUnits="userSpaceOnUse" x="11" y="12" width="9" height="12">
<path d="M18.8447 18.1795C18.7873 17.9497 18.7298 17.7199 18.6652 17.4937C18.5934 17.2316 18.5144 16.9695 18.4354 16.7074C18.3528 16.4345 18.2666 16.1616 18.1733 15.8888C18.0979 15.6626 18.0189 15.4364 17.9399 15.2102C17.825 14.887 17.6958 14.5675 17.5665 14.2515C17.4947 14.0756 17.4265 13.8961 17.3511 13.7201C17.1357 13.2246 16.913 12.7328 16.6689 12.248C16.6689 12.248 10.1989 13.3754 11.6494 23.5221H19.807C19.649 22.1433 19.43 20.7825 19.1427 19.4397C19.1176 19.3248 19.096 19.2099 19.0709 19.095C18.9991 18.7863 18.9237 18.4811 18.8447 18.1759V18.1795Z" fill="white"/>
</mask>
<g mask="url(#mask0_1760_10092)">
<rect x="5" y="6.81152" width="13" height="14" fill="#99CCFF"/>
</g>
<path d="M19.8011 24.9586H11.6472C10.9327 24.9586 10.3259 24.4344 10.2254 23.7271C8.5953 12.331 16.3399 10.8481 16.4189 10.8338C17.04 10.726 17.6612 11.0348 17.9448 11.5985C18.1746 12.0509 18.4008 12.5428 18.6629 13.146C18.7168 13.2753 18.767 13.4009 18.8173 13.523L18.8891 13.7061C19.0256 14.0436 19.1584 14.3811 19.2805 14.7186C19.3666 14.9556 19.4456 15.1926 19.5246 15.4295C19.6216 15.7096 19.7113 15.9968 19.8011 16.2876C19.8837 16.5533 19.9627 16.8262 20.0381 17.1027C20.0919 17.2858 20.1386 17.4797 20.1889 17.6736L20.2571 17.9393C20.3253 18.2157 20.3971 18.4922 20.4581 18.7686C20.4761 18.8476 20.494 18.9266 20.5084 19.0092L20.5335 19.1313C20.8244 20.4885 21.0542 21.9067 21.2193 23.3501C21.266 23.7558 21.1367 24.1651 20.8639 24.4703C20.591 24.7755 20.2032 24.9514 19.7903 24.9514L19.8011 24.9586ZM12.929 22.0862H18.1638C18.0418 21.2856 17.8981 20.5028 17.7366 19.7417L17.7043 19.5909C17.6935 19.5334 17.6827 19.4796 17.6684 19.4221C17.6073 19.16 17.5427 18.9051 17.4781 18.6466L17.4134 18.3881C17.3704 18.2193 17.3273 18.0506 17.2806 17.8854C17.2088 17.6269 17.1334 17.3756 17.058 17.1278C16.979 16.8657 16.8964 16.6072 16.8102 16.3487C16.7348 16.1261 16.663 15.9107 16.584 15.6952C16.4763 15.39 16.3543 15.0884 16.2322 14.7904L16.1496 14.5822C16.1101 14.4817 16.0706 14.3847 16.0275 14.2842C15.9952 14.2052 15.9593 14.1298 15.927 14.058C14.6093 14.7904 12.4981 16.8011 12.9254 22.0862H12.929Z" fill="#0068DE"/>
<path d="M42.784 57.2656C42.1844 57.2656 41.6279 56.8886 41.4232 56.2926L38.2098 46.8677C37.9549 46.1173 38.3534 45.3023 39.1074 45.0438C39.8578 44.7888 40.6728 45.1874 40.9313 45.9414L44.1448 55.3663C44.3997 56.1167 44.0012 56.9317 43.2472 57.1902C43.0928 57.2441 42.9384 57.2656 42.784 57.2656Z" fill="#0068DE"/>
<path d="M42.7889 57.2653C42.6346 57.2653 42.4802 57.2402 42.3258 57.1899C41.5754 56.935 41.1732 56.1163 41.4282 55.3659L44.6416 45.941C44.8965 45.1906 45.7116 44.7885 46.4656 45.0434C47.216 45.2983 47.6181 46.1169 47.3632 46.8673L44.1497 56.2923C43.9451 56.8883 43.3886 57.2653 42.7889 57.2653Z" fill="#0068DE"/>
<path d="M49.2137 57.2656C48.6141 57.2656 48.0576 56.8886 47.8529 56.2926L44.6395 46.8677C44.3845 46.1173 44.7831 45.3023 45.5371 45.0438C46.2875 44.7888 47.1025 45.1874 47.361 45.9414L50.5745 55.3663C50.8294 56.1167 50.4309 56.9317 49.6769 57.1902C49.5225 57.2441 49.3681 57.2656 49.2137 57.2656Z" fill="#0068DE"/>
<path d="M49.2186 57.2653C49.0642 57.2653 48.9099 57.2402 48.7555 57.1899C48.0051 56.935 47.6029 56.1163 47.8579 55.3659L51.0713 45.941C51.3262 45.1906 52.1413 44.7885 52.8953 45.0434C53.6457 45.2983 54.0478 46.1169 53.7929 46.8673L50.5794 56.2923C50.3748 56.8883 49.8182 57.2653 49.2186 57.2653Z" fill="#0068DE"/>
<path d="M53.1939 51.306H38.8034C38.0099 51.306 37.3672 50.6633 37.3672 49.8698C37.3672 49.0763 38.0099 48.4336 38.8034 48.4336H53.1939C53.9874 48.4336 54.6301 49.0763 54.6301 49.8698C54.6301 50.6633 53.9874 51.306 53.1939 51.306Z" fill="#0068DE"/>
<path d="M51.9838 21.6409H28.3659C27.5724 21.6409 26.9297 20.9982 26.9297 20.2047C26.9297 19.4112 27.5724 18.7686 28.3659 18.7686H51.9838C52.7773 18.7686 53.42 19.4112 53.42 20.2047C53.42 20.9982 52.7773 21.6409 51.9838 21.6409Z" fill="#0068DE"/>
<path d="M46.5292 28.1507H29.7331C28.9396 28.1507 28.2969 27.508 28.2969 26.7145C28.2969 25.921 28.9396 25.2783 29.7331 25.2783H46.5292C47.3227 25.2783 47.9654 25.921 47.9654 26.7145C47.9654 27.508 47.3227 28.1507 46.5292 28.1507Z" fill="#0068DE"/>
</g>
<defs>
<clipPath id="clip0_1760_10092">
<rect width="60" height="59.5799" fill="white" transform="translate(10 10.8125)"/>
</clipPath>
</defs>
</svg>
