<svg width="80" height="81" viewBox="0 0 80 81" fill="none" xmlns="http://www.w3.org/2000/svg">
<g clip-path="url(#clip0_1760_10055)">
<path d="M18.0014 16.4727H55.6522C57.1579 16.4727 58.3802 17.695 58.3802 19.2007V66.8117C58.3802 68.3173 57.1579 69.5397 55.6522 69.5397H18.0014C16.4958 69.5397 15.2734 68.3173 15.2734 66.8117V19.2007C15.2734 17.695 16.4958 16.4727 18.0014 16.4727Z" fill="white"/>
<path d="M55.6553 70.8128H18.0013C15.7953 70.8128 14 69.0175 14 66.8115V19.2005C14 16.9945 15.7953 15.1992 18.0013 15.1992H55.6521C57.858 15.1992 59.6533 16.9945 59.6533 19.2005V66.8115C59.6533 69.0175 57.858 70.8128 55.6521 70.8128H55.6553ZM18.0013 17.7458C17.1991 17.7458 16.5466 18.3983 16.5466 19.2005V66.8115C16.5466 67.6137 17.1991 68.2662 18.0013 68.2662H55.6553C56.4574 68.2662 57.11 67.6137 57.11 66.8115V19.2005C57.11 18.3983 56.4574 17.7458 55.6553 17.7458H18.0013Z" fill="#0068DE"/>
<mask id="mask0_1760_10055" style="mask-type:luminance" maskUnits="userSpaceOnUse" x="21" y="24" width="10" height="9">
<path d="M25.6088 32.8943C25.2204 32.8943 24.8512 32.7161 24.6092 32.4073L21.8908 28.9535C21.4547 28.3997 21.5502 27.6007 22.1041 27.1646C22.6579 26.7285 23.4569 26.824 23.893 27.3779L25.5324 29.4597L28.5182 25.0382C28.9129 24.4557 29.7023 24.3029 30.2849 24.6944C30.8674 25.0891 31.0202 25.8786 30.6286 26.4611L26.6656 32.3309C26.4364 32.6683 26.064 32.8752 25.6565 32.8911C25.6406 32.8911 25.6247 32.8911 25.6088 32.8911V32.8943Z" fill="white"/>
</mask>
<g mask="url(#mask0_1760_10055)">
<rect x="17" y="20.8125" width="13" height="12" fill="#99CCFF"/>
</g>
<mask id="mask1_1760_10055" style="mask-type:luminance" maskUnits="userSpaceOnUse" x="21" y="34" width="10" height="10">
<path d="M25.6088 43.3699C25.2204 43.3699 24.8512 43.1917 24.6092 42.8829L21.8908 39.4291C21.4547 38.8752 21.5502 38.0763 22.1041 37.6402C22.6579 37.2041 23.4569 37.2996 23.893 37.8534L25.5324 39.9352L28.5182 35.5138C28.9129 34.9313 29.7023 34.7785 30.2849 35.17C30.8674 35.5647 31.0202 36.3542 30.6286 36.9367L26.6656 42.8065C26.4364 43.1439 26.064 43.3508 25.6565 43.3667C25.6406 43.3667 25.6247 43.3667 25.6088 43.3667V43.3699Z" fill="white"/>
</mask>
<g mask="url(#mask1_1760_10055)">
<rect x="17" y="32.8125" width="13" height="12" fill="#99CCFF"/>
</g>
<mask id="mask2_1760_10055" style="mask-type:luminance" maskUnits="userSpaceOnUse" x="21" y="45" width="10" height="9">
<path d="M25.6088 53.8426C25.2204 53.8426 24.8512 53.6643 24.6092 53.3555L21.8908 49.9018C21.4547 49.3479 21.5502 48.5489 22.1041 48.1128C22.6579 47.6767 23.4569 47.7722 23.893 48.3261L25.5324 50.4079L28.5182 45.9864C28.9129 45.4039 29.7023 45.2511 30.2849 45.6427C30.8674 46.0374 31.0202 46.8268 30.6286 47.4093L26.6656 53.2791C26.4364 53.6166 26.064 53.8235 25.6565 53.8394C25.6406 53.8394 25.6247 53.8394 25.6088 53.8394V53.8426Z" fill="white"/>
</mask>
<g mask="url(#mask2_1760_10055)">
<rect x="17" y="44.8125" width="13" height="12" fill="#99CCFF"/>
</g>
<path d="M52.0319 27.0241H34.9764C34.2729 27.0241 33.7031 26.4543 33.7031 25.7508C33.7031 25.0473 34.2729 24.4775 34.9764 24.4775H52.0319C52.7354 24.4775 53.3052 25.0473 53.3052 25.7508C53.3052 26.4543 52.7354 27.0241 52.0319 27.0241Z" fill="#0068DE"/>
<path d="M48.9092 32.8942H34.9764C34.2729 32.8942 33.7031 32.3244 33.7031 31.6209C33.7031 30.9174 34.2729 30.3477 34.9764 30.3477H48.9092C49.6127 30.3477 50.1825 30.9174 50.1825 31.6209C50.1825 32.3244 49.6127 32.8942 48.9092 32.8942Z" fill="#0068DE"/>
<path d="M43.535 54.9912L65.0438 17.7383C65.5372 16.882 65.2443 15.7774 64.3849 15.284L59.2599 12.3268C58.4037 11.8303 57.2991 12.1263 56.8057 12.9858L35.2969 50.2387" fill="white"/>
<path d="M43.536 56.2649C43.3196 56.2649 43.1 56.2108 42.8994 56.093C42.2914 55.7428 42.0813 54.9629 42.4347 54.355L63.9435 17.1021C64.0358 16.9397 64.0167 16.7837 63.9944 16.7042C63.9721 16.6246 63.9149 16.4781 63.7525 16.3858L58.6276 13.4286C58.4652 13.3332 58.3092 13.3554 58.2297 13.3777C58.1501 13.4 58.0068 13.4573 57.9145 13.6196L36.4057 50.8725C36.0555 51.4805 35.2757 51.6906 34.6677 51.3373C34.0597 50.9871 33.8496 50.2073 34.2029 49.5993L55.7086 12.3495C56.116 11.6429 56.7781 11.1336 57.5707 10.9203C58.3665 10.707 59.1942 10.8152 59.904 11.2259L65.029 14.1831C65.7388 14.5905 66.2449 15.2558 66.4582 16.0484C66.6715 16.841 66.5633 17.6687 66.1526 18.3785L44.6438 55.6314C44.4082 56.0389 43.9817 56.2681 43.5392 56.2681L43.536 56.2649Z" fill="#0068DE"/>
<mask id="mask3_1760_10055" style="mask-type:luminance" maskUnits="userSpaceOnUse" x="35" y="19" width="27" height="37">
<path d="M35.0859 50.5988L49.7955 25.1173L53.1251 19.3525L61.3632 24.105L58.0336 29.873L43.3209 55.3544" fill="white"/>
</mask>
<g mask="url(#mask3_1760_10055)">
<rect x="29.9922" y="12.8125" width="37" height="47" fill="#99CCFF"/>
</g>
<path d="M43.3205 56.6273C43.104 56.6273 42.8844 56.5732 42.6838 56.4555C42.0759 56.1053 41.8658 55.3254 42.2191 54.7174L59.6248 24.5694L53.5926 21.087L36.1869 51.2318C35.8368 51.8398 35.0569 52.0499 34.4489 51.6966C33.8409 51.3464 33.6308 50.5665 33.9842 49.9586L52.0265 18.7155C52.3767 18.1075 53.1565 17.8974 53.7645 18.2508L61.9995 23.0065C62.2923 23.1752 62.5056 23.4521 62.5915 23.78C62.6807 24.1047 62.6329 24.4548 62.4642 24.7477L44.4219 55.9971C44.1863 56.4045 43.7598 56.6337 43.3173 56.6337L43.3205 56.6273Z" fill="#0068DE"/>
<path d="M43.3281 55.3543L34.5234 61.0904L35.0932 50.5986L43.3281 55.3543Z" fill="white"/>
<path d="M34.5223 62.3641C34.3027 62.3641 34.0831 62.3068 33.8857 62.1922C33.4719 61.9534 33.2236 61.4982 33.2522 61.0208L33.8188 50.5289C33.8443 50.0865 34.0958 49.6886 34.4841 49.4785C34.8725 49.2684 35.3436 49.2748 35.7288 49.4944L43.9637 54.2501C44.3457 54.4729 44.5876 54.8772 44.6003 55.3197C44.6131 55.7621 44.3934 56.1791 44.021 56.421L35.2195 62.1572C35.0094 62.294 34.7674 62.3641 34.5255 62.3641H34.5223ZM36.2508 52.7381L35.9325 58.6525L40.8951 55.4183L36.2508 52.7349V52.7381Z" fill="#0068DE"/>
</g>
<defs>
<clipPath id="clip0_1760_10055">
<rect width="52.5609" height="60" fill="white" transform="translate(14 10.8125)"/>
</clipPath>
</defs>
</svg>
