<svg width="80" height="81" viewBox="0 0 80 81" fill="none" xmlns="http://www.w3.org/2000/svg">
<g clip-path="url(#clip0_1760_10001)">
<path d="M20.245 12.1631H60.1798C61.7767 12.1631 63.0732 13.4596 63.0732 15.0566V66.5686C63.0732 68.1656 61.7767 69.4621 60.1798 69.4621H20.245C18.6481 69.4621 17.3516 68.1656 17.3516 66.5686V15.0566C17.3516 13.4596 18.6481 12.1631 20.245 12.1631Z" fill="white"/>
<path d="M60.1821 70.8125H20.244C17.9042 70.8125 16 68.9083 16 66.5685V15.0565C16 12.7167 17.9042 10.8125 20.244 10.8125H60.1787C62.5185 10.8125 64.4227 12.7167 64.4227 15.0565V66.5685C64.4227 68.9083 62.5185 70.8125 60.1787 70.8125H60.1821ZM20.244 13.5135C19.3932 13.5135 18.701 14.2057 18.701 15.0565V66.5685C18.701 67.4193 19.3932 68.1115 20.244 68.1115H60.1821C61.0329 68.1115 61.725 67.4193 61.725 66.5685V15.0565C61.725 14.2057 61.0329 13.5135 60.1821 13.5135H20.244Z" fill="#0068DE"/>
<mask id="mask0_1760_10001" style="mask-type:luminance" maskUnits="userSpaceOnUse" x="24" y="19" width="32" height="10">
<path d="M55.6268 19.0234H24.8047V28.1495H55.6268V19.0234Z" fill="white"/>
</mask>
<g mask="url(#mask0_1760_10001)">
<rect x="20" y="12.8125" width="41" height="16" fill="#99CCFF"/>
</g>
<path d="M35.4352 41.5292H26.3193C25.5731 41.5292 24.9688 40.9248 24.9688 40.1786C24.9688 39.4325 25.5731 38.8281 26.3193 38.8281H35.4352C36.1814 38.8281 36.7858 39.4325 36.7858 40.1786C36.7858 40.9248 36.1814 41.5292 35.4352 41.5292Z" fill="#0068DE"/>
<path d="M30.874 46.0875C30.1278 46.0875 29.5234 45.4832 29.5234 44.737V35.621C29.5234 34.8749 30.1278 34.2705 30.874 34.2705C31.6201 34.2705 32.2245 34.8749 32.2245 35.621V44.737C32.2245 45.4832 31.6201 46.0875 30.874 46.0875Z" fill="#0068DE"/>
<path d="M34.1585 60.3381C33.8141 60.3381 33.4664 60.2065 33.203 59.9431L26.6294 53.3695C26.1027 52.8428 26.1027 51.9886 26.6294 51.4585C27.1561 50.9318 28.0137 50.9318 28.5404 51.4585L35.114 58.0355C35.6407 58.5622 35.6407 59.4164 35.114 59.9465C34.8507 60.2098 34.5063 60.3415 34.1585 60.3415V60.3381Z" fill="#0068DE"/>
<path d="M27.5849 60.3386C27.2405 60.3386 26.8928 60.2069 26.6294 59.9436C26.1027 59.4169 26.1027 58.5627 26.6294 58.0326L33.203 51.4556C33.7297 50.9289 34.5873 50.9289 35.114 51.4556C35.6407 51.9823 35.6407 52.8365 35.114 53.3666L28.5404 59.9402C28.277 60.2035 27.9326 60.3352 27.5849 60.3352V60.3386Z" fill="#0068DE"/>
<path d="M54.0993 41.5292H44.9833C44.2372 41.5292 43.6328 40.9248 43.6328 40.1786C43.6328 39.4325 44.2372 38.8281 44.9833 38.8281H54.0993C54.8455 38.8281 55.4498 39.4325 55.4498 40.1786C55.4498 40.9248 54.8455 41.5292 54.0993 41.5292Z" fill="#0068DE"/>
<mask id="mask1_1760_10001" style="mask-type:luminance" maskUnits="userSpaceOnUse" x="43" y="51" width="13" height="4">
<path d="M54.0993 54.66H44.9833C44.2372 54.66 43.6328 54.0557 43.6328 53.3095C43.6328 52.5633 44.2372 51.959 44.9833 51.959H54.0993C54.8455 51.959 55.4498 52.5633 55.4498 53.3095C55.4498 54.0557 54.8455 54.66 54.0993 54.66Z" fill="white"/>
</mask>
<g mask="url(#mask1_1760_10001)">
<rect x="43.9922" y="52.8125" width="15" height="6" fill="#99CCFF"/>
</g>
<mask id="mask2_1760_10001" style="mask-type:luminance" maskUnits="userSpaceOnUse" x="43" y="56" width="13" height="4">
<path d="M54.0993 59.4442H44.9833C44.2372 59.4442 43.6328 58.8398 43.6328 58.0937C43.6328 57.3475 44.2372 56.7432 44.9833 56.7432H54.0993C54.8455 56.7432 55.4498 57.3475 55.4498 58.0937C55.4498 58.8398 54.8455 59.4442 54.0993 59.4442Z" fill="white"/>
</mask>
<g mask="url(#mask2_1760_10001)">
<rect x="43.9922" y="57.8125" width="15" height="6" fill="#99CCFF"/>
</g>
</g>
<defs>
<clipPath id="clip0_1760_10001">
<rect width="48.4261" height="60" fill="white" transform="translate(16 10.8125)"/>
</clipPath>
</defs>
</svg>
