<svg width="181" height="45" viewBox="0 0 181 45" fill="none" xmlns="http://www.w3.org/2000/svg">
<circle cx="22.5" cy="22.5" r="22.5" fill="black"/>
<path d="M22.5134 0C10.0743 0 0 10.0743 0 22.5134C0 25.0743 0.422068 27.6067 1.29466 30.0269L16.7167 14.6048C20.5438 10.7777 26.791 10.7777 30.6197 14.6048C34.4467 18.4319 34.4467 24.6791 30.6197 28.5077L15.3098 43.8176C17.6462 44.6048 20.0664 45 22.5134 45C34.9526 45 45.0269 34.9257 45.0269 22.4866C45.0269 10.0474 34.9526 0.00157991 22.5134 0.00157991V0Z" fill="#F1EC40"/>
<path d="M16.3226 20.7686C14.5221 22.5691 14.3245 26.3693 16.5755 28.6203C18.7981 30.8429 22.6268 30.6469 24.4273 28.8732C26.2278 27.0727 25.2999 24.3712 23.0757 22.147C20.8247 19.896 18.0947 18.995 16.321 20.7686H16.3226Z" fill="#F1EC40"/>
<path d="M21.9205 18.1799C22.8484 17.2519 22.8484 15.7881 21.9205 14.8586C20.9926 13.9291 19.5288 13.9307 18.5993 14.8586C17.6713 15.7866 17.6713 17.2504 18.5993 18.1799C19.5272 19.1078 20.991 19.1078 21.9205 18.1799Z" fill="#F1EC40"/>
<path d="M28.1982 19.1645C28.1982 20.4592 27.1564 21.5009 25.8618 21.5009C24.5671 21.5009 23.5254 20.4592 23.5254 19.1645C23.5254 17.8699 24.5671 16.8281 25.8618 16.8281C27.1564 16.8281 28.1982 17.8699 28.1982 19.1645Z" fill="#F1EC40"/>
<path d="M30.4517 23.4127C29.5238 22.4848 28.06 22.4848 27.1305 23.4127C26.2026 24.3407 26.2026 25.8044 27.1305 26.7339C28.0584 27.6619 29.5222 27.6619 30.4517 26.7339C31.3796 25.806 31.3796 24.3138 30.4517 23.4127Z" fill="#F1EC40"/>
<path d="M74.4866 20.2046C74.4866 20.9902 74.3893 21.6903 74.1947 22.3074C74.0001 22.9245 73.739 23.4704 73.4067 23.9403C73.0744 24.4103 72.6947 24.8161 72.2627 25.1508C71.8308 25.4854 71.3775 25.7584 70.9075 25.972C70.4352 26.1832 69.9581 26.3375 69.4787 26.4348C68.9969 26.5321 68.546 26.5796 68.1235 26.5796H60.3434V23.1381H68.1235C68.5649 23.1025 68.9637 23.0123 69.3197 22.8675C69.6781 22.7228 69.9843 22.5258 70.2382 22.2789C70.4945 22.0321 70.6915 21.7354 70.8339 21.3865C70.974 21.0376 71.0452 20.6437 71.0452 20.2022V18.6405C71.0001 18.2085 70.9075 17.8122 70.7675 17.449C70.6274 17.0883 70.4352 16.7797 70.1907 16.5234C69.9486 16.2671 69.6543 16.0677 69.3102 15.9206C68.966 15.7758 68.5697 15.7022 68.1187 15.7022H60.3648C59.9067 15.7022 59.5578 15.8209 59.3205 16.0582C59.0831 16.2955 58.9645 16.6397 58.9645 17.0906V31.2338H55.5254V17.0906C55.5254 16.2077 55.6868 15.4601 56.0072 14.8407C56.33 14.2236 56.7311 13.7251 57.2105 13.3454C57.6899 12.9656 58.2145 12.6903 58.7793 12.5194C59.3442 12.3486 59.864 12.2607 60.3411 12.2607H68.1211C68.8972 12.2607 69.595 12.3604 70.2121 12.5574C70.8292 12.7544 71.3751 13.0202 71.845 13.3501C72.3173 13.68 72.7184 14.0622 73.0483 14.4941C73.3782 14.9261 73.6512 15.3794 73.8695 15.8494C74.0855 16.3217 74.2422 16.7987 74.3395 17.2781C74.4368 17.76 74.4843 18.2109 74.4843 18.6334V20.1951L74.4866 20.2046Z" fill="black"/>
<path d="M94.3523 31.2373H81.9417C81.4646 31.2373 80.9448 31.1543 80.3799 30.9858C79.8151 30.8172 79.2929 30.5419 78.8111 30.1598C78.3293 29.7753 77.9282 29.2769 77.6078 28.6646C77.285 28.0522 77.126 27.2998 77.126 26.4098V13.9992C77.126 13.7619 77.1711 13.5364 77.2589 13.3251C77.3467 13.1139 77.4678 12.9288 77.622 12.7698C77.7763 12.6107 77.9591 12.4873 78.1703 12.3995C78.3815 12.3117 78.6117 12.2666 78.8586 12.2666H94.3523V15.7057H80.5651V26.4098C80.5651 26.8608 80.6837 27.2025 80.9234 27.4422C81.1608 27.6796 81.5097 27.7982 81.9678 27.7982H94.3523V31.2373ZM92.8048 23.4834H81.9417V20.0158H92.8048V23.4834Z" fill="black"/>
<path d="M114.611 15.7028H107.03V31.2344H103.591V15.7028H95.9961V12.2637H114.611V15.7028Z" fill="black"/>
<path d="M135.758 20.2046C135.758 20.9902 135.661 21.6903 135.466 22.3074C135.272 22.9245 135.01 23.4704 134.678 23.9403C134.346 24.4103 133.966 24.8161 133.534 25.1508C133.102 25.4854 132.649 25.7584 132.179 25.972C131.707 26.1832 131.23 26.3375 130.75 26.4348C130.268 26.5321 129.817 26.5796 129.395 26.5796H121.615V23.1381H129.395C129.836 23.1025 130.235 23.0123 130.591 22.8675C130.95 22.7228 131.256 22.5258 131.51 22.2789C131.766 22.0321 131.963 21.7354 132.105 21.3865C132.245 21.0376 132.317 20.6437 132.317 20.2022V18.6405C132.272 18.2085 132.179 17.8122 132.039 17.449C131.899 17.0883 131.707 16.7797 131.462 16.5234C131.22 16.2671 130.926 16.0677 130.582 15.9206C130.238 15.7758 129.841 15.7022 129.39 15.7022H121.636C121.178 15.7022 120.829 15.8209 120.592 16.0582C120.355 16.2955 120.236 16.6397 120.236 17.0906V31.2338H116.797V17.0906C116.797 16.2077 116.958 15.4601 117.279 14.8407C117.601 14.2236 118.003 13.7251 118.482 13.3454C118.961 12.9656 119.486 12.6903 120.051 12.5194C120.616 12.3486 121.135 12.2607 121.613 12.2607H129.393C130.169 12.2607 130.866 12.3604 131.484 12.5574C132.101 12.7544 132.647 13.0202 133.117 13.3501C133.589 13.68 133.99 14.0622 134.32 14.4941C134.65 14.9261 134.923 15.3794 135.141 15.8494C135.357 16.3217 135.514 16.7987 135.611 17.2781C135.708 17.76 135.756 18.2109 135.756 18.6334V20.1951L135.758 20.2046Z" fill="black"/>
<path d="M157.436 18.6429C157.436 19.4285 157.339 20.1286 157.144 20.7457C156.949 21.3628 156.688 21.9087 156.356 22.3786C156.026 22.8509 155.644 23.2544 155.212 23.5891C154.78 23.9237 154.327 24.199 153.857 24.415C153.385 24.631 152.907 24.7876 152.428 24.8849C151.946 24.9823 151.495 25.0297 151.073 25.0297L158.257 31.2338H152.938L145.768 25.0297H143.295V21.5906H151.075C151.507 21.555 151.901 21.4649 152.26 21.3201C152.616 21.1753 152.926 20.9783 153.185 20.7315C153.446 20.4846 153.646 20.188 153.788 19.8391C153.928 19.4902 153.999 19.0914 153.999 18.6405V16.4712C153.999 16.2766 153.976 16.1294 153.926 16.0274C153.878 15.9253 153.814 15.8517 153.741 15.8019C153.665 15.7544 153.586 15.7236 153.503 15.7164C153.42 15.7069 153.342 15.7022 153.271 15.7022H141.919V31.2338H138.479V13.9933C138.479 13.756 138.525 13.5305 138.612 13.3193C138.7 13.1081 138.821 12.9229 138.976 12.7639C139.13 12.6049 139.313 12.4815 139.524 12.3937C139.735 12.3058 139.965 12.2607 140.212 12.2607H153.271C154.037 12.2607 154.685 12.3984 155.214 12.6785C155.744 12.9562 156.173 13.305 156.506 13.7228C156.835 14.1429 157.075 14.5938 157.22 15.078C157.365 15.5622 157.438 16.0179 157.438 16.4403V18.6357L157.436 18.6429Z" fill="black"/>
<path d="M180.586 23.5633C180.586 24.7192 180.386 25.7824 179.99 26.7508C179.594 27.7215 179.041 28.5593 178.336 29.2642C177.631 29.9691 176.796 30.5198 175.83 30.9114C174.864 31.303 173.812 31.5 172.673 31.5H168.016C166.879 31.5 165.823 31.303 164.855 30.9114C163.884 30.5198 163.046 29.9691 162.341 29.2642C161.636 28.5593 161.083 27.7215 160.68 26.7508C160.279 25.7801 160.077 24.7192 160.077 23.5633V19.9391C160.077 18.7927 160.277 17.7318 160.68 16.7563C161.083 15.7809 161.634 14.943 162.341 14.2429C163.046 13.5427 163.884 12.9921 164.855 12.5957C165.826 12.1994 166.879 12 168.016 12H172.673C173.81 12 174.864 12.1994 175.83 12.5957C176.796 12.9921 177.631 13.5427 178.336 14.2429C179.041 14.9454 179.594 15.7832 179.99 16.7563C180.386 17.7318 180.586 18.7927 180.586 19.9391V23.5633ZM177.144 19.9391C177.144 19.2603 177.035 18.6456 176.819 18.0926C176.603 17.5419 176.299 17.0696 175.905 16.678C175.514 16.2864 175.042 15.9802 174.489 15.7642C173.938 15.5483 173.33 15.4391 172.67 15.4391H168.014C167.345 15.4391 166.732 15.5483 166.182 15.7642C165.631 15.9802 165.156 16.284 164.76 16.678C164.364 17.0696 164.057 17.5419 163.841 18.0926C163.625 18.6432 163.516 19.2603 163.516 19.9391V23.5633C163.516 24.2421 163.625 24.8592 163.841 25.4098C164.057 25.9604 164.364 26.4328 164.76 26.8244C165.156 27.216 165.631 27.5222 166.182 27.7381C166.732 27.9541 167.345 28.0633 168.014 28.0633H172.644C173.314 28.0633 173.926 27.9565 174.477 27.7381C175.027 27.5222 175.502 27.2184 175.898 26.8244C176.295 26.4328 176.601 25.9604 176.817 25.4098C177.033 24.8592 177.142 24.2421 177.142 23.5633V19.9391H177.144Z" fill="black"/>
</svg>
