<svg width="25" height="25" viewBox="0 0 25 25" fill="none" xmlns="http://www.w3.org/2000/svg">
<g clip-path="url(#clip0_221_579)">
<path d="M7.29167 15.6263H14.5833V17.7096H7.29167V15.6263ZM7.29167 11.4596H17.7083V13.543H7.29167V11.4596ZM7.29167 7.29297H17.7083V9.3763H7.29167V7.29297ZM19.7917 3.1263H15.4375C15 1.91797 13.8542 1.04297 12.5 1.04297C11.1458 1.04297 10 1.91797 9.5625 3.1263H5.20833C5.0625 3.1263 4.92708 3.13672 4.79167 3.16797C4.38542 3.2513 4.02083 3.45964 3.73958 3.74089C3.55208 3.92839 3.39583 4.15755 3.29167 4.40755C3.1875 4.64714 3.125 4.91797 3.125 5.20964V19.793C3.125 20.0742 3.1875 20.3555 3.29167 20.6055C3.39583 20.8555 3.55208 21.0742 3.73958 21.2721C4.02083 21.5534 4.38542 21.7617 4.79167 21.8451C4.92708 21.8659 5.0625 21.8763 5.20833 21.8763H19.7917C20.9375 21.8763 21.875 20.9388 21.875 19.793V5.20964C21.875 4.0638 20.9375 3.1263 19.7917 3.1263ZM12.5 2.86589C12.9271 2.86589 13.2812 3.22005 13.2812 3.64714C13.2812 4.07422 12.9271 4.42839 12.5 4.42839C12.0729 4.42839 11.7188 4.07422 11.7188 3.64714C11.7188 3.22005 12.0729 2.86589 12.5 2.86589ZM19.7917 19.793H5.20833V5.20964H19.7917V19.793Z" fill="white"/>
</g>
<defs>
<clipPath id="clip0_221_579">
<rect width="25" height="25" fill="white"/>
</clipPath>
</defs>
</svg>
