<svg width="25" height="25" viewBox="0 0 25 25" fill="none" xmlns="http://www.w3.org/2000/svg">
<g clip-path="url(#clip0_184_29362)">
<path d="M19.2715 0H4.68815C3.25065 0 2.08398 1.16667 2.08398 2.60417V22.3958C2.08398 23.8333 3.25065 25 4.68815 25H19.2715C20.709 25 21.8757 23.8333 21.8757 22.3958V2.60417C21.8757 1.16667 20.709 0 19.2715 0ZM11.9798 23.9583C11.1152 23.9583 10.4173 23.2604 10.4173 22.3958C10.4173 21.5312 11.1152 20.8333 11.9798 20.8333C12.8444 20.8333 13.5423 21.5312 13.5423 22.3958C13.5423 23.2604 12.8444 23.9583 11.9798 23.9583ZM19.7923 19.7917H4.16732V3.125H19.7923V19.7917Z" fill="white"/>
</g>
<defs>
<clipPath id="clip0_184_29362">
<rect width="25" height="25" fill="white"/>
</clipPath>
</defs>
</svg>
