<svg width="18" height="19" viewBox="0 0 18 19" fill="none" xmlns="http://www.w3.org/2000/svg">
<g clip-path="url(#clip0_363_11755)">
<path d="M8.25 13.625H9.75V12.125H8.25V13.625ZM9 1.625C4.86 1.625 1.5 4.985 1.5 9.125C1.5 13.265 4.86 16.625 9 16.625C13.14 16.625 16.5 13.265 16.5 9.125C16.5 4.985 13.14 1.625 9 1.625ZM9 15.125C5.6925 15.125 3 12.4325 3 9.125C3 5.8175 5.6925 3.125 9 3.125C12.3075 3.125 15 5.8175 15 9.125C15 12.4325 12.3075 15.125 9 15.125ZM9 4.625C7.3425 4.625 6 5.9675 6 7.625H7.5C7.5 6.8 8.175 6.125 9 6.125C9.825 6.125 10.5 6.8 10.5 7.625C10.5 9.125 8.25 8.9375 8.25 11.375H9.75C9.75 9.6875 12 9.5 12 7.625C12 5.9675 10.6575 4.625 9 4.625Z" fill="#495057"/>
</g>
<defs>
<clipPath id="clip0_363_11755">
<rect width="18" height="18" fill="white" transform="translate(0 0.125)"/>
</clipPath>
</defs>
</svg>
