<svg width="9" height="8" viewBox="0 0 9 8" fill="none" xmlns="http://www.w3.org/2000/svg">
<path d="M2.00013 1.00149L2.00013 7.00149C2.00032 7.06224 2.01707 7.12179 2.04859 7.17372C2.0801 7.22565 2.12518 7.26801 2.17898 7.29623C2.23277 7.32444 2.29325 7.33746 2.35389 7.33386C2.41453 7.33027 2.47304 7.3102 2.52313 7.27583L6.85646 4.27583C7.03613 4.15149 7.03613 3.85216 6.85646 3.72749L2.52313 0.727493C2.47315 0.692768 2.41461 0.672405 2.35386 0.668615C2.29312 0.664825 2.2325 0.677754 2.17859 0.705998C2.12468 0.734241 2.07954 0.776718 2.04808 0.828814C2.01662 0.880911 2.00003 0.940633 2.00013 1.00149Z" fill="#B6B6B6"/>
</svg>
