<svg width="25" height="25" viewBox="0 0 25 25" fill="none" xmlns="http://www.w3.org/2000/svg">
<g clip-path="url(#clip0_184_29415)">
<path d="M20.2395 13.5195C20.2812 13.1862 20.3125 12.8529 20.3125 12.4987C20.3125 12.1445 20.2812 11.8112 20.2395 11.4779L22.4375 9.75912C22.6354 9.60287 22.6875 9.32161 22.5625 9.09245L20.4791 5.48828C20.3854 5.32161 20.2083 5.22786 20.0208 5.22786C19.9583 5.22786 19.8958 5.23828 19.8437 5.25911L17.25 6.30078C16.7083 5.88411 16.125 5.54036 15.4895 5.27995L15.0937 2.51953C15.0625 2.26953 14.8437 2.08203 14.5833 2.08203H10.4166C10.1562 2.08203 9.93745 2.26953 9.9062 2.51953L9.51037 5.27995C8.87495 5.54036 8.29162 5.89453 7.74995 6.30078L5.1562 5.25911C5.0937 5.23828 5.0312 5.22786 4.9687 5.22786C4.79162 5.22786 4.61454 5.32161 4.52079 5.48828L2.43745 9.09245C2.30204 9.32161 2.36454 9.60287 2.56245 9.75912L4.76037 11.4779C4.7187 11.8112 4.68745 12.1549 4.68745 12.4987C4.68745 12.8424 4.7187 13.1862 4.76037 13.5195L2.56245 15.2383C2.36454 15.3945 2.31245 15.6758 2.43745 15.9049L4.52079 19.5091C4.61454 19.6758 4.79162 19.7695 4.97912 19.7695C5.04162 19.7695 5.10412 19.7591 5.1562 19.7383L7.74995 18.6966C8.29162 19.1133 8.87495 19.457 9.51037 19.7174L9.9062 22.4779C9.93745 22.7279 10.1562 22.9154 10.4166 22.9154H14.5833C14.8437 22.9154 15.0625 22.7279 15.0937 22.4779L15.4895 19.7174C16.125 19.457 16.7083 19.1029 17.25 18.6966L19.8437 19.7383C19.9062 19.7591 19.9687 19.7695 20.0312 19.7695C20.2083 19.7695 20.3854 19.6758 20.4791 19.5091L22.5625 15.9049C22.6875 15.6758 22.6354 15.3945 22.4375 15.2383L20.2395 13.5195ZM18.177 11.7383C18.2187 12.0612 18.2291 12.2799 18.2291 12.4987C18.2291 12.7174 18.2083 12.9466 18.177 13.2591L18.0312 14.4362L18.9583 15.1654L20.0833 16.0404L19.3541 17.3008L18.0312 16.7695L16.9479 16.332L16.0104 17.0404C15.5625 17.3737 15.1354 17.6237 14.7083 17.8008L13.6041 18.2487L13.4375 19.4258L13.2291 20.832H11.7708L11.5729 19.4258L11.4062 18.2487L10.302 17.8008C9.85412 17.6133 9.43745 17.3737 9.02079 17.0612L8.07287 16.332L6.9687 16.78L5.64579 17.3112L4.91662 16.0508L6.04162 15.1758L6.9687 14.4466L6.82287 13.2695C6.79162 12.9466 6.77079 12.707 6.77079 12.4987C6.77079 12.2904 6.79162 12.0508 6.82287 11.7383L6.9687 10.5612L6.04162 9.83203L4.91662 8.95703L5.64579 7.69661L6.9687 8.22787L8.05204 8.66536L8.98954 7.95703C9.43745 7.6237 9.86454 7.3737 10.2916 7.19661L11.3958 6.7487L11.5625 5.57161L11.7708 4.16536H13.2187L13.4166 5.57161L13.5833 6.7487L14.6875 7.19661C15.1354 7.38411 15.552 7.6237 15.9687 7.9362L16.9166 8.66536L18.0208 8.21745L19.3437 7.6862L20.0729 8.94662L18.9583 9.83203L18.0312 10.5612L18.177 11.7383ZM12.5 8.33203C10.1979 8.33203 8.33329 10.1966 8.33329 12.4987C8.33329 14.8008 10.1979 16.6654 12.5 16.6654C14.802 16.6654 16.6666 14.8008 16.6666 12.4987C16.6666 10.1966 14.802 8.33203 12.5 8.33203ZM12.5 14.582C11.3541 14.582 10.4166 13.6445 10.4166 12.4987C10.4166 11.3529 11.3541 10.4154 12.5 10.4154C13.6458 10.4154 14.5833 11.3529 14.5833 12.4987C14.5833 13.6445 13.6458 14.582 12.5 14.582Z" fill="white"/>
</g>
<defs>
<clipPath id="clip0_184_29415">
<rect width="25" height="25" fill="white"/>
</clipPath>
</defs>
</svg>
