<svg width="25" height="25" viewBox="0 0 25 25" fill="none" xmlns="http://www.w3.org/2000/svg">
<g clip-path="url(#clip0_184_29384)">
<path d="M17.709 1.04297H7.29232C6.14648 1.04297 5.20898 1.98047 5.20898 3.1263V21.8763C5.20898 23.0221 6.14648 23.9596 7.29232 23.9596H17.709C18.8548 23.9596 19.7923 23.0221 19.7923 21.8763V3.1263C19.7923 1.98047 18.8548 1.04297 17.709 1.04297ZM17.709 21.8763H7.29232V20.8346H17.709V21.8763ZM17.709 18.7513H7.29232V18.2513C8.82357 17.2201 10.6465 16.668 12.5007 16.668C14.3548 16.668 16.1777 17.2201 17.709 18.2513V18.7513ZM17.709 15.8451C16.1465 15.043 14.3757 14.5846 12.5007 14.5846C10.6257 14.5846 8.85482 15.043 7.29232 15.8451V6.2513H17.709V15.8451ZM17.709 4.16797H7.29232V3.1263H17.709V4.16797Z" fill="white"/>
<path d="M12.5 13.543C14.2292 13.543 15.625 12.1471 15.625 10.418C15.625 8.6888 14.2292 7.29297 12.5 7.29297C10.7708 7.29297 9.375 8.6888 9.375 10.418C9.375 12.1471 10.7708 13.543 12.5 13.543ZM12.5 9.3763C13.0729 9.3763 13.5417 9.84505 13.5417 10.418C13.5417 10.9909 13.0729 11.4596 12.5 11.4596C11.9271 11.4596 11.4583 10.9909 11.4583 10.418C11.4583 9.84505 11.9271 9.3763 12.5 9.3763Z" fill="white"/>
</g>
<defs>
<clipPath id="clip0_184_29384">
<rect width="25" height="25" fill="white"/>
</clipPath>
</defs>
</svg>
