<svg width="25" height="25" viewBox="0 0 25 25" fill="none" xmlns="http://www.w3.org/2000/svg">
<path d="M15.4407 3.06693C13.8363 4.26492 11.9864 5.09273 10.0241 5.49089L4.49698 6.59609C4.0369 6.6874 3.62269 6.93536 3.32488 7.29774C3.02707 7.66013 2.86407 8.11454 2.86365 8.58359V13.3711C2.85456 13.8471 3.01322 14.3111 3.31183 14.6819C3.61045 15.0527 4.02999 15.3066 4.49698 15.3992L10.0241 16.5055C11.9824 16.8909 13.8324 17.7055 15.4407 18.8888C15.5915 19.0017 15.7706 19.0705 15.9582 19.0873C16.1458 19.1042 16.3344 19.0685 16.5028 18.9843C16.6713 18.9001 16.8129 18.7706 16.912 18.6104C17.011 18.4503 17.0636 18.2657 17.0637 18.0773V3.87839C17.0637 3.68997 17.0114 3.50524 16.9124 3.34491C16.8134 3.18458 16.6718 3.05498 16.5033 2.97063C16.3348 2.88628 16.1461 2.85051 15.9585 2.86733C15.7708 2.88416 15.5915 2.95395 15.4407 3.06693Z" stroke="white" stroke-width="2" stroke-linecap="round" stroke-linejoin="round"/>
<path d="M8.75599 16.2091L10.4602 20.7633C10.5176 20.9161 10.5372 21.0806 10.5173 21.2427C10.4975 21.4048 10.4388 21.5596 10.3462 21.6942C10.2536 21.8287 10.1299 21.9388 9.98565 22.0152C9.84135 22.0917 9.68073 22.1321 9.51745 22.1331H8.32995C7.91553 22.1343 7.51067 22.0086 7.16986 21.7729C6.82905 21.5371 6.56865 21.2026 6.4237 20.8143L4.39453 15.3174M13.006 7.93307V14.0185M19.2945 6.66536L21.931 5.14453M19.2945 15.2862L21.931 16.807M19.0914 10.9768H22.1341" stroke="white" stroke-width="2" stroke-linecap="round" stroke-linejoin="round"/>
</svg>
