<svg width="20" height="20" viewBox="0 0 20 20" fill="none" xmlns="http://www.w3.org/2000/svg">
<path d="M3.33268 18.3346C2.87435 18.3346 2.48213 18.1716 2.15602 17.8455C1.82935 17.5188 1.66602 17.1263 1.66602 16.668V3.33464C1.66602 2.8763 1.82935 2.4838 2.15602 2.15714C2.48213 1.83102 2.87435 1.66797 3.33268 1.66797H16.666C17.1243 1.66797 17.5168 1.83102 17.8435 2.15714C18.1696 2.4838 18.3327 2.8763 18.3327 3.33464V16.668C18.3327 17.1263 18.1696 17.5188 17.8435 17.8455C17.5168 18.1716 17.1243 18.3346 16.666 18.3346H3.33268ZM3.33268 13.3346V16.668H6.66602V13.3346H3.33268ZM8.33268 13.3346V16.668H11.666V13.3346H8.33268ZM13.3327 16.668H16.666V13.3346H13.3327V16.668ZM3.33268 11.668H6.66602V8.33464H3.33268V11.668ZM8.33268 11.668H11.666V8.33464H8.33268V11.668ZM13.3327 11.668H16.666V8.33464H13.3327V11.668ZM6.66602 3.33464H3.33268V6.66797H6.66602V3.33464ZM8.33268 6.66797H11.666V3.33464H8.33268V6.66797ZM13.3327 6.66797H16.666V3.33464H13.3327V6.66797Z" fill="white"/>
</svg>
