<svg width="25" height="25" viewBox="0 0 25 25" fill="none" xmlns="http://www.w3.org/2000/svg">
<path d="M5.20833 8.33333V19.7917H19.7917V8.33333H16.6667V16.6667L12.5 14.5833L8.33333 16.6667V8.33333H5.20833ZM5.20833 21.875C4.63542 21.875 4.14497 21.671 3.73698 21.263C3.32899 20.855 3.125 20.3646 3.125 19.7917V6.79688C3.125 6.55382 3.16406 6.31944 3.24219 6.09375C3.32031 5.86806 3.4375 5.65972 3.59375 5.46875L4.89583 3.88021C5.08681 3.63715 5.32552 3.45052 5.61198 3.32031C5.89844 3.1901 6.19792 3.125 6.51042 3.125H18.4896C18.8021 3.125 19.1016 3.1901 19.388 3.32031C19.6745 3.45052 19.9132 3.63715 20.1042 3.88021L21.4062 5.46875C21.5625 5.65972 21.6797 5.86806 21.7578 6.09375C21.8359 6.31944 21.875 6.55382 21.875 6.79688V19.7917C21.875 20.3646 21.671 20.855 21.263 21.263C20.855 21.671 20.3646 21.875 19.7917 21.875H5.20833ZM5.625 6.25H19.375L18.4896 5.20833H6.51042L5.625 6.25ZM10.4167 8.33333V13.2812L12.5 12.2396L14.5833 13.2812V8.33333H10.4167Z" fill="white"/>
</svg>
