<svg width="25" height="25" viewBox="0 0 25 25" fill="none" xmlns="http://www.w3.org/2000/svg">
<g clip-path="url(#clip0_184_29371)">
<path d="M17.709 2.08203H7.29232C6.14648 2.08203 5.20898 3.01953 5.20898 4.16536V6.2487C5.20898 7.39453 6.14648 8.33203 7.29232 8.33203H17.709C18.8548 8.33203 19.7923 7.39453 19.7923 6.2487V4.16536C19.7923 3.01953 18.8548 2.08203 17.709 2.08203ZM17.709 6.2487H7.29232V4.16536H17.709V6.2487ZM20.834 22.9154H4.16732C3.02148 22.9154 2.08398 21.9779 2.08398 20.832V19.7904H22.9173V20.832C22.9173 21.9779 21.9798 22.9154 20.834 22.9154ZM19.3027 10.6133C18.9694 9.86328 18.2194 9.3737 17.3965 9.3737H7.60482C6.7819 9.3737 6.0319 9.86328 5.69857 10.6133L2.08398 18.7487H22.9173L19.3027 10.6133ZM9.89648 16.6654H8.85482C8.56315 16.6654 8.33398 16.4362 8.33398 16.1445C8.33398 15.8529 8.56315 15.6237 8.85482 15.6237H9.89648C10.1882 15.6237 10.4173 15.8529 10.4173 16.1445C10.4173 16.4362 10.1882 16.6654 9.89648 16.6654ZM9.89648 14.582H8.85482C8.56315 14.582 8.33398 14.3529 8.33398 14.0612C8.33398 13.7695 8.56315 13.5404 8.85482 13.5404H9.89648C10.1882 13.5404 10.4173 13.7695 10.4173 14.0612C10.4173 14.3529 10.1882 14.582 9.89648 14.582ZM9.89648 12.4987H8.85482C8.56315 12.4987 8.33398 12.2695 8.33398 11.9779C8.33398 11.6862 8.56315 11.457 8.85482 11.457H9.89648C10.1882 11.457 10.4173 11.6862 10.4173 11.9779C10.4173 12.2695 10.1882 12.4987 9.89648 12.4987ZM13.0215 16.6654H11.9798C11.6882 16.6654 11.459 16.4362 11.459 16.1445C11.459 15.8529 11.6882 15.6237 11.9798 15.6237H13.0215C13.3132 15.6237 13.5423 15.8529 13.5423 16.1445C13.5423 16.4362 13.3132 16.6654 13.0215 16.6654ZM13.0215 14.582H11.9798C11.6882 14.582 11.459 14.3529 11.459 14.0612C11.459 13.7695 11.6882 13.5404 11.9798 13.5404H13.0215C13.3132 13.5404 13.5423 13.7695 13.5423 14.0612C13.5423 14.3529 13.3132 14.582 13.0215 14.582ZM13.0215 12.4987H11.9798C11.6882 12.4987 11.459 12.2695 11.459 11.9779C11.459 11.6862 11.6882 11.457 11.9798 11.457H13.0215C13.3132 11.457 13.5423 11.6862 13.5423 11.9779C13.5423 12.2695 13.3132 12.4987 13.0215 12.4987ZM16.1465 16.6654H15.1048C14.8132 16.6654 14.584 16.4362 14.584 16.1445C14.584 15.8529 14.8132 15.6237 15.1048 15.6237H16.1465C16.4382 15.6237 16.6673 15.8529 16.6673 16.1445C16.6673 16.4362 16.4382 16.6654 16.1465 16.6654ZM16.1465 14.582H15.1048C14.8132 14.582 14.584 14.3529 14.584 14.0612C14.584 13.7695 14.8132 13.5404 15.1048 13.5404H16.1465C16.4382 13.5404 16.6673 13.7695 16.6673 14.0612C16.6673 14.3529 16.4382 14.582 16.1465 14.582ZM16.1465 12.4987H15.1048C14.8132 12.4987 14.584 12.2695 14.584 11.9779C14.584 11.6862 14.8132 11.457 15.1048 11.457H16.1465C16.4382 11.457 16.6673 11.6862 16.6673 11.9779C16.6673 12.2695 16.4382 12.4987 16.1465 12.4987Z" fill="white"/>
</g>
<defs>
<clipPath id="clip0_184_29371">
<rect width="25" height="25" fill="white"/>
</clipPath>
</defs>
</svg>
