<svg width="25" height="25" viewBox="0 0 25 25" fill="none" xmlns="http://www.w3.org/2000/svg">
<g clip-path="url(#clip0_184_29328)">
<path d="M22.8134 9.26042L21.7197 4.70833C21.4905 3.77083 20.678 3.125 19.7301 3.125H5.26134C4.32384 3.125 3.50092 3.78125 3.28217 4.70833L2.18842 9.26042C1.93842 10.3229 2.16759 11.4062 2.83426 12.2604C2.91759 12.375 3.03217 12.4583 3.12592 12.5625V19.7917C3.12592 20.9375 4.06342 21.875 5.20926 21.875H19.7926C20.9384 21.875 21.8759 20.9375 21.8759 19.7917V12.5625C21.9697 12.4688 22.0843 12.375 22.1676 12.2708C22.8343 11.4167 23.0738 10.3229 22.8134 9.26042ZM19.6988 5.19792L20.7926 9.75C20.8968 10.1875 20.803 10.625 20.5322 10.9687C20.3863 11.1562 20.0738 11.4583 19.553 11.4583C18.9176 11.4583 18.3655 10.9479 18.2926 10.2708L17.6884 5.20833L19.6988 5.19792ZM13.5426 5.20833H15.5843L16.1468 9.91667C16.1988 10.3229 16.0738 10.7292 15.803 11.0312C15.5738 11.3021 15.2405 11.4583 14.8134 11.4583C14.1155 11.4583 13.5426 10.8437 13.5426 10.0937V5.20833ZM8.84467 9.91667L9.41759 5.20833H11.4593V10.0937C11.4593 10.8437 10.8863 11.4583 10.1155 11.4583C9.76134 11.4583 9.43842 11.3021 9.18842 11.0312C8.92801 10.7292 8.80301 10.3229 8.84467 9.91667ZM4.20926 9.75L5.26134 5.20833H7.31342L6.70926 10.2708C6.62592 10.9479 6.08426 11.4583 5.44884 11.4583C4.93842 11.4583 4.61551 11.1562 4.48009 10.9687C4.19884 10.6354 4.10509 10.1875 4.20926 9.75ZM5.20926 19.7917V13.5104C5.29259 13.5208 5.36551 13.5417 5.44884 13.5417C6.35509 13.5417 7.17801 13.1667 7.78217 12.5521C8.40717 13.1771 9.24051 13.5417 10.1884 13.5417C11.0947 13.5417 11.9072 13.1667 12.5113 12.5729C13.1259 13.1667 13.9593 13.5417 14.8968 13.5417C15.7718 13.5417 16.6051 13.1771 17.2301 12.5521C17.8343 13.1667 18.6572 13.5417 19.5634 13.5417C19.6468 13.5417 19.7197 13.5208 19.803 13.5104V19.7917H5.20926Z" fill="white"/>
</g>
<defs>
<clipPath id="clip0_184_29328">
<rect width="25" height="25" fill="white"/>
</clipPath>
</defs>
</svg>
