<svg width="26" height="26" viewBox="0 0 26 26" fill="none" xmlns="http://www.w3.org/2000/svg">
<path d="M22.3747 5.9556L3.62473 5.9556C3.43489 5.95619 3.24882 6.00855 3.08653 6.10703C2.92423 6.20552 2.79187 6.34639 2.70369 6.51451C2.61551 6.68262 2.57485 6.8716 2.58608 7.0611C2.59731 7.2506 2.66001 7.43346 2.76744 7.58997L12.1424 21.1316C12.531 21.6931 13.4664 21.6931 13.856 21.1316L23.231 7.58998C23.3395 7.43378 23.4031 7.25084 23.415 7.06102C23.4268 6.8712 23.3864 6.68177 23.2982 6.5133C23.2099 6.34483 23.0772 6.20377 22.9143 6.10545C22.7515 6.00713 22.5649 5.9553 22.3747 5.9556Z" fill="#00CF9D"/>
</svg>
