<svg width="25" height="25" viewBox="0 0 25 25" fill="none" xmlns="http://www.w3.org/2000/svg">
<g clip-path="url(#clip0_184_29397)">
<path d="M19.7917 3.1263H15.4375C15 1.91797 13.8542 1.04297 12.5 1.04297C11.1458 1.04297 10 1.91797 9.5625 3.1263H5.20833C4.0625 3.1263 3.125 4.0638 3.125 5.20964V19.793C3.125 20.9388 4.0625 21.8763 5.20833 21.8763H19.7917C20.9375 21.8763 21.875 20.9388 21.875 19.793V5.20964C21.875 4.0638 20.9375 3.1263 19.7917 3.1263ZM12.5 2.86589C12.7292 2.86589 12.9271 2.97005 13.0729 3.1263C13.1979 3.26172 13.2812 3.44922 13.2812 3.64714C13.2812 4.07422 12.9271 4.42839 12.5 4.42839C12.0729 4.42839 11.7188 4.07422 11.7188 3.64714C11.7188 3.44922 11.8021 3.26172 11.9271 3.1263C12.0729 2.97005 12.2708 2.86589 12.5 2.86589ZM19.7917 19.793H5.20833V5.20964H19.7917V19.793ZM12.5 6.2513C10.7812 6.2513 9.375 7.65755 9.375 9.3763C9.375 11.0951 10.7812 12.5013 12.5 12.5013C14.2188 12.5013 15.625 11.0951 15.625 9.3763C15.625 7.65755 14.2188 6.2513 12.5 6.2513ZM12.5 10.418C11.9271 10.418 11.4583 9.94922 11.4583 9.3763C11.4583 8.80339 11.9271 8.33464 12.5 8.33464C13.0729 8.33464 13.5417 8.80339 13.5417 9.3763C13.5417 9.94922 13.0729 10.418 12.5 10.418ZM6.25 17.1576V18.7513H18.75V17.1576C18.75 14.5534 14.6146 13.4284 12.5 13.4284C10.3854 13.4284 6.25 14.543 6.25 17.1576ZM8.65625 16.668C9.375 16.0846 11.1354 15.5013 12.5 15.5013C13.8646 15.5013 15.6354 16.0846 16.3437 16.668H8.65625Z" fill="white"/>
</g>
<defs>
<clipPath id="clip0_184_29397">
<rect width="25" height="25" fill="white"/>
</clipPath>
</defs>
</svg>
