<svg width="150" height="151" viewBox="0 0 150 151" fill="none" xmlns="http://www.w3.org/2000/svg">
<rect width="150" height="150" transform="translate(0 0.125)" fill="#DEE2E6"/>
<g clip-path="url(#clip0_210_7461)">
<path d="M92.5 47.125V82.125H57.5V47.125H92.5ZM92.5 42.125H57.5C54.75 42.125 52.5 44.375 52.5 47.125V82.125C52.5 84.875 54.75 87.125 57.5 87.125H92.5C95.25 87.125 97.5 84.875 97.5 82.125V47.125C97.5 44.375 95.25 42.125 92.5 42.125ZM80.35 64.275L72.85 73.95L67.5 67.475L60 77.125H90L80.35 64.275Z" fill="white"/>
</g>
<path d="M55.4302 102.24V113.818H53.7925V102.24H55.4302ZM49.1587 103.053C50.8979 103.053 52.1929 104.652 52.1929 107.166C52.1929 109.705 50.8979 111.292 49.1587 111.292C47.3813 111.292 46.0864 109.705 46.0991 107.166C46.0864 104.652 47.3813 103.053 49.1587 103.053ZM49.1587 104.513C48.2573 104.513 47.6606 105.452 47.6606 107.166C47.6606 108.893 48.2573 109.819 49.1587 109.819C50.0347 109.819 50.6313 108.893 50.6313 107.166C50.6313 105.452 50.0347 104.513 49.1587 104.513ZM63.1489 103.281V111.038H57.563V103.281H63.1489ZM59.188 104.551V109.756H61.5747V104.551H59.188ZM66.6655 102.24V113.818H65.0278V102.24H66.6655ZM72.7085 105.389C72.7085 107.255 73.6606 109.248 75.603 110.061L74.7271 111.33C73.3623 110.752 72.4229 109.604 71.9087 108.194C71.3818 109.724 70.4233 110.994 69.0649 111.622L68.1382 110.34C70.0552 109.489 71.0454 107.344 71.0454 105.389V104.678H68.5952V103.357H75.1206V104.678H72.7085V105.389ZM77.9009 102.24V113.793H76.2632V102.24H77.9009ZM86.7876 104.221C86.7876 105.719 87.5874 107.204 89.4282 107.813L88.5522 109.083C87.3271 108.632 86.4829 107.782 86.0005 106.709C85.499 107.915 84.5977 108.867 83.2583 109.35L82.3823 108.08C84.312 107.445 85.1499 105.858 85.1499 104.208V102.951H86.7876V104.221ZM92.1958 102.253V110.784H90.5835V106.011H88.4126V104.703H90.5835V102.253H92.1958ZM92.437 112.295V113.59H84.5024V109.883H86.1401V112.295H92.437ZM98.6704 103.015V104.31H95.6489V105.262H98.5562V106.493H95.6489V107.509C96.9312 107.502 97.8833 107.452 98.9497 107.268L99.1147 108.562C97.7563 108.804 96.6265 108.842 94.8872 108.842H94.1001V103.015H98.6704ZM103.622 102.253V109.299H102.085V106.366H101.083V109.21H99.5718V102.456H101.083V105.071H102.085V102.253H103.622ZM103.622 109.781V113.793H102.009V111.076H95.6362V109.781H103.622Z" fill="white"/>
<defs>
<clipPath id="clip0_210_7461">
<rect width="60" height="60" fill="white" transform="translate(45 34.625)"/>
</clipPath>
</defs>
</svg>
