<svg width="163" height="50" viewBox="0 0 163 50" fill="none" xmlns="http://www.w3.org/2000/svg">
<g clip-path="url(#clip0_184_29172)">
<path d="M86.1585 33.3702H89.6342V11.8049L88.7412 9.49609C88.7412 9.49609 88.4353 11.3887 88.4353 11.4527C88.4353 11.4918 88.5136 11.6626 88.5847 11.8049H82.6651V16.6964H81.7686V12.1571H81.5516L81.7331 11.8369L80.8793 9.84472C80.8793 9.84472 80.705 11.2428 80.584 12.1571H75.0735V26.8031L74.3265 23.4591L74.145 23.5125C73.711 23.6405 73.3588 23.7295 73.1027 23.7828C72.9213 23.8184 72.7434 23.8433 72.5726 23.854V21.7942L73.2734 21.8618L73.9814 23.3737L74.1699 20.4175H74.5684V12.6658H74.0917L74.1842 11.9436L73.679 10.3641C73.679 10.3641 73.5047 11.7515 73.3837 12.6658H65.1696V29.4534L64.8209 29.4819V23.8967H63.5687V22.5591C63.6968 22.8259 63.8462 23.0322 63.928 22.801C64.0952 22.3314 64.2802 21.5238 64.2802 21.3033C64.2802 21.193 64.234 20.7874 64.1877 20.4139H64.8209V12.6622H55.817V29.6064H55.3048C55.2621 29.6064 54.5684 29.6811 54.5684 29.6811L55.8135 31.6448H64.8174V30.7519C64.9241 30.7448 65.0415 30.7341 65.166 30.727V31.6483H70.0789C71.3311 31.6483 72.377 31.6092 73.1881 31.531C73.8996 31.4634 74.5328 31.3531 75.0664 31.2001V32.1962H81.7615V26.5612H82.658V32.7405H63.6612C62.3556 32.7405 61.1603 33.0642 60.1073 33.7046C59.0579 34.3413 58.2076 35.1773 57.5815 36.1877C56.9554 37.2015 56.6103 38.3079 56.557 39.489C56.557 40.7697 56.8736 41.9401 57.5033 42.9646C58.1294 43.9892 58.9867 44.8145 60.054 45.4157C61.1176 46.0169 62.3343 46.3193 63.6648 46.3193H82.9177C84.2731 46.3193 85.4933 46.0205 86.5463 45.437C87.5993 44.8501 88.446 44.0318 89.0579 43.0073C89.6733 41.9792 89.9828 40.7981 89.9828 39.4925C89.9828 38.0802 89.5559 36.7426 88.7199 35.5189C88.0653 34.5655 87.208 33.8469 86.155 33.3702H86.1585ZM80.1536 38.9767C80.0966 38.9945 80.0433 39.0016 79.9864 39.0016H66.6032C66.5285 39.0016 66.4787 38.9945 66.4431 38.9838C66.436 38.9625 66.4289 38.9162 66.4289 38.8273C66.4289 38.7384 66.436 38.6921 66.4431 38.6708C66.4787 38.6601 66.5285 38.653 66.6032 38.653H79.9864C80.0433 38.653 80.1038 38.6636 80.1393 38.6636C80.1393 38.6636 80.1607 38.6992 80.1607 38.8273C80.1607 38.9269 80.1464 38.9696 80.1536 38.9767Z" fill="#0B454F"/>
<path d="M123.473 36.3549L123.37 36.3904C123.306 36.4118 123.16 36.4794 122.591 36.8173C122.189 37.0557 121.492 37.3332 120.517 37.6427C119.539 37.9522 118.165 38.2439 116.433 38.5178C114.736 38.7846 112.555 38.9838 109.948 39.1119V38.7633C113.178 38.6032 115.81 38.3115 117.771 37.8881C119.77 37.4577 121.239 37.0166 122.136 36.5825C123.455 35.9422 123.566 35.7181 123.566 35.5438V31.3744H109.98L110.656 29.368C111.193 29.3182 112.004 29.2328 112.644 29.1688V30.8301H123.566V11.8049L122.673 9.49609L122.431 11.8049H112.644V15.2485H110.179V22.769C109.432 22.5199 108.642 22.3278 107.82 22.1962C106.999 22.0646 106.134 21.9828 105.238 21.9472C105.327 21.7657 105.415 21.5808 105.508 21.3887C105.625 21.1432 105.732 20.8835 105.828 20.6096H109.83V13.2101H106.817V12.527C106.817 12.2424 106.803 11.9365 106.778 11.6128L106.764 11.4491H95.8424L95.8566 11.6412C95.9029 12.214 95.9064 12.7405 95.8708 13.2101H90.9651V20.6096H94.1597C93.804 20.9297 93.3664 21.2001 92.8541 21.4242C92.1711 21.7195 91.2995 22.0539 90.2643 22.4168L90.1113 22.4701L92.2636 30.9226L92.4237 30.8977C94.2451 30.6274 95.9278 30.1436 97.4432 29.4641C98.1192 29.4072 100.318 29.3182 101.748 29.2649L101.645 29.6669L101.851 29.6846C102.673 29.7629 103.537 29.9194 104.427 30.1507C105.316 30.3819 106.159 30.6452 106.935 30.9297C107.351 31.0827 107.728 31.2286 108.055 31.3673H92.5731V36.6537H106.152V37.0023H92.5731V43.8326C92.5731 44.3805 93.0462 44.8429 93.9783 45.2129C94.8463 45.5544 96.038 45.8355 97.5215 46.0454C98.9907 46.2517 100.673 46.4047 102.527 46.4972C104.377 46.5897 106.308 46.6359 108.269 46.6359C110.229 46.6359 112.171 46.5825 114.049 46.4794C115.924 46.3762 117.65 46.2375 119.186 46.0667C120.73 45.896 121.993 45.6896 122.947 45.4548C123.978 45.2022 124.533 44.9212 124.69 44.5726L124.711 44.5263L123.679 36.5505L123.48 36.3513L123.473 36.3549ZM111.851 25.8177H112.641V28.5391C112.367 28.4075 112.054 28.2581 112 28.2439C111.901 28.2154 111.563 28.4858 111.73 27.8775C111.897 27.2727 111.751 26.7675 111.751 26.7675L111.513 26.8138L111.851 25.8177ZM102.093 27.8739L100.905 27.3759C101.517 26.8956 102.089 26.3798 102.612 25.8248L102.096 27.8739H102.093Z" fill="#0B454F"/>
<path d="M146.532 19.8794C146.425 17.6702 145.461 15.8168 143.668 14.3689C141.882 12.9281 139.257 12.1953 135.866 12.1953C133.607 12.1953 131.662 12.5439 130.082 13.227C128.492 13.9171 127.268 14.8634 126.446 16.048C125.621 17.2327 125.201 18.5667 125.201 20.0039V36.4429C125.226 37.9086 125.667 39.2497 126.507 40.4379C127.343 41.619 128.567 42.5688 130.142 43.2554C131.708 43.942 133.636 44.2871 135.87 44.2871C139.338 44.2871 142.01 43.5578 143.807 42.117C145.617 40.6656 146.535 38.7304 146.535 36.3611V19.8794H146.532ZM136.276 32.9566C136.276 32.9566 136.272 33.0171 136.208 33.2127C136.176 33.3124 135.98 33.3266 135.866 33.3266C135.692 33.3266 135.589 33.2875 135.564 33.2127C135.496 33.0171 135.496 32.9602 135.496 32.9566V23.5258C135.496 23.4938 135.507 23.4084 135.564 23.2305C135.589 23.1558 135.689 23.1167 135.866 23.1167C135.98 23.1167 136.172 23.1309 136.208 23.2305C136.268 23.412 136.276 23.4938 136.276 23.5258V32.9566Z" fill="#0B454F"/>
<path d="M108.941 10.9023L108.855 13.0582L111.424 12.955L108.941 10.9023Z" fill="#0B454F"/>
<path d="M105.841 9.16406L105.738 11.0282H108.221L105.841 9.16406Z" fill="#0B454F"/>
<path d="M160.532 28.9155H158.539L162.808 11.8397L161.969 9.52734C161.969 9.52734 161.261 11.3808 161.218 11.4911C161.193 11.5586 161.2 11.7187 161.211 11.8397H151.72L147.917 27.0478C147.305 27.1296 146.533 27.2363 146.533 27.2363L147.358 29.2712H150.919L147.511 44.152C146.917 44.2267 145.715 44.3939 145.715 44.3939L147.01 46.347H158.098L162.093 28.9119L161.243 26.6067C161.243 26.6067 160.702 28.3036 160.532 28.9119V28.9155Z" fill="#0B454F"/>
<path d="M63.5779 29.3354H54.9297V10.7086H63.5779V18.1045H62.3256V21.9394H63.5779V29.3354ZM88.3875 31.0572H84.083C85.5451 31.4734 86.6835 32.2845 87.5053 33.4834C88.3271 34.6822 88.7362 35.9736 88.7362 37.3574C88.7362 38.6346 88.4373 39.7765 87.8361 40.7797C87.2349 41.7829 86.4203 42.5727 85.3886 43.1454C84.3569 43.7182 83.1794 44.0063 81.8454 44.0063H62.5924C61.2869 44.0063 60.1129 43.7146 59.0706 43.1241C58.0282 42.5371 57.1993 41.7402 56.5875 40.737C55.9756 39.7338 55.6696 38.6061 55.6696 37.3539C55.723 36.2048 56.0538 35.1376 56.6657 34.1451C57.2776 33.1525 58.0994 32.345 59.131 31.7189C60.1627 31.0928 61.3153 30.7797 62.5924 30.7797H81.7671V24.2447H80.5149V29.8797H74.1755V28.8231C73.6028 29.0045 72.909 29.1362 72.1015 29.2144C71.294 29.2927 70.2623 29.3318 69.0101 29.3318H64.2751V10.7086H73.3146V18.1045H71.3189V21.9003C71.5537 21.9003 71.8027 21.8754 72.0624 21.822C72.3221 21.7687 72.6743 21.6797 73.1189 21.5481L74.1755 26.2831V10.1998H80.5149V14.7392H81.7671V9.84766H88.3804V31.0572H88.3875ZM65.5345 37.0444H78.9176C78.9959 37.0444 79.0741 37.0302 79.1524 37.0053C79.2306 36.9803 79.2698 36.8736 79.2698 36.6922C79.2698 36.5108 79.2306 36.404 79.1524 36.3791C79.0741 36.3542 78.9959 36.34 78.9176 36.34H65.5345C65.4313 36.34 65.3459 36.3542 65.2819 36.3791C65.2178 36.404 65.1858 36.5108 65.1858 36.6922C65.1858 36.8736 65.2178 36.9803 65.2819 37.0053C65.3459 37.0302 65.4313 37.0444 65.5345 37.0444Z" fill="#FFFA92" stroke="#0B454F" stroke-width="0.711491" stroke-miterlimit="10"/>
<path d="M89.25 20.453C90.2923 20.0866 91.1604 19.7558 91.8505 19.4534C92.5406 19.1546 93.0956 18.7704 93.5154 18.2972H90.0718V11.257H94.9633C95.0166 10.7341 95.0166 10.1471 94.9633 9.49609H105.529C105.554 9.80915 105.568 10.108 105.568 10.3961V11.257H108.581V18.3008H104.629C104.526 18.6138 104.408 18.9091 104.277 19.183C104.145 19.457 104.017 19.7238 103.885 19.9835C104.878 20.0084 105.821 20.0937 106.724 20.2396C107.624 20.3819 108.478 20.5989 109.286 20.8835V13.2919H111.751V9.84828H122.317V28.5142H111.751V23.5053H110.655L108.659 29.4143H122.317V33.4057C122.317 33.5623 121.872 33.8575 120.986 34.288C120.1 34.7184 118.659 35.1489 116.664 35.5793C114.668 36.0098 112.014 36.3051 108.699 36.4616V37.166C111.413 37.0343 113.643 36.8316 115.39 36.5576C117.137 36.2837 118.506 35.992 119.499 35.6789C120.492 35.3659 121.196 35.0848 121.612 34.8358C122.028 34.5868 122.277 34.4516 122.356 34.4267L122.434 34.505L123.451 42.3705C123.32 42.6587 122.779 42.9184 121.829 43.1532C120.876 43.3879 119.631 43.5907 118.09 43.7615C116.55 43.9322 114.842 44.0674 112.964 44.1706C111.086 44.2738 109.161 44.3271 107.19 44.3271C105.219 44.3271 103.309 44.2809 101.456 44.1884C99.6022 44.0959 97.9409 43.9465 96.4681 43.7366C94.9953 43.5267 93.8284 43.2528 92.9675 42.9148C92.1066 42.5768 91.6762 42.1713 91.6762 41.7017V35.0493H105.255V34.3449H91.6762V29.4143H107.799C107.329 29.1795 106.703 28.9198 105.92 28.6316C105.138 28.3435 104.298 28.0838 103.398 27.849C102.498 27.6142 101.63 27.4577 100.797 27.3794L101.893 23.0358C100.666 24.4694 99.1682 25.6718 97.393 26.6359C95.6178 27.6 93.5972 28.2545 91.3276 28.5925L89.2536 20.453H89.25Z" fill="#FFFA92" stroke="#0B454F" stroke-width="0.711491" stroke-miterlimit="10"/>
<path d="M145.287 17.752V34.2265C145.287 36.5496 144.401 38.4208 142.626 39.8438C140.851 41.2667 138.243 41.9782 134.8 41.9782C132.583 41.9782 130.698 41.6403 129.143 40.9608C127.592 40.2813 126.404 39.3635 125.582 38.2038C124.76 37.044 124.337 35.7456 124.309 34.3119V17.8694C124.309 16.4606 124.714 15.1764 125.522 14.0166C126.329 12.8569 127.517 11.9355 129.083 11.2596C130.648 10.5801 132.551 10.2422 134.796 10.2422C138.161 10.2422 140.726 10.9537 142.487 12.3731C144.248 13.7961 145.18 15.589 145.283 17.752H145.287ZM135.387 30.8221V21.3912C135.387 21.313 135.362 21.1956 135.308 21.0391C135.255 20.8825 135.088 20.8043 134.8 20.8043C134.54 20.8043 134.383 20.8825 134.33 21.0391C134.277 21.1956 134.252 21.313 134.252 21.3912V30.8221C134.252 30.8754 134.277 30.9786 134.33 31.1351C134.383 31.2916 134.54 31.3699 134.8 31.3699C135.088 31.3699 135.255 31.2916 135.308 31.1351C135.362 30.9786 135.387 30.8754 135.387 30.8221Z" fill="#FFFA92" stroke="#0B454F" stroke-width="0.711491" stroke-miterlimit="10"/>
<path d="M161.511 9.88281H150.789L146.52 26.9621H150.074L146.164 44.0379H156.886L160.799 26.9586H157.242L161.511 9.88281Z" fill="#FFFA92" stroke="#0B454F" stroke-width="0.711491" stroke-miterlimit="10"/>
<path d="M8.22266 24.4835C8.22266 24.4835 12.1181 31.2178 21.7766 31.2178V28.6457C21.7766 28.6457 15.213 27.3757 12.3671 18.1797" fill="#FFDD4D"/>
<path d="M8.22266 24.4835C8.22266 24.4835 12.1181 31.2178 21.7765 31.2178V28.6457C21.7765 28.6457 15.213 27.3757 12.3671 18.1797" stroke="#0B454F" stroke-width="0.889363" stroke-linecap="round" stroke-linejoin="round"/>
<path d="M11.9358 14.9289C11.9358 14.9289 11.9358 14.9217 11.9358 14.9182C9.56301 11.2256 10.7583 6.79297 8.45308 6.79297C6.45735 6.79297 4.63594 11.158 6.58542 13.7727H6.56052C3.43352 13.7727 2.57617 16.3092 2.57617 19.4362C2.57617 22.5632 3.43352 25.0996 6.56052 25.0996C9.68752 25.0996 13.8995 24.7581 13.8995 19.4362C13.8995 17.1167 13.0991 15.7435 11.9358 14.9324V14.9289Z" fill="#FFDD4D" stroke="#0B454F" stroke-width="0.889363" stroke-linecap="round" stroke-linejoin="round"/>
<path d="M5.7379 18.3056C8.21542 18.3056 10.2238 17.2911 10.2238 16.0395C10.2238 14.788 8.21542 13.7734 5.7379 13.7734C3.26038 13.7734 1.25195 14.788 1.25195 16.0395C1.25195 17.2911 3.26038 18.3056 5.7379 18.3056Z" fill="#FFDD4D" stroke="#0B454F" stroke-width="0.889363" stroke-linecap="round" stroke-linejoin="round"/>
<path d="M5.7379 25.1767C8.21542 25.1767 10.2238 24.1622 10.2238 22.9106C10.2238 21.6591 8.21542 20.6445 5.7379 20.6445C3.26038 20.6445 1.25195 21.6591 1.25195 22.9106C1.25195 24.1622 3.26038 25.1767 5.7379 25.1767Z" fill="#FFDD4D" stroke="#0B454F" stroke-width="0.889363" stroke-linecap="round" stroke-linejoin="round"/>
<path d="M4.93126 21.8642C7.40878 21.8642 9.41721 20.8497 9.41721 19.5981C9.41721 18.3466 7.40878 17.332 4.93126 17.332C2.45374 17.332 0.445312 18.3466 0.445312 19.5981C0.445312 20.8497 2.45374 21.8642 4.93126 21.8642Z" fill="#FFDD4D" stroke="#0B454F" stroke-width="0.889363" stroke-linecap="round" stroke-linejoin="round"/>
<path d="M8.24023 3.7075V0.445312" stroke="#0B454F" stroke-width="0.889363" stroke-linecap="round" stroke-linejoin="round"/>
<path d="M5.55691 4.47054L4.30469 1.46094" stroke="#0B454F" stroke-width="0.889363" stroke-linecap="round" stroke-linejoin="round"/>
<path d="M10.9219 4.47054L12.1741 1.46094" stroke="#0B454F" stroke-width="0.889363" stroke-linecap="round" stroke-linejoin="round"/>
<path d="M33.9312 49.5578C37.289 49.5578 40.0109 46.8358 40.0109 43.4781C40.0109 40.1204 37.289 37.3984 33.9312 37.3984C30.5735 37.3984 27.8516 40.1204 27.8516 43.4781C27.8516 46.8358 30.5735 49.5578 33.9312 49.5578Z" fill="#FFDD4D" stroke="#0B454F" stroke-width="0.889363" stroke-linecap="round" stroke-linejoin="round"/>
<path d="M34.3087 3.5625H33.5581C32.6641 3.5625 31.9395 4.28719 31.9395 5.18114V10.0122C31.9395 10.9061 32.6641 11.6308 33.5581 11.6308H34.3087C35.2027 11.6308 35.9274 10.9061 35.9274 10.0122V5.18114C35.9274 4.28719 35.2027 3.5625 34.3087 3.5625Z" fill="#FFDD4D" stroke="#0B454F" stroke-width="0.889363" stroke-linecap="round" stroke-linejoin="round"/>
<path d="M47.7843 27.439V22.4906C47.7843 14.9417 41.8647 8.56318 34.3193 8.35685C26.4894 8.1434 20.0789 14.4259 20.0789 22.2025V27.439C20.0789 31.587 19.0543 35.6674 17.0942 39.3245L14.8672 43.476H52.996L50.769 39.3245C48.8088 35.671 47.7843 31.587 47.7843 27.439Z" fill="#FFDD4D" stroke="#0B454F" stroke-width="0.889363" stroke-linecap="round" stroke-linejoin="round"/>
<path d="M29.457 27.2773C30.2432 28.9636 31.9508 30.134 33.9323 30.134C35.9138 30.134 37.6214 28.9636 38.4076 27.2773" stroke="#0B454F" stroke-width="0.889363" stroke-linecap="round" stroke-linejoin="round"/>
<path d="M29.8725 26.4102C29.9365 26.6556 29.7907 26.9971 29.4883 27.2426C29.1859 27.4881 28.8195 27.5628 28.5918 27.4489" stroke="#0B454F" stroke-width="0.889363" stroke-linecap="round" stroke-linejoin="round"/>
<path d="M37.9914 26.4102C37.9274 26.6556 38.0732 26.9971 38.3756 27.2426C38.678 27.4881 39.0444 27.5628 39.2721 27.4489" stroke="#0B454F" stroke-width="0.889363" stroke-linecap="round" stroke-linejoin="round"/>
<path d="M33.9313 26.965C35.1102 26.965 36.0658 26.1893 36.0658 25.2325C36.0658 24.2757 35.1102 23.5 33.9313 23.5C32.7525 23.5 31.7969 24.2757 31.7969 25.2325C31.7969 26.1893 32.7525 26.965 33.9313 26.965Z" fill="#FF6A87" stroke="#0B454F" stroke-width="0.889363" stroke-linecap="round" stroke-linejoin="round"/>
<path d="M30.6339 23.2634C30.8697 23.2634 31.0608 22.5626 31.0608 21.6981C31.0608 20.8336 30.8697 20.1328 30.6339 20.1328C30.3982 20.1328 30.207 20.8336 30.207 21.6981C30.207 22.5626 30.3982 23.2634 30.6339 23.2634Z" fill="#0B454F" stroke="#0B454F" stroke-width="0.889363" stroke-linecap="round" stroke-linejoin="round"/>
<path d="M37.2335 23.2634C37.4693 23.2634 37.6604 22.5626 37.6604 21.6981C37.6604 20.8336 37.4693 20.1328 37.2335 20.1328C36.9978 20.1328 36.8066 20.8336 36.8066 21.6981C36.8066 22.5626 36.9978 23.2634 37.2335 23.2634Z" fill="#0B454F" stroke="#0B454F" stroke-width="0.889363" stroke-linecap="round" stroke-linejoin="round"/>
<path opacity="0.9" d="M42.8457 17.043C43.1125 17.5126 43.358 18.0213 43.5679 18.5762" stroke="white" stroke-width="0.889363" stroke-miterlimit="10" stroke-linecap="round"/>
<path opacity="0.9" d="M36.8066 12.125C36.8066 12.125 39.336 12.8045 41.4705 15.1524" stroke="white" stroke-width="0.889363" stroke-miterlimit="10" stroke-linecap="round"/>
</g>
<defs>
<clipPath id="clip0_184_29172">
<rect width="162.807" height="50" fill="white"/>
</clipPath>
</defs>
</svg>
