<svg width="290" height="189" viewBox="0 0 290 189" fill="none" xmlns="http://www.w3.org/2000/svg">
<g clip-path="url(#clip0_1412_2001)">
<path d="M8.43964 174.117H0.487122L10.4978 103.154H18.4503L8.43964 174.117Z" fill="black" stroke="#CAD833" stroke-width="0.8" stroke-linecap="round" stroke-linejoin="round"/>
<path d="M178.548 174.117H186.513L176.502 103.154H168.55L178.548 174.117Z" fill="black" stroke="#CAD833" stroke-width="0.8" stroke-linecap="round" stroke-linejoin="round"/>
<path d="M184.966 101.448H2.02161V110.561H184.966V101.448Z" fill="black" stroke="#CAD833" stroke-width="0.8" stroke-linecap="round" stroke-linejoin="round"/>
<path d="M115.123 85.3792L113.808 79.7509C113.808 79.7509 114.258 74.7439 114.112 72.7947C113.929 70.541 113.101 67.9705 110.349 67.3857C110.349 67.3857 107.511 66.8497 107.743 67.7634C107.743 67.7634 105.904 67.7147 106.269 68.7867C106.269 68.7867 105.258 69.9075 105.77 70.5897L106.744 71.674C106.744 71.674 104.929 71.0892 105.1 71.8323C105.1 71.8323 105.051 72.7338 105.977 73.5257C105.977 73.5257 107.085 74.5247 107.207 74.9267C107.207 74.9267 105.38 79.2149 108.132 81.7489L108.412 88.4249" fill="black"/>
<path d="M115.123 85.3792L113.808 79.7509C113.808 79.7509 114.258 74.7439 114.112 72.7947C113.929 70.541 113.101 67.9705 110.349 67.3857C110.349 67.3857 107.511 66.8497 107.743 67.7634C107.743 67.7634 105.904 67.7147 106.269 68.7867C106.269 68.7867 105.258 69.9075 105.77 70.5897L106.744 71.674C106.744 71.674 104.929 71.0892 105.1 71.8323C105.1 71.8323 105.051 72.7338 105.977 73.5257C105.977 73.5257 107.085 74.5247 107.207 74.9267C107.207 74.9267 105.38 79.2149 108.132 81.7489L108.412 88.4249" stroke="#CAD833" stroke-width="0.8" stroke-linecap="round" stroke-linejoin="round"/>
<path d="M107.743 67.7637C107.743 67.7637 111.311 68.4581 111.725 71.3575L107.743 67.7637Z" fill="black"/>
<path d="M107.743 67.7637C107.743 67.7637 111.311 68.4581 111.725 71.3575" stroke="#CAD833" stroke-width="0.8" stroke-linecap="round" stroke-linejoin="round"/>
<path d="M106.269 68.7871C106.269 68.7871 109.923 70.785 110.239 72.8073L106.269 68.7871Z" fill="black"/>
<path d="M106.269 68.7871C106.269 68.7871 109.923 70.785 110.239 72.8073" stroke="#CAD833" stroke-width="0.8" stroke-linecap="round" stroke-linejoin="round"/>
<path d="M106.744 71.6748C106.744 71.6748 107.986 72.5885 108.023 73.3073L106.744 71.6748Z" fill="black"/>
<path d="M106.744 71.6748C106.744 71.6748 107.986 72.5885 108.023 73.3073" stroke="#CAD833" stroke-width="0.8" stroke-linecap="round" stroke-linejoin="round"/>
<path d="M128.604 161.008C128.994 160.119 129.165 159.51 129.165 159.51C129.165 158.06 131.819 158.401 131.819 158.401C133.33 158.438 133.013 159.68 132.794 160.204C130.748 161.301 129.433 161.301 128.604 161.008Z" fill="black" stroke="#CAD833" stroke-width="0.8" stroke-linecap="round" stroke-linejoin="round"/>
<path d="M131.795 162.739L139.455 161.216L136.143 145.61L128.483 147.121L131.795 162.739Z" fill="black" stroke="#CAD833" stroke-width="0.8" stroke-linecap="round" stroke-linejoin="round"/>
<path d="M136.289 165.333C137.957 163.482 140.856 161.813 142.208 161.094C142.902 163.226 143.304 165.248 143.304 165.248L131.198 171.01C122.856 174.75 122.381 172.679 122.381 172.679C121.858 171.887 121.419 170.779 121.322 170.182C123.355 169.39 125.572 169.926 125.572 169.926C129.981 171.132 136.289 165.333 136.289 165.333Z" fill="black" stroke="#CAD833" stroke-width="0.8" stroke-linecap="round" stroke-linejoin="round"/>
<path d="M125.231 165.821C126.717 164.298 128.385 162.154 128.86 160.875C128.811 161.021 131.32 160.302 131.357 160.266C132.27 159.315 132.197 158.743 133.573 157.988C135.327 157.013 137.141 156.367 138.81 156.477L140.357 157.951C139.553 158.828 138.652 160.436 139.127 162.97C138.104 163.677 137.056 164.493 136.289 165.346C136.289 165.346 131.759 169.561 127.581 170.048C126.364 167.794 126.047 166.381 125.231 165.833V165.821Z" fill="black" stroke="#CAD833" stroke-width="0.8" stroke-linecap="round" stroke-linejoin="round"/>
<path d="M121.322 170.182C120.956 167.66 124.5 166.503 124.5 166.503C124.756 166.283 125 166.052 125.231 165.82C126.047 166.369 127.569 168.196 127.581 170.035C125.584 170.267 123.38 170.766 121.322 170.182Z" fill="black" stroke="#CAD833" stroke-width="0.8" stroke-linecap="round" stroke-linejoin="round"/>
<path d="M128.19 161.191C128.19 161.191 125.864 158.718 124.634 160.668C124.634 160.668 124.573 162.873 128.604 161.009" fill="black"/>
<path d="M128.19 161.191C128.19 161.191 125.864 158.718 124.634 160.668C124.634 160.668 124.573 162.873 128.604 161.009" stroke="#CAD833" stroke-width="0.8" stroke-linecap="round" stroke-linejoin="round"/>
<path d="M124.5 163.372L128.154 161.605" stroke="#CAD833" stroke-width="0.8" stroke-linecap="round" stroke-linejoin="round"/>
<path d="M140.357 157.939L140.71 158.378C141.465 159.291 141.928 160.229 142.208 161.094C141.489 161.484 138.542 163.506 137.361 164.31C136.874 161.776 137.215 158.682 140.357 157.927V157.939Z" fill="black" stroke="#CAD833" stroke-width="0.8" stroke-linecap="round" stroke-linejoin="round"/>
<path d="M105.234 162.312C105.94 161.618 106.33 161.119 106.33 161.119C106.89 159.778 109.216 161.033 109.216 161.033C110.605 161.618 109.837 162.641 109.436 163.068C107.122 163.36 105.892 162.885 105.234 162.312Z" fill="black" stroke="#CAD833" stroke-width="0.8" stroke-linecap="round" stroke-linejoin="round"/>
<path d="M108.656 164.493L116.414 165.431L115.659 149.764L107.901 148.826L108.656 164.493Z" fill="black" stroke="#CAD833" stroke-width="0.8" stroke-linecap="round" stroke-linejoin="round"/>
<path d="M110.714 169.086C112.979 167.965 116.292 167.453 117.839 167.271C117.656 169.5 117.266 171.522 117.266 171.522L103.809 172.546C94.6265 173.033 94.9797 170.937 94.9797 170.937C94.797 170.012 94.8092 168.818 94.9553 168.233C97.1474 168.233 98.9986 169.512 98.9986 169.512C102.628 172.217 110.714 169.086 110.714 169.086Z" fill="black" stroke="#CAD833" stroke-width="0.8" stroke-linecap="round" stroke-linejoin="round"/>
<path d="M100.253 165.577C102.226 164.687 104.588 163.299 105.514 162.275C105.404 162.397 108.023 162.616 108.071 162.604C109.277 162.044 109.435 161.496 111.006 161.276C113.004 160.996 114.94 161.033 116.45 161.739L117.327 163.664C116.243 164.2 114.794 165.37 114.27 167.879C113.052 168.172 111.774 168.549 110.714 169.073C110.714 169.073 104.893 171.363 100.825 170.328C100.557 167.806 100.801 166.369 100.265 165.565L100.253 165.577Z" fill="black" stroke="#CAD833" stroke-width="0.8" stroke-linecap="round" stroke-linejoin="round"/>
<path d="M94.9553 168.232C95.5764 165.759 99.3152 165.954 99.3152 165.954C99.644 165.845 99.9607 165.723 100.253 165.589C100.801 166.393 101.507 168.634 100.813 170.352C98.8646 169.853 96.6359 169.536 94.9431 168.245L94.9553 168.232Z" fill="black" stroke="#CAD833" stroke-width="0.8" stroke-linecap="round" stroke-linejoin="round"/>
<path d="M104.771 162.337C104.771 162.337 103.553 159.194 101.666 160.57C101.666 160.57 100.764 162.581 105.222 162.3" fill="black"/>
<path d="M104.771 162.337C104.771 162.337 103.553 159.194 101.666 160.57C101.666 160.57 100.764 162.581 105.222 162.3" stroke="#CAD833" stroke-width="0.8" stroke-linecap="round" stroke-linejoin="round"/>
<path d="M100.509 163.043L104.576 162.714" stroke="#CAD833" stroke-width="0.8" stroke-linecap="round" stroke-linejoin="round"/>
<path d="M117.315 163.677L117.473 164.213C117.826 165.334 117.9 166.369 117.826 167.271C116.998 167.368 113.503 168.196 112.09 168.525C112.614 166.004 114.1 163.25 117.315 163.677Z" fill="black" stroke="#CAD833" stroke-width="0.8" stroke-linecap="round" stroke-linejoin="round"/>
<path d="M134.377 129.42C137.3 142.26 139.407 154.284 139.407 154.284L128.166 156.233L121.249 125.753" fill="black"/>
<path d="M134.377 129.42C137.3 142.26 139.407 154.284 139.407 154.284L128.166 156.233L121.249 125.753" stroke="#CAD833" stroke-width="0.8" stroke-linecap="round" stroke-linejoin="round"/>
<path d="M128.641 152.749L138.469 150.812" stroke="#CAD833" stroke-width="0.8" stroke-linecap="round" stroke-linejoin="round"/>
<path d="M151.451 176.383C151.451 176.383 151.524 176.383 151.561 176.383C152.413 176.322 153.059 175.579 152.998 174.726L151.098 147.985C150.733 135.498 146.007 133.245 145.472 133.025C144.68 132.708 143.767 133.098 143.45 133.89C143.133 134.67 143.499 135.547 144.266 135.888C144.424 135.973 147.7 137.947 148.005 148.144L149.904 174.945C149.965 175.761 150.647 176.395 151.451 176.395V176.383Z" fill="black" stroke="#CAD833" stroke-width="0.8" stroke-linecap="round" stroke-linejoin="round"/>
<path d="M138.067 178.759C138.067 178.759 137.994 178.759 137.957 178.759C137.105 178.698 136.459 177.955 136.52 177.102L138.42 150.361C138.786 137.874 143.511 135.62 144.047 135.401C144.838 135.084 145.739 135.474 146.068 136.266C146.385 137.046 146.02 137.923 145.264 138.264C145.106 138.362 141.83 140.323 141.526 150.52L139.626 177.321C139.565 178.137 138.883 178.759 138.079 178.759H138.067Z" fill="black" stroke="#CAD833" stroke-width="0.8" stroke-linecap="round" stroke-linejoin="round"/>
<path d="M119.385 175.457C119.324 175.457 119.264 175.457 119.203 175.457C118.35 175.347 117.741 174.579 117.851 173.727L121.468 144.062C122.722 131.478 127.216 130.101 128.093 129.955L128.604 133.013C128.604 133.013 128.641 133.013 128.714 132.989C128.677 132.989 125.584 134.121 124.549 144.403L120.932 174.104C120.835 174.896 120.165 175.469 119.385 175.469V175.457Z" fill="black" stroke="#CAD833" stroke-width="0.8" stroke-linecap="round" stroke-linejoin="round"/>
<path d="M171.399 176.383C171.46 176.383 171.521 176.383 171.594 176.371C172.447 176.273 173.056 175.494 172.946 174.641L169.329 144.976C168.075 132.392 163.581 131.015 162.704 130.869L162.192 133.927C162.192 133.927 162.156 133.927 162.083 133.903C162.119 133.903 165.213 135.036 166.248 145.318L169.877 175.018C169.975 175.81 170.644 176.383 171.412 176.383H171.399Z" fill="black" stroke="#CAD833" stroke-width="0.8" stroke-linecap="round" stroke-linejoin="round"/>
<path d="M170.316 132.502C170.316 136.912 159.818 140.482 146.86 140.482C133.902 140.482 123.404 136.912 123.404 132.502C123.404 128.092 133.902 124.522 146.86 124.522C159.818 124.522 170.316 128.092 170.316 132.502Z" fill="black" stroke="#CAD833" stroke-width="0.8" stroke-linecap="round" stroke-linejoin="round"/>
<path d="M144.327 138.044C144.327 138.044 152.084 138.398 155.665 137.24L144.327 138.044Z" fill="black"/>
<path d="M144.327 138.044C144.327 138.044 152.084 138.398 155.665 137.24" stroke="#CAD833" stroke-width="0.8" stroke-linecap="round" stroke-linejoin="round"/>
<path d="M156.493 127.799C156.42 128.067 156.347 128.323 156.262 128.554C155.129 132.087 152.876 134.731 149.174 135.62C147.152 136.108 145.143 135.949 143.097 135.84C137.507 135.535 122.199 134.292 116.596 134.085C115.172 134.037 113.734 133.976 112.31 133.915C108.595 133.769 105.648 130.808 105.77 126.094C105.892 121.379 108.997 117.675 112.724 117.834L138.505 117.761C138.505 117.761 143.62 118.492 144.716 118.455C147.335 118.37 152.632 113.071 154.618 115.446C156.554 117.749 157.272 124.985 156.493 127.811V127.799Z" fill="black" stroke="#CAD833" stroke-width="0.8" stroke-linecap="round" stroke-linejoin="round"/>
<path d="M117.741 132.185C118.241 145.342 117.924 159.035 117.924 159.035L106.841 158.755L105.892 125.716" fill="black"/>
<path d="M117.741 132.185C118.241 145.342 117.924 159.035 117.924 159.035L106.841 158.755L105.892 125.716" stroke="#CAD833" stroke-width="0.8" stroke-linecap="round" stroke-linejoin="round"/>
<path d="M107.523 155.782L117.12 155.941" stroke="#CAD833" stroke-width="0.8" stroke-linecap="round" stroke-linejoin="round"/>
<path d="M153.534 75.0251C152.011 74.9033 149.259 71.4434 148.845 70.9927C148.638 70.7734 146.884 60.9178 146.787 60.333C146.787 60.333 140.819 62.0386 140.807 62.0264C137.47 60.4183 139.309 70.7734 139.358 71.2607C139.748 74.9154 138.152 74.3672 136.886 75.2687C136.886 78.3996 138.067 79.7153 140.99 79.691C143.608 79.6666 145.825 77.8392 147.237 76.9377C149.405 75.5367 153.521 75.0129 153.521 75.0129L153.534 75.0251Z" fill="black" stroke="#CAD833" stroke-width="0.8" stroke-linecap="round" stroke-linejoin="round"/>
<path d="M131.32 55.6301C129.761 61.6482 132.916 67.6663 138.359 69.0795C143.815 70.4927 149.49 66.7648 151.049 60.7467C152.608 54.7286 149.454 48.7104 144.01 47.2972C138.554 45.8841 132.879 49.6119 131.32 55.6301Z" fill="black" stroke="#CAD833" stroke-width="0.8" stroke-linecap="round" stroke-linejoin="round"/>
<path d="M133.658 52.6941C131.99 51.3174 132.392 49.4048 134.523 47.3947C138.725 43.4597 148.358 44.5684 152.036 51.2565C153.29 53.5347 153.046 55.7031 153.034 60.0036C153.022 63.6461 149.783 67.6298 147.591 68.1171C144.741 68.7628 139.09 65.9608 138.883 61.6482C138.786 59.7599 138.907 57.6889 138.006 55.959C137.081 54.1925 135.083 53.8758 133.646 52.6819L133.658 52.6941Z" fill="black" stroke="#CAD833" stroke-width="0.8" stroke-linecap="round" stroke-linejoin="round"/>
<path d="M136.971 63.1463C138.286 63.4874 139.638 62.6956 139.991 61.3677C140.332 60.052 139.541 58.6997 138.213 58.3586L137.689 58.2246" fill="black"/>
<path d="M136.971 63.1463C138.286 63.4874 139.638 62.6956 139.991 61.3677C140.332 60.052 139.541 58.6997 138.213 58.3586L137.689 58.2246" stroke="#CAD833" stroke-width="0.8" stroke-linecap="round" stroke-linejoin="round"/>
<path d="M138.347 60.9541L137.373 60.6982" stroke="#CAD833" stroke-width="0.8" stroke-linecap="round" stroke-linejoin="round"/>
<path d="M126.364 91.9342C126.4 89.8266 127.131 85.7089 127.691 82.31L133.841 75.9995C137.848 74.1356 141.599 72.5031 145.971 72.5518C149.868 72.6006 152.888 72.7711 155.774 76.3406C158.624 79.8735 159.184 84.1617 159.416 88.6693C159.745 94.7361 156.846 117.871 156.846 117.871C152.681 119.832 142.829 122.719 131.077 118.066C131.077 118.066 130.918 104.531 129.749 102.533C127.922 99.4264 126.29 95.5767 126.351 91.922L126.364 91.9342Z" fill="black" stroke="#CAD833" stroke-width="0.8" stroke-linecap="round" stroke-linejoin="round"/>
<path d="M123.1 104.932C119.738 108.953 116.036 108.977 113.978 108.27C111.774 107.515 110.337 105.115 109.655 103.056C109.655 103.056 106.988 88.8758 106.988 88.8636C106.902 88.4129 106.586 87.9256 106.513 87.4261C106.257 85.7084 108.254 84.9165 109.606 84.2465C111.457 83.3084 113.722 82.5896 115.805 83.0404C116.134 83.1135 116.56 84.015 116.633 84.2952C116.73 84.6728 116.706 85.1114 116.73 85.5012L121.48 95.5762L123.246 103.056" fill="black"/>
<path d="M123.1 104.932C119.738 108.953 116.036 108.977 113.978 108.27C111.774 107.515 110.337 105.115 109.655 103.056C109.655 103.056 106.988 88.8758 106.988 88.8636C106.902 88.4129 106.586 87.9256 106.513 87.4261C106.257 85.7084 108.254 84.9165 109.606 84.2465C111.457 83.3084 113.722 82.5896 115.805 83.0404C116.134 83.1135 116.56 84.015 116.633 84.2952C116.73 84.6728 116.706 85.1114 116.73 85.5012L121.48 95.5762L123.246 103.056" stroke="#CAD833" stroke-width="0.8" stroke-linecap="round" stroke-linejoin="round"/>
<path d="M139.48 74.3914C135.412 73.4534 132.404 73.5874 129.359 75.2807C124.598 77.9365 116.669 96.6853 116.669 96.6853L122.82 105.286C122.82 105.286 131.661 94.0417 135.047 88.6815" fill="black"/>
<path d="M122.369 105.737C130.041 96.3687 131.259 94.5657 135.4 88.8643L122.369 105.737Z" fill="black"/>
<path d="M122.369 105.737C130.041 96.3687 131.259 94.5657 135.4 88.8643" stroke="#CAD833" stroke-width="0.8" stroke-linecap="round" stroke-linejoin="round"/>
<path d="M139.48 74.3914C135.412 73.4534 132.404 73.5874 129.359 75.2807C124.598 77.9365 116.669 96.6853 116.669 96.6853" fill="black"/>
<path d="M139.48 74.3914C135.412 73.4534 132.404 73.5874 129.359 75.2807C124.598 77.9365 116.669 96.6853 116.669 96.6853" stroke="#CAD833" stroke-width="0.8" stroke-linecap="round" stroke-linejoin="round"/>
<path d="M148.394 51.4641C148.553 48.7961 150.562 47.1271 152.486 47.3464C155.36 47.6754 157.272 49.3809 158.137 52.2194C158.904 54.7168 158.953 57.4213 159.063 60.0162C159.063 60.0284 159.635 74.0017 164.092 75.4636C164.092 75.4636 152.693 77.8635 152.462 63.1958C152.535 61.3441 152.486 59.4924 152.365 57.6528C152.267 56.13 152.559 54.193 151.731 52.8285C150.428 50.6966 148.394 51.5372 148.394 51.4885V51.4641Z" fill="black" stroke="#CAD833" stroke-width="0.8" stroke-linecap="round" stroke-linejoin="round"/>
<path d="M135.619 73.6356C135.619 73.6356 137.763 72.6244 140.198 72.1737C143.438 71.5767 146.823 71.2843 150.111 71.5402C153.57 71.8082 157.297 72.064 159.44 75C162.132 78.7035 160.134 84.0028 156.103 85.8546C150.428 88.4616 144.095 84.6485 141.221 78.8253C141.221 78.8253 138.822 74.7076 135.619 73.6356Z" fill="black" stroke="#CAD833" stroke-width="0.8" stroke-linecap="round" stroke-linejoin="round"/>
<path d="M139.638 72.6C139.638 72.6 147.834 77.1197 153.217 75.6091C154.033 75.3776 155.628 74.7929 155.738 73.9035C156.103 70.5777 145.593 71.3574 143.864 71.5401C143.048 71.6254 142.244 71.7472 141.453 71.9665C141.221 72.0274 139.796 72.6853 139.65 72.6H139.638Z" fill="black" stroke="#CAD833" stroke-width="0.8" stroke-linecap="round" stroke-linejoin="round"/>
<path d="M142.354 75.7676C142.354 75.7676 146.628 79.4101 151.536 79.2518L142.354 75.7676Z" fill="black"/>
<path d="M142.354 75.7676C142.354 75.7676 146.628 79.4101 151.536 79.2518" stroke="#CAD833" stroke-width="0.8" stroke-linecap="round" stroke-linejoin="round"/>
<path d="M165.03 135.974C164.933 135.974 164.847 135.974 164.762 135.949C163.922 135.791 163.349 134.938 163.496 134.037L166.808 105.785C166.954 104.884 167.77 104.287 168.611 104.445C169.451 104.604 170.023 105.457 169.865 106.358L166.552 134.609C166.418 135.413 165.761 135.974 165.03 135.974Z" fill="black" stroke="#CAD833" stroke-width="0.8" stroke-linecap="round" stroke-linejoin="round"/>
<path d="M139.687 137.679C139.601 137.679 139.504 137.679 139.419 137.655C138.579 137.484 138.006 136.558 138.164 135.596L141.721 105.797C141.867 104.823 142.683 104.177 143.523 104.348C144.363 104.518 144.936 105.444 144.777 106.406L141.221 136.205C141.087 137.07 140.43 137.679 139.699 137.679H139.687Z" fill="black" stroke="#CAD833" stroke-width="0.8" stroke-linecap="round" stroke-linejoin="round"/>
<path d="M165.091 85.9766H145.435C140.579 85.9766 136.642 89.9146 136.642 94.7723V101.57C136.642 106.428 140.579 110.366 145.435 110.366H165.091C169.947 110.366 173.884 106.428 173.884 101.57V94.7723C173.884 89.9146 169.947 85.9766 165.091 85.9766Z" fill="black" stroke="#CAD833" stroke-width="0.8" stroke-linecap="round" stroke-linejoin="round"/>
<path d="M167.795 89.8389C167.795 89.8389 170.474 91.447 170.644 94.9311L167.795 89.8389Z" fill="black"/>
<path d="M167.795 89.8389C167.795 89.8389 170.474 91.447 170.644 94.9311" stroke="#CAD833" stroke-width="0.8" stroke-linecap="round" stroke-linejoin="round"/>
<path d="M61.489 161.812C61.489 161.812 60.7461 158.779 63.401 159.412C64.5336 159.68 66.0193 160.058 66.6039 160.411C67.3833 160.886 67.1519 161.617 67.0667 162.287C67.0423 162.482 66.9205 163.7 66.9327 163.871" fill="black"/>
<path d="M61.489 161.812C61.489 161.812 60.7461 158.779 63.401 159.412C64.5336 159.68 66.0193 160.058 66.6039 160.411C67.3833 160.886 67.1519 161.617 67.0667 162.287C67.0423 162.482 66.9205 163.7 66.9327 163.871" stroke="#CAD833" stroke-width="0.8" stroke-linecap="round" stroke-linejoin="round"/>
<path d="M65.045 151.798L56.5201 151.043L56.3862 160.594L60.7948 165.162L66.8596 163.627L64.1438 160.947L65.045 151.798Z" fill="black" stroke="#CAD833" stroke-width="0.8" stroke-linecap="round" stroke-linejoin="round"/>
<path d="M55.1684 168.208C55.1684 168.208 54.4864 169.414 55.2049 170.279C56.6298 170.413 59.0046 170.681 60.4051 170.974C65.8123 172.095 71.0734 175.737 76.3954 172.509C76.3954 172.509 77.4671 170.84 76.2371 169.146L66.1898 166.807L60.5147 164.273L55.1805 168.208H55.1684Z" fill="black" stroke="#CAD833" stroke-width="0.8" stroke-linecap="round" stroke-linejoin="round"/>
<path d="M73.095 163.896C71.2561 162.726 69.1979 163.372 67.1763 162.909C66.543 162.775 65.52 162.105 65.52 162.105L64.0586 162.994C62.6459 162.348 61.3063 161.544 59.8449 161.045C58.5053 160.582 57.1778 160.57 55.7651 160.533C54.9248 164.334 55.4606 168.099 55.4606 168.099C55.5946 168.22 57.0926 168.184 57.7015 168.257C60.9897 168.683 62.9626 169.682 65.7149 170.364C68.5038 171.059 70.5254 171.912 73.3873 171.303C73.8866 171.193 76.0909 170.474 76.0788 169.743C76.0422 167.294 75.2141 165.223 73.1072 163.896H73.095Z" fill="black" stroke="#CAD833" stroke-width="0.8" stroke-linecap="round" stroke-linejoin="round"/>
<path d="M81.6321 164.773C81.6321 164.773 80.6822 161.801 83.3858 162.264C84.5306 162.459 86.0285 162.739 86.6496 163.056C87.4656 163.482 87.2829 164.225 87.222 164.895C87.2098 165.09 87.1733 166.321 87.1976 166.491" fill="black"/>
<path d="M81.6321 164.773C81.6321 164.773 80.6822 161.801 83.3858 162.264C84.5306 162.459 86.0285 162.739 86.6496 163.056C87.4656 163.482 87.2829 164.225 87.222 164.895C87.2098 165.09 87.1733 166.321 87.1976 166.491" stroke="#CAD833" stroke-width="0.8" stroke-linecap="round" stroke-linejoin="round"/>
<path d="M84.5306 154.551L75.9691 154.356L76.4684 163.895L81.1571 168.159L87.1002 166.247L84.2261 163.737L84.5306 154.551Z" fill="black" stroke="#CAD833" stroke-width="0.8" stroke-linecap="round" stroke-linejoin="round"/>
<path d="M75.7377 171.571C75.7377 171.571 75.1288 172.814 75.9083 173.63C77.3331 173.666 79.7201 173.788 81.1328 173.995C86.6009 174.763 92.0812 178.064 97.184 174.483C97.184 174.483 98.1461 172.753 96.8065 171.132L86.6253 169.451L80.804 167.295L75.7377 171.559V171.571Z" fill="black" stroke="#CAD833" stroke-width="0.8" stroke-linecap="round" stroke-linejoin="round"/>
<path d="M93.3478 166.101C91.4357 165.053 89.4263 165.82 87.3803 165.504C86.747 165.406 85.6753 164.809 85.6753 164.809L84.2748 165.796C82.8256 165.248 81.4372 164.529 79.9393 164.115C78.5631 163.737 77.2357 163.822 75.8352 163.871C75.2506 167.721 76.0178 171.437 76.0178 171.437C76.164 171.558 77.6497 171.412 78.2587 171.449C81.559 171.656 83.605 172.533 86.3939 173.032C89.2193 173.544 91.3018 174.275 94.1028 173.471C94.6021 173.325 96.7455 172.472 96.6968 171.741C96.502 169.305 95.5399 167.294 93.3599 166.101H93.3478Z" fill="black" stroke="#CAD833" stroke-width="0.8" stroke-linecap="round" stroke-linejoin="round"/>
<path d="M97.1109 63.5971C97.8538 63.6093 98.8159 65.5951 98.4384 66.5697L91.1557 85.5743C90.8999 86.22 90.1083 86.7439 89.3654 86.7317L59.577 86.22C58.8341 86.2078 57.6406 84.551 57.8841 83.8931L65.9706 66.0093C66.2142 65.3636 67.018 64.8398 67.7609 64.8519L97.1231 63.585L97.1109 63.5971Z" fill="black" stroke="#CAD833" stroke-width="0.8" stroke-linecap="round" stroke-linejoin="round"/>
<path d="M96.7333 63.5368C97.4762 63.5368 97.8781 64.085 97.6224 64.7306L90.3397 83.7353C90.0961 84.3932 89.2923 84.9048 88.5494 84.8926L58.7488 84.381C58.0059 84.3688 57.604 83.8328 57.8598 83.1749L65.1425 64.1702C65.3982 63.5246 66.1898 63.0007 66.9327 63.0129L96.7333 63.5246V63.5368Z" fill="black" stroke="#CAD833" stroke-width="0.8" stroke-linecap="round" stroke-linejoin="round"/>
<path d="M93.0677 65.5224C93.6644 65.5224 93.9811 65.961 93.7862 66.4848L87.9284 81.7616C87.7213 82.2855 87.0759 82.6997 86.4791 82.6875L62.5241 82.2855C61.9274 82.2733 61.6108 81.8469 61.8056 81.3231L67.6634 66.0462C67.8583 65.5224 68.5038 65.1082 69.1005 65.1204L93.0555 65.5224H93.0677Z" fill="black" stroke="#CAD833" stroke-width="0.8" stroke-linecap="round" stroke-linejoin="round"/>
<path d="M58.7853 77.8262C58.7853 77.8262 60.6608 74.2933 62.0735 72.5512C63.2914 71.0528 65.6174 69.664 68.1871 68.6163C69.2466 68.1899 70.5254 67.6539 71.4266 67.532C72.5104 67.3737 72.9854 67.666 73.0219 68.397C73.0585 68.9939 71.8285 69.932 69.9773 70.7604C69.137 71.138 68.2236 71.3817 67.4929 72.0152C67.4929 72.0152 70.0504 73.7329 68.3211 74.8903C68.3211 74.8903 69.3075 74.6588 69.4902 75.1704C69.8677 76.2791 69.4537 75.743 69.4537 75.743C72.2669 75.8648 70.8298 79.6414 67.8461 79.3247L69.0639 77.5217C69.0639 77.5217 66.9693 82.3216 62.8895 83.6982" fill="black"/>
<path d="M58.7853 77.8262C58.7853 77.8262 60.6608 74.2933 62.0735 72.5512C63.2914 71.0528 65.6174 69.664 68.1871 68.6163C69.2466 68.1899 70.5254 67.6539 71.4266 67.532C72.5104 67.3737 72.9854 67.666 73.0219 68.397C73.0585 68.9939 71.8285 69.932 69.9773 70.7604C69.137 71.138 68.2236 71.3817 67.4929 72.0152C67.4929 72.0152 70.0504 73.7329 68.3211 74.8903C68.3211 74.8903 69.3075 74.6588 69.4902 75.1704C69.8677 76.2791 69.4537 75.743 69.4537 75.743C72.2669 75.8648 70.8298 79.6414 67.8461 79.3247L69.0639 77.5217C69.0639 77.5217 66.9693 82.3216 62.8895 83.6982" stroke="#CAD833" stroke-width="0.8" stroke-linecap="round" stroke-linejoin="round"/>
<path d="M70.0261 79.2153C69.064 79.7513 68.0288 79.7391 67.7365 79.2031C67.432 78.6549 67.9679 77.7777 68.9422 77.2539C69.9043 76.7179 70.9394 76.7301 71.2317 77.2783C71.5362 77.8143 71.0003 78.6914 70.0261 79.2275V79.2153Z" fill="black" stroke="#CAD833" stroke-width="0.8" stroke-linecap="round" stroke-linejoin="round"/>
<path d="M69.137 77.7168C67.9679 78.3503 66.7135 78.3259 66.336 77.6802C65.9585 77.0346 66.6161 75.9869 67.7852 75.3656C68.9665 74.7321 70.2209 74.7443 70.5863 75.4021C70.9638 76.0478 70.3183 77.0833 69.137 77.7168Z" fill="black" stroke="#CAD833" stroke-width="0.8" stroke-linecap="round" stroke-linejoin="round"/>
<path d="M68.2724 75.6342C67.1032 76.2677 65.8488 76.2555 65.4713 75.5976C65.0938 74.952 65.7514 73.9043 66.9205 73.283C68.0897 72.6495 69.3562 72.6738 69.7216 73.3195C70.0991 73.9652 69.4537 75.0129 68.2724 75.6342Z" fill="black" stroke="#CAD833" stroke-width="0.8" stroke-linecap="round" stroke-linejoin="round"/>
<path d="M62.8164 73.6232C63.3766 73.1359 63.9125 72.7461 64.6797 72.271C65.3982 71.8324 66.5552 71.6862 67.3224 72.0882C69.4658 73.209 69.0761 74.2323 67.9435 74.4151L66.0437 74.1349C66.1168 73.9643 66.2751 75.8648 64.0343 77.0465" fill="black"/>
<path d="M62.8164 73.6232C63.3766 73.1359 63.9125 72.7461 64.6797 72.271C65.3982 71.8324 66.5552 71.6862 67.3224 72.0882C69.4658 73.209 69.0761 74.2323 67.9435 74.4151L66.0437 74.1349C66.1168 73.9643 66.2751 75.8648 64.0343 77.0465" stroke="#CAD833" stroke-width="0.8" stroke-linecap="round" stroke-linejoin="round"/>
<path d="M36.0604 98.963C38.4595 101.948 41.2118 102.947 43.4892 102.849C45.9371 102.752 48.9573 101.119 50.9546 98.5244L63.9125 83.9298C63.9125 83.9298 61.562 77.7898 57.0195 77.4365L41.0901 89.6312L39.0197 95.4788" fill="black"/>
<path d="M36.0604 98.963C38.4595 101.948 41.2118 102.947 43.4892 102.849C45.9371 102.752 48.9573 101.119 50.9546 98.5244L63.9125 83.9298C63.9125 83.9298 61.562 77.7898 57.0195 77.4365L41.0901 89.6312L39.0197 95.4788" stroke="#CAD833" stroke-width="0.8" stroke-linecap="round" stroke-linejoin="round"/>
<path d="M55.1806 133.049C54.6447 146.596 54.9126 159.169 54.9126 159.169L68.8691 158.913L70.0991 126.751" fill="black"/>
<path d="M55.1806 133.049C54.6447 146.596 54.9126 159.169 54.9126 159.169L68.8691 158.913L70.0991 126.751" stroke="#CAD833" stroke-width="0.8" stroke-linecap="round" stroke-linejoin="round"/>
<path d="M37.7532 178.138C37.7532 178.138 37.6801 178.138 37.6435 178.138C36.7911 178.077 36.1456 177.334 36.2065 176.481L38.1063 149.74C38.4717 137.253 43.1969 134.999 43.7328 134.78C44.5244 134.463 45.4378 134.853 45.7544 135.645C46.071 136.425 45.7057 137.302 44.9384 137.643C44.7801 137.728 41.5041 139.702 41.1997 149.899L39.2998 176.7C39.2389 177.516 38.5569 178.15 37.7532 178.15V178.138Z" fill="black" stroke="#CAD833" stroke-width="0.8" stroke-linecap="round" stroke-linejoin="round"/>
<path d="M51.1373 180.513C51.1373 180.513 51.2104 180.513 51.2469 180.513C52.0994 180.452 52.7449 179.709 52.684 178.856L50.7841 152.115C50.4188 139.628 45.6936 137.374 45.1577 137.155C44.3661 136.838 43.4649 137.228 43.1361 138.02C42.8194 138.8 43.1848 139.677 43.952 140.018C44.1104 140.115 47.3985 142.077 47.6908 152.274L49.5907 179.075C49.6515 179.891 50.3335 180.513 51.1373 180.513Z" fill="black" stroke="#CAD833" stroke-width="0.8" stroke-linecap="round" stroke-linejoin="round"/>
<path d="M69.819 177.212C69.8799 177.212 69.9408 177.212 70.0017 177.212C70.8542 177.102 71.4631 176.334 71.3535 175.482L67.7365 145.817C66.4822 133.233 61.9883 131.856 61.1115 131.71L60.6 134.768C60.6 134.768 60.5634 134.768 60.4904 134.743C60.5269 134.743 63.6202 135.876 64.6554 146.158L68.2846 175.859C68.382 176.651 69.0518 177.224 69.8312 177.224L69.819 177.212Z" fill="black" stroke="#CAD833" stroke-width="0.8" stroke-linecap="round" stroke-linejoin="round"/>
<path d="M17.7927 178.137C17.7318 178.137 17.6709 178.137 17.61 178.125C16.7576 178.027 16.1486 177.247 16.2582 176.395L19.8752 146.73C21.1296 134.146 25.6235 132.769 26.5003 132.623L27.0118 135.681C27.0118 135.681 27.0483 135.681 27.1214 135.656C27.0849 135.656 23.9916 136.789 22.9564 147.071L19.3272 176.772C19.2298 177.564 18.56 178.137 17.7927 178.137Z" fill="black" stroke="#CAD833" stroke-width="0.8" stroke-linecap="round" stroke-linejoin="round"/>
<path d="M18.8888 134.256C18.8888 138.666 29.3866 142.235 42.3445 142.235C55.3023 142.235 65.8002 138.666 65.8002 134.256C65.8002 129.846 55.3023 126.276 42.3445 126.276C29.3866 126.276 18.8888 129.846 18.8888 134.256Z" fill="black" stroke="#CAD833" stroke-width="0.8" stroke-linecap="round" stroke-linejoin="round"/>
<path d="M56.849 130.54C56.849 130.54 61.1358 131.965 62.2075 133.403L56.849 130.54Z" fill="black"/>
<path d="M56.849 130.54C56.849 130.54 61.1358 131.965 62.2075 133.403" stroke="#CAD833" stroke-width="0.8" stroke-linecap="round" stroke-linejoin="round"/>
<path d="M26.9022 128.774C29.2039 137.07 36.3648 137.156 43.1482 136.851C49.9925 136.547 68.7351 135.304 75.5916 135.097C77.3453 135.048 79.0868 134.987 80.8405 134.926C85.3953 134.78 88.9879 131.82 88.8418 127.105C88.6956 122.391 84.8838 118.687 80.329 118.845L48.7747 118.772C48.7747 118.772 42.5028 119.503 41.1631 119.467C35.5002 119.308 26.3542 117.201 27.1823 120.319C27.1945 120.356 26.89 128.738 26.89 128.774H26.9022Z" fill="black" stroke="#CAD833" stroke-width="0.8" stroke-linecap="round" stroke-linejoin="round"/>
<path d="M74.1911 133.196C73.57 146.354 73.9597 161.058 73.9597 161.058L87.5386 160.778L88.6956 126.728" fill="black"/>
<path d="M74.1911 133.196C73.57 146.354 73.9597 161.058 73.9597 161.058L87.5386 160.778L88.6956 126.728" stroke="#CAD833" stroke-width="0.8" stroke-linecap="round" stroke-linejoin="round"/>
<path d="M31.4204 72.2352C32.9427 71.9428 35.354 68.154 35.7316 67.6546C35.9143 67.4109 36.6328 57.2385 36.6693 56.6416C36.6693 56.6416 42.8925 57.7258 42.9047 57.7137C46.0954 55.7279 45.3647 66.4119 45.3647 66.9114C45.3647 70.6515 46.9114 69.9205 48.2997 70.7002C48.6285 73.8676 47.5812 75.3295 44.6218 75.6219C41.9669 75.8777 39.5313 74.2696 37.9968 73.5022C35.6463 72.3205 31.4204 72.2352 31.4204 72.2352Z" fill="black" stroke="#CAD833" stroke-width="0.8" stroke-linecap="round" stroke-linejoin="round"/>
<path d="M58.7367 80.7379C59.2481 84.3196 59.236 88.6565 59.2238 90.8616C59.1264 105.103 60.6365 122.451 53.0371 121.963C51.7097 121.878 48.2754 119.88 43.404 117.894C42.5393 117.541 40.1889 125.643 35.0374 121.33C33.442 119.99 31.8223 120.538 30.0686 119.929C26.2689 118.601 26.5003 112.668 26.1715 109.026C25.6965 103.763 25.4286 98.4512 25.2581 93.164C25.1607 90.423 25.1242 87.6819 25.1607 84.9287C25.2216 80.7257 26.0497 76.3766 28.6315 73.2701C31.7005 69.5909 35.963 70.0782 40.0062 70.1148C44.5366 70.1513 48.3972 71.9543 52.5135 74.001" fill="black"/>
<path d="M58.7367 80.7379C59.2481 84.3196 59.236 88.6565 59.2238 90.8616C59.1264 105.103 60.6365 122.451 53.0371 121.963C51.7097 121.878 48.2754 119.88 43.404 117.894C42.5393 117.541 40.1889 125.643 35.0374 121.33C33.442 119.99 31.8223 120.538 30.0686 119.929C26.2689 118.601 26.5003 112.668 26.1715 109.026C25.6965 103.763 25.4286 98.4512 25.2581 93.164C25.1607 90.423 25.1242 87.6819 25.1607 84.9287C25.2216 80.7257 26.0497 76.3766 28.6315 73.2701C31.7005 69.5909 35.963 70.0782 40.0062 70.1148C44.5366 70.1513 48.3972 71.9543 52.5135 74.001" stroke="#CAD833" stroke-width="0.8" stroke-linecap="round" stroke-linejoin="round"/>
<path d="M32.7357 70.8219L35.6098 66.7773C35.6098 66.7773 46.0589 66.7773 48.4824 71.1387C50.9059 75.5 47.9831 71.1752 47.9831 71.1752L38.4839 72.7589L32.7357 70.8219Z" fill="black" stroke="#CAD833" stroke-width="0.8" stroke-linecap="round" stroke-linejoin="round"/>
<path d="M52.2455 76.9491C53.1467 79.2151 53.4756 81.6638 53.6948 84.1977C53.9627 87.3652 52.2455 101.521 52.0263 113.399C51.8558 122.792 52.1725 130.759 52.1725 130.759C46.4973 131.429 35.013 131.283 23.5653 129.748L25.7696 110.963C25.7696 110.963 24.43 91.3854 24.4909 87.0971C24.5396 83.1744 25.5991 77.9603 27.8643 74.4761C30.5436 70.3462 34.8182 69.4082 39.0928 69.3716C42.0035 69.3473 45.6083 69.4813 47.8978 70.663" fill="black"/>
<path d="M52.2455 76.9491C53.1467 79.2151 53.4756 81.6638 53.6948 84.1977C53.9627 87.3652 52.2455 101.521 52.0263 113.399C51.8558 122.792 52.1725 130.759 52.1725 130.759C46.4973 131.429 35.013 131.283 23.5653 129.748L25.7696 110.963C25.7696 110.963 24.43 91.3854 24.4909 87.0971C24.5396 83.1744 25.5991 77.9603 27.8643 74.4761C30.5436 70.3462 34.8182 69.4082 39.0928 69.3716C42.0035 69.3473 45.6083 69.4813 47.8978 70.663" stroke="#CAD833" stroke-width="0.8" stroke-linecap="round" stroke-linejoin="round"/>
<path d="M43.0995 82.444C43.7571 84.1983 46.8626 93.0428 49.0182 98.2447C51.4174 103.995 52.8422 106.054 52.8422 106.054L64.7406 102.764C64.2413 99.7066 63.6567 96.6488 62.9869 93.6153C62.244 90.1677 61.428 86.7444 60.4781 83.3577C59.7352 80.7385 58.968 78.0461 57.5188 75.7436C55.3145 72.2351 51.6609 70.3955 47.6786 70.7732" fill="black"/>
<path d="M43.0995 82.444C43.7571 84.1983 46.8626 93.0428 49.0182 98.2447C51.4174 103.995 52.8422 106.054 52.8422 106.054L64.7406 102.764C64.2413 99.7066 63.6567 96.6488 62.9869 93.6153C62.244 90.1677 61.428 86.7444 60.4781 83.3577C59.7352 80.7385 58.968 78.0461 57.5188 75.7436C55.3145 72.2351 51.6609 70.3955 47.6786 70.7732" stroke="#CAD833" stroke-width="0.8" stroke-linecap="round" stroke-linejoin="round"/>
<path d="M86.3695 79.4351L89.1827 78.826C89.1827 78.826 90.9851 77.8148 91.3261 77.6199C91.3261 77.6199 94.6996 74.087 96.502 75.5367C96.502 75.5367 96.709 76.2676 95.3207 77.3519C95.3207 77.3519 97.1109 77.3275 96.0636 79.6056C96.0636 79.6056 96.9282 80.5437 95.7591 82.0543C95.7591 82.0543 96.4167 83.3457 95.5399 84.7832L94.115 86.0745C94.115 86.0745 89.5481 89.9486 85.8824 90.0095L79.8784 94.785L75.141 88.9496L77.3575 88.0116L82.0949 84.3812C82.0949 84.3812 82.4481 81.9934 83.1422 79.7762" fill="black"/>
<path d="M86.3695 79.4351L89.1827 78.826C89.1827 78.826 90.9851 77.8148 91.3261 77.6199C91.3261 77.6199 94.6996 74.087 96.502 75.5367C96.502 75.5367 96.709 76.2676 95.3207 77.3519C95.3207 77.3519 97.1109 77.3275 96.0636 79.6056C96.0636 79.6056 96.9282 80.5437 95.7591 82.0543C95.7591 82.0543 96.4167 83.3457 95.5399 84.7832L94.115 86.0745C94.115 86.0745 89.5481 89.9486 85.8824 90.0095L79.8784 94.785L75.141 88.9496L77.3575 88.0116L82.0949 84.3812C82.0949 84.3812 82.4481 81.9934 83.1422 79.7762" stroke="#CAD833" stroke-width="0.8" stroke-linecap="round" stroke-linejoin="round"/>
<path d="M95.3207 77.3516L93.1773 79.252L90.3397 81.1525" fill="black"/>
<path d="M95.3207 77.3516L93.1773 79.252L90.3397 81.1525" stroke="#CAD833" stroke-width="0.8" stroke-linecap="round" stroke-linejoin="round"/>
<path d="M96.0635 79.6055L93.9201 81.5059L91.5941 83.1506" fill="black"/>
<path d="M96.0635 79.6055L93.9201 81.5059L91.5941 83.1506" stroke="#CAD833" stroke-width="0.8" stroke-linecap="round" stroke-linejoin="round"/>
<path d="M95.5886 82.5049L93.4208 84.3079L91.862 85.1485" fill="black"/>
<path d="M95.5886 82.5049L93.4208 84.3079L91.862 85.1485" stroke="#CAD833" stroke-width="0.8" stroke-linecap="round" stroke-linejoin="round"/>
<path d="M83.1544 79.8002C83.6781 78.119 84.4088 76.5353 85.3465 76.182C85.9798 75.9383 90.7416 72.4907 89.8404 75.7434C89.5116 76.9251 88.3181 77.3637 87.2951 77.7901L86.3695 79.4347" fill="black"/>
<path d="M83.1544 79.8002C83.6781 78.119 84.4088 76.5353 85.3465 76.182C85.9798 75.9383 90.7416 72.4907 89.8404 75.7434C89.5116 76.9251 88.3181 77.3637 87.2951 77.7901L86.3695 79.4347" stroke="#CAD833" stroke-width="0.8" stroke-linecap="round" stroke-linejoin="round"/>
<path d="M49.9438 102.983C53.3294 113.046 64.2778 108.075 66.2385 106.906L83.4223 95.1984C83.4223 95.1984 84.2626 87.56 78.4535 85.3428L57.6284 96.575L55.3388 101.521" fill="black"/>
<path d="M49.9438 102.983C53.3294 113.046 64.2778 108.075 66.2385 106.906L83.4223 95.1984C83.4223 95.1984 84.2626 87.56 78.4535 85.3428L57.6284 96.575L55.3388 101.521" stroke="#CAD833" stroke-width="0.8" stroke-linecap="round" stroke-linejoin="round"/>
<path d="M53.0249 51.6582C54.2793 57.8591 50.7476 63.8041 45.1333 64.9493C39.519 66.0823 33.9413 61.9889 32.6869 55.7881C31.1768 48.2958 35.2322 43.5812 40.5907 42.497C46.205 41.364 51.7827 45.4573 53.0371 51.6582H53.0249Z" fill="black" stroke="#CAD833" stroke-width="0.8" stroke-linecap="round" stroke-linejoin="round"/>
<path d="M54.1332 43.8862H53.0859C53.5121 43.5573 53.78 43.0334 53.78 42.4487C53.78 41.4375 52.9762 40.6091 51.9776 40.6091H46.8992C42.6002 40.2315 38.2647 40.5482 35.0618 42.9603C33.9535 43.7887 32.9671 44.8121 32.1998 46.0669C30.7993 48.3084 30.0564 51.0739 30.7019 55.4108C30.7019 55.4108 31.7492 59.9062 35.1592 62.4157C35.1592 62.4157 40.7126 59.5529 40.5177 54.3875C40.5177 53.8027 42.4297 46.9196 51.3931 47.5531H54.1332C55.1318 47.5531 55.9356 46.7369 55.9356 45.7136C55.9356 44.6902 55.1197 43.874 54.1332 43.874V43.8862Z" fill="black" stroke="#CAD833" stroke-width="0.8" stroke-linecap="round" stroke-linejoin="round"/>
<path d="M41.5163 58.8224C40.1523 59.1026 38.8249 58.2254 38.5448 56.861C38.2647 55.4966 39.1537 54.1687 40.5055 53.9007L41.0414 53.791" fill="black"/>
<path d="M41.5163 58.8224C40.1523 59.1026 38.8249 58.2254 38.5448 56.861C38.2647 55.4966 39.1537 54.1687 40.5055 53.9007L41.0414 53.791" stroke="#CAD833" stroke-width="0.8" stroke-linecap="round" stroke-linejoin="round"/>
<path d="M40.2254 56.5196L41.2484 56.3125" stroke="#CAD833" stroke-width="0.8" stroke-linecap="round" stroke-linejoin="round"/>
<path d="M24.1742 137.728C24.2595 137.728 24.3569 137.728 24.4421 137.703C25.2824 137.545 25.8548 136.692 25.6965 135.791L22.384 107.539C22.2378 106.638 21.4219 106.041 20.5816 106.199C19.7413 106.358 19.1689 107.21 19.3272 108.112L22.6397 136.363C22.7737 137.167 23.4313 137.728 24.162 137.728H24.1742Z" fill="black" stroke="#CAD833" stroke-width="0.8" stroke-linecap="round" stroke-linejoin="round"/>
<path d="M49.5176 139.434C49.6028 139.434 49.7003 139.434 49.7855 139.409C50.6258 139.239 51.1982 138.313 51.0399 137.351L47.4838 107.552C47.3376 106.578 46.5217 105.932 45.6814 106.103C44.841 106.273 44.2687 107.199 44.427 108.161L47.9831 137.96C48.1171 138.825 48.7747 139.434 49.5054 139.434H49.5176Z" fill="black" stroke="#CAD833" stroke-width="0.8" stroke-linecap="round" stroke-linejoin="round"/>
<path d="M24.1133 87.7305H43.7572C48.6164 87.7305 52.55 91.6776 52.55 96.5262V103.312C52.55 108.173 48.6042 112.108 43.7572 112.108H24.1133C19.2541 112.108 15.3205 108.16 15.3205 103.312V96.5262C15.3205 91.6654 19.2663 87.7305 24.1133 87.7305Z" fill="black" stroke="#CAD833" stroke-width="0.8" stroke-linecap="round" stroke-linejoin="round"/>
<path d="M22.9807 90.6787C22.9807 90.6787 18.7061 91.5802 18.3773 96.8674V99.1212" fill="black"/>
<path d="M22.9807 90.6787C22.9807 90.6787 18.7061 91.5802 18.3773 96.8674V99.1212" stroke="#CAD833" stroke-width="0.8" stroke-linecap="round" stroke-linejoin="round"/>
</g>
<g clip-path="url(#clip1_1412_2001)">
<path d="M256.82 171.58C268.562 171.58 278.08 166.839 278.08 160.99C278.08 155.142 268.562 150.4 256.82 150.4C245.078 150.4 235.56 155.142 235.56 160.99C235.56 166.839 245.078 171.58 256.82 171.58Z" fill="black" stroke="#CAD833" stroke-width="0.8" stroke-linecap="round" stroke-linejoin="round"/>
<path d="M286.73 188.4H228.01C226.92 188.4 226.15 187.21 226.5 186.06L231.4 161.58C231.62 160.86 232.23 160.37 232.91 160.37H280.9C281.57 160.37 282.16 160.83 282.4 161.52L288.23 185.99C288.62 187.15 287.85 188.39 286.73 188.39V188.4Z" fill="black" stroke="#CAD833" stroke-width="0.82" stroke-linecap="round" stroke-linejoin="round"/>
<path d="M251.85 178.06H262.64C264.31 179.89 266.06 181.42 268.23 181.42C270.28 181.42 271.93 179.93 271.93 177.79C271.93 175.65 270.8 174.9 269.67 174.45L269.56 174.41C270.76 173.96 271.93 173.21 271.93 171.05C271.93 169.07 270.62 167.35 267.89 167.35C266.17 167.35 264.55 168.87 262.88 170.71H252.09C250.42 168.88 248.67 167.35 246.5 167.35C244.45 167.35 242.8 168.84 242.8 170.98C242.8 173.12 243.93 173.87 245.06 174.32L245.17 174.36C243.97 174.81 242.8 175.56 242.8 177.72C242.8 179.7 244.11 181.42 246.84 181.42C248.56 181.42 250.18 179.9 251.85 178.06Z" fill="black" stroke="#CAD833" stroke-width="0.82" stroke-linecap="round" stroke-linejoin="round"/>
</g>
<g clip-path="url(#clip2_1412_2001)">
<path d="M262.35 82.9204V77.5604C262.35 76.5604 261.54 75.7504 260.54 75.7504H248.05C247.05 75.7504 246.24 76.5604 246.24 77.5604V82.9204H242.89V77.5604C242.89 74.7104 245.2 72.4104 248.05 72.4004H260.54C263.39 72.4004 265.7 74.7104 265.7 77.5604V82.9204H262.35Z" fill="black" stroke="#CAD833" stroke-width="0.82" stroke-linecap="round" stroke-linejoin="round"/>
<path d="M254.29 114.83C252.67 114.83 251.36 113.51 251.36 111.9V109.22H248.68C247.06 109.22 245.74 107.9 245.74 106.29C245.74 104.68 247.06 103.35 248.68 103.35H251.36V100.67C251.36 99.0505 252.68 97.7305 254.29 97.7305C255.9 97.7305 257.23 99.0505 257.23 100.67V103.35H259.91C261.53 103.35 262.85 104.67 262.85 106.29C262.85 107.91 261.53 109.22 259.91 109.22H257.23V111.9C257.23 113.52 255.91 114.83 254.29 114.83Z" fill="black" stroke="#CAD833" stroke-width="0.82" stroke-linecap="round" stroke-linejoin="round"/>
<path d="M273.98 126.06H234.61C230.09 126.06 226.41 122.34 226.41 117.76V89.1701C226.41 84.5901 230.09 80.8701 234.61 80.8701H273.99C278.51 80.8701 282.19 84.5901 282.19 89.1701V117.76C282.19 122.33 278.51 126.06 273.99 126.06H273.98Z" fill="black"/>
<mask id="mask0_1412_2001" style="mask-type:luminance" maskUnits="userSpaceOnUse" x="226" y="80" width="57" height="47">
<path d="M273.98 126.06H234.61C230.09 126.06 226.41 122.34 226.41 117.76V89.1701C226.41 84.5901 230.09 80.8701 234.61 80.8701H273.99C278.51 80.8701 282.19 84.5901 282.19 89.1701V117.76C282.19 122.33 278.51 126.06 273.99 126.06H273.98Z" fill="white"/>
</mask>
<g mask="url(#mask0_1412_2001)">
<g style="mix-blend-mode:multiply" opacity="0.5">
<path d="M281.96 105.08C278.98 102.06 274.15 102.06 271.16 105.08L258.08 118.31C255.1 121.33 255.1 126.22 258.08 129.23C261.06 132.25 265.9 132.25 268.88 129.23L275.42 122.61L281.96 115.99C284.94 112.97 284.94 108.08 281.96 105.06V105.08Z" fill="black"/>
<path d="M281.96 105.08C278.98 102.06 274.15 102.06 271.16 105.08L258.08 118.31C255.1 121.33 255.1 126.22 258.08 129.23C261.06 132.25 265.9 132.25 268.88 129.23L275.42 122.61L281.96 115.99C284.94 112.97 284.94 108.08 281.96 105.06V105.08Z" stroke="#CAD833" stroke-width="0.82" stroke-linecap="round" stroke-linejoin="round"/>
</g>
</g>
<path d="M273.98 126.06H234.61C230.09 126.06 226.41 122.34 226.41 117.76V89.1701C226.41 84.5901 230.09 80.8701 234.61 80.8701H273.99C278.51 80.8701 282.19 84.5901 282.19 89.1701V117.76C282.19 122.33 278.51 126.06 273.99 126.06H273.98Z" stroke="#CAD833" stroke-width="0.82" stroke-linecap="round" stroke-linejoin="round"/>
<path d="M286.87 110.23C283.89 107.25 279.06 107.25 276.07 110.23L262.99 123.31C260.01 126.29 260.01 131.12 262.99 134.11C265.97 137.09 270.81 137.09 273.79 134.11L286.87 121.03C289.85 118.05 289.85 113.21 286.87 110.23Z" fill="black" stroke="#CAD833" stroke-width="0.82" stroke-linecap="round" stroke-linejoin="round"/>
<path d="M254.29 112.6C252.67 112.6 251.36 111.28 251.36 109.67V106.99H248.68C247.06 106.99 245.74 105.67 245.74 104.06C245.74 102.45 247.06 101.12 248.68 101.12H251.36V98.44C251.36 96.82 252.68 95.5 254.29 95.5C255.9 95.5 257.23 96.82 257.23 98.44V101.12H259.91C261.53 101.12 262.85 102.44 262.85 104.06C262.85 105.68 261.53 106.99 259.91 106.99H257.23V109.67C257.23 111.29 255.91 112.6 254.29 112.6Z" fill="black" stroke="#CAD833" stroke-width="0.82" stroke-linecap="round" stroke-linejoin="round"/>
<path d="M268.57 117.67C268.57 117.67 273.4 115.77 277.33 119.57C279.81 122.11 280.38 124.65 280 127.76" fill="black"/>
<path d="M268.57 117.67C268.57 117.67 273.4 115.77 277.33 119.57C279.81 122.11 280.38 124.65 280 127.76" stroke="#CAD833" stroke-width="0.82" stroke-linecap="round" stroke-linejoin="round"/>
</g>
<g clip-path="url(#clip3_1412_2001)">
<path d="M269.23 54.5202H237.35L235.14 8.74023H271.28L269.23 54.5202Z" fill="black" stroke="#CAD833" stroke-width="0.82" stroke-linecap="round" stroke-linejoin="round"/>
<path d="M273.82 3.52016H272.12V0.410156H234.17V3.52016H232.46V10.2402H273.82V3.52016Z" fill="black" stroke="#CAD833" stroke-width="0.82" stroke-linecap="round" stroke-linejoin="round"/>
<path d="M274.65 10.3604H231.41V12.5004H274.65V10.3604Z" fill="black" stroke="#CAD833" stroke-width="0.82" stroke-linecap="round" stroke-linejoin="round"/>
<path d="M271.66 47.2702H234.86L233.93 24.1602L272.44 24.2902L271.66 47.2702Z" fill="black" stroke="#CAD833" stroke-width="0.82" stroke-linecap="round" stroke-linejoin="round"/>
<path d="M259.38 41.5104C262.931 41.5104 265.81 38.6316 265.81 35.0804C265.81 31.5292 262.931 28.6504 259.38 28.6504C255.829 28.6504 252.95 31.5292 252.95 35.0804C252.95 38.6316 255.829 41.5104 259.38 41.5104Z" fill="black" stroke="#CAD833" stroke-width="0.82" stroke-linecap="round" stroke-linejoin="round"/>
</g>
<defs>
<clipPath id="clip0_1412_2001">
<rect width="187" height="141" fill="white" transform="translate(0 40)"/>
</clipPath>
<clipPath id="clip1_1412_2001">
<rect width="62.74" height="38.81" fill="white" transform="translate(226 150)"/>
</clipPath>
<clipPath id="clip2_1412_2001">
<rect width="63.51" height="64.75" fill="white" transform="translate(226 72)"/>
</clipPath>
<clipPath id="clip3_1412_2001">
<rect width="44.05" height="54.93" fill="white" transform="translate(231)"/>
</clipPath>
</defs>
</svg>
