<svg width="327" height="163" viewBox="0 0 327 163" fill="none" xmlns="http://www.w3.org/2000/svg">
<g clip-path="url(#clip0_3213_9)">
<path d="M10.9477 96.8888C9.21522 91.1181 8.2937 84.9921 8.2937 78.6579C8.2937 43.556 36.8363 15.0947 72.0385 15.0947C107.241 15.0947 135.783 43.556 135.783 78.6579C135.783 89.6234 132.994 99.9518 128.092 108.957" fill="black"/>
<path d="M10.9477 96.8888C9.21522 91.1181 8.2937 84.9921 8.2937 78.6579C8.2937 43.556 36.8363 15.0947 72.0385 15.0947C107.241 15.0947 135.783 43.556 135.783 78.6579C135.783 89.6234 132.994 99.9518 128.092 108.957" stroke="#CAD833" stroke-width="0.82" stroke-linecap="round" stroke-linejoin="round"/>
<path d="M152.948 118.219C149.778 117.08 130.782 121.184 130.782 121.184L129.075 127.127L128.03 133.645C128.03 133.645 128.583 133.534 129.517 133.351L128.989 136.683C128.571 136.781 128.337 136.842 128.337 136.842L127.293 143.36C127.293 143.36 143.266 140.199 146.313 139.035C149.262 137.908 149.348 135.568 146.473 134.38C147.001 134.233 147.431 134.098 147.738 133.975C150.786 132.811 150.786 130.337 147.616 129.197C147.554 129.173 147.493 129.16 147.431 129.148C150.085 127.923 149.95 125.632 146.927 124.541C146.891 124.529 146.841 124.517 146.805 124.505C148.66 124.064 150.171 123.659 150.921 123.365C153.968 122.201 156.118 119.347 152.948 118.207V118.219Z" fill="black" stroke="#CAD833" stroke-width="0.82" stroke-linecap="round" stroke-linejoin="round"/>
<path d="M62.0614 46.4345C62.0614 46.4345 70.9203 38.5933 78.2065 47.5004L61.7051 64.3101L61.9263 73.009L56.95 68.6963C56.95 68.6963 47.0959 59.3848 62.0737 46.4345H62.0614Z" fill="black" stroke="#CAD833" stroke-width="0.82" stroke-linecap="round" stroke-linejoin="round"/>
<path d="M74.9873 92.11C69.6179 92.159 65.2315 87.8585 65.1823 82.5167L65.0472 68.5617L84.4729 68.3779L84.608 82.3329C84.6572 87.687 80.3444 92.061 74.9873 92.11Z" fill="black" stroke="#CAD833" stroke-width="0.82" stroke-linecap="round" stroke-linejoin="round"/>
<path d="M77.1253 76.9667C80.283 76.6114 83.3425 75.2759 85.849 72.9603C90.3215 68.8191 90.9358 63.416 88.7979 58.3927C88.417 57.4983 87.9378 56.6162 87.3849 55.7463C87.0531 55.2195 86.6845 54.7049 86.2914 54.2025C85.9105 53.7125 85.4927 53.2346 85.0627 52.7568C84.9275 52.6098 84.7801 52.4628 84.6449 52.3157C84.2394 51.8992 83.8217 51.5071 83.3916 51.1518C83.2196 50.9925 83.0353 50.8455 82.851 50.6862C77.371 46.0427 71.1047 42.5142 63.7816 49.3018C55.7337 56.751 58.3385 65.9889 64.1134 72.1762" fill="black"/>
<path d="M77.1253 76.9667C80.283 76.6114 83.3425 75.2759 85.849 72.9603C90.3215 68.8191 90.9358 63.416 88.7979 58.3927C88.417 57.4983 87.9378 56.6162 87.3849 55.7463C87.0531 55.2195 86.6845 54.7049 86.2914 54.2025C85.9105 53.7125 85.4927 53.2346 85.0627 52.7568C84.9275 52.6098 84.7801 52.4628 84.6449 52.3157C84.2394 51.8992 83.8217 51.5071 83.3916 51.1518C83.2196 50.9925 83.0353 50.8455 82.851 50.6862C77.371 46.0427 71.1047 42.5142 63.7816 49.3018C55.7337 56.751 58.3385 65.9889 64.1134 72.1762" stroke="#CAD833" stroke-width="0.82" stroke-linecap="round" stroke-linejoin="round"/>
<path d="M65.2929 65.2535C65.2929 65.2535 71.805 56.7383 68.7087 50.3428C68.7087 50.3428 72.5422 52.0213 79.9758 48.1865C79.9758 48.1865 71.8542 37.8581 60.9925 47.8067C60.9925 47.8067 39.392 56.8976 65.7721 77.5177L65.3052 65.2535H65.2929Z" fill="black" stroke="#CAD833" stroke-width="0.82" stroke-linecap="round" stroke-linejoin="round"/>
<path d="M75.6877 64.7273C75.7 66.2588 75.0979 67.778 73.8938 68.9052C71.6207 71.0126 68.0575 70.89 65.9318 68.6112C63.8185 66.3446 63.9413 62.7915 66.2267 60.6719C68.0452 58.9811 70.6869 58.7238 72.7634 59.851" fill="black"/>
<path d="M75.6877 64.7273C75.7 66.2588 75.0979 67.778 73.8938 68.9052C71.6207 71.0126 68.0575 70.89 65.9318 68.6112C63.8185 66.3446 63.9413 62.7915 66.2267 60.6719C68.0452 58.9811 70.6869 58.7238 72.7634 59.851" stroke="#CAD833" stroke-width="0.82" stroke-linecap="round" stroke-linejoin="round"/>
<path d="M82.1998 51.2618C82.1998 51.2618 83.109 52.5237 84.2517 51.9111C85.3944 51.2985 85.9473 50.8329 86.6722 51.7151C87.3972 52.5972 86.3405 54.2512 86.3405 54.2512L85.9473 54.9006" fill="black"/>
<path d="M82.1998 51.2618C82.1998 51.2618 83.109 52.5237 84.2517 51.9111C85.3944 51.2985 85.9473 50.8329 86.6722 51.7151C87.3972 52.5972 86.3405 54.2512 86.3405 54.2512L85.9473 54.9006" stroke="#CAD833" stroke-width="0.82" stroke-linecap="round" stroke-linejoin="round"/>
<path d="M68.0944 64.0657C68.0944 64.0657 69.8883 62.2769 72.0385 64.3965L68.0944 64.0657Z" fill="black"/>
<path d="M68.0944 64.0657C68.0944 64.0657 69.8883 62.2769 72.0385 64.3965" stroke="#CAD833" stroke-width="0.82" stroke-linecap="round" stroke-linejoin="round"/>
<path d="M56.9377 86.6215C56.9377 86.6215 62.2089 79.8584 66.2267 79.8584C70.2445 79.8584 83.7479 81.0101 86.0701 84.2446C88.3924 87.4791 88.5767 91.8776 88.5767 91.8776L56.9377 86.6215Z" fill="black" stroke="#CAD833" stroke-width="0.82" stroke-linecap="round" stroke-linejoin="round"/>
<path d="M91.0955 88.1287C91.0955 88.1287 60.4519 80.1159 44.1348 87.124C27.8054 94.1321 16.2557 132.456 23.5418 139.219L29.8205 144.23L28.3092 162.51H99.3769V152.488L135.292 142.221C135.292 142.221 134.284 128.45 130.77 121.184L106.663 123.378C106.663 123.378 110.251 91.4489 91.0955 88.1287Z" fill="black" stroke="#CAD833" stroke-width="0.82" stroke-linecap="round" stroke-linejoin="round"/>
<path d="M99.3892 152.488L97.8533 152.757C87.9132 154.534 78.9437 146.533 79.5826 136.487L81.057 113.661" fill="black"/>
<path d="M99.3892 152.488L97.8533 152.757C87.9132 154.534 78.9437 146.533 79.5826 136.487L81.057 113.661" stroke="#CAD833" stroke-width="0.82" stroke-linecap="round" stroke-linejoin="round"/>
<path d="M29.8204 144.218L35.5953 110.157" stroke="#CAD833" stroke-width="0.82" stroke-linecap="round" stroke-linejoin="round"/>
<path d="M146.915 124.541L143.561 125.043" stroke="#CAD833" stroke-width="0.82" stroke-linecap="round" stroke-linejoin="round"/>
<path d="M147.431 129.147L144.802 129.478" stroke="#CAD833" stroke-width="0.82" stroke-linecap="round" stroke-linejoin="round"/>
<path d="M146.473 134.38L145.355 134.564" stroke="#CAD833" stroke-width="0.82" stroke-linecap="round" stroke-linejoin="round"/>
<path d="M139.125 31.5H111.553V68.1946H139.125V31.5Z" fill="black" stroke="#CAD833" stroke-width="0.82" stroke-linecap="round" stroke-linejoin="round"/>
<path d="M141.841 34.2568H114.281V70.9514H134.837L141.841 63.9556V34.2568Z" fill="black" stroke="#CAD833" stroke-width="0.82" stroke-linecap="round" stroke-linejoin="round"/>
<path d="M141.841 63.9551L134.837 70.9509H141.841V63.9551Z" fill="black" stroke="#CAD833" stroke-width="0.82" stroke-linecap="round" stroke-linejoin="round"/>
<path d="M121.555 43.2617H132.994" stroke="#CAD833" stroke-width="0.82" stroke-linecap="round" stroke-linejoin="round"/>
<path d="M121.555 47.9297H136.25" stroke="#CAD833" stroke-width="0.82" stroke-linecap="round" stroke-linejoin="round"/>
<path d="M121.555 52.5977H136.25" stroke="#CAD833" stroke-width="0.82" stroke-linecap="round" stroke-linejoin="round"/>
<path d="M121.555 57.2656H136.25" stroke="#CAD833" stroke-width="0.82" stroke-linecap="round" stroke-linejoin="round"/>
<path d="M121.555 61.9336H136.25" stroke="#CAD833" stroke-width="0.82" stroke-linecap="round" stroke-linejoin="round"/>
<path d="M75.6017 11.0264C74.2624 6.37064 69.9742 2.97685 64.8752 2.97685C63.9536 2.97685 63.0567 3.09937 62.2089 3.30765C60.243 1.56787 57.6504 0.501953 54.8121 0.501953C48.6441 0.501953 43.6556 5.47625 43.6433 11.6267C39.306 13.1582 36.1974 17.2749 36.1974 22.1144C36.1974 28.2649 41.1982 33.2514 47.3662 33.2514H74.5327C80.7008 33.2514 85.7015 28.2649 85.7015 22.1144C85.7015 16.3192 81.266 11.5655 75.6017 11.0264Z" fill="black" stroke="#CAD833" stroke-width="0.82" stroke-linecap="round" stroke-linejoin="round"/>
<path d="M104.181 25.8029L102.891 23.0585L105.643 21.7598" fill="black"/>
<path d="M104.181 25.8029L102.891 23.0585L105.643 21.7598" stroke="#CAD833" stroke-width="0.82" stroke-linecap="round" stroke-linejoin="round"/>
<path d="M27.5228 36.2777H24.4879V33.2393" fill="black"/>
<path d="M27.5228 36.2777H24.4879V33.2393" stroke="#CAD833" stroke-width="0.82" stroke-linecap="round" stroke-linejoin="round"/>
<path d="M12.8399 94.916L11.3286 97.5502L8.68689 96.0432" fill="black"/>
<path d="M12.8399 94.916L11.3286 97.5502L8.68689 96.0432" stroke="#CAD833" stroke-width="0.82" stroke-linecap="round" stroke-linejoin="round"/>
<path d="M133.633 78.731L135.636 76.4521L137.921 78.4615" fill="black"/>
<path d="M133.633 78.731L135.636 76.4521L137.921 78.4615" stroke="#CAD833" stroke-width="0.82" stroke-linecap="round" stroke-linejoin="round"/>
<path d="M27.7609 70.4285C33.9988 64.2084 33.9988 54.1236 27.7609 47.9035C21.523 41.6835 11.4095 41.6835 5.1716 47.9035C-1.06626 54.1236 -1.06626 64.2084 5.1716 70.4285C11.4095 76.6486 21.523 76.6486 27.7609 70.4285Z" fill="black" stroke="#CAD833" stroke-width="0.82" stroke-linecap="round" stroke-linejoin="round"/>
<path d="M12.1395 64.8124V53.5283L23.8859 58.7354L12.1395 64.8124Z" fill="black" stroke="#CAD833" stroke-width="0.82" stroke-linecap="round" stroke-linejoin="round"/>
<path d="M59.0634 18.623C58.5351 18.0961 57.675 18.0961 57.159 18.623L56.5938 19.1865V15.8663C56.5938 15.1189 55.9917 14.5186 55.2422 14.5186C54.4927 14.5186 53.8906 15.1189 53.8906 15.8663V19.1865L53.3254 18.623C52.7971 18.0961 51.937 18.0961 51.421 18.623C50.9049 19.1498 50.8926 20.0074 51.421 20.522L54.2838 23.3767C54.3453 23.438 54.419 23.4992 54.4927 23.5482C54.5296 23.5727 54.5541 23.585 54.591 23.5973C54.6401 23.6218 54.677 23.6463 54.7262 23.6708C54.7753 23.683 54.8122 23.6953 54.8613 23.7075C54.8982 23.7075 54.935 23.732 54.9842 23.7443C55.0702 23.7565 55.1562 23.7688 55.2545 23.7688C55.3528 23.7688 55.4265 23.7688 55.5248 23.7443C55.5617 23.7443 55.5985 23.7198 55.6477 23.7075C55.6968 23.6953 55.7337 23.683 55.7828 23.6708C55.832 23.6463 55.8688 23.6218 55.918 23.5973C55.9548 23.585 55.9917 23.5605 56.0163 23.5482C56.09 23.4992 56.1637 23.438 56.2252 23.3767L59.088 20.522C59.6164 19.9952 59.6164 19.1375 59.088 18.623H59.0634Z" fill="black" stroke="#CAD833" stroke-width="0.82" stroke-linecap="round" stroke-linejoin="round"/>
<path d="M62.8232 19.6771C63.3516 20.2039 64.2117 20.2039 64.7277 19.6771L65.2929 19.1135V22.4338C65.2929 23.1811 65.895 23.7815 66.6445 23.7815C67.394 23.7815 67.996 23.1811 67.996 22.4338V19.1135L68.5612 19.6771C69.0896 20.2039 69.9497 20.2039 70.4657 19.6771C70.9941 19.1502 70.9941 18.2926 70.4657 17.778L67.6029 14.9233C67.5414 14.8621 67.4677 14.8008 67.394 14.7518C67.3571 14.7273 67.3325 14.715 67.2957 14.7028C67.2465 14.6783 67.2097 14.6538 67.1605 14.6293C67.1114 14.617 67.0745 14.6048 67.0254 14.5925C66.9885 14.5925 66.9517 14.568 66.9025 14.5558C66.8165 14.5435 66.7305 14.5312 66.6322 14.5312C66.5339 14.5312 66.4602 14.5313 66.3619 14.5558C66.325 14.5558 66.2882 14.5803 66.239 14.5925C66.1899 14.6048 66.153 14.617 66.1038 14.6293C66.0547 14.6538 66.0178 14.6783 65.9687 14.7028C65.9318 14.7273 65.895 14.7395 65.8704 14.7518C65.7967 14.8008 65.723 14.8621 65.6615 14.9233L62.7987 17.778C62.2703 18.3049 62.2703 19.1625 62.7987 19.6771H62.8232Z" fill="black" stroke="#CAD833" stroke-width="0.82" stroke-linecap="round" stroke-linejoin="round"/>
<path d="M142.295 94.0702H130.352V93.4086C130.352 92.0241 129.234 90.9092 127.846 90.9092H123.73C122.341 90.9092 121.223 92.0241 121.223 93.4086V108.932C121.223 110.316 122.341 111.431 123.73 111.431H142.295C143.684 111.431 144.802 110.316 144.802 108.932V96.5696C144.802 95.1851 143.684 94.0702 142.295 94.0702Z" fill="black" stroke="#CAD833" stroke-width="0.82" stroke-linecap="round" stroke-linejoin="round"/>
<path d="M137.208 103.027C137.208 105.343 135.329 107.217 133.006 107.217C130.684 107.217 128.804 105.343 128.804 103.027C128.804 100.711 130.684 98.8369 133.006 98.8369C135.329 98.8369 137.208 100.711 137.208 103.027Z" fill="black" stroke="#CAD833" stroke-width="0.82" stroke-linecap="round" stroke-linejoin="round"/>
<path d="M133.535 99.89L132.478 98.8363L133.535 97.7949" fill="black"/>
<path d="M133.535 99.89L132.478 98.8363L133.535 97.7949" stroke="#CAD833" stroke-width="0.82" stroke-linecap="round" stroke-linejoin="round"/>
<path d="M132.478 106.176L133.535 107.217L132.478 108.271" fill="black"/>
<path d="M132.478 106.176L133.535 107.217L132.478 108.271" stroke="#CAD833" stroke-width="0.82" stroke-linecap="round" stroke-linejoin="round"/>
</g>
<g clip-path="url(#clip1_3213_9)">
<path d="M253.292 63.4561H213.461C210.832 63.4561 208.7 65.6046 208.7 68.2549V150.059C208.7 152.709 210.832 154.858 213.461 154.858H253.292C255.921 154.858 258.053 152.709 258.053 150.059V68.2549C258.053 65.6046 255.921 63.4561 253.292 63.4561Z" fill="black" stroke="#CAD833" stroke-width="0.82" stroke-miterlimit="10"/>
<path d="M252.552 72.3643H213.925V126.822H252.552V72.3643Z" fill="black" stroke="#CAD833" stroke-width="0.82" stroke-miterlimit="10"/>
<path d="M260.936 154.624H205.453V158.543H260.936V154.624Z" fill="black" stroke="#CAD833" stroke-width="0.82" stroke-miterlimit="10"/>
<path d="M251.812 131.543H239.407V135.551H251.812V131.543Z" fill="black" stroke="#CAD833" stroke-width="0.82" stroke-miterlimit="10"/>
<path d="M324.239 123.994H280.674C279.399 123.994 278.366 125.036 278.366 126.321V154.992C278.366 156.277 279.399 157.319 280.674 157.319H324.239C325.514 157.319 326.547 156.277 326.547 154.992V126.321C326.547 125.036 325.514 123.994 324.239 123.994Z" fill="black" stroke="#CAD833" stroke-width="0.82" stroke-miterlimit="10"/>
<path d="M321.068 127.256H283.281V154.145H321.068V127.256Z" fill="black" stroke="#CAD833" stroke-width="0.76" stroke-miterlimit="10"/>
<path d="M297.519 146.251V135.996L308.079 140.728L297.519 146.251Z" fill="black" stroke="#CAD833" stroke-width="0.82" stroke-linecap="round" stroke-linejoin="round"/>
</g>
<defs>
<clipPath id="clip0_3213_9">
<rect width="155" height="163" fill="white"/>
</clipPath>
<clipPath id="clip1_3213_9">
<rect width="122" height="96" fill="white" transform="translate(205 63)"/>
</clipPath>
</defs>
</svg>
